<svg width="19" height="29" viewBox="0 0 19 29" fill="none" xmlns="http://www.w3.org/2000/svg">
<path d="M8.6808 10.7013C8.6808 9.75474 7.89376 8.98477 6.92653 8.98477C5.95891 8.98477 5.17188 9.75474 5.17188 10.7013C5.17188 11.6463 5.95891 12.4151 6.92653 12.4151C6.92971 12.4151 6.93289 12.4143 6.93606 12.4143H7.50163V21.2984C7.50163 21.6234 7.76517 21.8869 8.09022 21.8869C8.41528 21.8869 8.67881 21.6234 8.67881 21.2984V12.4139H10.31V21.298C10.31 21.623 10.5736 21.8865 10.8986 21.8865C11.2237 21.8865 11.4872 21.623 11.4872 21.298V12.4139H12.0587C12.0619 12.4139 12.0651 12.4147 12.0683 12.4147C13.0355 12.4147 13.8225 11.6459 13.8225 10.7009C13.8225 9.75435 13.0355 8.98438 12.0683 8.98438C11.1423 8.98438 10.3894 9.69005 10.3235 10.5783C10.3152 10.6176 10.3104 10.6585 10.3104 10.7005V11.2371H8.67921V10.7236C8.67881 10.716 8.6808 10.7089 8.6808 10.7013ZM7.50203 10.7009V11.2375H6.92733C6.92574 11.2375 6.92415 11.2379 6.92217 11.2379C6.60585 11.2355 6.34906 10.9958 6.34906 10.7013C6.34906 10.4037 6.60823 10.1616 6.92693 10.1616C7.24127 10.1616 7.49687 10.3977 7.50322 10.6902C7.50282 10.6938 7.50203 10.6974 7.50203 10.7009ZM11.4868 10.7049C11.4868 10.7037 11.4872 10.7025 11.4872 10.7013C11.4872 10.4037 11.7476 10.1616 12.0675 10.1616C12.3858 10.1616 12.645 10.4037 12.645 10.7013C12.645 10.9962 12.3882 11.2359 12.0714 11.2379C12.0695 11.2379 12.0679 11.2375 12.0659 11.2375H11.4864V10.7049H11.4868Z" fill="white"/>
<path d="M11.2094 0.353035C10.6379 0.255796 10.066 0.210154 9.49919 0.210948C8.93243 0.210154 8.36051 0.2554 7.78899 0.353035C3.90143 1.01426 0.856469 3.98896 0.211916 7.75508C-0.19212 10.1166 0.353607 12.4809 1.74948 14.4118C3.26322 16.5065 4.44001 18.5176 4.47017 20.3624C4.48962 21.5415 4.91747 21.7689 5.25721 21.7666C6.72452 21.7574 5.72991 18.5875 5.60251 18.1969C5.04448 16.4903 4.0713 14.936 3.02588 13.4894C1.88045 11.9038 1.43196 9.9618 1.76416 8.0206C2.296 4.91214 4.8238 2.45458 8.05371 1.90528C8.53197 1.82392 9.01102 1.78383 9.48491 1.78383C9.48967 1.78383 9.49483 1.78463 9.49959 1.78463C9.50435 1.78463 9.50951 1.78383 9.51428 1.78383C9.98856 1.78383 10.4672 1.82392 10.9455 1.90528C14.1754 2.45458 16.7028 4.91214 17.235 8.0206C17.5672 9.9618 17.1191 11.9038 15.9733 13.4894C14.9279 14.936 13.9547 16.4903 13.3967 18.1969C13.2689 18.5875 12.2747 21.7578 13.742 21.7666C14.0817 21.7685 14.51 21.5415 14.529 20.3624C14.5592 18.5176 15.736 16.5062 17.2497 14.4118C18.6452 12.4805 19.1913 10.1166 18.7873 7.75508C18.1419 3.98896 15.097 1.01426 11.2094 0.353035Z" fill="white"/>
<path d="M13.2015 22.6309H5.79788C5.31407 22.6309 4.91797 23.027 4.91797 23.5108C4.91797 23.9946 5.31407 24.3907 5.79788 24.3907H13.2015C13.6853 24.3907 14.0814 23.9946 14.0814 23.5108C14.081 23.027 13.6853 22.6309 13.2015 22.6309Z" fill="white"/>
<path d="M13.2015 24.998H5.79788C5.31407 24.998 4.91797 25.3941 4.91797 25.878C4.91797 26.3618 5.31407 26.7579 5.79788 26.7579H13.2015C13.6853 26.7579 14.0814 26.3618 14.0814 25.878C14.081 25.3941 13.6853 24.998 13.2015 24.998Z" fill="white"/>
<path d="M11.2863 27.4902H7.71503C7.30028 27.4902 6.96094 27.8296 6.96094 28.2443C6.96094 28.6591 7.30028 28.9984 7.71503 28.9984H11.2863C11.701 28.9984 12.0404 28.6591 12.0404 28.2443C12.0404 27.8296 11.701 27.4902 11.2863 27.4902Z" fill="white"/>
</svg>
