<svg width="547" height="293" viewBox="0 0 547 293" fill="none" xmlns="http://www.w3.org/2000/svg">
<rect x="46" width="501" height="267" rx="20" fill="#0A121C"/>
<circle cx="71.4183" cy="221.418" r="64.9183" stroke="url(#paint0_linear)" stroke-width="13"/>
<circle cx="130.418" cy="170.418" r="64.9183" stroke="url(#paint1_linear)" stroke-width="13"/>
<path d="M199 42.5H361.5C370.889 42.5 378.5 50.1112 378.5 59.5C378.5 68.8888 370.889 76.5 361.5 76.5H179.5V62C179.5 51.2304 188.23 42.5 199 42.5Z" stroke="white"/>
<path d="M202.553 58.415C202.358 58.24 202.088 58.0975 201.743 57.9875C201.398 57.8775 200.96 57.8225 200.43 57.8225C200.01 57.8225 199.633 57.9025 199.298 58.0625C198.968 58.2175 198.685 58.43 198.45 58.7C198.22 58.97 198.043 59.285 197.918 59.645C197.798 60 197.738 60.375 197.738 60.77C197.738 61.18 197.795 61.5725 197.91 61.9475C198.03 62.3175 198.205 62.645 198.435 62.93C198.67 63.215 198.96 63.4425 199.305 63.6125C199.65 63.7775 200.053 63.86 200.513 63.86C200.773 63.86 201.023 63.83 201.263 63.77C201.503 63.71 201.72 63.64 201.915 63.56C202.11 63.475 202.275 63.3925 202.41 63.3125C202.55 63.2275 202.65 63.16 202.71 63.11L203.25 64.1675C203.175 64.2325 203.063 64.32 202.913 64.43C202.763 64.535 202.57 64.64 202.335 64.745C202.105 64.85 201.83 64.94 201.51 65.015C201.195 65.09 200.828 65.1275 200.408 65.1275C199.783 65.1275 199.215 65.005 198.705 64.76C198.2 64.51 197.768 64.18 197.408 63.77C197.048 63.355 196.768 62.88 196.568 62.345C196.373 61.81 196.275 61.2525 196.275 60.6725C196.275 60.1525 196.37 59.65 196.56 59.165C196.755 58.675 197.033 58.2425 197.393 57.8675C197.753 57.4925 198.19 57.1925 198.705 56.9675C199.22 56.7375 199.8 56.6225 200.445 56.6225C201.055 56.6225 201.603 56.695 202.088 56.84C202.578 56.98 202.98 57.2225 203.295 57.5675L202.553 58.415ZM209.623 65.1275C209.068 65.1275 208.558 65.02 208.093 64.805C207.633 64.585 207.236 64.285 206.901 63.905C206.566 63.52 206.303 63.0675 206.113 62.5475C205.928 62.0275 205.836 61.4625 205.836 60.8525C205.836 60.2475 205.926 59.6875 206.106 59.1725C206.286 58.6525 206.541 58.205 206.871 57.83C207.201 57.45 207.598 57.155 208.063 56.945C208.533 56.73 209.053 56.6225 209.623 56.6225C210.178 56.6225 210.683 56.73 211.138 56.945C211.593 57.155 211.983 57.45 212.308 57.83C212.638 58.205 212.893 58.6525 213.073 59.1725C213.253 59.6875 213.343 60.2475 213.343 60.8525C213.343 61.4625 213.256 62.0275 213.081 62.5475C212.911 63.0675 212.663 63.52 212.338 63.905C212.018 64.285 211.628 64.585 211.168 64.805C210.708 65.02 210.193 65.1275 209.623 65.1275ZM211.918 61.055C211.918 60.65 211.876 60.2525 211.791 59.8625C211.706 59.4725 211.571 59.125 211.386 58.82C211.201 58.51 210.961 58.26 210.666 58.07C210.371 57.88 210.013 57.785 209.593 57.785C209.193 57.785 208.846 57.8675 208.551 58.0325C208.256 58.1975 208.013 58.4175 207.823 58.6925C207.633 58.9675 207.491 59.28 207.396 59.63C207.306 59.98 207.261 60.34 207.261 60.71C207.261 61.115 207.306 61.5125 207.396 61.9025C207.491 62.2925 207.633 62.64 207.823 62.945C208.018 63.25 208.266 63.4975 208.566 63.6875C208.871 63.8725 209.233 63.965 209.653 63.965C210.048 63.965 210.388 63.8825 210.673 63.7175C210.963 63.5525 211.198 63.335 211.378 63.065C211.563 62.79 211.698 62.48 211.783 62.135C211.873 61.785 211.918 61.425 211.918 61.055ZM216.492 65H215.157V56.75L216.492 56.6V57.9725C216.597 57.7725 216.677 57.6175 216.732 57.5075C216.792 57.3925 216.834 57.31 216.859 57.26C216.889 57.205 216.907 57.1725 216.912 57.1625L216.927 57.14C216.972 57.095 217.034 57.0425 217.114 56.9825C217.199 56.9225 217.302 56.8675 217.422 56.8175C217.542 56.7625 217.679 56.7175 217.834 56.6825C217.989 56.6425 218.164 56.6225 218.359 56.6225C218.639 56.6225 218.869 56.66 219.049 56.735C219.229 56.805 219.377 56.905 219.492 57.035C219.607 57.16 219.697 57.3125 219.762 57.4925C219.827 57.6725 219.887 57.8675 219.942 58.0775L220.414 57.1775C220.464 57.1325 220.544 57.0775 220.654 57.0125C220.769 56.9475 220.899 56.8875 221.044 56.8325C221.194 56.7725 221.352 56.7225 221.517 56.6825C221.682 56.6425 221.844 56.6225 222.004 56.6225C222.384 56.6225 222.684 56.6875 222.904 56.8175C223.129 56.9425 223.297 57.125 223.407 57.365C223.522 57.605 223.594 57.895 223.624 58.235C223.659 58.575 223.677 58.955 223.677 59.375V65H222.342V59.45C222.342 59.18 222.337 58.945 222.327 58.745C222.322 58.54 222.292 58.37 222.237 58.235C222.187 58.095 222.104 57.9925 221.989 57.9275C221.879 57.8575 221.722 57.8225 221.517 57.8225C221.417 57.8225 221.294 57.855 221.149 57.92C221.004 57.98 220.859 58.06 220.714 58.16C220.574 58.255 220.442 58.365 220.317 58.49C220.197 58.61 220.112 58.7325 220.062 58.8575C220.062 58.8875 220.062 58.9375 220.062 59.0075C220.067 59.0725 220.069 59.1425 220.069 59.2175C220.074 59.2875 220.077 59.355 220.077 59.42V65H218.734V59.6C218.734 59.33 218.729 59.085 218.719 58.865C218.709 58.645 218.677 58.46 218.622 58.31C218.572 58.155 218.487 58.035 218.367 57.95C218.252 57.865 218.087 57.8225 217.872 57.8225C217.792 57.8225 217.689 57.845 217.564 57.89C217.439 57.935 217.309 58.0025 217.174 58.0925C217.044 58.1775 216.917 58.2825 216.792 58.4075C216.672 58.5275 216.572 58.665 216.492 58.82V65ZM226.248 65H224.913V56.75L226.248 56.6V57.9725C226.353 57.7725 226.433 57.6175 226.488 57.5075C226.548 57.3925 226.59 57.31 226.615 57.26C226.645 57.205 226.663 57.1725 226.668 57.1625L226.683 57.14C226.728 57.095 226.79 57.0425 226.87 56.9825C226.955 56.9225 227.058 56.8675 227.178 56.8175C227.298 56.7625 227.435 56.7175 227.59 56.6825C227.745 56.6425 227.92 56.6225 228.115 56.6225C228.395 56.6225 228.625 56.66 228.805 56.735C228.985 56.805 229.133 56.905 229.248 57.035C229.363 57.16 229.453 57.3125 229.518 57.4925C229.583 57.6725 229.643 57.8675 229.698 58.0775L230.17 57.1775C230.22 57.1325 230.3 57.0775 230.41 57.0125C230.525 56.9475 230.655 56.8875 230.8 56.8325C230.95 56.7725 231.108 56.7225 231.273 56.6825C231.438 56.6425 231.6 56.6225 231.76 56.6225C232.14 56.6225 232.44 56.6875 232.66 56.8175C232.885 56.9425 233.053 57.125 233.163 57.365C233.278 57.605 233.35 57.895 233.38 58.235C233.415 58.575 233.433 58.955 233.433 59.375V65H232.098V59.45C232.098 59.18 232.093 58.945 232.083 58.745C232.078 58.54 232.048 58.37 231.993 58.235C231.943 58.095 231.86 57.9925 231.745 57.9275C231.635 57.8575 231.478 57.8225 231.273 57.8225C231.173 57.8225 231.05 57.855 230.905 57.92C230.76 57.98 230.615 58.06 230.47 58.16C230.33 58.255 230.198 58.365 230.073 58.49C229.953 58.61 229.868 58.7325 229.818 58.8575C229.818 58.8875 229.818 58.9375 229.818 59.0075C229.823 59.0725 229.825 59.1425 229.825 59.2175C229.83 59.2875 229.833 59.355 229.833 59.42V65H228.49V59.6C228.49 59.33 228.485 59.085 228.475 58.865C228.465 58.645 228.433 58.46 228.378 58.31C228.328 58.155 228.243 58.035 228.123 57.95C228.008 57.865 227.843 57.8225 227.628 57.8225C227.548 57.8225 227.445 57.845 227.32 57.89C227.195 57.935 227.065 58.0025 226.93 58.0925C226.8 58.1775 226.673 58.2825 226.548 58.4075C226.428 58.5275 226.328 58.665 226.248 58.82V65ZM241.006 56.75L242.356 56.6V65H241.006V63.65L240.548 64.4525C240.503 64.5075 240.431 64.5725 240.331 64.6475C240.231 64.7225 240.106 64.7975 239.956 64.8725C239.806 64.9425 239.633 65.0025 239.438 65.0525C239.243 65.1025 239.026 65.1275 238.786 65.1275C238.181 65.1275 237.673 65.035 237.263 64.85C236.858 64.66 236.533 64.41 236.288 64.1C236.043 63.79 235.868 63.4325 235.763 63.0275C235.658 62.6225 235.606 62.205 235.606 61.775V56.75L236.956 56.6V61.775C236.956 62.1 236.988 62.3925 237.053 62.6525C237.118 62.9125 237.228 63.135 237.383 63.32C237.543 63.505 237.753 63.6475 238.013 63.7475C238.278 63.8425 238.606 63.89 238.996 63.89C239.286 63.89 239.543 63.85 239.768 63.77C239.993 63.685 240.188 63.585 240.353 63.47C240.523 63.35 240.661 63.225 240.766 63.095C240.876 62.965 240.956 62.85 241.006 62.75V56.75ZM246.712 65H245.362V56.75L246.712 56.6V58.0475L247.169 57.17C247.259 57.11 247.364 57.0475 247.484 56.9825C247.609 56.9175 247.759 56.86 247.934 56.81C248.109 56.755 248.317 56.71 248.557 56.675C248.797 56.64 249.079 56.6225 249.404 56.6225C249.799 56.6225 250.154 56.6875 250.469 56.8175C250.789 56.9425 251.057 57.125 251.272 57.365C251.492 57.605 251.659 57.895 251.774 58.235C251.894 58.575 251.954 58.955 251.954 59.375V65H250.604V59.375C250.604 59.105 250.559 58.8725 250.469 58.6775C250.384 58.4825 250.264 58.3225 250.109 58.1975C249.954 58.0675 249.774 57.9725 249.569 57.9125C249.364 57.8525 249.147 57.8225 248.917 57.8225C248.677 57.8225 248.444 57.8525 248.219 57.9125C247.999 57.9725 247.794 58.05 247.604 58.145C247.414 58.235 247.242 58.335 247.087 58.445C246.937 58.55 246.812 58.65 246.712 58.745V65ZM258.868 62.0525C258.868 62.3125 258.883 62.5525 258.913 62.7725C258.948 62.9925 259.003 63.1825 259.078 63.3425C259.153 63.5025 259.253 63.6275 259.378 63.7175C259.503 63.8075 259.658 63.8525 259.843 63.8525C260.088 63.8525 260.325 63.8325 260.555 63.7925C260.79 63.7525 261 63.7075 261.185 63.6575C261.37 63.6025 261.523 63.5525 261.643 63.5075C261.768 63.4625 261.845 63.435 261.875 63.425L262.168 64.58C262.138 64.595 262.058 64.6325 261.928 64.6925C261.798 64.7525 261.628 64.815 261.418 64.88C261.208 64.94 260.963 64.995 260.683 65.045C260.403 65.1 260.098 65.1275 259.768 65.1275C259.278 65.1275 258.88 65.0475 258.575 64.8875C258.275 64.7275 258.04 64.5075 257.87 64.2275C257.7 63.9425 257.585 63.6075 257.525 63.2225C257.47 62.8375 257.443 62.4225 257.443 61.9775V58.1L257.743 57.65L256.693 57.95H255.185L255.035 56.75H258.868V62.0525ZM257.398 53.75H258.913V55.25H257.398V53.75ZM267.574 62.18C267.574 62.51 267.591 62.7875 267.626 63.0125C267.666 63.2325 267.721 63.4125 267.791 63.5525C267.866 63.6875 267.956 63.785 268.061 63.845C268.171 63.9 268.296 63.9275 268.436 63.9275C268.671 63.9275 268.904 63.9 269.134 63.845C269.364 63.79 269.579 63.7275 269.779 63.6575C269.979 63.5825 270.156 63.51 270.311 63.44C270.466 63.365 270.586 63.31 270.671 63.275L271.189 64.1825C271.144 64.2225 271.034 64.295 270.859 64.4C270.689 64.5 270.471 64.605 270.206 64.715C269.946 64.825 269.651 64.92 269.321 65C268.991 65.085 268.646 65.1275 268.286 65.1275C267.836 65.1275 267.474 65.045 267.199 64.88C266.929 64.715 266.721 64.49 266.576 64.205C266.431 63.92 266.336 63.59 266.291 63.215C266.246 62.835 266.224 62.43 266.224 62V57.95H264.041V56.75H266.224V55.1825L267.536 54.35V56.75H271.166L271.016 57.95H267.574V62.18ZM278.387 62.27L280.404 56.75L281.754 56.6L278.724 65.1275C278.574 65.5475 278.412 65.965 278.237 66.38C278.067 66.795 277.872 67.1675 277.652 67.4975C277.437 67.8275 277.192 68.0925 276.917 68.2925C276.647 68.4975 276.337 68.6 275.987 68.6C275.707 68.6 275.449 68.545 275.214 68.435C274.979 68.325 274.757 68.18 274.547 68L275.094 67.1225C275.124 67.1525 275.162 67.1875 275.207 67.2275C275.257 67.2675 275.309 67.305 275.364 67.34C275.424 67.38 275.487 67.4125 275.552 67.4375C275.622 67.4625 275.692 67.475 275.762 67.475C275.942 67.475 276.104 67.41 276.249 67.28C276.399 67.155 276.537 66.99 276.662 66.785C276.792 66.58 276.909 66.3525 277.014 66.1025C277.124 65.8525 277.229 65.6025 277.329 65.3525L274.277 56.75L275.702 56.6L277.682 62.27L278.072 64.01L278.387 62.27ZM300.111 58.415C299.916 58.24 299.646 58.0975 299.301 57.9875C298.956 57.8775 298.519 57.8225 297.989 57.8225C297.569 57.8225 297.191 57.9025 296.856 58.0625C296.526 58.2175 296.244 58.43 296.009 58.7C295.779 58.97 295.601 59.285 295.476 59.645C295.356 60 295.296 60.375 295.296 60.77C295.296 61.18 295.354 61.5725 295.469 61.9475C295.589 62.3175 295.764 62.645 295.994 62.93C296.229 63.215 296.519 63.4425 296.864 63.6125C297.209 63.7775 297.611 63.86 298.071 63.86C298.331 63.86 298.581 63.83 298.821 63.77C299.061 63.71 299.279 63.64 299.474 63.56C299.669 63.475 299.834 63.3925 299.969 63.3125C300.109 63.2275 300.209 63.16 300.269 63.11L300.809 64.1675C300.734 64.2325 300.621 64.32 300.471 64.43C300.321 64.535 300.129 64.64 299.894 64.745C299.664 64.85 299.389 64.94 299.069 65.015C298.754 65.09 298.386 65.1275 297.966 65.1275C297.341 65.1275 296.774 65.005 296.264 64.76C295.759 64.51 295.326 64.18 294.966 63.77C294.606 63.355 294.326 62.88 294.126 62.345C293.931 61.81 293.834 61.2525 293.834 60.6725C293.834 60.1525 293.929 59.65 294.119 59.165C294.314 58.675 294.591 58.2425 294.951 57.8675C295.311 57.4925 295.749 57.1925 296.264 56.9675C296.779 56.7375 297.359 56.6225 298.004 56.6225C298.614 56.6225 299.161 56.695 299.646 56.84C300.136 56.98 300.539 57.2225 300.854 57.5675L300.111 58.415ZM307.182 65.1275C306.627 65.1275 306.117 65.02 305.652 64.805C305.192 64.585 304.794 64.285 304.459 63.905C304.124 63.52 303.862 63.0675 303.672 62.5475C303.487 62.0275 303.394 61.4625 303.394 60.8525C303.394 60.2475 303.484 59.6875 303.664 59.1725C303.844 58.6525 304.099 58.205 304.429 57.83C304.759 57.45 305.157 57.155 305.622 56.945C306.092 56.73 306.612 56.6225 307.182 56.6225C307.737 56.6225 308.242 56.73 308.697 56.945C309.152 57.155 309.542 57.45 309.867 57.83C310.197 58.205 310.452 58.6525 310.632 59.1725C310.812 59.6875 310.902 60.2475 310.902 60.8525C310.902 61.4625 310.814 62.0275 310.639 62.5475C310.469 63.0675 310.222 63.52 309.897 63.905C309.577 64.285 309.187 64.585 308.727 64.805C308.267 65.02 307.752 65.1275 307.182 65.1275ZM309.477 61.055C309.477 60.65 309.434 60.2525 309.349 59.8625C309.264 59.4725 309.129 59.125 308.944 58.82C308.759 58.51 308.519 58.26 308.224 58.07C307.929 57.88 307.572 57.785 307.152 57.785C306.752 57.785 306.404 57.8675 306.109 58.0325C305.814 58.1975 305.572 58.4175 305.382 58.6925C305.192 58.9675 305.049 59.28 304.954 59.63C304.864 59.98 304.819 60.34 304.819 60.71C304.819 61.115 304.864 61.5125 304.954 61.9025C305.049 62.2925 305.192 62.64 305.382 62.945C305.577 63.25 305.824 63.4975 306.124 63.6875C306.429 63.8725 306.792 63.965 307.212 63.965C307.607 63.965 307.947 63.8825 308.232 63.7175C308.522 63.5525 308.757 63.335 308.937 63.065C309.122 62.79 309.257 62.48 309.342 62.135C309.432 61.785 309.477 61.425 309.477 61.055ZM315.003 65H313.653V56.75L315.003 56.6V58.0475L315.46 57.17C315.55 57.11 315.655 57.0475 315.775 56.9825C315.9 56.9175 316.05 56.86 316.225 56.81C316.4 56.755 316.608 56.71 316.848 56.675C317.088 56.64 317.37 56.6225 317.695 56.6225C318.09 56.6225 318.445 56.6875 318.76 56.8175C319.08 56.9425 319.348 57.125 319.563 57.365C319.783 57.605 319.95 57.895 320.065 58.235C320.185 58.575 320.245 58.955 320.245 59.375V65H318.895V59.375C318.895 59.105 318.85 58.8725 318.76 58.6775C318.675 58.4825 318.555 58.3225 318.4 58.1975C318.245 58.0675 318.065 57.9725 317.86 57.9125C317.655 57.8525 317.438 57.8225 317.208 57.8225C316.968 57.8225 316.735 57.8525 316.51 57.9125C316.29 57.9725 316.085 58.05 315.895 58.145C315.705 58.235 315.533 58.335 315.378 58.445C315.228 58.55 315.103 58.65 315.003 58.745V65ZM324.759 65H323.409V56.75L324.759 56.6V58.0475L325.216 57.17C325.306 57.11 325.411 57.0475 325.531 56.9825C325.656 56.9175 325.806 56.86 325.981 56.81C326.156 56.755 326.364 56.71 326.604 56.675C326.844 56.64 327.126 56.6225 327.451 56.6225C327.846 56.6225 328.201 56.6875 328.516 56.8175C328.836 56.9425 329.104 57.125 329.319 57.365C329.539 57.605 329.706 57.895 329.821 58.235C329.941 58.575 330.001 58.955 330.001 59.375V65H328.651V59.375C328.651 59.105 328.606 58.8725 328.516 58.6775C328.431 58.4825 328.311 58.3225 328.156 58.1975C328.001 58.0675 327.821 57.9725 327.616 57.9125C327.411 57.8525 327.194 57.8225 326.964 57.8225C326.724 57.8225 326.491 57.8525 326.266 57.9125C326.046 57.9725 325.841 58.05 325.651 58.145C325.461 58.235 325.289 58.335 325.134 58.445C324.984 58.55 324.859 58.65 324.759 58.745V65ZM339.337 64.0325C339.182 64.1925 339.012 64.34 338.827 64.475C338.642 64.61 338.437 64.7275 338.212 64.8275C337.987 64.9225 337.737 64.995 337.462 65.045C337.192 65.1 336.89 65.1275 336.555 65.1275C335.89 65.1275 335.315 65.01 334.83 64.775C334.345 64.54 333.945 64.225 333.63 63.83C333.315 63.435 333.082 62.9825 332.932 62.4725C332.782 61.9625 332.707 61.43 332.707 60.875C332.707 60.52 332.742 60.17 332.812 59.825C332.887 59.475 332.992 59.1425 333.127 58.8275C333.267 58.5125 333.44 58.22 333.645 57.95C333.855 57.68 334.095 57.4475 334.365 57.2525C334.64 57.0575 334.942 56.905 335.272 56.795C335.607 56.68 335.972 56.6225 336.367 56.6225C336.907 56.6225 337.395 56.71 337.83 56.885C338.265 57.06 338.635 57.305 338.94 57.62C339.245 57.935 339.48 58.315 339.645 58.76C339.81 59.2 339.892 59.685 339.892 60.215C339.892 60.37 339.887 60.54 339.877 60.725C339.867 60.91 339.852 61.085 339.832 61.25H334.132C334.132 61.635 334.192 61.9925 334.312 62.3225C334.432 62.6475 334.595 62.93 334.8 63.17C335.01 63.405 335.255 63.59 335.535 63.725C335.82 63.86 336.127 63.9275 336.457 63.9275C336.777 63.9275 337.05 63.905 337.275 63.86C337.505 63.81 337.697 63.75 337.852 63.68C338.012 63.61 338.145 63.535 338.25 63.455C338.355 63.375 338.445 63.3 338.52 63.23L339.337 64.0325ZM338.572 60.125V59.795C338.572 59.51 338.515 59.2475 338.4 59.0075C338.29 58.7675 338.137 58.56 337.942 58.385C337.752 58.205 337.53 58.065 337.275 57.965C337.025 57.865 336.76 57.815 336.48 57.815C336.145 57.815 335.85 57.87 335.595 57.98C335.345 58.085 335.13 58.2225 334.95 58.3925C334.77 58.5575 334.625 58.74 334.515 58.94C334.405 59.14 334.325 59.33 334.275 59.51L333.832 60.365L335.22 60.125H338.572ZM348.89 58.415C348.695 58.24 348.425 58.0975 348.08 57.9875C347.735 57.8775 347.298 57.8225 346.768 57.8225C346.348 57.8225 345.97 57.9025 345.635 58.0625C345.305 58.2175 345.023 58.43 344.788 58.7C344.558 58.97 344.38 59.285 344.255 59.645C344.135 60 344.075 60.375 344.075 60.77C344.075 61.18 344.133 61.5725 344.248 61.9475C344.368 62.3175 344.543 62.645 344.773 62.93C345.008 63.215 345.298 63.4425 345.643 63.6125C345.988 63.7775 346.39 63.86 346.85 63.86C347.11 63.86 347.36 63.83 347.6 63.77C347.84 63.71 348.058 63.64 348.253 63.56C348.448 63.475 348.613 63.3925 348.748 63.3125C348.888 63.2275 348.988 63.16 349.048 63.11L349.588 64.1675C349.513 64.2325 349.4 64.32 349.25 64.43C349.1 64.535 348.908 64.64 348.673 64.745C348.443 64.85 348.168 64.94 347.848 65.015C347.533 65.09 347.165 65.1275 346.745 65.1275C346.12 65.1275 345.553 65.005 345.043 64.76C344.538 64.51 344.105 64.18 343.745 63.77C343.385 63.355 343.105 62.88 342.905 62.345C342.71 61.81 342.613 61.2525 342.613 60.6725C342.613 60.1525 342.708 59.65 342.898 59.165C343.093 58.675 343.37 58.2425 343.73 57.8675C344.09 57.4925 344.528 57.1925 345.043 56.9675C345.558 56.7375 346.138 56.6225 346.783 56.6225C347.393 56.6225 347.94 56.695 348.425 56.84C348.915 56.98 349.318 57.2225 349.633 57.5675L348.89 58.415ZM355.376 62.18C355.376 62.51 355.394 62.7875 355.429 63.0125C355.469 63.2325 355.524 63.4125 355.594 63.5525C355.669 63.6875 355.759 63.785 355.864 63.845C355.974 63.9 356.099 63.9275 356.239 63.9275C356.474 63.9275 356.706 63.9 356.936 63.845C357.166 63.79 357.381 63.7275 357.581 63.6575C357.781 63.5825 357.959 63.51 358.114 63.44C358.269 63.365 358.389 63.31 358.474 63.275L358.991 64.1825C358.946 64.2225 358.836 64.295 358.661 64.4C358.491 64.5 358.274 64.605 358.009 64.715C357.749 64.825 357.454 64.92 357.124 65C356.794 65.085 356.449 65.1275 356.089 65.1275C355.639 65.1275 355.276 65.045 355.001 64.88C354.731 64.715 354.524 64.49 354.379 64.205C354.234 63.92 354.139 63.59 354.094 63.215C354.049 62.835 354.026 62.43 354.026 62V57.95H351.844V56.75H354.026V55.1825L355.339 54.35V56.75H358.969L358.819 57.95H355.376V62.18Z" fill="white"/>
<defs>
<linearGradient id="paint0_linear" x1="71.4183" y1="150" x2="71.4183" y2="292.837" gradientUnits="userSpaceOnUse">
<stop stop-color="#137FCE"/>
<stop offset="1" stop-color="#19DADA"/>
</linearGradient>
<linearGradient id="paint1_linear" x1="130.418" y1="99" x2="130.418" y2="241.837" gradientUnits="userSpaceOnUse">
<stop stop-color="#137FCE"/>
<stop offset="1" stop-color="#19DADA"/>
</linearGradient>
</defs>
</svg>
