<svg width="308" height="282" viewBox="0 0 308 282" fill="none" xmlns="http://www.w3.org/2000/svg">
<g filter="url(#filter0_d)">
<rect x="4" width="300" height="274" rx="10" fill="#333333"/>
</g>
<path d="M107.147 174V164.047H110.401C111.481 164.047 112.292 164.27 112.834 164.717C113.381 165.163 113.655 165.824 113.655 166.699C113.655 167.164 113.523 167.576 113.258 167.937C112.994 168.292 112.634 168.568 112.178 168.764C112.716 168.914 113.14 169.201 113.45 169.625C113.764 170.044 113.921 170.546 113.921 171.129C113.921 172.022 113.632 172.724 113.053 173.234C112.474 173.745 111.656 174 110.599 174H107.147ZM108.459 169.345V172.927H110.626C111.237 172.927 111.718 172.77 112.069 172.455C112.424 172.136 112.602 171.699 112.602 171.143C112.602 169.944 111.95 169.345 110.647 169.345H108.459ZM108.459 168.292H110.442C111.016 168.292 111.474 168.148 111.816 167.861C112.162 167.574 112.335 167.185 112.335 166.692C112.335 166.146 112.176 165.749 111.857 165.503C111.538 165.252 111.052 165.127 110.401 165.127H108.459V168.292ZM130.456 169.399H126.142V172.927H131.153V174H124.83V164.047H131.084V165.127H126.142V168.326H130.456V169.399ZM148.76 165.127H145.561V174H144.255V165.127H141.063V164.047H148.76V165.127ZM166.183 165.127H162.984V174H161.678V165.127H158.486V164.047H166.183V165.127ZM182.246 169.399H177.932V172.927H182.943V174H176.62V164.047H182.875V165.127H177.932V168.326H182.246V169.399ZM197.187 169.974H194.849V174H193.53V164.047H196.825C197.946 164.047 198.807 164.302 199.409 164.812C200.015 165.323 200.318 166.066 200.318 167.041C200.318 167.661 200.149 168.201 199.812 168.661C199.479 169.121 199.015 169.465 198.418 169.693L200.755 173.918V174H199.347L197.187 169.974ZM194.849 168.9H196.866C197.518 168.9 198.035 168.732 198.418 168.395C198.805 168.057 198.999 167.606 198.999 167.041C198.999 166.426 198.814 165.954 198.445 165.626C198.08 165.298 197.552 165.132 196.859 165.127H194.849V168.9ZM106.133 190.842C106.01 191.895 105.62 192.708 104.964 193.282C104.312 193.852 103.444 194.137 102.359 194.137C101.183 194.137 100.24 193.715 99.5292 192.872C98.8228 192.029 98.4696 190.901 98.4696 189.488V188.531C98.4696 187.606 98.6337 186.793 98.9618 186.091C99.2945 185.389 99.7639 184.851 100.37 184.478C100.976 184.099 101.678 183.91 102.475 183.91C103.533 183.91 104.38 184.206 105.018 184.799C105.656 185.387 106.028 186.202 106.133 187.246H104.813C104.699 186.453 104.451 185.879 104.068 185.523C103.69 185.168 103.159 184.99 102.475 184.99C101.637 184.99 100.978 185.3 100.5 185.92C100.026 186.54 99.7889 187.422 99.7889 188.565V189.529C99.7889 190.609 100.015 191.468 100.466 192.106C100.917 192.744 101.548 193.063 102.359 193.063C103.088 193.063 103.647 192.899 104.034 192.571C104.426 192.239 104.686 191.662 104.813 190.842H106.133ZM124.54 194H123.221V189.399H118.203V194H116.891V184.047H118.203V188.326H123.221V184.047H124.54V194ZM143.487 189.345C143.487 190.32 143.323 191.172 142.995 191.901C142.667 192.626 142.202 193.18 141.601 193.562C140.999 193.945 140.297 194.137 139.495 194.137C138.711 194.137 138.016 193.945 137.41 193.562C136.804 193.175 136.332 192.626 135.995 191.915C135.662 191.2 135.491 190.372 135.482 189.434V188.716C135.482 187.759 135.649 186.913 135.981 186.18C136.314 185.446 136.783 184.885 137.39 184.498C138 184.106 138.698 183.91 139.481 183.91C140.279 183.91 140.981 184.104 141.587 184.491C142.198 184.874 142.667 185.432 142.995 186.166C143.323 186.895 143.487 187.745 143.487 188.716V189.345ZM142.182 188.702C142.182 187.522 141.945 186.617 141.471 185.988C140.997 185.355 140.334 185.038 139.481 185.038C138.652 185.038 137.998 185.355 137.519 185.988C137.046 186.617 136.802 187.492 136.788 188.613V189.345C136.788 190.489 137.027 191.389 137.506 192.045C137.989 192.697 138.652 193.022 139.495 193.022C140.343 193.022 140.999 192.715 141.464 192.1C141.929 191.48 142.168 190.593 142.182 189.44V188.702ZM155.824 194H154.512V184.047H155.824V194ZM174.512 190.842C174.389 191.895 173.999 192.708 173.343 193.282C172.691 193.852 171.823 194.137 170.738 194.137C169.563 194.137 168.619 193.715 167.908 192.872C167.202 192.029 166.849 190.901 166.849 189.488V188.531C166.849 187.606 167.013 186.793 167.341 186.091C167.674 185.389 168.143 184.851 168.749 184.478C169.355 184.099 170.057 183.91 170.855 183.91C171.912 183.91 172.759 184.206 173.397 184.799C174.036 185.387 174.407 186.202 174.512 187.246H173.192C173.078 186.453 172.83 185.879 172.447 185.523C172.069 185.168 171.538 184.99 170.855 184.99C170.016 184.99 169.357 185.3 168.879 185.92C168.405 186.54 168.168 187.422 168.168 188.565V189.529C168.168 190.609 168.394 191.468 168.845 192.106C169.296 192.744 169.927 193.063 170.738 193.063C171.467 193.063 172.026 192.899 172.413 192.571C172.805 192.239 173.065 191.662 173.192 190.842H174.512ZM190.896 189.399H186.582V192.927H191.593V194H185.27V184.047H191.524V185.127H186.582V188.326H190.896V189.399ZM205.119 189.563C203.994 189.24 203.173 188.843 202.658 188.374C202.148 187.9 201.893 187.317 201.893 186.624C201.893 185.84 202.205 185.193 202.829 184.683C203.458 184.168 204.274 183.91 205.276 183.91C205.96 183.91 206.568 184.042 207.102 184.307C207.639 184.571 208.054 184.936 208.346 185.4C208.642 185.865 208.79 186.373 208.79 186.925H207.471C207.471 186.323 207.279 185.852 206.897 185.51C206.514 185.163 205.974 184.99 205.276 184.99C204.629 184.99 204.123 185.134 203.759 185.421C203.399 185.703 203.219 186.098 203.219 186.604C203.219 187.009 203.39 187.353 203.732 187.636C204.078 187.914 204.664 188.169 205.488 188.401C206.318 188.634 206.965 188.891 207.43 189.174C207.899 189.452 208.246 189.778 208.469 190.151C208.697 190.525 208.811 190.965 208.811 191.471C208.811 192.277 208.496 192.924 207.867 193.412C207.238 193.895 206.398 194.137 205.345 194.137C204.661 194.137 204.023 194.007 203.431 193.747C202.838 193.483 202.38 193.123 202.057 192.667C201.738 192.211 201.578 191.694 201.578 191.115H202.898C202.898 191.717 203.119 192.193 203.561 192.544C204.007 192.89 204.602 193.063 205.345 193.063C206.038 193.063 206.568 192.922 206.938 192.64C207.307 192.357 207.491 191.972 207.491 191.484C207.491 190.997 207.32 190.621 206.979 190.356C206.637 190.088 206.017 189.823 205.119 189.563Z" fill="white"/>
<path d="M103.604 142.695C103.604 141.372 103.895 140.326 104.479 139.555C105.067 138.779 105.864 138.391 106.869 138.391C108.02 138.391 108.895 138.849 109.494 139.766L109.541 138.547H110.416V146.828C110.416 147.917 110.112 148.779 109.502 149.414C108.893 150.049 108.067 150.367 107.026 150.367C106.437 150.367 105.875 150.234 105.338 149.969C104.807 149.708 104.388 149.359 104.08 148.922L104.604 148.359C105.265 149.172 106.052 149.578 106.963 149.578C107.744 149.578 108.354 149.346 108.791 148.883C109.229 148.424 109.455 147.786 109.471 146.969V145.906C108.872 146.74 108 147.156 106.854 147.156C105.875 147.156 105.088 146.766 104.494 145.984C103.901 145.203 103.604 144.148 103.604 142.82V142.695ZM104.549 142.859C104.549 143.938 104.765 144.789 105.198 145.414C105.63 146.034 106.239 146.344 107.026 146.344C108.177 146.344 108.992 145.828 109.471 144.797V140.867C109.252 140.326 108.937 139.914 108.526 139.633C108.114 139.346 107.619 139.203 107.041 139.203C106.255 139.203 105.643 139.513 105.205 140.133C104.768 140.747 104.549 141.656 104.549 142.859ZM115.581 147H114.643V138.547H115.581V147ZM114.479 136.102C114.479 135.924 114.536 135.776 114.651 135.656C114.766 135.531 114.922 135.469 115.12 135.469C115.318 135.469 115.474 135.531 115.588 135.656C115.708 135.776 115.768 135.924 115.768 136.102C115.768 136.279 115.708 136.427 115.588 136.547C115.474 136.667 115.318 136.727 115.12 136.727C114.922 136.727 114.766 136.667 114.651 136.547C114.536 136.427 114.479 136.279 114.479 136.102ZM122.44 145.711L125.011 138.547H125.972L122.815 147H122.058L118.886 138.547H119.847L122.44 145.711ZM130.238 147H129.3V138.547H130.238V147ZM129.136 136.102C129.136 135.924 129.193 135.776 129.308 135.656C129.422 135.531 129.579 135.469 129.777 135.469C129.974 135.469 130.131 135.531 130.245 135.656C130.365 135.776 130.425 135.924 130.425 136.102C130.425 136.279 130.365 136.427 130.245 136.547C130.131 136.667 129.974 136.727 129.777 136.727C129.579 136.727 129.422 136.667 129.308 136.547C129.193 136.427 129.136 136.279 129.136 136.102ZM135.355 138.547L135.386 139.992C135.704 139.471 136.1 139.076 136.574 138.805C137.048 138.529 137.571 138.391 138.144 138.391C139.05 138.391 139.725 138.646 140.168 139.156C140.61 139.667 140.834 140.432 140.839 141.453V147H139.91V141.445C139.904 140.69 139.743 140.128 139.425 139.758C139.113 139.388 138.61 139.203 137.918 139.203C137.339 139.203 136.826 139.385 136.378 139.75C135.936 140.109 135.608 140.596 135.394 141.211V147H134.464V138.547H135.355ZM144.566 142.695C144.566 141.372 144.858 140.326 145.441 139.555C146.03 138.779 146.827 138.391 147.832 138.391C148.983 138.391 149.858 138.849 150.457 139.766L150.504 138.547H151.379V146.828C151.379 147.917 151.074 148.779 150.465 149.414C149.855 150.049 149.03 150.367 147.988 150.367C147.4 150.367 146.837 150.234 146.301 149.969C145.769 149.708 145.35 149.359 145.043 148.922L145.566 148.359C146.228 149.172 147.014 149.578 147.926 149.578C148.707 149.578 149.316 149.346 149.754 148.883C150.191 148.424 150.418 147.786 150.433 146.969V145.906C149.834 146.74 148.962 147.156 147.816 147.156C146.837 147.156 146.051 146.766 145.457 145.984C144.863 145.203 144.566 144.148 144.566 142.82V142.695ZM145.512 142.859C145.512 143.938 145.728 144.789 146.16 145.414C146.592 146.034 147.202 146.344 147.988 146.344C149.139 146.344 149.954 145.828 150.433 144.797V140.867C150.215 140.326 149.9 139.914 149.488 139.633C149.077 139.346 148.582 139.203 148.004 139.203C147.217 139.203 146.605 139.513 146.168 140.133C145.73 140.747 145.512 141.656 145.512 142.859ZM166.504 145.93C165.942 146.747 165.043 147.156 163.809 147.156C162.908 147.156 162.223 146.896 161.754 146.375C161.286 145.849 161.046 145.073 161.036 144.047V138.547H161.965V143.93C161.965 145.539 162.616 146.344 163.918 146.344C165.273 146.344 166.129 145.784 166.489 144.664V138.547H167.426V147H166.52L166.504 145.93ZM176.606 144.852C176.606 144.388 176.419 144.016 176.044 143.734C175.674 143.453 175.114 143.234 174.364 143.078C173.614 142.917 173.031 142.734 172.614 142.531C172.203 142.323 171.895 142.07 171.692 141.773C171.494 141.477 171.395 141.117 171.395 140.695C171.395 140.029 171.674 139.479 172.231 139.047C172.789 138.609 173.502 138.391 174.372 138.391C175.315 138.391 176.07 138.625 176.638 139.094C177.21 139.557 177.497 140.164 177.497 140.914H176.559C176.559 140.419 176.351 140.008 175.934 139.68C175.523 139.352 175.002 139.188 174.372 139.188C173.757 139.188 173.263 139.326 172.888 139.602C172.518 139.872 172.333 140.227 172.333 140.664C172.333 141.086 172.486 141.414 172.794 141.648C173.106 141.878 173.671 142.089 174.489 142.281C175.312 142.474 175.927 142.68 176.333 142.898C176.744 143.117 177.049 143.38 177.247 143.688C177.445 143.995 177.544 144.367 177.544 144.805C177.544 145.518 177.255 146.089 176.677 146.516C176.104 146.943 175.354 147.156 174.427 147.156C173.442 147.156 172.643 146.919 172.028 146.445C171.419 145.966 171.114 145.362 171.114 144.633H172.052C172.088 145.18 172.317 145.607 172.739 145.914C173.166 146.216 173.729 146.367 174.427 146.367C175.078 146.367 175.604 146.224 176.005 145.938C176.406 145.651 176.606 145.289 176.606 144.852ZM184.607 147.156C183.888 147.156 183.237 146.979 182.653 146.625C182.075 146.271 181.625 145.779 181.302 145.148C180.979 144.513 180.818 143.802 180.818 143.016V142.68C180.818 141.867 180.974 141.135 181.286 140.484C181.604 139.833 182.044 139.323 182.607 138.953C183.169 138.578 183.778 138.391 184.435 138.391C185.461 138.391 186.273 138.742 186.872 139.445C187.476 140.143 187.778 141.099 187.778 142.312V142.836H181.747V143.016C181.747 143.974 182.021 144.773 182.568 145.414C183.12 146.049 183.812 146.367 184.646 146.367C185.146 146.367 185.586 146.276 185.966 146.094C186.351 145.911 186.7 145.62 187.013 145.219L187.599 145.664C186.911 146.659 185.914 147.156 184.607 147.156ZM184.435 139.188C183.732 139.188 183.138 139.445 182.653 139.961C182.174 140.477 181.883 141.169 181.778 142.039H186.849V141.938C186.823 141.125 186.591 140.464 186.153 139.953C185.716 139.443 185.143 139.188 184.435 139.188ZM195.185 139.344C194.987 139.307 194.776 139.289 194.552 139.289C193.969 139.289 193.474 139.453 193.068 139.781C192.667 140.104 192.38 140.576 192.208 141.195V147H191.279V138.547H192.193L192.208 139.891C192.703 138.891 193.498 138.391 194.591 138.391C194.852 138.391 195.057 138.424 195.208 138.492L195.185 139.344ZM203.412 144.852C203.412 144.388 203.224 144.016 202.849 143.734C202.48 143.453 201.92 143.234 201.17 143.078C200.42 142.917 199.836 142.734 199.42 142.531C199.008 142.323 198.701 142.07 198.498 141.773C198.3 141.477 198.201 141.117 198.201 140.695C198.201 140.029 198.48 139.479 199.037 139.047C199.594 138.609 200.308 138.391 201.177 138.391C202.12 138.391 202.875 138.625 203.443 139.094C204.016 139.557 204.302 140.164 204.302 140.914H203.365C203.365 140.419 203.157 140.008 202.74 139.68C202.329 139.352 201.808 139.188 201.177 139.188C200.563 139.188 200.068 139.326 199.693 139.602C199.323 139.872 199.138 140.227 199.138 140.664C199.138 141.086 199.292 141.414 199.599 141.648C199.912 141.878 200.477 142.089 201.295 142.281C202.118 142.474 202.732 142.68 203.138 142.898C203.55 143.117 203.855 143.38 204.052 143.688C204.25 143.995 204.349 144.367 204.349 144.805C204.349 145.518 204.06 146.089 203.482 146.516C202.909 146.943 202.159 147.156 201.232 147.156C200.248 147.156 199.448 146.919 198.834 146.445C198.224 145.966 197.92 145.362 197.92 144.633H198.857C198.894 145.18 199.123 145.607 199.545 145.914C199.972 146.216 200.534 146.367 201.232 146.367C201.883 146.367 202.409 146.224 202.81 145.938C203.211 145.651 203.412 145.289 203.412 144.852Z" fill="white"/>
<path d="M109.448 109.547L109.502 110.43C110.096 109.737 110.909 109.391 111.94 109.391C113.07 109.391 113.844 109.823 114.26 110.688C114.875 109.823 115.739 109.391 116.854 109.391C117.786 109.391 118.479 109.648 118.932 110.164C119.391 110.68 119.625 111.44 119.635 112.445V118H117.737V112.5C117.737 111.964 117.62 111.57 117.385 111.32C117.151 111.07 116.763 110.945 116.221 110.945C115.789 110.945 115.435 111.062 115.159 111.297C114.888 111.526 114.698 111.828 114.588 112.203L114.596 118H112.698V112.438C112.672 111.443 112.164 110.945 111.174 110.945C110.414 110.945 109.875 111.255 109.557 111.875V118H107.659V109.547H109.448ZM122.909 113.695C122.909 112.867 123.073 112.122 123.401 111.461C123.729 110.794 124.19 110.284 124.784 109.93C125.378 109.57 126.06 109.391 126.831 109.391C127.972 109.391 128.896 109.758 129.604 110.492C130.318 111.227 130.703 112.201 130.761 113.414L130.768 113.859C130.768 114.693 130.607 115.438 130.284 116.094C129.966 116.75 129.508 117.258 128.909 117.617C128.315 117.977 127.628 118.156 126.847 118.156C125.654 118.156 124.698 117.76 123.979 116.969C123.266 116.172 122.909 115.112 122.909 113.789V113.695ZM124.807 113.859C124.807 114.729 124.987 115.411 125.347 115.906C125.706 116.396 126.206 116.641 126.847 116.641C127.487 116.641 127.985 116.391 128.339 115.891C128.698 115.391 128.878 114.659 128.878 113.695C128.878 112.841 128.693 112.164 128.323 111.664C127.959 111.164 127.461 110.914 126.831 110.914C126.211 110.914 125.719 111.161 125.354 111.656C124.99 112.146 124.807 112.88 124.807 113.859ZM141.472 113.859C141.472 115.172 141.178 116.216 140.589 116.992C140.006 117.768 139.201 118.156 138.175 118.156C137.185 118.156 136.415 117.799 135.862 117.086L135.769 118H134.05V106H135.948V110.359C136.495 109.714 137.232 109.391 138.159 109.391C139.191 109.391 140.001 109.773 140.589 110.539C141.178 111.305 141.472 112.375 141.472 113.75V113.859ZM139.573 113.695C139.573 112.779 139.412 112.091 139.089 111.633C138.766 111.174 138.297 110.945 137.683 110.945C136.86 110.945 136.282 111.305 135.948 112.023V115.508C136.287 116.242 136.87 116.609 137.698 116.609C138.292 116.609 138.751 116.388 139.073 115.945C139.396 115.503 139.563 114.833 139.573 113.938V113.695ZM146.769 118H144.871V109.547H146.769V118ZM144.753 107.352C144.753 107.06 144.845 106.818 145.027 106.625C145.214 106.432 145.48 106.336 145.824 106.336C146.167 106.336 146.433 106.432 146.621 106.625C146.808 106.818 146.902 107.06 146.902 107.352C146.902 107.638 146.808 107.878 146.621 108.07C146.433 108.258 146.167 108.352 145.824 108.352C145.48 108.352 145.214 108.258 145.027 108.07C144.845 107.878 144.753 107.638 144.753 107.352ZM152.543 118H150.644V106H152.543V118ZM160.02 118.156C158.817 118.156 157.84 117.779 157.09 117.023C156.345 116.263 155.973 115.253 155.973 113.992V113.758C155.973 112.914 156.134 112.161 156.457 111.5C156.785 110.833 157.244 110.315 157.832 109.945C158.421 109.576 159.077 109.391 159.801 109.391C160.952 109.391 161.84 109.758 162.465 110.492C163.095 111.227 163.41 112.266 163.41 113.609V114.375H157.887C157.944 115.073 158.176 115.625 158.582 116.031C158.994 116.438 159.509 116.641 160.129 116.641C160.999 116.641 161.707 116.289 162.254 115.586L163.278 116.562C162.939 117.068 162.486 117.461 161.918 117.742C161.356 118.018 160.723 118.156 160.02 118.156ZM159.793 110.914C159.272 110.914 158.85 111.096 158.528 111.461C158.21 111.826 158.007 112.333 157.918 112.984H161.535V112.844C161.494 112.208 161.324 111.729 161.028 111.406C160.731 111.078 160.319 110.914 159.793 110.914ZM177.286 118C177.203 117.839 177.13 117.576 177.067 117.211C176.463 117.841 175.723 118.156 174.848 118.156C173.999 118.156 173.307 117.914 172.77 117.43C172.234 116.945 171.966 116.346 171.966 115.633C171.966 114.732 172.299 114.042 172.966 113.562C173.637 113.078 174.596 112.836 175.841 112.836H177.005V112.281C177.005 111.844 176.882 111.495 176.637 111.234C176.393 110.969 176.02 110.836 175.52 110.836C175.088 110.836 174.734 110.945 174.458 111.164C174.182 111.378 174.044 111.651 174.044 111.984H172.145C172.145 111.521 172.299 111.089 172.606 110.688C172.914 110.281 173.33 109.964 173.856 109.734C174.387 109.505 174.979 109.391 175.63 109.391C176.619 109.391 177.408 109.641 177.997 110.141C178.585 110.635 178.887 111.333 178.903 112.234V116.047C178.903 116.807 179.01 117.414 179.223 117.867V118H177.286ZM175.2 116.633C175.575 116.633 175.927 116.542 176.255 116.359C176.588 116.177 176.838 115.932 177.005 115.625V114.031H175.981C175.278 114.031 174.749 114.154 174.395 114.398C174.041 114.643 173.864 114.99 173.864 115.438C173.864 115.802 173.984 116.094 174.223 116.312C174.468 116.526 174.794 116.633 175.2 116.633ZM189.974 113.859C189.974 115.167 189.677 116.211 189.083 116.992C188.489 117.768 187.693 118.156 186.693 118.156C185.765 118.156 185.023 117.852 184.466 117.242V121.25H182.568V109.547H184.318L184.396 110.406C184.953 109.729 185.711 109.391 186.669 109.391C187.7 109.391 188.508 109.776 189.091 110.547C189.679 111.312 189.974 112.378 189.974 113.742V113.859ZM188.083 113.695C188.083 112.852 187.914 112.182 187.575 111.688C187.242 111.193 186.763 110.945 186.138 110.945C185.362 110.945 184.804 111.266 184.466 111.906V115.656C184.81 116.312 185.372 116.641 186.153 116.641C186.758 116.641 187.229 116.398 187.568 115.914C187.911 115.424 188.083 114.685 188.083 113.695ZM200.669 113.859C200.669 115.167 200.372 116.211 199.779 116.992C199.185 117.768 198.388 118.156 197.388 118.156C196.461 118.156 195.719 117.852 195.162 117.242V121.25H193.263V109.547H195.013L195.091 110.406C195.649 109.729 196.406 109.391 197.365 109.391C198.396 109.391 199.203 109.776 199.787 110.547C200.375 111.312 200.669 112.378 200.669 113.742V113.859ZM198.779 113.695C198.779 112.852 198.609 112.182 198.271 111.688C197.938 111.193 197.458 110.945 196.833 110.945C196.057 110.945 195.5 111.266 195.162 111.906V115.656C195.505 116.312 196.068 116.641 196.849 116.641C197.453 116.641 197.925 116.398 198.263 115.914C198.607 115.424 198.779 114.685 198.779 113.695Z" fill="white"/>
<path d="M156.898 62.6769C155.777 62.6769 155.353 64.0823 155.335 64.1416C155.208 64.5809 154.804 64.8855 154.348 64.8855H154.34C153.88 64.8825 153.478 64.5779 153.356 64.1346C153.34 64.0824 152.916 62.6769 151.794 62.6769C150.793 62.6769 150.271 63.5535 150.271 64.419C150.271 65.6475 151.38 66.6388 153.691 68.5889C153.902 68.7678 154.121 68.9528 154.346 69.1438C154.567 68.9558 154.782 68.7749 154.991 68.599C157.109 66.806 158.421 65.7038 158.421 64.419C158.422 63.5535 157.899 62.6769 156.898 62.6769ZM154.346 53C147.538 53 142 58.5411 142 65.3529C142 73.8676 153.088 87.0771 153.561 87.6351C153.755 87.8663 154.043 88 154.346 88C154.65 88 154.937 87.8663 155.132 87.6351C155.604 87.0771 166.693 73.8676 166.693 65.3529C166.693 58.5411 161.155 53 154.346 53ZM156.318 70.1723C155.91 70.517 155.476 70.883 155.02 71.2781C154.827 71.4459 154.586 71.5294 154.346 71.5294C154.105 71.5294 153.866 71.4459 153.673 71.2781C153.213 70.88 152.775 70.5101 152.363 70.1623C149.954 68.1286 148.213 66.6579 148.213 64.419C148.213 62.2879 149.787 60.6181 151.794 60.6181C152.926 60.6181 153.761 61.1347 154.346 61.7842C154.931 61.1347 155.767 60.6181 156.898 60.6181C158.906 60.6181 160.479 62.2879 160.479 64.419C160.479 66.7432 158.565 68.2747 156.318 70.1723Z" fill="url(#paint0_linear)"/>
<defs>
<filter id="filter0_d" x="0" y="0" width="308" height="282" filterUnits="userSpaceOnUse" color-interpolation-filters="sRGB">
<feFlood flood-opacity="0" result="BackgroundImageFix"/>
<feColorMatrix in="SourceAlpha" type="matrix" values="0 0 0 0 0 0 0 0 0 0 0 0 0 0 0 0 0 0 127 0"/>
<feOffset dy="4"/>
<feGaussianBlur stdDeviation="2"/>
<feColorMatrix type="matrix" values="0 0 0 0 0 0 0 0 0 0 0 0 0 0 0 0 0 0 0.25 0"/>
<feBlend mode="normal" in2="BackgroundImageFix" result="effect1_dropShadow"/>
<feBlend mode="normal" in="SourceGraphic" in2="effect1_dropShadow" result="shape"/>
</filter>
<linearGradient id="paint0_linear" x1="154.346" y1="88" x2="154.346" y2="53" gradientUnits="userSpaceOnUse">
<stop stop-color="#4F5DD9"/>
<stop offset="1" stop-color="#FD3A84"/>
</linearGradient>
</defs>
</svg>
