<svg width="351" height="343" viewBox="0 0 351 343" fill="none" xmlns="http://www.w3.org/2000/svg">
<rect x="0.5" y="0.5" width="349" height="342" stroke="black"/>
<rect x="1" y="43" width="350" height="280" rx="20" fill="#0A121C"/>
<path d="M180.788 109.946C178.245 109.946 177.283 113.133 177.242 113.268C176.955 114.264 176.039 114.955 175.004 114.955H174.986C173.943 114.948 173.031 114.257 172.753 113.252C172.717 113.133 171.755 109.946 169.212 109.946C166.943 109.946 165.758 111.934 165.758 113.897C165.758 116.683 168.273 118.931 173.514 123.354C173.993 123.76 174.489 124.179 175 124.612C175.501 124.186 175.989 123.776 176.463 123.377C181.266 119.31 184.242 116.811 184.242 113.897C184.242 111.934 183.057 109.946 180.788 109.946V109.946ZM175 88C159.56 88 147 100.567 147 116.015C147 135.325 172.147 165.283 173.218 166.548C173.66 167.072 174.312 167.376 175 167.376C175.688 167.376 176.34 167.072 176.782 166.548C177.853 165.283 203 135.325 203 116.015C203 100.567 190.44 88 175 88V88ZM179.471 126.945C178.546 127.726 177.561 128.557 176.527 129.453C176.089 129.833 175.542 130.022 175 130.022C174.453 130.022 173.911 129.833 173.473 129.453C172.43 128.55 171.436 127.711 170.502 126.922C165.038 122.31 161.091 118.974 161.091 113.897C161.091 109.064 164.659 105.277 169.212 105.277C171.778 105.277 173.674 106.449 175 107.921C176.326 106.449 178.222 105.277 180.787 105.277C185.34 105.277 188.909 109.064 188.909 113.897C188.909 119.168 184.568 122.641 179.471 126.945V126.945Z" fill="url(#paint0_linear)"/>
<path d="M124.373 147.1C123.381 148.943 125.359 150.802 125.442 150.881C126.066 151.452 126.218 152.368 125.815 153.118L125.808 153.131C125.396 153.885 124.531 154.294 123.68 154.129C123.578 154.112 120.851 153.648 119.859 155.492C118.974 157.137 119.98 158.72 121.429 159.436C123.485 160.451 126.125 159.446 131.433 157.258C131.919 157.059 132.422 156.852 132.941 156.64C132.822 156.121 132.709 155.618 132.6 155.129C131.471 150.165 130.786 147.097 128.636 146.035C127.187 145.32 125.258 145.455 124.373 147.1V147.1ZM105.917 143.299C99.8971 154.492 104.276 168.177 115.678 173.806C129.932 180.842 161.849 173.528 163.2 173.212C163.759 173.083 164.237 172.721 164.506 172.222C164.774 171.723 164.804 171.14 164.59 170.629C164.073 169.391 151.766 140.245 137.513 133.208C126.11 127.579 111.938 132.105 105.917 143.299V143.299ZM136.406 154.248C136.623 155.204 136.851 156.22 137.109 157.297C137.22 157.753 137.146 158.218 136.935 158.611C136.721 159.008 136.37 159.332 135.919 159.51C134.846 159.938 133.839 160.352 132.892 160.742C127.358 163.023 123.357 164.669 119.609 162.819C116.042 161.058 114.638 157.091 116.413 153.79C117.413 151.93 119.017 150.983 120.622 150.558C120.051 149.06 119.926 147.259 120.926 145.399C122.701 142.098 126.888 140.891 130.455 142.652C134.346 144.573 135.217 148.985 136.406 154.248V154.248Z" fill="url(#paint1_linear)"/>
<path d="M250.628 145.605C249.395 143.034 245.655 143.493 245.496 143.512C244.334 143.669 243.18 143.053 242.678 142.007L242.67 141.989C242.171 140.931 242.438 139.699 243.336 138.966C243.44 138.876 246.249 136.472 245.016 133.901C243.916 131.606 241.299 131.301 239.282 132.183C236.42 133.435 235.33 136.988 233.328 144.274C233.143 144.94 232.952 145.63 232.755 146.341C233.436 146.656 234.094 146.965 234.734 147.265C241.24 150.295 245.25 152.181 248.244 150.872C250.26 149.99 251.728 147.899 250.628 145.605V145.605ZM270.368 129.894C262.882 114.283 243.883 107.229 228.013 114.169C208.175 122.844 189.59 161.728 188.81 163.379C188.485 164.061 188.49 164.856 188.823 165.552C189.157 166.248 189.784 166.771 190.537 166.982C192.356 167.497 235.324 179.464 255.162 170.789C271.032 163.849 277.853 145.505 270.368 129.894V129.894ZM232.527 151.909C231.275 151.325 229.945 150.703 228.523 150.059C227.92 149.788 227.46 149.32 227.197 148.772C226.932 148.219 226.864 147.585 227.042 146.972C227.464 145.512 227.844 144.13 228.202 142.831C230.291 135.235 231.804 129.746 237.02 127.465C241.985 125.293 247.606 127.2 249.813 131.803C251.057 134.397 250.772 136.841 249.902 138.843C252.058 139.522 254.181 140.913 255.425 143.507C257.632 148.11 255.471 153.419 250.506 155.59C245.091 157.958 239.419 155.13 232.527 151.909V151.909Z" fill="url(#paint2_linear)"/>
<path fill-rule="evenodd" clip-rule="evenodd" d="M158 182.971C158 180.506 160.111 178.509 162.711 178.509H188.289C190.891 178.509 193 180.505 193 182.971V236.436C193 238.901 190.889 240.898 188.289 240.898H162.711C160.109 240.898 158 238.902 158 236.436V182.971ZM160.019 182.964V236.443C160.019 237.845 161.225 238.988 162.713 238.988H188.287C189.777 238.988 190.981 237.849 190.981 236.443V182.964C190.981 181.562 189.777 180.419 188.291 180.419H183.579C183.211 180.419 182.748 180.664 182.557 180.966L181.232 183.055C181.043 183.352 180.583 183.602 180.211 183.602H170.789C170.415 183.602 169.96 183.357 169.768 183.055L168.443 180.966C168.255 180.668 167.794 180.419 167.421 180.419H162.709C161.228 180.419 160.019 181.558 160.019 182.964Z" fill="white"/>
<defs>
<linearGradient id="paint0_linear" x1="175" y1="167.376" x2="175" y2="88" gradientUnits="userSpaceOnUse">
<stop stop-color="#4F5DD9"/>
<stop offset="1" stop-color="#FD3A84"/>
</linearGradient>
<linearGradient id="paint1_linear" x1="164.506" y1="172.222" x2="106.997" y2="141.292" gradientUnits="userSpaceOnUse">
<stop stop-color="#4F5DD9"/>
<stop offset="1" stop-color="#FD3A84"/>
</linearGradient>
<linearGradient id="paint2_linear" x1="188.823" y1="165.552" x2="269.026" y2="127.095" gradientUnits="userSpaceOnUse">
<stop stop-color="#4F5DD9"/>
<stop offset="1" stop-color="#FD3A84"/>
</linearGradient>
</defs>
</svg>
