<svg width="308" height="282" viewBox="0 0 308 282" fill="none" xmlns="http://www.w3.org/2000/svg">
<g filter="url(#filter0_d)">
<rect x="4" width="300" height="274" rx="10" fill="#D2E4FF"/>
</g>
<path d="M80.91 142.547V147H79.41V135.625H83.6053C84.8501 135.625 85.8241 135.943 86.5272 136.578C87.2355 137.214 87.5897 138.055 87.5897 139.102C87.5897 140.206 87.2433 141.057 86.5506 141.656C85.8631 142.25 84.8761 142.547 83.5897 142.547H80.91ZM80.91 141.32H83.6053C84.4074 141.32 85.022 141.133 85.4491 140.758C85.8761 140.378 86.0897 139.831 86.0897 139.117C86.0897 138.44 85.8761 137.898 85.4491 137.492C85.022 137.086 84.436 136.875 83.6913 136.859H80.91V141.32ZM106.173 141.742H101.244V145.773H106.97V147H99.7438V135.625H106.892V136.859H101.244V140.516H106.173V141.742ZM123.249 142.398H120.578V147H119.07V135.625H122.835C124.117 135.625 125.101 135.917 125.788 136.5C126.481 137.083 126.828 137.932 126.828 139.047C126.828 139.755 126.635 140.372 126.249 140.898C125.869 141.424 125.338 141.818 124.656 142.078L127.328 146.906V147H125.718L123.249 142.398ZM120.578 141.172H122.882C123.627 141.172 124.218 140.979 124.656 140.594C125.098 140.208 125.32 139.693 125.32 139.047C125.32 138.344 125.109 137.805 124.687 137.43C124.27 137.055 123.666 136.865 122.874 136.859H120.578V141.172ZM142.528 141.93C141.242 141.56 140.304 141.107 139.716 140.57C139.133 140.029 138.841 139.362 138.841 138.57C138.841 137.674 139.198 136.935 139.911 136.352C140.63 135.763 141.562 135.469 142.708 135.469C143.489 135.469 144.185 135.62 144.794 135.922C145.409 136.224 145.883 136.641 146.216 137.172C146.554 137.703 146.724 138.284 146.724 138.914H145.216C145.216 138.227 144.997 137.688 144.56 137.297C144.122 136.901 143.505 136.703 142.708 136.703C141.969 136.703 141.39 136.867 140.974 137.195C140.562 137.518 140.357 137.969 140.357 138.547C140.357 139.01 140.552 139.404 140.943 139.727C141.338 140.044 142.008 140.336 142.95 140.602C143.898 140.867 144.638 141.161 145.169 141.484C145.706 141.802 146.101 142.174 146.357 142.602C146.617 143.029 146.747 143.531 146.747 144.109C146.747 145.031 146.388 145.771 145.669 146.328C144.95 146.88 143.989 147.156 142.786 147.156C142.005 147.156 141.276 147.008 140.599 146.711C139.922 146.409 139.398 145.997 139.028 145.477C138.664 144.956 138.482 144.365 138.482 143.703H139.989C139.989 144.391 140.242 144.935 140.747 145.336C141.258 145.732 141.937 145.93 142.786 145.93C143.578 145.93 144.185 145.768 144.607 145.445C145.028 145.122 145.239 144.682 145.239 144.125C145.239 143.568 145.044 143.138 144.653 142.836C144.263 142.529 143.554 142.227 142.528 141.93ZM167.667 141.68C167.667 142.794 167.479 143.768 167.104 144.602C166.729 145.43 166.198 146.062 165.511 146.5C164.823 146.938 164.021 147.156 163.104 147.156C162.209 147.156 161.414 146.938 160.722 146.5C160.029 146.057 159.49 145.43 159.104 144.617C158.724 143.799 158.529 142.854 158.518 141.781V140.961C158.518 139.867 158.709 138.901 159.089 138.062C159.469 137.224 160.005 136.583 160.698 136.141C161.396 135.693 162.193 135.469 163.089 135.469C164 135.469 164.802 135.69 165.495 136.133C166.193 136.57 166.729 137.208 167.104 138.047C167.479 138.88 167.667 139.852 167.667 140.961V141.68ZM166.175 140.945C166.175 139.596 165.904 138.562 165.362 137.844C164.821 137.12 164.063 136.758 163.089 136.758C162.141 136.758 161.393 137.12 160.847 137.844C160.305 138.562 160.026 139.562 160.011 140.844V141.68C160.011 142.987 160.284 144.016 160.831 144.766C161.383 145.51 162.141 145.883 163.104 145.883C164.073 145.883 164.823 145.531 165.354 144.828C165.886 144.12 166.159 143.107 166.175 141.789V140.945ZM188.899 147H187.391L181.665 138.234V147H180.157V135.625H181.665L187.407 144.43V135.625H188.899V147ZM208.225 144.031H203.459L202.389 147H200.842L205.186 135.625H206.498L210.85 147H209.311L208.225 144.031ZM203.913 142.797H207.78L205.842 137.477L203.913 142.797ZM224.129 145.773H229.52V147H222.621V135.625H224.129V145.773ZM91.7956 165.547V170H90.2956V158.625H94.4909C95.7357 158.625 96.7097 158.943 97.4128 159.578C98.1211 160.214 98.4753 161.055 98.4753 162.102C98.4753 163.206 98.129 164.057 97.4362 164.656C96.7487 165.25 95.7618 165.547 94.4753 165.547H91.7956ZM91.7956 164.32H94.4909C95.293 164.32 95.9076 164.133 96.3347 163.758C96.7618 163.378 96.9753 162.831 96.9753 162.117C96.9753 161.44 96.7618 160.898 96.3347 160.492C95.9076 160.086 95.3217 159.875 94.5769 159.859H91.7956V164.32ZM114.801 165.398H112.129V170H110.622V158.625H114.387C115.668 158.625 116.653 158.917 117.34 159.5C118.033 160.083 118.379 160.932 118.379 162.047C118.379 162.755 118.187 163.372 117.801 163.898C117.421 164.424 116.89 164.818 116.207 165.078L118.879 169.906V170H117.27L114.801 165.398ZM112.129 164.172H114.434C115.179 164.172 115.77 163.979 116.207 163.594C116.65 163.208 116.872 162.693 116.872 162.047C116.872 161.344 116.661 160.805 116.239 160.43C115.822 160.055 115.218 159.865 114.426 159.859H112.129V164.172ZM139.479 164.68C139.479 165.794 139.291 166.768 138.916 167.602C138.541 168.43 138.01 169.062 137.322 169.5C136.635 169.938 135.833 170.156 134.916 170.156C134.02 170.156 133.226 169.938 132.533 169.5C131.841 169.057 131.302 168.43 130.916 167.617C130.536 166.799 130.341 165.854 130.33 164.781V163.961C130.33 162.867 130.52 161.901 130.901 161.062C131.281 160.224 131.817 159.583 132.51 159.141C133.208 158.693 134.005 158.469 134.901 158.469C135.812 158.469 136.614 158.69 137.307 159.133C138.005 159.57 138.541 160.208 138.916 161.047C139.291 161.88 139.479 162.852 139.479 163.961V164.68ZM137.987 163.945C137.987 162.596 137.716 161.562 137.174 160.844C136.632 160.12 135.875 159.758 134.901 159.758C133.953 159.758 133.205 160.12 132.658 160.844C132.117 161.562 131.838 162.562 131.822 163.844V164.68C131.822 165.987 132.096 167.016 132.643 167.766C133.195 168.51 133.953 168.883 134.916 168.883C135.885 168.883 136.635 168.531 137.166 167.828C137.697 167.12 137.971 166.107 137.987 164.789V163.945ZM156.734 158.625H158.242V166.68C158.242 167.768 157.914 168.62 157.258 169.234C156.607 169.849 155.737 170.156 154.648 170.156C153.518 170.156 152.638 169.867 152.008 169.289C151.378 168.711 151.062 167.901 151.062 166.859H152.562C152.562 167.51 152.74 168.018 153.094 168.383C153.453 168.747 153.971 168.93 154.648 168.93C155.268 168.93 155.768 168.734 156.148 168.344C156.534 167.953 156.729 167.406 156.734 166.703V158.625ZM177.467 164.742H172.537V168.773H178.263V170H171.037V158.625H178.185V159.859H172.537V163.516H177.467V164.742ZM198.738 166.391C198.597 167.594 198.152 168.523 197.402 169.18C196.657 169.831 195.665 170.156 194.425 170.156C193.082 170.156 192.003 169.674 191.191 168.711C190.384 167.747 189.98 166.458 189.98 164.844V163.75C189.98 162.693 190.167 161.763 190.542 160.961C190.923 160.159 191.459 159.544 192.152 159.117C192.845 158.685 193.647 158.469 194.558 158.469C195.766 158.469 196.735 158.807 197.464 159.484C198.194 160.156 198.618 161.089 198.738 162.281H197.23C197.1 161.375 196.816 160.719 196.378 160.312C195.946 159.906 195.339 159.703 194.558 159.703C193.6 159.703 192.847 160.057 192.3 160.766C191.759 161.474 191.488 162.482 191.488 163.789V164.891C191.488 166.125 191.746 167.107 192.261 167.836C192.777 168.565 193.498 168.93 194.425 168.93C195.259 168.93 195.897 168.742 196.339 168.367C196.787 167.987 197.084 167.328 197.23 166.391H198.738ZM218.658 159.859H215.001V170H213.509V159.859H209.861V158.625H218.658V159.859Z" fill="#444444"/>
<path d="M138.828 114V102.625H142.328C143.328 102.625 144.222 102.852 145.008 103.305C145.8 103.753 146.417 104.393 146.86 105.227C147.302 106.055 147.524 106.997 147.524 108.055V108.578C147.524 109.635 147.305 110.576 146.867 111.398C146.435 112.221 145.823 112.859 145.031 113.312C144.24 113.766 143.347 113.995 142.352 114H138.828ZM141.172 104.523V112.117H142.305C143.222 112.117 143.922 111.818 144.406 111.219C144.891 110.62 145.138 109.763 145.149 108.648V108.047C145.149 106.891 144.909 106.016 144.43 105.422C143.951 104.823 143.25 104.523 142.328 104.523H141.172ZM158.578 108.57C158.578 109.69 158.38 110.672 157.985 111.516C157.589 112.359 157.021 113.01 156.281 113.469C155.547 113.927 154.703 114.156 153.75 114.156C152.807 114.156 151.966 113.93 151.227 113.477C150.487 113.023 149.914 112.378 149.508 111.539C149.102 110.695 148.896 109.727 148.891 108.633V108.07C148.891 106.951 149.091 105.966 149.492 105.117C149.899 104.263 150.469 103.609 151.203 103.156C151.943 102.698 152.787 102.469 153.735 102.469C154.682 102.469 155.524 102.698 156.258 103.156C156.998 103.609 157.568 104.263 157.969 105.117C158.375 105.966 158.578 106.948 158.578 108.062V108.57ZM156.203 108.055C156.203 106.862 155.99 105.956 155.563 105.336C155.136 104.716 154.526 104.406 153.735 104.406C152.948 104.406 152.341 104.714 151.914 105.328C151.487 105.938 151.271 106.833 151.266 108.016V108.57C151.266 109.732 151.479 110.633 151.906 111.273C152.334 111.914 152.948 112.234 153.75 112.234C154.537 112.234 155.141 111.927 155.563 111.312C155.985 110.693 156.198 109.792 156.203 108.609V108.055ZM168.891 102.625V110.117C168.891 111.362 168.5 112.346 167.719 113.07C166.943 113.794 165.88 114.156 164.531 114.156C163.203 114.156 162.149 113.805 161.367 113.102C160.586 112.398 160.188 111.432 160.172 110.203V102.625H162.516V110.133C162.516 110.878 162.693 111.422 163.047 111.766C163.406 112.104 163.901 112.273 164.531 112.273C165.849 112.273 166.518 111.581 166.539 110.195V102.625H168.891Z" fill="#444444"/>
<defs>
<filter id="filter0_d" x="0" y="0" width="308" height="282" filterUnits="userSpaceOnUse" color-interpolation-filters="sRGB">
<feFlood flood-opacity="0" result="BackgroundImageFix"/>
<feColorMatrix in="SourceAlpha" type="matrix" values="0 0 0 0 0 0 0 0 0 0 0 0 0 0 0 0 0 0 127 0"/>
<feOffset dy="4"/>
<feGaussianBlur stdDeviation="2"/>
<feColorMatrix type="matrix" values="0 0 0 0 0 0 0 0 0 0 0 0 0 0 0 0 0 0 0.25 0"/>
<feBlend mode="normal" in2="BackgroundImageFix" result="effect1_dropShadow"/>
<feBlend mode="normal" in="SourceGraphic" in2="effect1_dropShadow" result="shape"/>
</filter>
</defs>
</svg>
