<svg width="304" height="278" viewBox="0 0 304 278" fill="none" xmlns="http://www.w3.org/2000/svg">
<g filter="url(#filter0_d)">
<g clip-path="url(#clip0)">
<rect x="4" width="296" height="270" rx="5" fill="white"/>
<path d="M114.6 138.281C114.35 138.24 114.092 138.219 113.827 138.219C112.957 138.219 112.371 138.552 112.069 139.219V145H110.171V136.547H111.983L112.03 137.492C112.488 136.758 113.124 136.391 113.936 136.391C114.207 136.391 114.431 136.427 114.608 136.5L114.6 138.281ZM121.046 145.156C119.843 145.156 118.866 144.779 118.116 144.023C117.371 143.263 116.999 142.253 116.999 140.992V140.758C116.999 139.914 117.161 139.161 117.483 138.5C117.812 137.833 118.27 137.315 118.858 136.945C119.447 136.576 120.103 136.391 120.827 136.391C121.978 136.391 122.866 136.758 123.491 137.492C124.121 138.227 124.437 139.266 124.437 140.609V141.375H118.913C118.97 142.073 119.202 142.625 119.608 143.031C120.02 143.438 120.536 143.641 121.155 143.641C122.025 143.641 122.733 143.289 123.28 142.586L124.304 143.562C123.965 144.068 123.512 144.461 122.944 144.742C122.382 145.018 121.749 145.156 121.046 145.156ZM120.819 137.914C120.299 137.914 119.877 138.096 119.554 138.461C119.236 138.826 119.033 139.333 118.944 139.984H122.562V139.844C122.52 139.208 122.351 138.729 122.054 138.406C121.757 138.078 121.345 137.914 120.819 137.914ZM127.242 140.711C127.242 139.409 127.544 138.365 128.148 137.578C128.752 136.786 129.562 136.391 130.577 136.391C131.473 136.391 132.197 136.703 132.749 137.328V133H134.648V145H132.929L132.835 144.125C132.268 144.812 131.51 145.156 130.562 145.156C129.572 145.156 128.77 144.758 128.156 143.961C127.546 143.164 127.242 142.081 127.242 140.711ZM129.14 140.875C129.14 141.734 129.304 142.406 129.632 142.891C129.966 143.37 130.437 143.609 131.046 143.609C131.822 143.609 132.39 143.263 132.749 142.57V138.961C132.4 138.284 131.838 137.945 131.062 137.945C130.447 137.945 129.973 138.19 129.64 138.68C129.307 139.164 129.14 139.896 129.14 140.875ZM142.031 145.156C140.828 145.156 139.851 144.779 139.101 144.023C138.356 143.263 137.984 142.253 137.984 140.992V140.758C137.984 139.914 138.146 139.161 138.468 138.5C138.797 137.833 139.255 137.315 139.843 136.945C140.432 136.576 141.088 136.391 141.812 136.391C142.963 136.391 143.851 136.758 144.476 137.492C145.106 138.227 145.422 139.266 145.422 140.609V141.375H139.898C139.955 142.073 140.187 142.625 140.593 143.031C141.005 143.438 141.521 143.641 142.14 143.641C143.01 143.641 143.718 143.289 144.265 142.586L145.289 143.562C144.95 144.068 144.497 144.461 143.929 144.742C143.367 145.018 142.734 145.156 142.031 145.156ZM141.804 137.914C141.284 137.914 140.862 138.096 140.539 138.461C140.221 138.826 140.018 139.333 139.929 139.984H143.547V139.844C143.505 139.208 143.336 138.729 143.039 138.406C142.742 138.078 142.33 137.914 141.804 137.914ZM149.086 145V137.953H147.797V136.547H149.086V135.969C149.091 135.307 149.232 134.74 149.508 134.266C149.784 133.792 150.174 133.435 150.68 133.195C151.185 132.956 151.792 132.836 152.5 132.836C152.917 132.836 153.315 132.88 153.695 132.969C154.081 133.057 154.479 133.169 154.891 133.305L154.602 134.875C153.883 134.625 153.227 134.5 152.633 134.5C152.055 134.5 151.635 134.628 151.375 134.883C151.115 135.133 150.984 135.51 150.984 136.016V136.547H152.648V137.953H150.984V145H149.086ZM155.789 145H153.891V136.547H155.789V145ZM161.336 136.547L161.391 137.523C162.016 136.768 162.836 136.391 163.852 136.391C165.612 136.391 166.508 137.398 166.539 139.414V145H164.641V139.523C164.641 138.987 164.524 138.591 164.289 138.336C164.06 138.076 163.683 137.945 163.157 137.945C162.391 137.945 161.821 138.292 161.446 138.984V145H159.547V136.547H161.336ZM172.18 145H170.282V136.547H172.18V145ZM170.165 134.352C170.165 134.06 170.256 133.818 170.438 133.625C170.626 133.432 170.891 133.336 171.235 133.336C171.579 133.336 171.844 133.432 172.032 133.625C172.219 133.818 172.313 134.06 172.313 134.352C172.313 134.638 172.219 134.878 172.032 135.07C171.844 135.258 171.579 135.352 171.235 135.352C170.891 135.352 170.626 135.258 170.438 135.07C170.256 134.878 170.165 134.638 170.165 134.352ZM177.696 136.547L177.751 137.523C178.376 136.768 179.196 136.391 180.212 136.391C181.972 136.391 182.868 137.398 182.899 139.414V145H181.001V139.523C181.001 138.987 180.884 138.591 180.649 138.336C180.42 138.076 180.043 137.945 179.517 137.945C178.751 137.945 178.181 138.292 177.806 138.984V145H175.907V136.547H177.696ZM186.189 140.711C186.189 139.398 186.496 138.352 187.111 137.57C187.73 136.784 188.551 136.391 189.572 136.391C190.535 136.391 191.293 136.727 191.845 137.398L191.931 136.547H193.642V144.742C193.642 145.852 193.296 146.727 192.603 147.367C191.915 148.008 190.986 148.328 189.814 148.328C189.194 148.328 188.587 148.198 187.993 147.938C187.405 147.682 186.957 147.346 186.65 146.93L187.548 145.789C188.131 146.482 188.85 146.828 189.704 146.828C190.335 146.828 190.832 146.656 191.197 146.312C191.561 145.974 191.743 145.474 191.743 144.812V144.242C191.197 144.852 190.467 145.156 189.556 145.156C188.566 145.156 187.756 144.763 187.126 143.977C186.501 143.19 186.189 142.102 186.189 140.711ZM188.079 140.875C188.079 141.724 188.251 142.393 188.595 142.883C188.944 143.367 189.426 143.609 190.04 143.609C190.806 143.609 191.374 143.281 191.743 142.625V138.906C191.384 138.266 190.822 137.945 190.056 137.945C189.431 137.945 188.944 138.193 188.595 138.688C188.251 139.182 188.079 139.911 188.079 140.875Z" fill="#424242"/>
<path d="M108.041 114.273H104.988L104.455 116H102.075L105.464 106.758H107.559L110.974 116H108.581L108.041 114.273ZM105.521 112.553H107.508L106.512 109.348L105.521 112.553ZM114.726 112.864V116H112.498V106.758H116.186C116.893 106.758 117.517 106.889 118.059 107.151C118.605 107.41 119.026 107.78 119.322 108.262C119.622 108.74 119.773 109.284 119.773 109.894C119.773 110.795 119.449 111.516 118.802 112.058C118.158 112.596 117.274 112.864 116.148 112.864H114.726ZM114.726 111.144H116.186C116.618 111.144 116.946 111.036 117.17 110.82C117.399 110.604 117.513 110.3 117.513 109.906C117.513 109.475 117.397 109.13 117.164 108.872C116.931 108.613 116.614 108.482 116.212 108.478H114.726V111.144ZM124.039 112.864V116H121.811V106.758H125.499C126.206 106.758 126.83 106.889 127.372 107.151C127.918 107.41 128.339 107.78 128.635 108.262C128.935 108.74 129.085 109.284 129.085 109.894C129.085 110.795 128.762 111.516 128.114 112.058C127.471 112.596 126.587 112.864 125.461 112.864H124.039ZM124.039 111.144H125.499C125.931 111.144 126.259 111.036 126.483 110.82C126.711 110.604 126.826 110.3 126.826 109.906C126.826 109.475 126.709 109.13 126.477 108.872C126.244 108.613 125.926 108.482 125.524 108.478H124.039V111.144ZM138.64 112.737H137.434V116H135.206V106.758H138.843C139.939 106.758 140.796 107.001 141.414 107.488C142.032 107.974 142.341 108.662 142.341 109.551C142.341 110.194 142.21 110.727 141.947 111.15C141.689 111.574 141.283 111.916 140.729 112.179L142.658 115.905V116H140.272L138.64 112.737ZM137.434 111.017H138.843C139.267 111.017 139.584 110.907 139.795 110.687C140.011 110.463 140.119 110.152 140.119 109.754C140.119 109.356 140.011 109.045 139.795 108.821C139.58 108.592 139.262 108.478 138.843 108.478H137.434V111.017ZM150.264 112.083H146.76V114.286H150.898V116H144.532V106.758H150.911V108.478H146.76V110.427H150.264V112.083ZM152.651 116V106.758H155.628C156.445 106.758 157.179 106.944 157.831 107.316C158.482 107.685 158.99 108.207 159.354 108.884C159.722 109.557 159.909 110.312 159.913 111.15V111.576C159.913 112.422 159.733 113.182 159.373 113.854C159.018 114.523 158.514 115.048 157.862 115.429C157.215 115.805 156.491 115.996 155.692 116H152.651ZM154.879 108.478V114.286H155.653C156.292 114.286 156.783 114.06 157.126 113.607C157.469 113.15 157.64 112.473 157.64 111.576V111.176C157.64 110.283 157.469 109.61 157.126 109.157C156.783 108.704 156.284 108.478 155.628 108.478H154.879ZM167.632 112.083H164.128V114.286H168.267V116H161.9V106.758H168.28V108.478H164.128V110.427H167.632V112.083ZM174.787 113.543C174.787 113.218 174.67 112.964 174.438 112.782C174.209 112.6 173.805 112.411 173.225 112.217C172.646 112.022 172.172 111.834 171.803 111.652C170.606 111.064 170.007 110.255 170.007 109.227C170.007 108.715 170.155 108.264 170.451 107.875C170.752 107.481 171.175 107.177 171.721 106.961C172.267 106.741 172.88 106.631 173.562 106.631C174.226 106.631 174.821 106.749 175.345 106.986C175.874 107.223 176.285 107.562 176.577 108.002C176.869 108.438 177.015 108.937 177.015 109.5H174.793C174.793 109.123 174.677 108.831 174.444 108.624C174.216 108.417 173.904 108.313 173.511 108.313C173.113 108.313 172.798 108.402 172.565 108.58C172.337 108.753 172.222 108.975 172.222 109.246C172.222 109.483 172.349 109.699 172.603 109.894C172.857 110.084 173.304 110.283 173.943 110.49C174.582 110.693 175.106 110.913 175.517 111.15C176.515 111.726 177.015 112.519 177.015 113.531C177.015 114.339 176.71 114.974 176.101 115.435C175.491 115.896 174.656 116.127 173.593 116.127C172.844 116.127 172.165 115.994 171.556 115.727C170.951 115.456 170.494 115.088 170.185 114.623C169.88 114.153 169.728 113.613 169.728 113.004H171.962C171.962 113.499 172.089 113.865 172.343 114.102C172.601 114.335 173.018 114.451 173.593 114.451C173.962 114.451 174.252 114.373 174.463 114.216C174.679 114.056 174.787 113.831 174.787 113.543ZM181.376 116H179.155V106.758H181.376V116ZM191.337 114.857C190.994 115.238 190.492 115.545 189.832 115.778C189.172 116.011 188.448 116.127 187.661 116.127C186.451 116.127 185.484 115.757 184.761 115.016C184.037 114.276 183.65 113.245 183.599 111.925L183.593 111.125C183.593 110.215 183.753 109.422 184.075 108.745C184.397 108.063 184.856 107.541 185.452 107.177C186.053 106.809 186.747 106.625 187.534 106.625C188.685 106.625 189.578 106.889 190.213 107.418C190.852 107.943 191.225 108.728 191.33 109.773H189.185C189.109 109.257 188.944 108.889 188.69 108.668C188.436 108.448 188.076 108.338 187.611 108.338C187.052 108.338 186.62 108.575 186.316 109.049C186.011 109.523 185.857 110.2 185.852 111.081V111.639C185.852 112.562 186.009 113.256 186.322 113.721C186.639 114.182 187.137 114.413 187.814 114.413C188.393 114.413 188.825 114.284 189.109 114.026V112.591H187.56V111.062H191.337V114.857ZM201.195 116H198.98L195.705 110.249V116H193.477V106.758H195.705L198.974 112.509V106.758H201.195V116Z" fill="#424242"/>
<path d="M103.222 171.936C103.222 173.189 103.006 174.291 102.572 175.24C102.138 176.184 101.517 176.91 100.709 177.42C99.9061 177.924 98.9803 178.176 97.9314 178.176C96.8943 178.176 95.9686 177.924 95.1541 177.42C94.3455 176.91 93.7186 176.187 93.2732 175.249C92.8338 174.312 92.6111 173.23 92.6053 172.006V171.285C92.6053 170.037 92.825 168.936 93.2645 167.98C93.7098 167.025 94.3338 166.296 95.1365 165.792C95.9451 165.282 96.8709 165.027 97.9139 165.027C98.9568 165.027 99.8797 165.279 100.682 165.783C101.491 166.281 102.115 167.002 102.554 167.945C102.994 168.883 103.217 169.976 103.222 171.224V171.936ZM100.999 171.268C100.999 169.85 100.729 168.763 100.19 168.007C99.657 167.251 98.8982 166.873 97.9139 166.873C96.9529 166.873 96.2 167.251 95.6551 168.007C95.116 168.757 94.8406 169.82 94.8289 171.197V171.936C94.8289 173.342 95.1014 174.429 95.6463 175.196C96.1971 175.964 96.9588 176.348 97.9314 176.348C98.9158 176.348 99.6717 175.973 100.199 175.223C100.732 174.473 100.999 173.377 100.999 171.936V171.268ZM127.109 178H124.885L119.181 168.921V178H116.957V165.203H119.181L124.903 174.317V165.203H127.109V178ZM143.48 176.225H149.29V178H141.257V165.203H143.48V176.225ZM164.862 178H162.647V165.203H164.862V178ZM189.266 178H187.043L181.339 168.921V178H179.115V165.203H181.339L187.06 174.317V165.203H189.266V178ZM210.894 172.287H205.638V176.225H211.781V178H203.414V165.203H211.72V166.996H205.638V170.529H210.894V172.287ZM75.056 200.704C75.056 200.142 74.8568 199.708 74.4583 199.403C74.0657 199.099 73.3538 198.791 72.3226 198.48C71.2913 198.17 70.471 197.824 69.8616 197.443C68.6956 196.711 68.1126 195.756 68.1126 194.578C68.1126 193.547 68.5316 192.697 69.3695 192.029C70.2132 191.361 71.306 191.027 72.6478 191.027C73.5384 191.027 74.3323 191.191 75.0296 191.52C75.7269 191.848 76.2747 192.316 76.6732 192.926C77.0716 193.529 77.2708 194.2 77.2708 194.938H75.056C75.056 194.271 74.845 193.749 74.4232 193.374C74.0071 192.993 73.4095 192.803 72.6302 192.803C71.9036 192.803 71.3382 192.958 70.9339 193.269C70.5355 193.579 70.3363 194.013 70.3363 194.569C70.3363 195.038 70.553 195.431 70.9866 195.747C71.4202 196.058 72.1351 196.362 73.1312 196.661C74.1273 196.954 74.9271 197.291 75.5306 197.672C76.1341 198.047 76.5765 198.48 76.8577 198.973C77.139 199.459 77.2796 200.03 77.2796 200.687C77.2796 201.753 76.8695 202.603 76.0491 203.235C75.2347 203.862 74.1273 204.176 72.7269 204.176C71.8011 204.176 70.9486 204.006 70.1693 203.666C69.3958 203.32 68.7923 202.846 68.3587 202.242C67.931 201.639 67.7171 200.936 67.7171 200.133H69.9407C69.9407 200.859 70.181 201.422 70.6614 201.82C71.1419 202.219 71.8304 202.418 72.7269 202.418C73.5003 202.418 74.0804 202.263 74.4671 201.952C74.8597 201.636 75.056 201.22 75.056 200.704ZM100.911 204H98.6961V198.313H92.9744V204H90.7508V191.203H92.9744V196.529H98.6961V191.203H100.911V204ZM125.281 197.936C125.281 199.189 125.064 200.291 124.63 201.24C124.197 202.184 123.575 202.91 122.767 203.42C121.964 203.924 121.038 204.176 119.99 204.176C118.952 204.176 118.027 203.924 117.212 203.42C116.404 202.91 115.777 202.187 115.331 201.249C114.892 200.312 114.669 199.23 114.663 198.006V197.285C114.663 196.037 114.883 194.936 115.323 193.98C115.768 193.025 116.392 192.296 117.195 191.792C118.003 191.282 118.929 191.027 119.972 191.027C121.015 191.027 121.938 191.279 122.741 191.783C123.549 192.281 124.173 193.002 124.613 193.945C125.052 194.883 125.275 195.976 125.281 197.224V197.936ZM123.057 197.268C123.057 195.85 122.787 194.763 122.248 194.007C121.715 193.251 120.956 192.873 119.972 192.873C119.011 192.873 118.258 193.251 117.713 194.007C117.174 194.757 116.899 195.82 116.887 197.197V197.936C116.887 199.342 117.159 200.429 117.704 201.196C118.255 201.964 119.017 202.348 119.99 202.348C120.974 202.348 121.73 201.973 122.257 201.223C122.79 200.473 123.057 199.377 123.057 197.936V197.268ZM141.239 199.245V204H139.015V191.203H143.911C145.341 191.203 146.474 191.575 147.312 192.319C148.156 193.063 148.578 194.048 148.578 195.272C148.578 196.526 148.165 197.502 147.339 198.199C146.518 198.896 145.367 199.245 143.885 199.245H141.239ZM141.239 197.461H143.911C144.702 197.461 145.305 197.276 145.721 196.907C146.137 196.532 146.345 195.993 146.345 195.29C146.345 194.599 146.135 194.048 145.713 193.638C145.291 193.222 144.711 193.008 143.972 192.996H141.239V197.461ZM164.273 199.245V204H162.049V191.203H166.945C168.374 191.203 169.508 191.575 170.346 192.319C171.19 193.063 171.612 194.048 171.612 195.272C171.612 196.526 171.198 197.502 170.372 198.199C169.552 198.896 168.401 199.245 166.918 199.245H164.273ZM164.273 197.461H166.945C167.736 197.461 168.339 197.276 168.755 196.907C169.171 196.532 169.379 195.993 169.379 195.29C169.379 194.599 169.168 194.048 168.746 193.638C168.324 193.222 167.744 193.008 167.006 192.996H164.273V197.461ZM187.429 204H185.215V191.203H187.429V204ZM211.834 204H209.611L203.906 194.921V204H201.683V191.203H203.906L209.628 200.317V191.203H211.834V204ZM235.791 202.339C235.328 202.942 234.686 203.399 233.866 203.71C233.046 204.021 232.114 204.176 231.071 204.176C229.999 204.176 229.049 203.933 228.223 203.446C227.397 202.96 226.758 202.266 226.307 201.363C225.862 200.455 225.631 199.397 225.613 198.19V197.188C225.613 195.255 226.076 193.746 227.002 192.662C227.927 191.572 229.219 191.027 230.878 191.027C232.301 191.027 233.432 191.379 234.27 192.082C235.108 192.785 235.612 193.799 235.782 195.123H233.602C233.356 193.582 232.463 192.812 230.922 192.812C229.925 192.812 229.167 193.172 228.645 193.893C228.13 194.607 227.863 195.659 227.845 197.048V198.032C227.845 199.415 228.135 200.49 228.716 201.258C229.301 202.02 230.113 202.4 231.15 202.4C232.287 202.4 233.095 202.143 233.576 201.627V199.122H230.939V197.435H235.791V202.339Z" fill="#424242"/>
<path d="M160.083 71.9762V67.1441C160.096 64.9577 159.222 62.8553 157.663 61.3223C156.156 59.8215 154.183 59 152.094 59C152.061 59 152.023 59 151.99 59C147.533 59.0065 143.911 62.6548 143.911 67.1441V71.9762C142.229 72.1767 141 73.5869 141 75.2946V86.1491C141 87.9927 142.475 89.5128 144.318 89.5128H159.682C161.525 89.5128 163 87.9927 163 86.1491V75.2946C162.994 73.5934 161.764 72.1767 160.083 71.9762ZM145.198 67.1441H145.205C145.205 63.3664 148.251 60.2743 151.997 60.2743H152.003C153.782 60.2679 155.49 60.9729 156.751 62.2279C158.064 63.5281 158.795 65.3005 158.782 67.1441V71.9827H157.359V67.1441C157.372 65.6757 156.79 64.2655 155.749 63.2305C154.765 62.2473 153.433 61.691 152.042 61.691H152.003C149.028 61.691 146.621 64.1361 146.621 67.1376V71.9827H145.198V67.1441ZM156.072 67.1441V71.9827H147.921V67.1441C147.921 64.8542 149.746 62.9912 152.01 62.9912H152.049C153.096 62.9912 154.106 63.4116 154.849 64.1555C155.639 64.9447 156.085 66.025 156.072 67.1441ZM161.764 86.1685C161.764 87.3005 160.846 88.2191 159.714 88.2191H144.344C143.212 88.2191 142.294 87.3005 142.294 86.1685V75.327C142.294 74.1949 143.212 73.2764 144.344 73.2764H159.714C160.846 73.2764 161.764 74.1949 161.764 75.327V86.1685Z" fill="black"/>
<path d="M154.237 80.3465C153.953 79.3439 153.041 78.6582 151.999 78.6582C150.712 78.6582 149.664 79.6997 149.664 80.9934C149.664 82.0349 150.35 82.9469 151.352 83.2316V85.0428C151.352 85.3986 151.643 85.6897 151.999 85.6897C152.355 85.6897 152.646 85.3986 152.646 85.0428V83.2316C153.882 82.8758 154.6 81.582 154.237 80.3465ZM151.999 82.0284C151.424 82.0284 150.958 81.5626 150.958 80.9869C150.958 80.4112 151.424 79.9455 151.999 79.9455C152.575 79.9455 153.041 80.4112 153.041 80.9869C153.041 81.5626 152.575 82.0284 151.999 82.0284Z" fill="black"/>
</g>
</g>
<defs>
<filter id="filter0_d" x="0" y="0" width="304" height="278" filterUnits="userSpaceOnUse" color-interpolation-filters="sRGB">
<feFlood flood-opacity="0" result="BackgroundImageFix"/>
<feColorMatrix in="SourceAlpha" type="matrix" values="0 0 0 0 0 0 0 0 0 0 0 0 0 0 0 0 0 0 127 0"/>
<feOffset dy="4"/>
<feGaussianBlur stdDeviation="2"/>
<feColorMatrix type="matrix" values="0 0 0 0 0 0 0 0 0 0 0 0 0 0 0 0 0 0 0.25 0"/>
<feBlend mode="normal" in2="BackgroundImageFix" result="effect1_dropShadow"/>
<feBlend mode="normal" in="SourceGraphic" in2="effect1_dropShadow" result="shape"/>
</filter>
<clipPath id="clip0">
<rect x="4" width="296" height="270" rx="5" fill="white"/>
</clipPath>
</defs>
</svg>
