<svg width="304" height="278" viewBox="0 0 304 278" fill="none" xmlns="http://www.w3.org/2000/svg">
<g filter="url(#filter0_d)">
<g clip-path="url(#clip0)">
<rect x="4" width="296" height="270" rx="5" fill="white"/>
<g clip-path="url(#clip1)">
<path d="M112 2.26123V43.8857C112 55.5788 102.485 65.0942 90.7915 65.0942H71.7283L55.2681 86.5816C53.8752 88.4014 51.1266 88.4035 49.7319 86.5816L33.2717 65.0942H14.2085C2.51535 65.0942 -7 55.5788 -7 43.8857V2.26123C-7 -9.43191 2.51535 -18.9473 14.2085 -18.9473H90.7915C102.485 -18.9473 112 -9.43191 112 2.26123V2.26123Z" fill="#FFE14D"/>
<path d="M112 2.26123V43.8857C112 55.5788 102.485 65.0942 90.7915 65.0942H71.7283L55.2681 86.5816C54.6081 87.4438 53.5854 87.9482 52.5 87.9482V-18.9473H90.7915C102.485 -18.9473 112 -9.43191 112 2.26123V2.26123Z" fill="#FABE2C"/>
<path d="M77.4094 26.031L56.3148 47.1256C54.22 49.2204 50.8043 49.2406 48.689 47.1256L27.5921 26.031C21.6933 20.1321 21.6933 10.5703 27.5921 4.67141C30.5416 1.72197 34.4067 0.246094 38.2719 0.246094C42.1371 0.246094 46.0023 1.72197 48.9494 4.67141C52.3694 8.08894 51.949 7.66872 52.5008 8.22048L52.5031 8.22281L56.0522 4.67373C61.9487 -1.22514 71.5129 -1.22514 77.4094 4.67141C83.305 10.567 83.3085 20.1319 77.4094 26.031V26.031Z" fill="#FF4D4D"/>
<path d="M77.4087 26.0317L56.314 47.1263C55.2612 48.1792 53.8806 48.7044 52.5 48.7044V8.2212L52.5023 8.22352L56.0514 4.67444C61.948 -1.22443 71.5121 -1.22443 77.4087 4.67212C83.3043 10.5677 83.3078 20.1326 77.4087 26.0317V26.0317Z" fill="#CD0000"/>
</g>
<g clip-path="url(#clip2)">
<path d="M175 270.43V213.065C175 196.95 188.114 183.836 204.229 183.836H230.501L253.185 154.224C255.105 151.715 258.893 151.713 260.815 154.224L283.499 183.836H309.771C325.886 183.836 339 196.95 339 213.065V270.43C339 286.545 325.886 299.658 309.771 299.658H204.229C188.114 299.658 175 286.545 175 270.43V270.43Z" fill="#FFE14D"/>
<path d="M175 270.43V213.065C175 196.95 188.114 183.836 204.229 183.836H230.501L253.185 154.224C254.095 153.035 255.504 152.34 257 152.34V299.658H204.229C188.114 299.658 175 286.545 175 270.43V270.43Z" fill="#FABE2C"/>
<path d="M222.673 237.672L251.744 208.6C254.631 205.713 259.339 205.685 262.254 208.6L291.329 237.672C299.458 245.801 299.458 258.979 291.329 267.108C287.264 271.173 281.937 273.207 276.61 273.207C271.283 273.207 265.957 271.173 261.895 267.108C257.182 262.398 257.761 262.978 257.001 262.217L256.998 262.214L252.106 267.105C243.98 275.235 230.799 275.235 222.673 267.108C214.548 258.983 214.543 245.801 222.673 237.672V237.672Z" fill="#FF4D4D"/>
<path d="M222.672 237.672L251.744 208.601C253.195 207.149 255.097 206.426 257 206.426V262.218L256.997 262.214L252.106 267.106C243.979 275.235 230.798 275.235 222.672 267.109C214.547 258.984 214.542 245.802 222.672 237.672V237.672Z" fill="#CD0000"/>
</g>
<path d="M100.055 105.711C100.055 104.398 100.362 103.352 100.977 102.57C101.597 101.784 102.417 101.391 103.438 101.391C104.401 101.391 105.159 101.727 105.711 102.398L105.797 101.547H107.508V109.742C107.508 110.852 107.162 111.727 106.469 112.367C105.782 113.008 104.852 113.328 103.68 113.328C103.06 113.328 102.453 113.198 101.86 112.938C101.271 112.682 100.823 112.346 100.516 111.93L101.414 110.789C101.998 111.482 102.716 111.828 103.571 111.828C104.201 111.828 104.698 111.656 105.063 111.312C105.427 110.974 105.61 110.474 105.61 109.812V109.242C105.063 109.852 104.334 110.156 103.422 110.156C102.433 110.156 101.623 109.763 100.992 108.977C100.367 108.19 100.055 107.102 100.055 105.711ZM101.946 105.875C101.946 106.724 102.117 107.393 102.461 107.883C102.81 108.367 103.292 108.609 103.907 108.609C104.672 108.609 105.24 108.281 105.61 107.625V103.906C105.25 103.266 104.688 102.945 103.922 102.945C103.297 102.945 102.81 103.193 102.461 103.688C102.117 104.182 101.946 104.911 101.946 105.875ZM113.165 110H111.266V101.547H113.165V110ZM111.149 99.3516C111.149 99.0599 111.24 98.8177 111.422 98.625C111.61 98.4323 111.876 98.3359 112.219 98.3359C112.563 98.3359 112.829 98.4323 113.016 98.625C113.204 98.8177 113.297 99.0599 113.297 99.3516C113.297 99.638 113.204 99.8776 113.016 100.07C112.829 100.258 112.563 100.352 112.219 100.352C111.876 100.352 111.61 100.258 111.422 100.07C111.24 99.8776 111.149 99.638 111.149 99.3516ZM119.899 107.594L121.688 101.547H123.649L120.72 110H119.071L116.118 101.547H118.087L119.899 107.594ZM128.54 110H126.642V101.547H128.54V110ZM126.525 99.3516C126.525 99.0599 126.616 98.8177 126.798 98.625C126.986 98.4323 127.251 98.3359 127.595 98.3359C127.939 98.3359 128.204 98.4323 128.392 98.625C128.579 98.8177 128.673 99.0599 128.673 99.3516C128.673 99.638 128.579 99.8776 128.392 100.07C128.204 100.258 127.939 100.352 127.595 100.352C127.251 100.352 126.986 100.258 126.798 100.07C126.616 99.8776 126.525 99.638 126.525 99.3516ZM134.056 101.547L134.111 102.523C134.736 101.768 135.556 101.391 136.572 101.391C138.332 101.391 139.228 102.398 139.259 104.414V110H137.361V104.523C137.361 103.987 137.244 103.591 137.009 103.336C136.78 103.076 136.403 102.945 135.877 102.945C135.111 102.945 134.541 103.292 134.166 103.984V110H132.267V101.547H134.056ZM142.549 105.711C142.549 104.398 142.856 103.352 143.471 102.57C144.09 101.784 144.911 101.391 145.932 101.391C146.895 101.391 147.653 101.727 148.205 102.398L148.291 101.547H150.002V109.742C150.002 110.852 149.655 111.727 148.963 112.367C148.275 113.008 147.346 113.328 146.174 113.328C145.554 113.328 144.947 113.198 144.353 112.938C143.765 112.682 143.317 112.346 143.01 111.93L143.908 110.789C144.491 111.482 145.21 111.828 146.064 111.828C146.695 111.828 147.192 111.656 147.557 111.312C147.921 110.974 148.103 110.474 148.103 109.812V109.242C147.557 109.852 146.827 110.156 145.916 110.156C144.926 110.156 144.116 109.763 143.486 108.977C142.861 108.19 142.549 107.102 142.549 105.711ZM144.439 105.875C144.439 106.724 144.611 107.393 144.955 107.883C145.304 108.367 145.786 108.609 146.4 108.609C147.166 108.609 147.734 108.281 148.103 107.625V103.906C147.744 103.266 147.182 102.945 146.416 102.945C145.791 102.945 145.304 103.193 144.955 103.688C144.611 104.182 144.439 104.911 144.439 105.875ZM164.424 109.172C163.867 109.828 163.075 110.156 162.049 110.156C161.133 110.156 160.437 109.888 159.963 109.352C159.495 108.815 159.26 108.039 159.26 107.023V101.547H161.159V107C161.159 108.073 161.604 108.609 162.495 108.609C163.417 108.609 164.039 108.279 164.362 107.617V101.547H166.26V110H164.471L164.424 109.172ZM174.612 107.703C174.612 107.365 174.472 107.107 174.19 106.93C173.914 106.753 173.453 106.596 172.807 106.461C172.162 106.326 171.623 106.154 171.19 105.945C170.242 105.487 169.768 104.823 169.768 103.953C169.768 103.224 170.076 102.615 170.69 102.125C171.305 101.635 172.086 101.391 173.034 101.391C174.044 101.391 174.86 101.641 175.479 102.141C176.104 102.641 176.417 103.289 176.417 104.086H174.518C174.518 103.721 174.383 103.419 174.112 103.18C173.841 102.935 173.482 102.812 173.034 102.812C172.617 102.812 172.276 102.909 172.011 103.102C171.75 103.294 171.62 103.552 171.62 103.875C171.62 104.167 171.742 104.393 171.987 104.555C172.232 104.716 172.727 104.88 173.472 105.047C174.216 105.208 174.8 105.404 175.222 105.633C175.649 105.857 175.964 106.128 176.167 106.445C176.375 106.763 176.479 107.148 176.479 107.602C176.479 108.362 176.164 108.979 175.534 109.453C174.904 109.922 174.078 110.156 173.057 110.156C172.365 110.156 171.748 110.031 171.206 109.781C170.664 109.531 170.242 109.188 169.94 108.75C169.638 108.312 169.487 107.841 169.487 107.336H171.331C171.357 107.784 171.526 108.13 171.839 108.375C172.151 108.615 172.565 108.734 173.081 108.734C173.581 108.734 173.961 108.641 174.222 108.453C174.482 108.26 174.612 108.01 174.612 107.703ZM183.542 110.156C182.339 110.156 181.362 109.779 180.612 109.023C179.868 108.263 179.495 107.253 179.495 105.992V105.758C179.495 104.914 179.657 104.161 179.98 103.5C180.308 102.833 180.766 102.315 181.355 101.945C181.943 101.576 182.599 101.391 183.323 101.391C184.474 101.391 185.362 101.758 185.987 102.492C186.618 103.227 186.933 104.266 186.933 105.609V106.375H181.409C181.467 107.073 181.698 107.625 182.105 108.031C182.516 108.438 183.032 108.641 183.652 108.641C184.521 108.641 185.23 108.289 185.777 107.586L186.8 108.562C186.461 109.068 186.008 109.461 185.441 109.742C184.878 110.018 184.245 110.156 183.542 110.156ZM183.316 102.914C182.795 102.914 182.373 103.096 182.05 103.461C181.732 103.826 181.529 104.333 181.441 104.984H185.058V104.844C185.016 104.208 184.847 103.729 184.55 103.406C184.253 103.078 183.842 102.914 183.316 102.914ZM194.519 103.281C194.269 103.24 194.011 103.219 193.746 103.219C192.876 103.219 192.29 103.552 191.988 104.219V110H190.089V101.547H191.902L191.949 102.492C192.407 101.758 193.042 101.391 193.855 101.391C194.126 101.391 194.35 101.427 194.527 101.5L194.519 103.281ZM202.136 107.703C202.136 107.365 201.996 107.107 201.715 106.93C201.439 106.753 200.978 106.596 200.332 106.461C199.686 106.326 199.147 106.154 198.715 105.945C197.767 105.487 197.293 104.823 197.293 103.953C197.293 103.224 197.6 102.615 198.215 102.125C198.829 101.635 199.61 101.391 200.558 101.391C201.569 101.391 202.384 101.641 203.004 102.141C203.629 102.641 203.941 103.289 203.941 104.086H202.043C202.043 103.721 201.907 103.419 201.636 103.18C201.366 102.935 201.006 102.812 200.558 102.812C200.142 102.812 199.801 102.909 199.535 103.102C199.275 103.294 199.144 103.552 199.144 103.875C199.144 104.167 199.267 104.393 199.511 104.555C199.756 104.716 200.251 104.88 200.996 105.047C201.741 105.208 202.324 105.404 202.746 105.633C203.173 105.857 203.488 106.128 203.691 106.445C203.9 106.763 204.004 107.148 204.004 107.602C204.004 108.362 203.689 108.979 203.058 109.453C202.428 109.922 201.603 110.156 200.582 110.156C199.889 110.156 199.272 110.031 198.73 109.781C198.189 109.531 197.767 109.188 197.465 108.75C197.163 108.312 197.011 107.841 197.011 107.336H198.855C198.881 107.784 199.051 108.13 199.363 108.375C199.676 108.615 200.09 108.734 200.605 108.734C201.105 108.734 201.485 108.641 201.746 108.453C202.006 108.26 202.136 108.01 202.136 107.703Z" fill="#424242"/>
<path d="M91.9373 150V137.203H96.323C97.7703 137.203 98.8719 137.493 99.6277 138.073C100.384 138.653 100.762 139.518 100.762 140.666C100.762 141.252 100.603 141.779 100.287 142.248C99.9705 142.717 99.5076 143.08 98.8982 143.338C99.5896 143.525 100.123 143.88 100.498 144.401C100.879 144.917 101.069 145.538 101.069 146.265C101.069 147.466 100.682 148.389 99.909 149.033C99.1414 149.678 98.0398 150 96.6043 150H91.9373ZM94.1609 144.226V148.225H96.6307C97.3279 148.225 97.8728 148.052 98.2654 147.706C98.658 147.36 98.8543 146.88 98.8543 146.265C98.8543 144.935 98.1746 144.255 96.8152 144.226H94.1609ZM94.1609 142.591H96.3406C97.032 142.591 97.5711 142.436 97.9578 142.125C98.3504 141.809 98.5467 141.363 98.5467 140.789C98.5467 140.156 98.365 139.699 98.0018 139.418C97.6443 139.137 97.0848 138.996 96.323 138.996H94.1609V142.591ZM122.292 144.287H117.036V148.225H123.18V150H114.813V137.203H123.118V138.996H117.036V142.529H122.292V144.287ZM145.932 138.996H141.942V150H139.736V138.996H135.781V137.203H145.932V138.996ZM168.527 138.996H164.536V150H162.33V138.996H158.375V137.203H168.527V138.996ZM189.214 144.287H183.958V148.225H190.101V150H181.734V137.203H190.04V138.996H183.958V142.529H189.214V144.287ZM208.134 145.069H205.655V150H203.432V137.203H207.932C209.408 137.203 210.548 137.534 211.351 138.196C212.154 138.858 212.555 139.816 212.555 141.07C212.555 141.926 212.347 142.644 211.931 143.224C211.521 143.798 210.946 144.24 210.208 144.551L213.082 149.886V150H210.7L208.134 145.069ZM205.655 143.285H207.941C208.691 143.285 209.277 143.098 209.698 142.723C210.12 142.342 210.331 141.823 210.331 141.167C210.331 140.481 210.135 139.951 209.742 139.576C209.356 139.201 208.776 139.008 208.002 138.996H205.655V143.285ZM91.0728 171.834C90.9439 173.199 90.44 174.266 89.5611 175.033C88.6822 175.795 87.5132 176.176 86.0543 176.176C85.0347 176.176 84.1353 175.936 83.356 175.455C82.5826 174.969 81.9849 174.28 81.563 173.39C81.1412 172.499 80.9214 171.465 80.9039 170.287V169.092C80.9039 167.885 81.1177 166.821 81.5455 165.901C81.9732 164.981 82.5855 164.272 83.3824 163.774C84.1851 163.276 85.1109 163.027 86.1597 163.027C87.5718 163.027 88.7086 163.411 89.5699 164.179C90.4312 164.946 90.9322 166.03 91.0728 167.431H88.858C88.7525 166.511 88.483 165.849 88.0494 165.444C87.6216 165.034 86.9918 164.829 86.1597 164.829C85.1929 164.829 84.4488 165.184 83.9273 165.893C83.4117 166.596 83.148 167.63 83.1363 168.995V170.129C83.1363 171.512 83.3824 172.566 83.8746 173.293C84.3726 174.02 85.0992 174.383 86.0543 174.383C86.9273 174.383 87.5836 174.187 88.023 173.794C88.4625 173.401 88.7408 172.748 88.858 171.834H91.0728ZM114.748 176H112.533V170.313H106.812V176H104.588V163.203H106.812V168.529H112.533V163.203H114.748V176ZM139.118 169.936C139.118 171.189 138.901 172.291 138.467 173.24C138.034 174.184 137.413 174.91 136.604 175.42C135.801 175.924 134.876 176.176 133.827 176.176C132.79 176.176 131.864 175.924 131.049 175.42C130.241 174.91 129.614 174.187 129.168 173.249C128.729 172.312 128.506 171.23 128.501 170.006V169.285C128.501 168.037 128.72 166.936 129.16 165.98C129.605 165.025 130.229 164.296 131.032 163.792C131.84 163.282 132.766 163.027 133.809 163.027C134.852 163.027 135.775 163.279 136.578 163.783C137.386 164.281 138.01 165.002 138.45 165.945C138.889 166.883 139.112 167.976 139.118 169.224V169.936ZM136.894 169.268C136.894 167.85 136.625 166.763 136.085 166.007C135.552 165.251 134.793 164.873 133.809 164.873C132.848 164.873 132.095 165.251 131.55 166.007C131.011 166.757 130.736 167.82 130.724 169.197V169.936C130.724 171.342 130.997 172.429 131.542 173.196C132.092 173.964 132.854 174.348 133.827 174.348C134.811 174.348 135.567 173.973 136.094 173.223C136.627 172.473 136.894 171.377 136.894 169.936V169.268ZM155.199 176H152.984V163.203H155.199V176ZM179.217 171.834C179.088 173.199 178.584 174.266 177.706 175.033C176.827 175.795 175.658 176.176 174.199 176.176C173.179 176.176 172.28 175.936 171.5 175.455C170.727 174.969 170.129 174.28 169.708 173.39C169.286 172.499 169.066 171.465 169.048 170.287V169.092C169.048 167.885 169.262 166.821 169.69 165.901C170.118 164.981 170.73 164.272 171.527 163.774C172.33 163.276 173.255 163.027 174.304 163.027C175.716 163.027 176.853 163.411 177.714 164.179C178.576 164.946 179.077 166.03 179.217 167.431H177.002C176.897 166.511 176.627 165.849 176.194 165.444C175.766 165.034 175.136 164.829 174.304 164.829C173.337 164.829 172.593 165.184 172.072 165.893C171.556 166.596 171.292 167.63 171.281 168.995V170.129C171.281 171.512 171.527 172.566 172.019 173.293C172.517 174.02 173.244 174.383 174.199 174.383C175.072 174.383 175.728 174.187 176.167 173.794C176.607 173.401 176.885 172.748 177.002 171.834H179.217ZM200.212 170.287H194.956V174.225H201.1V176H192.732V163.203H201.038V164.996H194.956V168.529H200.212V170.287ZM221.119 172.704C221.119 172.142 220.919 171.708 220.521 171.403C220.128 171.099 219.416 170.791 218.385 170.48C217.354 170.17 216.534 169.824 215.924 169.443C214.758 168.711 214.175 167.756 214.175 166.578C214.175 165.547 214.594 164.697 215.432 164.029C216.276 163.361 217.369 163.027 218.71 163.027C219.601 163.027 220.395 163.191 221.092 163.52C221.789 163.848 222.337 164.316 222.736 164.926C223.134 165.529 223.333 166.2 223.333 166.938H221.119C221.119 166.271 220.908 165.749 220.486 165.374C220.07 164.993 219.472 164.803 218.693 164.803C217.966 164.803 217.401 164.958 216.997 165.269C216.598 165.579 216.399 166.013 216.399 166.569C216.399 167.038 216.616 167.431 217.049 167.747C217.483 168.058 218.198 168.362 219.194 168.661C220.19 168.954 220.99 169.291 221.593 169.672C222.197 170.047 222.639 170.48 222.92 170.973C223.202 171.459 223.342 172.03 223.342 172.687C223.342 173.753 222.932 174.603 222.112 175.235C221.297 175.862 220.19 176.176 218.789 176.176C217.864 176.176 217.011 176.006 216.232 175.666C215.458 175.32 214.855 174.846 214.421 174.242C213.994 173.639 213.78 172.936 213.78 172.133H216.003C216.003 172.859 216.244 173.422 216.724 173.82C217.205 174.219 217.893 174.418 218.789 174.418C219.563 174.418 220.143 174.263 220.53 173.952C220.922 173.636 221.119 173.22 221.119 172.704Z" fill="#424242"/>
<path d="M92.1158 77.8643V81H89.8877V71.7578H93.5757C94.2824 71.7578 94.9066 71.889 95.4483 72.1514C95.9942 72.4095 96.4152 72.7798 96.7115 73.2622C97.0119 73.7404 97.1621 74.2842 97.1621 74.8936C97.1621 75.7949 96.8384 76.5164 96.191 77.0581C95.5477 77.5955 94.6633 77.8643 93.5376 77.8643H92.1158ZM92.1158 76.144H93.5757C94.0074 76.144 94.3353 76.0361 94.5596 75.8203C94.7881 75.6045 94.9024 75.2998 94.9024 74.9062C94.9024 74.4746 94.786 74.1297 94.5533 73.8716C94.3205 73.6134 94.0031 73.4823 93.6011 73.478H92.1158V76.144ZM103.32 79.2734H100.267L99.7337 81H97.3533L100.743 71.7578H102.838L106.253 81H103.86L103.32 79.2734ZM100.8 77.5532H102.787L101.79 74.3477L100.8 77.5532ZM112.544 78.5435C112.544 78.2176 112.428 77.9637 112.195 77.7817C111.966 77.5998 111.562 77.4115 110.983 77.2168C110.403 77.0221 109.929 76.8338 109.561 76.6519C108.363 76.0636 107.764 75.2554 107.764 74.2271C107.764 73.715 107.912 73.2643 108.209 72.875C108.509 72.4814 108.932 72.1768 109.478 71.9609C110.024 71.7409 110.638 71.6309 111.319 71.6309C111.983 71.6309 112.578 71.7493 113.103 71.9863C113.632 72.2233 114.042 72.5618 114.334 73.002C114.626 73.4378 114.772 73.9372 114.772 74.5H112.55C112.55 74.1234 112.434 73.8314 112.201 73.624C111.973 73.4167 111.662 73.313 111.268 73.313C110.87 73.313 110.555 73.4019 110.322 73.5796C110.094 73.7531 109.98 73.9753 109.98 74.2461C109.98 74.4831 110.107 74.6989 110.36 74.8936C110.614 75.084 111.061 75.2829 111.7 75.4902C112.339 75.6934 112.864 75.9134 113.274 76.1504C114.273 76.7259 114.772 77.5194 114.772 78.5308C114.772 79.339 114.467 79.9738 113.858 80.4351C113.249 80.8963 112.413 81.127 111.351 81.127C110.602 81.127 109.922 80.9937 109.313 80.7271C108.708 80.4562 108.251 80.0881 107.942 79.6226C107.637 79.1528 107.485 78.6133 107.485 78.0039H109.719C109.719 78.499 109.846 78.8651 110.1 79.1021C110.358 79.3348 110.775 79.4512 111.351 79.4512C111.719 79.4512 112.009 79.3729 112.22 79.2163C112.436 79.0555 112.544 78.8312 112.544 78.5435ZM121.527 78.5435C121.527 78.2176 121.41 77.9637 121.178 77.7817C120.949 77.5998 120.545 77.4115 119.965 77.2168C119.385 77.0221 118.912 76.8338 118.543 76.6519C117.346 76.0636 116.747 75.2554 116.747 74.2271C116.747 73.715 116.895 73.2643 117.191 72.875C117.492 72.4814 117.915 72.1768 118.461 71.9609C119.007 71.7409 119.62 71.6309 120.302 71.6309C120.966 71.6309 121.561 71.7493 122.085 71.9863C122.614 72.2233 123.025 72.5618 123.317 73.002C123.609 73.4378 123.755 73.9372 123.755 74.5H121.533C121.533 74.1234 121.417 73.8314 121.184 73.624C120.955 73.4167 120.644 73.313 120.251 73.313C119.853 73.313 119.538 73.4019 119.305 73.5796C119.077 73.7531 118.962 73.9753 118.962 74.2461C118.962 74.4831 119.089 74.6989 119.343 74.8936C119.597 75.084 120.044 75.2829 120.682 75.4902C121.321 75.6934 121.846 75.9134 122.257 76.1504C123.255 76.7259 123.755 77.5194 123.755 78.5308C123.755 79.339 123.45 79.9738 122.841 80.4351C122.231 80.8963 121.396 81.127 120.333 81.127C119.584 81.127 118.905 80.9937 118.296 80.7271C117.691 80.4562 117.234 80.0881 116.925 79.6226C116.62 79.1528 116.468 78.6133 116.468 78.0039H118.702C118.702 78.499 118.829 78.8651 119.083 79.1021C119.341 79.3348 119.758 79.4512 120.333 79.4512C120.702 79.4512 120.991 79.3729 121.203 79.2163C121.419 79.0555 121.527 78.8312 121.527 78.5435ZM128.116 81H125.895V71.7578H128.116V81ZM138.337 76.5693C138.337 77.4707 138.17 78.2684 137.835 78.9624C137.501 79.6564 137.025 80.1917 136.407 80.5684C135.794 80.9408 135.093 81.127 134.306 81.127C133.519 81.127 132.821 80.9471 132.211 80.5874C131.602 80.2235 131.126 79.7051 130.783 79.0322C130.445 78.3594 130.267 77.5871 130.25 76.7153V76.1948C130.25 75.2892 130.415 74.4915 130.745 73.8018C131.079 73.1077 131.555 72.5724 132.173 72.1958C132.795 71.8192 133.502 71.6309 134.293 71.6309C135.076 71.6309 135.775 71.8171 136.388 72.1895C137.002 72.5618 137.478 73.0929 137.816 73.7827C138.159 74.4683 138.333 75.2554 138.337 76.144V76.5693ZM136.071 76.1821C136.071 75.2638 135.916 74.5677 135.607 74.0938C135.303 73.6156 134.865 73.3765 134.293 73.3765C133.176 73.3765 132.586 74.2144 132.522 75.8901L132.516 76.5693C132.516 77.4749 132.666 78.1711 132.967 78.6577C133.267 79.1444 133.714 79.3877 134.306 79.3877C134.869 79.3877 135.303 79.1486 135.607 78.6704C135.912 78.1922 136.067 77.5046 136.071 76.6074V76.1821ZM148.05 81H145.834L142.559 75.249V81H140.331V71.7578H142.559L145.828 77.5088V71.7578H148.05V81ZM156.614 77.8643V81H154.386V71.7578H158.074C158.781 71.7578 159.405 71.889 159.947 72.1514C160.492 72.4095 160.914 72.7798 161.21 73.2622C161.51 73.7404 161.66 74.2842 161.66 74.8936C161.66 75.7949 161.337 76.5164 160.689 77.0581C160.046 77.5955 159.162 77.8643 158.036 77.8643H156.614ZM156.614 76.144H158.074C158.506 76.144 158.834 76.0361 159.058 75.8203C159.286 75.6045 159.401 75.2998 159.401 74.9062C159.401 74.4746 159.284 74.1297 159.052 73.8716C158.819 73.6134 158.501 73.4823 158.099 73.478H156.614V76.144ZM167.133 77.7373H165.927V81H163.699V71.7578H167.336C168.432 71.7578 169.289 72.0011 169.907 72.4878C170.525 72.9744 170.834 73.6621 170.834 74.5508C170.834 75.194 170.702 75.7272 170.44 76.1504C170.182 76.5736 169.776 76.9163 169.221 77.1787L171.151 80.9048V81H168.764L167.133 77.7373ZM165.927 76.0171H167.336C167.759 76.0171 168.077 75.9071 168.288 75.687C168.504 75.4627 168.612 75.1517 168.612 74.7539C168.612 74.3561 168.504 74.0451 168.288 73.8208C168.072 73.5923 167.755 73.478 167.336 73.478H165.927V76.0171ZM180.851 76.5693C180.851 77.4707 180.684 78.2684 180.349 78.9624C180.015 79.6564 179.539 80.1917 178.921 80.5684C178.308 80.9408 177.607 81.127 176.82 81.127C176.033 81.127 175.335 80.9471 174.725 80.5874C174.116 80.2235 173.64 79.7051 173.297 79.0322C172.959 78.3594 172.781 77.5871 172.764 76.7153V76.1948C172.764 75.2892 172.929 74.4915 173.259 73.8018C173.593 73.1077 174.07 72.5724 174.687 72.1958C175.309 71.8192 176.016 71.6309 176.807 71.6309C177.59 71.6309 178.289 71.8171 178.902 72.1895C179.516 72.5618 179.992 73.0929 180.33 73.7827C180.673 74.4683 180.847 75.2554 180.851 76.144V76.5693ZM178.585 76.1821C178.585 75.2638 178.43 74.5677 178.121 74.0938C177.817 73.6156 177.379 73.3765 176.807 73.3765C175.69 73.3765 175.1 74.2144 175.036 75.8901L175.03 76.5693C175.03 77.4749 175.18 78.1711 175.481 78.6577C175.781 79.1444 176.228 79.3877 176.82 79.3877C177.383 79.3877 177.817 79.1486 178.121 78.6704C178.426 78.1922 178.581 77.5046 178.585 76.6074V76.1821ZM186.526 71.7578H188.748V78.0991C188.748 78.6873 188.611 79.2121 188.336 79.6733C188.065 80.1346 187.684 80.4922 187.193 80.7461C186.706 81 186.163 81.127 185.562 81.127C184.554 81.127 183.772 80.873 183.213 80.3652C182.654 79.8574 182.375 79.138 182.375 78.207H184.609C184.609 78.6302 184.681 78.937 184.825 79.1274C184.973 79.3179 185.219 79.4131 185.562 79.4131C185.871 79.4131 186.108 79.2988 186.273 79.0703C186.442 78.8376 186.526 78.5138 186.526 78.0991V71.7578ZM196.734 77.0835H193.23V79.2861H197.369V81H191.002V71.7578H197.382V73.478H193.23V75.4268H196.734V77.0835ZM206.599 77.8706C206.57 78.5138 206.396 79.083 206.079 79.5781C205.761 80.069 205.315 80.4499 204.739 80.7207C204.168 80.9915 203.514 81.127 202.778 81.127C201.563 81.127 200.607 80.7313 199.909 79.9399C199.211 79.1486 198.862 78.0314 198.862 76.5884V76.1313C198.862 75.2257 199.018 74.4344 199.331 73.7573C199.649 73.076 200.104 72.5513 200.696 72.1831C201.288 71.8107 201.974 71.6245 202.753 71.6245C203.874 71.6245 204.775 71.9207 205.457 72.5132C206.138 73.1014 206.525 73.9139 206.618 74.9507H204.397C204.38 74.3879 204.238 73.9837 203.971 73.7383C203.705 73.4928 203.299 73.3701 202.753 73.3701C202.198 73.3701 201.792 73.5775 201.534 73.9922C201.276 74.4069 201.14 75.0692 201.128 75.979V76.6328C201.128 77.6188 201.25 78.3234 201.496 78.7466C201.745 79.1698 202.173 79.3813 202.778 79.3813C203.29 79.3813 203.681 79.2607 203.952 79.0195C204.223 78.7783 204.367 78.3953 204.384 77.8706H206.599ZM215.563 73.478H212.789V81H210.561V73.478H207.838V71.7578H215.563V73.478Z" fill="#424242"/>
</g>
</g>
<defs>
<filter id="filter0_d" x="0" y="0" width="304" height="278" filterUnits="userSpaceOnUse" color-interpolation-filters="sRGB">
<feFlood flood-opacity="0" result="BackgroundImageFix"/>
<feColorMatrix in="SourceAlpha" type="matrix" values="0 0 0 0 0 0 0 0 0 0 0 0 0 0 0 0 0 0 127 0"/>
<feOffset dy="4"/>
<feGaussianBlur stdDeviation="2"/>
<feColorMatrix type="matrix" values="0 0 0 0 0 0 0 0 0 0 0 0 0 0 0 0 0 0 0.25 0"/>
<feBlend mode="normal" in2="BackgroundImageFix" result="effect1_dropShadow"/>
<feBlend mode="normal" in="SourceGraphic" in2="effect1_dropShadow" result="shape"/>
</filter>
<clipPath id="clip0">
<rect x="4" width="296" height="270" rx="5" fill="white"/>
</clipPath>
<clipPath id="clip1">
<rect width="119" height="119" fill="white" transform="translate(-7 -25)"/>
</clipPath>
<clipPath id="clip2">
<rect width="164" height="164" fill="white" transform="translate(339 308) rotate(-180)"/>
</clipPath>
</defs>
</svg>
