<svg width="308" height="282" viewBox="0 0 308 282" fill="none" xmlns="http://www.w3.org/2000/svg">
<g filter="url(#filter0_d)">
<g clip-path="url(#clip0)">
<rect x="4" width="300" height="274" rx="10" fill="#1F1F1F"/>
<g opacity="0.5">
<path d="M290.989 146.48H285.551V141.042C285.551 133.826 291.4 127.977 298.616 127.977H302.883C303.53 127.977 304.054 128.501 304.054 129.147V133.415C304.054 140.63 298.204 146.48 290.989 146.48V146.48Z" fill="#B3E59F"/>
<path d="M280.112 153.06H285.55V147.622C285.55 140.406 279.7 134.557 272.485 134.557H268.217C267.571 134.557 267.047 135.081 267.047 135.727V139.995C267.047 147.21 272.896 153.06 280.112 153.06Z" fill="#B3E59F"/>
<path d="M283.861 147.978C283.033 147.043 283.12 145.615 284.055 144.787L291.813 137.918C292.748 137.09 294.177 137.177 295.005 138.112C295.832 139.047 295.745 140.475 294.811 141.303L287.053 148.172C286.121 148.997 284.692 148.916 283.861 147.978Z" fill="#78C2A4"/>
<path d="M244.942 146.48H239.504V141.042C239.504 133.826 245.353 127.977 252.569 127.977H256.837C257.483 127.977 258.007 128.501 258.007 129.147V133.415C258.007 140.63 252.158 146.48 244.942 146.48Z" fill="#B3E59F"/>
<path d="M234.065 153.06H239.503V147.622C239.503 140.406 233.654 134.557 226.438 134.557H222.17C221.524 134.557 221 135.081 221 135.727V139.995C221 147.21 226.849 153.06 234.065 153.06V153.06Z" fill="#B3E59F"/>
<path d="M239.507 163.265C238.258 163.265 237.246 162.253 237.246 161.005V146.404C237.246 145.155 238.258 144.144 239.507 144.144C240.755 144.144 241.767 145.156 241.767 146.404V161.005C241.767 162.254 240.755 163.265 239.507 163.265Z" fill="#78C2A4"/>
<path d="M237.81 147.978C236.983 147.043 237.07 145.615 238.004 144.787L245.763 137.918C246.698 137.09 248.127 137.177 248.954 138.112C249.782 139.047 249.695 140.475 248.76 141.303L241.002 148.172C240.07 148.997 238.641 148.916 237.81 147.978V147.978Z" fill="#78C2A4"/>
<path d="M237.905 154.658L230.119 146.873C229.236 145.99 229.236 144.559 230.119 143.676C231.002 142.793 232.434 142.793 233.317 143.676L241.102 151.461C241.985 152.344 241.985 153.775 241.102 154.658C240.219 155.541 238.787 155.541 237.905 154.658V154.658Z" fill="#78C2A4"/>
<path d="M285.554 163.265C284.305 163.265 283.293 162.253 283.293 161.005V146.404C283.293 145.155 284.305 144.144 285.554 144.144C286.802 144.144 287.814 145.156 287.814 146.404V161.005C287.814 162.254 286.802 163.265 285.554 163.265Z" fill="#78C2A4"/>
<path d="M283.956 154.658L276.17 146.873C275.287 145.99 275.287 144.559 276.17 143.676C277.053 142.793 278.484 142.793 279.367 143.676L287.153 151.461C288.036 152.344 288.036 153.775 287.153 154.658C286.27 155.541 284.838 155.541 283.956 154.658V154.658Z" fill="#78C2A4"/>
<path d="M236.028 112.754C235.337 112.754 234.796 112.158 234.861 111.469C235.492 104.771 240.835 98.3944 243.355 92.5821C244.866 89.0978 242.367 85.8166 244.585 82.7899C251.809 72.9283 262.509 65.7724 274.88 63.1247C278.321 62.3882 281.892 66.3895 285.553 66.3895C310.648 66.3895 331.489 80.2129 335.579 104.141C335.992 106.557 336.234 109.031 336.293 111.55C336.308 112.209 335.781 112.754 335.121 112.754H236.028Z" fill="#9DC6FB"/>
<path d="M276.511 66.5216C303.017 66.5216 324.774 86.8419 327.062 112.754H335.123C335.783 112.754 336.309 112.208 336.294 111.548C335.653 84.0742 313.181 62 285.554 62C275.596 62 266.31 64.8701 258.473 69.8248C264.078 67.6926 270.157 66.5216 276.511 66.5216V66.5216Z" fill="#80B4FB"/>
<path d="M335.566 104.144C331.474 80.2167 310.648 66.3895 285.554 66.3895C281.892 66.3895 278.325 62.3969 274.883 63.1337C275.895 67.2102 276.928 71.9978 277.859 77.6468C279.38 86.8851 280.017 94.7184 284.419 96.136C288.707 97.5168 292.191 91.4035 298.137 92.5575C303.126 93.5257 303.825 98.4412 308.277 102.1C314.315 107.064 325.673 108.413 335.566 104.144V104.144Z" fill="#B3E59F"/>
<path d="M326.124 106.555C329.277 106.253 332.492 105.47 335.566 104.143C330.566 75.77 303.36 57.1066 274.883 63.1331C275.151 64.2142 275.421 65.3469 275.69 66.5308C300.176 66.084 321.227 83.418 326.124 106.555V106.555Z" fill="#95D6A4"/>
<path d="M255.878 95.9026C254.286 90.7657 249.92 85.9849 244.596 82.7949C238.527 91.0487 235.06 101.198 234.817 111.548C234.801 112.208 235.328 112.754 235.988 112.754H256.282C255.561 104.592 257.504 101.151 255.878 95.9026V95.9026Z" fill="#B3E59F"/>
<path d="M335.12 161.061C335.779 161.061 336.307 161.605 336.291 162.265C335.999 174.83 331.14 186.266 323.31 194.977C314.019 205.314 300.544 207.425 285.552 207.425C279.507 207.425 273.71 210.758 268.334 208.819C260.792 206.1 254.079 201.645 248.678 195.936C245.653 192.738 247.428 189.147 245.31 185.247C241.593 178.403 235.427 170.608 234.843 162.32C234.795 161.64 235.33 161.061 236.011 161.061H335.12Z" fill="#9DC6FB"/>
<path d="M327.062 161.06C324.774 186.972 303.018 207.292 276.511 207.292C270.157 207.292 264.078 206.121 258.473 203.989C261.553 205.936 264.857 207.561 268.337 208.817C273.713 210.756 279.51 207.424 285.554 207.424C300.547 207.424 314.021 205.313 323.312 194.976C331.143 186.265 336.002 174.829 336.294 162.264C336.31 161.604 335.782 161.06 335.122 161.06H327.062Z" fill="#80B4FB"/>
<path d="M236.604 174.494C238.838 182.638 243.052 189.963 248.693 195.925C255.06 191.693 259.623 184.879 260.055 178.769C260.342 174.705 258.565 174.32 257.017 166.236C256.648 164.312 256.418 162.602 256.281 161.06H235.987C235.332 161.06 234.802 161.597 234.817 162.252C234.817 162.283 234.818 162.314 234.819 162.345C234.921 166.447 235.518 170.537 236.604 174.494V174.494Z" fill="#B3E59F"/>
<path d="M268.34 208.815C273.716 210.753 279.511 211.815 285.556 211.815C300.548 211.815 314.018 205.31 323.309 194.974C319.917 189.943 314.8 185.271 311.907 182.631C307.896 178.971 298.336 170.249 292.44 173.074C287.83 175.284 290.082 182.338 286.069 191.479C281.892 200.993 274.025 205.72 268.34 208.815V208.815Z" fill="#B3E59F"/>
<path d="M268.34 208.815C273.716 210.753 279.511 211.815 285.556 211.815C300.548 211.815 314.018 205.31 323.309 194.974C319.917 189.943 314.8 185.271 311.907 182.631C307.896 178.971 298.336 170.249 292.44 173.074C287.83 175.284 290.082 182.338 286.069 191.479C281.892 200.993 274.025 205.72 268.34 208.815V208.815Z" fill="#B3E59F"/>
<path d="M316.853 187.331C306.768 200.761 289.322 208.897 271.458 207.042C271.457 207.042 271.456 207.043 271.455 207.043C270.375 207.689 269.393 208.24 268.34 208.813C268.371 208.825 268.404 208.837 268.435 208.849C273.784 210.765 279.545 211.815 285.553 211.815C300.545 211.815 314.015 205.31 323.306 194.974C321.439 192.212 319.193 189.697 316.853 187.331V187.331Z" fill="#95D6A4"/>
</g>
<path d="M58.7734 149.414L58.9922 150.914L59.3125 149.562L61.5625 141.625H62.8281L65.0234 149.562L65.3359 150.938L65.5781 149.406L67.3438 141.625H68.8516L66.0938 153H64.7266L62.3828 144.711L62.2031 143.844L62.0234 144.711L59.5938 153H58.2266L55.4766 141.625H56.9766L58.7734 149.414ZM86.7009 150.031H81.9353L80.865 153H79.3181L83.6619 141.625H84.9744L89.3259 153H87.7869L86.7009 150.031ZM82.3884 148.797H86.2556L84.3181 143.477L82.3884 148.797ZM104.449 147.93C103.162 147.56 102.225 147.107 101.636 146.57C101.053 146.029 100.761 145.362 100.761 144.57C100.761 143.674 101.118 142.935 101.832 142.352C102.55 141.763 103.483 141.469 104.628 141.469C105.41 141.469 106.105 141.62 106.714 141.922C107.329 142.224 107.803 142.641 108.136 143.172C108.475 143.703 108.644 144.284 108.644 144.914H107.136C107.136 144.227 106.917 143.688 106.48 143.297C106.042 142.901 105.425 142.703 104.628 142.703C103.889 142.703 103.311 142.867 102.894 143.195C102.483 143.518 102.277 143.969 102.277 144.547C102.277 145.01 102.472 145.404 102.863 145.727C103.259 146.044 103.928 146.336 104.871 146.602C105.819 146.867 106.558 147.161 107.089 147.484C107.626 147.802 108.022 148.174 108.277 148.602C108.537 149.029 108.667 149.531 108.667 150.109C108.667 151.031 108.308 151.771 107.589 152.328C106.871 152.88 105.91 153.156 104.707 153.156C103.925 153.156 103.196 153.008 102.519 152.711C101.842 152.409 101.319 151.997 100.949 151.477C100.584 150.956 100.402 150.365 100.402 149.703H101.91C101.91 150.391 102.162 150.935 102.667 151.336C103.178 151.732 103.858 151.93 104.707 151.93C105.498 151.93 106.105 151.768 106.527 151.445C106.949 151.122 107.16 150.682 107.16 150.125C107.16 149.568 106.964 149.138 106.574 148.836C106.183 148.529 105.475 148.227 104.449 147.93ZM128.697 142.859H125.04V153H123.548V142.859H119.9V141.625H128.697V142.859ZM147.054 147.742H142.124V151.773H147.851V153H140.624V141.625H147.772V142.859H142.124V146.516H147.054V147.742ZM58.2578 163.625L61.9766 172.906L65.6953 163.625H67.6406V175H66.1406V170.57L66.2812 165.789L62.5469 175H61.3984L57.6719 165.812L57.8203 170.57V175H56.3203V163.625H58.2578ZM86.9509 172.031H82.1853L81.115 175H79.5681L83.9119 163.625H85.2244L89.5759 175H88.0369L86.9509 172.031ZM82.6384 170.797H86.5056L84.5681 165.477L82.6384 170.797ZM110.089 175H108.582L102.855 166.234V175H101.347V163.625H102.855L108.597 172.43V163.625H110.089V175ZM129.415 172.031H124.65L123.579 175H122.033L126.376 163.625H127.689L132.04 175H130.501L129.415 172.031ZM125.103 170.797H128.97L127.033 165.477L125.103 170.797ZM152.116 173.508C151.731 174.06 151.192 174.474 150.499 174.75C149.812 175.021 149.009 175.156 148.093 175.156C147.166 175.156 146.343 174.94 145.624 174.508C144.905 174.07 144.348 173.451 143.952 172.648C143.562 171.846 143.361 170.917 143.351 169.859V168.867C143.351 167.154 143.749 165.826 144.546 164.883C145.348 163.94 146.473 163.469 147.921 163.469C149.108 163.469 150.064 163.773 150.788 164.383C151.512 164.987 151.955 165.846 152.116 166.961H150.616C150.335 165.456 149.439 164.703 147.929 164.703C146.924 164.703 146.161 165.057 145.64 165.766C145.124 166.469 144.864 167.49 144.858 168.828V169.758C144.858 171.034 145.15 172.049 145.733 172.805C146.317 173.555 147.106 173.93 148.101 173.93C148.663 173.93 149.155 173.867 149.577 173.742C149.999 173.617 150.348 173.406 150.624 173.109V170.555H147.991V169.336H152.116V173.508ZM171.294 169.742H166.364V173.773H172.091V175H164.864V163.625H172.012V164.859H166.364V168.516H171.294V169.742ZM58.2578 185.625L61.9766 194.906L65.6953 185.625H67.6406V197H66.1406V192.57L66.2812 187.789L62.5469 197H61.3984L57.6719 187.812L57.8203 192.57V197H56.3203V185.625H58.2578ZM86.9587 191.742H82.0291V195.773H87.7556V197H80.5291V185.625H87.6775V186.859H82.0291V190.516H86.9587V191.742ZM108.605 197H107.097L101.371 188.234V197H99.8628V185.625H101.371L107.113 194.43V185.625H108.605V197ZM129.134 186.859H125.478V197H123.986V186.859H120.337V185.625H129.134V186.859Z" fill="#ECECEC"/>
<path d="M64.5781 110.523H61.0938V120H58.75V110.523H55.3125V108.625H64.5781V110.523ZM70.1328 115.836H68.2656V120H65.9219V108.625H70.1484C71.4922 108.625 72.5286 108.924 73.2578 109.523C73.987 110.122 74.3516 110.969 74.3516 112.062C74.3516 112.839 74.1823 113.487 73.8438 114.008C73.5104 114.523 73.0026 114.935 72.3203 115.242L74.7812 119.891V120H72.2656L70.1328 115.836ZM68.2656 113.938H70.1562C70.7448 113.938 71.2005 113.789 71.5234 113.492C71.8464 113.19 72.0078 112.776 72.0078 112.25C72.0078 111.714 71.8542 111.292 71.5469 110.984C71.2448 110.677 70.7786 110.523 70.1484 110.523H68.2656V113.938ZM82.5625 117.656H78.4531L77.6719 120H75.1797L79.4141 108.625H81.5859L85.8438 120H83.3516L82.5625 117.656ZM79.0859 115.758H81.9297L80.5 111.5L79.0859 115.758ZM92.8047 117.016C92.8047 116.573 92.6484 116.234 92.3359 116C92.0234 115.76 91.4609 115.51 90.6484 115.25C89.8359 114.984 89.1927 114.724 88.7188 114.469C87.4271 113.771 86.7812 112.831 86.7812 111.648C86.7812 111.034 86.9531 110.487 87.2969 110.008C87.6458 109.523 88.1432 109.146 88.7891 108.875C89.4401 108.604 90.1693 108.469 90.9766 108.469C91.7891 108.469 92.513 108.617 93.1484 108.914C93.7839 109.206 94.276 109.62 94.625 110.156C94.9792 110.693 95.1562 111.302 95.1562 111.984H92.8125C92.8125 111.464 92.6484 111.06 92.3203 110.773C91.9922 110.482 91.5312 110.336 90.9375 110.336C90.3646 110.336 89.9193 110.458 89.6016 110.703C89.2839 110.943 89.125 111.26 89.125 111.656C89.125 112.026 89.3099 112.336 89.6797 112.586C90.0547 112.836 90.6042 113.07 91.3281 113.289C92.6615 113.69 93.6328 114.188 94.2422 114.781C94.8516 115.375 95.1562 116.115 95.1562 117C95.1562 117.984 94.7839 118.758 94.0391 119.32C93.2943 119.878 92.2917 120.156 91.0312 120.156C90.1562 120.156 89.3594 119.997 88.6406 119.68C87.9219 119.357 87.3724 118.917 86.9922 118.359C86.6172 117.802 86.4297 117.156 86.4297 116.422H88.7812C88.7812 117.677 89.5312 118.305 91.0312 118.305C91.5885 118.305 92.0234 118.193 92.3359 117.969C92.6484 117.74 92.8047 117.422 92.8047 117.016ZM106.008 120H103.664V115.125H99.0938V120H96.75V108.625H99.0938V113.234H103.664V108.625H106.008V120ZM116.391 110.523H112.906V120H110.562V110.523H107.125V108.625H116.391V110.523ZM123.219 117.656H119.109L118.328 120H115.836L120.07 108.625H122.242L126.5 120H124.008L123.219 117.656ZM119.742 115.758H122.586L121.156 111.5L119.742 115.758ZM129.906 118.117H134.883V120H127.562V108.625H129.906V118.117ZM139.797 115.438L138.578 116.75V120H136.234V108.625H138.578V113.781L139.609 112.367L142.508 108.625H145.391L141.352 113.68L145.508 120H142.719L139.797 115.438Z" fill="#ECECEC"/>
<path d="M59.3125 75.5078H58.2031V87.9062H59.3125V89.6484H55.9375V73.7656H59.3125V75.5078ZM65.2188 87C65.1146 86.7969 65.0391 86.5443 64.9922 86.2422C64.4453 86.8516 63.7344 87.1562 62.8594 87.1562C62.0312 87.1562 61.3438 86.9167 60.7969 86.4375C60.2552 85.9583 59.9844 85.3542 59.9844 84.625C59.9844 83.7292 60.3151 83.0417 60.9766 82.5625C61.6432 82.0833 62.6042 81.8411 63.8594 81.8359H64.8984V81.3516C64.8984 80.9609 64.7969 80.6484 64.5938 80.4141C64.3958 80.1797 64.0807 80.0625 63.6484 80.0625C63.2682 80.0625 62.9688 80.1536 62.75 80.3359C62.5365 80.5182 62.4297 80.7682 62.4297 81.0859H60.1719C60.1719 80.5964 60.3229 80.1432 60.625 79.7266C60.9271 79.3099 61.3542 78.9844 61.9062 78.75C62.4583 78.5104 63.0781 78.3906 63.7656 78.3906C64.8073 78.3906 65.6328 78.6536 66.2422 79.1797C66.8568 79.7005 67.1641 80.4349 67.1641 81.3828V85.0469C67.1693 85.849 67.2812 86.4557 67.5 86.8672V87H65.2188ZM63.3516 85.4297C63.6849 85.4297 63.9922 85.3568 64.2734 85.2109C64.5547 85.0599 64.763 84.8594 64.8984 84.6094V83.1562H64.0547C62.9245 83.1562 62.3229 83.5469 62.25 84.3281L62.2422 84.4609C62.2422 84.7422 62.3411 84.974 62.5391 85.1562C62.737 85.3385 63.0078 85.4297 63.3516 85.4297ZM76.5078 82.8516C76.5078 84.1536 76.2109 85.1979 75.6172 85.9844C75.0286 86.7656 74.2318 87.1562 73.2266 87.1562C72.3724 87.1562 71.6823 86.8594 71.1562 86.2656V90.25H68.8984V78.5469H70.9922L71.0703 79.375C71.6172 78.7188 72.3307 78.3906 73.2109 78.3906C74.2526 78.3906 75.0625 78.776 75.6406 79.5469C76.2188 80.3177 76.5078 81.3802 76.5078 82.7344V82.8516ZM74.25 82.6875C74.25 81.901 74.1094 81.2943 73.8281 80.8672C73.5521 80.4401 73.1484 80.2266 72.6172 80.2266C71.9089 80.2266 71.4219 80.4974 71.1562 81.0391V84.5C71.4323 85.0573 71.9245 85.3359 72.6328 85.3359C73.7109 85.3359 74.25 84.4531 74.25 82.6875ZM85.5234 82.8516C85.5234 84.1536 85.2266 85.1979 84.6328 85.9844C84.0443 86.7656 83.2474 87.1562 82.2422 87.1562C81.388 87.1562 80.6979 86.8594 80.1719 86.2656V90.25H77.9141V78.5469H80.0078L80.0859 79.375C80.6328 78.7188 81.3464 78.3906 82.2266 78.3906C83.2682 78.3906 84.0781 78.776 84.6562 79.5469C85.2344 80.3177 85.5234 81.3802 85.5234 82.7344V82.8516ZM83.2656 82.6875C83.2656 81.901 83.125 81.2943 82.8438 80.8672C82.5677 80.4401 82.1641 80.2266 81.6328 80.2266C80.9245 80.2266 80.4375 80.4974 80.1719 81.0391V84.5C80.4479 85.0573 80.9401 85.3359 81.6484 85.3359C82.7266 85.3359 83.2656 84.4531 83.2656 82.6875ZM86.1641 73.7656H89.5391V89.6484H86.1641V87.9062H87.2812V75.5078H86.1641V73.7656Z" fill="#ECECEC"/>
</g>
</g>
<defs>
<filter id="filter0_d" x="0" y="0" width="308" height="282" filterUnits="userSpaceOnUse" color-interpolation-filters="sRGB">
<feFlood flood-opacity="0" result="BackgroundImageFix"/>
<feColorMatrix in="SourceAlpha" type="matrix" values="0 0 0 0 0 0 0 0 0 0 0 0 0 0 0 0 0 0 127 0"/>
<feOffset dy="4"/>
<feGaussianBlur stdDeviation="2"/>
<feColorMatrix type="matrix" values="0 0 0 0 0.258333 0 0 0 0 0.258333 0 0 0 0 0.258333 0 0 0 0.25 0"/>
<feBlend mode="normal" in2="BackgroundImageFix" result="effect1_dropShadow"/>
<feBlend mode="normal" in="SourceGraphic" in2="effect1_dropShadow" result="shape"/>
</filter>
<clipPath id="clip0">
<rect x="4" width="300" height="274" rx="10" fill="white"/>
</clipPath>
</defs>
</svg>
