<svg width="304" height="278" viewBox="0 0 304 278" fill="none" xmlns="http://www.w3.org/2000/svg">
<g filter="url(#filter0_d)">
<g clip-path="url(#clip0)">
<rect x="4" width="296" height="270" rx="5" fill="white"/>
<path d="M86.3806 134.492V136.547H87.8728V137.953H86.3806V142.672C86.3806 142.995 86.4431 143.229 86.5681 143.375C86.6983 143.516 86.9275 143.586 87.2556 143.586C87.4744 143.586 87.6957 143.56 87.9197 143.508V144.977C87.4874 145.096 87.0707 145.156 86.6697 145.156C85.2114 145.156 84.4822 144.352 84.4822 142.742V137.953H83.0916V136.547H84.4822V134.492H86.3806ZM94.7325 145.156C93.5294 145.156 92.5528 144.779 91.8028 144.023C91.058 143.263 90.6856 142.253 90.6856 140.992V140.758C90.6856 139.914 90.8471 139.161 91.17 138.5C91.4981 137.833 91.9565 137.315 92.545 136.945C93.1335 136.576 93.7898 136.391 94.5137 136.391C95.6648 136.391 96.5528 136.758 97.1778 137.492C97.808 138.227 98.1231 139.266 98.1231 140.609V141.375H92.5997C92.657 142.073 92.8887 142.625 93.295 143.031C93.7065 143.438 94.2221 143.641 94.8419 143.641C95.7117 143.641 96.42 143.289 96.9669 142.586L97.9903 143.562C97.6518 144.068 97.1986 144.461 96.6309 144.742C96.0684 145.018 95.4356 145.156 94.7325 145.156ZM94.5059 137.914C93.9851 137.914 93.5632 138.096 93.2403 138.461C92.9226 138.826 92.7195 139.333 92.6309 139.984H96.2481V139.844C96.2065 139.208 96.0372 138.729 95.7403 138.406C95.4434 138.078 95.032 137.914 94.5059 137.914ZM106.334 145C106.251 144.839 106.178 144.576 106.116 144.211C105.511 144.841 104.772 145.156 103.897 145.156C103.048 145.156 102.355 144.914 101.819 144.43C101.282 143.945 101.014 143.346 101.014 142.633C101.014 141.732 101.347 141.042 102.014 140.562C102.686 140.078 103.644 139.836 104.889 139.836H106.053V139.281C106.053 138.844 105.931 138.495 105.686 138.234C105.441 137.969 105.069 137.836 104.569 137.836C104.136 137.836 103.782 137.945 103.506 138.164C103.23 138.378 103.092 138.651 103.092 138.984H101.194C101.194 138.521 101.347 138.089 101.655 137.688C101.962 137.281 102.379 136.964 102.905 136.734C103.436 136.505 104.027 136.391 104.678 136.391C105.668 136.391 106.457 136.641 107.045 137.141C107.634 137.635 107.936 138.333 107.952 139.234V143.047C107.952 143.807 108.058 144.414 108.272 144.867V145H106.334ZM104.248 143.633C104.623 143.633 104.975 143.542 105.303 143.359C105.636 143.177 105.886 142.932 106.053 142.625V141.031H105.03C104.327 141.031 103.798 141.154 103.444 141.398C103.09 141.643 102.912 141.99 102.912 142.438C102.912 142.802 103.032 143.094 103.272 143.312C103.517 143.526 103.842 143.633 104.248 143.633ZM115.092 143.641C115.566 143.641 115.96 143.503 116.272 143.227C116.585 142.951 116.751 142.609 116.772 142.203H118.561C118.54 142.729 118.376 143.221 118.069 143.68C117.762 144.133 117.345 144.492 116.819 144.758C116.293 145.023 115.725 145.156 115.116 145.156C113.934 145.156 112.996 144.773 112.303 144.008C111.611 143.242 111.264 142.185 111.264 140.836V140.641C111.264 139.354 111.608 138.326 112.296 137.555C112.983 136.779 113.921 136.391 115.108 136.391C116.113 136.391 116.931 136.685 117.561 137.273C118.197 137.857 118.53 138.625 118.561 139.578H116.772C116.751 139.094 116.585 138.695 116.272 138.383C115.965 138.07 115.572 137.914 115.092 137.914C114.478 137.914 114.004 138.138 113.671 138.586C113.337 139.029 113.168 139.703 113.163 140.609V140.914C113.163 141.831 113.327 142.516 113.655 142.969C113.988 143.417 114.467 143.641 115.092 143.641ZM123.546 137.469C124.166 136.75 124.95 136.391 125.897 136.391C127.7 136.391 128.614 137.419 128.64 139.477V145H126.741V139.547C126.741 138.964 126.614 138.552 126.358 138.312C126.108 138.068 125.739 137.945 125.249 137.945C124.489 137.945 123.921 138.284 123.546 138.961V145H121.647V133H123.546V137.469ZM134.265 145H132.367V136.547H134.265V145ZM132.249 134.352C132.249 134.06 132.341 133.818 132.523 133.625C132.71 133.432 132.976 133.336 133.32 133.336C133.663 133.336 133.929 133.432 134.117 133.625C134.304 133.818 134.398 134.06 134.398 134.352C134.398 134.638 134.304 134.878 134.117 135.07C133.929 135.258 133.663 135.352 133.32 135.352C132.976 135.352 132.71 135.258 132.523 135.07C132.341 134.878 132.249 134.638 132.249 134.352ZM139.781 136.547L139.836 137.523C140.461 136.768 141.281 136.391 142.297 136.391C144.057 136.391 144.953 137.398 144.984 139.414V145H143.086V139.523C143.086 138.987 142.968 138.591 142.734 138.336C142.505 138.076 142.127 137.945 141.601 137.945C140.836 137.945 140.265 138.292 139.89 138.984V145H137.992V136.547H139.781ZM148.273 140.711C148.273 139.398 148.581 138.352 149.195 137.57C149.815 136.784 150.635 136.391 151.656 136.391C152.62 136.391 153.378 136.727 153.93 137.398L154.016 136.547H155.727V144.742C155.727 145.852 155.38 146.727 154.688 147.367C154 148.008 153.07 148.328 151.898 148.328C151.279 148.328 150.672 148.198 150.078 147.938C149.49 147.682 149.042 147.346 148.734 146.93L149.633 145.789C150.216 146.482 150.935 146.828 151.789 146.828C152.419 146.828 152.917 146.656 153.281 146.312C153.646 145.974 153.828 145.474 153.828 144.812V144.242C153.281 144.852 152.552 145.156 151.641 145.156C150.651 145.156 149.841 144.763 149.211 143.977C148.586 143.19 148.273 142.102 148.273 140.711ZM150.164 140.875C150.164 141.724 150.336 142.393 150.68 142.883C151.029 143.367 151.51 143.609 152.125 143.609C152.891 143.609 153.458 143.281 153.828 142.625V138.906C153.469 138.266 152.906 137.945 152.141 137.945C151.516 137.945 151.029 138.193 150.68 138.688C150.336 139.182 150.164 139.911 150.164 140.875ZM166.813 136.547L166.868 137.43C167.462 136.737 168.274 136.391 169.305 136.391C170.436 136.391 171.209 136.823 171.626 137.688C172.24 136.823 173.105 136.391 174.219 136.391C175.152 136.391 175.844 136.648 176.298 137.164C176.756 137.68 176.99 138.44 177.001 139.445V145H175.102V139.5C175.102 138.964 174.985 138.57 174.751 138.32C174.516 138.07 174.128 137.945 173.587 137.945C173.154 137.945 172.8 138.062 172.524 138.297C172.253 138.526 172.063 138.828 171.954 139.203L171.962 145H170.063V139.438C170.037 138.443 169.529 137.945 168.54 137.945C167.779 137.945 167.24 138.255 166.923 138.875V145H165.024V136.547H166.813ZM183.587 142.281L185.306 136.547H187.329L183.97 146.281C183.454 147.703 182.579 148.414 181.345 148.414C181.069 148.414 180.764 148.367 180.431 148.273V146.805L180.79 146.828C181.269 146.828 181.629 146.74 181.868 146.562C182.113 146.391 182.306 146.099 182.446 145.688L182.72 144.961L179.751 136.547H181.798L183.587 142.281ZM194.845 142.703C194.845 142.365 194.704 142.107 194.423 141.93C194.147 141.753 193.686 141.596 193.04 141.461C192.394 141.326 191.855 141.154 191.423 140.945C190.475 140.487 190.001 139.823 190.001 138.953C190.001 138.224 190.309 137.615 190.923 137.125C191.538 136.635 192.319 136.391 193.267 136.391C194.277 136.391 195.092 136.641 195.712 137.141C196.337 137.641 196.65 138.289 196.65 139.086H194.751C194.751 138.721 194.616 138.419 194.345 138.18C194.074 137.935 193.715 137.812 193.267 137.812C192.85 137.812 192.509 137.909 192.243 138.102C191.983 138.294 191.853 138.552 191.853 138.875C191.853 139.167 191.975 139.393 192.22 139.555C192.465 139.716 192.96 139.88 193.704 140.047C194.449 140.208 195.032 140.404 195.454 140.633C195.881 140.857 196.197 141.128 196.4 141.445C196.608 141.763 196.712 142.148 196.712 142.602C196.712 143.362 196.397 143.979 195.767 144.453C195.137 144.922 194.311 145.156 193.29 145.156C192.598 145.156 191.98 145.031 191.439 144.781C190.897 144.531 190.475 144.188 190.173 143.75C189.871 143.312 189.72 142.841 189.72 142.336H191.564C191.59 142.784 191.759 143.13 192.072 143.375C192.384 143.615 192.798 143.734 193.314 143.734C193.814 143.734 194.194 143.641 194.454 143.453C194.715 143.26 194.845 143.01 194.845 142.703ZM203.775 145.156C202.572 145.156 201.595 144.779 200.845 144.023C200.101 143.263 199.728 142.253 199.728 140.992V140.758C199.728 139.914 199.89 139.161 200.212 138.5C200.541 137.833 200.999 137.315 201.587 136.945C202.176 136.576 202.832 136.391 203.556 136.391C204.707 136.391 205.595 136.758 206.22 137.492C206.851 138.227 207.166 139.266 207.166 140.609V141.375H201.642C201.699 142.073 201.931 142.625 202.337 143.031C202.749 143.438 203.265 143.641 203.884 143.641C204.754 143.641 205.462 143.289 206.009 142.586L207.033 143.562C206.694 144.068 206.241 144.461 205.673 144.742C205.111 145.018 204.478 145.156 203.775 145.156ZM203.548 137.914C203.028 137.914 202.606 138.096 202.283 138.461C201.965 138.826 201.762 139.333 201.673 139.984H205.291V139.844C205.249 139.208 205.08 138.729 204.783 138.406C204.486 138.078 204.074 137.914 203.548 137.914ZM212.346 145H210.447V133H212.346V145ZM216.768 145V137.953H215.479V136.547H216.768V135.773C216.768 134.836 217.028 134.112 217.549 133.602C218.07 133.091 218.799 132.836 219.737 132.836C220.07 132.836 220.424 132.883 220.799 132.977L220.752 134.461C220.544 134.419 220.302 134.398 220.026 134.398C219.119 134.398 218.666 134.865 218.666 135.797V136.547H220.385V137.953H218.666V145H216.768Z" fill="#424242"/>
<path d="M114.453 112.737H113.247V116H111.019V106.758H114.656C115.753 106.758 116.609 107.001 117.227 107.488C117.845 107.974 118.154 108.662 118.154 109.551C118.154 110.194 118.023 110.727 117.76 111.15C117.502 111.574 117.096 111.916 116.542 112.179L118.471 115.905V116H116.085L114.453 112.737ZM113.247 111.017H114.656C115.08 111.017 115.397 110.907 115.609 110.687C115.824 110.463 115.932 110.152 115.932 109.754C115.932 109.356 115.824 109.045 115.609 108.821C115.393 108.592 115.075 108.478 114.656 108.478H113.247V111.017ZM126.077 112.083H122.573V114.286H126.711V116H120.345V106.758H126.724V108.478H122.573V110.427H126.077V112.083ZM134.285 112.318H130.692V116H128.464V106.758H134.647V108.478H130.692V110.604H134.285V112.318ZM138.647 114.286H142.525V116H136.419V106.758H138.647V114.286ZM150.041 112.083H146.537V114.286H150.676V116H144.309V106.758H150.689V108.478H146.537V110.427H150.041V112.083ZM159.906 112.871C159.877 113.514 159.703 114.083 159.386 114.578C159.068 115.069 158.622 115.45 158.047 115.721C157.475 115.992 156.821 116.127 156.085 116.127C154.871 116.127 153.914 115.731 153.216 114.94C152.518 114.149 152.169 113.031 152.169 111.588V111.131C152.169 110.226 152.325 109.434 152.638 108.757C152.956 108.076 153.411 107.551 154.003 107.183C154.596 106.811 155.281 106.625 156.06 106.625C157.181 106.625 158.082 106.921 158.764 107.513C159.445 108.101 159.832 108.914 159.925 109.951H157.704C157.687 109.388 157.545 108.984 157.278 108.738C157.012 108.493 156.606 108.37 156.06 108.37C155.505 108.37 155.099 108.577 154.841 108.992C154.583 109.407 154.447 110.069 154.435 110.979V111.633C154.435 112.619 154.557 113.323 154.803 113.747C155.053 114.17 155.48 114.381 156.085 114.381C156.597 114.381 156.989 114.261 157.259 114.02C157.53 113.778 157.674 113.395 157.691 112.871H159.906ZM168.87 108.478H166.096V116H163.868V108.478H161.145V106.758H168.87V108.478ZM173.035 116H170.813V106.758H173.035V116ZM183.255 111.569C183.255 112.471 183.088 113.268 182.754 113.962C182.42 114.656 181.944 115.192 181.326 115.568C180.712 115.941 180.012 116.127 179.225 116.127C178.437 116.127 177.739 115.947 177.13 115.587C176.52 115.223 176.044 114.705 175.702 114.032C175.363 113.359 175.185 112.587 175.168 111.715V111.195C175.168 110.289 175.333 109.492 175.664 108.802C175.998 108.108 176.474 107.572 177.092 107.196C177.714 106.819 178.421 106.631 179.212 106.631C179.995 106.631 180.693 106.817 181.307 107.189C181.92 107.562 182.396 108.093 182.735 108.783C183.078 109.468 183.251 110.255 183.255 111.144V111.569ZM180.989 111.182C180.989 110.264 180.835 109.568 180.526 109.094C180.221 108.616 179.783 108.376 179.212 108.376C178.095 108.376 177.504 109.214 177.441 110.89L177.435 111.569C177.435 112.475 177.585 113.171 177.885 113.658C178.186 114.144 178.632 114.388 179.225 114.388C179.787 114.388 180.221 114.149 180.526 113.67C180.831 113.192 180.985 112.505 180.989 111.607V111.182ZM192.968 116H190.753L187.477 110.249V116H185.249V106.758H187.477L190.746 112.509V106.758H192.968V116Z" fill="#424242"/>
<path d="M136.45 178H134.235V172.313H128.513V178H126.29V165.203H128.513V170.529H134.235V165.203H136.45V178ZM155.779 171.936C155.779 173.189 155.562 174.291 155.129 175.24C154.695 176.184 154.074 176.91 153.266 177.42C152.463 177.924 151.537 178.176 150.488 178.176C149.451 178.176 148.525 177.924 147.711 177.42C146.902 176.91 146.275 176.187 145.83 175.249C145.391 174.312 145.168 173.23 145.162 172.006V171.285C145.162 170.037 145.382 168.936 145.821 167.98C146.267 167.025 146.891 166.296 147.693 165.792C148.502 165.282 149.428 165.027 150.471 165.027C151.514 165.027 152.437 165.279 153.239 165.783C154.048 166.281 154.672 167.002 155.111 167.945C155.551 168.883 155.773 169.976 155.779 171.224V171.936ZM153.556 171.268C153.556 169.85 153.286 168.763 152.747 168.007C152.214 167.251 151.455 166.873 150.471 166.873C149.51 166.873 148.757 167.251 148.212 168.007C147.673 168.757 147.397 169.82 147.386 171.197V171.936C147.386 173.342 147.658 174.429 148.203 175.196C148.754 175.964 149.516 176.348 150.488 176.348C151.473 176.348 152.229 175.973 152.756 175.223C153.289 174.473 153.556 173.377 153.556 171.936V171.268ZM174.511 174.836L176.48 165.203H178.686L175.733 178H173.606L171.171 168.657L168.684 178H166.548L163.595 165.203H165.801L167.788 174.818L170.231 165.203H172.094L174.511 174.836ZM106.246 192.996H102.255V204H100.049V192.996H96.0942V191.203H106.246V192.996ZM124.38 197.936C124.38 199.189 124.163 200.291 123.729 201.24C123.296 202.184 122.675 202.91 121.866 203.42C121.063 203.924 120.138 204.176 119.089 204.176C118.052 204.176 117.126 203.924 116.311 203.42C115.503 202.91 114.876 202.187 114.431 201.249C113.991 200.312 113.769 199.23 113.763 198.006V197.285C113.763 196.037 113.982 194.936 114.422 193.98C114.867 193.025 115.491 192.296 116.294 191.792C117.103 191.282 118.028 191.027 119.071 191.027C120.114 191.027 121.037 191.279 121.84 191.783C122.648 192.281 123.272 193.002 123.712 193.945C124.151 194.883 124.374 195.976 124.38 197.224V197.936ZM122.156 197.268C122.156 195.85 121.887 194.763 121.348 194.007C120.814 193.251 120.056 192.873 119.071 192.873C118.11 192.873 117.357 193.251 116.812 194.007C116.273 194.757 115.998 195.82 115.986 197.197V197.936C115.986 199.342 116.259 200.429 116.804 201.196C117.354 201.964 118.116 202.348 119.089 202.348C120.073 202.348 120.829 201.973 121.356 201.223C121.89 200.473 122.156 199.377 122.156 197.936V197.268ZM153.802 199.834C153.673 201.199 153.169 202.266 152.29 203.033C151.411 203.795 150.242 204.176 148.783 204.176C147.764 204.176 146.864 203.936 146.085 203.455C145.312 202.969 144.714 202.28 144.292 201.39C143.87 200.499 143.65 199.465 143.633 198.287V197.092C143.633 195.885 143.847 194.821 144.274 193.901C144.702 192.981 145.314 192.272 146.111 191.774C146.914 191.276 147.84 191.027 148.889 191.027C150.301 191.027 151.438 191.411 152.299 192.179C153.16 192.946 153.661 194.03 153.802 195.431H151.587C151.481 194.511 151.212 193.849 150.778 193.444C150.351 193.034 149.721 192.829 148.889 192.829C147.922 192.829 147.178 193.184 146.656 193.893C146.141 194.596 145.877 195.63 145.865 196.995V198.129C145.865 199.512 146.111 200.566 146.604 201.293C147.102 202.02 147.828 202.383 148.783 202.383C149.656 202.383 150.312 202.187 150.752 201.794C151.191 201.401 151.47 200.748 151.587 199.834H153.802ZM172.49 197.936C172.49 199.189 172.273 200.291 171.839 201.24C171.406 202.184 170.785 202.91 169.976 203.42C169.173 203.924 168.248 204.176 167.199 204.176C166.162 204.176 165.236 203.924 164.421 203.42C163.613 202.91 162.986 202.187 162.541 201.249C162.101 200.312 161.878 199.23 161.873 198.006V197.285C161.873 196.037 162.092 194.936 162.532 193.98C162.977 193.025 163.601 192.296 164.404 191.792C165.212 191.282 166.138 191.027 167.181 191.027C168.224 191.027 169.147 191.279 169.95 191.783C170.758 192.281 171.382 193.002 171.822 193.945C172.261 194.883 172.484 195.976 172.49 197.224V197.936ZM170.266 197.268C170.266 195.85 169.997 194.763 169.458 194.007C168.924 193.251 168.166 192.873 167.181 192.873C166.22 192.873 165.467 193.251 164.922 194.007C164.383 194.757 164.108 195.82 164.096 197.197V197.936C164.096 199.342 164.369 200.429 164.914 201.196C165.464 201.964 166.226 202.348 167.199 202.348C168.183 202.348 168.939 201.973 169.466 201.223C170 200.473 170.266 199.377 170.266 197.936V197.268ZM181.185 204V191.203H184.964C186.095 191.203 187.097 191.455 187.97 191.959C188.849 192.463 189.528 193.178 190.009 194.104C190.489 195.029 190.73 196.09 190.73 197.285V197.927C190.73 199.14 190.486 200.206 190 201.126C189.52 202.046 188.831 202.755 187.935 203.253C187.044 203.751 186.022 204 184.867 204H181.185ZM183.408 192.996V202.225H184.858C186.024 202.225 186.918 201.861 187.539 201.135C188.166 200.402 188.485 199.354 188.497 197.988V197.276C188.497 195.888 188.195 194.827 187.592 194.095C186.988 193.362 186.112 192.996 184.964 192.996H183.408ZM206.904 198.287H201.648V202.225H207.792V204H199.424V191.203H207.73V192.996H201.648V196.529H206.904V198.287Z" fill="#424242"/>
<path d="M160.083 71.9762V67.1441C160.096 64.9577 159.222 62.8553 157.663 61.3223C156.156 59.8215 154.183 59 152.094 59C152.061 59 152.023 59 151.99 59C147.533 59.0065 143.911 62.6548 143.911 67.1441V71.9762C142.229 72.1767 141 73.5869 141 75.2946V86.1491C141 87.9927 142.475 89.5128 144.318 89.5128H159.682C161.525 89.5128 163 87.9927 163 86.1491V75.2946C162.994 73.5934 161.764 72.1767 160.083 71.9762ZM145.198 67.1441H145.205C145.205 63.3664 148.251 60.2743 151.997 60.2743H152.003C153.782 60.2679 155.49 60.9729 156.751 62.2279C158.064 63.5281 158.795 65.3005 158.782 67.1441V71.9827H157.359V67.1441C157.372 65.6757 156.79 64.2655 155.749 63.2305C154.765 62.2473 153.433 61.691 152.042 61.691H152.003C149.028 61.691 146.621 64.1361 146.621 67.1376V71.9827H145.198V67.1441ZM156.072 67.1441V71.9827H147.921V67.1441C147.921 64.8542 149.746 62.9912 152.01 62.9912H152.049C153.096 62.9912 154.106 63.4116 154.849 64.1555C155.639 64.9447 156.085 66.025 156.072 67.1441ZM161.764 86.1685C161.764 87.3005 160.846 88.2191 159.714 88.2191H144.344C143.212 88.2191 142.294 87.3005 142.294 86.1685V75.327C142.294 74.1949 143.212 73.2764 144.344 73.2764H159.714C160.846 73.2764 161.764 74.1949 161.764 75.327V86.1685Z" fill="black"/>
<path d="M154.237 80.3465C153.953 79.3439 153.041 78.6582 151.999 78.6582C150.712 78.6582 149.664 79.6997 149.664 80.9934C149.664 82.0349 150.35 82.9469 151.352 83.2316V85.0428C151.352 85.3986 151.643 85.6897 151.999 85.6897C152.355 85.6897 152.646 85.3986 152.646 85.0428V83.2316C153.882 82.8758 154.6 81.582 154.237 80.3465ZM151.999 82.0284C151.424 82.0284 150.958 81.5626 150.958 80.9869C150.958 80.4112 151.424 79.9455 151.999 79.9455C152.575 79.9455 153.041 80.4112 153.041 80.9869C153.041 81.5626 152.575 82.0284 151.999 82.0284Z" fill="black"/>
</g>
</g>
<defs>
<filter id="filter0_d" x="0" y="0" width="304" height="278" filterUnits="userSpaceOnUse" color-interpolation-filters="sRGB">
<feFlood flood-opacity="0" result="BackgroundImageFix"/>
<feColorMatrix in="SourceAlpha" type="matrix" values="0 0 0 0 0 0 0 0 0 0 0 0 0 0 0 0 0 0 127 0"/>
<feOffset dy="4"/>
<feGaussianBlur stdDeviation="2"/>
<feColorMatrix type="matrix" values="0 0 0 0 0 0 0 0 0 0 0 0 0 0 0 0 0 0 0.25 0"/>
<feBlend mode="normal" in2="BackgroundImageFix" result="effect1_dropShadow"/>
<feBlend mode="normal" in="SourceGraphic" in2="effect1_dropShadow" result="shape"/>
</filter>
<clipPath id="clip0">
<rect x="4" width="296" height="270" rx="5" fill="white"/>
</clipPath>
</defs>
</svg>
