<svg width="304" height="278" viewBox="0 0 304 278" fill="none" xmlns="http://www.w3.org/2000/svg">
<g filter="url(#filter0_d)">
<rect x="4" width="296" height="270" rx="5" fill="white"/>
<g clip-path="url(#clip0)">
<path d="M289.656 156.596H287.915C287.37 155.131 286.733 153.712 286.003 152.349L287.342 151.01C289.038 149.314 289.038 146.565 287.342 144.869L278.13 135.656C276.434 133.96 273.685 133.96 271.989 135.656L270.261 137.384C269.015 136.796 267.726 136.283 266.403 135.845V133.343C266.403 130.944 264.459 129 262.06 129H249.032C246.634 129 244.689 130.944 244.689 133.343V135.845C243.367 136.283 242.078 136.796 240.831 137.384L239.104 135.656C237.408 133.96 234.658 133.96 232.962 135.656L223.75 144.869C222.054 146.565 222.054 149.314 223.75 151.01L225.09 152.349C224.36 153.712 223.722 155.131 223.177 156.596H221.436C219.038 156.596 217.094 158.54 217.094 160.938V173.966C217.094 176.365 219.038 178.309 221.436 178.309H222.398C222.905 180.046 223.543 181.728 224.304 183.341L223.75 183.895C222.054 185.591 222.054 188.34 223.75 190.036L232.963 199.248C234.658 200.944 237.408 200.944 239.104 199.248L239.27 199.083C240.994 200.006 242.806 200.784 244.69 201.408V201.562C244.69 203.96 246.634 205.905 249.032 205.905H262.061C264.459 205.905 266.403 203.961 266.403 201.562V201.408C268.287 200.784 270.099 200.006 271.824 199.083L271.989 199.248C273.685 200.944 276.435 200.944 278.131 199.248L287.343 190.036C289.039 188.34 289.039 185.591 287.343 183.895L286.789 183.341C287.55 181.728 288.188 180.046 288.695 178.309H289.657C292.055 178.309 293.999 176.365 293.999 173.966V160.938C293.999 158.54 292.055 156.596 289.656 156.596V156.596ZM255.546 182.507C247.879 182.507 241.665 176.293 241.665 168.626C241.665 160.959 247.879 154.745 255.546 154.745C263.213 154.745 269.427 160.959 269.427 168.626C269.427 176.293 263.213 182.507 255.546 182.507Z" fill="url(#paint0_linear)"/>
<path d="M255.547 193.902C269.507 193.902 280.821 182.587 280.821 168.628C280.821 154.668 269.507 143.354 255.547 143.354C241.588 143.354 230.273 154.668 230.273 168.627C230.273 182.587 241.587 193.902 255.547 193.902ZM255.547 154.747C263.214 154.747 269.428 160.961 269.428 168.628C269.428 176.295 263.214 182.509 255.547 182.509C247.88 182.509 241.666 176.294 241.666 168.628C241.666 160.961 247.88 154.747 255.547 154.747Z" fill="url(#paint1_linear)"/>
<path d="M249.035 205.905H262.063C262.794 205.905 263.482 205.723 264.086 205.404L237.555 179.069C236.345 177.859 234.579 177.859 233.369 179.069L232.812 179.626L228.643 175.469C228.084 174.657 227.149 174.516 226.088 174.516C226.088 174.516 217.123 174.464 217.148 174.629C217.468 176.713 219.267 178.308 221.439 178.308H222.401C222.908 180.046 223.546 181.728 224.307 183.34L223.753 183.894C222.058 185.59 222.058 188.34 223.753 190.036L232.966 199.248C234.662 200.944 237.411 200.944 239.107 199.248L239.273 199.082C240.997 200.006 242.81 200.784 244.693 201.407V201.562C244.693 203.96 246.637 205.905 249.035 205.905V205.905Z" fill="url(#paint2_linear)"/>
<path d="M245.778 193.815H244.535C244.147 192.77 243.692 191.757 243.171 190.785L244.127 189.829C245.337 188.619 245.337 186.657 244.127 185.447L237.553 178.873C236.343 177.663 234.381 177.663 233.171 178.873L231.938 180.106C231.048 179.686 230.129 179.32 229.185 179.007V177.222C229.185 175.51 227.798 174.123 226.086 174.123H216.79C215.078 174.123 213.691 175.51 213.691 177.222V179.007C212.747 179.32 211.828 179.686 210.938 180.106L209.705 178.873C208.495 177.663 206.533 177.663 205.323 178.873L198.749 185.447C197.539 186.657 197.539 188.619 198.749 189.829L199.705 190.785C199.185 191.757 198.73 192.77 198.341 193.815H197.098C195.387 193.815 194 195.202 194 196.913V206.21C194 207.921 195.387 209.308 197.099 209.308H197.785C198.147 210.548 198.602 211.748 199.145 212.899L198.75 213.294C197.539 214.504 197.539 216.466 198.75 217.676L205.323 224.25C206.534 225.46 208.495 225.46 209.705 224.25L209.824 224.132C211.054 224.791 212.347 225.346 213.691 225.791V225.901C213.691 227.613 215.079 229 216.79 229H226.086C227.798 229 229.185 227.613 229.185 225.901V225.791C230.529 225.346 231.823 224.791 233.053 224.132L233.171 224.25C234.381 225.46 236.343 225.46 237.553 224.25L244.127 217.676C245.337 216.466 245.337 214.504 244.127 213.294L243.732 212.899C244.275 211.748 244.73 210.548 245.092 209.308H245.778C247.489 209.308 248.877 207.921 248.877 206.21V196.913C248.876 195.202 247.489 193.815 245.778 193.815V193.815ZM221.438 212.304C215.967 212.304 211.533 207.87 211.533 202.399C211.533 196.928 215.967 192.494 221.438 192.494C226.909 192.494 231.343 196.928 231.343 202.399C231.343 207.87 226.909 212.304 221.438 212.304Z" fill="url(#paint3_linear)"/>
<path d="M234.19 189.648C227.146 182.604 215.729 182.604 208.685 189.648C201.642 196.692 201.641 208.109 208.685 215.153C215.729 222.196 227.146 222.196 234.19 215.153C241.233 208.109 241.233 196.692 234.19 189.648ZM214.433 209.404C210.565 205.536 210.565 199.265 214.433 195.397C218.302 191.528 224.573 191.528 228.441 195.397C232.31 199.265 232.31 205.536 228.441 209.404C224.573 213.273 218.302 213.273 214.433 209.404V209.404Z" fill="url(#paint4_linear)"/>
</g>
<path d="M106.996 103.281C106.746 103.24 106.489 103.219 106.223 103.219C105.353 103.219 104.767 103.552 104.465 104.219V110H102.567V101.547H104.379L104.426 102.492C104.885 101.758 105.52 101.391 106.332 101.391C106.603 101.391 106.827 101.427 107.004 101.5L106.996 103.281ZM113.442 110.156C112.239 110.156 111.262 109.779 110.512 109.023C109.768 108.263 109.395 107.253 109.395 105.992V105.758C109.395 104.914 109.557 104.161 109.88 103.5C110.208 102.833 110.666 102.315 111.255 101.945C111.843 101.576 112.499 101.391 113.223 101.391C114.374 101.391 115.262 101.758 115.887 102.492C116.518 103.227 116.833 104.266 116.833 105.609V106.375H111.309C111.367 107.073 111.598 107.625 112.005 108.031C112.416 108.438 112.932 108.641 113.551 108.641C114.421 108.641 115.13 108.289 115.676 107.586L116.7 108.562C116.361 109.068 115.908 109.461 115.341 109.742C114.778 110.018 114.145 110.156 113.442 110.156ZM113.216 102.914C112.695 102.914 112.273 103.096 111.95 103.461C111.632 103.826 111.429 104.333 111.341 104.984H114.958V104.844C114.916 104.208 114.747 103.729 114.45 103.406C114.153 103.078 113.742 102.914 113.216 102.914ZM119.638 105.711C119.638 104.409 119.94 103.365 120.544 102.578C121.148 101.786 121.958 101.391 122.974 101.391C123.87 101.391 124.593 101.703 125.146 102.328V98H127.044V110H125.325L125.231 109.125C124.664 109.812 123.906 110.156 122.958 110.156C121.968 110.156 121.166 109.758 120.552 108.961C119.942 108.164 119.638 107.081 119.638 105.711ZM121.536 105.875C121.536 106.734 121.7 107.406 122.028 107.891C122.362 108.37 122.833 108.609 123.442 108.609C124.218 108.609 124.786 108.263 125.146 107.57V103.961C124.797 103.284 124.234 102.945 123.458 102.945C122.843 102.945 122.37 103.19 122.036 103.68C121.703 104.164 121.536 104.896 121.536 105.875ZM134.427 110.156C133.224 110.156 132.247 109.779 131.497 109.023C130.753 108.263 130.38 107.253 130.38 105.992V105.758C130.38 104.914 130.542 104.161 130.865 103.5C131.193 102.833 131.651 102.315 132.24 101.945C132.828 101.576 133.484 101.391 134.208 101.391C135.359 101.391 136.247 101.758 136.872 102.492C137.503 103.227 137.818 104.266 137.818 105.609V106.375H132.294C132.352 107.073 132.583 107.625 132.99 108.031C133.401 108.438 133.917 108.641 134.536 108.641C135.406 108.641 136.115 108.289 136.661 107.586L137.685 108.562C137.346 109.068 136.893 109.461 136.326 109.742C135.763 110.018 135.13 110.156 134.427 110.156ZM134.201 102.914C133.68 102.914 133.258 103.096 132.935 103.461C132.617 103.826 132.414 104.333 132.326 104.984H135.943V104.844C135.901 104.208 135.732 103.729 135.435 103.406C135.138 103.078 134.727 102.914 134.201 102.914ZM145.716 107.703C145.716 107.365 145.576 107.107 145.295 106.93C145.019 106.753 144.558 106.596 143.912 106.461C143.266 106.326 142.727 106.154 142.295 105.945C141.347 105.487 140.873 104.823 140.873 103.953C140.873 103.224 141.18 102.615 141.795 102.125C142.409 101.635 143.19 101.391 144.138 101.391C145.149 101.391 145.964 101.641 146.584 102.141C147.209 102.641 147.521 103.289 147.521 104.086H145.623C145.623 103.721 145.487 103.419 145.216 103.18C144.946 102.935 144.586 102.812 144.138 102.812C143.722 102.812 143.381 102.909 143.115 103.102C142.855 103.294 142.724 103.552 142.724 103.875C142.724 104.167 142.847 104.393 143.091 104.555C143.336 104.716 143.831 104.88 144.576 105.047C145.321 105.208 145.904 105.404 146.326 105.633C146.753 105.857 147.068 106.128 147.271 106.445C147.48 106.763 147.584 107.148 147.584 107.602C147.584 108.362 147.269 108.979 146.638 109.453C146.008 109.922 145.183 110.156 144.162 110.156C143.469 110.156 142.852 110.031 142.31 109.781C141.769 109.531 141.347 109.188 141.045 108.75C140.743 108.312 140.591 107.841 140.591 107.336H142.435C142.461 107.784 142.631 108.13 142.943 108.375C143.256 108.615 143.67 108.734 144.185 108.734C144.685 108.734 145.065 108.641 145.326 108.453C145.586 108.26 145.716 108.01 145.716 107.703ZM152.943 110H151.045V101.547H152.943V110ZM150.928 99.3516C150.928 99.0599 151.019 98.8177 151.201 98.625C151.389 98.4323 151.654 98.3359 151.998 98.3359C152.342 98.3359 152.607 98.4323 152.795 98.625C152.982 98.8177 153.076 99.0599 153.076 99.3516C153.076 99.638 152.982 99.8776 152.795 100.07C152.607 100.258 152.342 100.352 151.998 100.352C151.654 100.352 151.389 100.258 151.201 100.07C151.019 99.8776 150.928 99.638 150.928 99.3516ZM156.366 105.711C156.366 104.398 156.673 103.352 157.287 102.57C157.907 101.784 158.728 101.391 159.748 101.391C160.712 101.391 161.47 101.727 162.022 102.398L162.108 101.547H163.819V109.742C163.819 110.852 163.472 111.727 162.78 112.367C162.092 113.008 161.162 113.328 159.991 113.328C159.371 113.328 158.764 113.198 158.17 112.938C157.582 112.682 157.134 112.346 156.826 111.93L157.725 110.789C158.308 111.482 159.027 111.828 159.881 111.828C160.511 111.828 161.009 111.656 161.373 111.312C161.738 110.974 161.92 110.474 161.92 109.812V109.242C161.373 109.852 160.644 110.156 159.733 110.156C158.743 110.156 157.933 109.763 157.303 108.977C156.678 108.19 156.366 107.102 156.366 105.711ZM158.256 105.875C158.256 106.724 158.428 107.393 158.772 107.883C159.121 108.367 159.603 108.609 160.217 108.609C160.983 108.609 161.55 108.281 161.92 107.625V103.906C161.561 103.266 160.998 102.945 160.233 102.945C159.608 102.945 159.121 103.193 158.772 103.688C158.428 104.182 158.256 104.911 158.256 105.875ZM169.217 101.547L169.272 102.523C169.897 101.768 170.717 101.391 171.733 101.391C173.493 101.391 174.389 102.398 174.421 104.414V110H172.522V104.523C172.522 103.987 172.405 103.591 172.171 103.336C171.941 103.076 171.564 102.945 171.038 102.945C170.272 102.945 169.702 103.292 169.327 103.984V110H167.428V101.547H169.217ZM180.062 110H178.163V101.547H180.062V110ZM178.046 99.3516C178.046 99.0599 178.137 98.8177 178.319 98.625C178.507 98.4323 178.772 98.3359 179.116 98.3359C179.46 98.3359 179.726 98.4323 179.913 98.625C180.101 98.8177 180.194 99.0599 180.194 99.3516C180.194 99.638 180.101 99.8776 179.913 100.07C179.726 100.258 179.46 100.352 179.116 100.352C178.772 100.352 178.507 100.258 178.319 100.07C178.137 99.8776 178.046 99.638 178.046 99.3516ZM185.577 101.547L185.632 102.523C186.257 101.768 187.077 101.391 188.093 101.391C189.853 101.391 190.749 102.398 190.781 104.414V110H188.882V104.523C188.882 103.987 188.765 103.591 188.531 103.336C188.301 103.076 187.924 102.945 187.398 102.945C186.632 102.945 186.062 103.292 185.687 103.984V110H183.788V101.547H185.577ZM194.07 105.711C194.07 104.398 194.377 103.352 194.992 102.57C195.612 101.784 196.432 101.391 197.453 101.391C198.416 101.391 199.174 101.727 199.726 102.398L199.812 101.547H201.523V109.742C201.523 110.852 201.177 111.727 200.484 112.367C199.797 113.008 198.867 113.328 197.695 113.328C197.075 113.328 196.468 113.198 195.875 112.938C195.286 112.682 194.838 112.346 194.531 111.93L195.429 110.789C196.013 111.482 196.731 111.828 197.586 111.828C198.216 111.828 198.713 111.656 199.078 111.312C199.442 110.974 199.625 110.474 199.625 109.812V109.242C199.078 109.852 198.349 110.156 197.437 110.156C196.448 110.156 195.638 109.763 195.007 108.977C194.382 108.19 194.07 107.102 194.07 105.711ZM195.961 105.875C195.961 106.724 196.132 107.393 196.476 107.883C196.825 108.367 197.307 108.609 197.922 108.609C198.687 108.609 199.255 108.281 199.625 107.625V103.906C199.265 103.266 198.703 102.945 197.937 102.945C197.312 102.945 196.825 103.193 196.476 103.688C196.132 104.182 195.961 104.911 195.961 105.875Z" fill="#424242"/>
<path d="M113.699 143V130.203H118.084C119.532 130.203 120.633 130.493 121.389 131.073C122.145 131.653 122.523 132.518 122.523 133.666C122.523 134.252 122.365 134.779 122.048 135.248C121.732 135.717 121.269 136.08 120.659 136.338C121.351 136.525 121.884 136.88 122.259 137.401C122.64 137.917 122.83 138.538 122.83 139.265C122.83 140.466 122.444 141.389 121.67 142.033C120.903 142.678 119.801 143 118.366 143H113.699ZM115.922 137.226V141.225H118.392C119.089 141.225 119.634 141.052 120.027 140.706C120.419 140.36 120.616 139.88 120.616 139.265C120.616 137.935 119.936 137.255 118.576 137.226H115.922ZM115.922 135.591H118.102C118.793 135.591 119.332 135.436 119.719 135.125C120.112 134.809 120.308 134.363 120.308 133.789C120.308 133.156 120.126 132.699 119.763 132.418C119.406 132.137 118.846 131.996 118.084 131.996H115.922V135.591ZM146.787 136.936C146.787 138.189 146.57 139.291 146.136 140.24C145.703 141.184 145.082 141.91 144.273 142.42C143.47 142.924 142.545 143.176 141.496 143.176C140.459 143.176 139.533 142.924 138.719 142.42C137.91 141.91 137.283 141.187 136.838 140.249C136.398 139.312 136.176 138.23 136.17 137.006V136.285C136.17 135.037 136.389 133.936 136.829 132.98C137.274 132.025 137.898 131.296 138.701 130.792C139.51 130.282 140.435 130.027 141.478 130.027C142.521 130.027 143.444 130.279 144.247 130.783C145.055 131.281 145.679 132.002 146.119 132.945C146.558 133.883 146.781 134.976 146.787 136.224V136.936ZM144.563 136.268C144.563 134.85 144.294 133.763 143.755 133.007C143.221 132.251 142.463 131.873 141.478 131.873C140.517 131.873 139.764 132.251 139.219 133.007C138.68 133.757 138.405 134.82 138.393 136.197V136.936C138.393 138.342 138.666 139.429 139.211 140.196C139.761 140.964 140.523 141.348 141.496 141.348C142.48 141.348 143.236 140.973 143.763 140.223C144.297 139.473 144.563 138.377 144.563 136.936V136.268ZM162.745 141.225H168.555V143H160.522V130.203H162.745V141.225ZM189.216 131.996H185.225V143H183.019V131.996H179.064V130.203H189.216V131.996ZM92.0447 169V156.203H95.824C96.9549 156.203 97.9568 156.455 98.8299 156.959C99.7088 157.463 100.388 158.178 100.869 159.104C101.349 160.029 101.59 161.09 101.59 162.285V162.927C101.59 164.14 101.346 165.206 100.86 166.126C100.38 167.046 99.6912 167.755 98.7947 168.253C97.9041 168.751 96.8816 169 95.7273 169H92.0447ZM94.2684 157.996V167.225H95.7186C96.8846 167.225 97.7781 166.861 98.3992 166.135C99.0262 165.402 99.3455 164.354 99.3572 162.988V162.276C99.3572 160.888 99.0555 159.827 98.452 159.095C97.8484 158.362 96.9725 157.996 95.824 157.996H94.2684ZM122.804 163.287H117.548V167.225H123.692V169H115.324V156.203H123.63V157.996H117.548V161.529H122.804V163.287ZM143.711 165.704C143.711 165.142 143.511 164.708 143.113 164.403C142.72 164.099 142.009 163.791 140.977 163.48C139.946 163.17 139.126 162.824 138.516 162.443C137.35 161.711 136.767 160.756 136.767 159.578C136.767 158.547 137.186 157.697 138.024 157.029C138.868 156.361 139.961 156.027 141.302 156.027C142.193 156.027 142.987 156.191 143.684 156.52C144.382 156.848 144.929 157.316 145.328 157.926C145.726 158.529 145.926 159.2 145.926 159.938H143.711C143.711 159.271 143.5 158.749 143.078 158.374C142.662 157.993 142.064 157.803 141.285 157.803C140.558 157.803 139.993 157.958 139.589 158.269C139.19 158.579 138.991 159.013 138.991 159.569C138.991 160.038 139.208 160.431 139.641 160.747C140.075 161.058 140.79 161.362 141.786 161.661C142.782 161.954 143.582 162.291 144.185 162.672C144.789 163.047 145.231 163.48 145.512 163.973C145.794 164.459 145.934 165.03 145.934 165.687C145.934 166.753 145.524 167.603 144.704 168.235C143.889 168.862 142.782 169.176 141.382 169.176C140.456 169.176 139.603 169.006 138.824 168.666C138.051 168.32 137.447 167.846 137.013 167.242C136.586 166.639 136.372 165.936 136.372 165.133H138.595C138.595 165.859 138.836 166.422 139.316 166.82C139.797 167.219 140.485 167.418 141.382 167.418C142.155 167.418 142.735 167.263 143.122 166.952C143.514 166.636 143.711 166.22 143.711 165.704ZM161.752 169H159.537V156.203H161.752V169ZM185.814 167.339C185.351 167.942 184.71 168.399 183.889 168.71C183.069 169.021 182.137 169.176 181.094 169.176C180.022 169.176 179.073 168.933 178.247 168.446C177.421 167.96 176.782 167.266 176.331 166.363C175.885 165.455 175.654 164.397 175.636 163.19V162.188C175.636 160.255 176.099 158.746 177.025 157.662C177.951 156.572 179.243 156.027 180.901 156.027C182.325 156.027 183.456 156.379 184.294 157.082C185.132 157.785 185.635 158.799 185.805 160.123H183.626C183.38 158.582 182.486 157.812 180.945 157.812C179.949 157.812 179.19 158.172 178.669 158.893C178.153 159.607 177.886 160.659 177.869 162.048V163.032C177.869 164.415 178.159 165.49 178.739 166.258C179.325 167.02 180.136 167.4 181.174 167.4C182.31 167.4 183.119 167.143 183.599 166.627V164.122H180.963V162.435H185.814V167.339ZM209.929 169H207.705L202.001 159.921V169H199.778V156.203H202.001L207.723 165.317V156.203H209.929V169ZM95.4725 191.704C95.4725 191.142 95.2732 190.708 94.8748 190.403C94.4822 190.099 93.7703 189.791 92.7391 189.48C91.7078 189.17 90.8875 188.824 90.2781 188.443C89.1121 187.711 88.5291 186.756 88.5291 185.578C88.5291 184.547 88.948 183.697 89.7859 183.029C90.6297 182.361 91.7225 182.027 93.0643 182.027C93.9549 182.027 94.7488 182.191 95.4461 182.52C96.1434 182.848 96.6912 183.316 97.0896 183.926C97.4881 184.529 97.6873 185.2 97.6873 185.938H95.4725C95.4725 185.271 95.2615 184.749 94.8396 184.374C94.4236 183.993 93.826 183.803 93.0467 183.803C92.3201 183.803 91.7547 183.958 91.3504 184.269C90.952 184.579 90.7527 185.013 90.7527 185.569C90.7527 186.038 90.9695 186.431 91.4031 186.747C91.8367 187.058 92.5516 187.362 93.5477 187.661C94.5437 187.954 95.3436 188.291 95.9471 188.672C96.5506 189.047 96.993 189.48 97.2742 189.973C97.5555 190.459 97.6961 191.03 97.6961 191.687C97.6961 192.753 97.2859 193.603 96.4656 194.235C95.6512 194.862 94.5437 195.176 93.1434 195.176C92.2176 195.176 91.365 195.006 90.5857 194.666C89.8123 194.32 89.2088 193.846 88.7752 193.242C88.3475 192.639 88.1336 191.936 88.1336 191.133H90.3572C90.3572 191.859 90.5975 192.422 91.0779 192.82C91.5584 193.219 92.2469 193.418 93.1434 193.418C93.9168 193.418 94.4969 193.263 94.8836 192.952C95.2762 192.636 95.4725 192.22 95.4725 191.704ZM115.342 188.268L118.286 182.203H120.747L116.458 190.289V195H114.226V190.289L109.928 182.203H112.398L115.342 188.268ZM140.204 191.704C140.204 191.142 140.005 190.708 139.606 190.403C139.214 190.099 138.502 189.791 137.47 189.48C136.439 189.17 135.619 188.824 135.01 188.443C133.844 187.711 133.261 186.756 133.261 185.578C133.261 184.547 133.679 183.697 134.517 183.029C135.361 182.361 136.454 182.027 137.796 182.027C138.686 182.027 139.48 182.191 140.177 182.52C140.875 182.848 141.423 183.316 141.821 183.926C142.219 184.529 142.419 185.2 142.419 185.938H140.204C140.204 185.271 139.993 184.749 139.571 184.374C139.155 183.993 138.557 183.803 137.778 183.803C137.052 183.803 136.486 183.958 136.082 184.269C135.683 184.579 135.484 185.013 135.484 185.569C135.484 186.038 135.701 186.431 136.135 186.747C136.568 187.058 137.283 187.362 138.279 187.661C139.275 187.954 140.075 188.291 140.678 188.672C141.282 189.047 141.724 189.48 142.006 189.973C142.287 190.459 142.427 191.03 142.427 191.687C142.427 192.753 142.017 193.603 141.197 194.235C140.383 194.862 139.275 195.176 137.875 195.176C136.949 195.176 136.096 195.006 135.317 194.666C134.544 194.32 133.94 193.846 133.507 193.242C133.079 192.639 132.865 191.936 132.865 191.133H135.089C135.089 191.859 135.329 192.422 135.809 192.82C136.29 193.219 136.978 193.418 137.875 193.418C138.648 193.418 139.228 193.263 139.615 192.952C140.008 192.636 140.204 192.22 140.204 191.704ZM165.145 183.996H161.155V195H158.948V183.996H154.993V182.203H165.145V183.996ZM185.832 189.287H180.576V193.225H186.719V195H178.352V182.203H186.658V183.996H180.576V187.529H185.832V189.287ZM202.933 182.203L206.624 192.012L210.307 182.203H213.181V195H210.966V190.781L211.186 185.139L207.406 195H205.816L202.045 185.147L202.265 190.781V195H200.05V182.203H202.933Z" fill="#424242"/>
<path d="M113.463 81H111.241V71.7578H113.463V81ZM123.576 81H121.36L118.085 75.249V81H115.857V71.7578H118.085L121.354 77.5088V71.7578H123.576V81ZM132.895 73.478H130.121V81H127.893V73.478H125.17V71.7578H132.895V73.478ZM140.418 77.0835H136.914V79.2861H141.052V81H134.686V71.7578H141.065V73.478H136.914V75.4268H140.418V77.0835ZM146.239 77.7373H145.033V81H142.805V71.7578H146.442C147.538 71.7578 148.395 72.0011 149.013 72.4878C149.631 72.9744 149.94 73.6621 149.94 74.5508C149.94 75.194 149.809 75.7272 149.546 76.1504C149.288 76.5736 148.882 76.9163 148.327 77.1787L150.257 80.9048V81H147.87L146.239 77.7373ZM145.033 76.0171H146.442C146.865 76.0171 147.183 75.9071 147.394 75.687C147.61 75.4627 147.718 75.1517 147.718 74.7539C147.718 74.3561 147.61 74.0451 147.394 73.8208C147.179 73.5923 146.861 73.478 146.442 73.478H145.033V76.0171ZM159.849 81H157.634L154.359 75.249V81H152.131V71.7578H154.359L157.628 77.5088V71.7578H159.849V81ZM166.871 78.5435C166.871 78.2176 166.754 77.9637 166.521 77.7817C166.293 77.5998 165.889 77.4115 165.309 77.2168C164.729 77.0221 164.255 76.8338 163.887 76.6519C162.69 76.0636 162.091 75.2554 162.091 74.2271C162.091 73.715 162.239 73.2643 162.535 72.875C162.836 72.4814 163.259 72.1768 163.805 71.9609C164.351 71.7409 164.964 71.6309 165.645 71.6309C166.31 71.6309 166.904 71.7493 167.429 71.9863C167.958 72.2233 168.369 72.5618 168.661 73.002C168.953 73.4378 169.099 73.9372 169.099 74.5H166.877C166.877 74.1234 166.76 73.8314 166.528 73.624C166.299 73.4167 165.988 73.313 165.595 73.313C165.197 73.313 164.882 73.4019 164.649 73.5796C164.42 73.7531 164.306 73.9753 164.306 74.2461C164.306 74.4831 164.433 74.6989 164.687 74.8936C164.941 75.084 165.387 75.2829 166.026 75.4902C166.665 75.6934 167.19 75.9134 167.601 76.1504C168.599 76.7259 169.099 77.5194 169.099 78.5308C169.099 79.339 168.794 79.9738 168.184 80.4351C167.575 80.8963 166.739 81.127 165.677 81.127C164.928 81.127 164.249 80.9937 163.64 80.7271C163.034 80.4562 162.577 80.0881 162.268 79.6226C161.964 79.1528 161.811 78.6133 161.811 78.0039H164.046C164.046 78.499 164.173 78.8651 164.427 79.1021C164.685 79.3348 165.102 79.4512 165.677 79.4512C166.045 79.4512 166.335 79.3729 166.547 79.2163C166.763 79.0555 166.871 78.8312 166.871 78.5435ZM178.811 81H176.596V77.1406H173.314V81H171.086V71.7578H173.314V75.4268H176.596V71.7578H178.811V81ZM183.446 81H181.224V71.7578H183.446V81ZM188.068 77.8643V81H185.84V71.7578H189.528C190.234 71.7578 190.858 71.889 191.4 72.1514C191.946 72.4095 192.367 72.7798 192.663 73.2622C192.964 73.7404 193.114 74.2842 193.114 74.8936C193.114 75.7949 192.79 76.5164 192.143 77.0581C191.5 77.5955 190.615 77.8643 189.49 77.8643H188.068ZM188.068 76.144H189.528C189.959 76.144 190.287 76.0361 190.511 75.8203C190.74 75.6045 190.854 75.2998 190.854 74.9062C190.854 74.4746 190.738 74.1297 190.505 73.8716C190.272 73.6134 189.955 73.4823 189.553 73.478H188.068V76.144Z" fill="#424242"/>
</g>
<defs>
<filter id="filter0_d" x="0" y="0" width="304" height="278" filterUnits="userSpaceOnUse" color-interpolation-filters="sRGB">
<feFlood flood-opacity="0" result="BackgroundImageFix"/>
<feColorMatrix in="SourceAlpha" type="matrix" values="0 0 0 0 0 0 0 0 0 0 0 0 0 0 0 0 0 0 127 0"/>
<feOffset dy="4"/>
<feGaussianBlur stdDeviation="2"/>
<feColorMatrix type="matrix" values="0 0 0 0 0 0 0 0 0 0 0 0 0 0 0 0 0 0 0.25 0"/>
<feBlend mode="normal" in2="BackgroundImageFix" result="effect1_dropShadow"/>
<feBlend mode="normal" in="SourceGraphic" in2="effect1_dropShadow" result="shape"/>
</filter>
<linearGradient id="paint0_linear" x1="227.883" y1="139.789" x2="287.033" y2="198.94" gradientUnits="userSpaceOnUse">
<stop stop-color="#B5DBFF"/>
<stop offset="1" stop-color="#48B2E3"/>
</linearGradient>
<linearGradient id="paint1_linear" x1="273.73" y1="186.811" x2="234.851" y2="147.931" gradientUnits="userSpaceOnUse">
<stop stop-color="#B5DBFF"/>
<stop offset="1" stop-color="#48B2E3"/>
</linearGradient>
<linearGradient id="paint2_linear" x1="269.11" y1="222.911" x2="201.81" y2="155.61" gradientUnits="userSpaceOnUse">
<stop stop-color="#07485E" stop-opacity="0"/>
<stop offset="0.3332" stop-color="#063F52" stop-opacity="0.333"/>
<stop offset="0.9358" stop-color="#032632" stop-opacity="0.936"/>
<stop offset="1" stop-color="#03232E"/>
</linearGradient>
<linearGradient id="paint3_linear" x1="201.699" y1="181.822" x2="243.906" y2="224.03" gradientUnits="userSpaceOnUse">
<stop stop-color="#76E2F8"/>
<stop offset="1" stop-color="#48B2E3"/>
</linearGradient>
<linearGradient id="paint4_linear" x1="221.437" y1="220.762" x2="221.437" y2="181.534" gradientUnits="userSpaceOnUse">
<stop stop-color="#76E2F8"/>
<stop offset="1" stop-color="#48B2E3"/>
</linearGradient>
<clipPath id="clip0">
<rect width="100" height="100" fill="white" transform="translate(194 129)"/>
</clipPath>
</defs>
</svg>
