<svg width="304" height="278" viewBox="0 0 304 278" fill="none" xmlns="http://www.w3.org/2000/svg">
<g filter="url(#filter0_d)">
<g clip-path="url(#clip0)">
<rect x="4" width="296" height="270" rx="5" fill="white"/>
<path d="M96.2716 144.172C95.7143 144.828 94.9226 145.156 93.8966 145.156C92.9799 145.156 92.2846 144.888 91.8106 144.352C91.3419 143.815 91.1075 143.039 91.1075 142.023V136.547H93.0059V142C93.0059 143.073 93.4513 143.609 94.3419 143.609C95.2638 143.609 95.8861 143.279 96.2091 142.617V136.547H98.1075V145H96.3184L96.2716 144.172ZM103.483 136.547L103.538 137.523C104.163 136.768 104.983 136.391 105.998 136.391C107.759 136.391 108.655 137.398 108.686 139.414V145H106.788V139.523C106.788 138.987 106.67 138.591 106.436 138.336C106.207 138.076 105.829 137.945 105.303 137.945C104.538 137.945 103.967 138.292 103.592 138.984V145H101.694V136.547H103.483ZM111.952 140.711C111.952 139.409 112.254 138.365 112.858 137.578C113.462 136.786 114.272 136.391 115.288 136.391C116.184 136.391 116.908 136.703 117.46 137.328V133H119.358V145H117.639L117.546 144.125C116.978 144.812 116.22 145.156 115.272 145.156C114.283 145.156 113.481 144.758 112.866 143.961C112.257 143.164 111.952 142.081 111.952 140.711ZM113.85 140.875C113.85 141.734 114.014 142.406 114.343 142.891C114.676 143.37 115.147 143.609 115.757 143.609C116.533 143.609 117.1 143.263 117.46 142.57V138.961C117.111 138.284 116.548 137.945 115.772 137.945C115.158 137.945 114.684 138.19 114.35 138.68C114.017 139.164 113.85 139.896 113.85 140.875ZM126.741 145.156C125.538 145.156 124.562 144.779 123.812 144.023C123.067 143.263 122.694 142.253 122.694 140.992V140.758C122.694 139.914 122.856 139.161 123.179 138.5C123.507 137.833 123.965 137.315 124.554 136.945C125.142 136.576 125.799 136.391 126.522 136.391C127.674 136.391 128.562 136.758 129.187 137.492C129.817 138.227 130.132 139.266 130.132 140.609V141.375H124.608C124.666 142.073 124.897 142.625 125.304 143.031C125.715 143.438 126.231 143.641 126.851 143.641C127.72 143.641 128.429 143.289 128.976 142.586L129.999 143.562C129.661 144.068 129.207 144.461 128.64 144.742C128.077 145.018 127.444 145.156 126.741 145.156ZM126.515 137.914C125.994 137.914 125.572 138.096 125.249 138.461C124.931 138.826 124.728 139.333 124.64 139.984H128.257V139.844C128.215 139.208 128.046 138.729 127.749 138.406C127.452 138.078 127.041 137.914 126.515 137.914ZM137.718 138.281C137.468 138.24 137.21 138.219 136.945 138.219C136.075 138.219 135.489 138.552 135.187 139.219V145H133.288V136.547H135.101L135.148 137.492C135.606 136.758 136.242 136.391 137.054 136.391C137.325 136.391 137.549 136.427 137.726 136.5L137.718 138.281ZM145.336 142.703C145.336 142.365 145.195 142.107 144.914 141.93C144.638 141.753 144.177 141.596 143.531 141.461C142.885 141.326 142.346 141.154 141.914 140.945C140.966 140.487 140.492 139.823 140.492 138.953C140.492 138.224 140.799 137.615 141.414 137.125C142.028 136.635 142.81 136.391 143.758 136.391C144.768 136.391 145.583 136.641 146.203 137.141C146.828 137.641 147.14 138.289 147.14 139.086H145.242C145.242 138.721 145.106 138.419 144.836 138.18C144.565 137.935 144.205 137.812 143.758 137.812C143.341 137.812 143 137.909 142.734 138.102C142.474 138.294 142.343 138.552 142.343 138.875C142.343 139.167 142.466 139.393 142.711 139.555C142.955 139.716 143.45 139.88 144.195 140.047C144.94 140.208 145.523 140.404 145.945 140.633C146.372 140.857 146.687 141.128 146.89 141.445C147.099 141.763 147.203 142.148 147.203 142.602C147.203 143.362 146.888 143.979 146.258 144.453C145.627 144.922 144.802 145.156 143.781 145.156C143.088 145.156 142.471 145.031 141.929 144.781C141.388 144.531 140.966 144.188 140.664 143.75C140.362 143.312 140.211 142.841 140.211 142.336H142.054C142.08 142.784 142.25 143.13 142.562 143.375C142.875 143.615 143.289 143.734 143.804 143.734C144.304 143.734 144.685 143.641 144.945 143.453C145.205 143.26 145.336 143.01 145.336 142.703ZM152.922 134.492V136.547H154.414V137.953H152.922V142.672C152.922 142.995 152.984 143.229 153.109 143.375C153.24 143.516 153.469 143.586 153.797 143.586C154.016 143.586 154.237 143.56 154.461 143.508V144.977C154.029 145.096 153.612 145.156 153.211 145.156C151.753 145.156 151.023 144.352 151.023 142.742V137.953H149.633V136.547H151.023V134.492H152.922ZM162.602 145C162.519 144.839 162.446 144.576 162.383 144.211C161.779 144.841 161.039 145.156 160.164 145.156C159.315 145.156 158.623 144.914 158.086 144.43C157.55 143.945 157.282 143.346 157.282 142.633C157.282 141.732 157.615 141.042 158.282 140.562C158.953 140.078 159.912 139.836 161.157 139.836H162.321V139.281C162.321 138.844 162.198 138.495 161.953 138.234C161.709 137.969 161.336 137.836 160.836 137.836C160.404 137.836 160.05 137.945 159.774 138.164C159.498 138.378 159.36 138.651 159.36 138.984H157.461C157.461 138.521 157.615 138.089 157.922 137.688C158.229 137.281 158.646 136.964 159.172 136.734C159.703 136.505 160.295 136.391 160.946 136.391C161.935 136.391 162.724 136.641 163.313 137.141C163.901 137.635 164.203 138.333 164.219 139.234V143.047C164.219 143.807 164.326 144.414 164.539 144.867V145H162.602ZM160.516 143.633C160.891 143.633 161.243 143.542 161.571 143.359C161.904 143.177 162.154 142.932 162.321 142.625V141.031H161.297C160.594 141.031 160.065 141.154 159.711 141.398C159.357 141.643 159.18 141.99 159.18 142.438C159.18 142.802 159.3 143.094 159.539 143.312C159.784 143.526 160.11 143.633 160.516 143.633ZM169.649 136.547L169.704 137.523C170.329 136.768 171.149 136.391 172.165 136.391C173.925 136.391 174.821 137.398 174.852 139.414V145H172.954V139.523C172.954 138.987 172.837 138.591 172.602 138.336C172.373 138.076 171.995 137.945 171.469 137.945C170.704 137.945 170.133 138.292 169.758 138.984V145H167.86V136.547H169.649ZM178.118 140.711C178.118 139.409 178.42 138.365 179.024 137.578C179.629 136.786 180.438 136.391 181.454 136.391C182.35 136.391 183.074 136.703 183.626 137.328V133H185.524V145H183.806L183.712 144.125C183.144 144.812 182.386 145.156 181.438 145.156C180.449 145.156 179.647 144.758 179.032 143.961C178.423 143.164 178.118 142.081 178.118 140.711ZM180.017 140.875C180.017 141.734 180.181 142.406 180.509 142.891C180.842 143.37 181.313 143.609 181.923 143.609C182.699 143.609 183.267 143.263 183.626 142.57V138.961C183.277 138.284 182.714 137.945 181.938 137.945C181.324 137.945 180.85 138.19 180.517 138.68C180.183 139.164 180.017 139.896 180.017 140.875ZM191.204 145H189.306V136.547H191.204V145ZM189.189 134.352C189.189 134.06 189.28 133.818 189.462 133.625C189.65 133.432 189.915 133.336 190.259 133.336C190.603 133.336 190.868 133.432 191.056 133.625C191.243 133.818 191.337 134.06 191.337 134.352C191.337 134.638 191.243 134.878 191.056 135.07C190.868 135.258 190.603 135.352 190.259 135.352C189.915 135.352 189.65 135.258 189.462 135.07C189.28 134.878 189.189 134.638 189.189 134.352ZM196.72 136.547L196.775 137.523C197.4 136.768 198.22 136.391 199.236 136.391C200.996 136.391 201.892 137.398 201.923 139.414V145H200.025V139.523C200.025 138.987 199.908 138.591 199.673 138.336C199.444 138.076 199.067 137.945 198.541 137.945C197.775 137.945 197.205 138.292 196.83 138.984V145H194.931V136.547H196.72ZM205.213 140.711C205.213 139.398 205.52 138.352 206.135 137.57C206.754 136.784 207.575 136.391 208.596 136.391C209.559 136.391 210.317 136.727 210.869 137.398L210.955 136.547H212.666V144.742C212.666 145.852 212.32 146.727 211.627 147.367C210.939 148.008 210.01 148.328 208.838 148.328C208.218 148.328 207.611 148.198 207.018 147.938C206.429 147.682 205.981 147.346 205.674 146.93L206.572 145.789C207.156 146.482 207.874 146.828 208.728 146.828C209.359 146.828 209.856 146.656 210.221 146.312C210.585 145.974 210.768 145.474 210.768 144.812V144.242C210.221 144.852 209.491 145.156 208.58 145.156C207.59 145.156 206.781 144.763 206.15 143.977C205.525 143.19 205.213 142.102 205.213 140.711ZM207.103 140.875C207.103 141.724 207.275 142.393 207.619 142.883C207.968 143.367 208.45 143.609 209.064 143.609C209.83 143.609 210.398 143.281 210.768 142.625V138.906C210.408 138.266 209.846 137.945 209.08 137.945C208.455 137.945 207.968 138.193 207.619 138.688C207.275 139.182 207.103 139.911 207.103 140.875Z" fill="#424242"/>
<path d="M104.399 106.758V112.807C104.399 113.493 104.253 114.087 103.961 114.591C103.669 115.09 103.25 115.471 102.704 115.733C102.159 115.996 101.513 116.127 100.768 116.127C99.6427 116.127 98.7562 115.835 98.1087 115.251C97.4613 114.667 97.1312 113.867 97.1185 112.852V106.758H99.3592V112.896C99.3846 113.907 99.8543 114.413 100.768 114.413C101.23 114.413 101.579 114.286 101.816 114.032C102.053 113.778 102.171 113.366 102.171 112.794V106.758H104.399ZM111.408 113.543C111.408 113.218 111.291 112.964 111.059 112.782C110.83 112.6 110.426 112.411 109.846 112.217C109.267 112.022 108.793 111.834 108.424 111.652C107.227 111.064 106.628 110.255 106.628 109.227C106.628 108.715 106.776 108.264 107.072 107.875C107.373 107.481 107.796 107.177 108.342 106.961C108.888 106.741 109.501 106.631 110.183 106.631C110.847 106.631 111.442 106.749 111.966 106.986C112.495 107.223 112.906 107.562 113.198 108.002C113.49 108.438 113.636 108.937 113.636 109.5H111.414C111.414 109.123 111.298 108.831 111.065 108.624C110.837 108.417 110.525 108.313 110.132 108.313C109.734 108.313 109.419 108.402 109.186 108.58C108.958 108.753 108.843 108.975 108.843 109.246C108.843 109.483 108.97 109.699 109.224 109.894C109.478 110.084 109.925 110.283 110.564 110.49C111.203 110.693 111.727 110.913 112.138 111.15C113.136 111.726 113.636 112.519 113.636 113.531C113.636 114.339 113.331 114.974 112.722 115.435C112.112 115.896 111.277 116.127 110.214 116.127C109.465 116.127 108.786 115.994 108.177 115.727C107.572 115.456 107.115 115.088 106.806 114.623C106.501 114.153 106.349 113.613 106.349 113.004H108.583C108.583 113.499 108.71 113.865 108.964 114.102C109.222 114.335 109.639 114.451 110.214 114.451C110.583 114.451 110.872 114.373 111.084 114.216C111.3 114.056 111.408 113.831 111.408 113.543ZM121.355 112.083H117.851V114.286H121.99V116H115.623V106.758H122.003V108.478H117.851V110.427H121.355V112.083ZM127.177 112.737H125.971V116H123.743V106.758H127.38C128.476 106.758 129.333 107.001 129.951 107.488C130.569 107.974 130.878 108.662 130.878 109.551C130.878 110.194 130.746 110.727 130.484 111.15C130.226 111.574 129.82 111.916 129.265 112.179L131.195 115.905V116H128.808L127.177 112.737ZM125.971 111.017H127.38C127.803 111.017 128.121 110.907 128.332 110.687C128.548 110.463 128.656 110.152 128.656 109.754C128.656 109.356 128.548 109.045 128.332 108.821C128.116 108.592 127.799 108.478 127.38 108.478H125.971V111.017ZM140.585 112.737H139.379V116H137.151V106.758H140.788C141.884 106.758 142.741 107.001 143.359 107.488C143.976 107.974 144.285 108.662 144.285 109.551C144.285 110.194 144.154 110.727 143.892 111.15C143.634 111.574 143.227 111.916 142.673 112.179L144.603 115.905V116H142.216L140.585 112.737ZM139.379 111.017H140.788C141.211 111.017 141.528 110.907 141.74 110.687C141.956 110.463 142.064 110.152 142.064 109.754C142.064 109.356 141.956 109.045 141.74 108.821C141.524 108.592 141.207 108.478 140.788 108.478H139.379V111.017ZM152.208 112.083H148.704V114.286H152.843V116H146.476V106.758H152.855V108.478H148.704V110.427H152.208V112.083ZM159.363 113.543C159.363 113.218 159.246 112.964 159.013 112.782C158.785 112.6 158.381 112.411 157.801 112.217C157.221 112.022 156.747 111.834 156.379 111.652C155.182 111.064 154.583 110.255 154.583 109.227C154.583 108.715 154.731 108.264 155.027 107.875C155.328 107.481 155.751 107.177 156.297 106.961C156.843 106.741 157.456 106.631 158.137 106.631C158.802 106.631 159.396 106.749 159.921 106.986C160.45 107.223 160.861 107.562 161.153 108.002C161.445 108.438 161.591 108.937 161.591 109.5H159.369C159.369 109.123 159.253 108.831 159.02 108.624C158.791 108.417 158.48 108.313 158.087 108.313C157.689 108.313 157.374 108.402 157.141 108.58C156.912 108.753 156.798 108.975 156.798 109.246C156.798 109.483 156.925 109.699 157.179 109.894C157.433 110.084 157.879 110.283 158.518 110.49C159.157 110.693 159.682 110.913 160.093 111.15C161.091 111.726 161.591 112.519 161.591 113.531C161.591 114.339 161.286 114.974 160.677 115.435C160.067 115.896 159.231 116.127 158.169 116.127C157.42 116.127 156.741 115.994 156.132 115.727C155.526 115.456 155.069 115.088 154.761 114.623C154.456 114.153 154.303 113.613 154.303 113.004H156.538C156.538 113.499 156.665 113.865 156.919 114.102C157.177 114.335 157.594 114.451 158.169 114.451C158.537 114.451 158.827 114.373 159.039 114.216C159.255 114.056 159.363 113.831 159.363 113.543ZM169.31 112.083H165.806V114.286H169.945V116H163.578V106.758H169.958V108.478H165.806V110.427H169.31V112.083ZM176.947 114.273H173.894L173.361 116H170.98L174.37 106.758H176.465L179.88 116H177.487L176.947 114.273ZM174.427 112.553H176.414L175.417 109.348L174.427 112.553ZM184.838 112.737H183.632V116H181.404V106.758H185.041C186.137 106.758 186.994 107.001 187.612 107.488C188.23 107.974 188.539 108.662 188.539 109.551C188.539 110.194 188.408 110.727 188.145 111.15C187.887 111.574 187.481 111.916 186.926 112.179L188.856 115.905V116H186.469L184.838 112.737ZM183.632 111.017H185.041C185.464 111.017 185.782 110.907 185.993 110.687C186.209 110.463 186.317 110.152 186.317 109.754C186.317 109.356 186.209 109.045 185.993 108.821C185.777 108.592 185.46 108.478 185.041 108.478H183.632V111.017ZM198.207 112.871C198.177 113.514 198.004 114.083 197.686 114.578C197.369 115.069 196.923 115.45 196.347 115.721C195.776 115.992 195.122 116.127 194.386 116.127C193.171 116.127 192.215 115.731 191.517 114.94C190.818 114.149 190.469 113.031 190.469 111.588V111.131C190.469 110.226 190.626 109.434 190.939 108.757C191.256 108.076 191.711 107.551 192.304 107.183C192.896 106.811 193.582 106.625 194.36 106.625C195.482 106.625 196.383 106.921 197.064 107.513C197.746 108.101 198.133 108.914 198.226 109.951H196.004C195.987 109.388 195.846 108.984 195.579 108.738C195.312 108.493 194.906 108.37 194.36 108.37C193.806 108.37 193.4 108.577 193.142 108.992C192.883 109.407 192.748 110.069 192.735 110.979V111.633C192.735 112.619 192.858 113.323 193.103 113.747C193.353 114.17 193.78 114.381 194.386 114.381C194.898 114.381 195.289 114.261 195.56 114.02C195.831 113.778 195.975 113.395 195.992 112.871H198.207ZM207.831 116H205.615V112.141H202.334V116H200.106V106.758H202.334V110.427H205.615V106.758H207.831V116Z" fill="#424242"/>
<path d="M96.1297 173.245V178H93.9061V165.203H98.8016C100.231 165.203 101.365 165.575 102.203 166.319C103.047 167.063 103.469 168.048 103.469 169.272C103.469 170.526 103.055 171.502 102.229 172.199C101.409 172.896 100.258 173.245 98.7752 173.245H96.1297ZM96.1297 171.461H98.8016C99.5926 171.461 100.196 171.276 100.612 170.907C101.028 170.532 101.236 169.993 101.236 169.29C101.236 168.599 101.025 168.048 100.603 167.638C100.181 167.222 99.6014 167.008 98.8631 166.996H96.1297V171.461ZM126.3 165.203V173.755C126.3 175.114 125.864 176.192 124.991 176.989C124.123 177.78 122.966 178.176 121.519 178.176C120.054 178.176 118.891 177.786 118.03 177.007C117.168 176.222 116.738 175.135 116.738 173.746V165.203H118.952V173.764C118.952 174.619 119.169 175.272 119.603 175.724C120.036 176.175 120.675 176.4 121.519 176.4C123.23 176.4 124.085 175.498 124.085 173.693V165.203H126.3ZM140.202 178V165.203H144.588C146.035 165.203 147.136 165.493 147.892 166.073C148.648 166.653 149.026 167.518 149.026 168.666C149.026 169.252 148.868 169.779 148.552 170.248C148.235 170.717 147.772 171.08 147.163 171.338C147.854 171.525 148.387 171.88 148.762 172.401C149.143 172.917 149.334 173.538 149.334 174.265C149.334 175.466 148.947 176.389 148.174 177.033C147.406 177.678 146.304 178 144.869 178H140.202ZM142.426 172.226V176.225H144.895C145.593 176.225 146.137 176.052 146.53 175.706C146.923 175.36 147.119 174.88 147.119 174.265C147.119 172.935 146.439 172.255 145.08 172.226H142.426ZM142.426 170.591H144.605C145.297 170.591 145.836 170.436 146.222 170.125C146.615 169.809 146.811 169.363 146.811 168.789C146.811 168.156 146.63 167.699 146.266 167.418C145.909 167.137 145.349 166.996 144.588 166.996H142.426V170.591ZM165.301 176.225H171.111V178H163.077V165.203H165.301V176.225ZM186.682 178H184.467V165.203H186.682V178ZM210.7 173.834C210.571 175.199 210.068 176.266 209.189 177.033C208.31 177.795 207.141 178.176 205.682 178.176C204.662 178.176 203.763 177.936 202.984 177.455C202.21 176.969 201.613 176.28 201.191 175.39C200.769 174.499 200.549 173.465 200.531 172.287V171.092C200.531 169.885 200.745 168.821 201.173 167.901C201.601 166.981 202.213 166.272 203.01 165.774C203.813 165.276 204.738 165.027 205.787 165.027C207.199 165.027 208.336 165.411 209.197 166.179C210.059 166.946 210.56 168.03 210.7 169.431H208.486C208.38 168.511 208.111 167.849 207.677 167.444C207.249 167.034 206.619 166.829 205.787 166.829C204.821 166.829 204.076 167.184 203.555 167.893C203.039 168.596 202.776 169.63 202.764 170.995V172.129C202.764 173.512 203.01 174.566 203.502 175.293C204 176.02 204.727 176.383 205.682 176.383C206.555 176.383 207.211 176.187 207.651 175.794C208.09 175.401 208.368 174.748 208.486 173.834H210.7ZM90.2466 201.021H85.2896L84.2525 204H81.941L86.775 191.203H88.7701L93.6129 204H91.2925L90.2466 201.021ZM85.9136 199.228H89.6226L87.7681 193.919L85.9136 199.228ZM111.294 199.069H108.815V204H106.592V191.203H111.092C112.568 191.203 113.708 191.534 114.511 192.196C115.314 192.858 115.715 193.816 115.715 195.07C115.715 195.926 115.507 196.644 115.091 197.224C114.681 197.798 114.106 198.24 113.368 198.551L116.242 203.886V204H113.86L111.294 199.069ZM108.815 197.285H111.101C111.851 197.285 112.437 197.098 112.858 196.723C113.28 196.342 113.491 195.823 113.491 195.167C113.491 194.481 113.295 193.951 112.902 193.576C112.516 193.201 111.936 193.008 111.162 192.996H108.815V197.285ZM138.151 192.996H134.161V204H131.955V192.996H128V191.203H138.151V192.996ZM153.705 204H151.49V191.203H153.705V204ZM174.647 200.704C174.647 200.142 174.448 199.708 174.049 199.403C173.657 199.099 172.945 198.791 171.914 198.48C170.882 198.17 170.062 197.824 169.453 197.443C168.287 196.711 167.704 195.756 167.704 194.578C167.704 193.547 168.123 192.697 168.96 192.029C169.804 191.361 170.897 191.027 172.239 191.027C173.129 191.027 173.923 191.191 174.621 191.52C175.318 191.848 175.866 192.316 176.264 192.926C176.663 193.529 176.862 194.2 176.862 194.938H174.647C174.647 194.271 174.436 193.749 174.014 193.374C173.598 192.993 173 192.803 172.221 192.803C171.495 192.803 170.929 192.958 170.525 193.269C170.126 193.579 169.927 194.013 169.927 194.569C169.927 195.038 170.144 195.431 170.578 195.747C171.011 196.058 171.726 196.362 172.722 196.661C173.718 196.954 174.518 197.291 175.122 197.672C175.725 198.047 176.167 198.48 176.449 198.973C176.73 199.459 176.871 200.03 176.871 200.687C176.871 201.753 176.46 202.603 175.64 203.235C174.826 203.862 173.718 204.176 172.318 204.176C171.392 204.176 170.54 204.006 169.76 203.666C168.987 203.32 168.383 202.846 167.95 202.242C167.522 201.639 167.308 200.936 167.308 200.133H169.532C169.532 200.859 169.772 201.422 170.252 201.82C170.733 202.219 171.421 202.418 172.318 202.418C173.091 202.418 173.671 202.263 174.058 201.952C174.451 201.636 174.647 201.22 174.647 200.704ZM199.588 192.996H195.598V204H193.392V192.996H189.436V191.203H199.588V192.996ZM219.343 200.704C219.343 200.142 219.144 199.708 218.746 199.403C218.353 199.099 217.641 198.791 216.61 198.48C215.579 198.17 214.758 197.824 214.149 197.443C212.983 196.711 212.4 195.756 212.4 194.578C212.4 193.547 212.819 192.697 213.657 192.029C214.5 191.361 215.593 191.027 216.935 191.027C217.826 191.027 218.62 191.191 219.317 191.52C220.014 191.848 220.562 192.316 220.96 192.926C221.359 193.529 221.558 194.2 221.558 194.938H219.343C219.343 194.271 219.132 193.749 218.71 193.374C218.294 192.993 217.697 192.803 216.917 192.803C216.191 192.803 215.625 192.958 215.221 193.269C214.823 193.579 214.623 194.013 214.623 194.569C214.623 195.038 214.84 195.431 215.274 195.747C215.707 196.058 216.422 196.362 217.418 196.661C218.414 196.954 219.214 197.291 219.818 197.672C220.421 198.047 220.864 198.48 221.145 198.973C221.426 199.459 221.567 200.03 221.567 200.687C221.567 201.753 221.157 202.603 220.336 203.235C219.522 203.862 218.414 204.176 217.014 204.176C216.088 204.176 215.236 204.006 214.456 203.666C213.683 203.32 213.08 202.846 212.646 202.242C212.218 201.639 212.004 200.936 212.004 200.133H214.228C214.228 200.859 214.468 201.422 214.949 201.82C215.429 202.219 216.118 202.418 217.014 202.418C217.788 202.418 218.368 202.263 218.754 201.952C219.147 201.636 219.343 201.22 219.343 200.704Z" fill="#424242"/>
<path d="M160.083 71.9762V67.1441C160.096 64.9577 159.222 62.8553 157.663 61.3223C156.156 59.8215 154.183 59 152.094 59C152.061 59 152.023 59 151.99 59C147.533 59.0065 143.911 62.6548 143.911 67.1441V71.9762C142.229 72.1767 141 73.5869 141 75.2946V86.1491C141 87.9927 142.475 89.5128 144.318 89.5128H159.682C161.525 89.5128 163 87.9927 163 86.1491V75.2946C162.994 73.5934 161.764 72.1767 160.083 71.9762ZM145.198 67.1441H145.205C145.205 63.3664 148.251 60.2743 151.997 60.2743H152.003C153.782 60.2679 155.49 60.9729 156.751 62.2279C158.064 63.5281 158.795 65.3005 158.782 67.1441V71.9827H157.359V67.1441C157.372 65.6757 156.79 64.2655 155.749 63.2305C154.765 62.2473 153.433 61.691 152.042 61.691H152.003C149.028 61.691 146.621 64.1361 146.621 67.1376V71.9827H145.198V67.1441ZM156.072 67.1441V71.9827H147.921V67.1441C147.921 64.8542 149.746 62.9912 152.01 62.9912H152.049C153.096 62.9912 154.106 63.4116 154.849 64.1555C155.639 64.9447 156.085 66.025 156.072 67.1441ZM161.764 86.1685C161.764 87.3005 160.846 88.2191 159.714 88.2191H144.344C143.212 88.2191 142.294 87.3005 142.294 86.1685V75.327C142.294 74.1949 143.212 73.2764 144.344 73.2764H159.714C160.846 73.2764 161.764 74.1949 161.764 75.327V86.1685Z" fill="black"/>
<path d="M154.237 80.3465C153.953 79.3439 153.041 78.6582 151.999 78.6582C150.712 78.6582 149.664 79.6997 149.664 80.9934C149.664 82.0349 150.35 82.9469 151.352 83.2316V85.0428C151.352 85.3986 151.643 85.6897 151.999 85.6897C152.355 85.6897 152.646 85.3986 152.646 85.0428V83.2316C153.882 82.8758 154.6 81.582 154.237 80.3465ZM151.999 82.0284C151.424 82.0284 150.958 81.5626 150.958 80.9869C150.958 80.4112 151.424 79.9455 151.999 79.9455C152.575 79.9455 153.041 80.4112 153.041 80.9869C153.041 81.5626 152.575 82.0284 151.999 82.0284Z" fill="black"/>
</g>
</g>
<defs>
<filter id="filter0_d" x="0" y="0" width="304" height="278" filterUnits="userSpaceOnUse" color-interpolation-filters="sRGB">
<feFlood flood-opacity="0" result="BackgroundImageFix"/>
<feColorMatrix in="SourceAlpha" type="matrix" values="0 0 0 0 0 0 0 0 0 0 0 0 0 0 0 0 0 0 127 0"/>
<feOffset dy="4"/>
<feGaussianBlur stdDeviation="2"/>
<feColorMatrix type="matrix" values="0 0 0 0 0 0 0 0 0 0 0 0 0 0 0 0 0 0 0.25 0"/>
<feBlend mode="normal" in2="BackgroundImageFix" result="effect1_dropShadow"/>
<feBlend mode="normal" in="SourceGraphic" in2="effect1_dropShadow" result="shape"/>
</filter>
<clipPath id="clip0">
<rect x="4" width="296" height="270" rx="5" fill="white"/>
</clipPath>
</defs>
</svg>
