<svg width="304" height="278" viewBox="0 0 304 278" fill="none" xmlns="http://www.w3.org/2000/svg">
<g filter="url(#filter0_d)">
<g clip-path="url(#clip0)">
<rect x="4" width="296" height="270" rx="5" fill="white"/>
<path d="M85.7407 136.738C85.5493 136.706 85.342 136.69 85.1187 136.69C84.2892 136.69 83.7264 137.044 83.4302 137.75V143H82.1656V135.604H83.396L83.4165 136.458C83.8312 135.797 84.4191 135.467 85.1802 135.467C85.4263 135.467 85.6131 135.499 85.7407 135.562V136.738ZM90.7523 143.137C89.7497 143.137 88.9339 142.809 88.305 142.152C87.6761 141.492 87.3617 140.61 87.3617 139.507V139.274C87.3617 138.541 87.5007 137.887 87.7787 137.312C88.0612 136.734 88.4532 136.283 88.9545 135.959C89.4603 135.631 90.0072 135.467 90.5951 135.467C91.5567 135.467 92.3041 135.784 92.8373 136.417C93.3705 137.05 93.6371 137.957 93.6371 139.138V139.664H88.6263C88.6446 140.393 88.8565 140.983 89.2621 141.435C89.6722 141.881 90.1918 142.104 90.8207 142.104C91.2673 142.104 91.6455 142.013 91.9554 141.831C92.2653 141.649 92.5365 141.407 92.7689 141.106L93.5414 141.708C92.9216 142.66 91.9919 143.137 90.7523 143.137ZM90.5951 136.506C90.0847 136.506 89.6563 136.693 89.3099 137.066C88.9636 137.436 88.7494 137.955 88.6673 138.625H92.3724V138.529C92.336 137.887 92.1628 137.39 91.8529 137.039C91.543 136.684 91.1237 136.506 90.5951 136.506ZM100.638 133.573C100.073 133.482 99.6171 133.437 99.2707 133.437C98.3592 133.437 97.9035 133.915 97.9035 134.872V135.604H99.4826V136.581H97.9035V143H96.6389V136.581H95.4699V135.604H96.6389V134.797C96.6434 134.008 96.8645 133.405 97.302 132.985C97.7395 132.566 98.3615 132.356 99.1682 132.356C99.6285 132.356 100.54 132.495 101.903 132.773V143H100.638V133.573ZM107.953 143.137C106.951 143.137 106.135 142.809 105.506 142.152C104.877 141.492 104.563 140.61 104.563 139.507V139.274C104.563 138.541 104.702 137.887 104.98 137.312C105.262 136.734 105.654 136.283 106.155 135.959C106.661 135.631 107.208 135.467 107.796 135.467C108.758 135.467 109.505 135.784 110.038 136.417C110.571 137.05 110.838 137.957 110.838 139.138V139.664H105.827C105.845 140.393 106.057 140.983 106.463 141.435C106.873 141.881 107.393 142.104 108.022 142.104C108.468 142.104 108.846 142.013 109.156 141.831C109.466 141.649 109.737 141.407 109.97 141.106L110.742 141.708C110.122 142.66 109.193 143.137 107.953 143.137ZM107.796 136.506C107.286 136.506 106.857 136.693 106.511 137.066C106.164 137.436 105.95 137.955 105.868 138.625H109.573V138.529C109.537 137.887 109.364 137.39 109.054 137.039C108.744 136.684 108.325 136.506 107.796 136.506ZM116.184 142.104C116.636 142.104 117.03 141.968 117.367 141.694C117.704 141.421 117.891 141.079 117.928 140.669H119.124C119.101 141.093 118.955 141.496 118.686 141.879C118.418 142.262 118.058 142.567 117.606 142.795C117.16 143.023 116.686 143.137 116.184 143.137C115.177 143.137 114.375 142.802 113.778 142.132C113.186 141.457 112.89 140.537 112.89 139.37V139.158C112.89 138.438 113.022 137.798 113.286 137.237C113.55 136.677 113.929 136.242 114.421 135.932C114.918 135.622 115.503 135.467 116.178 135.467C117.007 135.467 117.695 135.715 118.242 136.212C118.794 136.709 119.087 137.354 119.124 138.146H117.928C117.891 137.668 117.709 137.276 117.381 136.971C117.057 136.661 116.656 136.506 116.178 136.506C115.535 136.506 115.036 136.738 114.681 137.203C114.33 137.663 114.154 138.331 114.154 139.206V139.445C114.154 140.298 114.33 140.954 114.681 141.414C115.031 141.874 115.533 142.104 116.184 142.104ZM123.172 133.812V135.604H124.552V136.581H123.172V141.168C123.172 141.464 123.233 141.688 123.356 141.838C123.479 141.984 123.689 142.057 123.985 142.057C124.131 142.057 124.331 142.029 124.587 141.975V143C124.254 143.091 123.93 143.137 123.616 143.137C123.051 143.137 122.625 142.966 122.338 142.624C122.051 142.282 121.907 141.797 121.907 141.168V136.581H120.56V135.604H121.907V133.812H123.172ZM128.32 143H127.055V135.604H128.32V143ZM126.953 133.642C126.953 133.437 127.014 133.263 127.137 133.122C127.265 132.981 127.452 132.91 127.698 132.91C127.944 132.91 128.131 132.981 128.258 133.122C128.386 133.263 128.45 133.437 128.45 133.642C128.45 133.847 128.386 134.018 128.258 134.154C128.131 134.291 127.944 134.359 127.698 134.359C127.452 134.359 127.265 134.291 127.137 134.154C127.014 134.018 126.953 133.847 126.953 133.642ZM130.925 139.233C130.925 138.509 131.066 137.857 131.349 137.278C131.636 136.7 132.033 136.253 132.538 135.938C133.049 135.624 133.63 135.467 134.282 135.467C135.289 135.467 136.102 135.815 136.722 136.513C137.346 137.21 137.659 138.137 137.659 139.295V139.384C137.659 140.104 137.52 140.751 137.242 141.325C136.968 141.895 136.574 142.339 136.059 142.658C135.549 142.977 134.961 143.137 134.295 143.137C133.293 143.137 132.479 142.788 131.855 142.091C131.235 141.394 130.925 140.471 130.925 139.322V139.233ZM132.197 139.384C132.197 140.204 132.386 140.863 132.764 141.359C133.147 141.856 133.657 142.104 134.295 142.104C134.938 142.104 135.448 141.854 135.827 141.353C136.205 140.847 136.394 140.14 136.394 139.233C136.394 138.422 136.2 137.766 135.813 137.265C135.43 136.759 134.92 136.506 134.282 136.506C133.657 136.506 133.154 136.754 132.771 137.251C132.388 137.748 132.197 138.459 132.197 139.384ZM141.351 135.604L141.392 136.533C141.957 135.822 142.695 135.467 143.607 135.467C145.17 135.467 145.958 136.349 145.972 138.112V143H144.707V138.105C144.703 137.572 144.58 137.178 144.338 136.923C144.101 136.668 143.73 136.54 143.224 136.54C142.814 136.54 142.454 136.649 142.144 136.868C141.834 137.087 141.592 137.374 141.419 137.729V143H140.155V135.604H141.351ZM152.837 139.233C152.837 138.509 152.978 137.857 153.261 137.278C153.548 136.7 153.944 136.253 154.45 135.938C154.961 135.624 155.542 135.467 156.193 135.467C157.2 135.467 158.014 135.815 158.634 136.513C159.258 137.21 159.57 138.137 159.57 139.295V139.384C159.57 140.104 159.431 140.751 159.153 141.325C158.88 141.895 158.486 142.339 157.971 142.658C157.46 142.977 156.872 143.137 156.207 143.137C155.204 143.137 154.391 142.788 153.767 142.091C153.147 141.394 152.837 140.471 152.837 139.322V139.233ZM154.108 139.384C154.108 140.204 154.297 140.863 154.676 141.359C155.059 141.856 155.569 142.104 156.207 142.104C156.85 142.104 157.36 141.854 157.738 141.353C158.116 140.847 158.306 140.14 158.306 139.233C158.306 138.422 158.112 137.766 157.725 137.265C157.342 136.759 156.831 136.506 156.193 136.506C155.569 136.506 155.065 136.754 154.683 137.251C154.3 137.748 154.108 138.459 154.108 139.384ZM163.262 135.604L163.303 136.533C163.869 135.822 164.607 135.467 165.518 135.467C167.081 135.467 167.87 136.349 167.884 138.112V143H166.619V138.105C166.614 137.572 166.491 137.178 166.25 136.923C166.013 136.668 165.641 136.54 165.136 136.54C164.725 136.54 164.365 136.649 164.055 136.868C163.746 137.087 163.504 137.374 163.331 137.729V143H162.066V135.604H163.262ZM178.05 142.104C178.501 142.104 178.896 141.968 179.233 141.694C179.57 141.421 179.757 141.079 179.793 140.669H180.99C180.967 141.093 180.821 141.496 180.552 141.879C180.283 142.262 179.923 142.567 179.472 142.795C179.025 143.023 178.552 143.137 178.05 143.137C177.043 143.137 176.241 142.802 175.644 142.132C175.052 141.457 174.755 140.537 174.755 139.37V139.158C174.755 138.438 174.887 137.798 175.152 137.237C175.416 136.677 175.794 136.242 176.287 135.932C176.783 135.622 177.369 135.467 178.043 135.467C178.873 135.467 179.561 135.715 180.108 136.212C180.659 136.709 180.953 137.354 180.99 138.146H179.793C179.757 137.668 179.575 137.276 179.247 136.971C178.923 136.661 178.522 136.506 178.043 136.506C177.401 136.506 176.902 136.738 176.546 137.203C176.195 137.663 176.02 138.331 176.02 139.206V139.445C176.02 140.298 176.195 140.954 176.546 141.414C176.897 141.874 177.399 142.104 178.05 142.104ZM182.987 139.233C182.987 138.509 183.128 137.857 183.41 137.278C183.698 136.7 184.094 136.253 184.6 135.938C185.11 135.624 185.691 135.467 186.343 135.467C187.35 135.467 188.164 135.815 188.783 136.513C189.408 137.21 189.72 138.137 189.72 139.295V139.384C189.72 140.104 189.581 140.751 189.303 141.325C189.03 141.895 188.635 142.339 188.12 142.658C187.61 142.977 187.022 143.137 186.357 143.137C185.354 143.137 184.541 142.788 183.916 142.091C183.296 141.394 182.987 140.471 182.987 139.322V139.233ZM184.258 139.384C184.258 140.204 184.447 140.863 184.825 141.359C185.208 141.856 185.719 142.104 186.357 142.104C186.999 142.104 187.51 141.854 187.888 141.353C188.266 140.847 188.455 140.14 188.455 139.233C188.455 138.422 188.262 137.766 187.874 137.265C187.491 136.759 186.981 136.506 186.343 136.506C185.719 136.506 185.215 136.754 184.832 137.251C184.449 137.748 184.258 138.459 184.258 139.384ZM191.908 139.24C191.908 138.105 192.177 137.194 192.715 136.506C193.253 135.813 193.957 135.467 194.827 135.467C195.693 135.467 196.379 135.763 196.885 136.355V132.5H198.15V143H196.987L196.926 142.207C196.42 142.827 195.716 143.137 194.814 143.137C193.957 143.137 193.257 142.786 192.715 142.084C192.177 141.382 191.908 140.466 191.908 139.336V139.24ZM193.173 139.384C193.173 140.222 193.346 140.879 193.693 141.353C194.039 141.826 194.517 142.063 195.128 142.063C195.93 142.063 196.516 141.703 196.885 140.983V137.586C196.507 136.889 195.926 136.54 195.142 136.54C194.522 136.54 194.039 136.779 193.693 137.258C193.346 137.736 193.173 138.445 193.173 139.384ZM202.402 143H201.138V135.604H202.402V143ZM201.035 133.642C201.035 133.437 201.097 133.263 201.22 133.122C201.347 132.981 201.534 132.91 201.78 132.91C202.026 132.91 202.213 132.981 202.341 133.122C202.468 133.263 202.532 133.437 202.532 133.642C202.532 133.847 202.468 134.018 202.341 134.154C202.213 134.291 202.026 134.359 201.78 134.359C201.534 134.359 201.347 134.291 201.22 134.154C201.097 134.018 201.035 133.847 201.035 133.642ZM206.539 135.604L206.58 136.533C207.145 135.822 207.883 135.467 208.795 135.467C210.358 135.467 211.146 136.349 211.16 138.112V143H209.895V138.105C209.891 137.572 209.768 137.178 209.526 136.923C209.289 136.668 208.918 136.54 208.412 136.54C208.002 136.54 207.642 136.649 207.332 136.868C207.022 137.087 206.78 137.374 206.607 137.729V143H205.343V135.604H206.539ZM213.676 139.24C213.676 138.087 213.943 137.171 214.476 136.492C215.009 135.809 215.716 135.467 216.595 135.467C217.498 135.467 218.202 135.786 218.708 136.424L218.769 135.604H219.924V142.822C219.924 143.779 219.64 144.534 219.07 145.085C218.505 145.636 217.744 145.912 216.787 145.912C216.254 145.912 215.732 145.798 215.221 145.57C214.711 145.342 214.321 145.03 214.052 144.634L214.709 143.875C215.251 144.545 215.914 144.88 216.698 144.88C217.313 144.88 217.792 144.707 218.133 144.36C218.48 144.014 218.653 143.526 218.653 142.897V142.262C218.147 142.845 217.457 143.137 216.582 143.137C215.716 143.137 215.014 142.788 214.476 142.091C213.943 141.394 213.676 140.443 213.676 139.24ZM214.948 139.384C214.948 140.218 215.119 140.874 215.461 141.353C215.802 141.826 216.281 142.063 216.896 142.063C217.694 142.063 218.279 141.701 218.653 140.977V137.6C218.266 136.893 217.685 136.54 216.91 136.54C216.295 136.54 215.814 136.779 215.467 137.258C215.121 137.736 214.948 138.445 214.948 139.384ZM97.0118 154.604L97.046 155.424C97.5883 154.786 98.3198 154.467 99.2404 154.467C100.275 154.467 100.979 154.863 101.353 155.656C101.599 155.301 101.918 155.014 102.31 154.795C102.706 154.576 103.173 154.467 103.711 154.467C105.333 154.467 106.158 155.326 106.186 157.044V162H104.921V157.119C104.921 156.59 104.8 156.196 104.559 155.937C104.317 155.672 103.912 155.54 103.342 155.54C102.873 155.54 102.483 155.681 102.173 155.964C101.863 156.242 101.683 156.618 101.633 157.092V162H100.361V157.153C100.361 156.078 99.8351 155.54 98.7823 155.54C97.9529 155.54 97.3855 155.893 97.0802 156.6V162H95.8155V154.604H97.0118ZM111.43 160.147L113.152 154.604H114.506L111.532 163.142C111.072 164.372 110.34 164.987 109.338 164.987L109.099 164.967L108.627 164.878V163.853L108.969 163.88C109.397 163.88 109.73 163.793 109.967 163.62C110.208 163.447 110.407 163.13 110.561 162.67L110.842 161.918L108.203 154.604H109.584L111.43 160.147ZM120.598 158.233C120.598 157.509 120.74 156.857 121.022 156.278C121.309 155.7 121.706 155.253 122.212 154.938C122.722 154.624 123.303 154.467 123.955 154.467C124.962 154.467 125.775 154.815 126.395 155.513C127.02 156.21 127.332 157.137 127.332 158.295V158.384C127.332 159.104 127.193 159.751 126.915 160.325C126.641 160.895 126.247 161.339 125.732 161.658C125.222 161.977 124.634 162.137 123.968 162.137C122.966 162.137 122.152 161.788 121.528 161.091C120.908 160.394 120.598 159.471 120.598 158.322V158.233ZM121.87 158.384C121.87 159.204 122.059 159.863 122.437 160.359C122.82 160.856 123.33 161.104 123.968 161.104C124.611 161.104 125.121 160.854 125.5 160.353C125.878 159.847 126.067 159.14 126.067 158.233C126.067 157.422 125.873 156.766 125.486 156.265C125.103 155.759 124.593 155.506 123.955 155.506C123.33 155.506 122.827 155.754 122.444 156.251C122.061 156.748 121.87 157.459 121.87 158.384ZM136.376 160.257L137.798 154.604H139.063L136.91 162H135.884L134.086 156.395L132.336 162H131.311L129.165 154.604H130.422L131.878 160.141L133.601 154.604H134.62L136.376 160.257ZM142.461 154.604L142.502 155.533C143.067 154.822 143.806 154.467 144.717 154.467C146.28 154.467 147.069 155.349 147.082 157.112V162H145.818V157.105C145.813 156.572 145.69 156.178 145.449 155.923C145.212 155.668 144.84 155.54 144.334 155.54C143.924 155.54 143.564 155.649 143.254 155.868C142.944 156.087 142.703 156.374 142.53 156.729V162H141.265V154.604H142.461ZM160.831 160.257L162.253 154.604H163.518L161.364 162H160.339L158.541 156.395L156.791 162H155.766L153.619 154.604H154.877L156.333 160.141L158.056 154.604H159.074L160.831 160.257ZM168.789 162.137C167.786 162.137 166.971 161.809 166.342 161.152C165.713 160.492 165.398 159.61 165.398 158.507V158.274C165.398 157.541 165.537 156.887 165.815 156.312C166.098 155.734 166.49 155.283 166.991 154.959C167.497 154.631 168.044 154.467 168.632 154.467C169.593 154.467 170.341 154.784 170.874 155.417C171.407 156.05 171.674 156.957 171.674 158.138V158.664H166.663C166.681 159.393 166.893 159.983 167.299 160.435C167.709 160.881 168.228 161.104 168.857 161.104C169.304 161.104 169.682 161.013 169.992 160.831C170.302 160.649 170.573 160.407 170.806 160.106L171.578 160.708C170.958 161.66 170.028 162.137 168.789 162.137ZM168.632 155.506C168.121 155.506 167.693 155.693 167.347 156.066C167 156.436 166.786 156.955 166.704 157.625H170.409V157.529C170.373 156.887 170.199 156.39 169.889 156.039C169.58 155.684 169.16 155.506 168.632 155.506ZM178.36 160.038C178.36 159.696 178.23 159.432 177.97 159.245C177.715 159.054 177.266 158.89 176.624 158.753C175.986 158.616 175.478 158.452 175.099 158.261C174.726 158.069 174.448 157.841 174.265 157.577C174.088 157.313 173.999 156.998 173.999 156.634C173.999 156.028 174.254 155.515 174.764 155.096C175.279 154.676 175.936 154.467 176.733 154.467C177.572 154.467 178.251 154.683 178.77 155.116C179.294 155.549 179.556 156.103 179.556 156.777H178.285C178.285 156.431 178.137 156.132 177.841 155.882C177.549 155.631 177.18 155.506 176.733 155.506C176.273 155.506 175.913 155.606 175.653 155.807C175.393 156.007 175.263 156.269 175.263 156.593C175.263 156.898 175.384 157.128 175.626 157.283C175.867 157.438 176.302 157.586 176.931 157.728C177.565 157.869 178.077 158.037 178.469 158.233C178.861 158.429 179.151 158.666 179.338 158.944C179.529 159.218 179.625 159.553 179.625 159.949C179.625 160.61 179.36 161.141 178.832 161.542C178.303 161.938 177.617 162.137 176.774 162.137C176.182 162.137 175.658 162.032 175.202 161.822C174.746 161.613 174.388 161.321 174.129 160.947C173.873 160.569 173.746 160.161 173.746 159.724H175.01C175.033 160.147 175.202 160.485 175.516 160.735C175.835 160.981 176.255 161.104 176.774 161.104C177.253 161.104 177.635 161.009 177.923 160.817C178.214 160.621 178.36 160.362 178.36 160.038ZM188.444 158.384C188.444 159.514 188.184 160.423 187.665 161.111C187.145 161.795 186.448 162.137 185.573 162.137C184.639 162.137 183.916 161.806 183.406 161.146L183.344 162H182.182V151.5H183.447V155.417C183.957 154.784 184.661 154.467 185.559 154.467C186.457 154.467 187.161 154.806 187.671 155.485C188.186 156.164 188.444 157.094 188.444 158.274V158.384ZM187.179 158.24C187.179 157.379 187.013 156.714 186.68 156.244C186.348 155.775 185.869 155.54 185.245 155.54C184.411 155.54 183.811 155.927 183.447 156.702V159.901C183.834 160.676 184.438 161.063 185.258 161.063C185.864 161.063 186.336 160.829 186.673 160.359C187.011 159.89 187.179 159.184 187.179 158.24ZM192.327 162H191.063V154.604H192.327V162ZM190.96 152.642C190.96 152.437 191.022 152.263 191.145 152.122C191.272 151.981 191.459 151.91 191.705 151.91C191.952 151.91 192.138 151.981 192.266 152.122C192.394 152.263 192.457 152.437 192.457 152.642C192.457 152.847 192.394 153.018 192.266 153.154C192.138 153.291 191.952 153.359 191.705 153.359C191.459 153.359 191.272 153.291 191.145 153.154C191.022 153.018 190.96 152.847 190.96 152.642ZM196.984 152.812V154.604H198.364V155.581H196.984V160.168C196.984 160.464 197.045 160.688 197.168 160.838C197.291 160.984 197.501 161.057 197.797 161.057C197.943 161.057 198.143 161.029 198.399 160.975V162C198.066 162.091 197.742 162.137 197.428 162.137C196.863 162.137 196.437 161.966 196.15 161.624C195.863 161.282 195.719 160.797 195.719 160.168V155.581H194.372V154.604H195.719V152.812H196.984ZM203.827 162.137C202.825 162.137 202.009 161.809 201.38 161.152C200.751 160.492 200.437 159.61 200.437 158.507V158.274C200.437 157.541 200.576 156.887 200.854 156.312C201.136 155.734 201.528 155.283 202.029 154.959C202.535 154.631 203.082 154.467 203.67 154.467C204.632 154.467 205.379 154.784 205.912 155.417C206.445 156.05 206.712 156.957 206.712 158.138V158.664H201.701C201.719 159.393 201.931 159.983 202.337 160.435C202.747 160.881 203.267 161.104 203.896 161.104C204.342 161.104 204.72 161.013 205.03 160.831C205.34 160.649 205.611 160.407 205.844 160.106L206.616 160.708C205.996 161.66 205.067 162.137 203.827 162.137ZM203.67 155.506C203.16 155.506 202.731 155.693 202.385 156.066C202.038 156.436 201.824 156.955 201.742 157.625H205.447V157.529C205.411 156.887 205.238 156.39 204.928 156.039C204.618 155.684 204.199 155.506 203.67 155.506ZM103.489 180.104C103.94 180.104 104.335 179.968 104.672 179.694C105.009 179.421 105.196 179.079 105.232 178.669H106.429C106.406 179.093 106.26 179.496 105.991 179.879C105.722 180.262 105.362 180.567 104.911 180.795C104.465 181.023 103.991 181.137 103.489 181.137C102.482 181.137 101.68 180.802 101.083 180.132C100.491 179.457 100.194 178.537 100.194 177.37V177.158C100.194 176.438 100.327 175.798 100.591 175.237C100.855 174.677 101.233 174.242 101.726 173.932C102.222 173.622 102.808 173.467 103.482 173.467C104.312 173.467 105 173.715 105.547 174.212C106.098 174.709 106.392 175.354 106.429 176.146H105.232C105.196 175.668 105.014 175.276 104.686 174.971C104.362 174.661 103.961 174.506 103.482 174.506C102.84 174.506 102.341 174.738 101.985 175.203C101.634 175.663 101.459 176.331 101.459 177.206V177.445C101.459 178.298 101.634 178.954 101.985 179.414C102.336 179.874 102.838 180.104 103.489 180.104ZM108.426 177.233C108.426 176.509 108.567 175.857 108.849 175.278C109.137 174.7 109.533 174.253 110.039 173.938C110.549 173.624 111.13 173.467 111.782 173.467C112.789 173.467 113.603 173.815 114.223 174.513C114.847 175.21 115.159 176.137 115.159 177.295V177.384C115.159 178.104 115.02 178.751 114.742 179.325C114.469 179.895 114.074 180.339 113.559 180.658C113.049 180.977 112.461 181.137 111.796 181.137C110.793 181.137 109.98 180.788 109.355 180.091C108.736 179.394 108.426 178.471 108.426 177.322V177.233ZM109.697 177.384C109.697 178.204 109.886 178.863 110.265 179.359C110.647 179.856 111.158 180.104 111.796 180.104C112.438 180.104 112.949 179.854 113.327 179.353C113.705 178.847 113.894 178.14 113.894 177.233C113.894 176.422 113.701 175.766 113.313 175.265C112.931 174.759 112.42 174.506 111.782 174.506C111.158 174.506 110.654 174.754 110.271 175.251C109.889 175.748 109.697 176.459 109.697 177.384ZM118.844 173.604L118.879 174.424C119.421 173.786 120.152 173.467 121.073 173.467C122.107 173.467 122.812 173.863 123.185 174.656C123.431 174.301 123.75 174.014 124.142 173.795C124.539 173.576 125.006 173.467 125.544 173.467C127.166 173.467 127.991 174.326 128.018 176.044V181H126.754V176.119C126.754 175.59 126.633 175.196 126.391 174.937C126.15 174.672 125.744 174.54 125.175 174.54C124.705 174.54 124.315 174.681 124.006 174.964C123.696 175.242 123.516 175.618 123.466 176.092V181H122.194V176.153C122.194 175.078 121.668 174.54 120.615 174.54C119.786 174.54 119.218 174.893 118.913 175.6V181H117.648V173.604H118.844ZM132.216 181H130.952V173.604H132.216V181ZM130.849 171.642C130.849 171.437 130.911 171.263 131.034 171.122C131.161 170.981 131.348 170.91 131.594 170.91C131.84 170.91 132.027 170.981 132.155 171.122C132.282 171.263 132.346 171.437 132.346 171.642C132.346 171.847 132.282 172.018 132.155 172.154C132.027 172.291 131.84 172.359 131.594 172.359C131.348 172.359 131.161 172.291 131.034 172.154C130.911 172.018 130.849 171.847 130.849 171.642ZM136.353 173.604L136.394 174.533C136.959 173.822 137.697 173.467 138.609 173.467C140.172 173.467 140.96 174.349 140.974 176.112V181H139.709V176.105C139.705 175.572 139.582 175.178 139.34 174.923C139.103 174.668 138.732 174.54 138.226 174.54C137.816 174.54 137.456 174.649 137.146 174.868C136.836 175.087 136.594 175.374 136.421 175.729V181H135.157V173.604H136.353ZM143.49 177.24C143.49 176.087 143.757 175.171 144.29 174.492C144.823 173.809 145.53 173.467 146.409 173.467C147.312 173.467 148.016 173.786 148.522 174.424L148.583 173.604H149.739V180.822C149.739 181.779 149.454 182.534 148.884 183.085C148.319 183.636 147.558 183.912 146.601 183.912C146.068 183.912 145.546 183.798 145.035 183.57C144.525 183.342 144.135 183.03 143.866 182.634L144.523 181.875C145.065 182.545 145.728 182.88 146.512 182.88C147.127 182.88 147.606 182.707 147.947 182.36C148.294 182.014 148.467 181.526 148.467 180.897V180.262C147.961 180.845 147.271 181.137 146.396 181.137C145.53 181.137 144.828 180.788 144.29 180.091C143.757 179.394 143.49 178.443 143.49 177.24ZM144.762 177.384C144.762 178.218 144.933 178.874 145.275 179.353C145.616 179.826 146.095 180.063 146.71 180.063C147.508 180.063 148.093 179.701 148.467 178.977V175.6C148.08 174.893 147.499 174.54 146.724 174.54C146.109 174.54 145.628 174.779 145.281 175.258C144.935 175.736 144.762 176.445 144.762 177.384ZM161.252 179.038C161.252 178.696 161.122 178.432 160.862 178.245C160.607 178.054 160.158 177.89 159.516 177.753C158.878 177.616 158.369 177.452 157.991 177.261C157.617 177.069 157.339 176.841 157.157 176.577C156.979 176.313 156.891 175.998 156.891 175.634C156.891 175.028 157.146 174.515 157.656 174.096C158.171 173.676 158.827 173.467 159.625 173.467C160.463 173.467 161.143 173.683 161.662 174.116C162.186 174.549 162.448 175.103 162.448 175.777H161.177C161.177 175.431 161.029 175.132 160.732 174.882C160.441 174.631 160.072 174.506 159.625 174.506C159.165 174.506 158.805 174.606 158.545 174.807C158.285 175.007 158.155 175.269 158.155 175.593C158.155 175.898 158.276 176.128 158.518 176.283C158.759 176.438 159.194 176.586 159.823 176.728C160.457 176.869 160.969 177.037 161.361 177.233C161.753 177.429 162.043 177.666 162.229 177.944C162.421 178.218 162.517 178.553 162.517 178.949C162.517 179.61 162.252 180.141 161.724 180.542C161.195 180.938 160.509 181.137 159.666 181.137C159.073 181.137 158.549 181.032 158.094 180.822C157.638 180.613 157.28 180.321 157.02 179.947C156.765 179.569 156.638 179.161 156.638 178.724H157.902C157.925 179.147 158.094 179.485 158.408 179.735C158.727 179.981 159.146 180.104 159.666 180.104C160.144 180.104 160.527 180.009 160.814 179.817C161.106 179.621 161.252 179.362 161.252 179.038ZM164.739 177.233C164.739 176.509 164.88 175.857 165.163 175.278C165.45 174.7 165.846 174.253 166.352 173.938C166.863 173.624 167.444 173.467 168.095 173.467C169.103 173.467 169.916 173.815 170.536 174.513C171.16 175.21 171.472 176.137 171.472 177.295V177.384C171.472 178.104 171.333 178.751 171.055 179.325C170.782 179.895 170.388 180.339 169.873 180.658C169.362 180.977 168.775 181.137 168.109 181.137C167.107 181.137 166.293 180.788 165.669 180.091C165.049 179.394 164.739 178.471 164.739 177.322V177.233ZM166.011 177.384C166.011 178.204 166.2 178.863 166.578 179.359C166.961 179.856 167.471 180.104 168.109 180.104C168.752 180.104 169.262 179.854 169.64 179.353C170.019 178.847 170.208 178.14 170.208 177.233C170.208 176.422 170.014 175.766 169.627 175.265C169.244 174.759 168.733 174.506 168.095 174.506C167.471 174.506 166.968 174.754 166.585 175.251C166.202 175.748 166.011 176.459 166.011 177.384ZM173.633 177.233C173.633 176.509 173.775 175.857 174.057 175.278C174.344 174.7 174.741 174.253 175.247 173.938C175.757 173.624 176.338 173.467 176.99 173.467C177.997 173.467 178.81 173.815 179.43 174.513C180.055 175.21 180.367 176.137 180.367 177.295V177.384C180.367 178.104 180.228 178.751 179.95 179.325C179.676 179.895 179.282 180.339 178.767 180.658C178.257 180.977 177.669 181.137 177.004 181.137C176.001 181.137 175.187 180.788 174.563 180.091C173.943 179.394 173.633 178.471 173.633 177.322V177.233ZM174.905 177.384C174.905 178.204 175.094 178.863 175.472 179.359C175.855 179.856 176.365 180.104 177.004 180.104C177.646 180.104 178.157 179.854 178.535 179.353C178.913 178.847 179.102 178.14 179.102 177.233C179.102 176.422 178.908 175.766 178.521 175.265C178.138 174.759 177.628 174.506 176.99 174.506C176.365 174.506 175.862 174.754 175.479 175.251C175.096 175.748 174.905 176.459 174.905 177.384ZM184.059 173.604L184.1 174.533C184.665 173.822 185.403 173.467 186.315 173.467C187.878 173.467 188.666 174.349 188.68 176.112V181H187.415V176.105C187.411 175.572 187.288 175.178 187.046 174.923C186.809 174.668 186.438 174.54 185.932 174.54C185.522 174.54 185.162 174.649 184.852 174.868C184.542 175.087 184.301 175.374 184.127 175.729V181H182.863V173.604H184.059ZM191.525 180.337C191.525 180.118 191.588 179.936 191.716 179.79C191.848 179.644 192.044 179.571 192.304 179.571C192.564 179.571 192.76 179.644 192.892 179.79C193.029 179.936 193.097 180.118 193.097 180.337C193.097 180.547 193.029 180.722 192.892 180.863C192.76 181.005 192.564 181.075 192.304 181.075C192.044 181.075 191.848 181.005 191.716 180.863C191.588 180.722 191.525 180.547 191.525 180.337ZM196.126 180.337C196.126 180.118 196.19 179.936 196.317 179.79C196.45 179.644 196.646 179.571 196.905 179.571C197.165 179.571 197.361 179.644 197.493 179.79C197.63 179.936 197.698 180.118 197.698 180.337C197.698 180.547 197.63 180.722 197.493 180.863C197.361 181.005 197.165 181.075 196.905 181.075C196.646 181.075 196.45 181.005 196.317 180.863C196.19 180.722 196.126 180.547 196.126 180.337ZM200.728 180.337C200.728 180.118 200.791 179.936 200.919 179.79C201.051 179.644 201.247 179.571 201.507 179.571C201.767 179.571 201.963 179.644 202.095 179.79C202.231 179.936 202.3 180.118 202.3 180.337C202.3 180.547 202.231 180.722 202.095 180.863C201.963 181.005 201.767 181.075 201.507 181.075C201.247 181.075 201.051 181.005 200.919 180.863C200.791 180.722 200.728 180.547 200.728 180.337Z" fill="black"/>
<path d="M168.131 102.013C168.131 111.024 160.826 118.329 151.815 118.329C142.805 118.329 135.5 111.024 135.5 102.013C135.5 97.5323 137.302 94.6401 140.19 92.84C143.116 91.016 147.209 90.2832 151.815 90.2832C156.422 90.2832 160.515 91.016 163.441 92.84C166.329 94.6401 168.131 97.5323 168.131 102.013Z" stroke="#6B6B6B"/>
<path d="M165.989 101.274C165.989 108.329 160.26 114.049 153.19 114.049C146.12 114.049 140.391 108.329 140.391 101.274C140.391 97.7713 141.798 95.5229 144.05 94.1219C146.34 92.697 149.554 92.1191 153.19 92.1191C156.826 92.1191 160.04 92.697 162.33 94.1219C164.582 95.5229 165.989 97.7713 165.989 101.274Z" fill="#B13108" stroke="#6B6B6B"/>
<path d="M153.499 84.8932C151.512 84.5874 146.467 85.3522 149.983 87.339C153.499 89.3259 157.625 101.249 157.625 101.249C157.625 101.249 155.486 85.1989 153.499 84.8932Z" stroke="#6B6B6B"/>
</g>
</g>
<defs>
<filter id="filter0_d" x="0" y="0" width="304" height="278" filterUnits="userSpaceOnUse" color-interpolation-filters="sRGB">
<feFlood flood-opacity="0" result="BackgroundImageFix"/>
<feColorMatrix in="SourceAlpha" type="matrix" values="0 0 0 0 0 0 0 0 0 0 0 0 0 0 0 0 0 0 127 0"/>
<feOffset dy="4"/>
<feGaussianBlur stdDeviation="2"/>
<feColorMatrix type="matrix" values="0 0 0 0 0 0 0 0 0 0 0 0 0 0 0 0 0 0 0.25 0"/>
<feBlend mode="normal" in2="BackgroundImageFix" result="effect1_dropShadow"/>
<feBlend mode="normal" in="SourceGraphic" in2="effect1_dropShadow" result="shape"/>
</filter>
<clipPath id="clip0">
<rect x="4" width="296" height="270" rx="5" fill="white"/>
</clipPath>
</defs>
</svg>
