<svg width="304" height="278" viewBox="0 0 304 278" fill="none" xmlns="http://www.w3.org/2000/svg">
<g filter="url(#filter0_d)">
<g clip-path="url(#clip0)">
<rect x="4" width="296" height="270" rx="5" fill="white"/>
<g opacity="0.5">
<path d="M157.093 182.813L133.384 174.516C123.923 171.204 113.525 171.868 104.561 176.355C95.5984 180.842 88.8355 188.769 85.8173 198.328L79.6139 217.973L73.5065 222.553V181.527C73.4995 176.06 76.2339 170.951 80.787 167.924L77.624 163.182C71.4846 167.266 67.7984 174.153 67.8068 181.527V187.173L64.122 183.488L60.0922 187.518L67.8068 195.233V257.841L62.1071 254.991V249.128C62.1057 234.792 55.2135 221.328 43.5831 212.945C31.9513 204.564 17.0008 202.283 3.40002 206.818L-10.0393 211.298C-11.2096 211.683 -12 212.774 -12 214.006C-12 215.237 -11.2096 216.328 -10.0393 216.714L-6.98772 217.731C7.64 222.595 21.2895 230.017 33.3234 239.653L57.4761 258.975C57.6389 259.089 57.8156 259.185 58.0007 259.26L57.9826 259.298L67.8068 264.215V271.003H73.5065V229.678L83.7648 221.982L83.7342 221.943C83.8511 221.875 83.9638 221.8 84.071 221.718C102.118 203.729 125.621 192.233 150.899 189.031L156.505 188.331C157.818 188.165 158.843 187.119 158.984 185.803C159.124 184.488 158.341 183.25 157.093 182.813V182.813Z" fill="#3D7606"/>
<path d="M97.6402 124.137L96.3044 102.675C96.2195 101.325 95.1981 100.22 93.8581 100.029C92.5222 99.8511 91.2406 100.626 90.7786 101.894L81.5612 127.691C78.1144 137.328 76.3527 147.487 76.3555 157.722V165.551C76.3555 166.704 77.0498 167.743 78.1144 168.184C79.1789 168.624 80.4048 168.38 81.2202 167.566C92.6669 156.115 98.6477 140.299 97.6402 124.137Z" fill="#5FA819"/>
<path d="M30.5669 137.781L11.7103 131.512C10.7363 131.187 9.66201 131.411 8.89807 132.098C8.13551 132.787 7.80154 133.832 8.02558 134.835L11.1607 148.977C16.1799 172.051 36.6562 188.468 60.269 188.352H62.1072C63.681 188.352 64.9571 187.076 64.9571 185.502C64.9752 163.846 51.1156 144.616 30.5669 137.781Z" fill="#5FA819"/>
<path d="M44.5778 175.811C33.6571 169.09 24.7055 159.604 18.6245 148.314L9.63662 131.615C8.39399 132.151 7.71354 133.501 8.02385 134.819L11.159 148.96C16.1726 172.041 36.6503 188.465 60.2673 188.351H62.1055C62.7539 188.34 63.3773 188.104 63.8713 187.684L44.5778 175.811Z" fill="#589C17"/>
<path d="M105.475 196.046C99.4704 200.333 94.7239 206.15 91.7279 212.892L90.4102 215.857C107.518 201.192 128.546 191.863 150.898 189.024L156.328 188.352H129.499C120.885 188.349 112.485 191.04 105.475 196.046V196.046Z" fill="#589C17"/>
<path d="M60.7504 260.682L60.6933 260.369C55.0256 229.192 26.6552 207.383 -4.92966 209.924L-6.25578 210.029L-10.0393 211.292C-11.2096 211.677 -12 212.768 -12 214C-12 215.231 -11.2096 216.322 -10.0393 216.706L-6.98773 217.725C7.63999 222.59 21.2895 230.013 33.3234 239.65L57.4761 258.972C57.6389 259.086 57.8156 259.182 58.0007 259.257L57.9826 259.295L60.7504 260.682Z" fill="#589C17"/>
<path d="M157.093 182.813L133.384 174.516C123.923 171.204 113.525 171.868 104.561 176.355C95.5984 180.842 88.8355 188.769 85.8173 198.328L79.6139 217.973L73.5065 222.553V181.527C73.4995 176.06 76.2339 170.951 80.787 167.924L77.624 163.182C71.4846 167.266 67.7984 174.153 67.8068 181.527V187.173L64.122 183.488L60.0922 187.518L67.8068 195.233V257.841L62.1071 254.991V249.128C62.1057 234.792 55.2135 221.328 43.5831 212.945C31.9513 204.564 17.0008 202.283 3.40002 206.818L-10.0393 211.298C-11.2096 211.683 -12 212.774 -12 214.006C-12 215.237 -11.2096 216.328 -10.0393 216.714L-6.98772 217.731C7.64 222.595 21.2895 230.017 33.3234 239.653L57.4761 258.975C57.6389 259.089 57.8156 259.185 58.0007 259.26L57.9826 259.298L67.8068 264.215V271.003H73.5065V229.678L83.7648 221.982L83.7342 221.943C83.8511 221.875 83.9638 221.8 84.071 221.718C102.118 203.729 125.621 192.233 150.899 189.031L156.505 188.331C157.818 188.165 158.843 187.119 158.984 185.803C159.124 184.488 158.341 183.25 157.093 182.813V182.813Z" fill="#3D7606"/>
<path d="M97.6402 124.137L96.3044 102.675C96.2195 101.325 95.1981 100.22 93.8581 100.029C92.5222 99.8511 91.2406 100.626 90.7786 101.894L81.5612 127.691C78.1144 137.328 76.3527 147.487 76.3555 157.722V165.551C76.3555 166.704 77.0498 167.743 78.1144 168.184C79.1789 168.624 80.4048 168.38 81.2202 167.566C92.6669 156.115 98.6477 140.299 97.6402 124.137Z" fill="#5FA819"/>
<path d="M30.5669 137.781L11.7103 131.512C10.7363 131.187 9.66201 131.411 8.89807 132.098C8.13551 132.787 7.80154 133.832 8.02558 134.835L11.1607 148.977C16.1799 172.051 36.6562 188.468 60.269 188.352H62.1072C63.681 188.352 64.9571 187.076 64.9571 185.502C64.9752 163.846 51.1156 144.616 30.5669 137.781Z" fill="#5FA819"/>
<path d="M44.5817 175.811C33.661 169.09 24.7094 159.604 18.6284 148.314L9.64053 131.615C8.3979 132.151 7.71744 133.501 8.02775 134.819L11.1629 148.96C16.1765 172.041 36.6542 188.465 60.2712 188.351H62.1094C62.7578 188.34 63.3812 188.104 63.8752 187.684L44.5817 175.811Z" fill="#589C17"/>
<path d="M105.475 196.046C99.4704 200.333 94.7239 206.15 91.7279 212.892L90.4102 215.857C107.518 201.192 128.546 191.863 150.898 189.024L156.328 188.352H129.499C120.885 188.349 112.485 191.04 105.475 196.046V196.046Z" fill="#589C17"/>
<path d="M60.7504 260.684L60.6933 260.371C55.0256 229.194 26.6552 207.385 -4.92966 209.926L-6.25578 210.031L-10.0393 211.294C-11.2096 211.679 -12 212.77 -12 214.002C-12 215.233 -11.2096 216.324 -10.0393 216.708L-6.98772 217.727C7.63999 222.592 21.2895 230.015 33.3234 239.652L57.4761 258.974C57.6389 259.088 57.8156 259.184 58.0007 259.259L57.9826 259.297L60.7504 260.684Z" fill="#589C17"/>
</g>
<path d="M112.167 110H110.268V101.547H112.167V110ZM110.151 99.3516C110.151 99.0599 110.242 98.8177 110.424 98.625C110.612 98.4323 110.877 98.3359 111.221 98.3359C111.565 98.3359 111.831 98.4323 112.018 98.625C112.206 98.8177 112.299 99.0599 112.299 99.3516C112.299 99.638 112.206 99.8776 112.018 100.07C111.831 100.258 111.565 100.352 111.221 100.352C110.877 100.352 110.612 100.258 110.424 100.07C110.242 99.8776 110.151 99.638 110.151 99.3516ZM117.706 101.547L117.761 102.43C118.354 101.737 119.167 101.391 120.198 101.391C121.328 101.391 122.102 101.823 122.518 102.688C123.133 101.823 123.998 101.391 125.112 101.391C126.044 101.391 126.737 101.648 127.19 102.164C127.649 102.68 127.883 103.44 127.893 104.445V110H125.995V104.5C125.995 103.964 125.878 103.57 125.643 103.32C125.409 103.07 125.021 102.945 124.479 102.945C124.047 102.945 123.693 103.062 123.417 103.297C123.146 103.526 122.956 103.828 122.847 104.203L122.854 110H120.956V104.438C120.93 103.443 120.422 102.945 119.432 102.945C118.672 102.945 118.133 103.255 117.815 103.875V110H115.917V101.547H117.706ZM138.925 105.859C138.925 107.167 138.628 108.211 138.034 108.992C137.441 109.768 136.644 110.156 135.644 110.156C134.717 110.156 133.974 109.852 133.417 109.242V113.25H131.519V101.547H133.269L133.347 102.406C133.904 101.729 134.662 101.391 135.62 101.391C136.652 101.391 137.459 101.776 138.042 102.547C138.631 103.312 138.925 104.378 138.925 105.742V105.859ZM137.034 105.695C137.034 104.852 136.865 104.182 136.527 103.688C136.193 103.193 135.714 102.945 135.089 102.945C134.313 102.945 133.756 103.266 133.417 103.906V107.656C133.761 108.312 134.323 108.641 135.105 108.641C135.709 108.641 136.18 108.398 136.519 107.914C136.862 107.424 137.034 106.685 137.034 105.695ZM146.644 103.281C146.394 103.24 146.136 103.219 145.871 103.219C145.001 103.219 144.415 103.552 144.113 104.219V110H142.214V101.547H144.027L144.074 102.492C144.532 101.758 145.167 101.391 145.98 101.391C146.251 101.391 146.475 101.427 146.652 101.5L146.644 103.281ZM148.887 105.695C148.887 104.867 149.051 104.122 149.379 103.461C149.707 102.794 150.168 102.284 150.762 101.93C151.355 101.57 152.038 101.391 152.808 101.391C153.949 101.391 154.874 101.758 155.582 102.492C156.295 103.227 156.681 104.201 156.738 105.414L156.746 105.859C156.746 106.693 156.584 107.438 156.262 108.094C155.944 108.75 155.486 109.258 154.887 109.617C154.293 109.977 153.605 110.156 152.824 110.156C151.631 110.156 150.676 109.76 149.957 108.969C149.243 108.172 148.887 107.112 148.887 105.789V105.695ZM150.785 105.859C150.785 106.729 150.965 107.411 151.324 107.906C151.683 108.396 152.183 108.641 152.824 108.641C153.465 108.641 153.962 108.391 154.316 107.891C154.676 107.391 154.855 106.659 154.855 105.695C154.855 104.841 154.67 104.164 154.301 103.664C153.936 103.164 153.439 102.914 152.808 102.914C152.189 102.914 151.696 103.161 151.332 103.656C150.967 104.146 150.785 104.88 150.785 105.859ZM162.887 107.594L164.676 101.547H166.637L163.707 110H162.059L159.106 101.547H161.074L162.887 107.594ZM171.528 110H169.629V101.547H171.528V110ZM169.512 99.3516C169.512 99.0599 169.603 98.8177 169.786 98.625C169.973 98.4323 170.239 98.3359 170.582 98.3359C170.926 98.3359 171.192 98.4323 171.379 98.625C171.567 98.8177 171.661 99.0599 171.661 99.3516C171.661 99.638 171.567 99.8776 171.379 100.07C171.192 100.258 170.926 100.352 170.582 100.352C170.239 100.352 169.973 100.258 169.786 100.07C169.603 99.8776 169.512 99.638 169.512 99.3516ZM177.044 101.547L177.098 102.523C177.723 101.768 178.544 101.391 179.559 101.391C181.32 101.391 182.216 102.398 182.247 104.414V110H180.348V104.523C180.348 103.987 180.231 103.591 179.997 103.336C179.768 103.076 179.39 102.945 178.864 102.945C178.098 102.945 177.528 103.292 177.153 103.984V110H175.255V101.547H177.044ZM185.536 105.711C185.536 104.398 185.844 103.352 186.458 102.57C187.078 101.784 187.898 101.391 188.919 101.391C189.883 101.391 190.64 101.727 191.193 102.398L191.278 101.547H192.989V109.742C192.989 110.852 192.643 111.727 191.95 112.367C191.263 113.008 190.333 113.328 189.161 113.328C188.541 113.328 187.935 113.198 187.341 112.938C186.752 112.682 186.304 112.346 185.997 111.93L186.896 110.789C187.479 111.482 188.198 111.828 189.052 111.828C189.682 111.828 190.179 111.656 190.544 111.312C190.909 110.974 191.091 110.474 191.091 109.812V109.242C190.544 109.852 189.815 110.156 188.903 110.156C187.914 110.156 187.104 109.763 186.474 108.977C185.849 108.19 185.536 107.102 185.536 105.711ZM187.427 105.875C187.427 106.724 187.599 107.393 187.943 107.883C188.291 108.367 188.773 108.609 189.388 108.609C190.153 108.609 190.721 108.281 191.091 107.625V103.906C190.732 103.266 190.169 102.945 189.403 102.945C188.778 102.945 188.291 103.193 187.943 103.688C187.599 104.182 187.427 104.911 187.427 105.875Z" fill="#424242"/>
<path d="M113.8 71.7578L115.863 78.188L117.919 71.7578H120.852V81H118.617V78.8418L118.833 74.4238L116.599 81H115.126L112.885 74.4175L113.101 78.8418V81H110.873V71.7578H113.8ZM130.945 76.5693C130.945 77.4707 130.778 78.2684 130.444 78.9624C130.11 79.6564 129.633 80.1917 129.016 80.5684C128.402 80.9408 127.702 81.127 126.915 81.127C126.127 81.127 125.429 80.9471 124.82 80.5874C124.21 80.2235 123.734 79.7051 123.392 79.0322C123.053 78.3594 122.875 77.5871 122.858 76.7153V76.1948C122.858 75.2892 123.023 74.4915 123.354 73.8018C123.688 73.1077 124.164 72.5724 124.782 72.1958C125.404 71.8192 126.111 71.6309 126.902 71.6309C127.685 71.6309 128.383 71.8171 128.997 72.1895C129.61 72.5618 130.086 73.0929 130.425 73.7827C130.768 74.4683 130.941 75.2554 130.945 76.144V76.5693ZM128.679 76.1821C128.679 75.2638 128.525 74.5677 128.216 74.0938C127.911 73.6156 127.473 73.3765 126.902 73.3765C125.785 73.3765 125.194 74.2144 125.131 75.8901L125.125 76.5693C125.125 77.4749 125.275 78.1711 125.575 78.6577C125.876 79.1444 126.322 79.3877 126.915 79.3877C127.477 79.3877 127.911 79.1486 128.216 78.6704C128.521 78.1922 128.675 77.5046 128.679 76.6074V76.1821ZM132.939 81V71.7578H136.259C137.448 71.7578 138.352 71.9757 138.97 72.4116C139.592 72.8475 139.903 73.4801 139.903 74.3096C139.903 74.7878 139.793 75.1961 139.573 75.5347C139.353 75.8732 139.029 76.1229 138.601 76.2837C139.084 76.4106 139.454 76.6476 139.712 76.9946C139.97 77.3416 140.099 77.7648 140.099 78.2642C140.099 79.1698 139.812 79.8511 139.236 80.3081C138.665 80.7609 137.816 80.9915 136.691 81H132.939ZM135.167 77.0708V79.2861H136.627C137.029 79.2861 137.338 79.1951 137.554 79.0132C137.77 78.827 137.878 78.5667 137.878 78.2324C137.878 77.4622 137.495 77.075 136.729 77.0708H135.167ZM135.167 75.6108H136.329C136.816 75.6066 137.163 75.5177 137.37 75.3442C137.577 75.1707 137.681 74.9147 137.681 74.5762C137.681 74.1868 137.569 73.9076 137.345 73.7383C137.12 73.5648 136.758 73.478 136.259 73.478H135.167V75.6108ZM144.55 81H142.328V71.7578H144.55V81ZM149.172 79.2861H153.05V81H146.944V71.7578H149.172V79.2861ZM160.567 77.0835H157.063V79.2861H161.201V81H154.835V71.7578H161.214V73.478H157.063V75.4268H160.567V77.0835ZM172.286 79.2734H169.233L168.699 81H166.319L169.709 71.7578H171.803L175.218 81H172.825L172.286 79.2734ZM169.766 77.5532H171.753L170.756 74.3477L169.766 77.5532ZM178.971 77.8643V81H176.743V71.7578H180.431C181.137 71.7578 181.762 71.889 182.303 72.1514C182.849 72.4095 183.27 72.7798 183.566 73.2622C183.867 73.7404 184.017 74.2842 184.017 74.8936C184.017 75.7949 183.693 76.5164 183.046 77.0581C182.403 77.5955 181.518 77.8643 180.393 77.8643H178.971ZM178.971 76.144H180.431C180.862 76.144 181.19 76.0361 181.415 75.8203C181.643 75.6045 181.757 75.2998 181.757 74.9062C181.757 74.4746 181.641 74.1297 181.408 73.8716C181.175 73.6134 180.858 73.4823 180.456 73.478H178.971V76.144ZM188.283 77.8643V81H186.055V71.7578H189.743C190.45 71.7578 191.074 71.889 191.616 72.1514C192.162 72.4095 192.583 72.7798 192.879 73.2622C193.18 73.7404 193.33 74.2842 193.33 74.8936C193.33 75.7949 193.006 76.5164 192.359 77.0581C191.715 77.5955 190.831 77.8643 189.705 77.8643H188.283ZM188.283 76.144H189.743C190.175 76.144 190.503 76.0361 190.727 75.8203C190.956 75.6045 191.07 75.2998 191.07 74.9062C191.07 74.4746 190.954 74.1297 190.721 73.8716C190.488 73.6134 190.171 73.4823 189.769 73.478H188.283V76.144Z" fill="#424242"/>
<path d="M110.091 139.836L112.06 130.203H114.266L111.313 143H109.186L106.751 133.657L104.264 143H102.128L99.1748 130.203H101.381L103.367 139.818L105.811 130.203H107.674L110.091 139.836ZM134.188 140.021H129.231L128.194 143H125.882L130.716 130.203H132.711L137.554 143H135.234L134.188 140.021ZM129.855 138.228H133.564L131.709 132.919L129.855 138.228ZM157.222 139.704C157.222 139.142 157.022 138.708 156.624 138.403C156.231 138.099 155.52 137.791 154.488 137.48C153.457 137.17 152.637 136.824 152.027 136.443C150.861 135.711 150.278 134.756 150.278 133.578C150.278 132.547 150.697 131.697 151.535 131.029C152.379 130.361 153.472 130.027 154.813 130.027C155.704 130.027 156.498 130.191 157.195 130.52C157.893 130.848 158.44 131.316 158.839 131.926C159.237 132.529 159.437 133.2 159.437 133.938H157.222C157.222 133.271 157.011 132.749 156.589 132.374C156.173 131.993 155.575 131.803 154.796 131.803C154.069 131.803 153.504 131.958 153.1 132.269C152.701 132.579 152.502 133.013 152.502 133.569C152.502 134.038 152.719 134.431 153.152 134.747C153.586 135.058 154.301 135.362 155.297 135.661C156.293 135.954 157.093 136.291 157.696 136.672C158.3 137.047 158.742 137.48 159.023 137.973C159.305 138.459 159.445 139.03 159.445 139.687C159.445 140.753 159.035 141.603 158.215 142.235C157.4 142.862 156.293 143.176 154.893 143.176C153.967 143.176 153.114 143.006 152.335 142.666C151.562 142.32 150.958 141.846 150.524 141.242C150.097 140.639 149.883 139.936 149.883 139.133H152.106C152.106 139.859 152.347 140.422 152.827 140.82C153.308 141.219 153.996 141.418 154.893 141.418C155.666 141.418 156.246 141.263 156.633 140.952C157.025 140.636 157.222 140.22 157.222 139.704ZM182.163 131.996H178.172V143H175.966V131.996H172.011V130.203H182.163V131.996ZM202.85 137.287H197.594V141.225H203.737V143H195.37V130.203H203.676V131.996H197.594V135.529H202.85V137.287ZM89.3455 156.203L93.0369 166.012L96.7195 156.203H99.5936V169H97.3787V164.781L97.5984 159.139L93.8191 169H92.2283L88.4578 159.147L88.6775 164.781V169H86.4627V156.203H89.3455ZM121.072 166.021H116.115L115.077 169H112.766L117.6 156.203H119.595L124.438 169H122.117L121.072 166.021ZM116.739 164.228H120.448L118.593 158.919L116.739 164.228ZM147.568 169H145.344L139.64 159.921V169H137.417V156.203H139.64L145.362 165.317V156.203H147.568V169ZM169.037 166.021H164.08L163.043 169H160.732L165.566 156.203H167.561L172.404 169H170.083L169.037 166.021ZM164.704 164.228H168.413L166.559 158.919L164.704 164.228ZM194.998 167.339C194.535 167.942 193.893 168.399 193.073 168.71C192.253 169.021 191.321 169.176 190.278 169.176C189.206 169.176 188.257 168.933 187.43 168.446C186.604 167.96 185.966 167.266 185.514 166.363C185.069 165.455 184.838 164.397 184.82 163.19V162.188C184.82 160.255 185.283 158.746 186.209 157.662C187.134 156.572 188.426 156.027 190.085 156.027C191.509 156.027 192.639 156.379 193.477 157.082C194.315 157.785 194.819 158.799 194.989 160.123H192.809C192.563 158.582 191.67 157.812 190.129 157.812C189.133 157.812 188.374 158.172 187.852 158.893C187.337 159.607 187.07 160.659 187.052 162.048V163.032C187.052 164.415 187.342 165.49 187.923 166.258C188.509 167.02 189.32 167.4 190.357 167.4C191.494 167.4 192.302 167.143 192.783 166.627V164.122H190.146V162.435H194.998V167.339ZM216.441 163.287H211.185V167.225H217.328V169H208.961V156.203H217.267V157.996H211.185V161.529H216.441V163.287ZM113.706 182.203L117.398 192.012L121.08 182.203H123.954V195H121.74V190.781L121.959 185.139L118.18 195H116.589L112.819 185.147L113.038 190.781V195H110.824V182.203H113.706ZM145.591 189.287H140.335V193.225H146.478V195H138.111V182.203H146.417V183.996H140.335V187.529H145.591V189.287ZM169.96 195H167.737L162.032 185.921V195H159.809V182.203H162.032L167.754 191.317V182.203H169.96V195ZM193.091 183.996H189.1V195H186.894V183.996H182.939V182.203H193.091V183.996Z" fill="#424242"/>
<path d="M159.985 236.07L147.368 231.655C142.333 229.892 136.8 230.246 132.03 232.633C127.26 235.021 123.661 239.24 122.055 244.327L118.754 254.781L115.504 257.218V235.386C115.5 232.476 116.955 229.758 119.378 228.147L117.695 225.623C114.428 227.797 112.466 231.462 112.47 235.386V238.39L110.509 236.429L108.365 238.574L112.47 242.68V275.997L109.437 274.481V271.361C109.436 263.732 105.769 256.567 99.5794 252.105C93.3893 247.645 85.4332 246.431 78.1953 248.845L71.0434 251.229C70.4206 251.434 70 252.014 70 252.67C70 253.325 70.4206 253.906 71.0434 254.111L72.6674 254.652C80.4517 257.241 87.7155 261.191 94.1195 266.318L106.973 276.601C107.059 276.662 107.153 276.713 107.252 276.753L107.242 276.773L112.47 279.389V283.002H115.504V261.01L120.963 256.915L120.946 256.894C121.009 256.858 121.069 256.818 121.126 256.774C130.729 247.201 143.237 241.083 156.689 239.379L159.673 239.006C160.371 238.918 160.917 238.361 160.991 237.662C161.066 236.962 160.649 236.303 159.985 236.07V236.07Z" fill="#3D7606"/>
<path d="M128.347 204.845L127.636 193.423C127.59 192.705 127.047 192.117 126.334 192.015C125.623 191.921 124.941 192.333 124.695 193.008L119.79 206.736C117.956 211.865 117.018 217.271 117.02 222.718V226.884C117.02 227.497 117.389 228.05 117.956 228.285C118.522 228.519 119.174 228.39 119.608 227.956C125.7 221.862 128.883 213.446 128.347 204.845Z" fill="#5FA819"/>
<path d="M92.6533 212.106L82.6185 208.77C82.1001 208.596 81.5284 208.716 81.1219 209.081C80.7161 209.448 80.5383 210.004 80.6576 210.538L82.326 218.064C84.997 230.343 95.8938 239.079 108.46 239.018H109.438C110.275 239.018 110.954 238.339 110.954 237.501C110.964 225.977 103.589 215.743 92.6533 212.106Z" fill="#5FA819"/>
<path d="M100.11 232.344C94.298 228.767 89.5343 223.719 86.2982 217.711L81.5152 208.824C80.8539 209.109 80.4918 209.828 80.6569 210.529L82.3253 218.055C84.9934 230.337 95.8909 239.078 108.459 239.017H109.437C109.782 239.011 110.114 238.886 110.377 238.662L100.11 232.344Z" fill="#589C17"/>
<path d="M132.517 243.112C129.322 245.394 126.796 248.489 125.201 252.077L124.5 253.655C133.604 245.851 144.795 240.886 156.69 239.375L159.579 239.018H145.302C140.717 239.016 136.248 240.448 132.517 243.112V243.112Z" fill="#589C17"/>
<path d="M108.715 277.51L108.685 277.343C105.669 260.751 90.5709 249.145 73.7626 250.498L73.0569 250.554L71.0434 251.226C70.4206 251.431 70 252.011 70 252.667C70 253.322 70.4206 253.903 71.0434 254.107L72.6674 254.649C80.4517 257.238 87.7155 261.188 94.1195 266.317L106.973 276.599C107.059 276.66 107.153 276.711 107.252 276.751L107.242 276.771L108.715 277.51Z" fill="#589C17"/>
<path d="M114.837 251.068L125.235 246.653C129.385 244.89 133.945 245.244 137.877 247.631C141.808 250.02 144.774 254.238 146.098 259.325L148.818 269.779L151.497 272.216V250.384C151.5 247.474 150.301 244.756 148.304 243.145L149.691 240.621C152.384 242.795 154.001 246.46 153.997 250.384V253.388L155.613 251.427L157.381 253.572L153.997 257.678V290.995L156.497 289.479V286.359C156.497 278.73 159.52 271.565 164.621 267.104C169.723 262.643 176.28 261.429 182.246 263.843L188.14 266.227C188.653 266.432 189 267.012 189 267.668C189 268.323 188.653 268.904 188.14 269.109L186.802 269.65C180.386 272.239 174.399 276.189 169.121 281.316L158.528 291.599C158.457 291.66 158.379 291.711 158.298 291.751L158.306 291.771L153.997 294.387V298H151.497V276.008L146.998 271.913L147.011 271.892C146.96 271.856 146.911 271.816 146.864 271.772C138.948 262.199 128.64 256.081 117.553 254.377L115.094 254.004C114.519 253.916 114.069 253.359 114.007 252.66C113.945 251.96 114.289 251.301 114.837 251.068V251.068Z" fill="#3D7606"/>
<path d="M140.911 219.843L141.497 208.421C141.534 207.703 141.982 207.115 142.57 207.013C143.155 206.919 143.718 207.331 143.92 208.006L147.963 221.734C149.475 226.863 150.247 232.269 150.246 237.716V241.882C150.246 242.495 149.942 243.048 149.475 243.283C149.008 243.517 148.47 243.388 148.112 242.954C143.092 236.86 140.469 228.444 140.911 219.843Z" fill="#5FA819"/>
<path d="M170.329 227.104L178.6 223.768C179.027 223.594 179.498 223.714 179.833 224.079C180.168 224.446 180.314 225.002 180.216 225.536L178.841 233.062C176.64 245.341 167.659 254.077 157.302 254.016H156.496C155.806 254.016 155.246 253.337 155.246 252.499C155.238 240.975 161.317 230.741 170.329 227.104Z" fill="#5FA819"/>
<path d="M164.185 247.342C168.975 243.765 172.901 238.717 175.568 232.709L179.51 223.822C180.055 224.107 180.353 224.826 180.217 225.527L178.842 233.053C176.643 245.336 167.662 254.076 157.303 254.015H156.497C156.213 254.009 155.939 253.884 155.723 253.66L164.185 247.342Z" fill="#589C17"/>
<path d="M137.475 258.11C140.108 260.392 142.19 263.487 143.504 267.075L144.082 268.653C136.579 260.849 127.356 255.884 117.552 254.373L115.171 254.016H126.938C130.716 254.014 134.4 255.446 137.475 258.11V258.11Z" fill="#589C17"/>
<path d="M157.092 292.508L157.117 292.341C159.603 275.749 172.046 264.143 185.899 265.496L186.481 265.552L188.14 266.224C188.653 266.429 189 267.009 189 267.665C189 268.32 188.653 268.901 188.14 269.105L186.802 269.647C180.386 272.236 174.399 276.186 169.121 281.315L158.528 291.597C158.457 291.658 158.379 291.709 158.298 291.749L158.306 291.769L157.092 292.508Z" fill="#589C17"/>
<path d="M90.9851 234.07L78.3681 229.655C73.3333 227.892 67.8001 228.246 63.0297 230.633C58.26 233.021 54.6611 237.24 53.0549 242.327L49.7537 252.781L46.5035 255.218V233.386C46.4998 230.476 47.9549 227.758 50.3779 226.147L48.6947 223.623C45.4275 225.797 43.4659 229.462 43.4703 233.386V236.39L41.5094 234.429L39.3649 236.574L43.4703 240.68V273.997L40.4372 272.481V269.361C40.4364 261.732 36.7686 254.567 30.5794 250.105C24.3893 245.645 16.4332 244.431 9.19534 246.845L2.04339 249.229C1.42062 249.434 1 250.014 1 250.67C1 251.325 1.42062 251.906 2.04339 252.111L3.66736 252.652C11.4517 255.241 18.7155 259.191 25.1195 264.318L37.9727 274.601C38.0594 274.662 38.1534 274.713 38.2519 274.753L38.2423 274.773L43.4703 277.389V281.002H46.5035V259.01L51.9626 254.915L51.9463 254.894C52.0085 254.858 52.0685 254.818 52.1255 254.774C61.7294 245.201 74.2367 239.083 87.689 237.379L90.6726 237.006C91.3709 236.918 91.9167 236.361 91.9915 235.662C92.0663 234.962 91.6493 234.303 90.9851 234.07V234.07Z" fill="#3D7606"/>
<path d="M59.3465 202.845L58.6356 191.423C58.5905 190.705 58.0469 190.117 57.3338 190.015C56.6229 189.921 55.9409 190.333 55.695 191.008L50.7898 204.736C48.9556 209.865 48.0181 215.271 48.0195 220.718V224.884C48.0195 225.497 48.3891 226.05 48.9556 226.285C49.522 226.519 50.1744 226.39 50.6084 225.956C56.6999 219.862 59.8827 211.446 59.3465 202.845Z" fill="#5FA819"/>
<path d="M23.6533 210.106L13.6185 206.77C13.1001 206.596 12.5284 206.716 12.1219 207.081C11.7161 207.448 11.5383 208.004 11.6576 208.538L13.326 216.064C15.997 228.343 26.8938 237.079 39.4597 237.018H40.4379C41.2754 237.018 41.9545 236.339 41.9545 235.501C41.9641 223.977 34.5885 213.743 23.6533 210.106Z" fill="#5FA819"/>
<path d="M31.1096 230.344C25.298 226.767 20.5343 221.719 17.2982 215.711L12.5152 206.824C11.8539 207.109 11.4918 207.828 11.6569 208.529L13.3253 216.055C15.9934 228.337 26.8909 237.078 39.459 237.017H40.4372C40.7823 237.011 41.1141 236.886 41.3769 236.662L31.1096 230.344Z" fill="#589C17"/>
<path d="M63.5169 241.112C60.3215 243.394 57.7956 246.489 56.2013 250.077L55.5 251.655C64.604 243.851 75.7947 238.886 87.6897 237.375L90.5792 237.018H76.302C71.7174 237.016 67.2476 238.448 63.5169 241.112V241.112Z" fill="#589C17"/>
<path d="M39.7151 275.51L39.6848 275.343C36.6686 258.751 21.5709 247.145 4.76258 248.498L4.05687 248.554L2.04339 249.226C1.42062 249.431 1 250.011 1 250.667C1 251.322 1.42062 251.903 2.04339 252.107L3.66735 252.649C11.4517 255.238 18.7155 259.188 25.1195 264.317L37.9727 274.599C38.0593 274.66 38.1534 274.711 38.2519 274.751L38.2423 274.771L39.7151 275.51Z" fill="#589C17"/>
<g clip-path="url(#clip1)">
<path d="M90.9851 234.07L78.3681 229.655C73.3333 227.892 67.8001 228.246 63.0297 230.633C58.26 233.021 54.6611 237.24 53.0549 242.327L49.7537 252.781L46.5035 255.218V233.386C46.4998 230.476 47.9549 227.758 50.3779 226.147L48.6947 223.623C45.4275 225.797 43.4659 229.462 43.4703 233.386V236.39L41.5094 234.429L39.3649 236.574L43.4703 240.68V273.997L40.4372 272.481V269.361C40.4364 261.732 36.7686 254.567 30.5794 250.105C24.3893 245.645 16.4332 244.431 9.19534 246.845L2.04339 249.229C1.42062 249.434 1 250.014 1 250.67C1 251.325 1.42062 251.906 2.04339 252.111L3.66736 252.652C11.4517 255.241 18.7155 259.191 25.1195 264.318L37.9727 274.601C38.0594 274.662 38.1534 274.713 38.2519 274.753L38.2423 274.773L43.4703 277.389V281.002H46.5035V259.01L51.9626 254.915L51.9463 254.894C52.0085 254.858 52.0685 254.818 52.1255 254.774C61.7294 245.201 74.2367 239.083 87.689 237.379L90.6726 237.006C91.3709 236.918 91.9167 236.361 91.9915 235.662C92.0663 234.962 91.6493 234.303 90.9851 234.07V234.07Z" fill="#3D7606"/>
<path d="M59.3465 202.845L58.6356 191.423C58.5905 190.705 58.0469 190.117 57.3338 190.015C56.6229 189.921 55.9409 190.333 55.695 191.008L50.7898 204.736C48.9556 209.865 48.0181 215.271 48.0195 220.718V224.884C48.0195 225.497 48.3891 226.05 48.9556 226.285C49.522 226.519 50.1744 226.39 50.6084 225.956C56.6999 219.862 59.8827 211.446 59.3465 202.845Z" fill="#5FA819"/>
<path d="M23.6533 210.106L13.6185 206.77C13.1001 206.596 12.5284 206.716 12.1219 207.081C11.7161 207.448 11.5383 208.004 11.6576 208.538L13.326 216.064C15.997 228.343 26.8938 237.079 39.4597 237.018H40.4379C41.2754 237.018 41.9545 236.339 41.9545 235.501C41.9641 223.977 34.5885 213.743 23.6533 210.106Z" fill="#5FA819"/>
<path d="M31.1096 230.344C25.298 226.767 20.5343 221.719 17.2982 215.711L12.5152 206.824C11.8539 207.109 11.4918 207.828 11.6569 208.529L13.3253 216.055C15.9934 228.337 26.8909 237.078 39.459 237.017H40.4372C40.7823 237.011 41.1141 236.886 41.3769 236.662L31.1096 230.344Z" fill="#589C17"/>
<path d="M63.5169 241.112C60.3215 243.394 57.7956 246.489 56.2013 250.077L55.5 251.655C64.604 243.851 75.7947 238.886 87.6897 237.375L90.5792 237.018H76.302C71.7174 237.016 67.2476 238.448 63.5169 241.112V241.112Z" fill="#589C17"/>
<path d="M39.7151 275.51L39.6848 275.343C36.6686 258.751 21.5709 247.145 4.76258 248.498L4.05687 248.554L2.04339 249.226C1.42062 249.431 1 250.011 1 250.667C1 251.322 1.42062 251.903 2.04339 252.107L3.66735 252.649C11.4517 255.238 18.7155 259.188 25.1195 264.317L37.9727 274.599C38.0593 274.66 38.1534 274.711 38.2519 274.751L38.2423 274.771L39.7151 275.51Z" fill="#589C17"/>
</g>
</g>
</g>
<defs>
<filter id="filter0_d" x="0" y="0" width="304" height="278" filterUnits="userSpaceOnUse" color-interpolation-filters="sRGB">
<feFlood flood-opacity="0" result="BackgroundImageFix"/>
<feColorMatrix in="SourceAlpha" type="matrix" values="0 0 0 0 0 0 0 0 0 0 0 0 0 0 0 0 0 0 127 0"/>
<feOffset dy="4"/>
<feGaussianBlur stdDeviation="2"/>
<feColorMatrix type="matrix" values="0 0 0 0 0 0 0 0 0 0 0 0 0 0 0 0 0 0 0.25 0"/>
<feBlend mode="normal" in2="BackgroundImageFix" result="effect1_dropShadow"/>
<feBlend mode="normal" in="SourceGraphic" in2="effect1_dropShadow" result="shape"/>
</filter>
<clipPath id="clip0">
<rect x="4" width="296" height="270" rx="5" fill="white"/>
</clipPath>
<clipPath id="clip1">
<rect width="91" height="91" fill="white" transform="translate(1 190)"/>
</clipPath>
</defs>
</svg>
