<svg width="398" height="343" viewBox="0 0 398 343" fill="none" xmlns="http://www.w3.org/2000/svg">
<rect y="43" width="398" height="280" rx="20" fill="#0A121C"/>
<path d="M208.739 150.561H199.047V140.869C199.047 128.009 209.472 117.584 222.332 117.584H229.938C231.09 117.584 232.024 118.518 232.024 119.67V127.276C232.024 140.135 221.599 150.561 208.739 150.561V150.561Z" fill="#B3E59F"/>
<path d="M189.355 162.288H199.047V152.596C199.047 139.737 188.622 129.312 175.762 129.312H168.156C167.004 129.312 166.07 130.246 166.07 131.397V139.003C166.07 151.863 176.495 162.288 189.355 162.288Z" fill="#B3E59F"/>
<path d="M196.028 153.231C194.553 151.565 194.708 149.019 196.374 147.544L210.201 135.302C211.867 133.826 214.414 133.982 215.889 135.647C217.364 137.313 217.209 139.86 215.543 141.335L201.716 153.577C200.056 155.048 197.508 154.903 196.028 153.231Z" fill="#78C2A4"/>
<path d="M290.809 150.562H281.117V140.87C281.117 128.01 291.542 117.585 304.402 117.585H312.008C313.16 117.585 314.094 118.519 314.094 119.671V127.277C314.094 140.136 303.669 150.562 290.809 150.562Z" fill="#B3E59F"/>
<path d="M271.425 162.289H281.117V152.597C281.117 139.738 270.692 129.312 257.832 129.312H250.227C249.075 129.312 248.141 130.246 248.141 131.398V139.004C248.14 151.864 258.566 162.289 271.425 162.289Z" fill="#B3E59F"/>
<path d="M278.102 153.231C276.627 151.565 276.782 149.019 278.448 147.544L292.275 135.302C293.942 133.826 296.489 133.982 297.963 135.647C299.439 137.313 299.284 139.86 297.618 141.335L283.79 153.577C282.13 155.048 279.582 154.903 278.102 153.231V153.231Z" fill="#78C2A4"/>
<path d="M126.668 150.561H116.977V140.869C116.977 128.009 127.402 117.584 140.261 117.584H147.867C149.019 117.584 149.953 118.518 149.953 119.67V127.276C149.953 140.135 139.528 150.561 126.668 150.561Z" fill="#B3E59F"/>
<path d="M107.285 162.288H116.977V152.596C116.977 139.737 106.552 129.312 93.6918 129.312H86.0859C84.934 129.312 84 130.246 84 131.397V139.003C84 151.863 94.425 162.288 107.285 162.288V162.288Z" fill="#B3E59F"/>
<path d="M116.978 180.478C114.753 180.478 112.949 178.674 112.949 176.449V150.427C112.949 148.202 114.753 146.398 116.978 146.398C119.203 146.398 121.007 148.202 121.007 150.427V176.449C121.007 178.675 119.203 180.478 116.978 180.478Z" fill="#78C2A4"/>
<path d="M113.958 153.23C112.483 151.564 112.638 149.018 114.304 147.543L128.131 135.301C129.797 133.825 132.344 133.981 133.818 135.646C135.294 137.312 135.139 139.859 133.472 141.334L119.646 153.576C117.985 155.047 115.438 154.902 113.958 153.23V153.23Z" fill="#78C2A4"/>
<path d="M114.13 165.137L100.255 151.262C98.6808 149.688 98.6808 147.137 100.255 145.563C101.828 143.991 104.38 143.991 105.953 145.563L119.828 159.439C121.402 161.012 121.402 163.563 119.828 165.137C118.255 166.711 115.703 166.71 114.13 165.137V165.137Z" fill="#78C2A4"/>
<path d="M278.267 165.137L264.391 151.262C262.817 149.689 262.817 147.137 264.391 145.564C265.965 143.99 268.516 143.991 270.09 145.564L283.965 159.439C285.539 161.012 285.539 163.563 283.965 165.137C282.391 166.71 279.841 166.71 278.267 165.137Z" fill="#78C2A4"/>
<path d="M199.045 180.478C196.819 180.478 195.016 178.674 195.016 176.449V150.427C195.016 148.202 196.819 146.398 199.045 146.398C201.27 146.398 203.074 148.202 203.074 150.427V176.449C203.074 178.675 201.27 180.478 199.045 180.478Z" fill="#78C2A4"/>
<path d="M196.197 165.137L182.321 151.262C180.747 149.689 180.747 147.137 182.321 145.564C183.894 143.99 186.445 143.991 188.019 145.564L201.894 159.439C203.468 161.012 203.468 163.563 201.894 165.137C200.321 166.71 197.77 166.71 196.197 165.137V165.137Z" fill="#78C2A4"/>
<path d="M281.119 180.478C278.894 180.478 277.09 178.674 277.09 176.449V150.56C277.09 148.335 278.894 146.531 281.119 146.531C283.344 146.531 285.148 148.335 285.148 150.56V176.449C285.148 178.675 283.344 180.478 281.119 180.478Z" fill="#78C2A4"/>
<path d="M110.781 90.4543C109.549 90.4543 108.585 89.3915 108.701 88.1645C109.826 76.2261 119.349 64.8619 123.84 54.5031C126.533 48.2933 122.079 42.4453 126.031 37.0511C138.907 19.4754 157.977 6.72198 180.024 2.00306C186.158 0.69048 192.521 7.8218 199.047 7.8218C243.771 7.8218 280.915 32.4583 288.205 75.1044C288.94 79.4098 289.372 83.8184 289.476 88.3084C289.504 89.4833 288.564 90.4543 287.388 90.4543H110.781Z" fill="#9DC6FB"/>
<path d="M182.93 8.05852C230.17 8.05852 268.946 44.2741 273.024 90.4553H287.39C288.567 90.4553 289.504 89.4817 289.477 88.3052C288.335 39.3414 248.285 0 199.047 0C181.3 0 164.749 5.11525 150.781 13.9456C160.771 10.1455 171.606 8.05852 182.93 8.05852V8.05852Z" fill="#80B4FB"/>
<path d="M288.182 75.11C280.891 32.466 243.773 7.82267 199.05 7.82267C192.524 7.82267 186.165 0.706996 180.031 2.0201C181.836 9.28544 183.677 17.818 185.335 27.8858C188.046 44.3507 189.182 58.3114 197.028 60.838C204.669 63.2989 210.879 52.4034 221.476 54.4602C230.368 56.1858 231.613 64.9462 239.547 71.4679C250.308 80.3139 270.552 82.7185 288.182 75.11V75.11Z" fill="#B3E59F"/>
<path d="M271.355 79.4071C276.974 78.8689 282.705 77.4734 288.182 75.109C279.271 24.5415 230.785 -8.72092 180.031 2.01961C180.51 3.9465 180.991 5.96517 181.471 8.0751C225.11 7.2788 262.627 38.1721 271.355 79.4071V79.4071Z" fill="#95D6A4"/>
<path d="M146.153 60.4235C143.316 51.2683 135.535 42.7477 126.046 37.0625C115.23 51.7726 109.051 69.8619 108.618 88.3079C108.59 89.4838 109.529 90.4559 110.706 90.4559H146.874C145.59 75.9101 149.052 69.7769 146.153 60.4235V60.4235Z" fill="#B3E59F"/>
<path d="M287.39 176.545C288.566 176.545 289.506 177.516 289.478 178.691C288.957 201.085 280.297 221.466 266.342 236.992C249.783 255.414 225.769 259.178 199.048 259.178C188.276 259.178 177.944 265.117 168.362 261.662C154.921 256.816 142.957 248.876 133.331 238.701C127.939 233.002 131.102 226.602 127.328 219.651C120.703 207.453 109.715 193.56 108.673 178.789C108.588 177.578 109.542 176.545 110.756 176.545H287.39Z" fill="#9DC6FB"/>
<path d="M273.024 176.544C268.946 222.725 230.171 258.941 182.93 258.941C171.606 258.941 160.771 256.854 150.781 253.054C156.271 256.524 162.159 259.421 168.362 261.658C177.943 265.115 188.275 259.177 199.047 259.177C225.768 259.177 249.782 255.413 266.341 236.991C280.296 221.465 288.956 201.083 289.477 178.69C289.505 177.515 288.565 176.544 287.389 176.544H273.024Z" fill="#80B4FB"/>
<path d="M111.802 200.486C115.784 215.002 123.295 228.057 133.349 238.683C144.696 231.14 152.828 218.997 153.598 208.106C154.11 200.863 150.943 200.177 148.183 185.77C147.526 182.34 147.116 179.293 146.873 176.544H110.704C109.537 176.544 108.591 177.502 108.618 178.67C108.619 178.725 108.62 178.78 108.622 178.835C108.804 186.146 109.868 193.434 111.802 200.486V200.486Z" fill="#B3E59F"/>
<path d="M168.367 261.653C177.948 265.108 188.277 267 199.05 267C225.77 267 249.777 255.407 266.336 236.985C260.29 228.02 251.17 219.691 246.013 214.987C238.866 208.465 221.827 192.919 211.319 197.955C203.103 201.893 207.117 214.465 199.965 230.757C192.52 247.713 178.5 256.137 168.367 261.653V261.653Z" fill="#B3E59F"/>
<path d="M168.367 261.653C177.948 265.108 188.277 267 199.05 267C225.77 267 249.777 255.407 266.336 236.985C260.29 228.02 251.17 219.691 246.013 214.987C238.866 208.465 221.827 192.919 211.319 197.955C203.103 201.893 207.117 214.465 199.965 230.757C192.52 247.713 178.5 256.137 168.367 261.653V261.653Z" fill="#B3E59F"/>
<path d="M254.832 223.363C236.858 247.299 205.766 261.799 173.928 258.492C173.926 258.493 173.925 258.494 173.923 258.495C171.999 259.645 170.248 260.628 168.371 261.649C168.427 261.671 168.485 261.692 168.541 261.713C178.074 265.128 188.341 266.999 199.049 266.999C225.769 266.999 249.776 255.407 266.334 236.984C263.006 232.062 259.003 227.579 254.832 223.363V223.363Z" fill="#95D6A4"/>
<path d="M295.064 237.245C295.032 237.011 294.841 236.82 294.607 236.787C293.118 236.578 291.499 237.083 290.293 238.288C289.088 239.494 288.583 241.113 288.792 242.602C288.825 242.836 289.016 243.027 289.25 243.06C290.739 243.269 292.358 242.764 293.563 241.559C294.769 240.353 295.274 238.734 295.064 237.245Z" fill="#B4E66E"/>
<path d="M295.064 237.245C295.048 237.128 294.992 237.022 294.911 236.94L288.945 242.906C289.026 242.987 289.132 243.043 289.25 243.059C290.738 243.269 292.358 242.763 293.563 241.558C294.768 240.353 295.274 238.733 295.064 237.245Z" fill="#A0D755"/>
<path d="M280.381 230.619C280.097 230.646 279.875 230.868 279.848 231.151C279.744 232.249 280.138 233.419 281.02 234.301C281.902 235.183 283.073 235.577 284.17 235.473C284.453 235.446 284.675 235.224 284.702 234.941C284.807 233.843 284.413 232.672 283.531 231.79C282.649 230.908 281.478 230.515 280.381 230.619Z" fill="#B4E66E"/>
<path d="M281.02 234.301C281.902 235.183 283.073 235.577 284.17 235.473C284.312 235.46 284.438 235.397 284.532 235.303L280.018 230.789C279.924 230.883 279.862 231.01 279.848 231.151C279.744 232.249 280.138 233.42 281.02 234.301Z" fill="#A0D755"/>
<path d="M274.983 239.799C274.752 239.838 274.566 240.024 274.527 240.255C274.146 242.503 274.883 244.98 276.713 246.81C278.543 248.64 281.02 249.376 283.268 248.995C283.498 248.956 283.684 248.77 283.724 248.539C284.105 246.291 283.368 243.814 281.538 241.984C279.708 240.154 277.231 239.418 274.983 239.799Z" fill="#B4E66E"/>
<path d="M276.713 246.81C278.543 248.64 281.02 249.376 283.268 248.995C283.383 248.976 283.487 248.919 283.567 248.839L274.683 239.955C274.603 240.035 274.547 240.14 274.527 240.255C274.146 242.503 274.883 244.98 276.713 246.81Z" fill="#A0D755"/>
<path d="M297.361 265.861C296.483 263.854 294.482 262.449 292.151 262.449C292.001 262.449 291.854 262.457 291.708 262.47C291.416 262.496 291.132 262.402 290.898 262.226C289.662 261.297 288.129 260.743 286.464 260.743C284.799 260.743 283.265 261.297 282.03 262.226C281.796 262.402 281.512 262.496 281.22 262.47C281.074 262.457 280.926 262.449 280.777 262.449C278.445 262.449 276.444 263.854 275.566 265.861H297.361Z" fill="#9B735A"/>
<path d="M291.412 240.436C291.19 240.214 290.83 240.214 290.608 240.436L287.389 243.656C287.261 243.784 287.142 243.919 287.029 244.058V239.701C287.029 238.03 286.379 236.459 285.197 235.277L282.638 232.718C282.416 232.496 282.056 232.496 281.834 232.718C281.612 232.941 281.612 233.3 281.834 233.523L284.393 236.082C285.36 237.048 285.892 238.334 285.892 239.701V250.627C285.6 250.165 285.26 249.728 284.864 249.331L279.994 244.461C279.772 244.239 279.412 244.239 279.19 244.461C278.968 244.684 278.968 245.043 279.19 245.266L284.06 250.136C285.241 251.317 285.892 252.888 285.892 254.559V261.311H287.03V247.274C287.03 246.212 287.443 245.212 288.194 244.46L291.412 241.24C291.634 241.018 291.634 240.658 291.412 240.436Z" fill="#87BE4B"/>
<path d="M287.692 260.846C287.292 260.778 286.882 260.743 286.464 260.743C284.799 260.743 283.265 261.297 282.03 262.226C281.796 262.402 281.512 262.496 281.22 262.47C281.074 262.457 280.926 262.449 280.777 262.449C278.445 262.449 276.444 263.854 275.566 265.861H282.979C283.779 263.601 285.496 261.775 287.692 260.846Z" fill="#8C5F50"/>
<path d="M298.974 266.429H273.952C273.637 266.429 273.383 266.175 273.383 265.861C273.383 265.546 273.637 265.292 273.952 265.292H298.974C299.288 265.292 299.542 265.546 299.542 265.861C299.542 266.175 299.288 266.429 298.974 266.429Z" fill="#AE8B70"/>
<path fill-rule="evenodd" clip-rule="evenodd" d="M266 196.412C266 193.423 268.472 191 271.519 191H301.481C304.529 191 307 193.422 307 196.412V261.267C307 264.256 304.528 266.679 301.481 266.679H271.519C268.471 266.679 266 264.258 266 261.267V196.412ZM268.365 196.404V261.276C268.365 262.975 269.778 264.363 271.521 264.363H301.479C303.224 264.363 304.635 262.981 304.635 261.276V196.404C304.635 194.704 303.224 193.317 301.484 193.317H295.963C295.532 193.317 294.991 193.614 294.766 193.98L293.214 196.514C292.993 196.875 292.454 197.178 292.019 197.178H280.981C280.543 197.178 280.01 196.881 279.786 196.514L278.234 193.98C278.013 193.62 277.473 193.317 277.037 193.317H271.516C269.782 193.317 268.365 194.699 268.365 196.404Z" fill="white"/>
<rect x="0.5" y="0.5" width="397" height="342" stroke="black"/>
</svg>
