<svg width="1442" height="1377" viewBox="0 0 1442 1377" fill="none" xmlns="http://www.w3.org/2000/svg">
<path d="M1 779.499C1 779.499 27 632.497 82.5 648.499C138 664.5 120.5 951.5 214.5 786.499C308.5 621.497 240 455.499 313 392.499C386 329.499 469 239.999 532 298.999C595 357.999 219.5 778.997 334 786.499C448.5 794 539.5 740 570.5 690.499C601.5 640.997 595 603 617 540.499C639 477.998 704.5 410.999 704.5 410.999" stroke="#04152A" stroke-width="2"/>
<rect x="1" width="1440" height="1376" fill="#8A1616"/>
<path d="M36.9776 989.068C36.9766 915.545 1.97659 296.775 36.9766 320.388C53.8906 331.799 50.4927 469.543 47.0919 609.64C58.5705 586.346 78.3247 561.353 99.486 538.114C90.616 504.567 72.9323 474.737 87.4765 432.013C95.1638 409.432 130.515 390.101 165.748 373.771C179.995 340.69 204.594 311.688 231.976 320.388C269.189 332.21 217.598 349.741 165.748 373.771C147.476 416.199 146.23 465.337 177.977 450.26C213.272 433.497 152.04 480.4 99.486 538.114C102.204 548.392 104.094 559.019 103.977 570.472C103.691 598.306 103.09 708.776 95.0337 797.35C103.023 799.152 111.301 797.048 119.502 789.966C139.547 772.656 153.534 724.692 165.922 675.742C147.926 651.05 134.058 621.111 130.977 590.328C126.903 549.636 158.958 511.262 192.074 493.562C208.334 430.41 229.21 363.857 244.977 363.857C274.977 363.857 340.476 487.826 322.476 523.782C313.764 541.186 294.627 541.868 273.57 540.555C274.903 546.042 276.057 551.567 277.088 556.954C296.43 551.658 302.441 552.688 322.476 559.739C333.292 563.545 343.919 578.284 352.797 597.159C354.914 594.295 357.026 591.507 359.124 588.807C348.226 530.89 341.093 474.545 340.476 450.26C338.977 391.227 369.477 300.531 420.976 300.531C472.476 300.531 394.976 642.385 481.476 700.344C545.373 743.158 551.43 597.68 551.038 497.095C540.976 512.864 532.622 540.849 524.977 590.328C507.977 700.344 403.476 559.739 466.476 466.36C493.836 425.808 525.061 424.12 550.365 437.124C550.291 428.997 550.298 422.326 550.477 417.523C552.477 363.857 570.477 313.411 597.477 320.388C624.477 327.364 632.477 477.629 597.477 477.093C595.283 477.059 593.147 477.042 591.065 477.068C598.714 490.41 601.602 503.007 597.477 509.292C581.977 532.906 695.977 559.739 682.977 619.308C669.977 678.878 611.477 744.887 632.477 757.767C653.477 770.647 700.477 757.767 712.977 732.544C725.477 707.321 741.977 590.328 712.977 559.739C683.977 529.149 682.977 417.523 729.977 403.034C776.977 388.544 810.977 300.531 848.977 300.531C886.977 300.531 931.477 239.352 959.477 257.598C987.477 275.845 938.977 395.52 914.477 417.523C889.977 439.526 867.977 515.196 878.977 547.395C889.977 579.595 904.476 619.308 971.477 619.308C1038.48 619.308 1063.98 570.472 1063.98 570.472C1063.98 570.472 1076.98 487.826 1093.98 450.26C1110.98 412.693 1188.48 417.523 1127.48 403.034C1066.48 388.544 1143.98 372.98 1172.48 372.444C1200.98 371.907 1224.98 427.183 1242.98 320.388C1260.98 213.592 1303.48 293.555 1323.48 289.798C1343.48 286.041 1384.48 257.598 1403.98 224.862C1423.48 192.126 1440.98 145.973 1440.98 145.973V1376.5H1V1083.5C1 1083.5 36.9786 1062.59 36.9776 989.068Z" fill="#FFF9F6"/>
<path d="M36.9776 989.068C36.9766 915.545 1.97659 296.775 36.9766 320.388C71.9766 344.001 20.0019 908.569 61.0017 915.545C102.001 922.522 103.476 619.308 103.977 570.472C104.477 521.636 68.4763 487.826 87.4765 432.013C106.477 376.2 294.476 340.244 231.976 320.388C169.476 300.531 121.476 477.093 177.977 450.26C234.477 423.427 43.6203 559.739 36.9766 642.385C30.3329 725.03 76.0017 827.533 119.502 789.966C163.002 752.4 177.977 570.472 209.977 547.395C241.977 524.319 304.476 559.739 322.476 523.782C340.476 487.826 274.977 363.857 244.977 363.857C214.977 363.857 166.477 604.818 166.477 604.818C166.477 604.818 201.477 715.37 244.977 678.878C288.477 642.385 298.476 611.258 288.476 604.818C278.477 598.378 279.977 509.293 244.977 487.826C209.977 466.36 124.477 525.392 130.977 590.328C137.476 655.264 191.976 716.444 231.976 732.544C271.976 748.644 169.976 588.718 231.976 570.472C293.976 552.225 291.977 549.005 322.476 559.739C352.976 570.472 381.977 668.144 374.476 700.344C366.976 732.544 322.977 782.99 288.476 757.767C253.976 732.544 380.477 535.052 409.476 547.395C438.476 559.739 459.977 757.767 420.976 757.767C381.976 757.767 341.976 509.292 340.476 450.26C338.977 391.227 369.477 300.531 420.976 300.531C472.476 300.531 394.976 642.385 481.476 700.344C567.977 758.303 548.477 471.19 550.477 417.523C552.477 363.857 570.477 313.411 597.477 320.388C624.477 327.364 632.477 477.629 597.477 477.093C562.477 476.556 541.977 480.313 524.977 590.328C507.977 700.344 403.476 559.739 466.476 466.36C529.477 372.98 612.977 485.679 597.477 509.292C581.977 532.906 695.977 559.739 682.977 619.308C669.977 678.878 611.477 744.887 632.477 757.767C653.477 770.647 700.477 757.767 712.977 732.544C725.477 707.321 741.977 590.328 712.977 559.739C683.977 529.149 682.977 417.523 729.977 403.034C776.977 388.544 810.977 300.531 848.977 300.531C886.977 300.531 931.477 239.352 959.477 257.598C987.477 275.845 938.977 395.52 914.477 417.523C889.977 439.526 867.977 515.196 878.977 547.395C889.977 579.595 904.476 619.308 971.477 619.308C1038.48 619.308 1063.98 570.472 1063.98 570.472C1063.98 570.472 1076.98 487.826 1093.98 450.26C1110.98 412.693 1188.48 417.523 1127.48 403.034C1066.48 388.544 1143.98 372.98 1172.48 372.444C1200.98 371.907 1224.98 427.183 1242.98 320.388C1260.98 213.592 1303.48 293.555 1323.48 289.798C1343.48 286.041 1384.48 257.598 1403.98 224.862C1423.48 192.126 1440.98 145.973 1440.98 145.973V1376.5H1V1083.5C1 1083.5 36.9786 1062.59 36.9776 989.068Z" stroke="#04152A"/>
</svg>
