<svg width="308" height="282" viewBox="0 0 308 282" fill="none" xmlns="http://www.w3.org/2000/svg">
<g filter="url(#filter0_d)">
<rect x="4" width="300" height="274" rx="10" fill="#E6F0FF"/>
</g>
<path d="M57.8203 137.547V142H56.3203V130.625H60.5156C61.7604 130.625 62.7344 130.943 63.4375 131.578C64.1458 132.214 64.5 133.055 64.5 134.102C64.5 135.206 64.1536 136.057 63.4609 136.656C62.7734 137.25 61.7865 137.547 60.5 137.547H57.8203ZM57.8203 136.32H60.5156C61.3177 136.32 61.9323 136.133 62.3594 135.758C62.7865 135.378 63 134.831 63 134.117C63 133.44 62.7865 132.898 62.3594 132.492C61.9323 132.086 61.3464 131.875 60.6016 131.859H57.8203V136.32ZM81.8572 139.031H77.0916L76.0212 142H74.4744L78.8181 130.625H80.1306L84.4822 142H82.9431L81.8572 139.031ZM77.5447 137.797H81.4119L79.4744 132.477L77.5447 137.797ZM99.605 136.93C98.3185 136.56 97.381 136.107 96.7925 135.57C96.2092 135.029 95.9175 134.362 95.9175 133.57C95.9175 132.674 96.2743 131.935 96.9878 131.352C97.7066 130.763 98.6389 130.469 99.7847 130.469C100.566 130.469 101.261 130.62 101.871 130.922C102.485 131.224 102.959 131.641 103.292 132.172C103.631 132.703 103.8 133.284 103.8 133.914H102.292C102.292 133.227 102.074 132.688 101.636 132.297C101.199 131.901 100.582 131.703 99.7847 131.703C99.0451 131.703 98.467 131.867 98.0503 132.195C97.6389 132.518 97.4331 132.969 97.4331 133.547C97.4331 134.01 97.6284 134.404 98.0191 134.727C98.4149 135.044 99.0842 135.336 100.027 135.602C100.975 135.867 101.714 136.161 102.246 136.484C102.782 136.802 103.178 137.174 103.433 137.602C103.694 138.029 103.824 138.531 103.824 139.109C103.824 140.031 103.464 140.771 102.746 141.328C102.027 141.88 101.066 142.156 99.8628 142.156C99.0816 142.156 98.3524 142.008 97.6753 141.711C96.9982 141.409 96.4748 140.997 96.105 140.477C95.7404 139.956 95.5581 139.365 95.5581 138.703H97.0659C97.0659 139.391 97.3185 139.935 97.8237 140.336C98.3342 140.732 99.0139 140.93 99.8628 140.93C100.654 140.93 101.261 140.768 101.683 140.445C102.105 140.122 102.316 139.682 102.316 139.125C102.316 138.568 102.121 138.138 101.73 137.836C101.339 137.529 100.631 137.227 99.605 136.93ZM119.345 136.93C118.059 136.56 117.121 136.107 116.533 135.57C115.949 135.029 115.658 134.362 115.658 133.57C115.658 132.674 116.014 131.935 116.728 131.352C117.447 130.763 118.379 130.469 119.525 130.469C120.306 130.469 121.001 130.62 121.611 130.922C122.225 131.224 122.699 131.641 123.033 132.172C123.371 132.703 123.54 133.284 123.54 133.914H122.033C122.033 133.227 121.814 132.688 121.376 132.297C120.939 131.901 120.322 131.703 119.525 131.703C118.785 131.703 118.207 131.867 117.79 132.195C117.379 132.518 117.173 132.969 117.173 133.547C117.173 134.01 117.368 134.404 117.759 134.727C118.155 135.044 118.824 135.336 119.767 135.602C120.715 135.867 121.454 136.161 121.986 136.484C122.522 136.802 122.918 137.174 123.173 137.602C123.434 138.029 123.564 138.531 123.564 139.109C123.564 140.031 123.204 140.771 122.486 141.328C121.767 141.88 120.806 142.156 119.603 142.156C118.822 142.156 118.092 142.008 117.415 141.711C116.738 141.409 116.215 140.997 115.845 140.477C115.48 139.956 115.298 139.365 115.298 138.703H116.806C116.806 139.391 117.059 139.935 117.564 140.336C118.074 140.732 118.754 140.93 119.603 140.93C120.394 140.93 121.001 140.768 121.423 140.445C121.845 140.122 122.056 139.682 122.056 139.125C122.056 138.568 121.861 138.138 121.47 137.836C121.079 137.529 120.371 137.227 119.345 136.93ZM137.343 142H135.843V130.625H137.343V142ZM159.083 136.68C159.083 137.794 158.895 138.768 158.52 139.602C158.145 140.43 157.614 141.062 156.927 141.5C156.239 141.938 155.437 142.156 154.52 142.156C153.624 142.156 152.83 141.938 152.137 141.5C151.445 141.057 150.906 140.43 150.52 139.617C150.14 138.799 149.945 137.854 149.934 136.781V135.961C149.934 134.867 150.124 133.901 150.505 133.062C150.885 132.224 151.421 131.583 152.114 131.141C152.812 130.693 153.609 130.469 154.505 130.469C155.416 130.469 156.218 130.69 156.911 131.133C157.609 131.57 158.145 132.208 158.52 133.047C158.895 133.88 159.083 134.852 159.083 135.961V136.68ZM157.591 135.945C157.591 134.596 157.32 133.562 156.778 132.844C156.236 132.12 155.479 131.758 154.505 131.758C153.557 131.758 152.809 132.12 152.262 132.844C151.721 133.562 151.442 134.562 151.427 135.844V136.68C151.427 137.987 151.7 139.016 152.247 139.766C152.799 140.51 153.557 140.883 154.52 140.883C155.489 140.883 156.239 140.531 156.77 139.828C157.302 139.12 157.575 138.107 157.591 136.789V135.945ZM180.315 142H178.807L173.081 133.234V142H171.573V130.625H173.081L178.823 139.43V130.625H180.315V142ZM57.8203 159.547V164H56.3203V152.625H60.5156C61.7604 152.625 62.7344 152.943 63.4375 153.578C64.1458 154.214 64.5 155.055 64.5 156.102C64.5 157.206 64.1536 158.057 63.4609 158.656C62.7734 159.25 61.7865 159.547 60.5 159.547H57.8203ZM57.8203 158.32H60.5156C61.3177 158.32 61.9323 158.133 62.3594 157.758C62.7865 157.378 63 156.831 63 156.117C63 155.44 62.7865 154.898 62.3594 154.492C61.9323 154.086 61.3464 153.875 60.6016 153.859H57.8203V158.32ZM80.8259 159.398H78.1541V164H76.6462V152.625H80.4119C81.6931 152.625 82.6775 152.917 83.365 153.5C84.0577 154.083 84.4041 154.932 84.4041 156.047C84.4041 156.755 84.2114 157.372 83.8259 157.898C83.4457 158.424 82.9145 158.818 82.2322 159.078L84.9041 163.906V164H83.2947L80.8259 159.398ZM78.1541 158.172H80.4587C81.2035 158.172 81.7947 157.979 82.2322 157.594C82.6749 157.208 82.8962 156.693 82.8962 156.047C82.8962 155.344 82.6853 154.805 82.2634 154.43C81.8468 154.055 81.2426 153.865 80.4509 153.859H78.1541V158.172ZM105.503 158.68C105.503 159.794 105.316 160.768 104.941 161.602C104.566 162.43 104.035 163.062 103.347 163.5C102.66 163.938 101.858 164.156 100.941 164.156C100.045 164.156 99.2508 163.938 98.5581 163.5C97.8654 163.057 97.3264 162.43 96.9409 161.617C96.5607 160.799 96.3654 159.854 96.355 158.781V157.961C96.355 156.867 96.5451 155.901 96.9253 155.062C97.3055 154.224 97.842 153.583 98.5347 153.141C99.2326 152.693 100.029 152.469 100.925 152.469C101.837 152.469 102.639 152.69 103.332 153.133C104.029 153.57 104.566 154.208 104.941 155.047C105.316 155.88 105.503 156.852 105.503 157.961V158.68ZM104.011 157.945C104.011 156.596 103.74 155.562 103.199 154.844C102.657 154.12 101.899 153.758 100.925 153.758C99.9774 153.758 99.23 154.12 98.6831 154.844C98.1415 155.562 97.8628 156.562 97.8472 157.844V158.68C97.8472 159.987 98.1206 161.016 98.6675 161.766C99.2196 162.51 99.9774 162.883 100.941 162.883C101.91 162.883 102.66 162.531 103.191 161.828C103.722 161.12 103.996 160.107 104.011 158.789V157.945ZM122.759 152.625H124.267V160.68C124.267 161.768 123.939 162.62 123.283 163.234C122.631 163.849 121.762 164.156 120.673 164.156C119.543 164.156 118.663 163.867 118.033 163.289C117.402 162.711 117.087 161.901 117.087 160.859H118.587C118.587 161.51 118.764 162.018 119.118 162.383C119.478 162.747 119.996 162.93 120.673 162.93C121.293 162.93 121.793 162.734 122.173 162.344C122.559 161.953 122.754 161.406 122.759 160.703V152.625ZM143.491 158.742H138.562V162.773H144.288V164H137.062V152.625H144.21V153.859H138.562V157.516H143.491V158.742ZM164.762 160.391C164.622 161.594 164.177 162.523 163.427 163.18C162.682 163.831 161.69 164.156 160.45 164.156C159.106 164.156 158.028 163.674 157.216 162.711C156.408 161.747 156.005 160.458 156.005 158.844V157.75C156.005 156.693 156.192 155.763 156.567 154.961C156.947 154.159 157.484 153.544 158.177 153.117C158.869 152.685 159.671 152.469 160.583 152.469C161.791 152.469 162.76 152.807 163.489 153.484C164.218 154.156 164.643 155.089 164.762 156.281H163.255C163.124 155.375 162.841 154.719 162.403 154.312C161.971 153.906 161.364 153.703 160.583 153.703C159.624 153.703 158.872 154.057 158.325 154.766C157.783 155.474 157.512 156.482 157.512 157.789V158.891C157.512 160.125 157.77 161.107 158.286 161.836C158.802 162.565 159.523 162.93 160.45 162.93C161.283 162.93 161.921 162.742 162.364 162.367C162.812 161.987 163.109 161.328 163.255 160.391H164.762ZM184.682 153.859H181.026V164H179.534V153.859H175.885V152.625H184.682V153.859Z" fill="#444444"/>
<path d="M56.0156 109V97.625H59.5156C60.5156 97.625 61.4089 97.8516 62.1953 98.3047C62.987 98.7526 63.6042 99.3932 64.0469 100.227C64.4896 101.055 64.7109 101.997 64.7109 103.055V103.578C64.7109 104.635 64.4922 105.576 64.0547 106.398C63.6224 107.221 63.0104 107.859 62.2188 108.312C61.4271 108.766 60.5339 108.995 59.5391 109H56.0156ZM58.3594 99.5234V107.117H59.4922C60.4089 107.117 61.1094 106.818 61.5938 106.219C62.0781 105.62 62.3255 104.763 62.3359 103.648V103.047C62.3359 101.891 62.0964 101.016 61.6172 100.422C61.138 99.8229 60.4375 99.5234 59.5156 99.5234H58.3594ZM75.7656 103.57C75.7656 104.69 75.5677 105.672 75.1719 106.516C74.776 107.359 74.2083 108.01 73.4688 108.469C72.7344 108.927 71.8906 109.156 70.9375 109.156C69.9948 109.156 69.1536 108.93 68.4141 108.477C67.6745 108.023 67.1016 107.378 66.6953 106.539C66.2891 105.695 66.0833 104.727 66.0781 103.633V103.07C66.0781 101.951 66.2786 100.966 66.6797 100.117C67.0859 99.263 67.6562 98.6094 68.3906 98.1562C69.1302 97.6979 69.974 97.4688 70.9219 97.4688C71.8698 97.4688 72.7109 97.6979 73.4453 98.1562C74.1849 98.6094 74.7552 99.263 75.1562 100.117C75.5625 100.966 75.7656 101.948 75.7656 103.062V103.57ZM73.3906 103.055C73.3906 101.862 73.1771 100.956 72.75 100.336C72.3229 99.7161 71.7135 99.4062 70.9219 99.4062C70.1354 99.4062 69.5286 99.7135 69.1016 100.328C68.6745 100.938 68.4583 101.833 68.4531 103.016V103.57C68.4531 104.732 68.6667 105.633 69.0938 106.273C69.5208 106.914 70.1354 107.234 70.9375 107.234C71.724 107.234 72.3281 106.927 72.75 106.312C73.1719 105.693 73.3854 104.792 73.3906 103.609V103.055ZM90.0625 97.625V105.117C90.0625 106.362 89.6719 107.346 88.8906 108.07C88.1146 108.794 87.0521 109.156 85.7031 109.156C84.375 109.156 83.3203 108.805 82.5391 108.102C81.7578 107.398 81.3594 106.432 81.3438 105.203V97.625H83.6875V105.133C83.6875 105.878 83.8646 106.422 84.2188 106.766C84.5781 107.104 85.0729 107.273 85.7031 107.273C87.0208 107.273 87.6901 106.581 87.7109 105.195V97.625H90.0625Z" fill="#444444"/>
<path d="M59.3125 64.5078H58.2031V76.9062H59.3125V78.6484H55.9375V62.7656H59.3125V64.5078ZM62.4375 67.5469L62.5078 68.4922C63.1068 67.7578 63.9167 67.3906 64.9375 67.3906C66.026 67.3906 66.7734 67.8203 67.1797 68.6797C67.7734 67.8203 68.6198 67.3906 69.7188 67.3906C70.6354 67.3906 71.3177 67.6589 71.7656 68.1953C72.2135 68.7266 72.4375 69.5286 72.4375 70.6016V76H70.1719V70.6094C70.1719 70.1302 70.0781 69.7812 69.8906 69.5625C69.7031 69.3385 69.3724 69.2266 68.8984 69.2266C68.2214 69.2266 67.7526 69.5495 67.4922 70.1953L67.5 76H65.2422V70.6172C65.2422 70.1276 65.1458 69.7734 64.9531 69.5547C64.7604 69.3359 64.4323 69.2266 63.9688 69.2266C63.3281 69.2266 62.8646 69.4922 62.5781 70.0234V76H60.3203V67.5469H62.4375ZM73.8281 71.6953C73.8281 70.8568 73.9896 70.1094 74.3125 69.4531C74.6354 68.7969 75.099 68.2891 75.7031 67.9297C76.3125 67.5703 77.0182 67.3906 77.8203 67.3906C78.9609 67.3906 79.8906 67.7396 80.6094 68.4375C81.3333 69.1354 81.737 70.0833 81.8203 71.2812L81.8359 71.8594C81.8359 73.1562 81.474 74.1979 80.75 74.9844C80.026 75.7656 79.0547 76.1562 77.8359 76.1562C76.6172 76.1562 75.6432 75.7656 74.9141 74.9844C74.1901 74.2031 73.8281 73.1406 73.8281 71.7969V71.6953ZM76.0859 71.8594C76.0859 72.6615 76.237 73.276 76.5391 73.7031C76.8411 74.125 77.2734 74.3359 77.8359 74.3359C78.3828 74.3359 78.8099 74.1276 79.1172 73.7109C79.4245 73.2891 79.5781 72.6172 79.5781 71.6953C79.5781 70.9089 79.4245 70.2995 79.1172 69.8672C78.8099 69.4349 78.3776 69.2188 77.8203 69.2188C77.2682 69.2188 76.8411 69.4349 76.5391 69.8672C76.237 70.2943 76.0859 70.9583 76.0859 71.8594ZM90.8438 71.8516C90.8438 73.2057 90.5547 74.263 89.9766 75.0234C89.3984 75.7786 88.5911 76.1562 87.5547 76.1562C86.638 76.1562 85.9062 75.8047 85.3594 75.1016L85.2578 76H83.2266V64H85.4844V68.3047C86.0052 67.6953 86.6901 67.3906 87.5391 67.3906C88.5703 67.3906 89.3776 67.7708 89.9609 68.5312C90.5495 69.2865 90.8438 70.3516 90.8438 71.7266V71.8516ZM88.5859 71.6875C88.5859 70.8333 88.4505 70.2109 88.1797 69.8203C87.9089 69.4245 87.5052 69.2266 86.9688 69.2266C86.25 69.2266 85.7552 69.5208 85.4844 70.1094V73.4453C85.7604 74.0391 86.2604 74.3359 86.9844 74.3359C87.7135 74.3359 88.1927 73.9766 88.4219 73.2578C88.5312 72.9141 88.5859 72.3906 88.5859 71.6875ZM94.625 76H92.3594V67.5469H94.625V76ZM92.2266 65.3594C92.2266 65.0208 92.3385 64.7422 92.5625 64.5234C92.7917 64.3047 93.1016 64.1953 93.4922 64.1953C93.8776 64.1953 94.1849 64.3047 94.4141 64.5234C94.6432 64.7422 94.7578 65.0208 94.7578 65.3594C94.7578 65.7031 94.6406 65.9844 94.4062 66.2031C94.1771 66.4219 93.8724 66.5312 93.4922 66.5312C93.112 66.5312 92.8047 66.4219 92.5703 66.2031C92.3411 65.9844 92.2266 65.7031 92.2266 65.3594ZM98.875 76H96.6094V64H98.875V76ZM104.633 76.1562C103.393 76.1562 102.383 75.776 101.602 75.0156C100.826 74.2552 100.438 73.2422 100.438 71.9766V71.7578C100.438 70.9089 100.602 70.151 100.93 69.4844C101.258 68.8125 101.721 68.2969 102.32 67.9375C102.924 67.5729 103.612 67.3906 104.383 67.3906C105.539 67.3906 106.448 67.7552 107.109 68.4844C107.776 69.2135 108.109 70.2474 108.109 71.5859V72.5078H102.727C102.799 73.0599 103.018 73.5026 103.383 73.8359C103.753 74.1693 104.219 74.3359 104.781 74.3359C105.651 74.3359 106.331 74.0208 106.82 73.3906L107.93 74.6328C107.591 75.112 107.133 75.487 106.555 75.7578C105.977 76.0234 105.336 76.1562 104.633 76.1562ZM104.375 69.2188C103.927 69.2188 103.562 69.3698 103.281 69.6719C103.005 69.974 102.828 70.4062 102.75 70.9688H105.891V70.7891C105.88 70.2891 105.745 69.9036 105.484 69.6328C105.224 69.3568 104.854 69.2188 104.375 69.2188ZM118.281 76C118.177 75.7969 118.102 75.5443 118.055 75.2422C117.508 75.8516 116.797 76.1562 115.922 76.1562C115.094 76.1562 114.406 75.9167 113.859 75.4375C113.318 74.9583 113.047 74.3542 113.047 73.625C113.047 72.7292 113.378 72.0417 114.039 71.5625C114.706 71.0833 115.667 70.8411 116.922 70.8359H117.961V70.3516C117.961 69.9609 117.859 69.6484 117.656 69.4141C117.458 69.1797 117.143 69.0625 116.711 69.0625C116.331 69.0625 116.031 69.1536 115.812 69.3359C115.599 69.5182 115.492 69.7682 115.492 70.0859H113.234C113.234 69.5964 113.385 69.1432 113.688 68.7266C113.99 68.3099 114.417 67.9844 114.969 67.75C115.521 67.5104 116.141 67.3906 116.828 67.3906C117.87 67.3906 118.695 67.6536 119.305 68.1797C119.919 68.7005 120.227 69.4349 120.227 70.3828V74.0469C120.232 74.849 120.344 75.4557 120.562 75.8672V76H118.281ZM116.414 74.4297C116.747 74.4297 117.055 74.3568 117.336 74.2109C117.617 74.0599 117.826 73.8594 117.961 73.6094V72.1562H117.117C115.987 72.1562 115.385 72.5469 115.312 73.3281L115.305 73.4609C115.305 73.7422 115.404 73.974 115.602 74.1562C115.799 74.3385 116.07 74.4297 116.414 74.4297ZM129.57 71.8516C129.57 73.1536 129.273 74.1979 128.68 74.9844C128.091 75.7656 127.294 76.1562 126.289 76.1562C125.435 76.1562 124.745 75.8594 124.219 75.2656V79.25H121.961V67.5469H124.055L124.133 68.375C124.68 67.7188 125.393 67.3906 126.273 67.3906C127.315 67.3906 128.125 67.776 128.703 68.5469C129.281 69.3177 129.57 70.3802 129.57 71.7344V71.8516ZM127.312 71.6875C127.312 70.901 127.172 70.2943 126.891 69.8672C126.615 69.4401 126.211 69.2266 125.68 69.2266C124.971 69.2266 124.484 69.4974 124.219 70.0391V73.5C124.495 74.0573 124.987 74.3359 125.695 74.3359C126.773 74.3359 127.312 73.4531 127.312 71.6875ZM138.586 71.8516C138.586 73.1536 138.289 74.1979 137.695 74.9844C137.107 75.7656 136.31 76.1562 135.305 76.1562C134.451 76.1562 133.76 75.8594 133.234 75.2656V79.25H130.977V67.5469H133.07L133.148 68.375C133.695 67.7188 134.409 67.3906 135.289 67.3906C136.331 67.3906 137.141 67.776 137.719 68.5469C138.297 69.3177 138.586 70.3802 138.586 71.7344V71.8516ZM136.328 71.6875C136.328 70.901 136.188 70.2943 135.906 69.8672C135.63 69.4401 135.227 69.2266 134.695 69.2266C133.987 69.2266 133.5 69.4974 133.234 70.0391V73.5C133.51 74.0573 134.003 74.3359 134.711 74.3359C135.789 74.3359 136.328 73.4531 136.328 71.6875ZM139.227 62.7656H142.602V78.6484H139.227V76.9062H140.344V64.5078H139.227V62.7656Z" fill="#444444"/>
<defs>
<filter id="filter0_d" x="0" y="0" width="308" height="282" filterUnits="userSpaceOnUse" color-interpolation-filters="sRGB">
<feFlood flood-opacity="0" result="BackgroundImageFix"/>
<feColorMatrix in="SourceAlpha" type="matrix" values="0 0 0 0 0 0 0 0 0 0 0 0 0 0 0 0 0 0 127 0"/>
<feOffset dy="4"/>
<feGaussianBlur stdDeviation="2"/>
<feColorMatrix type="matrix" values="0 0 0 0 0 0 0 0 0 0 0 0 0 0 0 0 0 0 0.25 0"/>
<feBlend mode="normal" in2="BackgroundImageFix" result="effect1_dropShadow"/>
<feBlend mode="normal" in="SourceGraphic" in2="effect1_dropShadow" result="shape"/>
</filter>
</defs>
</svg>
