<svg width="308" height="282" viewBox="0 0 308 282" fill="none" xmlns="http://www.w3.org/2000/svg">
<g filter="url(#filter0_d)">
<rect x="4" width="300" height="274" rx="10" fill="#E6F0FF"/>
</g>
<path d="M58.7734 138.414L58.9922 139.914L59.3125 138.562L61.5625 130.625H62.8281L65.0234 138.562L65.3359 139.938L65.5781 138.406L67.3438 130.625H68.8516L66.0938 142H64.7266L62.3828 133.711L62.2031 132.844L62.0234 133.711L59.5938 142H58.2266L55.4766 130.625H56.9766L58.7734 138.414ZM86.7009 139.031H81.9353L80.865 142H79.3181L83.6619 130.625H84.9744L89.3259 142H87.7869L86.7009 139.031ZM82.3884 137.797H86.2556L84.3181 132.477L82.3884 137.797ZM104.449 136.93C103.162 136.56 102.225 136.107 101.636 135.57C101.053 135.029 100.761 134.362 100.761 133.57C100.761 132.674 101.118 131.935 101.832 131.352C102.55 130.763 103.483 130.469 104.628 130.469C105.41 130.469 106.105 130.62 106.714 130.922C107.329 131.224 107.803 131.641 108.136 132.172C108.475 132.703 108.644 133.284 108.644 133.914H107.136C107.136 133.227 106.917 132.688 106.48 132.297C106.042 131.901 105.425 131.703 104.628 131.703C103.889 131.703 103.311 131.867 102.894 132.195C102.483 132.518 102.277 132.969 102.277 133.547C102.277 134.01 102.472 134.404 102.863 134.727C103.259 135.044 103.928 135.336 104.871 135.602C105.819 135.867 106.558 136.161 107.089 136.484C107.626 136.802 108.022 137.174 108.277 137.602C108.537 138.029 108.667 138.531 108.667 139.109C108.667 140.031 108.308 140.771 107.589 141.328C106.871 141.88 105.91 142.156 104.707 142.156C103.925 142.156 103.196 142.008 102.519 141.711C101.842 141.409 101.319 140.997 100.949 140.477C100.584 139.956 100.402 139.365 100.402 138.703H101.91C101.91 139.391 102.162 139.935 102.667 140.336C103.178 140.732 103.858 140.93 104.707 140.93C105.498 140.93 106.105 140.768 106.527 140.445C106.949 140.122 107.16 139.682 107.16 139.125C107.16 138.568 106.964 138.138 106.574 137.836C106.183 137.529 105.475 137.227 104.449 136.93ZM128.697 131.859H125.04V142H123.548V131.859H119.9V130.625H128.697V131.859ZM147.054 136.742H142.124V140.773H147.851V142H140.624V130.625H147.772V131.859H142.124V135.516H147.054V136.742ZM58.2578 152.625L61.9766 161.906L65.6953 152.625H67.6406V164H66.1406V159.57L66.2812 154.789L62.5469 164H61.3984L57.6719 154.812L57.8203 159.57V164H56.3203V152.625H58.2578ZM86.9509 161.031H82.1853L81.115 164H79.5681L83.9119 152.625H85.2244L89.5759 164H88.0369L86.9509 161.031ZM82.6384 159.797H86.5056L84.5681 154.477L82.6384 159.797ZM110.089 164H108.582L102.855 155.234V164H101.347V152.625H102.855L108.597 161.43V152.625H110.089V164ZM129.415 161.031H124.65L123.579 164H122.033L126.376 152.625H127.689L132.04 164H130.501L129.415 161.031ZM125.103 159.797H128.97L127.033 154.477L125.103 159.797ZM152.116 162.508C151.731 163.06 151.192 163.474 150.499 163.75C149.812 164.021 149.009 164.156 148.093 164.156C147.166 164.156 146.343 163.94 145.624 163.508C144.905 163.07 144.348 162.451 143.952 161.648C143.562 160.846 143.361 159.917 143.351 158.859V157.867C143.351 156.154 143.749 154.826 144.546 153.883C145.348 152.94 146.473 152.469 147.921 152.469C149.108 152.469 150.064 152.773 150.788 153.383C151.512 153.987 151.955 154.846 152.116 155.961H150.616C150.335 154.456 149.439 153.703 147.929 153.703C146.924 153.703 146.161 154.057 145.64 154.766C145.124 155.469 144.864 156.49 144.858 157.828V158.758C144.858 160.034 145.15 161.049 145.733 161.805C146.317 162.555 147.106 162.93 148.101 162.93C148.663 162.93 149.155 162.867 149.577 162.742C149.999 162.617 150.348 162.406 150.624 162.109V159.555H147.991V158.336H152.116V162.508ZM171.294 158.742H166.364V162.773H172.091V164H164.864V152.625H172.012V153.859H166.364V157.516H171.294V158.742ZM58.2578 174.625L61.9766 183.906L65.6953 174.625H67.6406V186H66.1406V181.57L66.2812 176.789L62.5469 186H61.3984L57.6719 176.812L57.8203 181.57V186H56.3203V174.625H58.2578ZM86.9587 180.742H82.0291V184.773H87.7556V186H80.5291V174.625H87.6775V175.859H82.0291V179.516H86.9587V180.742ZM108.605 186H107.097L101.371 177.234V186H99.8628V174.625H101.371L107.113 183.43V174.625H108.605V186ZM129.134 175.859H125.478V186H123.986V175.859H120.337V174.625H129.134V175.859Z" fill="#444444"/>
<path d="M64.5781 99.5234H61.0938V109H58.75V99.5234H55.3125V97.625H64.5781V99.5234ZM70.1328 104.836H68.2656V109H65.9219V97.625H70.1484C71.4922 97.625 72.5286 97.9245 73.2578 98.5234C73.987 99.1224 74.3516 99.9688 74.3516 101.062C74.3516 101.839 74.1823 102.487 73.8438 103.008C73.5104 103.523 73.0026 103.935 72.3203 104.242L74.7812 108.891V109H72.2656L70.1328 104.836ZM68.2656 102.938H70.1562C70.7448 102.938 71.2005 102.789 71.5234 102.492C71.8464 102.19 72.0078 101.776 72.0078 101.25C72.0078 100.714 71.8542 100.292 71.5469 99.9844C71.2448 99.6771 70.7786 99.5234 70.1484 99.5234H68.2656V102.938ZM82.5625 106.656H78.4531L77.6719 109H75.1797L79.4141 97.625H81.5859L85.8438 109H83.3516L82.5625 106.656ZM79.0859 104.758H81.9297L80.5 100.5L79.0859 104.758ZM92.8047 106.016C92.8047 105.573 92.6484 105.234 92.3359 105C92.0234 104.76 91.4609 104.51 90.6484 104.25C89.8359 103.984 89.1927 103.724 88.7188 103.469C87.4271 102.771 86.7812 101.831 86.7812 100.648C86.7812 100.034 86.9531 99.487 87.2969 99.0078C87.6458 98.5234 88.1432 98.1458 88.7891 97.875C89.4401 97.6042 90.1693 97.4688 90.9766 97.4688C91.7891 97.4688 92.513 97.6172 93.1484 97.9141C93.7839 98.2057 94.276 98.6198 94.625 99.1562C94.9792 99.6927 95.1562 100.302 95.1562 100.984H92.8125C92.8125 100.464 92.6484 100.06 92.3203 99.7734C91.9922 99.4818 91.5312 99.3359 90.9375 99.3359C90.3646 99.3359 89.9193 99.4583 89.6016 99.7031C89.2839 99.9427 89.125 100.26 89.125 100.656C89.125 101.026 89.3099 101.336 89.6797 101.586C90.0547 101.836 90.6042 102.07 91.3281 102.289C92.6615 102.69 93.6328 103.188 94.2422 103.781C94.8516 104.375 95.1562 105.115 95.1562 106C95.1562 106.984 94.7839 107.758 94.0391 108.32C93.2943 108.878 92.2917 109.156 91.0312 109.156C90.1562 109.156 89.3594 108.997 88.6406 108.68C87.9219 108.357 87.3724 107.917 86.9922 107.359C86.6172 106.802 86.4297 106.156 86.4297 105.422H88.7812C88.7812 106.677 89.5312 107.305 91.0312 107.305C91.5885 107.305 92.0234 107.193 92.3359 106.969C92.6484 106.74 92.8047 106.422 92.8047 106.016ZM106.008 109H103.664V104.125H99.0938V109H96.75V97.625H99.0938V102.234H103.664V97.625H106.008V109ZM116.391 99.5234H112.906V109H110.562V99.5234H107.125V97.625H116.391V99.5234ZM123.219 106.656H119.109L118.328 109H115.836L120.07 97.625H122.242L126.5 109H124.008L123.219 106.656ZM119.742 104.758H122.586L121.156 100.5L119.742 104.758ZM129.906 107.117H134.883V109H127.562V97.625H129.906V107.117ZM139.797 104.438L138.578 105.75V109H136.234V97.625H138.578V102.781L139.609 101.367L142.508 97.625H145.391L141.352 102.68L145.508 109H142.719L139.797 104.438Z" fill="#444444"/>
<path d="M59.3125 64.5078H58.2031V76.9062H59.3125V78.6484H55.9375V62.7656H59.3125V64.5078ZM65.2188 76C65.1146 75.7969 65.0391 75.5443 64.9922 75.2422C64.4453 75.8516 63.7344 76.1562 62.8594 76.1562C62.0312 76.1562 61.3438 75.9167 60.7969 75.4375C60.2552 74.9583 59.9844 74.3542 59.9844 73.625C59.9844 72.7292 60.3151 72.0417 60.9766 71.5625C61.6432 71.0833 62.6042 70.8411 63.8594 70.8359H64.8984V70.3516C64.8984 69.9609 64.7969 69.6484 64.5938 69.4141C64.3958 69.1797 64.0807 69.0625 63.6484 69.0625C63.2682 69.0625 62.9688 69.1536 62.75 69.3359C62.5365 69.5182 62.4297 69.7682 62.4297 70.0859H60.1719C60.1719 69.5964 60.3229 69.1432 60.625 68.7266C60.9271 68.3099 61.3542 67.9844 61.9062 67.75C62.4583 67.5104 63.0781 67.3906 63.7656 67.3906C64.8073 67.3906 65.6328 67.6536 66.2422 68.1797C66.8568 68.7005 67.1641 69.4349 67.1641 70.3828V74.0469C67.1693 74.849 67.2812 75.4557 67.5 75.8672V76H65.2188ZM63.3516 74.4297C63.6849 74.4297 63.9922 74.3568 64.2734 74.2109C64.5547 74.0599 64.763 73.8594 64.8984 73.6094V72.1562H64.0547C62.9245 72.1562 62.3229 72.5469 62.25 73.3281L62.2422 73.4609C62.2422 73.7422 62.3411 73.974 62.5391 74.1562C62.737 74.3385 63.0078 74.4297 63.3516 74.4297ZM76.5078 71.8516C76.5078 73.1536 76.2109 74.1979 75.6172 74.9844C75.0286 75.7656 74.2318 76.1562 73.2266 76.1562C72.3724 76.1562 71.6823 75.8594 71.1562 75.2656V79.25H68.8984V67.5469H70.9922L71.0703 68.375C71.6172 67.7188 72.3307 67.3906 73.2109 67.3906C74.2526 67.3906 75.0625 67.776 75.6406 68.5469C76.2188 69.3177 76.5078 70.3802 76.5078 71.7344V71.8516ZM74.25 71.6875C74.25 70.901 74.1094 70.2943 73.8281 69.8672C73.5521 69.4401 73.1484 69.2266 72.6172 69.2266C71.9089 69.2266 71.4219 69.4974 71.1562 70.0391V73.5C71.4323 74.0573 71.9245 74.3359 72.6328 74.3359C73.7109 74.3359 74.25 73.4531 74.25 71.6875ZM85.5234 71.8516C85.5234 73.1536 85.2266 74.1979 84.6328 74.9844C84.0443 75.7656 83.2474 76.1562 82.2422 76.1562C81.388 76.1562 80.6979 75.8594 80.1719 75.2656V79.25H77.9141V67.5469H80.0078L80.0859 68.375C80.6328 67.7188 81.3464 67.3906 82.2266 67.3906C83.2682 67.3906 84.0781 67.776 84.6562 68.5469C85.2344 69.3177 85.5234 70.3802 85.5234 71.7344V71.8516ZM83.2656 71.6875C83.2656 70.901 83.125 70.2943 82.8438 69.8672C82.5677 69.4401 82.1641 69.2266 81.6328 69.2266C80.9245 69.2266 80.4375 69.4974 80.1719 70.0391V73.5C80.4479 74.0573 80.9401 74.3359 81.6484 74.3359C82.7266 74.3359 83.2656 73.4531 83.2656 71.6875ZM86.1641 62.7656H89.5391V78.6484H86.1641V76.9062H87.2812V64.5078H86.1641V62.7656Z" fill="#444444"/>
<defs>
<filter id="filter0_d" x="0" y="0" width="308" height="282" filterUnits="userSpaceOnUse" color-interpolation-filters="sRGB">
<feFlood flood-opacity="0" result="BackgroundImageFix"/>
<feColorMatrix in="SourceAlpha" type="matrix" values="0 0 0 0 0 0 0 0 0 0 0 0 0 0 0 0 0 0 127 0"/>
<feOffset dy="4"/>
<feGaussianBlur stdDeviation="2"/>
<feColorMatrix type="matrix" values="0 0 0 0 0 0 0 0 0 0 0 0 0 0 0 0 0 0 0.25 0"/>
<feBlend mode="normal" in2="BackgroundImageFix" result="effect1_dropShadow"/>
<feBlend mode="normal" in="SourceGraphic" in2="effect1_dropShadow" result="shape"/>
</filter>
</defs>
</svg>
