<svg width="304" height="278" viewBox="0 0 304 278" fill="none" xmlns="http://www.w3.org/2000/svg">
<g filter="url(#filter0_d)">
<rect x="4" width="295.62" height="270" rx="5" fill="white"/>
</g>
<path d="M160.681 51.6423C160.648 51.4081 160.458 51.2176 160.223 51.1846C158.735 50.975 157.115 51.4803 155.91 52.6856C154.705 53.8909 154.199 55.5104 154.409 56.999C154.442 57.2332 154.633 57.4238 154.867 57.4568C156.356 57.6664 157.975 57.1611 159.18 55.9557C160.386 54.7505 160.891 53.1311 160.681 51.6423Z" fill="#B4E66E"/>
<path d="M160.681 51.6417C160.665 51.5246 160.609 51.4185 160.528 51.3374L154.562 57.3027C154.643 57.3838 154.75 57.4397 154.867 57.4561C156.355 57.6658 157.975 57.1604 159.18 55.9551C160.385 54.7499 160.891 53.1304 160.681 51.6417Z" fill="#A0D755"/>
<path d="M145.996 45.0164C145.713 45.0433 145.491 45.2653 145.464 45.5486C145.36 46.646 145.754 47.8168 146.636 48.6988C147.518 49.5807 148.688 49.9745 149.786 49.8703C150.069 49.8433 150.291 49.6214 150.318 49.3381C150.422 48.2406 150.028 47.0699 149.147 46.1879C148.265 45.3059 147.094 44.9121 145.996 45.0164Z" fill="#B4E66E"/>
<path d="M146.636 48.6987C147.518 49.5807 148.688 49.9745 149.786 49.8703C149.928 49.8568 150.054 49.7946 150.148 49.7003L145.634 45.1863C145.54 45.2805 145.478 45.4068 145.464 45.5485C145.36 46.646 145.754 47.8167 146.636 48.6987Z" fill="#A0D755"/>
<path d="M140.601 54.1959C140.37 54.2351 140.184 54.4212 140.145 54.6518C139.764 56.8999 140.5 59.3768 142.33 61.2068C144.16 63.0368 146.637 63.7732 148.885 63.3923C149.116 63.3532 149.302 63.167 149.341 62.9364C149.722 60.6883 148.986 58.2114 147.156 56.3814C145.326 54.5514 142.849 53.8149 140.601 54.1959Z" fill="#B4E66E"/>
<path d="M142.33 61.2076C144.16 63.0376 146.637 63.774 148.885 63.393C149.001 63.3735 149.105 63.3172 149.185 63.2369L140.301 54.3528C140.221 54.433 140.164 54.5372 140.145 54.6526C139.764 56.9006 140.5 59.3776 142.33 61.2076Z" fill="#A0D755"/>
<path d="M162.977 80.2586C162.099 78.2509 160.098 76.8464 157.767 76.8464C157.617 76.8464 157.47 76.8539 157.324 76.867C157.032 76.893 156.748 76.7996 156.513 76.6234C155.278 75.694 153.745 75.1404 152.08 75.1404C150.415 75.1404 148.881 75.694 147.646 76.6234C147.412 76.7996 147.128 76.8931 146.836 76.867C146.69 76.8539 146.542 76.8464 146.393 76.8464C144.061 76.8464 142.06 78.2509 141.182 80.2586H162.977Z" fill="#9B735A"/>
<path d="M157.031 54.8339C156.809 54.6117 156.449 54.6117 156.227 54.8339L153.008 58.0539C152.88 58.1821 152.761 58.3168 152.648 58.4557V54.0986C152.648 52.4281 151.997 50.857 150.816 49.6752L148.257 47.1161C148.035 46.8939 147.675 46.8939 147.453 47.1161C147.231 47.3383 147.231 47.6981 147.453 47.9202L150.012 50.4793C150.978 51.4462 151.511 52.7318 151.511 54.0986V65.0251C151.219 64.5623 150.879 64.1255 150.483 63.7291L145.613 58.8591C145.391 58.637 145.031 58.637 144.809 58.8591C144.587 59.0813 144.587 59.4411 144.809 59.6633L149.679 64.5332C150.86 65.715 151.511 67.2861 151.511 68.9566V75.7087H152.648V61.672C152.648 60.6096 153.062 59.61 153.813 58.858L157.031 55.638C157.253 55.4159 157.253 55.056 157.031 54.8339Z" fill="#87BE4B"/>
<path d="M153.307 75.2428C152.908 75.1756 152.498 75.1404 152.08 75.1404C150.415 75.1404 148.881 75.694 147.646 76.6234C147.412 76.7996 147.128 76.893 146.836 76.8669C146.69 76.8539 146.542 76.8464 146.393 76.8464C144.061 76.8464 142.06 78.2508 141.182 80.2585H148.595C149.395 77.9985 151.112 76.172 153.307 75.2428Z" fill="#8C5F50"/>
<path d="M164.591 80.8266H139.569C139.254 80.8266 139 80.5722 139 80.2579C139 79.9436 139.254 79.6892 139.569 79.6892H164.591C164.905 79.6892 165.16 79.9436 165.16 80.2579C165.16 80.5722 164.905 80.8266 164.591 80.8266Z" fill="#AE8B70"/>
<path d="M113.167 140H111.268V131.547H113.167V140ZM111.151 129.352C111.151 129.06 111.242 128.818 111.424 128.625C111.612 128.432 111.877 128.336 112.221 128.336C112.565 128.336 112.831 128.432 113.018 128.625C113.206 128.818 113.299 129.06 113.299 129.352C113.299 129.638 113.206 129.878 113.018 130.07C112.831 130.258 112.565 130.352 112.221 130.352C111.877 130.352 111.612 130.258 111.424 130.07C111.242 129.878 111.151 129.638 111.151 129.352ZM118.706 131.547L118.761 132.43C119.354 131.737 120.167 131.391 121.198 131.391C122.328 131.391 123.102 131.823 123.518 132.688C124.133 131.823 124.998 131.391 126.112 131.391C127.044 131.391 127.737 131.648 128.19 132.164C128.649 132.68 128.883 133.44 128.893 134.445V140H126.995V134.5C126.995 133.964 126.878 133.57 126.643 133.32C126.409 133.07 126.021 132.945 125.479 132.945C125.047 132.945 124.693 133.062 124.417 133.297C124.146 133.526 123.956 133.828 123.847 134.203L123.854 140H121.956V134.438C121.93 133.443 121.422 132.945 120.432 132.945C119.672 132.945 119.133 133.255 118.815 133.875V140H116.917V131.547H118.706ZM139.925 135.859C139.925 137.167 139.628 138.211 139.034 138.992C138.441 139.768 137.644 140.156 136.644 140.156C135.717 140.156 134.974 139.852 134.417 139.242V143.25H132.519V131.547H134.269L134.347 132.406C134.904 131.729 135.662 131.391 136.62 131.391C137.652 131.391 138.459 131.776 139.042 132.547C139.631 133.312 139.925 134.378 139.925 135.742V135.859ZM138.034 135.695C138.034 134.852 137.865 134.182 137.527 133.688C137.193 133.193 136.714 132.945 136.089 132.945C135.313 132.945 134.756 133.266 134.417 133.906V137.656C134.761 138.312 135.323 138.641 136.105 138.641C136.709 138.641 137.18 138.398 137.519 137.914C137.862 137.424 138.034 136.685 138.034 135.695ZM147.644 133.281C147.394 133.24 147.136 133.219 146.871 133.219C146.001 133.219 145.415 133.552 145.113 134.219V140H143.214V131.547H145.027L145.074 132.492C145.532 131.758 146.167 131.391 146.98 131.391C147.251 131.391 147.475 131.427 147.652 131.5L147.644 133.281ZM149.887 135.695C149.887 134.867 150.051 134.122 150.379 133.461C150.707 132.794 151.168 132.284 151.762 131.93C152.355 131.57 153.038 131.391 153.808 131.391C154.949 131.391 155.874 131.758 156.582 132.492C157.295 133.227 157.681 134.201 157.738 135.414L157.746 135.859C157.746 136.693 157.584 137.438 157.262 138.094C156.944 138.75 156.486 139.258 155.887 139.617C155.293 139.977 154.605 140.156 153.824 140.156C152.631 140.156 151.676 139.76 150.957 138.969C150.243 138.172 149.887 137.112 149.887 135.789V135.695ZM151.785 135.859C151.785 136.729 151.965 137.411 152.324 137.906C152.683 138.396 153.183 138.641 153.824 138.641C154.465 138.641 154.962 138.391 155.316 137.891C155.676 137.391 155.855 136.659 155.855 135.695C155.855 134.841 155.67 134.164 155.301 133.664C154.936 133.164 154.439 132.914 153.808 132.914C153.189 132.914 152.696 133.161 152.332 133.656C151.967 134.146 151.785 134.88 151.785 135.859ZM163.887 137.594L165.676 131.547H167.637L164.707 140H163.059L160.106 131.547H162.074L163.887 137.594ZM172.528 140H170.629V131.547H172.528V140ZM170.512 129.352C170.512 129.06 170.603 128.818 170.786 128.625C170.973 128.432 171.239 128.336 171.582 128.336C171.926 128.336 172.192 128.432 172.379 128.625C172.567 128.818 172.661 129.06 172.661 129.352C172.661 129.638 172.567 129.878 172.379 130.07C172.192 130.258 171.926 130.352 171.582 130.352C171.239 130.352 170.973 130.258 170.786 130.07C170.603 129.878 170.512 129.638 170.512 129.352ZM178.044 131.547L178.098 132.523C178.723 131.768 179.544 131.391 180.559 131.391C182.32 131.391 183.216 132.398 183.247 134.414V140H181.348V134.523C181.348 133.987 181.231 133.591 180.997 133.336C180.768 133.076 180.39 132.945 179.864 132.945C179.098 132.945 178.528 133.292 178.153 133.984V140H176.255V131.547H178.044ZM186.536 135.711C186.536 134.398 186.844 133.352 187.458 132.57C188.078 131.784 188.898 131.391 189.919 131.391C190.883 131.391 191.64 131.727 192.193 132.398L192.278 131.547H193.989V139.742C193.989 140.852 193.643 141.727 192.95 142.367C192.263 143.008 191.333 143.328 190.161 143.328C189.541 143.328 188.935 143.198 188.341 142.938C187.752 142.682 187.304 142.346 186.997 141.93L187.896 140.789C188.479 141.482 189.198 141.828 190.052 141.828C190.682 141.828 191.179 141.656 191.544 141.312C191.909 140.974 192.091 140.474 192.091 139.812V139.242C191.544 139.852 190.815 140.156 189.903 140.156C188.914 140.156 188.104 139.763 187.474 138.977C186.849 138.19 186.536 137.102 186.536 135.711ZM188.427 135.875C188.427 136.724 188.599 137.393 188.943 137.883C189.291 138.367 189.773 138.609 190.388 138.609C191.153 138.609 191.721 138.281 192.091 137.625V133.906C191.732 133.266 191.169 132.945 190.403 132.945C189.778 132.945 189.291 133.193 188.943 133.688C188.599 134.182 188.427 134.911 188.427 135.875Z" fill="#424242"/>
<path d="M114.8 101.758L116.863 108.188L118.919 101.758H121.852V111H119.617V108.842L119.833 104.424L117.599 111H116.126L113.885 104.417L114.101 108.842V111H111.873V101.758H114.8ZM131.945 106.569C131.945 107.471 131.778 108.268 131.444 108.962C131.11 109.656 130.633 110.192 130.016 110.568C129.402 110.941 128.702 111.127 127.915 111.127C127.127 111.127 126.429 110.947 125.82 110.587C125.21 110.223 124.734 109.705 124.392 109.032C124.053 108.359 123.875 107.587 123.858 106.715V106.195C123.858 105.289 124.023 104.492 124.354 103.802C124.688 103.108 125.164 102.572 125.782 102.196C126.404 101.819 127.111 101.631 127.902 101.631C128.685 101.631 129.383 101.817 129.997 102.189C130.61 102.562 131.086 103.093 131.425 103.783C131.768 104.468 131.941 105.255 131.945 106.144V106.569ZM129.679 106.182C129.679 105.264 129.525 104.568 129.216 104.094C128.911 103.616 128.473 103.376 127.902 103.376C126.785 103.376 126.194 104.214 126.131 105.89L126.125 106.569C126.125 107.475 126.275 108.171 126.575 108.658C126.876 109.144 127.322 109.388 127.915 109.388C128.477 109.388 128.911 109.149 129.216 108.67C129.521 108.192 129.675 107.505 129.679 106.607V106.182ZM133.939 111V101.758H137.259C138.448 101.758 139.352 101.976 139.97 102.412C140.592 102.847 140.903 103.48 140.903 104.31C140.903 104.788 140.793 105.196 140.573 105.535C140.353 105.873 140.029 106.123 139.601 106.284C140.084 106.411 140.454 106.648 140.712 106.995C140.97 107.342 141.099 107.765 141.099 108.264C141.099 109.17 140.812 109.851 140.236 110.308C139.665 110.761 138.816 110.992 137.691 111H133.939ZM136.167 107.071V109.286H137.627C138.029 109.286 138.338 109.195 138.554 109.013C138.77 108.827 138.878 108.567 138.878 108.232C138.878 107.462 138.495 107.075 137.729 107.071H136.167ZM136.167 105.611H137.329C137.816 105.607 138.163 105.518 138.37 105.344C138.577 105.171 138.681 104.915 138.681 104.576C138.681 104.187 138.569 103.908 138.345 103.738C138.12 103.565 137.758 103.478 137.259 103.478H136.167V105.611ZM145.55 111H143.328V101.758H145.55V111ZM150.172 109.286H154.05V111H147.944V101.758H150.172V109.286ZM161.567 107.083H158.063V109.286H162.201V111H155.835V101.758H162.214V103.478H158.063V105.427H161.567V107.083ZM173.286 109.273H170.233L169.699 111H167.319L170.709 101.758H172.803L176.218 111H173.825L173.286 109.273ZM170.766 107.553H172.753L171.756 104.348L170.766 107.553ZM179.971 107.864V111H177.743V101.758H181.431C182.137 101.758 182.762 101.889 183.303 102.151C183.849 102.41 184.27 102.78 184.566 103.262C184.867 103.74 185.017 104.284 185.017 104.894C185.017 105.795 184.693 106.516 184.046 107.058C183.403 107.596 182.518 107.864 181.393 107.864H179.971ZM179.971 106.144H181.431C181.862 106.144 182.19 106.036 182.415 105.82C182.643 105.604 182.757 105.3 182.757 104.906C182.757 104.475 182.641 104.13 182.408 103.872C182.175 103.613 181.858 103.482 181.456 103.478H179.971V106.144ZM189.283 107.864V111H187.055V101.758H190.743C191.45 101.758 192.074 101.889 192.616 102.151C193.162 102.41 193.583 102.78 193.879 103.262C194.18 103.74 194.33 104.284 194.33 104.894C194.33 105.795 194.006 106.516 193.359 107.058C192.715 107.596 191.831 107.864 190.705 107.864H189.283ZM189.283 106.144H190.743C191.175 106.144 191.503 106.036 191.727 105.82C191.956 105.604 192.07 105.3 192.07 104.906C192.07 104.475 191.954 104.13 191.721 103.872C191.488 103.613 191.171 103.482 190.769 103.478H189.283V106.144Z" fill="#424242"/>
<path d="M111.091 169.836L113.06 160.203H115.266L112.313 173H110.186L107.751 163.657L105.264 173H103.128L100.175 160.203H102.381L104.367 169.818L106.811 160.203H108.674L111.091 169.836ZM135.188 170.021H130.231L129.194 173H126.882L131.716 160.203H133.711L138.554 173H136.234L135.188 170.021ZM130.855 168.228H134.564L132.709 162.919L130.855 168.228ZM158.222 169.704C158.222 169.142 158.022 168.708 157.624 168.403C157.231 168.099 156.52 167.791 155.488 167.48C154.457 167.17 153.637 166.824 153.027 166.443C151.861 165.711 151.278 164.756 151.278 163.578C151.278 162.547 151.697 161.697 152.535 161.029C153.379 160.361 154.472 160.027 155.813 160.027C156.704 160.027 157.498 160.191 158.195 160.52C158.893 160.848 159.44 161.316 159.839 161.926C160.237 162.529 160.437 163.2 160.437 163.938H158.222C158.222 163.271 158.011 162.749 157.589 162.374C157.173 161.993 156.575 161.803 155.796 161.803C155.069 161.803 154.504 161.958 154.1 162.269C153.701 162.579 153.502 163.013 153.502 163.569C153.502 164.038 153.719 164.431 154.152 164.747C154.586 165.058 155.301 165.362 156.297 165.661C157.293 165.954 158.093 166.291 158.696 166.672C159.3 167.047 159.742 167.48 160.023 167.973C160.305 168.459 160.445 169.03 160.445 169.687C160.445 170.753 160.035 171.603 159.215 172.235C158.4 172.862 157.293 173.176 155.893 173.176C154.967 173.176 154.114 173.006 153.335 172.666C152.562 172.32 151.958 171.846 151.524 171.242C151.097 170.639 150.883 169.936 150.883 169.133H153.106C153.106 169.859 153.347 170.422 153.827 170.82C154.308 171.219 154.996 171.418 155.893 171.418C156.666 171.418 157.246 171.263 157.633 170.952C158.025 170.636 158.222 170.22 158.222 169.704ZM183.163 161.996H179.172V173H176.966V161.996H173.011V160.203H183.163V161.996ZM203.85 167.287H198.594V171.225H204.737V173H196.37V160.203H204.676V161.996H198.594V165.529H203.85V167.287ZM90.3455 186.203L94.0369 196.012L97.7195 186.203H100.594V199H98.3787V194.781L98.5984 189.139L94.8191 199H93.2283L89.4578 189.147L89.6775 194.781V199H87.4627V186.203H90.3455ZM122.072 196.021H117.115L116.077 199H113.766L118.6 186.203H120.595L125.438 199H123.117L122.072 196.021ZM117.739 194.228H121.448L119.593 188.919L117.739 194.228ZM148.568 199H146.344L140.64 189.921V199H138.417V186.203H140.64L146.362 195.317V186.203H148.568V199ZM170.037 196.021H165.08L164.043 199H161.732L166.566 186.203H168.561L173.404 199H171.083L170.037 196.021ZM165.704 194.228H169.413L167.559 188.919L165.704 194.228ZM195.998 197.339C195.535 197.942 194.893 198.399 194.073 198.71C193.253 199.021 192.321 199.176 191.278 199.176C190.206 199.176 189.257 198.933 188.43 198.446C187.604 197.96 186.966 197.266 186.514 196.363C186.069 195.455 185.838 194.397 185.82 193.19V192.188C185.82 190.255 186.283 188.746 187.209 187.662C188.134 186.572 189.426 186.027 191.085 186.027C192.509 186.027 193.639 186.379 194.477 187.082C195.315 187.785 195.819 188.799 195.989 190.123H193.809C193.563 188.582 192.67 187.812 191.129 187.812C190.133 187.812 189.374 188.172 188.852 188.893C188.337 189.607 188.07 190.659 188.052 192.048V193.032C188.052 194.415 188.342 195.49 188.923 196.258C189.509 197.02 190.32 197.4 191.357 197.4C192.494 197.4 193.302 197.143 193.783 196.627V194.122H191.146V192.435H195.998V197.339ZM217.441 193.287H212.185V197.225H218.328V199H209.961V186.203H218.267V187.996H212.185V191.529H217.441V193.287ZM114.706 212.203L118.398 222.012L122.08 212.203H124.954V225H122.74V220.781L122.959 215.139L119.18 225H117.589L113.819 215.147L114.038 220.781V225H111.824V212.203H114.706ZM146.591 219.287H141.335V223.225H147.478V225H139.111V212.203H147.417V213.996H141.335V217.529H146.591V219.287ZM170.96 225H168.737L163.032 215.921V225H160.809V212.203H163.032L168.754 221.317V212.203H170.96V225ZM194.091 213.996H190.1V225H187.894V213.996H183.939V212.203H194.091V213.996Z" fill="#424242"/>
<defs>
<filter id="filter0_d" x="0" y="0" width="303.62" height="278" filterUnits="userSpaceOnUse" color-interpolation-filters="sRGB">
<feFlood flood-opacity="0" result="BackgroundImageFix"/>
<feColorMatrix in="SourceAlpha" type="matrix" values="0 0 0 0 0 0 0 0 0 0 0 0 0 0 0 0 0 0 127 0"/>
<feOffset dy="4"/>
<feGaussianBlur stdDeviation="2"/>
<feColorMatrix type="matrix" values="0 0 0 0 0 0 0 0 0 0 0 0 0 0 0 0 0 0 0.25 0"/>
<feBlend mode="normal" in2="BackgroundImageFix" result="effect1_dropShadow"/>
<feBlend mode="normal" in="SourceGraphic" in2="effect1_dropShadow" result="shape"/>
</filter>
</defs>
</svg>
