<svg width="34" height="35" viewBox="0 0 34 35" fill="none" xmlns="http://www.w3.org/2000/svg">
<path d="M33.1307 18.0133C33.1307 27.0241 25.8261 34.3287 16.8154 34.3287C7.80464 34.3287 0.5 27.0241 0.5 18.0133C0.5 13.5323 2.30153 10.6401 5.18959 8.84002C8.11605 7.01597 12.2089 6.2832 16.8154 6.2832C21.4218 6.2832 25.5147 7.01597 28.4411 8.84002C31.3292 10.6401 33.1307 13.5323 33.1307 18.0133Z" stroke="white"/>
<path d="M30.9895 17.2743C30.9895 24.3288 25.2598 30.0492 18.19 30.0492C11.1203 30.0492 5.39062 24.3288 5.39062 17.2743C5.39062 13.7713 6.79825 11.5229 9.05006 10.1219C11.3404 8.69701 14.5544 8.11914 18.19 8.11914C21.8257 8.11914 25.0397 8.69701 27.33 10.1219C29.5818 11.5229 30.9895 13.7713 30.9895 17.2743Z" fill="white" stroke="white"/>
<path d="M18.499 0.893179C16.5118 0.587445 11.4672 1.3522 14.9831 3.33905C18.499 5.32589 22.6251 17.2494 22.6251 17.2494C22.6251 17.2494 20.4863 1.19891 18.499 0.893179Z" stroke="white"/>
</svg>
