<svg width="351" height="343" viewBox="0 0 351 343" fill="none" xmlns="http://www.w3.org/2000/svg">
<rect x="0.5" y="0.5" width="349" height="342" stroke="black"/>
<rect x="1" y="43" width="350" height="280" rx="20" fill="#182435" fill-opacity="0.2"/>
<path d="M161 254.334H193.1C202.157 254.334 209.5 261.677 209.5 270.734C209.5 279.791 202.157 287.134 193.1 287.134H141.5V273.834C141.5 263.064 150.23 254.334 161 254.334Z" stroke="white"/>
<path d="M163.46 269.297C162.847 269.297 162.29 269.414 161.79 269.647C161.29 269.874 160.86 270.184 160.5 270.577C160.147 270.971 159.873 271.434 159.68 271.967C159.487 272.501 159.39 273.071 159.39 273.677C159.39 274.271 159.473 274.791 159.64 275.237C159.813 275.684 160.037 276.057 160.31 276.357C160.59 276.657 160.903 276.884 161.25 277.037C161.597 277.184 161.947 277.257 162.3 277.257C162.613 277.257 162.91 277.204 163.19 277.097C163.47 276.991 163.73 276.857 163.97 276.697C164.21 276.537 164.427 276.364 164.62 276.177C164.813 275.984 164.977 275.804 165.11 275.637V269.297H163.46ZM165.11 278.697V277.077L164.25 278.207C164.01 278.367 163.69 278.517 163.29 278.657C162.89 278.797 162.43 278.867 161.91 278.867C161.31 278.867 160.743 278.761 160.21 278.547C159.677 278.327 159.21 277.997 158.81 277.557C158.41 277.111 158.093 276.547 157.86 275.867C157.627 275.181 157.51 274.371 157.51 273.437C157.51 272.637 157.663 271.891 157.97 271.197C158.283 270.497 158.707 269.887 159.24 269.367C159.773 268.847 160.4 268.441 161.12 268.147C161.847 267.847 162.623 267.697 163.45 267.697H165.11V262.497L166.91 262.697V276.897L167.11 278.697H165.11ZM175.498 278.867C174.758 278.867 174.078 278.724 173.458 278.437C172.844 278.144 172.314 277.744 171.868 277.237C171.421 276.724 171.071 276.121 170.818 275.427C170.571 274.734 170.448 273.981 170.448 273.167C170.448 272.361 170.568 271.614 170.808 270.927C171.048 270.234 171.388 269.637 171.828 269.137C172.268 268.631 172.798 268.237 173.418 267.957C174.044 267.671 174.738 267.527 175.498 267.527C176.238 267.527 176.911 267.671 177.518 267.957C178.124 268.237 178.644 268.631 179.078 269.137C179.518 269.637 179.858 270.234 180.098 270.927C180.338 271.614 180.458 272.361 180.458 273.167C180.458 273.981 180.341 274.734 180.108 275.427C179.881 276.121 179.551 276.724 179.118 277.237C178.691 277.744 178.171 278.144 177.558 278.437C176.944 278.724 176.258 278.867 175.498 278.867ZM178.558 273.437C178.558 272.897 178.501 272.367 178.388 271.847C178.274 271.327 178.094 270.864 177.848 270.457C177.601 270.044 177.281 269.711 176.888 269.457C176.494 269.204 176.018 269.077 175.458 269.077C174.924 269.077 174.461 269.187 174.068 269.407C173.674 269.627 173.351 269.921 173.098 270.287C172.844 270.654 172.654 271.071 172.528 271.537C172.408 272.004 172.348 272.484 172.348 272.977C172.348 273.517 172.408 274.047 172.528 274.567C172.654 275.087 172.844 275.551 173.098 275.957C173.358 276.364 173.688 276.694 174.088 276.947C174.494 277.194 174.978 277.317 175.538 277.317C176.064 277.317 176.518 277.207 176.898 276.987C177.284 276.767 177.598 276.477 177.838 276.117C178.084 275.751 178.264 275.337 178.378 274.877C178.498 274.411 178.558 273.931 178.558 273.437ZM191.326 267.697L193.126 267.497V278.697H191.326V276.897L190.716 277.967C190.656 278.041 190.559 278.127 190.426 278.227C190.292 278.327 190.126 278.427 189.926 278.527C189.726 278.621 189.496 278.701 189.236 278.767C188.976 278.834 188.686 278.867 188.366 278.867C187.559 278.867 186.882 278.744 186.336 278.497C185.796 278.244 185.362 277.911 185.036 277.497C184.709 277.084 184.476 276.607 184.336 276.067C184.196 275.527 184.126 274.971 184.126 274.397V267.697L185.926 267.497V274.397C185.926 274.831 185.969 275.221 186.056 275.567C186.142 275.914 186.289 276.211 186.496 276.457C186.709 276.704 186.989 276.894 187.336 277.027C187.689 277.154 188.126 277.217 188.646 277.217C189.032 277.217 189.376 277.164 189.676 277.057C189.976 276.944 190.236 276.811 190.456 276.657C190.682 276.497 190.866 276.331 191.006 276.157C191.152 275.984 191.259 275.831 191.326 275.697V267.697Z" fill="white"/>
<path d="M184.792 110.571C180.894 110.571 179.42 115.29 179.357 115.49C178.917 116.965 177.513 117.988 175.927 117.988H175.9C174.3 117.978 172.903 116.955 172.476 115.466C172.42 115.291 170.947 110.571 167.048 110.571C163.569 110.571 161.753 113.515 161.753 116.421C161.753 120.547 165.609 123.876 173.643 130.424C174.376 131.025 175.137 131.647 175.92 132.288C176.689 131.657 177.436 131.049 178.162 130.458C185.525 124.437 190.087 120.736 190.087 116.421C190.088 113.515 188.271 110.571 184.792 110.571V110.571ZM175.921 78.0742C152.253 78.0742 133 96.6823 133 119.557C133 148.151 171.547 192.511 173.189 194.385C173.866 195.161 174.865 195.61 175.921 195.61C176.976 195.61 177.974 195.161 178.652 194.385C180.294 192.511 218.841 148.151 218.841 119.557C218.841 96.6823 199.588 78.0742 175.921 78.0742V78.0742ZM182.774 135.742C181.356 136.899 179.847 138.129 178.261 139.455C177.59 140.019 176.752 140.299 175.921 140.299C175.082 140.299 174.251 140.019 173.58 139.455C171.981 138.118 170.458 136.876 169.025 135.708C160.65 128.879 154.6 123.94 154.6 116.421C154.6 109.264 160.07 103.657 167.048 103.657C170.981 103.657 173.887 105.392 175.92 107.573C177.953 105.392 180.859 103.657 184.792 103.657C191.771 103.657 197.241 109.264 197.241 116.421C197.241 124.226 190.588 129.369 182.774 135.742V135.742Z" fill="url(#paint0_linear)"/>
<path d="M89.4172 146.516C86.661 149.178 89.0741 153.521 89.1756 153.705C89.9447 155.049 89.7008 156.731 88.5794 157.814L88.5598 157.833C87.4213 158.918 85.6844 159.149 84.2929 158.387C84.1248 158.302 79.6268 155.971 76.8703 158.633C74.4104 161.008 75.2815 164.33 77.4097 166.385C80.4304 169.302 85.5944 169.023 96.0702 168.168C97.0288 168.092 98.0219 168.012 99.045 167.931C99.1262 166.959 99.2097 166.02 99.2909 165.106C100.088 155.82 100.604 150.088 97.4449 147.037C95.317 144.982 91.8771 144.14 89.4172 146.516V146.516ZM59.3494 129.595C42.6136 145.757 42.625 172.062 59.3745 188.237C80.3113 208.456 140.049 213.501 142.582 213.705C143.629 213.791 144.665 213.426 145.411 212.706C146.157 211.986 146.534 210.986 146.445 209.974C146.234 207.528 141.01 149.839 120.073 129.62C103.324 113.444 76.0852 113.433 59.3494 129.595V129.595ZM106.42 165.693C106.265 167.48 106.098 169.379 105.948 171.4C105.887 172.257 105.499 173.027 104.911 173.595C104.318 174.167 103.525 174.537 102.638 174.597C100.529 174.743 98.542 174.905 96.674 175.057C85.7508 175.947 77.8565 176.586 72.3515 171.27C67.1111 166.209 66.8732 158.509 71.8078 153.744C74.5888 151.058 77.9141 150.3 80.9485 150.455C80.7889 147.524 81.5734 144.313 84.3545 141.627C89.2893 136.862 97.2628 137.092 102.503 142.152C108.218 147.671 107.28 155.851 106.42 165.693V165.693Z" fill="url(#paint1_linear)"/>
<path d="M274.891 158.631C272.135 155.969 267.637 158.3 267.446 158.398C266.055 159.14 264.313 158.905 263.192 157.822L263.172 157.803C262.048 156.703 261.809 155.026 262.598 153.682C262.687 153.52 265.1 149.176 262.344 146.514C259.884 144.139 256.444 144.98 254.316 147.035C251.295 149.952 251.584 154.939 252.47 165.056C252.548 165.982 252.632 166.941 252.716 167.929C253.721 168.007 254.695 168.088 255.641 168.166C265.256 168.936 271.192 169.434 274.351 166.383C276.479 164.328 277.351 161.006 274.891 158.631V158.631ZM292.412 129.594C275.676 113.432 248.437 113.443 231.688 129.618C210.751 149.837 205.528 207.527 205.317 209.973C205.227 210.984 205.605 211.984 206.351 212.705C207.097 213.425 208.132 213.789 209.18 213.703C211.712 213.499 271.45 208.455 292.387 188.236C309.136 172.061 309.148 145.756 292.412 129.594V129.594ZM255.033 175.051C253.183 174.901 251.216 174.74 249.123 174.595C248.236 174.536 247.438 174.161 246.85 173.594C246.257 173.021 245.875 172.255 245.813 171.399C245.661 169.361 245.494 167.443 245.336 165.639C244.414 155.09 243.753 147.467 249.258 142.15C254.498 137.09 262.472 136.86 267.406 141.625C270.187 144.311 270.972 147.522 270.812 150.453C273.847 150.298 277.172 151.056 279.953 153.742C284.888 158.507 284.65 166.207 279.409 171.268C273.695 176.787 265.224 175.881 255.033 175.051V175.051Z" fill="url(#paint2_linear)"/>
<path fill-rule="evenodd" clip-rule="evenodd" d="M158 182.971C158 180.506 160.111 178.509 162.711 178.509H188.289C190.891 178.509 193 180.505 193 182.971V236.436C193 238.901 190.889 240.898 188.289 240.898H162.711C160.109 240.898 158 238.902 158 236.436V182.971ZM160.019 182.964V236.443C160.019 237.845 161.225 238.988 162.713 238.988H188.287C189.777 238.988 190.981 237.849 190.981 236.443V182.964C190.981 181.562 189.777 180.419 188.291 180.419H183.579C183.211 180.419 182.748 180.664 182.557 180.966L181.232 183.055C181.043 183.352 180.583 183.602 180.211 183.602H170.789C170.415 183.602 169.96 183.357 169.768 183.055L168.443 180.966C168.255 180.668 167.794 180.419 167.421 180.419H162.709C161.228 180.419 160.019 181.558 160.019 182.964Z" fill="white"/>
<defs>
<linearGradient id="paint0_linear" x1="175.921" y1="195.61" x2="175.921" y2="78.0742" gradientUnits="userSpaceOnUse">
<stop stop-color="#4F5DD9"/>
<stop offset="1" stop-color="#FD3A84"/>
</linearGradient>
<linearGradient id="paint1_linear" x1="145.411" y1="212.706" x2="62.3506" y2="126.697" gradientUnits="userSpaceOnUse">
<stop stop-color="#4F5DD9"/>
<stop offset="1" stop-color="#FD3A84"/>
</linearGradient>
<linearGradient id="paint2_linear" x1="206.351" y1="212.705" x2="289.411" y2="126.696" gradientUnits="userSpaceOnUse">
<stop stop-color="#4F5DD9"/>
<stop offset="1" stop-color="#FD3A84"/>
</linearGradient>
</defs>
</svg>
