<svg width="308" height="282" viewBox="0 0 308 282" fill="none" xmlns="http://www.w3.org/2000/svg">
<g filter="url(#filter0_d)">
<rect x="4" width="300" height="274" rx="10" fill="#E1EEFF"/>
</g>
<circle cx="124.5" cy="141.5" r="42" stroke="white" stroke-width="3"/>
<circle cx="81" cy="109" r="26.5" stroke="white" stroke-width="3"/>
<path d="M140.016 154V142.625H144C145.38 142.625 146.427 142.891 147.141 143.422C147.854 143.948 148.211 144.721 148.211 145.742C148.211 146.299 148.068 146.792 147.781 147.219C147.495 147.641 147.096 147.951 146.586 148.148C147.169 148.294 147.628 148.589 147.961 149.031C148.299 149.474 148.469 150.016 148.469 150.656C148.469 151.75 148.12 152.578 147.422 153.141C146.724 153.703 145.729 153.99 144.438 154H140.016ZM142.359 149.047V152.117H144.367C144.919 152.117 145.349 151.987 145.656 151.727C145.969 151.461 146.125 151.096 146.125 150.633C146.125 149.591 145.586 149.062 144.508 149.047H142.359ZM142.359 147.391H144.094C145.276 147.37 145.867 146.898 145.867 145.977C145.867 145.461 145.716 145.091 145.414 144.867C145.117 144.638 144.646 144.523 144 144.523H142.359V147.391ZM169.818 148.57C169.818 149.69 169.62 150.672 169.224 151.516C168.829 152.359 168.261 153.01 167.521 153.469C166.787 153.927 165.943 154.156 164.99 154.156C164.047 154.156 163.206 153.93 162.467 153.477C161.727 153.023 161.154 152.378 160.748 151.539C160.342 150.695 160.136 149.727 160.131 148.633V148.07C160.131 146.951 160.331 145.966 160.732 145.117C161.138 144.263 161.709 143.609 162.443 143.156C163.183 142.698 164.026 142.469 164.974 142.469C165.922 142.469 166.763 142.698 167.498 143.156C168.237 143.609 168.808 144.263 169.209 145.117C169.615 145.966 169.818 146.948 169.818 148.062V148.57ZM167.443 148.055C167.443 146.862 167.23 145.956 166.802 145.336C166.375 144.716 165.766 144.406 164.974 144.406C164.188 144.406 163.581 144.714 163.154 145.328C162.727 145.938 162.511 146.833 162.506 148.016V148.57C162.506 149.732 162.719 150.633 163.146 151.273C163.573 151.914 164.188 152.234 164.99 152.234C165.776 152.234 166.381 151.927 166.802 151.312C167.224 150.693 167.438 149.792 167.443 148.609V148.055ZM184.105 152.117H189.082V154H181.761V142.625H184.105V152.117ZM207.626 144.523H204.142V154H201.798V144.523H198.361V142.625H207.626V144.523ZM139.617 176.711C139.617 175.409 139.919 174.365 140.523 173.578C141.128 172.786 141.938 172.391 142.953 172.391C143.849 172.391 144.573 172.703 145.125 173.328V169H147.023V181H145.305L145.211 180.125C144.643 180.812 143.885 181.156 142.938 181.156C141.948 181.156 141.146 180.758 140.531 179.961C139.922 179.164 139.617 178.081 139.617 176.711ZM141.516 176.875C141.516 177.734 141.68 178.406 142.008 178.891C142.341 179.37 142.812 179.609 143.422 179.609C144.198 179.609 144.766 179.263 145.125 178.57V174.961C144.776 174.284 144.214 173.945 143.438 173.945C142.823 173.945 142.349 174.19 142.016 174.68C141.682 175.164 141.516 175.896 141.516 176.875ZM162.967 181.156C161.763 181.156 160.787 180.779 160.037 180.023C159.292 179.263 158.92 178.253 158.92 176.992V176.758C158.92 175.914 159.081 175.161 159.404 174.5C159.732 173.833 160.191 173.315 160.779 172.945C161.368 172.576 162.024 172.391 162.748 172.391C163.899 172.391 164.787 172.758 165.412 173.492C166.042 174.227 166.357 175.266 166.357 176.609V177.375H160.834C160.891 178.073 161.123 178.625 161.529 179.031C161.941 179.438 162.456 179.641 163.076 179.641C163.946 179.641 164.654 179.289 165.201 178.586L166.224 179.562C165.886 180.068 165.433 180.461 164.865 180.742C164.302 181.018 163.67 181.156 162.967 181.156ZM162.74 173.914C162.219 173.914 161.797 174.096 161.474 174.461C161.157 174.826 160.954 175.333 160.865 175.984H164.482V175.844C164.441 175.208 164.271 174.729 163.974 174.406C163.677 174.078 163.266 173.914 162.74 173.914ZM182.816 178.703C182.816 178.365 182.675 178.107 182.394 177.93C182.118 177.753 181.657 177.596 181.011 177.461C180.365 177.326 179.826 177.154 179.394 176.945C178.446 176.487 177.972 175.823 177.972 174.953C177.972 174.224 178.279 173.615 178.894 173.125C179.509 172.635 180.29 172.391 181.238 172.391C182.248 172.391 183.063 172.641 183.683 173.141C184.308 173.641 184.621 174.289 184.621 175.086H182.722C182.722 174.721 182.587 174.419 182.316 174.18C182.045 173.935 181.686 173.812 181.238 173.812C180.821 173.812 180.48 173.909 180.214 174.102C179.954 174.294 179.824 174.552 179.824 174.875C179.824 175.167 179.946 175.393 180.191 175.555C180.436 175.716 180.931 175.88 181.675 176.047C182.42 176.208 183.003 176.404 183.425 176.633C183.852 176.857 184.167 177.128 184.371 177.445C184.579 177.763 184.683 178.148 184.683 178.602C184.683 179.362 184.368 179.979 183.738 180.453C183.108 180.922 182.282 181.156 181.261 181.156C180.569 181.156 179.951 181.031 179.41 180.781C178.868 180.531 178.446 180.188 178.144 179.75C177.842 179.312 177.691 178.841 177.691 178.336H179.535C179.561 178.784 179.73 179.13 180.042 179.375C180.355 179.615 180.769 179.734 181.285 179.734C181.785 179.734 182.165 179.641 182.425 179.453C182.686 179.26 182.816 179.01 182.816 178.703ZM198.603 181H196.704V172.547H198.603V181ZM196.587 170.352C196.587 170.06 196.678 169.818 196.861 169.625C197.048 169.432 197.314 169.336 197.658 169.336C198.001 169.336 198.267 169.432 198.454 169.625C198.642 169.818 198.736 170.06 198.736 170.352C198.736 170.638 198.642 170.878 198.454 171.07C198.267 171.258 198.001 171.352 197.658 171.352C197.314 171.352 197.048 171.258 196.861 171.07C196.678 170.878 196.587 170.638 196.587 170.352ZM210.585 176.711C210.585 175.398 210.892 174.352 211.507 173.57C212.127 172.784 212.947 172.391 213.968 172.391C214.931 172.391 215.689 172.727 216.241 173.398L216.327 172.547H218.038V180.742C218.038 181.852 217.692 182.727 216.999 183.367C216.312 184.008 215.382 184.328 214.21 184.328C213.59 184.328 212.983 184.198 212.39 183.938C211.801 183.682 211.353 183.346 211.046 182.93L211.944 181.789C212.528 182.482 213.246 182.828 214.101 182.828C214.731 182.828 215.228 182.656 215.593 182.312C215.957 181.974 216.14 181.474 216.14 180.812V180.242C215.593 180.852 214.864 181.156 213.952 181.156C212.963 181.156 212.153 180.763 211.522 179.977C210.897 179.19 210.585 178.102 210.585 176.711ZM212.476 176.875C212.476 177.724 212.647 178.393 212.991 178.883C213.34 179.367 213.822 179.609 214.437 179.609C215.202 179.609 215.77 179.281 216.14 178.625V174.906C215.78 174.266 215.218 173.945 214.452 173.945C213.827 173.945 213.34 174.193 212.991 174.688C212.647 175.182 212.476 175.911 212.476 176.875ZM231.997 172.547L232.052 173.523C232.677 172.768 233.497 172.391 234.512 172.391C236.273 172.391 237.169 173.398 237.2 175.414V181H235.302V175.523C235.302 174.987 235.184 174.591 234.95 174.336C234.721 174.076 234.343 173.945 233.817 173.945C233.052 173.945 232.481 174.292 232.106 174.984V181H230.208V172.547H231.997ZM144.711 200.703C144.711 200.365 144.57 200.107 144.289 199.93C144.013 199.753 143.552 199.596 142.906 199.461C142.26 199.326 141.721 199.154 141.289 198.945C140.341 198.487 139.867 197.823 139.867 196.953C139.867 196.224 140.174 195.615 140.789 195.125C141.404 194.635 142.185 194.391 143.133 194.391C144.143 194.391 144.958 194.641 145.578 195.141C146.203 195.641 146.516 196.289 146.516 197.086H144.617C144.617 196.721 144.482 196.419 144.211 196.18C143.94 195.935 143.581 195.812 143.133 195.812C142.716 195.812 142.375 195.909 142.109 196.102C141.849 196.294 141.719 196.552 141.719 196.875C141.719 197.167 141.841 197.393 142.086 197.555C142.331 197.716 142.826 197.88 143.57 198.047C144.315 198.208 144.898 198.404 145.32 198.633C145.747 198.857 146.062 199.128 146.266 199.445C146.474 199.763 146.578 200.148 146.578 200.602C146.578 201.362 146.263 201.979 145.633 202.453C145.003 202.922 144.177 203.156 143.156 203.156C142.464 203.156 141.846 203.031 141.305 202.781C140.763 202.531 140.341 202.188 140.039 201.75C139.737 201.312 139.586 200.841 139.586 200.336H141.43C141.456 200.784 141.625 201.13 141.938 201.375C142.25 201.615 142.664 201.734 143.18 201.734C143.68 201.734 144.06 201.641 144.32 201.453C144.581 201.26 144.711 201.01 144.711 200.703ZM161.435 200.281L163.154 194.547H165.177L161.818 204.281C161.302 205.703 160.427 206.414 159.193 206.414C158.917 206.414 158.612 206.367 158.279 206.273V204.805L158.638 204.828C159.118 204.828 159.477 204.74 159.717 204.562C159.961 204.391 160.154 204.099 160.295 203.688L160.568 202.961L157.599 194.547H159.646L161.435 200.281ZM181.253 200.703C181.253 200.365 181.113 200.107 180.832 199.93C180.556 199.753 180.095 199.596 179.449 199.461C178.803 199.326 178.264 199.154 177.832 198.945C176.884 198.487 176.41 197.823 176.41 196.953C176.41 196.224 176.717 195.615 177.332 195.125C177.946 194.635 178.727 194.391 179.675 194.391C180.686 194.391 181.501 194.641 182.121 195.141C182.746 195.641 183.058 196.289 183.058 197.086H181.16C181.16 196.721 181.024 196.419 180.753 196.18C180.483 195.935 180.123 195.812 179.675 195.812C179.259 195.812 178.917 195.909 178.652 196.102C178.391 196.294 178.261 196.552 178.261 196.875C178.261 197.167 178.384 197.393 178.628 197.555C178.873 197.716 179.368 197.88 180.113 198.047C180.858 198.208 181.441 198.404 181.863 198.633C182.29 198.857 182.605 199.128 182.808 199.445C183.016 199.763 183.121 200.148 183.121 200.602C183.121 201.362 182.806 201.979 182.175 202.453C181.545 202.922 180.72 203.156 179.699 203.156C179.006 203.156 178.389 203.031 177.847 202.781C177.306 202.531 176.884 202.188 176.582 201.75C176.279 201.312 176.128 200.841 176.128 200.336H177.972C177.998 200.784 178.167 201.13 178.48 201.375C178.792 201.615 179.207 201.734 179.722 201.734C180.222 201.734 180.602 201.641 180.863 201.453C181.123 201.26 181.253 201.01 181.253 200.703ZM197.4 192.492V194.547H198.892V195.953H197.4V200.672C197.4 200.995 197.462 201.229 197.587 201.375C197.717 201.516 197.947 201.586 198.275 201.586C198.493 201.586 198.715 201.56 198.939 201.508V202.977C198.506 203.096 198.09 203.156 197.689 203.156C196.23 203.156 195.501 202.352 195.501 200.742V195.953H194.111V194.547H195.501V192.492H197.4ZM214.312 203.156C213.108 203.156 212.132 202.779 211.382 202.023C210.637 201.263 210.265 200.253 210.265 198.992V198.758C210.265 197.914 210.426 197.161 210.749 196.5C211.077 195.833 211.536 195.315 212.124 194.945C212.713 194.576 213.369 194.391 214.093 194.391C215.244 194.391 216.132 194.758 216.757 195.492C217.387 196.227 217.702 197.266 217.702 198.609V199.375H212.179C212.236 200.073 212.468 200.625 212.874 201.031C213.286 201.438 213.801 201.641 214.421 201.641C215.291 201.641 215.999 201.289 216.546 200.586L217.569 201.562C217.231 202.068 216.778 202.461 216.21 202.742C215.647 203.018 215.015 203.156 214.312 203.156ZM214.085 195.914C213.564 195.914 213.142 196.096 212.819 196.461C212.502 196.826 212.299 197.333 212.21 197.984H215.827V197.844C215.786 197.208 215.616 196.729 215.319 196.406C215.022 196.078 214.611 195.914 214.085 195.914ZM231.208 194.547L231.262 195.43C231.856 194.737 232.669 194.391 233.7 194.391C234.83 194.391 235.604 194.823 236.02 195.688C236.635 194.823 237.499 194.391 238.614 194.391C239.546 194.391 240.239 194.648 240.692 195.164C241.151 195.68 241.385 196.44 241.395 197.445V203H239.497V197.5C239.497 196.964 239.38 196.57 239.145 196.32C238.911 196.07 238.523 195.945 237.981 195.945C237.549 195.945 237.195 196.062 236.919 196.297C236.648 196.526 236.458 196.828 236.348 197.203L236.356 203H234.458V197.438C234.432 196.443 233.924 195.945 232.934 195.945C232.174 195.945 231.635 196.255 231.317 196.875V203H229.419V194.547H231.208Z" fill="#4F4F4F"/>
<defs>
<filter id="filter0_d" x="0" y="0" width="308" height="282" filterUnits="userSpaceOnUse" color-interpolation-filters="sRGB">
<feFlood flood-opacity="0" result="BackgroundImageFix"/>
<feColorMatrix in="SourceAlpha" type="matrix" values="0 0 0 0 0 0 0 0 0 0 0 0 0 0 0 0 0 0 127 0"/>
<feOffset dy="4"/>
<feGaussianBlur stdDeviation="2"/>
<feColorMatrix type="matrix" values="0 0 0 0 0 0 0 0 0 0 0 0 0 0 0 0 0 0 0.25 0"/>
<feBlend mode="normal" in2="BackgroundImageFix" result="effect1_dropShadow"/>
<feBlend mode="normal" in="SourceGraphic" in2="effect1_dropShadow" result="shape"/>
</filter>
</defs>
</svg>
