<svg width="308" height="282" viewBox="0 0 308 282" fill="none" xmlns="http://www.w3.org/2000/svg">
<g filter="url(#filter0_d)">
<rect x="4" width="300" height="274" rx="10" fill="url(#paint0_radial)"/>
</g>
<path d="M159.725 118.849H155.551V114.675C155.551 109.136 160.041 104.646 165.58 104.646H168.856C169.352 104.646 169.754 105.048 169.754 105.544V108.82C169.754 114.359 165.264 118.849 159.725 118.849V118.849Z" fill="#B3E59F"/>
<path d="M151.377 123.9H155.551V119.725C155.551 114.186 151.061 109.696 145.522 109.696H142.246C141.75 109.696 141.348 110.099 141.348 110.595V113.871C141.348 119.41 145.838 123.9 151.377 123.9Z" fill="#B3E59F"/>
<path d="M154.253 120C153.617 119.282 153.684 118.185 154.401 117.55L160.357 112.277C161.075 111.641 162.171 111.708 162.807 112.426C163.442 113.143 163.375 114.24 162.658 114.875L156.702 120.148C155.987 120.782 154.89 120.719 154.253 120Z" fill="#78C2A4"/>
<path d="M195.077 118.849H190.902V114.675C190.902 109.136 195.393 104.646 200.931 104.646H204.207C204.704 104.646 205.106 105.048 205.106 105.544V108.82C205.106 114.359 200.616 118.849 195.077 118.849Z" fill="#B3E59F"/>
<path d="M186.728 123.9H190.903V119.725C190.903 114.186 186.413 109.696 180.874 109.696H177.598C177.101 109.696 176.699 110.099 176.699 110.595V113.871C176.699 119.41 181.189 123.9 186.728 123.9Z" fill="#B3E59F"/>
<path d="M189.6 120C188.965 119.282 189.032 118.185 189.749 117.55L195.705 112.277C196.423 111.641 197.519 111.708 198.155 112.426C198.79 113.143 198.723 114.24 198.006 114.875L192.05 120.148C191.335 120.782 190.238 120.719 189.6 120V120Z" fill="#78C2A4"/>
<path d="M124.378 118.849H120.203V114.675C120.203 109.136 124.693 104.646 130.232 104.646H133.508C134.004 104.646 134.407 105.048 134.407 105.544V108.82C134.407 114.359 129.916 118.849 124.378 118.849Z" fill="#B3E59F"/>
<path d="M116.029 123.9H120.204V119.725C120.204 114.186 115.714 109.696 110.174 109.696H106.898C106.402 109.696 106 110.099 106 110.595V113.871C106 119.41 110.49 123.9 116.029 123.9V123.9Z" fill="#B3E59F"/>
<path d="M120.208 131.735C119.25 131.735 118.473 130.958 118.473 130V118.792C118.473 117.833 119.25 117.057 120.208 117.057C121.166 117.057 121.943 117.834 121.943 118.792V130C121.943 130.959 121.166 131.735 120.208 131.735Z" fill="#78C2A4"/>
<path d="M118.905 120C118.269 119.282 118.336 118.185 119.054 117.55L125.009 112.277C125.727 111.641 126.824 111.708 127.459 112.426C128.094 113.143 128.028 114.24 127.31 114.875L121.355 120.148C120.64 120.782 119.542 120.719 118.905 120V120Z" fill="#78C2A4"/>
<path d="M118.977 125.127L113.001 119.151C112.323 118.473 112.323 117.374 113.001 116.697C113.678 116.019 114.777 116.019 115.455 116.697L121.431 122.673C122.109 123.351 122.109 124.449 121.431 125.127C120.754 125.805 119.654 125.805 118.977 125.127V125.127Z" fill="#78C2A4"/>
<path d="M189.672 125.127L183.696 119.151C183.018 118.474 183.018 117.374 183.696 116.697C184.374 116.019 185.472 116.019 186.15 116.697L192.127 122.673C192.805 123.35 192.805 124.449 192.127 125.127C191.449 125.805 190.35 125.805 189.672 125.127Z" fill="#78C2A4"/>
<path d="M155.552 131.735C154.593 131.735 153.816 130.958 153.816 130V118.792C153.816 117.833 154.593 117.057 155.552 117.057C156.51 117.057 157.287 117.834 157.287 118.792V130C157.287 130.959 156.51 131.735 155.552 131.735Z" fill="#78C2A4"/>
<path d="M154.329 125.127L148.352 119.151C147.674 118.474 147.674 117.374 148.352 116.697C149.03 116.019 150.129 116.019 150.806 116.697L156.783 122.673C157.461 123.35 157.461 124.449 156.783 125.127C156.105 125.805 155.006 125.805 154.329 125.127V125.127Z" fill="#78C2A4"/>
<path d="M190.899 131.735C189.941 131.735 189.164 130.958 189.164 129.999V118.849C189.164 117.89 189.941 117.113 190.899 117.113C191.858 117.113 192.635 117.89 192.635 118.849V129.999C192.635 130.958 191.858 131.735 190.899 131.735Z" fill="#78C2A4"/>
<path d="M117.537 92.9607C117.006 92.9607 116.591 92.5029 116.641 91.9744C117.125 86.8324 121.227 81.9377 123.161 77.476C124.321 74.8013 122.403 72.2825 124.105 69.9591C129.651 62.389 137.865 56.8959 147.361 54.8634C150.003 54.2981 152.744 57.3696 155.554 57.3696C174.818 57.3696 190.816 67.981 193.956 86.3493C194.273 88.2037 194.459 90.1025 194.504 92.0364C194.515 92.5425 194.111 92.9607 193.604 92.9607H117.537Z" fill="#9DC6FB"/>
<path d="M148.612 57.4709C168.96 57.4709 185.661 73.0695 187.417 92.9605H193.605C194.112 92.9605 194.516 92.5411 194.504 92.0344C194.012 70.9449 176.762 54 155.554 54C147.91 54 140.782 56.2032 134.766 60.0066C139.069 58.3698 143.735 57.4709 148.612 57.4709V57.4709Z" fill="#80B4FB"/>
<path d="M193.946 86.3513C190.805 67.9839 174.818 57.3697 155.555 57.3697C152.744 57.3697 150.005 54.3049 147.363 54.8704C148.14 57.9997 148.934 61.6748 149.648 66.0112C150.815 73.1028 151.305 79.1159 154.684 80.2042C157.975 81.2641 160.65 76.5713 165.214 77.4572C169.044 78.2004 169.581 81.9737 172.998 84.7827C177.632 88.5927 186.352 89.6284 193.946 86.3513V86.3513Z" fill="#B3E59F"/>
<path d="M186.698 88.202C189.118 87.9702 191.586 87.3691 193.946 86.3507C190.107 64.5706 169.224 50.2439 147.363 54.87C147.569 55.7 147.777 56.5694 147.983 57.4782C166.779 57.1352 182.939 70.4415 186.698 88.202V88.202Z" fill="#95D6A4"/>
<path d="M132.773 80.0248C131.551 76.0815 128.2 72.4116 124.112 69.9629C119.454 76.2987 116.792 84.0901 116.606 92.035C116.594 92.5415 116.998 92.9602 117.505 92.9602H133.083C132.53 86.6951 134.021 84.0535 132.773 80.0248V80.0248Z" fill="#B3E59F"/>
<path d="M193.603 130.043C194.11 130.043 194.515 130.461 194.503 130.967C194.278 140.613 190.548 149.391 184.538 156.078C177.405 164.013 167.062 165.634 155.553 165.634C150.913 165.634 146.463 168.192 142.336 166.704C136.547 164.617 131.394 161.197 127.248 156.815C124.925 154.36 126.288 151.603 124.662 148.61C121.809 143.355 117.076 137.372 116.627 131.01C116.59 130.488 117.001 130.043 117.524 130.043H193.603Z" fill="#9DC6FB"/>
<path d="M187.418 130.042C185.661 149.933 168.96 165.532 148.613 165.532C143.735 165.532 139.069 164.633 134.766 162.996C137.13 164.491 139.666 165.738 142.338 166.702C146.465 168.191 150.915 165.633 155.555 165.633C167.063 165.633 177.407 164.012 184.539 156.077C190.55 149.39 194.28 140.612 194.504 130.966C194.516 130.46 194.111 130.042 193.605 130.042H187.418Z" fill="#80B4FB"/>
<path d="M117.977 140.354C119.692 146.606 122.928 152.23 127.258 156.806C132.145 153.558 135.648 148.327 135.979 143.636C136.2 140.517 134.836 140.221 133.647 134.016C133.364 132.539 133.187 131.226 133.083 130.042H117.504C117.001 130.042 116.594 130.455 116.606 130.958C116.606 130.981 116.607 131.005 116.608 131.029C116.686 134.178 117.144 137.317 117.977 140.354V140.354Z" fill="#B3E59F"/>
<path d="M142.34 166.701C146.467 168.189 150.915 169.004 155.555 169.004C167.064 169.004 177.404 164.01 184.536 156.076C181.932 152.214 178.004 148.627 175.783 146.601C172.705 143.792 165.366 137.096 160.84 139.265C157.301 140.961 159.03 146.376 155.949 153.393C152.743 160.697 146.704 164.325 142.34 166.701V166.701Z" fill="#B3E59F"/>
<path d="M142.34 166.701C146.467 168.189 150.915 169.004 155.555 169.004C167.064 169.004 177.404 164.01 184.536 156.076C181.932 152.214 178.004 148.627 175.783 146.601C172.705 143.792 165.366 137.096 160.84 139.265C157.301 140.961 159.03 146.376 155.949 153.393C152.743 160.697 146.704 164.325 142.34 166.701V166.701Z" fill="#B3E59F"/>
<path d="M179.58 150.209C171.838 160.518 158.447 166.764 144.733 165.34C144.732 165.34 144.732 165.34 144.731 165.341C143.902 165.836 143.148 166.259 142.34 166.699C142.364 166.709 142.389 166.718 142.413 166.727C146.519 168.198 150.941 169.004 155.553 169.004C167.062 169.004 177.402 164.01 184.534 156.076C183.101 153.956 181.376 152.025 179.58 150.209V150.209Z" fill="#95D6A4"/>
<path d="M186.701 154.803C186.686 154.693 186.596 154.603 186.486 154.587C185.784 154.488 185.02 154.727 184.452 155.295C183.884 155.863 183.646 156.627 183.744 157.328C183.76 157.439 183.85 157.529 183.96 157.544C184.662 157.643 185.426 157.405 185.994 156.837C186.562 156.268 186.8 155.505 186.701 154.803Z" fill="#B4E66E"/>
<path d="M186.701 154.803C186.693 154.747 186.667 154.697 186.629 154.659L183.816 157.472C183.855 157.51 183.905 157.536 183.96 157.544C184.662 157.643 185.425 157.404 185.993 156.836C186.562 156.268 186.8 155.505 186.701 154.803Z" fill="#A0D755"/>
<path d="M179.778 151.679C179.645 151.691 179.54 151.796 179.527 151.93C179.478 152.447 179.664 152.999 180.08 153.415C180.495 153.831 181.047 154.016 181.565 153.967C181.698 153.954 181.803 153.85 181.816 153.716C181.865 153.199 181.679 152.647 181.263 152.231C180.848 151.815 180.296 151.629 179.778 151.679Z" fill="#B4E66E"/>
<path d="M180.08 153.415C180.495 153.831 181.047 154.016 181.565 153.967C181.632 153.961 181.691 153.931 181.736 153.887L179.607 151.759C179.563 151.803 179.534 151.863 179.527 151.93C179.478 152.447 179.664 152.999 180.08 153.415Z" fill="#A0D755"/>
<path d="M177.234 156.007C177.125 156.025 177.037 156.113 177.019 156.222C176.839 157.282 177.186 158.449 178.049 159.312C178.912 160.175 180.08 160.522 181.139 160.343C181.248 160.324 181.336 160.236 181.354 160.128C181.534 159.068 181.187 157.9 180.324 157.037C179.461 156.175 178.293 155.827 177.234 156.007Z" fill="#B4E66E"/>
<path d="M178.049 159.312C178.912 160.175 180.08 160.522 181.139 160.342C181.194 160.333 181.243 160.306 181.281 160.269L177.092 156.08C177.054 156.118 177.028 156.167 177.019 156.221C176.839 157.281 177.186 158.449 178.049 159.312Z" fill="#A0D755"/>
<path d="M187.787 168.294C187.373 167.347 186.43 166.685 185.33 166.685C185.26 166.685 185.19 166.689 185.122 166.695C184.984 166.707 184.85 166.663 184.74 166.58C184.157 166.142 183.434 165.881 182.649 165.881C181.864 165.881 181.141 166.142 180.559 166.58C180.449 166.663 180.315 166.707 180.177 166.695C180.108 166.689 180.039 166.685 179.968 166.685C178.869 166.685 177.926 167.347 177.512 168.294H187.787Z" fill="#9B735A"/>
<path d="M184.981 156.307C184.877 156.202 184.707 156.202 184.602 156.307L183.085 157.825C183.024 157.886 182.968 157.949 182.915 158.015V155.96C182.915 155.173 182.608 154.432 182.051 153.875L180.845 152.668C180.74 152.564 180.57 152.564 180.466 152.668C180.361 152.773 180.361 152.943 180.466 153.048L181.672 154.254C182.128 154.71 182.379 155.316 182.379 155.96V161.112C182.241 160.894 182.081 160.688 181.894 160.501L179.598 158.205C179.494 158.1 179.324 158.1 179.219 158.205C179.114 158.309 179.114 158.479 179.219 158.584L181.515 160.88C182.072 161.437 182.379 162.178 182.379 162.965V166.149H182.915V159.531C182.915 159.03 183.11 158.559 183.464 158.204L184.981 156.686C185.086 156.581 185.086 156.412 184.981 156.307Z" fill="#87BE4B"/>
<path d="M183.228 165.929C183.04 165.897 182.847 165.881 182.649 165.881C181.864 165.881 181.141 166.142 180.559 166.58C180.449 166.663 180.315 166.707 180.177 166.695C180.108 166.689 180.039 166.685 179.968 166.685C178.869 166.685 177.926 167.347 177.512 168.294H181.006C181.384 167.228 182.193 166.367 183.228 165.929Z" fill="#8C5F50"/>
<path d="M188.545 168.562H176.749C176.6 168.562 176.48 168.442 176.48 168.294C176.48 168.145 176.6 168.025 176.749 168.025H188.545C188.694 168.025 188.814 168.145 188.814 168.294C188.814 168.442 188.694 168.562 188.545 168.562Z" fill="#AE8B70"/>
<path fill-rule="evenodd" clip-rule="evenodd" d="M173 135.552C173 134.142 174.166 133 175.602 133H189.728C191.165 133 192.33 134.142 192.33 135.552V166.128C192.33 167.537 191.164 168.679 189.728 168.679H175.602C174.165 168.679 173 167.538 173 166.128V135.552ZM174.115 135.548V166.132C174.115 166.933 174.781 167.587 175.603 167.587H189.727C190.549 167.587 191.214 166.936 191.214 166.132V135.548C191.214 134.746 190.549 134.092 189.729 134.092H187.126C186.923 134.092 186.668 134.232 186.562 134.405L185.83 135.6C185.726 135.77 185.472 135.913 185.267 135.913H180.063C179.856 135.913 179.605 135.773 179.499 135.6L178.768 134.405C178.663 134.235 178.409 134.092 178.203 134.092H175.601C174.783 134.092 174.115 134.744 174.115 135.548Z" fill="white"/>
<path d="M93.0228 195.18H88.4447V200H86.4681V188.625H93.6947V190.219H88.4447V193.602H93.0228V195.18ZM105.783 194.609C105.783 195.724 105.59 196.703 105.205 197.547C104.82 198.385 104.267 199.031 103.549 199.484C102.835 199.932 102.012 200.156 101.08 200.156C100.158 200.156 99.3352 199.932 98.6112 199.484C97.8925 199.031 97.3352 198.388 96.9394 197.555C96.5487 196.721 96.3508 195.76 96.3456 194.672V194.031C96.3456 192.922 96.5409 191.943 96.9316 191.094C97.3274 190.245 97.8821 189.596 98.5956 189.148C99.3144 188.695 100.137 188.469 101.064 188.469C101.991 188.469 102.812 188.693 103.525 189.141C104.244 189.583 104.799 190.224 105.189 191.062C105.58 191.896 105.778 192.867 105.783 193.977V194.609ZM103.807 194.016C103.807 192.755 103.567 191.789 103.088 191.117C102.614 190.445 101.939 190.109 101.064 190.109C100.21 190.109 99.5409 190.445 99.0566 191.117C98.5774 191.784 98.3326 192.729 98.3222 193.953V194.609C98.3222 195.859 98.5644 196.826 99.0487 197.508C99.5383 198.19 100.215 198.531 101.08 198.531C101.955 198.531 102.627 198.198 103.096 197.531C103.57 196.865 103.807 195.891 103.807 194.609V194.016ZM113.372 195.617H111.168V200H109.192V188.625H113.192C114.504 188.625 115.517 188.919 116.231 189.508C116.944 190.096 117.301 190.948 117.301 192.062C117.301 192.823 117.116 193.461 116.747 193.977C116.382 194.487 115.872 194.88 115.215 195.156L117.77 199.898V200H115.653L113.372 195.617ZM111.168 194.031H113.2C113.866 194.031 114.387 193.865 114.762 193.531C115.137 193.193 115.325 192.732 115.325 192.148C115.325 191.539 115.15 191.068 114.801 190.734C114.458 190.401 113.942 190.229 113.254 190.219H111.168V194.031ZM132.408 197.352H128.002L127.08 200H125.025L129.322 188.625H131.095L135.4 200H133.338L132.408 197.352ZM128.556 195.758H131.853L130.205 191.039L128.556 195.758ZM152.241 196.297C152.126 197.51 151.678 198.458 150.897 199.141C150.116 199.818 149.077 200.156 147.78 200.156C146.874 200.156 146.074 199.943 145.382 199.516C144.694 199.083 144.163 198.471 143.788 197.68C143.413 196.888 143.217 195.969 143.202 194.922V193.859C143.202 192.786 143.392 191.841 143.772 191.023C144.152 190.206 144.697 189.576 145.405 189.133C146.119 188.69 146.941 188.469 147.874 188.469C149.129 188.469 150.139 188.81 150.905 189.492C151.671 190.174 152.116 191.138 152.241 192.383H150.272C150.178 191.565 149.939 190.977 149.553 190.617C149.173 190.253 148.613 190.07 147.874 190.07C147.014 190.07 146.353 190.385 145.889 191.016C145.431 191.641 145.197 192.56 145.186 193.773V194.781C145.186 196.01 145.405 196.948 145.842 197.594C146.285 198.24 146.931 198.562 147.78 198.562C148.556 198.562 149.139 198.388 149.53 198.039C149.921 197.69 150.168 197.109 150.272 196.297H152.241ZM157.431 198.422H162.595V200H155.454V188.625H157.431V198.422ZM172.199 194.922H167.527V198.422H172.988V200H165.551V188.625H172.933V190.219H167.527V193.359H172.199V194.922ZM182.405 197.352H177.998L177.077 200H175.022L179.319 188.625H181.092L185.397 200H183.334L182.405 197.352ZM178.553 195.758H181.85L180.202 191.039L178.553 195.758ZM197.157 200H195.181L190.11 191.93V200H188.134V188.625H190.11L195.196 196.727V188.625H197.157V200ZM207.582 194.922H202.91V198.422H208.371V200H200.933V188.625H208.316V190.219H202.91V193.359H207.582V194.922ZM215.6 195.617H213.397V200H211.42V188.625H215.42C216.732 188.625 217.746 188.919 218.459 189.508C219.173 190.096 219.529 190.948 219.529 192.062C219.529 192.823 219.344 193.461 218.975 193.977C218.61 194.487 218.1 194.88 217.443 195.156L219.998 199.898V200H217.881L215.6 195.617ZM213.397 194.031H215.428C216.094 194.031 216.615 193.865 216.99 193.531C217.365 193.193 217.553 192.732 217.553 192.148C217.553 191.539 217.378 191.068 217.029 190.734C216.686 190.401 216.17 190.229 215.482 190.219H213.397V194.031ZM133.589 219.188L135.339 210.625H137.3L134.675 222H132.784L130.62 213.695L128.409 222H126.511L123.886 210.625H125.847L127.612 219.172L129.784 210.625H131.44L133.589 219.188ZM149.263 216.609C149.263 217.724 149.07 218.703 148.685 219.547C148.3 220.385 147.747 221.031 147.029 221.484C146.315 221.932 145.492 222.156 144.56 222.156C143.638 222.156 142.815 221.932 142.091 221.484C141.372 221.031 140.815 220.388 140.419 219.555C140.029 218.721 139.831 217.76 139.826 216.672V216.031C139.826 214.922 140.021 213.943 140.412 213.094C140.807 212.245 141.362 211.596 142.076 211.148C142.794 210.695 143.617 210.469 144.544 210.469C145.471 210.469 146.292 210.693 147.005 211.141C147.724 211.583 148.279 212.224 148.669 213.062C149.06 213.896 149.258 214.867 149.263 215.977V216.609ZM147.287 216.016C147.287 214.755 147.047 213.789 146.568 213.117C146.094 212.445 145.419 212.109 144.544 212.109C143.69 212.109 143.021 212.445 142.537 213.117C142.057 213.784 141.813 214.729 141.802 215.953V216.609C141.802 217.859 142.044 218.826 142.529 219.508C143.018 220.19 143.695 220.531 144.56 220.531C145.435 220.531 146.107 220.198 146.576 219.531C147.05 218.865 147.287 217.891 147.287 216.609V216.016ZM156.852 217.617H154.648V222H152.672V210.625H156.672C157.984 210.625 158.997 210.919 159.711 211.508C160.424 212.096 160.781 212.948 160.781 214.062C160.781 214.823 160.596 215.461 160.227 215.977C159.862 216.487 159.352 216.88 158.695 217.156L161.25 221.898V222H159.133L156.852 217.617ZM154.648 216.031H156.68C157.346 216.031 157.867 215.865 158.242 215.531C158.617 215.193 158.805 214.732 158.805 214.148C158.805 213.539 158.63 213.068 158.281 212.734C157.938 212.401 157.422 212.229 156.734 212.219H154.648V216.031ZM166.073 220.422H171.237V222H164.096V210.625H166.073V220.422ZM174.193 222V210.625H177.552C178.557 210.625 179.448 210.849 180.224 211.297C181.005 211.745 181.609 212.38 182.036 213.203C182.463 214.026 182.677 214.969 182.677 216.031V216.602C182.677 217.68 182.461 218.628 182.028 219.445C181.601 220.263 180.989 220.893 180.193 221.336C179.401 221.779 178.492 222 177.466 222H174.193ZM176.169 212.219V220.422H177.458C178.495 220.422 179.289 220.099 179.841 219.453C180.398 218.802 180.682 217.87 180.693 216.656V216.023C180.693 214.789 180.424 213.846 179.888 213.195C179.351 212.544 178.573 212.219 177.552 212.219H176.169Z" fill="#4F4F4F"/>
<defs>
<filter id="filter0_d" x="0" y="0" width="308" height="282" filterUnits="userSpaceOnUse" color-interpolation-filters="sRGB">
<feFlood flood-opacity="0" result="BackgroundImageFix"/>
<feColorMatrix in="SourceAlpha" type="matrix" values="0 0 0 0 0 0 0 0 0 0 0 0 0 0 0 0 0 0 127 0"/>
<feOffset dy="4"/>
<feGaussianBlur stdDeviation="2"/>
<feColorMatrix type="matrix" values="0 0 0 0 0.779167 0 0 0 0 0.779167 0 0 0 0 0.779167 0 0 0 0.25 0"/>
<feBlend mode="normal" in2="BackgroundImageFix" result="effect1_dropShadow"/>
<feBlend mode="normal" in="SourceGraphic" in2="effect1_dropShadow" result="shape"/>
</filter>
<radialGradient id="paint0_radial" cx="0" cy="0" r="1" gradientUnits="userSpaceOnUse" gradientTransform="translate(154 137) rotate(90) scale(137 150)">
<stop stop-color="#FAFCFF"/>
<stop offset="1" stop-color="#DFEDFF"/>
</radialGradient>
</defs>
</svg>
