<svg width="1442" height="1376" viewBox="0 0 1442 1376" fill="none" xmlns="http://www.w3.org/2000/svg">
<path d="M1 779.499C1 779.499 27 632.497 82.5 648.499C138 664.5 120.5 951.5 214.5 786.499C308.5 621.497 240 455.499 313 392.499C386 329.499 469 239.999 532 298.999C595 357.999 219.5 778.997 334 786.499C448.5 794 539.5 740 570.5 690.499C601.5 640.997 595 603 617 540.499C639 477.998 704.5 410.999 704.5 410.999" stroke="#A40000" stroke-width="2"/>
<rect x="1" width="1440" height="1376" fill="#FFF9F6"/>
<path d="M1440.98 128.973C1440.98 128.973 1423.48 175.126 1403.98 207.862C1384.48 240.598 1343.48 269.041 1323.48 272.798C1303.48 276.555 1260.98 196.592 1242.98 303.388C1224.98 410.183 1200.98 354.907 1172.48 355.444C1143.98 355.98 1066.48 371.544 1127.48 386.034C1188.48 400.523 1110.98 395.693 1093.98 433.26C1076.98 470.826 1063.98 553.472 1063.98 553.472C1063.98 553.472 1038.48 602.308 971.477 602.308C904.476 602.308 889.977 562.595 878.977 530.395C867.977 498.196 889.977 422.526 914.477 400.523C938.977 378.52 987.477 258.845 959.477 240.598C931.477 222.352 886.977 283.531 848.977 283.531C810.977 283.531 776.977 371.544 729.977 386.034C682.977 400.523 683.977 512.149 712.977 542.739C741.977 573.328 725.477 690.321 712.977 715.544C700.477 740.767 653.477 753.647 632.477 740.767C611.477 727.887 669.977 661.878 682.977 602.308C695.977 542.739 581.977 515.906 597.477 492.292C612.977 468.679 529.477 355.98 466.476 449.36C403.476 542.739 507.977 683.344 524.977 573.328C541.977 463.313 562.477 459.556 597.477 460.093C632.477 460.629 624.477 310.364 597.477 303.388C570.477 296.411 552.477 346.857 550.477 400.523C548.477 454.19 567.977 741.303 481.476 683.344C394.976 625.385 472.476 283.531 420.976 283.531C369.477 283.531 338.977 374.227 340.476 433.26C341.976 492.292 381.976 740.767 420.976 740.767C459.977 740.767 438.476 542.739 409.476 530.395C380.477 518.052 253.976 715.544 288.476 740.767C322.977 765.99 366.976 715.544 374.476 683.344C381.977 651.144 352.976 553.472 322.476 542.739C291.977 532.005 293.976 535.225 231.976 553.472C169.976 571.718 271.976 731.644 231.976 715.544C191.976 699.444 137.476 638.264 130.977 573.328C124.477 508.392 209.977 449.36 244.977 470.826C279.977 492.293 278.477 581.378 288.476 587.818C298.476 594.258 288.477 625.385 244.977 661.878C201.477 698.37 166.477 587.818 166.477 587.818C166.477 587.818 214.977 346.857 244.977 346.857C274.977 346.857 340.476 470.826 322.476 506.782C304.476 542.739 241.977 507.319 209.977 530.395C177.977 553.472 163.002 735.4 119.502 772.966C76.0017 810.533 30.3329 708.03 36.9766 625.385C43.6203 542.739 234.477 406.427 177.977 433.26C121.476 460.093 169.476 283.531 231.976 303.388C294.476 323.244 106.477 359.2 87.4765 415.013C68.4763 470.826 104.477 504.636 103.977 553.472C103.476 602.308 102.001 905.522 61.0017 898.545C20.0019 891.569 71.9766 327.001 36.9766 303.388C1.97659 279.775 36.9766 898.545 36.9776 972.068C36.9786 1045.59 1 1066.5 1 1066.5" stroke="#A40000"/>
</svg>
