<svg width="308" height="282" viewBox="0 0 308 282" fill="none" xmlns="http://www.w3.org/2000/svg">
<g filter="url(#filter0_d)">
<rect x="4" width="300" height="274" rx="10" fill="#1F1F1F"/>
</g>
<path d="M123.009 158V147.336H126.495C127.652 147.336 128.521 147.575 129.102 148.054C129.688 148.532 129.981 149.24 129.981 150.178C129.981 150.676 129.84 151.118 129.557 151.503C129.273 151.884 128.888 152.18 128.399 152.39C128.975 152.551 129.43 152.858 129.762 153.312C130.099 153.762 130.267 154.299 130.267 154.924C130.267 155.881 129.957 156.633 129.337 157.18C128.717 157.727 127.84 158 126.707 158H123.009ZM124.415 153.012V156.85H126.737C127.391 156.85 127.906 156.682 128.282 156.345C128.663 156.003 128.853 155.534 128.853 154.938C128.853 153.654 128.155 153.012 126.759 153.012H124.415ZM124.415 151.884H126.539C127.154 151.884 127.645 151.73 128.011 151.423C128.382 151.115 128.568 150.698 128.568 150.17C128.568 149.584 128.397 149.16 128.055 148.896C127.713 148.627 127.193 148.493 126.495 148.493H124.415V151.884ZM150.158 153.012C150.158 154.057 149.982 154.97 149.63 155.751C149.279 156.528 148.781 157.121 148.136 157.531C147.492 157.941 146.74 158.146 145.88 158.146C145.04 158.146 144.296 157.941 143.646 157.531C142.997 157.116 142.492 156.528 142.13 155.766C141.774 155 141.591 154.113 141.581 153.107V152.338C141.581 151.313 141.759 150.407 142.116 149.621C142.472 148.835 142.975 148.234 143.624 147.819C144.279 147.399 145.026 147.189 145.866 147.189C146.72 147.189 147.472 147.397 148.121 147.812C148.776 148.222 149.279 148.82 149.63 149.606C149.982 150.388 150.158 151.298 150.158 152.338V153.012ZM148.759 152.324C148.759 151.059 148.505 150.09 147.997 149.416C147.489 148.737 146.779 148.398 145.866 148.398C144.977 148.398 144.276 148.737 143.763 149.416C143.256 150.09 142.994 151.027 142.98 152.229V153.012C142.98 154.238 143.236 155.202 143.749 155.905C144.266 156.604 144.977 156.953 145.88 156.953C146.788 156.953 147.492 156.623 147.99 155.964C148.488 155.3 148.744 154.35 148.759 153.115V152.324ZM163.28 156.85H168.334V158H161.867V147.336H163.28V156.85ZM184.885 148.493H181.457V158H180.058V148.493H176.638V147.336H184.885V148.493ZM104.598 180V169.336H107.608C108.536 169.336 109.356 169.541 110.069 169.951C110.782 170.361 111.331 170.945 111.717 171.702C112.107 172.458 112.305 173.328 112.31 174.309V174.99C112.31 175.996 112.115 176.877 111.724 177.634C111.338 178.391 110.784 178.972 110.062 179.377C109.344 179.783 108.506 179.99 107.549 180H104.598ZM106.004 170.493V178.85H107.483C108.567 178.85 109.41 178.513 110.01 177.839C110.616 177.166 110.918 176.206 110.918 174.961V174.338C110.918 173.127 110.633 172.188 110.062 171.519C109.495 170.845 108.689 170.503 107.645 170.493H106.004ZM130.069 175.071H125.448V178.85H130.816V180H124.041V169.336H130.743V170.493H125.448V173.921H130.069V175.071ZM145.309 175.247C144.103 174.9 143.224 174.475 142.672 173.972C142.125 173.464 141.852 172.839 141.852 172.097C141.852 171.257 142.186 170.564 142.855 170.017C143.529 169.465 144.403 169.189 145.477 169.189C146.21 169.189 146.862 169.331 147.433 169.614C148.009 169.897 148.453 170.288 148.766 170.786C149.083 171.284 149.242 171.829 149.242 172.419H147.828C147.828 171.775 147.623 171.27 147.213 170.903C146.803 170.532 146.224 170.347 145.477 170.347C144.784 170.347 144.242 170.5 143.851 170.808C143.466 171.111 143.273 171.533 143.273 172.075C143.273 172.51 143.456 172.878 143.822 173.181C144.193 173.479 144.821 173.752 145.704 174.001C146.593 174.25 147.286 174.526 147.784 174.829C148.287 175.127 148.658 175.476 148.898 175.876C149.142 176.277 149.264 176.748 149.264 177.29C149.264 178.154 148.927 178.848 148.253 179.37C147.579 179.888 146.679 180.146 145.551 180.146C144.818 180.146 144.135 180.007 143.5 179.729C142.865 179.446 142.374 179.06 142.028 178.572C141.686 178.083 141.515 177.529 141.515 176.909H142.929C142.929 177.554 143.165 178.064 143.639 178.44C144.117 178.811 144.755 178.997 145.551 178.997C146.293 178.997 146.862 178.845 147.257 178.542C147.653 178.24 147.85 177.827 147.85 177.305C147.85 176.782 147.667 176.379 147.301 176.096C146.935 175.808 146.271 175.525 145.309 175.247ZM162.182 180H160.776V169.336H162.182V180ZM182.233 178.601C181.872 179.119 181.367 179.507 180.717 179.766C180.073 180.02 179.321 180.146 178.462 180.146C177.592 180.146 176.821 179.944 176.147 179.539C175.473 179.128 174.951 178.547 174.58 177.795C174.213 177.043 174.025 176.172 174.016 175.181V174.25C174.016 172.644 174.389 171.399 175.136 170.515C175.888 169.631 176.943 169.189 178.3 169.189C179.414 169.189 180.31 169.475 180.988 170.046C181.667 170.613 182.082 171.418 182.233 172.463H180.827C180.564 171.052 179.724 170.347 178.308 170.347C177.365 170.347 176.65 170.679 176.162 171.343C175.678 172.002 175.434 172.959 175.429 174.214V175.085C175.429 176.282 175.703 177.234 176.25 177.942C176.796 178.645 177.536 178.997 178.469 178.997C178.996 178.997 179.458 178.938 179.853 178.821C180.249 178.704 180.576 178.506 180.835 178.228V175.833H178.366V174.69H182.233V178.601ZM202.38 180H200.967L195.598 171.782V180H194.185V169.336H195.598L200.981 177.59V169.336H202.38V180ZM105.242 197.247C104.036 196.9 103.157 196.475 102.605 195.972C102.059 195.464 101.785 194.839 101.785 194.097C101.785 193.257 102.12 192.564 102.789 192.017C103.462 191.465 104.336 191.189 105.411 191.189C106.143 191.189 106.795 191.331 107.366 191.614C107.942 191.897 108.387 192.288 108.699 192.786C109.017 193.284 109.175 193.829 109.175 194.419H107.762C107.762 193.775 107.557 193.27 107.146 192.903C106.736 192.532 106.158 192.347 105.411 192.347C104.717 192.347 104.175 192.5 103.785 192.808C103.399 193.111 103.206 193.533 103.206 194.075C103.206 194.51 103.389 194.878 103.755 195.181C104.126 195.479 104.754 195.752 105.638 196.001C106.526 196.25 107.22 196.526 107.718 196.829C108.221 197.127 108.592 197.476 108.831 197.876C109.075 198.277 109.197 198.748 109.197 199.29C109.197 200.154 108.86 200.848 108.187 201.37C107.513 201.888 106.612 202.146 105.484 202.146C104.751 202.146 104.068 202.007 103.433 201.729C102.798 201.446 102.308 201.06 101.961 200.572C101.619 200.083 101.448 199.529 101.448 198.909H102.862C102.862 199.554 103.099 200.064 103.572 200.44C104.051 200.811 104.688 200.997 105.484 200.997C106.226 200.997 106.795 200.845 107.19 200.542C107.586 200.24 107.784 199.827 107.784 199.305C107.784 198.782 107.601 198.379 107.234 198.096C106.868 197.808 106.204 197.525 105.242 197.247ZM123.858 196.69L126.642 191.336H128.238L124.561 198.023V202H123.155V198.023L119.478 191.336H121.09L123.858 196.69ZM142.24 197.247C141.034 196.9 140.155 196.475 139.603 195.972C139.056 195.464 138.783 194.839 138.783 194.097C138.783 193.257 139.117 192.564 139.786 192.017C140.46 191.465 141.334 191.189 142.408 191.189C143.141 191.189 143.793 191.331 144.364 191.614C144.94 191.897 145.385 192.288 145.697 192.786C146.014 193.284 146.173 193.829 146.173 194.419H144.76C144.76 193.775 144.554 193.27 144.144 192.903C143.734 192.532 143.156 192.347 142.408 192.347C141.715 192.347 141.173 192.5 140.783 192.808C140.397 193.111 140.204 193.533 140.204 194.075C140.204 194.51 140.387 194.878 140.753 195.181C141.124 195.479 141.752 195.752 142.636 196.001C143.524 196.25 144.218 196.526 144.716 196.829C145.219 197.127 145.59 197.476 145.829 197.876C146.073 198.277 146.195 198.748 146.195 199.29C146.195 200.154 145.858 200.848 145.184 201.37C144.511 201.888 143.61 202.146 142.482 202.146C141.749 202.146 141.066 202.007 140.431 201.729C139.796 201.446 139.305 201.06 138.959 200.572C138.617 200.083 138.446 199.529 138.446 198.909H139.86C139.86 199.554 140.096 200.064 140.57 200.44C141.049 200.811 141.686 200.997 142.482 200.997C143.224 200.997 143.793 200.845 144.188 200.542C144.584 200.24 144.782 199.827 144.782 199.305C144.782 198.782 144.598 198.379 144.232 198.096C143.866 197.808 143.202 197.525 142.24 197.247ZM164.972 192.493H161.545V202H160.146V192.493H156.725V191.336H164.972V192.493ZM182.182 197.071H177.561V200.85H182.929V202H176.154V191.336H182.856V192.493H177.561V195.921H182.182V197.071ZM196.096 191.336L199.583 200.037L203.069 191.336H204.893V202H203.486V197.847L203.618 193.365L200.117 202H199.041L195.547 193.387L195.686 197.847V202H194.28V191.336H196.096Z" fill="white"/>
<path d="M110.077 119.344C109.879 119.307 109.668 119.289 109.444 119.289C108.86 119.289 108.366 119.453 107.959 119.781C107.558 120.104 107.272 120.576 107.1 121.195V127H106.17V118.547H107.084L107.1 119.891C107.595 118.891 108.389 118.391 109.483 118.391C109.743 118.391 109.949 118.424 110.1 118.492L110.077 119.344ZM116.358 127.156C115.639 127.156 114.988 126.979 114.405 126.625C113.827 126.271 113.376 125.779 113.053 125.148C112.731 124.513 112.569 123.802 112.569 123.016V122.68C112.569 121.867 112.725 121.135 113.038 120.484C113.356 119.833 113.796 119.323 114.358 118.953C114.921 118.578 115.53 118.391 116.186 118.391C117.212 118.391 118.025 118.742 118.624 119.445C119.228 120.143 119.53 121.099 119.53 122.312V122.836H113.499V123.016C113.499 123.974 113.772 124.773 114.319 125.414C114.871 126.049 115.564 126.367 116.397 126.367C116.897 126.367 117.337 126.276 117.717 126.094C118.103 125.911 118.452 125.62 118.764 125.219L119.35 125.664C118.663 126.659 117.665 127.156 116.358 127.156ZM116.186 119.188C115.483 119.188 114.889 119.445 114.405 119.961C113.926 120.477 113.634 121.169 113.53 122.039H118.6V121.938C118.574 121.125 118.342 120.464 117.905 119.953C117.467 119.443 116.895 119.188 116.186 119.188ZM122.655 122.695C122.655 121.383 122.947 120.339 123.53 119.562C124.119 118.781 124.916 118.391 125.921 118.391C127.062 118.391 127.931 118.841 128.53 119.742V115H129.46V127H128.585L128.546 125.875C127.947 126.729 127.067 127.156 125.905 127.156C124.931 127.156 124.145 126.766 123.546 125.984C122.952 125.198 122.655 124.138 122.655 122.805V122.695ZM123.601 122.859C123.601 123.938 123.817 124.789 124.249 125.414C124.681 126.034 125.291 126.344 126.077 126.344C127.228 126.344 128.046 125.836 128.53 124.82V120.852C128.046 119.753 127.233 119.203 126.093 119.203C125.306 119.203 124.694 119.513 124.257 120.133C123.819 120.747 123.601 121.656 123.601 122.859ZM136.874 127.156C136.156 127.156 135.505 126.979 134.921 126.625C134.343 126.271 133.893 125.779 133.57 125.148C133.247 124.513 133.085 123.802 133.085 123.016V122.68C133.085 121.867 133.242 121.135 133.554 120.484C133.872 119.833 134.312 119.323 134.874 118.953C135.437 118.578 136.046 118.391 136.702 118.391C137.729 118.391 138.541 118.742 139.14 119.445C139.744 120.143 140.046 121.099 140.046 122.312V122.836H134.015V123.016C134.015 123.974 134.288 124.773 134.835 125.414C135.387 126.049 136.08 126.367 136.913 126.367C137.413 126.367 137.854 126.276 138.234 126.094C138.619 125.911 138.968 125.62 139.281 125.219L139.867 125.664C139.179 126.659 138.182 127.156 136.874 127.156ZM136.702 119.188C135.999 119.188 135.406 119.445 134.921 119.961C134.442 120.477 134.15 121.169 134.046 122.039H139.117V121.938C139.091 121.125 138.859 120.464 138.421 119.953C137.984 119.443 137.411 119.188 136.702 119.188ZM148.609 124.852C148.609 124.388 148.422 124.016 148.047 123.734C147.677 123.453 147.117 123.234 146.367 123.078C145.617 122.917 145.034 122.734 144.617 122.531C144.205 122.323 143.898 122.07 143.695 121.773C143.497 121.477 143.398 121.117 143.398 120.695C143.398 120.029 143.677 119.479 144.234 119.047C144.791 118.609 145.505 118.391 146.375 118.391C147.317 118.391 148.073 118.625 148.64 119.094C149.213 119.557 149.5 120.164 149.5 120.914H148.562C148.562 120.419 148.354 120.008 147.937 119.68C147.526 119.352 147.005 119.188 146.375 119.188C145.76 119.188 145.265 119.326 144.89 119.602C144.521 119.872 144.336 120.227 144.336 120.664C144.336 121.086 144.489 121.414 144.797 121.648C145.109 121.878 145.674 122.089 146.492 122.281C147.315 122.474 147.929 122.68 148.336 122.898C148.747 123.117 149.052 123.38 149.25 123.688C149.448 123.995 149.547 124.367 149.547 124.805C149.547 125.518 149.257 126.089 148.679 126.516C148.106 126.943 147.356 127.156 146.429 127.156C145.445 127.156 144.646 126.919 144.031 126.445C143.422 125.966 143.117 125.362 143.117 124.633H144.054C144.091 125.18 144.32 125.607 144.742 125.914C145.169 126.216 145.731 126.367 146.429 126.367C147.08 126.367 147.606 126.224 148.007 125.938C148.409 125.651 148.609 125.289 148.609 124.852ZM154.383 127H153.445V118.547H154.383V127ZM153.281 116.102C153.281 115.924 153.339 115.776 153.453 115.656C153.568 115.531 153.724 115.469 153.922 115.469C154.12 115.469 154.276 115.531 154.391 115.656C154.51 115.776 154.57 115.924 154.57 116.102C154.57 116.279 154.51 116.427 154.391 116.547C154.276 116.667 154.12 116.727 153.922 116.727C153.724 116.727 153.568 116.667 153.453 116.547C153.339 116.427 153.281 116.279 153.281 116.102ZM158.235 122.695C158.235 121.372 158.526 120.326 159.11 119.555C159.698 118.779 160.495 118.391 161.5 118.391C162.651 118.391 163.526 118.849 164.125 119.766L164.172 118.547H165.047V126.828C165.047 127.917 164.742 128.779 164.133 129.414C163.524 130.049 162.698 130.367 161.657 130.367C161.068 130.367 160.506 130.234 159.969 129.969C159.438 129.708 159.019 129.359 158.711 128.922L159.235 128.359C159.896 129.172 160.683 129.578 161.594 129.578C162.375 129.578 162.985 129.346 163.422 128.883C163.86 128.424 164.086 127.786 164.102 126.969V125.906C163.503 126.74 162.631 127.156 161.485 127.156C160.506 127.156 159.719 126.766 159.125 125.984C158.532 125.203 158.235 124.148 158.235 122.82V122.695ZM159.18 122.859C159.18 123.938 159.396 124.789 159.828 125.414C160.261 126.034 160.87 126.344 161.657 126.344C162.808 126.344 163.623 125.828 164.102 124.797V120.867C163.883 120.326 163.568 119.914 163.157 119.633C162.745 119.346 162.25 119.203 161.672 119.203C160.886 119.203 160.274 119.513 159.836 120.133C159.399 120.747 159.18 121.656 159.18 122.859ZM170.055 118.547L170.087 119.992C170.404 119.471 170.8 119.076 171.274 118.805C171.748 118.529 172.271 118.391 172.844 118.391C173.751 118.391 174.425 118.646 174.868 119.156C175.311 119.667 175.534 120.432 175.54 121.453V127H174.61V121.445C174.605 120.69 174.443 120.128 174.126 119.758C173.813 119.388 173.311 119.203 172.618 119.203C172.04 119.203 171.527 119.385 171.079 119.75C170.636 120.109 170.308 120.596 170.094 121.211V127H169.165V118.547H170.055ZM180.688 127H179.751V118.547H180.688V127ZM179.587 116.102C179.587 115.924 179.644 115.776 179.759 115.656C179.873 115.531 180.03 115.469 180.228 115.469C180.425 115.469 180.582 115.531 180.696 115.656C180.816 115.776 180.876 115.924 180.876 116.102C180.876 116.279 180.816 116.427 180.696 116.547C180.582 116.667 180.425 116.727 180.228 116.727C180.03 116.727 179.873 116.667 179.759 116.547C179.644 116.427 179.587 116.279 179.587 116.102ZM185.806 118.547L185.837 119.992C186.155 119.471 186.551 119.076 187.025 118.805C187.499 118.529 188.022 118.391 188.595 118.391C189.501 118.391 190.176 118.646 190.618 119.156C191.061 119.667 191.285 120.432 191.29 121.453V127H190.361V121.445C190.355 120.69 190.194 120.128 189.876 119.758C189.564 119.388 189.061 119.203 188.368 119.203C187.79 119.203 187.277 119.385 186.829 119.75C186.387 120.109 186.059 120.596 185.845 121.211V127H184.915V118.547H185.806ZM195.017 122.695C195.017 121.372 195.309 120.326 195.892 119.555C196.481 118.779 197.278 118.391 198.283 118.391C199.434 118.391 200.309 118.849 200.908 119.766L200.955 118.547H201.83V126.828C201.83 127.917 201.525 128.779 200.916 129.414C200.306 130.049 199.481 130.367 198.439 130.367C197.851 130.367 197.288 130.234 196.752 129.969C196.22 129.708 195.801 129.359 195.494 128.922L196.017 128.359C196.679 129.172 197.465 129.578 198.377 129.578C199.158 129.578 199.767 129.346 200.205 128.883C200.642 128.424 200.869 127.786 200.884 126.969V125.906C200.285 126.74 199.413 127.156 198.267 127.156C197.288 127.156 196.502 126.766 195.908 125.984C195.314 125.203 195.017 124.148 195.017 122.82V122.695ZM195.963 122.859C195.963 123.938 196.179 124.789 196.611 125.414C197.043 126.034 197.653 126.344 198.439 126.344C199.59 126.344 200.405 125.828 200.884 124.797V120.867C200.666 120.326 200.351 119.914 199.939 119.633C199.528 119.346 199.033 119.203 198.455 119.203C197.668 119.203 197.056 119.513 196.619 120.133C196.181 120.747 195.963 121.656 195.963 122.859Z" fill="white"/>
<path d="M153.501 78.6289C150.815 78.6289 148.629 80.8146 148.629 83.5012C148.629 86.1878 150.815 88.3734 153.501 88.3734C156.188 88.3734 158.373 86.1878 158.373 83.5012C158.373 80.8146 156.188 78.6289 153.501 78.6289ZM153.501 86.3147C151.95 86.3147 150.688 85.0525 150.688 83.5012C150.688 81.9498 151.95 80.6876 153.501 80.6876C155.053 80.6876 156.315 81.9498 156.315 83.5012C156.315 85.0525 155.053 86.3147 153.501 86.3147Z" fill="#7EAEDB"/>
<path d="M165.874 71.1272C160.059 65.3124 151.272 64.4901 144.614 68.4234C142.54 66.6492 139.295 68.1145 139.295 70.8741C139.295 71.5125 139.483 72.1077 139.804 72.6091C135.136 78.4738 134.698 86.7476 138.855 93.081C138.443 93.6227 138.197 94.2979 138.197 95.0295C138.197 97.6398 141.139 99.144 143.251 97.6843C150.073 102.614 159.672 102.076 165.874 95.8745C172.713 89.036 172.713 77.9666 165.874 71.1272ZM142.521 69.7075C143.164 69.7075 143.687 70.2309 143.687 70.8741C143.687 71.5174 143.164 72.0407 142.521 72.0407C141.877 72.0407 141.354 71.5174 141.354 70.8741C141.354 70.2309 141.877 69.7075 142.521 69.7075ZM141.423 96.1961C140.779 96.1961 140.256 95.6728 140.256 95.0295C140.256 94.3862 140.779 93.8629 141.423 93.8629C142.066 93.8629 142.589 94.3862 142.589 95.0295C142.589 95.6728 142.066 96.1961 141.423 96.1961ZM153.5 98.941C150.217 98.941 147.118 97.9396 144.486 96.0378C145.295 93.5849 143.025 91.2345 140.557 91.9231C136.915 86.3448 137.303 79.0667 141.407 73.901C143.775 74.7752 146.214 72.6838 145.672 70.1892C155.821 64.2059 168.941 71.4861 168.941 83.5008C168.941 92.0146 162.014 98.941 153.5 98.941Z" fill="#7EAEDB"/>
<path d="M165.51 76.9134C165.51 74.5222 162.993 72.9725 160.868 74.0172C158.767 72.3838 156.18 71.4922 153.501 71.4922C146.879 71.4922 141.492 76.8795 141.492 83.5013C141.492 89.9136 146.544 95.1682 152.877 95.4942C153.428 96.485 154.485 97.1573 155.697 97.1573C157.376 97.1573 158.759 95.8677 158.908 94.2271C164.526 91.3944 166.927 84.7672 164.67 79.0823C165.192 78.509 165.51 77.7477 165.51 76.9134ZM155.697 95.0986C155.054 95.0986 154.531 94.5753 154.531 93.932C154.531 93.2887 155.054 92.7654 155.697 92.7654C156.34 92.7654 156.864 93.2887 156.864 93.932C156.864 94.5753 156.34 95.0986 155.697 95.0986ZM158.395 92.1673C156.775 89.699 152.992 90.5312 152.516 93.4028C147.49 92.9065 143.551 88.6554 143.551 83.5012C143.551 75.3222 152.889 70.6963 159.395 75.4841C158.23 77.8289 160.232 80.5535 162.851 80.0879C164.501 84.596 162.68 89.7467 158.395 92.1673ZM162.285 78.08C161.642 78.08 161.118 77.5567 161.118 76.9134C161.118 76.2701 161.642 75.7468 162.285 75.7468C162.928 75.7468 163.452 76.2701 163.452 76.9134C163.452 77.5567 162.928 78.08 162.285 78.08Z" fill="#7EAEDB"/>
<defs>
<filter id="filter0_d" x="0" y="0" width="308" height="282" filterUnits="userSpaceOnUse" color-interpolation-filters="sRGB">
<feFlood flood-opacity="0" result="BackgroundImageFix"/>
<feColorMatrix in="SourceAlpha" type="matrix" values="0 0 0 0 0 0 0 0 0 0 0 0 0 0 0 0 0 0 127 0"/>
<feOffset dy="4"/>
<feGaussianBlur stdDeviation="2"/>
<feColorMatrix type="matrix" values="0 0 0 0 0 0 0 0 0 0 0 0 0 0 0 0 0 0 0.25 0"/>
<feBlend mode="normal" in2="BackgroundImageFix" result="effect1_dropShadow"/>
<feBlend mode="normal" in="SourceGraphic" in2="effect1_dropShadow" result="shape"/>
</filter>
</defs>
</svg>
