<svg width="308" height="282" viewBox="0 0 308 282" fill="none" xmlns="http://www.w3.org/2000/svg">
<g filter="url(#filter0_d)">
<rect x="4" width="300" height="274" rx="10" fill="#1F1F1F"/>
</g>
<path d="M113.854 127H112.917V118.547H113.854V127ZM112.752 116.102C112.752 115.924 112.81 115.776 112.924 115.656C113.039 115.531 113.195 115.469 113.393 115.469C113.591 115.469 113.747 115.531 113.862 115.656C113.982 115.776 114.042 115.924 114.042 116.102C114.042 116.279 113.982 116.427 113.862 116.547C113.747 116.667 113.591 116.727 113.393 116.727C113.195 116.727 113.039 116.667 112.924 116.547C112.81 116.427 112.752 116.279 112.752 116.102ZM118.932 118.547L118.964 119.922C119.276 119.411 119.667 119.029 120.136 118.773C120.604 118.518 121.125 118.391 121.698 118.391C123.031 118.391 123.878 118.938 124.237 120.031C124.539 119.505 124.943 119.102 125.448 118.82C125.953 118.534 126.511 118.391 127.12 118.391C128.932 118.391 129.857 119.38 129.893 121.359V127H128.956V121.43C128.951 120.674 128.787 120.115 128.464 119.75C128.146 119.385 127.625 119.203 126.901 119.203C126.229 119.214 125.662 119.432 125.198 119.859C124.735 120.281 124.477 120.797 124.425 121.406V127H123.487V121.359C123.482 120.635 123.31 120.096 122.972 119.742C122.638 119.383 122.123 119.203 121.425 119.203C120.836 119.203 120.331 119.372 119.909 119.711C119.487 120.044 119.175 120.542 118.972 121.203V127H118.034V118.547H118.932ZM140.745 122.859C140.745 124.177 140.454 125.224 139.87 126C139.287 126.771 138.506 127.156 137.527 127.156C136.37 127.156 135.485 126.75 134.87 125.938V130.25H133.941V118.547H134.808L134.855 119.742C135.464 118.841 136.347 118.391 137.503 118.391C138.514 118.391 139.305 118.773 139.878 119.539C140.456 120.305 140.745 121.367 140.745 122.727V122.859ZM139.808 122.695C139.808 121.617 139.586 120.766 139.144 120.141C138.701 119.516 138.084 119.203 137.292 119.203C136.719 119.203 136.227 119.341 135.816 119.617C135.404 119.893 135.089 120.294 134.87 120.82V124.875C135.094 125.359 135.415 125.729 135.831 125.984C136.248 126.24 136.74 126.367 137.308 126.367C138.094 126.367 138.706 126.055 139.144 125.43C139.586 124.799 139.808 123.888 139.808 122.695ZM148.41 119.344C148.212 119.307 148.001 119.289 147.777 119.289C147.194 119.289 146.699 119.453 146.292 119.781C145.891 120.104 145.605 120.576 145.433 121.195V127H144.503V118.547H145.417L145.433 119.891C145.928 118.891 146.722 118.391 147.816 118.391C148.076 118.391 148.282 118.424 148.433 118.492L148.41 119.344ZM150.902 122.648C150.902 121.836 151.058 121.104 151.371 120.453C151.689 119.802 152.134 119.297 152.707 118.938C153.285 118.573 153.939 118.391 154.668 118.391C155.793 118.391 156.704 118.786 157.402 119.578C158.1 120.365 158.449 121.409 158.449 122.711V122.906C158.449 123.724 158.29 124.461 157.972 125.117C157.66 125.768 157.217 126.271 156.644 126.625C156.071 126.979 155.418 127.156 154.683 127.156C153.564 127.156 152.652 126.763 151.949 125.977C151.251 125.185 150.902 124.138 150.902 122.836V122.648ZM151.84 122.906C151.84 123.917 152.1 124.747 152.621 125.398C153.147 126.044 153.834 126.367 154.683 126.367C155.527 126.367 156.209 126.044 156.73 125.398C157.256 124.747 157.519 123.891 157.519 122.828V122.648C157.519 122.003 157.4 121.411 157.16 120.875C156.92 120.339 156.584 119.924 156.152 119.633C155.72 119.336 155.225 119.188 154.668 119.188C153.834 119.188 153.155 119.516 152.629 120.172C152.103 120.823 151.84 121.677 151.84 122.734V122.906ZM164.574 125.711L167.145 118.547H168.106L164.949 127H164.192L161.02 118.547H161.981L164.574 125.711ZM172.372 127H171.434V118.547H172.372V127ZM171.27 116.102C171.27 115.924 171.327 115.776 171.442 115.656C171.556 115.531 171.713 115.469 171.911 115.469C172.109 115.469 172.265 115.531 172.379 115.656C172.499 115.776 172.559 115.924 172.559 116.102C172.559 116.279 172.499 116.427 172.379 116.547C172.265 116.667 172.109 116.727 171.911 116.727C171.713 116.727 171.556 116.667 171.442 116.547C171.327 116.427 171.27 116.279 171.27 116.102ZM177.489 118.547L177.52 119.992C177.838 119.471 178.234 119.076 178.708 118.805C179.182 118.529 179.705 118.391 180.278 118.391C181.184 118.391 181.859 118.646 182.302 119.156C182.744 119.667 182.968 120.432 182.973 121.453V127H182.044V121.445C182.039 120.69 181.877 120.128 181.559 119.758C181.247 119.388 180.744 119.203 180.052 119.203C179.473 119.203 178.96 119.385 178.512 119.75C178.07 120.109 177.742 120.596 177.528 121.211V127H176.598V118.547H177.489ZM186.7 122.695C186.7 121.372 186.992 120.326 187.575 119.555C188.164 118.779 188.961 118.391 189.966 118.391C191.117 118.391 191.992 118.849 192.591 119.766L192.638 118.547H193.513V126.828C193.513 127.917 193.208 128.779 192.599 129.414C191.989 130.049 191.164 130.367 190.122 130.367C189.534 130.367 188.971 130.234 188.435 129.969C187.903 129.708 187.484 129.359 187.177 128.922L187.7 128.359C188.362 129.172 189.148 129.578 190.06 129.578C190.841 129.578 191.45 129.346 191.888 128.883C192.325 128.424 192.552 127.786 192.568 126.969V125.906C191.969 126.74 191.096 127.156 189.95 127.156C188.971 127.156 188.185 126.766 187.591 125.984C186.997 125.203 186.7 124.148 186.7 122.82V122.695ZM187.646 122.859C187.646 123.938 187.862 124.789 188.294 125.414C188.726 126.034 189.336 126.344 190.122 126.344C191.273 126.344 192.088 125.828 192.568 124.797V120.867C192.349 120.326 192.034 119.914 191.622 119.633C191.211 119.346 190.716 119.203 190.138 119.203C189.351 119.203 188.739 119.513 188.302 120.133C187.864 120.747 187.646 121.656 187.646 122.859Z" fill="white"/>
<path d="M162.682 72.6426C162.649 72.4084 162.458 72.2178 162.224 72.1848C160.735 71.9752 159.116 72.4805 157.91 73.6858C156.705 74.8912 156.2 76.5106 156.409 77.9993C156.442 78.2335 156.633 78.424 156.867 78.457C158.356 78.6666 159.975 78.1613 161.181 76.956C162.386 75.7507 162.891 74.1313 162.682 72.6426Z" fill="#B4E66E"/>
<path d="M162.681 72.6422C162.665 72.5251 162.609 72.419 162.528 72.3379L156.562 78.3032C156.644 78.3842 156.75 78.4402 156.867 78.4566C158.356 78.6662 159.975 78.1609 161.18 76.9556C162.385 75.7504 162.891 74.1309 162.681 72.6422Z" fill="#A0D755"/>
<path d="M147.998 66.0164C147.715 66.0433 147.493 66.2653 147.466 66.5486C147.361 67.646 147.755 68.8168 148.637 69.6988C149.519 70.5807 150.69 70.9745 151.787 70.8703C152.071 70.8433 152.293 70.6214 152.32 70.3381C152.424 69.2406 152.03 68.0699 151.148 67.1879C150.266 66.3059 149.095 65.9121 147.998 66.0164Z" fill="#B4E66E"/>
<path d="M148.637 69.698C149.519 70.5799 150.69 70.9737 151.787 70.8695C151.929 70.8561 152.055 70.7939 152.15 70.6996L147.636 66.1855C147.541 66.2798 147.479 66.4061 147.466 66.5478C147.361 67.6452 147.755 68.816 148.637 69.698Z" fill="#A0D755"/>
<path d="M142.6 75.1952C142.37 75.2343 142.184 75.4205 142.144 75.6511C141.763 77.8992 142.5 80.3761 144.33 82.2061C146.16 84.0361 148.637 84.7725 150.885 84.3916C151.116 84.3524 151.302 84.1663 151.341 83.9357C151.722 81.6876 150.985 79.2107 149.155 77.3807C147.325 75.5507 144.848 74.8142 142.6 75.1952Z" fill="#B4E66E"/>
<path d="M144.33 82.2083C146.16 84.0383 148.637 84.7747 150.885 84.3938C151 84.3742 151.104 84.3179 151.185 84.2376L142.301 75.3535C142.22 75.4338 142.164 75.538 142.144 75.6533C141.763 77.9013 142.5 80.3783 144.33 82.2083Z" fill="#A0D755"/>
<path d="M164.978 101.259C164.1 99.2512 162.099 97.8467 159.768 97.8467C159.618 97.8467 159.471 97.8542 159.325 97.8672C159.033 97.8932 158.749 97.7998 158.515 97.6237C157.279 96.6943 155.746 96.1406 154.081 96.1406C152.416 96.1406 150.882 96.6943 149.647 97.6237C149.413 97.7999 149.129 97.8933 148.837 97.8672C148.691 97.8542 148.543 97.8467 148.394 97.8467C146.063 97.8467 144.061 99.2511 143.184 101.259H164.978Z" fill="#9B735A"/>
<path d="M159.03 75.8336C158.807 75.6115 158.448 75.6115 158.225 75.8336L155.007 79.0536C154.878 79.1819 154.759 79.3165 154.647 79.4555V75.0983C154.647 73.4278 153.996 71.8567 152.814 70.6749L150.255 68.1158C150.033 67.8937 149.673 67.8937 149.451 68.1158C149.229 68.338 149.229 68.6978 149.451 68.92L152.01 71.4791C152.977 72.4459 153.509 73.7316 153.509 75.0983V86.0249C153.217 85.5621 152.878 85.1253 152.481 84.7288L147.611 79.8589C147.389 79.6367 147.029 79.6367 146.807 79.8589C146.585 80.0811 146.585 80.4409 146.807 80.663L151.677 85.533C152.858 86.7148 153.509 88.2859 153.509 89.9564V96.7084H154.647V82.6718C154.647 81.6093 155.06 80.6097 155.811 79.8578L159.03 76.6378C159.252 76.4156 159.252 76.0557 159.03 75.8336Z" fill="#87BE4B"/>
<path d="M155.309 96.243C154.909 96.1759 154.5 96.1406 154.081 96.1406C152.416 96.1406 150.882 96.6943 149.647 97.6236C149.413 97.7998 149.129 97.8932 148.837 97.8671C148.691 97.8541 148.543 97.8466 148.394 97.8466C146.063 97.8466 144.061 99.251 143.184 101.259H150.596C151.396 98.9988 153.113 97.1722 155.309 96.243Z" fill="#8C5F50"/>
<path d="M166.591 101.827H141.569C141.254 101.827 141 101.572 141 101.258C141 100.944 141.254 100.689 141.569 100.689H166.591C166.905 100.689 167.16 100.944 167.16 101.258C167.16 101.572 166.905 101.827 166.591 101.827Z" fill="#AE8B70"/>
<path d="M113.258 154.638L113.463 156.044L113.763 154.777L115.872 147.336H117.059L119.117 154.777L119.41 156.066L119.637 154.631L121.292 147.336H122.706L120.12 158H118.839L116.641 150.229L116.473 149.416L116.304 150.229L114.027 158H112.745L110.167 147.336H111.573L113.258 154.638ZM139.44 155.217H134.972L133.968 158H132.518L136.59 147.336H137.821L141.9 158H140.458L139.44 155.217ZM135.397 154.06H139.022L137.206 149.072L135.397 154.06ZM156.078 153.247C154.872 152.9 153.993 152.475 153.441 151.972C152.895 151.464 152.621 150.839 152.621 150.097C152.621 149.257 152.956 148.564 153.625 148.017C154.298 147.465 155.172 147.189 156.247 147.189C156.979 147.189 157.631 147.331 158.202 147.614C158.778 147.897 159.223 148.288 159.535 148.786C159.853 149.284 160.011 149.829 160.011 150.419H158.598C158.598 149.775 158.393 149.27 157.982 148.903C157.572 148.532 156.994 148.347 156.247 148.347C155.553 148.347 155.011 148.5 154.621 148.808C154.235 149.111 154.042 149.533 154.042 150.075C154.042 150.51 154.225 150.878 154.591 151.181C154.962 151.479 155.59 151.752 156.474 152.001C157.362 152.25 158.056 152.526 158.554 152.829C159.057 153.127 159.428 153.476 159.667 153.876C159.911 154.277 160.033 154.748 160.033 155.29C160.033 156.154 159.696 156.848 159.022 157.37C158.349 157.888 157.448 158.146 156.32 158.146C155.587 158.146 154.904 158.007 154.269 157.729C153.634 157.446 153.144 157.06 152.797 156.572C152.455 156.083 152.284 155.529 152.284 154.909H153.698C153.698 155.554 153.935 156.064 154.408 156.44C154.887 156.811 155.524 156.997 156.32 156.997C157.062 156.997 157.631 156.845 158.026 156.542C158.422 156.24 158.62 155.827 158.62 155.305C158.62 154.782 158.437 154.379 158.07 154.096C157.704 153.808 157.04 153.525 156.078 153.247ZM178.81 148.493H175.383V158H173.984V148.493H170.563V147.336H178.81V148.493ZM196.02 153.071H191.399V156.85H196.767V158H189.992V147.336H196.694V148.493H191.399V151.921H196.02V153.071ZM101.412 169.336L104.898 178.037L108.384 169.336H110.208V180H108.802V175.847L108.934 171.365L105.433 180H104.356L100.862 171.387L101.001 175.847V180H99.5952V169.336H101.412ZM128.311 177.217H123.844L122.84 180H121.39L125.462 169.336H126.693L130.772 180H129.329L128.311 177.217ZM124.268 176.06H127.894L126.078 171.072L124.268 176.06ZM150.004 180H148.59L143.221 171.782V180H141.808V169.336H143.221L148.605 177.59V169.336H150.004V180ZM168.122 177.217H163.654L162.651 180H161.2L165.273 169.336H166.503L170.583 180H169.14L168.122 177.217ZM164.079 176.06H167.704L165.888 171.072L164.079 176.06ZM189.404 178.601C189.043 179.119 188.537 179.507 187.888 179.766C187.243 180.02 186.491 180.146 185.632 180.146C184.763 180.146 183.991 179.944 183.317 179.539C182.644 179.128 182.121 178.547 181.75 177.795C181.384 177.043 181.196 176.172 181.186 175.181V174.25C181.186 172.644 181.56 171.399 182.307 170.515C183.059 169.631 184.113 169.189 185.471 169.189C186.584 169.189 187.48 169.475 188.159 170.046C188.838 170.613 189.253 171.418 189.404 172.463H187.998C187.734 171.052 186.894 170.347 185.478 170.347C184.536 170.347 183.82 170.679 183.332 171.343C182.849 172.002 182.605 172.959 182.6 174.214V175.085C182.6 176.282 182.873 177.234 183.42 177.942C183.967 178.645 184.707 178.997 185.639 178.997C186.167 178.997 186.628 178.938 187.024 178.821C187.419 178.704 187.746 178.506 188.005 178.228V175.833H185.537V174.69H189.404V178.601ZM207.383 175.071H202.761V178.85H208.13V180H201.355V169.336H208.057V170.493H202.761V173.921H207.383V175.071ZM121.632 191.336L125.118 200.037L128.604 191.336H130.428V202H129.022V197.847L129.154 193.365L125.653 202H124.576L121.082 193.387L121.222 197.847V202H119.815V191.336H121.632ZM148.539 197.071H143.917V200.85H149.286V202H142.511V191.336H149.213V192.493H143.917V195.921H148.539V197.071ZM168.832 202H167.419L162.05 193.782V202H160.636V191.336H162.05L167.433 199.59V191.336H168.832V202ZM188.078 192.493H184.65V202H183.252V192.493H179.831V191.336H188.078V192.493Z" fill="white"/>
<defs>
<filter id="filter0_d" x="0" y="0" width="308" height="282" filterUnits="userSpaceOnUse" color-interpolation-filters="sRGB">
<feFlood flood-opacity="0" result="BackgroundImageFix"/>
<feColorMatrix in="SourceAlpha" type="matrix" values="0 0 0 0 0 0 0 0 0 0 0 0 0 0 0 0 0 0 127 0"/>
<feOffset dy="4"/>
<feGaussianBlur stdDeviation="2"/>
<feColorMatrix type="matrix" values="0 0 0 0 0 0 0 0 0 0 0 0 0 0 0 0 0 0 0.25 0"/>
<feBlend mode="normal" in2="BackgroundImageFix" result="effect1_dropShadow"/>
<feBlend mode="normal" in="SourceGraphic" in2="effect1_dropShadow" result="shape"/>
</filter>
</defs>
</svg>
