<svg width="308" height="282" viewBox="0 0 308 282" fill="none" xmlns="http://www.w3.org/2000/svg">
<g filter="url(#filter0_d)">
<rect x="4" width="300" height="274" rx="10" fill="#EEF5FF"/>
</g>
<path d="M157.754 139.088H153.5V134.834C153.5 129.189 158.076 124.613 163.721 124.613H167.059C167.565 124.613 167.975 125.023 167.975 125.529V128.867C167.975 134.512 163.399 139.088 157.754 139.088V139.088Z" fill="#B3E59F"/>
<path d="M149.244 144.236H153.498V139.982C153.498 134.337 148.922 129.761 143.278 129.761H139.939C139.433 129.761 139.023 130.171 139.023 130.676V134.015C139.023 139.66 143.599 144.236 149.244 144.236Z" fill="#B3E59F"/>
<path d="M152.175 140.261C151.527 139.53 151.595 138.412 152.327 137.764L158.396 132.391C159.127 131.743 160.245 131.811 160.893 132.542C161.54 133.274 161.472 134.392 160.741 135.039L154.672 140.413C153.943 141.058 152.825 140.995 152.175 140.261Z" fill="#78C2A4"/>
<path d="M193.782 139.089H189.527V134.835C189.527 129.19 194.103 124.614 199.748 124.614H203.087C203.592 124.614 204.002 125.024 204.002 125.53V128.868C204.003 134.513 199.426 139.089 193.782 139.089Z" fill="#B3E59F"/>
<path d="M185.272 144.237H189.526V139.983C189.526 134.338 184.95 129.762 179.305 129.762H175.966C175.461 129.762 175.051 130.172 175.051 130.677V134.016C175.051 139.661 179.627 144.237 185.272 144.237Z" fill="#B3E59F"/>
<path d="M188.198 140.261C187.551 139.53 187.619 138.412 188.35 137.764L194.42 132.391C195.151 131.743 196.269 131.811 196.916 132.542C197.564 133.274 197.496 134.392 196.764 135.039L190.695 140.413C189.966 141.058 188.848 140.995 188.198 140.261V140.261Z" fill="#78C2A4"/>
<path d="M121.731 139.088H117.477V134.834C117.477 129.189 122.053 124.613 127.697 124.613H131.036C131.542 124.613 131.952 125.023 131.952 125.529V128.867C131.952 134.512 127.376 139.088 121.731 139.088Z" fill="#B3E59F"/>
<path d="M113.221 144.236H117.475V139.982C117.475 134.337 112.899 129.761 107.254 129.761H103.916C103.41 129.761 103 130.171 103 130.676V134.015C103 139.66 107.576 144.236 113.221 144.236V144.236Z" fill="#B3E59F"/>
<path d="M117.479 152.222C116.503 152.222 115.711 151.43 115.711 150.453V139.031C115.711 138.054 116.503 137.263 117.479 137.263C118.456 137.263 119.248 138.054 119.248 139.031V150.453C119.248 151.43 118.456 152.222 117.479 152.222Z" fill="#78C2A4"/>
<path d="M116.148 140.26C115.5 139.529 115.568 138.411 116.299 137.763L122.369 132.39C123.1 131.742 124.218 131.81 124.865 132.541C125.513 133.273 125.445 134.391 124.713 135.038L118.644 140.412C117.915 141.057 116.797 140.994 116.148 140.26V140.26Z" fill="#78C2A4"/>
<path d="M116.226 145.487L110.135 139.396C109.444 138.705 109.444 137.586 110.135 136.895C110.826 136.204 111.946 136.204 112.637 136.895L118.727 142.985C119.418 143.676 119.418 144.796 118.727 145.487C118.036 146.177 116.916 146.177 116.226 145.487V145.487Z" fill="#78C2A4"/>
<path d="M188.277 145.488L182.186 139.397C181.495 138.707 181.495 137.587 182.186 136.896C182.877 136.205 183.996 136.205 184.687 136.896L190.778 142.986C191.469 143.677 191.469 144.797 190.778 145.487C190.087 146.178 188.968 146.178 188.277 145.488Z" fill="#78C2A4"/>
<path d="M153.499 152.221C152.522 152.221 151.73 151.429 151.73 150.452V139.03C151.73 138.053 152.522 137.262 153.499 137.262C154.476 137.262 155.267 138.053 155.267 139.03V150.452C155.267 151.429 154.476 152.221 153.499 152.221Z" fill="#78C2A4"/>
<path d="M152.249 145.487L146.159 139.396C145.468 138.706 145.468 137.586 146.159 136.895C146.849 136.204 147.969 136.204 148.66 136.895L154.75 142.985C155.441 143.676 155.441 144.796 154.75 145.486C154.06 146.177 152.94 146.177 152.249 145.487V145.487Z" fill="#78C2A4"/>
<path d="M189.522 152.22C188.546 152.22 187.754 151.428 187.754 150.452V139.088C187.754 138.111 188.546 137.319 189.522 137.319C190.499 137.319 191.291 138.111 191.291 139.088V150.452C191.291 151.429 190.499 152.22 189.522 152.22Z" fill="#78C2A4"/>
<path d="M114.753 112.705C114.212 112.705 113.789 112.238 113.84 111.7C114.334 106.459 118.514 101.471 120.485 96.9241C121.667 94.1983 119.712 91.6314 121.447 89.2636C127.099 81.5488 135.469 75.9507 145.147 73.8794C147.839 73.3032 150.633 76.4335 153.497 76.4335C173.129 76.4335 189.433 87.2476 192.633 105.967C192.956 107.857 193.145 109.792 193.191 111.763C193.203 112.279 192.79 112.705 192.274 112.705H114.753Z" fill="#9DC6FB"/>
<path d="M146.424 76.5373C167.16 76.5373 184.18 92.434 185.97 112.705H192.276C192.793 112.705 193.204 112.278 193.193 111.761C192.691 90.2688 175.111 73 153.498 73C145.708 73 138.444 75.2453 132.312 79.1214C136.698 77.4533 141.454 76.5373 146.424 76.5373V76.5373Z" fill="#80B4FB"/>
<path d="M192.625 105.97C189.424 87.2515 173.132 76.4344 153.5 76.4344C150.636 76.4344 147.845 73.311 145.152 73.8874C145.944 77.0765 146.753 80.8218 147.48 85.241C148.67 92.4682 149.169 98.5962 152.613 99.7053C155.967 100.785 158.693 96.003 163.345 96.9058C167.247 97.6632 167.794 101.509 171.276 104.371C176 108.254 184.886 109.31 192.625 105.97V105.97Z" fill="#B3E59F"/>
<path d="M185.239 107.856C187.705 107.619 190.22 107.007 192.625 105.969C188.713 83.7725 167.43 69.1721 145.152 73.8866C145.362 74.7324 145.574 75.6185 145.784 76.5447C164.94 76.1951 181.408 89.7556 185.239 107.856V107.856Z" fill="#95D6A4"/>
<path d="M130.281 99.5228C129.036 95.5041 125.62 91.7641 121.455 89.2686C116.707 95.7255 113.995 103.666 113.805 111.763C113.793 112.279 114.205 112.705 114.721 112.705H130.597C130.034 106.321 131.553 103.628 130.281 99.5228V99.5228Z" fill="#B3E59F"/>
<path d="M192.278 150.496C192.793 150.496 193.206 150.922 193.194 151.438C192.965 161.268 189.164 170.214 183.038 177.029C175.77 185.116 165.229 186.768 153.5 186.768C148.772 186.768 144.236 189.375 140.031 187.858C134.131 185.731 128.879 182.245 124.654 177.779C122.287 175.278 123.676 172.468 122.019 169.418C119.111 164.063 114.288 157.965 113.83 151.481C113.793 150.95 114.212 150.496 114.745 150.496H192.278Z" fill="#9DC6FB"/>
<path d="M185.971 150.495C184.181 170.766 167.16 186.663 146.424 186.663C141.454 186.663 136.698 185.747 132.312 184.079C134.722 185.602 137.307 186.873 140.03 187.856C144.235 189.373 148.77 186.767 153.499 186.767C165.228 186.767 175.769 185.115 183.037 177.028C189.163 170.213 192.964 161.267 193.193 151.437C193.205 150.921 192.792 150.495 192.276 150.495H185.971Z" fill="#80B4FB"/>
<path d="M115.203 161.005C116.951 167.376 120.248 173.107 124.661 177.771C129.641 174.46 133.211 169.13 133.549 164.349C133.774 161.17 132.383 160.869 131.172 154.545C130.884 153.039 130.704 151.702 130.597 150.495H114.721C114.208 150.495 113.793 150.916 113.805 151.428C113.805 151.452 113.806 151.476 113.807 151.501C113.887 154.71 114.354 157.909 115.203 161.005V161.005Z" fill="#B3E59F"/>
<path d="M140.031 187.853C144.237 189.37 148.771 190.2 153.499 190.2C165.228 190.2 175.766 185.112 183.034 177.025C180.38 173.09 176.377 169.434 174.114 167.369C170.976 164.507 163.497 157.683 158.885 159.893C155.278 161.622 157.04 167.14 153.901 174.292C150.633 181.734 144.479 185.432 140.031 187.853V187.853Z" fill="#B3E59F"/>
<path d="M140.031 187.853C144.237 189.37 148.771 190.2 153.499 190.2C165.228 190.2 175.766 185.112 183.034 177.025C180.38 173.09 176.377 169.434 174.114 167.369C170.976 164.507 163.497 157.683 158.885 159.893C155.278 161.622 157.04 167.14 153.901 174.292C150.633 181.734 144.479 185.432 140.031 187.853V187.853Z" fill="#B3E59F"/>
<path d="M177.987 171.047C170.097 181.553 156.45 187.918 142.474 186.467C142.473 186.467 142.473 186.467 142.472 186.468C141.627 186.973 140.859 187.404 140.035 187.852C140.06 187.862 140.085 187.871 140.11 187.88C144.294 189.379 148.801 190.201 153.501 190.201C165.23 190.201 175.767 185.112 183.036 177.026C181.575 174.865 179.818 172.898 177.987 171.047V171.047Z" fill="#95D6A4"/>
<path d="M183.47 187.024C183.454 186.908 183.359 186.813 183.242 186.796C182.501 186.692 181.695 186.944 181.095 187.544C180.494 188.144 180.243 188.95 180.347 189.691C180.364 189.808 180.458 189.903 180.575 189.919C181.316 190.024 182.123 189.772 182.723 189.172C183.323 188.572 183.574 187.766 183.47 187.024Z" fill="#B4E66E"/>
<path d="M183.472 187.024C183.464 186.965 183.436 186.912 183.396 186.872L180.426 189.842C180.466 189.882 180.519 189.91 180.577 189.918C181.319 190.023 182.125 189.771 182.725 189.171C183.325 188.571 183.577 187.765 183.472 187.024Z" fill="#A0D755"/>
<path d="M176.16 183.725C176.019 183.738 175.908 183.849 175.895 183.99C175.843 184.536 176.039 185.119 176.478 185.558C176.917 185.997 177.5 186.194 178.047 186.142C178.188 186.128 178.298 186.018 178.312 185.877C178.363 185.33 178.167 184.747 177.728 184.308C177.289 183.869 176.706 183.673 176.16 183.725Z" fill="#B4E66E"/>
<path d="M176.478 185.558C176.917 185.997 177.5 186.194 178.047 186.142C178.117 186.135 178.18 186.104 178.227 186.057L175.979 183.81C175.933 183.856 175.902 183.919 175.895 183.99C175.843 184.536 176.039 185.119 176.478 185.558Z" fill="#A0D755"/>
<path d="M173.471 188.296C173.356 188.315 173.263 188.408 173.244 188.523C173.054 189.642 173.421 190.875 174.332 191.786C175.243 192.697 176.476 193.064 177.596 192.874C177.71 192.855 177.803 192.762 177.823 192.647C178.012 191.528 177.646 190.295 176.734 189.384C175.823 188.473 174.59 188.106 173.471 188.296Z" fill="#B4E66E"/>
<path d="M174.332 191.786C175.243 192.697 176.476 193.064 177.596 192.874C177.653 192.864 177.705 192.836 177.745 192.796L173.322 188.373C173.282 188.413 173.254 188.465 173.244 188.522C173.054 189.642 173.421 190.875 174.332 191.786Z" fill="#A0D755"/>
<path d="M184.613 201.272C184.176 200.272 183.179 199.573 182.019 199.573C181.944 199.573 181.871 199.577 181.798 199.583C181.653 199.596 181.511 199.55 181.395 199.462C180.78 198.999 180.016 198.724 179.187 198.724C178.358 198.724 177.595 198.999 176.98 199.462C176.863 199.55 176.722 199.596 176.576 199.583C176.504 199.577 176.43 199.573 176.356 199.573C175.195 199.573 174.199 200.272 173.762 201.272H184.613Z" fill="#9B735A"/>
<path d="M181.653 188.613C181.542 188.502 181.363 188.502 181.252 188.613L179.65 190.216C179.586 190.28 179.526 190.347 179.47 190.416V188.247C179.47 187.415 179.146 186.633 178.558 186.045L177.284 184.77C177.174 184.66 176.994 184.66 176.884 184.77C176.773 184.881 176.773 185.06 176.884 185.171L178.158 186.445C178.639 186.926 178.904 187.566 178.904 188.247V193.687C178.759 193.457 178.59 193.239 178.392 193.042L175.968 190.617C175.857 190.506 175.678 190.506 175.567 190.617C175.457 190.728 175.457 190.907 175.567 191.017L177.992 193.442C178.58 194.031 178.904 194.813 178.904 195.644V199.006H179.47V192.018C179.47 191.489 179.676 190.991 180.05 190.617L181.653 189.013C181.763 188.903 181.763 188.724 181.653 188.613Z" fill="#87BE4B"/>
<path d="M179.799 198.775C179.6 198.741 179.396 198.724 179.187 198.724C178.358 198.724 177.595 198.999 176.98 199.462C176.863 199.55 176.722 199.596 176.576 199.583C176.504 199.577 176.43 199.573 176.356 199.573C175.195 199.573 174.199 200.272 173.762 201.272H177.452C177.851 200.147 178.705 199.237 179.799 198.775Z" fill="#8C5F50"/>
<path d="M185.417 201.555H172.959C172.802 201.555 172.676 201.428 172.676 201.271C172.676 201.115 172.802 200.988 172.959 200.988H185.417C185.574 200.988 185.7 201.115 185.7 201.271C185.7 201.428 185.574 201.555 185.417 201.555Z" fill="#AE8B70"/>
<path fill-rule="evenodd" clip-rule="evenodd" d="M169 166.695C169 165.206 170.231 164 171.748 164H186.665C188.183 164 189.413 165.206 189.413 166.695V198.985C189.413 200.473 188.182 201.679 186.665 201.679H171.748C170.23 201.679 169 200.474 169 198.985V166.695ZM170.178 166.69V198.989C170.178 199.835 170.881 200.526 171.749 200.526H186.665C187.533 200.526 188.235 199.838 188.235 198.989V166.69C188.235 165.844 187.533 165.153 186.667 165.153H183.918C183.704 165.153 183.434 165.301 183.322 165.484L182.55 166.745C182.439 166.925 182.171 167.076 181.954 167.076H176.459C176.241 167.076 175.975 166.928 175.864 166.745L175.091 165.484C174.981 165.304 174.712 165.153 174.495 165.153H171.746C170.883 165.153 170.178 165.842 170.178 166.69Z" fill="white"/>
<path d="M112.443 215.219H108.896V225H106.935V215.219H103.42V213.625H112.443V215.219ZM119.563 220.617H117.36V225H115.383V213.625H119.383C120.696 213.625 121.709 213.919 122.422 214.508C123.136 215.096 123.493 215.948 123.493 217.062C123.493 217.823 123.308 218.461 122.938 218.977C122.573 219.487 122.063 219.88 121.407 220.156L123.961 224.898V225H121.844L119.563 220.617ZM117.36 219.031H119.391C120.058 219.031 120.578 218.865 120.953 218.531C121.328 218.193 121.516 217.732 121.516 217.148C121.516 216.539 121.341 216.068 120.993 215.734C120.649 215.401 120.133 215.229 119.446 215.219H117.36V219.031ZM133.175 222.352H128.768L127.847 225H125.792L130.089 213.625H131.862L136.167 225H134.104L133.175 222.352ZM129.323 220.758H132.62L130.972 216.039L129.323 220.758ZM144.849 222.07C144.849 221.57 144.672 221.185 144.318 220.914C143.969 220.643 143.336 220.37 142.419 220.094C141.503 219.818 140.774 219.51 140.232 219.172C139.195 218.521 138.677 217.672 138.677 216.625C138.677 215.708 139.05 214.953 139.794 214.359C140.544 213.766 141.516 213.469 142.708 213.469C143.5 213.469 144.206 213.615 144.826 213.906C145.445 214.198 145.932 214.615 146.287 215.156C146.641 215.693 146.818 216.289 146.818 216.945H144.849C144.849 216.352 144.662 215.888 144.287 215.555C143.917 215.216 143.386 215.047 142.693 215.047C142.047 215.047 141.544 215.185 141.185 215.461C140.831 215.737 140.654 216.122 140.654 216.617C140.654 217.034 140.846 217.383 141.232 217.664C141.617 217.94 142.253 218.211 143.138 218.477C144.024 218.737 144.734 219.036 145.271 219.375C145.807 219.708 146.201 220.094 146.451 220.531C146.701 220.964 146.826 221.471 146.826 222.055C146.826 223.003 146.461 223.758 145.732 224.32C145.008 224.878 144.024 225.156 142.779 225.156C141.956 225.156 141.198 225.005 140.505 224.703C139.818 224.396 139.281 223.974 138.896 223.438C138.516 222.901 138.326 222.276 138.326 221.562H140.302C140.302 222.208 140.516 222.708 140.943 223.062C141.37 223.417 141.982 223.594 142.779 223.594C143.466 223.594 143.982 223.456 144.326 223.18C144.675 222.898 144.849 222.529 144.849 222.07ZM159.031 225H157.062V219.945H151.977V225H150V213.625H151.977V218.359H157.062V213.625H159.031V225ZM170.799 215.219H167.253V225H165.292V215.219H161.776V213.625H170.799V215.219ZM179.169 222.352H174.763L173.841 225H171.786L176.083 213.625H177.857L182.161 225H180.099L179.169 222.352ZM175.317 220.758H178.614L176.966 216.039L175.317 220.758ZM186.875 223.422H192.039V225H184.898V213.625H186.875V223.422ZM198.26 220.086L196.971 221.453V225H194.994V213.625H196.971V218.961L198.065 217.609L201.393 213.625H203.783L199.557 218.664L204.026 225H201.682L198.26 220.086Z" fill="#4F4F4F"/>
<defs>
<filter id="filter0_d" x="0" y="0" width="308" height="282" filterUnits="userSpaceOnUse" color-interpolation-filters="sRGB">
<feFlood flood-opacity="0" result="BackgroundImageFix"/>
<feColorMatrix in="SourceAlpha" type="matrix" values="0 0 0 0 0 0 0 0 0 0 0 0 0 0 0 0 0 0 127 0"/>
<feOffset dy="4"/>
<feGaussianBlur stdDeviation="2"/>
<feColorMatrix type="matrix" values="0 0 0 0 0.779167 0 0 0 0 0.779167 0 0 0 0 0.779167 0 0 0 0.25 0"/>
<feBlend mode="normal" in2="BackgroundImageFix" result="effect1_dropShadow"/>
<feBlend mode="normal" in="SourceGraphic" in2="effect1_dropShadow" result="shape"/>
</filter>
</defs>
</svg>
