<svg width="308" height="282" viewBox="0 0 308 282" fill="none" xmlns="http://www.w3.org/2000/svg">
<g filter="url(#filter0_d)">
<rect x="4" width="300" height="274" rx="10" fill="#1F1F1F"/>
</g>
<path d="M58.1328 137.773V142H56.1562V130.625H60.5078C61.7786 130.625 62.7865 130.956 63.5312 131.617C64.2812 132.279 64.6562 133.154 64.6562 134.242C64.6562 135.357 64.2891 136.224 63.5547 136.844C62.8255 137.464 61.8021 137.773 60.4844 137.773H58.1328ZM58.1328 136.188H60.5078C61.2109 136.188 61.7474 136.023 62.1172 135.695C62.487 135.362 62.6719 134.883 62.6719 134.258C62.6719 133.643 62.4844 133.154 62.1094 132.789C61.7344 132.419 61.2188 132.229 60.5625 132.219H58.1328V136.188ZM81.6072 139.352H77.2009L76.2791 142H74.2244L78.5212 130.625H80.2947L84.5994 142H82.5369L81.6072 139.352ZM77.7556 137.758H81.0525L79.4041 133.039L77.7556 137.758ZM102.082 139.07C102.082 138.57 101.904 138.185 101.55 137.914C101.201 137.643 100.569 137.37 99.6519 137.094C98.7352 136.818 98.006 136.51 97.4644 136.172C96.4279 135.521 95.9097 134.672 95.9097 133.625C95.9097 132.708 96.2821 131.953 97.0269 131.359C97.7769 130.766 98.7482 130.469 99.9409 130.469C100.733 130.469 101.438 130.615 102.058 130.906C102.678 131.198 103.165 131.615 103.519 132.156C103.873 132.693 104.05 133.289 104.05 133.945H102.082C102.082 133.352 101.894 132.888 101.519 132.555C101.149 132.216 100.618 132.047 99.9253 132.047C99.2795 132.047 98.7769 132.185 98.4175 132.461C98.0633 132.737 97.8862 133.122 97.8862 133.617C97.8862 134.034 98.079 134.383 98.4644 134.664C98.8498 134.94 99.4852 135.211 100.371 135.477C101.256 135.737 101.967 136.036 102.503 136.375C103.04 136.708 103.433 137.094 103.683 137.531C103.933 137.964 104.058 138.471 104.058 139.055C104.058 140.003 103.694 140.758 102.964 141.32C102.24 141.878 101.256 142.156 100.011 142.156C99.1883 142.156 98.4305 142.005 97.7378 141.703C97.0503 141.396 96.5139 140.974 96.1284 140.438C95.7482 139.901 95.5581 139.276 95.5581 138.562H97.5347C97.5347 139.208 97.7482 139.708 98.1753 140.062C98.6024 140.417 99.2144 140.594 100.011 140.594C100.699 140.594 101.214 140.456 101.558 140.18C101.907 139.898 102.082 139.529 102.082 139.07ZM121.978 139.07C121.978 138.57 121.801 138.185 121.447 137.914C121.098 137.643 120.465 137.37 119.548 137.094C118.631 136.818 117.902 136.51 117.361 136.172C116.324 135.521 115.806 134.672 115.806 133.625C115.806 132.708 116.178 131.953 116.923 131.359C117.673 130.766 118.644 130.469 119.837 130.469C120.629 130.469 121.335 130.615 121.954 130.906C122.574 131.198 123.061 131.615 123.415 132.156C123.769 132.693 123.947 133.289 123.947 133.945H121.978C121.978 133.352 121.79 132.888 121.415 132.555C121.046 132.216 120.514 132.047 119.822 132.047C119.176 132.047 118.673 132.185 118.314 132.461C117.96 132.737 117.783 133.122 117.783 133.617C117.783 134.034 117.975 134.383 118.361 134.664C118.746 134.94 119.381 135.211 120.267 135.477C121.152 135.737 121.863 136.036 122.4 136.375C122.936 136.708 123.329 137.094 123.579 137.531C123.829 137.964 123.954 138.471 123.954 139.055C123.954 140.003 123.59 140.758 122.861 141.32C122.137 141.878 121.152 142.156 119.908 142.156C119.085 142.156 118.327 142.005 117.634 141.703C116.947 141.396 116.41 140.974 116.025 140.438C115.644 139.901 115.454 139.276 115.454 138.562H117.431C117.431 139.208 117.644 139.708 118.072 140.062C118.499 140.417 119.111 140.594 119.908 140.594C120.595 140.594 121.111 140.456 121.454 140.18C121.803 139.898 121.978 139.529 121.978 139.07ZM138.015 142H136.046V130.625H138.015V142ZM159.762 136.609C159.762 137.724 159.57 138.703 159.184 139.547C158.799 140.385 158.247 141.031 157.528 141.484C156.815 141.932 155.992 142.156 155.059 142.156C154.137 142.156 153.315 141.932 152.591 141.484C151.872 141.031 151.315 140.388 150.919 139.555C150.528 138.721 150.33 137.76 150.325 136.672V136.031C150.325 134.922 150.52 133.943 150.911 133.094C151.307 132.245 151.861 131.596 152.575 131.148C153.294 130.695 154.117 130.469 155.044 130.469C155.971 130.469 156.791 130.693 157.505 131.141C158.223 131.583 158.778 132.224 159.169 133.062C159.559 133.896 159.757 134.867 159.762 135.977V136.609ZM157.786 136.016C157.786 134.755 157.546 133.789 157.067 133.117C156.593 132.445 155.919 132.109 155.044 132.109C154.19 132.109 153.52 132.445 153.036 133.117C152.557 133.784 152.312 134.729 152.302 135.953V136.609C152.302 137.859 152.544 138.826 153.028 139.508C153.518 140.19 154.195 140.531 155.059 140.531C155.934 140.531 156.606 140.198 157.075 139.531C157.549 138.865 157.786 137.891 157.786 136.609V136.016ZM180.995 142H179.018L173.948 133.93V142H171.971V130.625H173.948L179.034 138.727V130.625H180.995V142ZM58.1328 159.773V164H56.1562V152.625H60.5078C61.7786 152.625 62.7865 152.956 63.5312 153.617C64.2812 154.279 64.6562 155.154 64.6562 156.242C64.6562 157.357 64.2891 158.224 63.5547 158.844C62.8255 159.464 61.8021 159.773 60.4844 159.773H58.1328ZM58.1328 158.188H60.5078C61.2109 158.188 61.7474 158.023 62.1172 157.695C62.487 157.362 62.6719 156.883 62.6719 156.258C62.6719 155.643 62.4844 155.154 62.1094 154.789C61.7344 154.419 61.2188 154.229 60.5625 154.219H58.1328V158.188ZM80.8103 159.617H78.6072V164H76.6306V152.625H80.6306C81.9431 152.625 82.9561 152.919 83.6697 153.508C84.3832 154.096 84.74 154.948 84.74 156.062C84.74 156.823 84.5551 157.461 84.1853 157.977C83.8207 158.487 83.3103 158.88 82.6541 159.156L85.2087 163.898V164H83.0916L80.8103 159.617ZM78.6072 158.031H80.6384C81.3051 158.031 81.8259 157.865 82.2009 157.531C82.5759 157.193 82.7634 156.732 82.7634 156.148C82.7634 155.539 82.589 155.068 82.24 154.734C81.8962 154.401 81.3806 154.229 80.6931 154.219H78.6072V158.031ZM105.933 158.609C105.933 159.724 105.74 160.703 105.355 161.547C104.97 162.385 104.417 163.031 103.699 163.484C102.985 163.932 102.162 164.156 101.23 164.156C100.308 164.156 99.4852 163.932 98.7612 163.484C98.0425 163.031 97.4852 162.388 97.0894 161.555C96.6987 160.721 96.5008 159.76 96.4956 158.672V158.031C96.4956 156.922 96.6909 155.943 97.0816 155.094C97.4774 154.245 98.0321 153.596 98.7456 153.148C99.4644 152.695 100.287 152.469 101.214 152.469C102.141 152.469 102.962 152.693 103.675 153.141C104.394 153.583 104.949 154.224 105.339 155.062C105.73 155.896 105.928 156.867 105.933 157.977V158.609ZM103.957 158.016C103.957 156.755 103.717 155.789 103.238 155.117C102.764 154.445 102.089 154.109 101.214 154.109C100.36 154.109 99.6909 154.445 99.2066 155.117C98.7274 155.784 98.4826 156.729 98.4722 157.953V158.609C98.4722 159.859 98.7144 160.826 99.1987 161.508C99.6883 162.19 100.365 162.531 101.23 162.531C102.105 162.531 102.777 162.198 103.246 161.531C103.72 160.865 103.957 159.891 103.957 158.609V158.016ZM122.798 152.625H124.767V160.602C124.767 161.69 124.426 162.555 123.743 163.195C123.066 163.836 122.171 164.156 121.056 164.156C119.868 164.156 118.952 163.857 118.306 163.258C117.66 162.659 117.337 161.826 117.337 160.758H119.306C119.306 161.362 119.454 161.818 119.751 162.125C120.053 162.427 120.488 162.578 121.056 162.578C121.587 162.578 122.009 162.404 122.322 162.055C122.639 161.701 122.798 161.214 122.798 160.594V152.625ZM143.921 158.922H139.249V162.422H144.71V164H137.272V152.625H144.655V154.219H139.249V157.359H143.921V158.922ZM165.239 160.297C165.124 161.51 164.677 162.458 163.895 163.141C163.114 163.818 162.075 164.156 160.778 164.156C159.872 164.156 159.072 163.943 158.38 163.516C157.692 163.083 157.161 162.471 156.786 161.68C156.411 160.888 156.216 159.969 156.2 158.922V157.859C156.2 156.786 156.39 155.841 156.77 155.023C157.151 154.206 157.695 153.576 158.403 153.133C159.117 152.69 159.94 152.469 160.872 152.469C162.127 152.469 163.137 152.81 163.903 153.492C164.669 154.174 165.114 155.138 165.239 156.383H163.27C163.177 155.565 162.937 154.977 162.552 154.617C162.171 154.253 161.611 154.07 160.872 154.07C160.012 154.07 159.351 154.385 158.887 155.016C158.429 155.641 158.195 156.56 158.184 157.773V158.781C158.184 160.01 158.403 160.948 158.841 161.594C159.283 162.24 159.929 162.562 160.778 162.562C161.554 162.562 162.137 162.388 162.528 162.039C162.919 161.69 163.166 161.109 163.27 160.297H165.239ZM185.237 154.219H181.69V164H179.729V154.219H176.213V152.625H185.237V154.219Z" fill="white"/>
<path d="M55.8594 109V97.625H59.5234C60.5286 97.625 61.4323 97.8542 62.2344 98.3125C63.0365 98.7656 63.6615 99.4089 64.1094 100.242C64.5625 101.07 64.7917 102 64.7969 103.031V103.555C64.7969 104.596 64.5755 105.531 64.1328 106.359C63.6953 107.182 63.0755 107.828 62.2734 108.297C61.4766 108.76 60.5859 108.995 59.6016 109H55.8594ZM58.6016 99.7422V106.891H59.5547C60.3411 106.891 60.9453 106.612 61.3672 106.055C61.7891 105.492 62 104.659 62 103.555V103.062C62 101.964 61.7891 101.135 61.3672 100.578C60.9453 100.021 60.3307 99.7422 59.5234 99.7422H58.6016ZM75.8359 103.547C75.8359 104.656 75.6302 105.638 75.2188 106.492C74.8073 107.346 74.2214 108.005 73.4609 108.469C72.7057 108.927 71.8438 109.156 70.875 109.156C69.9062 109.156 69.0469 108.935 68.2969 108.492C67.5469 108.044 66.9609 107.406 66.5391 106.578C66.1224 105.75 65.9036 104.799 65.8828 103.727V103.086C65.8828 101.971 66.0859 100.99 66.4922 100.141C66.9036 99.2865 67.4896 98.6276 68.25 98.1641C69.0156 97.7005 69.8854 97.4688 70.8594 97.4688C71.8229 97.4688 72.6823 97.6979 73.4375 98.1562C74.1927 98.6146 74.7786 99.2682 75.1953 100.117C75.6172 100.961 75.8307 101.93 75.8359 103.023V103.547ZM73.0469 103.07C73.0469 101.94 72.8568 101.083 72.4766 100.5C72.1016 99.9115 71.5625 99.6172 70.8594 99.6172C69.4844 99.6172 68.7578 100.648 68.6797 102.711L68.6719 103.547C68.6719 104.661 68.8568 105.518 69.2266 106.117C69.5964 106.716 70.1458 107.016 70.875 107.016C71.5677 107.016 72.1016 106.721 72.4766 106.133C72.8516 105.544 73.0417 104.698 73.0469 103.594V103.07ZM90.1562 97.625V105.07C90.1562 105.914 89.9766 106.646 89.6172 107.266C89.2578 107.88 88.7422 108.349 88.0703 108.672C87.3984 108.995 86.6042 109.156 85.6875 109.156C84.3021 109.156 83.2109 108.797 82.4141 108.078C81.6172 107.359 81.2109 106.375 81.1953 105.125V97.625H83.9531V105.18C83.9844 106.424 84.5625 107.047 85.6875 107.047C86.2552 107.047 86.6849 106.891 86.9766 106.578C87.2682 106.266 87.4141 105.758 87.4141 105.055V97.625H90.1562Z" fill="white"/>
<path d="M59.4062 64.5938H58.4844V76.8125H59.4062V78.7266H55.8438V62.6719H59.4062V64.5938ZM62.7422 67.5469L62.8281 68.5391C63.4271 67.7734 64.2318 67.3906 65.2422 67.3906C66.3099 67.3906 67.0312 67.8151 67.4062 68.6641C67.9792 67.8151 68.8073 67.3906 69.8906 67.3906C71.6042 67.3906 72.4844 68.4271 72.5312 70.5V76H69.8906V70.6641C69.8906 70.2318 69.8177 69.9167 69.6719 69.7188C69.526 69.5208 69.2604 69.4219 68.875 69.4219C68.3542 69.4219 67.9661 69.6536 67.7109 70.1172L67.7188 70.2266V76H65.0781V70.6797C65.0781 70.237 65.0078 69.9167 64.8672 69.7188C64.7266 69.5208 64.4583 69.4219 64.0625 69.4219C63.5573 69.4219 63.1719 69.6536 62.9062 70.1172V76H60.2734V67.5469H62.7422ZM73.7031 71.6953C73.7031 70.8516 73.8672 70.1016 74.1953 69.4453C74.5234 68.7839 74.9948 68.276 75.6094 67.9219C76.224 67.5677 76.9453 67.3906 77.7734 67.3906C79.0391 67.3906 80.0365 67.7839 80.7656 68.5703C81.4948 69.3516 81.8594 70.4167 81.8594 71.7656V71.8594C81.8594 73.1771 81.4922 74.224 80.7578 75C80.0286 75.7708 79.0391 76.1562 77.7891 76.1562C76.5859 76.1562 75.6198 75.7969 74.8906 75.0781C74.1615 74.3542 73.7682 73.375 73.7109 72.1406L73.7031 71.6953ZM76.3359 71.8594C76.3359 72.6406 76.4583 73.2135 76.7031 73.5781C76.9479 73.9427 77.3099 74.125 77.7891 74.125C78.7266 74.125 79.2057 73.4036 79.2266 71.9609V71.6953C79.2266 70.1797 78.7422 69.4219 77.7734 69.4219C76.8932 69.4219 76.4167 70.0755 76.3438 71.3828L76.3359 71.8594ZM90.8672 71.8438C90.8672 73.2292 90.5807 74.2943 90.0078 75.0391C89.4349 75.7839 88.6276 76.1562 87.5859 76.1562C86.7266 76.1562 86.0339 75.8151 85.5078 75.1328L85.3984 76H83.0391V64H85.6719V68.2266C86.1615 67.6693 86.7943 67.3906 87.5703 67.3906C88.6224 67.3906 89.4349 67.7682 90.0078 68.5234C90.5807 69.2786 90.8672 70.3411 90.8672 71.7109V71.8438ZM88.2266 71.6797C88.2266 70.8672 88.1172 70.2891 87.8984 69.9453C87.6849 69.5964 87.3542 69.4219 86.9062 69.4219C86.3125 69.4219 85.901 69.6484 85.6719 70.1016V73.4609C85.8958 73.9089 86.3125 74.1328 86.9219 74.1328C87.5417 74.1328 87.9349 73.8307 88.1016 73.2266C88.1849 72.9297 88.2266 72.4141 88.2266 71.6797ZM94.8125 76H92.1719V67.5469H94.8125V76ZM92.0156 65.3672C92.0156 64.9922 92.151 64.6849 92.4219 64.4453C92.6927 64.2057 93.0443 64.0859 93.4766 64.0859C93.9089 64.0859 94.2604 64.2057 94.5312 64.4453C94.8021 64.6849 94.9375 64.9922 94.9375 65.3672C94.9375 65.7422 94.8021 66.0495 94.5312 66.2891C94.2604 66.5286 93.9089 66.6484 93.4766 66.6484C93.0443 66.6484 92.6927 66.5286 92.4219 66.2891C92.151 66.0495 92.0156 65.7422 92.0156 65.3672ZM99.2188 76H96.5781V64H99.2188V76ZM104.938 76.1562C103.641 76.1562 102.591 75.7708 101.789 75C100.987 74.224 100.586 73.2161 100.586 71.9766V71.7578C100.586 70.8932 100.745 70.1302 101.062 69.4688C101.385 68.8073 101.854 68.2969 102.469 67.9375C103.083 67.5729 103.812 67.3906 104.656 67.3906C105.844 67.3906 106.781 67.7604 107.469 68.5C108.156 69.2344 108.5 70.2604 108.5 71.5781V72.6016H103.266C103.359 73.0755 103.565 73.4479 103.883 73.7188C104.201 73.9896 104.612 74.125 105.117 74.125C105.951 74.125 106.602 73.8333 107.07 73.25L108.273 74.6719C107.945 75.125 107.479 75.487 106.875 75.7578C106.276 76.0234 105.63 76.1562 104.938 76.1562ZM104.641 69.4219C103.87 69.4219 103.411 69.9323 103.266 70.9531H105.922V70.75C105.932 70.3281 105.826 70.0026 105.602 69.7734C105.378 69.5391 105.057 69.4219 104.641 69.4219ZM118.312 76C118.219 75.8281 118.135 75.5755 118.062 75.2422C117.578 75.8516 116.901 76.1562 116.031 76.1562C115.234 76.1562 114.557 75.9167 114 75.4375C113.443 74.9531 113.164 74.3464 113.164 73.6172C113.164 72.7005 113.503 72.0078 114.18 71.5391C114.857 71.0703 115.841 70.8359 117.133 70.8359H117.945V70.3906C117.945 69.6146 117.609 69.2266 116.938 69.2266C116.312 69.2266 116 69.5339 116 70.1484H113.367C113.367 69.3307 113.714 68.6667 114.406 68.1562C115.104 67.6458 115.992 67.3906 117.07 67.3906C118.148 67.3906 119 67.6536 119.625 68.1797C120.25 68.7057 120.57 69.4271 120.586 70.3438V74.0859C120.596 74.862 120.716 75.4557 120.945 75.8672V76H118.312ZM116.664 74.2812C116.992 74.2812 117.263 74.2109 117.477 74.0703C117.695 73.9297 117.852 73.7708 117.945 73.5938V72.2422H117.18C116.263 72.2422 115.805 72.6536 115.805 73.4766C115.805 73.7161 115.885 73.9115 116.047 74.0625C116.208 74.2083 116.414 74.2812 116.664 74.2812ZM129.898 71.8359C129.898 73.1484 129.602 74.1979 129.008 74.9844C128.419 75.7656 127.622 76.1562 126.617 76.1562C125.841 76.1562 125.203 75.8724 124.703 75.3047V79.25H122.07V67.5469H124.531L124.609 68.3281C125.115 67.7031 125.779 67.3906 126.602 67.3906C127.643 67.3906 128.453 67.776 129.031 68.5469C129.609 69.3125 129.898 70.3672 129.898 71.7109V71.8359ZM127.266 71.6719C127.266 70.1719 126.828 69.4219 125.953 69.4219C125.328 69.4219 124.911 69.6458 124.703 70.0938V73.4219C124.932 73.8906 125.354 74.125 125.969 74.125C126.807 74.125 127.24 73.401 127.266 71.9531V71.6719ZM138.914 71.8359C138.914 73.1484 138.617 74.1979 138.023 74.9844C137.435 75.7656 136.638 76.1562 135.633 76.1562C134.857 76.1562 134.219 75.8724 133.719 75.3047V79.25H131.086V67.5469H133.547L133.625 68.3281C134.13 67.7031 134.794 67.3906 135.617 67.3906C136.659 67.3906 137.469 67.776 138.047 68.5469C138.625 69.3125 138.914 70.3672 138.914 71.7109V71.8359ZM136.281 71.6719C136.281 70.1719 135.844 69.4219 134.969 69.4219C134.344 69.4219 133.927 69.6458 133.719 70.0938V73.4219C133.948 73.8906 134.37 74.125 134.984 74.125C135.823 74.125 136.255 73.401 136.281 71.9531V71.6719ZM139.453 62.6719H143.016V78.7266H139.453V76.8125H140.383V64.5938H139.453V62.6719Z" fill="white"/>
<defs>
<filter id="filter0_d" x="0" y="0" width="308" height="282" filterUnits="userSpaceOnUse" color-interpolation-filters="sRGB">
<feFlood flood-opacity="0" result="BackgroundImageFix"/>
<feColorMatrix in="SourceAlpha" type="matrix" values="0 0 0 0 0 0 0 0 0 0 0 0 0 0 0 0 0 0 127 0"/>
<feOffset dy="4"/>
<feGaussianBlur stdDeviation="2"/>
<feColorMatrix type="matrix" values="0 0 0 0 0 0 0 0 0 0 0 0 0 0 0 0 0 0 0.25 0"/>
<feBlend mode="normal" in2="BackgroundImageFix" result="effect1_dropShadow"/>
<feBlend mode="normal" in="SourceGraphic" in2="effect1_dropShadow" result="shape"/>
</filter>
</defs>
</svg>
