<svg width="350" height="281" viewBox="0 0 350 281" fill="none" xmlns="http://www.w3.org/2000/svg">
<rect width="350" height="281" fill="#182435" fill-opacity="0.2"/>
<rect x="140.5" y="209.5" width="68" height="34" rx="17" stroke="white"/>
<path d="M162.46 224.6C161.847 224.6 161.29 224.717 160.79 224.95C160.29 225.177 159.86 225.487 159.5 225.88C159.147 226.273 158.873 226.737 158.68 227.27C158.487 227.803 158.39 228.373 158.39 228.98C158.39 229.573 158.473 230.093 158.64 230.54C158.813 230.987 159.037 231.36 159.31 231.66C159.59 231.96 159.903 232.187 160.25 232.34C160.597 232.487 160.947 232.56 161.3 232.56C161.613 232.56 161.91 232.507 162.19 232.4C162.47 232.293 162.73 232.16 162.97 232C163.21 231.84 163.427 231.667 163.62 231.48C163.813 231.287 163.977 231.107 164.11 230.94V224.6H162.46ZM164.11 234V232.38L163.25 233.51C163.01 233.67 162.69 233.82 162.29 233.96C161.89 234.1 161.43 234.17 160.91 234.17C160.31 234.17 159.743 234.063 159.21 233.85C158.677 233.63 158.21 233.3 157.81 232.86C157.41 232.413 157.093 231.85 156.86 231.17C156.627 230.483 156.51 229.673 156.51 228.74C156.51 227.94 156.663 227.193 156.97 226.5C157.283 225.8 157.707 225.19 158.24 224.67C158.773 224.15 159.4 223.743 160.12 223.45C160.847 223.15 161.623 223 162.45 223H164.11V217.8L165.91 218V232.2L166.11 234H164.11ZM174.498 234.17C173.758 234.17 173.078 234.027 172.458 233.74C171.844 233.447 171.314 233.047 170.868 232.54C170.421 232.027 170.071 231.423 169.818 230.73C169.571 230.037 169.448 229.283 169.448 228.47C169.448 227.663 169.568 226.917 169.808 226.23C170.048 225.537 170.388 224.94 170.828 224.44C171.268 223.933 171.798 223.54 172.418 223.26C173.044 222.973 173.738 222.83 174.498 222.83C175.238 222.83 175.911 222.973 176.518 223.26C177.124 223.54 177.644 223.933 178.078 224.44C178.518 224.94 178.858 225.537 179.098 226.23C179.338 226.917 179.458 227.663 179.458 228.47C179.458 229.283 179.341 230.037 179.108 230.73C178.881 231.423 178.551 232.027 178.118 232.54C177.691 233.047 177.171 233.447 176.558 233.74C175.944 234.027 175.258 234.17 174.498 234.17ZM177.558 228.74C177.558 228.2 177.501 227.67 177.388 227.15C177.274 226.63 177.094 226.167 176.848 225.76C176.601 225.347 176.281 225.013 175.888 224.76C175.494 224.507 175.018 224.38 174.458 224.38C173.924 224.38 173.461 224.49 173.068 224.71C172.674 224.93 172.351 225.223 172.098 225.59C171.844 225.957 171.654 226.373 171.528 226.84C171.408 227.307 171.348 227.787 171.348 228.28C171.348 228.82 171.408 229.35 171.528 229.87C171.654 230.39 171.844 230.853 172.098 231.26C172.358 231.667 172.688 231.997 173.088 232.25C173.494 232.497 173.978 232.62 174.538 232.62C175.064 232.62 175.518 232.51 175.898 232.29C176.284 232.07 176.598 231.78 176.838 231.42C177.084 231.053 177.264 230.64 177.378 230.18C177.498 229.713 177.558 229.233 177.558 228.74ZM190.326 223L192.126 222.8V234H190.326V232.2L189.716 233.27C189.656 233.343 189.559 233.43 189.426 233.53C189.292 233.63 189.126 233.73 188.926 233.83C188.726 233.923 188.496 234.003 188.236 234.07C187.976 234.137 187.686 234.17 187.366 234.17C186.559 234.17 185.882 234.047 185.336 233.8C184.796 233.547 184.362 233.213 184.036 232.8C183.709 232.387 183.476 231.91 183.336 231.37C183.196 230.83 183.126 230.273 183.126 229.7V223L184.926 222.8V229.7C184.926 230.133 184.969 230.523 185.056 230.87C185.142 231.217 185.289 231.513 185.496 231.76C185.709 232.007 185.989 232.197 186.336 232.33C186.689 232.457 187.126 232.52 187.646 232.52C188.032 232.52 188.376 232.467 188.676 232.36C188.976 232.247 189.236 232.113 189.456 231.96C189.682 231.8 189.866 231.633 190.006 231.46C190.152 231.287 190.259 231.133 190.326 231V223Z" fill="white"/>
<path d="M183.792 60.6505C179.894 60.6505 178.42 65.5374 178.357 65.7437C177.917 67.2716 176.513 68.3307 174.927 68.3307H174.9C173.3 68.3202 171.903 67.2611 171.476 65.7196C171.42 65.5378 169.947 60.6505 166.048 60.6505C162.569 60.6505 160.753 63.6989 160.753 66.7085C160.753 70.9805 164.609 74.4274 172.643 81.2088C173.376 81.8311 174.137 82.4743 174.92 83.1385C175.689 82.4848 176.436 81.8557 177.162 81.2439C184.525 75.0089 189.087 71.1763 189.087 66.7085C189.088 63.6989 187.271 60.6505 183.792 60.6505ZM174.921 27C151.253 27 132 46.2687 132 69.956C132 99.5651 170.547 145.5 172.189 147.44C172.866 148.244 173.865 148.709 174.921 148.709C175.976 148.709 176.974 148.244 177.652 147.44C179.294 145.5 217.841 99.5651 217.841 69.956C217.841 46.2687 198.588 27 174.921 27ZM181.774 86.7148C180.356 87.9137 178.847 89.1864 177.261 90.5603C176.59 91.1438 175.752 91.434 174.921 91.434C174.082 91.434 173.251 91.1438 172.58 90.5603C170.981 89.1759 169.458 87.8895 168.025 86.6801C159.65 79.6081 153.6 74.4939 153.6 66.7085C153.6 59.2976 159.07 53.491 166.048 53.491C169.981 53.491 172.887 55.2877 174.92 57.5461C176.953 55.2877 179.859 53.491 183.792 53.491C190.771 53.491 196.241 59.2976 196.241 66.7085C196.241 74.7905 189.588 80.1163 181.774 86.7148Z" fill="url(#paint0_linear)"/>
<path d="M88.4173 97.871C85.661 100.627 88.0741 105.125 88.1756 105.316C88.9447 106.707 88.7008 108.449 87.5794 109.57L87.5598 109.59C86.4213 110.713 84.6844 110.953 83.2929 110.164C83.1248 110.075 78.6268 107.661 75.8703 110.418C73.4104 112.878 74.2816 116.318 76.4097 118.446C79.4304 121.467 84.5944 121.177 95.0702 120.292C96.0288 120.213 97.0219 120.13 98.045 120.046C98.1262 119.04 98.2097 118.067 98.2909 117.121C99.0883 107.506 99.6041 101.57 96.4449 98.4107C94.317 96.2823 90.8771 95.4111 88.4173 97.871ZM58.3494 80.3498C41.6136 97.0856 41.625 124.324 58.3745 141.074C79.3113 162.011 139.049 167.234 141.582 167.445C142.629 167.535 143.665 167.157 144.411 166.411C145.157 165.665 145.534 164.63 145.445 163.582C145.234 161.05 140.01 101.312 119.073 80.3749C102.324 63.6254 75.0852 63.614 58.3494 80.3498ZM105.42 117.729C105.265 119.579 105.098 121.546 104.948 123.639C104.887 124.526 104.499 125.324 103.911 125.912C103.318 126.504 102.525 126.887 101.638 126.949C99.5285 127.101 97.542 127.268 95.674 127.426C84.7508 128.347 76.8566 129.009 71.3515 123.504C66.1112 118.264 65.8732 110.29 70.8078 105.355C73.5888 102.574 76.9141 101.79 79.9485 101.949C79.7889 98.9151 80.5734 95.5898 83.3545 92.8087C88.2893 87.8739 96.2628 88.1121 101.503 93.3525C107.218 99.067 106.28 107.537 105.42 117.729Z" fill="url(#paint1_linear)"/>
<path d="M273.891 110.417C271.135 107.661 266.637 110.074 266.446 110.176C265.055 110.945 263.313 110.701 262.192 109.579L262.172 109.56C261.048 108.421 260.809 106.684 261.598 105.293C261.687 105.125 264.1 100.627 261.344 97.8703C258.884 95.4104 255.444 96.2816 253.316 98.4097C250.295 101.43 250.584 106.594 251.47 117.07C251.548 118.029 251.632 119.022 251.716 120.045C252.721 120.126 253.695 120.21 254.641 120.291C264.256 121.088 270.192 121.604 273.351 118.445C275.479 116.317 276.351 112.877 273.891 110.417ZM291.412 80.3494C274.676 63.6136 247.437 63.625 230.688 80.3745C209.751 101.311 204.528 161.049 204.317 163.582C204.227 164.629 204.605 165.665 205.351 166.411C206.097 167.157 207.132 167.534 208.18 167.445C210.712 167.234 270.45 162.01 291.387 141.073C308.136 124.324 308.148 97.0852 291.412 80.3494ZM254.033 127.42C252.183 127.265 250.216 127.098 248.123 126.948C247.236 126.887 246.438 126.499 245.85 125.911C245.257 125.318 244.875 124.525 244.813 123.638C244.661 121.529 244.494 119.542 244.336 117.674C243.414 106.751 242.753 98.8566 248.258 93.3515C253.498 88.1112 261.472 87.8732 266.406 92.8078C269.187 95.5888 269.972 98.9141 269.812 101.948C272.847 101.789 276.172 102.573 278.953 105.354C283.888 110.289 283.65 118.263 278.409 123.503C272.695 129.218 264.224 128.28 254.033 127.42Z" fill="url(#paint2_linear)"/>
<path fill-rule="evenodd" clip-rule="evenodd" d="M157 135.62C157 133.069 159.111 131 161.711 131H187.289C189.891 131 192 133.067 192 135.62V190.984C192 193.536 189.889 195.604 187.289 195.604H161.711C159.109 195.604 157 193.537 157 190.984V135.62ZM159.019 135.613V190.991C159.019 192.442 160.225 193.627 161.713 193.627H187.287C188.777 193.627 189.981 192.447 189.981 190.991V135.613C189.981 134.162 188.777 132.978 187.291 132.978H182.579C182.211 132.978 181.748 133.231 181.557 133.544L180.232 135.707C180.043 136.015 179.583 136.274 179.211 136.274H169.789C169.415 136.274 168.96 136.02 168.768 135.707L167.443 133.544C167.255 133.236 166.794 132.978 166.421 132.978H161.709C160.228 132.978 159.019 134.158 159.019 135.613Z" fill="white"/>
<defs>
<linearGradient id="paint0_linear" x1="174.921" y1="148.709" x2="174.921" y2="27" gradientUnits="userSpaceOnUse">
<stop stop-color="#4F5DD9"/>
<stop offset="1" stop-color="#FD3A84"/>
</linearGradient>
<linearGradient id="paint1_linear" x1="144.411" y1="166.411" x2="58.3494" y2="80.3498" gradientUnits="userSpaceOnUse">
<stop stop-color="#4F5DD9"/>
<stop offset="1" stop-color="#FD3A84"/>
</linearGradient>
<linearGradient id="paint2_linear" x1="205.351" y1="166.411" x2="291.412" y2="80.3494" gradientUnits="userSpaceOnUse">
<stop stop-color="#4F5DD9"/>
<stop offset="1" stop-color="#FD3A84"/>
</linearGradient>
</defs>
</svg>
