<svg width="283" height="260" viewBox="0 0 283 260" fill="none" xmlns="http://www.w3.org/2000/svg">
<g filter="url(#filter0_d)">
<rect x="4" width="275" height="251.167" rx="5" fill="white"/>
</g>
<path d="M89.7325 138.703C89.7325 138.365 89.5919 138.107 89.3106 137.93C89.0346 137.753 88.5736 137.596 87.9278 137.461C87.282 137.326 86.7429 137.154 86.3106 136.945C85.3627 136.487 84.8888 135.823 84.8888 134.953C84.8888 134.224 85.196 133.615 85.8106 133.125C86.4252 132.635 87.2065 132.391 88.1544 132.391C89.1648 132.391 89.9799 132.641 90.5997 133.141C91.2247 133.641 91.5372 134.289 91.5372 135.086H89.6388C89.6388 134.721 89.5033 134.419 89.2325 134.18C88.9617 133.935 88.6023 133.812 88.1544 133.812C87.7377 133.812 87.3966 133.909 87.1309 134.102C86.8705 134.294 86.7403 134.552 86.7403 134.875C86.7403 135.167 86.8627 135.393 87.1075 135.555C87.3523 135.716 87.8471 135.88 88.5919 136.047C89.3367 136.208 89.92 136.404 90.3419 136.633C90.769 136.857 91.0841 137.128 91.2872 137.445C91.4955 137.763 91.5997 138.148 91.5997 138.602C91.5997 139.362 91.2846 139.979 90.6544 140.453C90.0242 140.922 89.1986 141.156 88.1778 141.156C87.4851 141.156 86.8679 141.031 86.3263 140.781C85.7846 140.531 85.3627 140.188 85.0606 139.75C84.7585 139.312 84.6075 138.841 84.6075 138.336H86.4513C86.4773 138.784 86.6466 139.13 86.9591 139.375C87.2716 139.615 87.6856 139.734 88.2013 139.734C88.7013 139.734 89.0815 139.641 89.3419 139.453C89.6023 139.26 89.7325 139.01 89.7325 138.703ZM98.6625 141.156C97.4594 141.156 96.4828 140.779 95.7328 140.023C94.988 139.263 94.6156 138.253 94.6156 136.992V136.758C94.6156 135.914 94.7771 135.161 95.1 134.5C95.4281 133.833 95.8865 133.315 96.475 132.945C97.0635 132.576 97.7198 132.391 98.4438 132.391C99.5948 132.391 100.483 132.758 101.108 133.492C101.738 134.227 102.053 135.266 102.053 136.609V137.375H96.5297C96.587 138.073 96.8188 138.625 97.225 139.031C97.6365 139.438 98.1521 139.641 98.7719 139.641C99.6417 139.641 100.35 139.289 100.897 138.586L101.92 139.562C101.582 140.068 101.129 140.461 100.561 140.742C99.9984 141.018 99.3656 141.156 98.6625 141.156ZM98.4359 133.914C97.9151 133.914 97.4932 134.096 97.1703 134.461C96.8526 134.826 96.6495 135.333 96.5609 135.984H100.178V135.844C100.136 135.208 99.9672 134.729 99.6703 134.406C99.3734 134.078 98.962 133.914 98.4359 133.914ZM107.233 141H105.335V129H107.233V141ZM111.655 141V133.953H110.366V132.547H111.655V131.773C111.655 130.836 111.916 130.112 112.437 129.602C112.957 129.091 113.687 128.836 114.624 128.836C114.957 128.836 115.312 128.883 115.687 128.977L115.64 130.461C115.431 130.419 115.189 130.398 114.913 130.398C114.007 130.398 113.554 130.865 113.554 131.797V132.547H115.273V133.953H113.554V141H111.655ZM122.023 136.93H117.921V135.398H122.023V136.93ZM127.648 130.492V132.547H129.14V133.953H127.648V138.672C127.648 138.995 127.711 139.229 127.836 139.375C127.966 139.516 128.195 139.586 128.523 139.586C128.742 139.586 128.963 139.56 129.187 139.508V140.977C128.755 141.096 128.338 141.156 127.937 141.156C126.479 141.156 125.75 140.352 125.75 138.742V133.953H124.359V132.547H125.75V130.492H127.648ZM136 141.156C134.797 141.156 133.82 140.779 133.07 140.023C132.326 139.263 131.953 138.253 131.953 136.992V136.758C131.953 135.914 132.115 135.161 132.438 134.5C132.766 133.833 133.224 133.315 133.812 132.945C134.401 132.576 135.057 132.391 135.781 132.391C136.932 132.391 137.82 132.758 138.445 133.492C139.076 134.227 139.391 135.266 139.391 136.609V137.375H133.867C133.924 138.073 134.156 138.625 134.562 139.031C134.974 139.438 135.49 139.641 136.109 139.641C136.979 139.641 137.688 139.289 138.234 138.586L139.258 139.562C138.919 140.068 138.466 140.461 137.898 140.742C137.336 141.018 136.703 141.156 136 141.156ZM135.773 133.914C135.253 133.914 134.831 134.096 134.508 134.461C134.19 134.826 133.987 135.333 133.898 135.984H137.516V135.844C137.474 135.208 137.305 134.729 137.008 134.406C136.711 134.078 136.299 133.914 135.773 133.914ZM147.602 141C147.519 140.839 147.446 140.576 147.383 140.211C146.779 140.841 146.039 141.156 145.164 141.156C144.315 141.156 143.623 140.914 143.086 140.43C142.55 139.945 142.282 139.346 142.282 138.633C142.282 137.732 142.615 137.042 143.282 136.562C143.953 136.078 144.912 135.836 146.157 135.836H147.321V135.281C147.321 134.844 147.198 134.495 146.953 134.234C146.709 133.969 146.336 133.836 145.836 133.836C145.404 133.836 145.05 133.945 144.774 134.164C144.498 134.378 144.36 134.651 144.36 134.984H142.461C142.461 134.521 142.615 134.089 142.922 133.688C143.229 133.281 143.646 132.964 144.172 132.734C144.703 132.505 145.295 132.391 145.946 132.391C146.935 132.391 147.724 132.641 148.313 133.141C148.901 133.635 149.203 134.333 149.219 135.234V139.047C149.219 139.807 149.326 140.414 149.539 140.867V141H147.602ZM145.516 139.633C145.891 139.633 146.243 139.542 146.571 139.359C146.904 139.177 147.154 138.932 147.321 138.625V137.031H146.297C145.594 137.031 145.065 137.154 144.711 137.398C144.357 137.643 144.18 137.99 144.18 138.438C144.18 138.802 144.3 139.094 144.539 139.312C144.784 139.526 145.11 139.633 145.516 139.633ZM156.36 139.641C156.834 139.641 157.227 139.503 157.54 139.227C157.852 138.951 158.019 138.609 158.04 138.203H159.829C159.808 138.729 159.644 139.221 159.337 139.68C159.029 140.133 158.613 140.492 158.087 140.758C157.561 141.023 156.993 141.156 156.383 141.156C155.201 141.156 154.264 140.773 153.571 140.008C152.878 139.242 152.532 138.185 152.532 136.836V136.641C152.532 135.354 152.876 134.326 153.563 133.555C154.251 132.779 155.188 132.391 156.376 132.391C157.381 132.391 158.199 132.685 158.829 133.273C159.464 133.857 159.798 134.625 159.829 135.578H158.04C158.019 135.094 157.852 134.695 157.54 134.383C157.232 134.07 156.839 133.914 156.36 133.914C155.745 133.914 155.271 134.138 154.938 134.586C154.605 135.029 154.436 135.703 154.43 136.609V136.914C154.43 137.831 154.594 138.516 154.923 138.969C155.256 139.417 155.735 139.641 156.36 139.641ZM164.813 133.469C165.433 132.75 166.217 132.391 167.165 132.391C168.967 132.391 169.881 133.419 169.907 135.477V141H168.009V135.547C168.009 134.964 167.881 134.552 167.626 134.312C167.376 134.068 167.006 133.945 166.517 133.945C165.756 133.945 165.188 134.284 164.813 134.961V141H162.915V129H164.813V133.469ZM175.533 141H173.634V132.547H175.533V141ZM173.517 130.352C173.517 130.06 173.608 129.818 173.79 129.625C173.978 129.432 174.243 129.336 174.587 129.336C174.931 129.336 175.197 129.432 175.384 129.625C175.572 129.818 175.665 130.06 175.665 130.352C175.665 130.638 175.572 130.878 175.384 131.07C175.197 131.258 174.931 131.352 174.587 131.352C174.243 131.352 173.978 131.258 173.79 131.07C173.608 130.878 173.517 130.638 173.517 130.352ZM181.048 132.547L181.103 133.523C181.728 132.768 182.548 132.391 183.564 132.391C185.324 132.391 186.22 133.398 186.252 135.414V141H184.353V135.523C184.353 134.987 184.236 134.591 184.002 134.336C183.772 134.076 183.395 133.945 182.869 133.945C182.103 133.945 181.533 134.292 181.158 134.984V141H179.259V132.547H181.048ZM189.541 136.711C189.541 135.398 189.848 134.352 190.463 133.57C191.083 132.784 191.903 132.391 192.924 132.391C193.887 132.391 194.645 132.727 195.197 133.398L195.283 132.547H196.994V140.742C196.994 141.852 196.648 142.727 195.955 143.367C195.268 144.008 194.338 144.328 193.166 144.328C192.546 144.328 191.939 144.198 191.346 143.938C190.757 143.682 190.309 143.346 190.002 142.93L190.9 141.789C191.484 142.482 192.202 142.828 193.057 142.828C193.687 142.828 194.184 142.656 194.549 142.312C194.913 141.974 195.096 141.474 195.096 140.812V140.242C194.549 140.852 193.82 141.156 192.908 141.156C191.919 141.156 191.109 140.763 190.478 139.977C189.853 139.19 189.541 138.102 189.541 136.711ZM191.432 136.875C191.432 137.724 191.603 138.393 191.947 138.883C192.296 139.367 192.778 139.609 193.393 139.609C194.158 139.609 194.726 139.281 195.096 138.625V134.906C194.736 134.266 194.174 133.945 193.408 133.945C192.783 133.945 192.296 134.193 191.947 134.688C191.603 135.182 191.432 135.911 191.432 136.875Z" fill="#424242"/>
<path d="M103.539 108.737H102.333V112H100.105V102.758H103.742C104.838 102.758 105.695 103.001 106.313 103.488C106.931 103.974 107.24 104.662 107.24 105.551C107.24 106.194 107.109 106.727 106.846 107.15C106.588 107.574 106.182 107.916 105.628 108.179L107.557 111.905V112H105.171L103.539 108.737ZM102.333 107.017H103.742C104.166 107.017 104.483 106.907 104.695 106.687C104.91 106.463 105.018 106.152 105.018 105.754C105.018 105.356 104.91 105.045 104.695 104.821C104.479 104.592 104.161 104.478 103.742 104.478H102.333V107.017ZM115.163 108.083H111.659V110.286H115.797V112H109.431V102.758H115.81V104.478H111.659V106.427H115.163V108.083ZM123.371 108.318H119.778V112H117.55V102.758H123.733V104.478H119.778V106.604H123.371V108.318ZM127.732 110.286H131.611V112H125.504V102.758H127.732V110.286ZM139.127 108.083H135.623V110.286H139.762V112H133.395V102.758H139.775V104.478H135.623V106.427H139.127V108.083ZM148.992 108.871C148.963 109.514 148.789 110.083 148.472 110.578C148.154 111.069 147.708 111.45 147.132 111.721C146.561 111.992 145.907 112.127 145.171 112.127C143.957 112.127 143 111.731 142.302 110.94C141.604 110.149 141.255 109.031 141.255 107.588V107.131C141.255 106.226 141.411 105.434 141.724 104.757C142.042 104.076 142.497 103.551 143.089 103.183C143.681 102.811 144.367 102.625 145.146 102.625C146.267 102.625 147.168 102.921 147.85 103.513C148.531 104.101 148.918 104.914 149.011 105.951H146.79C146.773 105.388 146.631 104.984 146.364 104.738C146.098 104.493 145.692 104.37 145.146 104.37C144.591 104.37 144.185 104.577 143.927 104.992C143.669 105.407 143.533 106.069 143.521 106.979V107.633C143.521 108.619 143.643 109.323 143.889 109.747C144.138 110.17 144.566 110.381 145.171 110.381C145.683 110.381 146.075 110.261 146.345 110.02C146.616 109.778 146.76 109.395 146.777 108.871H148.992ZM157.956 104.478H155.182V112H152.954V104.478H150.231V102.758H157.956V104.478ZM162.121 112H159.899V102.758H162.121V112ZM172.341 107.569C172.341 108.471 172.174 109.268 171.84 109.962C171.506 110.656 171.029 111.192 170.412 111.568C169.798 111.941 169.098 112.127 168.311 112.127C167.523 112.127 166.825 111.947 166.216 111.587C165.606 111.223 165.13 110.705 164.788 110.032C164.449 109.359 164.271 108.587 164.254 107.715V107.195C164.254 106.289 164.419 105.492 164.749 104.802C165.084 104.108 165.56 103.572 166.178 103.196C166.8 102.819 167.506 102.631 168.298 102.631C169.081 102.631 169.779 102.817 170.393 103.189C171.006 103.562 171.482 104.093 171.821 104.783C172.164 105.468 172.337 106.255 172.341 107.144V107.569ZM170.075 107.182C170.075 106.264 169.921 105.568 169.612 105.094C169.307 104.616 168.869 104.376 168.298 104.376C167.181 104.376 166.59 105.214 166.527 106.89L166.52 107.569C166.52 108.475 166.671 109.171 166.971 109.658C167.272 110.144 167.718 110.388 168.311 110.388C168.873 110.388 169.307 110.149 169.612 109.67C169.916 109.192 170.071 108.505 170.075 107.607V107.182ZM182.054 112H179.839L176.563 106.249V112H174.335V102.758H176.563L179.832 108.509V102.758H182.054V112Z" fill="#424242"/>
<path d="M75.7373 169H74.0146V164.577H69.5645V169H67.835V159.047H69.5645V163.189H74.0146V159.047H75.7373V169ZM91.3314 164.283C91.3314 165.258 91.1628 166.115 90.8256 166.854C90.4883 167.587 90.0053 168.152 89.3764 168.549C88.752 168.941 88.032 169.137 87.2162 169.137C86.4096 169.137 85.6895 168.941 85.0561 168.549C84.4271 168.152 83.9395 167.59 83.5932 166.86C83.2514 166.131 83.0782 165.29 83.0736 164.338V163.777C83.0736 162.807 83.2445 161.95 83.5863 161.207C83.9327 160.464 84.418 159.897 85.0424 159.505C85.6713 159.108 86.3913 158.91 87.2025 158.91C88.0137 158.91 88.7315 159.106 89.3559 159.498C89.9848 159.885 90.4701 160.446 90.8119 161.18C91.1537 161.909 91.3269 162.759 91.3314 163.729V164.283ZM89.602 163.764C89.602 162.661 89.3923 161.815 88.973 161.228C88.5583 160.64 87.9682 160.346 87.2025 160.346C86.4551 160.346 85.8695 160.64 85.4457 161.228C85.0264 161.811 84.8122 162.638 84.8031 163.709V164.283C84.8031 165.377 85.015 166.222 85.4389 166.819C85.8673 167.416 86.4597 167.715 87.2162 167.715C87.9818 167.715 88.5697 167.423 88.9799 166.84C89.3946 166.257 89.602 165.404 89.602 164.283V163.764ZM106.461 166.539L107.992 159.047H109.708L107.411 169H105.757L103.863 161.733L101.929 169H100.267L97.9705 159.047H99.6863L101.231 166.525L103.132 159.047H104.581L106.461 166.539ZM132.44 160.441H129.337V169H127.621V160.441H124.545V159.047H132.44V160.441ZM147.104 164.283C147.104 165.258 146.936 166.115 146.599 166.854C146.261 167.587 145.778 168.152 145.149 168.549C144.525 168.941 143.805 169.137 142.989 169.137C142.183 169.137 141.463 168.941 140.829 168.549C140.2 168.152 139.713 167.59 139.366 166.86C139.024 166.131 138.851 165.29 138.847 164.338V163.777C138.847 162.807 139.018 161.95 139.359 161.207C139.706 160.464 140.191 159.897 140.815 159.505C141.444 159.108 142.164 158.91 142.976 158.91C143.787 158.91 144.505 159.106 145.129 159.498C145.758 159.885 146.243 160.446 146.585 161.18C146.927 161.909 147.1 162.759 147.104 163.729V164.283ZM145.375 163.764C145.375 162.661 145.165 161.815 144.746 161.228C144.331 160.64 143.741 160.346 142.976 160.346C142.228 160.346 141.643 160.64 141.219 161.228C140.799 161.811 140.585 162.638 140.576 163.709V164.283C140.576 165.377 140.788 166.222 141.212 166.819C141.64 167.416 142.233 167.715 142.989 167.715C143.755 167.715 144.343 167.423 144.753 166.84C145.168 166.257 145.375 165.404 145.375 164.283V163.764ZM171.108 165.76C171.008 166.822 170.616 167.651 169.932 168.248C169.249 168.84 168.34 169.137 167.205 169.137C166.412 169.137 165.712 168.95 165.106 168.576C164.505 168.198 164.04 167.662 163.712 166.97C163.384 166.277 163.213 165.473 163.199 164.557V163.627C163.199 162.688 163.365 161.861 163.698 161.146C164.031 160.43 164.507 159.879 165.127 159.491C165.751 159.104 166.471 158.91 167.287 158.91C168.385 158.91 169.269 159.209 169.939 159.806C170.609 160.403 170.999 161.246 171.108 162.335H169.386C169.304 161.619 169.094 161.104 168.757 160.79C168.424 160.471 167.934 160.312 167.287 160.312C166.535 160.312 165.956 160.587 165.551 161.139C165.15 161.686 164.944 162.49 164.935 163.552V164.434C164.935 165.509 165.127 166.329 165.51 166.895C165.897 167.46 166.462 167.742 167.205 167.742C167.884 167.742 168.394 167.59 168.736 167.284C169.078 166.979 169.294 166.471 169.386 165.76H171.108ZM186.203 164.283C186.203 165.258 186.035 166.115 185.697 166.854C185.36 167.587 184.877 168.152 184.248 168.549C183.624 168.941 182.904 169.137 182.088 169.137C181.281 169.137 180.561 168.941 179.928 168.549C179.299 168.152 178.811 167.59 178.465 166.86C178.123 166.131 177.95 165.29 177.946 164.338V163.777C177.946 162.807 178.116 161.95 178.458 161.207C178.805 160.464 179.29 159.897 179.914 159.505C180.543 159.108 181.263 158.91 182.074 158.91C182.886 158.91 183.603 159.106 184.228 159.498C184.857 159.885 185.342 160.446 185.684 161.18C186.026 161.909 186.199 162.759 186.203 163.729V164.283ZM184.474 163.764C184.474 162.661 184.264 161.815 183.845 161.228C183.43 160.64 182.84 160.346 182.074 160.346C181.327 160.346 180.741 160.64 180.318 161.228C179.898 161.811 179.684 162.638 179.675 163.709V164.283C179.675 165.377 179.887 166.222 180.311 166.819C180.739 167.416 181.332 167.715 182.088 167.715C182.854 167.715 183.442 167.423 183.852 166.84C184.266 166.257 184.474 165.404 184.474 164.283V163.764ZM193.526 169V159.047H196.465C197.345 159.047 198.124 159.243 198.803 159.635C199.487 160.027 200.016 160.583 200.389 161.303C200.763 162.023 200.95 162.848 200.95 163.777V164.276C200.95 165.22 200.761 166.049 200.382 166.765C200.009 167.48 199.473 168.032 198.776 168.419C198.083 168.806 197.288 169 196.39 169H193.526ZM195.255 160.441V167.619H196.383C197.29 167.619 197.985 167.337 198.468 166.771C198.956 166.202 199.204 165.386 199.213 164.324V163.771C199.213 162.69 198.979 161.866 198.509 161.296C198.04 160.726 197.359 160.441 196.465 160.441H195.255ZM214.09 164.557H210.002V167.619H214.78V169H208.272V159.047H214.732V160.441H210.002V163.189H214.09V164.557Z" fill="#424242"/>
<path d="M148.729 66.0712V61.5761C148.741 59.5422 147.929 57.5865 146.481 56.1603C145.081 54.7642 143.248 54 141.307 54C141.277 54 141.241 54 141.211 54C137.07 54.006 133.704 57.3999 133.704 61.5761V66.0712C132.142 66.2578 131 67.5696 131 69.1582V79.2557C131 80.9707 132.37 82.3848 134.083 82.3848H148.356C150.069 82.3848 151.439 80.9707 151.439 79.2557V69.1582C151.433 67.5756 150.291 66.2578 148.729 66.0712ZM134.9 61.5761H134.906C134.906 58.0618 137.737 55.1855 141.217 55.1855H141.223C142.875 55.1794 144.462 55.8354 145.634 57.0028C146.854 58.2123 147.533 59.8611 147.521 61.5761V66.0772H146.199V61.5761C146.211 60.2101 145.67 58.8983 144.702 57.9355C143.789 57.0208 142.551 56.5033 141.259 56.5033H141.223C138.458 56.5033 136.222 58.7779 136.222 61.5701V66.0772H134.9V61.5761ZM145.003 61.5761V66.0772H137.43V61.5761C137.43 59.4459 139.125 57.7128 141.229 57.7128H141.265C142.238 57.7128 143.176 58.104 143.867 58.796C144.6 59.5301 145.015 60.5351 145.003 61.5761ZM150.291 79.2737C150.291 80.3268 149.438 81.1813 148.386 81.1813H134.107C133.055 81.1813 132.202 80.3268 132.202 79.2737V69.1883C132.202 68.1352 133.055 67.2807 134.107 67.2807H148.386C149.438 67.2807 150.291 68.1352 150.291 69.1883V79.2737Z" fill="black"/>
<path d="M143.298 73.8577C143.034 72.925 142.187 72.2871 141.219 72.2871C140.023 72.2871 139.049 73.2559 139.049 74.4595C139.049 75.4283 139.686 76.2768 140.618 76.5415V78.2264C140.618 78.5574 140.888 78.8282 141.219 78.8282C141.549 78.8282 141.82 78.5574 141.82 78.2264V76.5415C142.968 76.2106 143.635 75.007 143.298 73.8577ZM141.219 75.4223C140.684 75.4223 140.251 74.989 140.251 74.4534C140.251 73.9179 140.684 73.4846 141.219 73.4846C141.754 73.4846 142.187 73.9179 142.187 74.4534C142.187 74.989 141.754 75.4223 141.219 75.4223Z" fill="black"/>
<defs>
<filter id="filter0_d" x="0" y="0" width="283" height="259.167" filterUnits="userSpaceOnUse" color-interpolation-filters="sRGB">
<feFlood flood-opacity="0" result="BackgroundImageFix"/>
<feColorMatrix in="SourceAlpha" type="matrix" values="0 0 0 0 0 0 0 0 0 0 0 0 0 0 0 0 0 0 127 0"/>
<feOffset dy="4"/>
<feGaussianBlur stdDeviation="2"/>
<feColorMatrix type="matrix" values="0 0 0 0 0 0 0 0 0 0 0 0 0 0 0 0 0 0 0.25 0"/>
<feBlend mode="normal" in2="BackgroundImageFix" result="effect1_dropShadow"/>
<feBlend mode="normal" in="SourceGraphic" in2="effect1_dropShadow" result="shape"/>
</filter>
</defs>
</svg>
