<svg width="308" height="282" viewBox="0 0 308 282" fill="none" xmlns="http://www.w3.org/2000/svg">
<g filter="url(#filter0_d)">
<rect x="4" width="300" height="274" rx="10" fill="#1F1F1F"/>
</g>
<path d="M100.336 137.617H98.1328V142H96.1562V130.625H100.156C101.469 130.625 102.482 130.919 103.195 131.508C103.909 132.096 104.266 132.948 104.266 134.062C104.266 134.823 104.081 135.461 103.711 135.977C103.346 136.487 102.836 136.88 102.18 137.156L104.734 141.898V142H102.617L100.336 137.617ZM98.1328 136.031H100.164C100.831 136.031 101.352 135.865 101.727 135.531C102.102 135.193 102.289 134.732 102.289 134.148C102.289 133.539 102.115 133.068 101.766 132.734C101.422 132.401 100.906 132.229 100.219 132.219H98.1328V136.031ZM123.029 136.922H118.357V140.422H123.818V142H116.381V130.625H123.763V132.219H118.357V135.359H123.029V136.922ZM141.613 139.07C141.613 138.57 141.436 138.185 141.082 137.914C140.733 137.643 140.1 137.37 139.183 137.094C138.266 136.818 137.537 136.51 136.996 136.172C135.959 135.521 135.441 134.672 135.441 133.625C135.441 132.708 135.813 131.953 136.558 131.359C137.308 130.766 138.279 130.469 139.472 130.469C140.264 130.469 140.97 130.615 141.589 130.906C142.209 131.198 142.696 131.615 143.05 132.156C143.404 132.693 143.582 133.289 143.582 133.945H141.613C141.613 133.352 141.425 132.888 141.05 132.555C140.681 132.216 140.149 132.047 139.457 132.047C138.811 132.047 138.308 132.185 137.949 132.461C137.595 132.737 137.417 133.122 137.417 133.617C137.417 134.034 137.61 134.383 137.996 134.664C138.381 134.94 139.016 135.211 139.902 135.477C140.787 135.737 141.498 136.036 142.035 136.375C142.571 136.708 142.964 137.094 143.214 137.531C143.464 137.964 143.589 138.471 143.589 139.055C143.589 140.003 143.225 140.758 142.496 141.32C141.772 141.878 140.787 142.156 139.542 142.156C138.72 142.156 137.962 142.005 137.269 141.703C136.582 141.396 136.045 140.974 135.66 140.438C135.279 139.901 135.089 139.276 135.089 138.562H137.066C137.066 139.208 137.279 139.708 137.707 140.062C138.134 140.417 138.746 140.594 139.542 140.594C140.23 140.594 140.746 140.456 141.089 140.18C141.438 139.898 141.613 139.529 141.613 139.07ZM157.54 137.773V142H155.564V130.625H159.915C161.186 130.625 162.194 130.956 162.939 131.617C163.689 132.279 164.064 133.154 164.064 134.242C164.064 135.357 163.697 136.224 162.962 136.844C162.233 137.464 161.21 137.773 159.892 137.773H157.54ZM157.54 136.188H159.915C160.618 136.188 161.155 136.023 161.525 135.695C161.894 135.362 162.079 134.883 162.079 134.258C162.079 133.643 161.892 133.154 161.517 132.789C161.142 132.419 160.626 132.229 159.97 132.219H157.54V136.188ZM185.116 136.609C185.116 137.724 184.924 138.703 184.538 139.547C184.153 140.385 183.601 141.031 182.882 141.484C182.168 141.932 181.345 142.156 180.413 142.156C179.491 142.156 178.668 141.932 177.944 141.484C177.226 141.031 176.668 140.388 176.272 139.555C175.882 138.721 175.684 137.76 175.679 136.672V136.031C175.679 134.922 175.874 133.943 176.265 133.094C176.661 132.245 177.215 131.596 177.929 131.148C178.647 130.695 179.47 130.469 180.397 130.469C181.325 130.469 182.145 130.693 182.858 131.141C183.577 131.583 184.132 132.224 184.522 133.062C184.913 133.896 185.111 134.867 185.116 135.977V136.609ZM183.14 136.016C183.14 134.755 182.9 133.789 182.421 133.117C181.947 132.445 181.272 132.109 180.397 132.109C179.543 132.109 178.874 132.445 178.39 133.117C177.911 133.784 177.666 134.729 177.655 135.953V136.609C177.655 137.859 177.897 138.826 178.382 139.508C178.871 140.19 179.549 140.531 180.413 140.531C181.288 140.531 181.96 140.198 182.429 139.531C182.903 138.865 183.14 137.891 183.14 136.609V136.016ZM206.348 142H204.372L199.302 133.93V142H197.325V130.625H199.302L204.387 138.727V130.625H206.348V142ZM102.102 161.07C102.102 160.57 101.924 160.185 101.57 159.914C101.221 159.643 100.589 159.37 99.6719 159.094C98.7552 158.818 98.026 158.51 97.4844 158.172C96.4479 157.521 95.9297 156.672 95.9297 155.625C95.9297 154.708 96.3021 153.953 97.0469 153.359C97.7969 152.766 98.7682 152.469 99.9609 152.469C100.753 152.469 101.458 152.615 102.078 152.906C102.698 153.198 103.185 153.615 103.539 154.156C103.893 154.693 104.07 155.289 104.07 155.945H102.102C102.102 155.352 101.914 154.888 101.539 154.555C101.169 154.216 100.638 154.047 99.9453 154.047C99.2995 154.047 98.7969 154.185 98.4375 154.461C98.0833 154.737 97.9062 155.122 97.9062 155.617C97.9062 156.034 98.099 156.383 98.4844 156.664C98.8698 156.94 99.5052 157.211 100.391 157.477C101.276 157.737 101.987 158.036 102.523 158.375C103.06 158.708 103.453 159.094 103.703 159.531C103.953 159.964 104.078 160.471 104.078 161.055C104.078 162.003 103.714 162.758 102.984 163.32C102.26 163.878 101.276 164.156 100.031 164.156C99.2083 164.156 98.4505 164.005 97.7578 163.703C97.0703 163.396 96.5339 162.974 96.1484 162.438C95.7682 161.901 95.5781 161.276 95.5781 160.562H97.5547C97.5547 161.208 97.7682 161.708 98.1953 162.062C98.6224 162.417 99.2344 162.594 100.031 162.594C100.719 162.594 101.234 162.456 101.578 162.18C101.927 161.898 102.102 161.529 102.102 161.07ZM118.138 164H116.17V152.625H118.138V164ZM134.816 161.523L137.707 152.625H139.878L135.785 164H133.871L129.792 152.625H131.957L134.816 161.523ZM158.056 158.922H153.384V162.422H158.845V164H151.408V152.625H158.79V154.219H153.384V157.359H158.056V158.922ZM105.078 183.188L106.828 174.625H108.789L106.164 186H104.273L102.109 177.695L99.8984 186H98L95.375 174.625H97.3359L99.1016 183.172L101.273 174.625H102.93L105.078 183.188ZM127.123 180.922H122.451V184.422H127.912V186H120.474V174.625H127.857V176.219H122.451V179.359H127.123V180.922ZM139.761 186V174.625H143.66C144.946 174.625 145.925 174.883 146.597 175.398C147.269 175.914 147.605 176.682 147.605 177.703C147.605 178.224 147.464 178.693 147.183 179.109C146.902 179.526 146.49 179.849 145.949 180.078C146.563 180.245 147.037 180.56 147.371 181.023C147.709 181.482 147.878 182.034 147.878 182.68C147.878 183.747 147.535 184.568 146.847 185.141C146.165 185.714 145.186 186 143.91 186H139.761ZM141.738 180.867V184.422H143.933C144.553 184.422 145.037 184.268 145.386 183.961C145.735 183.654 145.91 183.227 145.91 182.68C145.91 181.497 145.306 180.893 144.097 180.867H141.738ZM141.738 179.414H143.675C144.29 179.414 144.769 179.276 145.113 179C145.462 178.719 145.636 178.323 145.636 177.812C145.636 177.25 145.475 176.844 145.152 176.594C144.834 176.344 144.337 176.219 143.66 176.219H141.738V179.414ZM96.1562 208V196.625H99.5156C100.521 196.625 101.411 196.849 102.188 197.297C102.969 197.745 103.573 198.38 104 199.203C104.427 200.026 104.641 200.969 104.641 202.031V202.602C104.641 203.68 104.424 204.628 103.992 205.445C103.565 206.263 102.953 206.893 102.156 207.336C101.365 207.779 100.456 208 99.4297 208H96.1562ZM98.1328 198.219V206.422H99.4219C100.458 206.422 101.253 206.099 101.805 205.453C102.362 204.802 102.646 203.87 102.656 202.656V202.023C102.656 200.789 102.388 199.846 101.852 199.195C101.315 198.544 100.536 198.219 99.5156 198.219H98.1328ZM123.498 202.922H118.826V206.422H124.287V208H116.849V196.625H124.232V198.219H118.826V201.359H123.498V202.922ZM142.082 205.07C142.082 204.57 141.904 204.185 141.55 203.914C141.201 203.643 140.569 203.37 139.652 203.094C138.735 202.818 138.006 202.51 137.464 202.172C136.428 201.521 135.91 200.672 135.91 199.625C135.91 198.708 136.282 197.953 137.027 197.359C137.777 196.766 138.748 196.469 139.941 196.469C140.733 196.469 141.438 196.615 142.058 196.906C142.678 197.198 143.165 197.615 143.519 198.156C143.873 198.693 144.05 199.289 144.05 199.945H142.082C142.082 199.352 141.894 198.888 141.519 198.555C141.149 198.216 140.618 198.047 139.925 198.047C139.279 198.047 138.777 198.185 138.417 198.461C138.063 198.737 137.886 199.122 137.886 199.617C137.886 200.034 138.079 200.383 138.464 200.664C138.85 200.94 139.485 201.211 140.371 201.477C141.256 201.737 141.967 202.036 142.503 202.375C143.04 202.708 143.433 203.094 143.683 203.531C143.933 203.964 144.058 204.471 144.058 205.055C144.058 206.003 143.694 206.758 142.964 207.32C142.24 207.878 141.256 208.156 140.011 208.156C139.188 208.156 138.431 208.005 137.738 207.703C137.05 207.396 136.514 206.974 136.128 206.438C135.748 205.901 135.558 205.276 135.558 204.562H137.535C137.535 205.208 137.748 205.708 138.175 206.062C138.602 206.417 139.214 206.594 140.011 206.594C140.699 206.594 141.214 206.456 141.558 206.18C141.907 205.898 142.082 205.529 142.082 205.07ZM158.118 208H156.15V196.625H158.118V208ZM179.507 206.523C179.095 207.06 178.525 207.466 177.796 207.742C177.067 208.018 176.239 208.156 175.312 208.156C174.358 208.156 173.515 207.94 172.78 207.508C172.046 207.076 171.478 206.458 171.077 205.656C170.681 204.849 170.476 203.909 170.46 202.836V201.945C170.46 200.227 170.871 198.885 171.694 197.922C172.517 196.953 173.666 196.469 175.14 196.469C176.405 196.469 177.411 196.781 178.155 197.406C178.9 198.031 179.348 198.932 179.499 200.109H177.562C177.343 198.74 176.549 198.055 175.179 198.055C174.293 198.055 173.619 198.375 173.155 199.016C172.697 199.651 172.46 200.586 172.444 201.82V202.695C172.444 203.924 172.702 204.88 173.218 205.562C173.739 206.24 174.46 206.578 175.382 206.578C176.392 206.578 177.111 206.349 177.538 205.891V203.664H175.194V202.164H179.507V206.523ZM200.942 208H198.966L193.895 199.93V208H191.919V196.625H193.895L198.981 204.727V196.625H200.942V208Z" fill="white"/>
<path d="M104.789 99.7422H101.375V109H98.6328V99.7422H95.2812V97.625H104.789V99.7422ZM110.18 104.984H108.695V109H105.953V97.625H110.43C111.779 97.625 112.833 97.9245 113.594 98.5234C114.354 99.1224 114.734 99.9688 114.734 101.062C114.734 101.854 114.573 102.51 114.25 103.031C113.932 103.552 113.432 103.974 112.75 104.297L115.125 108.883V109H112.188L110.18 104.984ZM108.695 102.867H110.43C110.951 102.867 111.341 102.732 111.602 102.461C111.867 102.185 112 101.802 112 101.312C112 100.823 111.867 100.44 111.602 100.164C111.336 99.8828 110.945 99.7422 110.43 99.7422H108.695V102.867ZM122.852 106.875H119.094L118.438 109H115.508L119.68 97.625H122.258L126.461 109H123.516L122.852 106.875ZM119.75 104.758H122.195L120.969 100.812L119.75 104.758ZM133.164 105.977C133.164 105.576 133.021 105.263 132.734 105.039C132.453 104.815 131.956 104.583 131.242 104.344C130.529 104.104 129.945 103.872 129.492 103.648C128.018 102.924 127.281 101.93 127.281 100.664C127.281 100.034 127.464 99.4792 127.828 99C128.198 98.5156 128.719 98.1406 129.391 97.875C130.062 97.6042 130.818 97.4688 131.656 97.4688C132.474 97.4688 133.206 97.6146 133.852 97.9062C134.503 98.1979 135.008 98.6146 135.367 99.1562C135.727 99.6927 135.906 100.307 135.906 101H133.172C133.172 100.536 133.029 100.177 132.742 99.9219C132.461 99.6667 132.078 99.5391 131.594 99.5391C131.104 99.5391 130.716 99.6484 130.43 99.8672C130.148 100.081 130.008 100.354 130.008 100.688C130.008 100.979 130.164 101.245 130.477 101.484C130.789 101.719 131.339 101.964 132.125 102.219C132.911 102.469 133.557 102.74 134.062 103.031C135.292 103.74 135.906 104.716 135.906 105.961C135.906 106.956 135.531 107.737 134.781 108.305C134.031 108.872 133.003 109.156 131.695 109.156C130.773 109.156 129.938 108.992 129.188 108.664C128.443 108.331 127.88 107.878 127.5 107.305C127.125 106.727 126.938 106.062 126.938 105.312H129.688C129.688 105.922 129.844 106.372 130.156 106.664C130.474 106.951 130.987 107.094 131.695 107.094C132.148 107.094 132.505 106.997 132.766 106.805C133.031 106.607 133.164 106.331 133.164 105.977ZM146.82 109H144.094V104.25H140.055V109H137.312V97.625H140.055V102.141H144.094V97.625H146.82V109ZM157.258 99.7422H153.844V109H151.102V99.7422H147.75V97.625H157.258V99.7422ZM163.945 106.875H160.188L159.531 109H156.602L160.773 97.625H163.352L167.555 109H164.609L163.945 106.875ZM160.844 104.758H163.289L162.062 100.812L160.844 104.758ZM171.133 106.891H175.906V109H168.391V97.625H171.133V106.891ZM180.93 104.766L179.805 106V109H177.062V97.625H179.805V102.641L180.758 101.195L183.211 97.625H186.602L182.758 102.656L186.602 109H183.352L180.93 104.766Z" fill="white"/>
<path d="M99.7031 64.5938H98.7812V76.8125H99.7031V78.7266H96.1406V62.6719H99.7031V64.5938ZM108.406 71.3516C108.406 72.888 108.06 74.0729 107.367 74.9062C106.68 75.7396 105.708 76.1562 104.453 76.1562C103.188 76.1562 102.208 75.737 101.516 74.8984C100.823 74.0599 100.477 72.8776 100.477 71.3516V69.2734C100.477 67.737 100.82 66.5521 101.508 65.7188C102.201 64.8854 103.177 64.4688 104.438 64.4688C105.698 64.4688 106.674 64.888 107.367 65.7266C108.06 66.5651 108.406 67.75 108.406 69.2812V71.3516ZM105.773 68.9375C105.773 68.1198 105.667 67.5104 105.453 67.1094C105.24 66.7031 104.901 66.5 104.438 66.5C103.984 66.5 103.654 66.6875 103.445 67.0625C103.242 67.4375 103.133 68.0052 103.117 68.7656V71.6719C103.117 72.5208 103.224 73.1432 103.438 73.5391C103.651 73.9297 103.99 74.125 104.453 74.125C104.901 74.125 105.232 73.9349 105.445 73.5547C105.659 73.1693 105.768 72.5677 105.773 71.75V68.9375ZM111.445 73.4453C111.862 73.4453 112.208 73.5703 112.484 73.8203C112.76 74.0651 112.898 74.3802 112.898 74.7656C112.898 75.151 112.76 75.4688 112.484 75.7188C112.208 75.9635 111.862 76.0859 111.445 76.0859C111.023 76.0859 110.674 75.9609 110.398 75.7109C110.128 75.4609 109.992 75.1458 109.992 74.7656C109.992 74.3854 110.128 74.0703 110.398 73.8203C110.674 73.5703 111.023 73.4453 111.445 73.4453ZM120.453 76H117.812V67.5938L115.219 68.3516V66.3516L120.211 64.625H120.453V76ZM123.297 62.6719H126.859V78.7266H123.297V76.8125H124.227V64.5938H123.297V62.6719Z" fill="white"/>
<defs>
<filter id="filter0_d" x="0" y="0" width="308" height="282" filterUnits="userSpaceOnUse" color-interpolation-filters="sRGB">
<feFlood flood-opacity="0" result="BackgroundImageFix"/>
<feColorMatrix in="SourceAlpha" type="matrix" values="0 0 0 0 0 0 0 0 0 0 0 0 0 0 0 0 0 0 127 0"/>
<feOffset dy="4"/>
<feGaussianBlur stdDeviation="2"/>
<feColorMatrix type="matrix" values="0 0 0 0 0 0 0 0 0 0 0 0 0 0 0 0 0 0 0.25 0"/>
<feBlend mode="normal" in2="BackgroundImageFix" result="effect1_dropShadow"/>
<feBlend mode="normal" in="SourceGraphic" in2="effect1_dropShadow" result="shape"/>
</filter>
</defs>
</svg>
