<svg width="186" height="36" viewBox="0 0 186 36" fill="none" xmlns="http://www.w3.org/2000/svg">
<path d="M21.6813 6.64233C21.6483 6.40813 21.4578 6.21758 21.2235 6.18456C19.7348 5.97498 18.1154 6.48027 16.9101 7.68559C15.7047 8.89092 15.1994 10.5104 15.409 11.999C15.442 12.2332 15.6325 12.4238 15.8668 12.4568C17.3555 12.6664 18.9749 12.1611 20.1802 10.9557C21.3855 9.75049 21.8908 8.13106 21.6813 6.64233Z" fill="#B4E66E"/>
<path d="M21.6811 6.64172C21.6646 6.52459 21.6087 6.4185 21.5278 6.3374L15.5624 12.3027C15.6435 12.3838 15.7496 12.4397 15.8668 12.4561C17.3555 12.6658 18.9749 12.1604 20.1802 10.9551C21.3854 9.74988 21.8907 8.13045 21.6811 6.64172Z" fill="#A0D755"/>
<path d="M6.99636 0.0163803C6.71303 0.0433208 6.49107 0.265282 6.46413 0.548612C6.35986 1.64603 6.75369 2.81679 7.63565 3.69876C8.51762 4.58073 9.68838 4.97455 10.7858 4.87028C11.0691 4.84334 11.2911 4.62138 11.318 4.33805C11.4223 3.24063 11.0285 2.06987 10.1465 1.18791C9.26454 0.305938 8.09378 -0.0878828 6.99636 0.0163803Z" fill="#B4E66E"/>
<path d="M7.63565 3.69869C8.51762 4.58065 9.68838 4.97447 10.7858 4.87028C10.9275 4.85685 11.0538 4.79464 11.1481 4.70031L6.6341 0.186279C6.53977 0.280536 6.47756 0.406841 6.46413 0.548541C6.35986 1.64596 6.75369 2.81672 7.63565 3.69869Z" fill="#A0D755"/>
<path d="M1.60079 9.19594C1.37016 9.23505 1.18402 9.42119 1.14491 9.65183C0.76389 11.8999 1.50031 14.3768 3.33037 16.2068C5.16044 18.0368 7.63735 18.7732 9.88538 18.3923C10.116 18.3532 10.3021 18.167 10.3413 17.9364C10.7223 15.6883 9.98586 13.2114 8.1558 11.3814C6.32573 9.55141 3.84889 8.81492 1.60079 9.19594Z" fill="#B4E66E"/>
<path d="M3.3303 16.2076C5.1603 18.0376 7.63728 18.774 9.88538 18.393C10.0007 18.3735 10.1048 18.3172 10.1852 18.2369L1.30102 9.35278C1.22076 9.43304 1.1645 9.53724 1.14491 9.65256C0.76389 11.9006 1.50031 14.3776 3.3303 16.2076Z" fill="#A0D755"/>
<path d="M23.977 35.2586C23.0991 33.2509 21.0979 31.8464 18.7665 31.8464C18.6171 31.8464 18.4696 31.8539 18.3237 31.867C18.0318 31.893 17.7476 31.7996 17.5135 31.6234C16.2781 30.694 14.7446 30.1404 13.0796 30.1404C11.4147 30.1404 9.88115 30.694 8.64587 31.6234C8.41174 31.7996 8.12757 31.8931 7.8357 31.867C7.68973 31.8539 7.54222 31.8464 7.39283 31.8464C5.06139 31.8464 3.06017 33.2509 2.18233 35.2586H23.977Z" fill="#9B735A"/>
<path d="M18.0311 9.83387C17.8089 9.6117 17.4491 9.6117 17.2269 9.83387L14.0081 13.0539C13.88 13.1821 13.7608 13.3168 13.6482 13.4557V9.09857C13.6482 7.42805 12.9973 5.85697 11.816 4.67516L9.25697 2.11609C9.0348 1.89392 8.67499 1.89392 8.45282 2.11609C8.23065 2.33826 8.23065 2.69808 8.45282 2.92025L11.0119 5.47931C11.9782 6.44616 12.5108 7.73182 12.5108 9.09857V20.0251C12.2188 19.5623 11.8792 19.1255 11.4829 18.7291L6.61296 13.8591C6.39079 13.637 6.03098 13.637 5.8088 13.8591C5.58663 14.0813 5.58663 14.4411 5.8088 14.6633L10.6787 19.5332C11.86 20.715 12.5109 22.2861 12.5109 23.9566V30.7087H13.6483V16.672C13.6483 15.6096 14.062 14.61 14.8129 13.858L18.0312 10.638C18.2532 10.4159 18.2532 10.056 18.0311 9.83387Z" fill="#87BE4B"/>
<path d="M14.3074 30.2428C13.9082 30.1756 13.4982 30.1404 13.0797 30.1404C11.4147 30.1404 9.88122 30.694 8.64588 31.6234C8.41174 31.7996 8.12757 31.893 7.8357 31.8669C7.68973 31.8539 7.54223 31.8464 7.39283 31.8464C5.06139 31.8464 3.06017 33.2508 2.18233 35.2585H9.59474C10.3948 32.9985 12.1118 31.172 14.3074 30.2428Z" fill="#8C5F50"/>
<path d="M25.591 35.8266H0.568689C0.25436 35.8266 0 35.5722 0 35.2579C0 34.9436 0.25436 34.6892 0.568689 34.6892H25.5909C25.9053 34.6892 26.1596 34.9436 26.1596 35.2579C26.1596 35.5722 25.9053 35.8266 25.591 35.8266Z" fill="#AE8B70"/>
<path d="M93.5005 12.6284C90.814 12.6284 88.6283 14.8141 88.6283 17.5007C88.6283 20.1873 90.814 22.3729 93.5005 22.3729C96.187 22.3729 98.3728 20.1873 98.3728 17.5007C98.3728 14.8141 96.187 12.6284 93.5005 12.6284ZM93.5005 20.3142C91.9491 20.3142 90.687 19.052 90.687 17.5007C90.687 15.9493 91.9491 14.6871 93.5005 14.6871C95.0519 14.6871 96.3141 15.9493 96.3141 17.5007C96.3141 19.052 95.0519 20.3142 93.5005 20.3142Z" fill="#7EAEDB"/>
<path d="M105.874 5.12716C100.059 -0.687565 91.2721 -1.50995 84.614 2.4234C82.5399 0.649216 79.2954 2.11446 79.2954 4.87414C79.2954 5.51254 79.4827 6.10771 79.804 6.60914C75.1364 12.4738 74.6984 20.7476 78.8548 27.081C78.4427 27.6227 78.1975 28.2979 78.1975 29.0295C78.1975 31.6398 81.1387 33.144 83.2514 31.6843C90.0733 36.6136 99.6722 36.0764 105.874 29.8745C112.713 23.036 112.713 11.9666 105.874 5.12716ZM82.5207 3.70755C83.164 3.70755 83.6873 4.23087 83.6873 4.87414C83.6873 5.51742 83.164 6.04074 82.5207 6.04074C81.8775 6.04074 81.3541 5.51742 81.3541 4.87414C81.3541 4.23087 81.8775 3.70755 82.5207 3.70755ZM81.4228 30.1961C80.7795 30.1961 80.2562 29.6728 80.2562 29.0295C80.2562 28.3862 80.7795 27.8629 81.4228 27.8629C82.066 27.8629 82.5894 28.3862 82.5894 29.0295C82.5894 29.6728 82.066 30.1961 81.4228 30.1961ZM93.5005 32.941C90.2168 32.941 87.1177 31.9396 84.4858 30.0378C85.2952 27.5849 83.0255 25.2345 80.5573 25.9231C76.9149 20.3448 77.3026 13.0667 81.4068 7.90098C83.7751 8.77524 86.2138 6.68381 85.6721 4.18921C95.8213 -1.79411 108.941 5.48612 108.941 17.5008C108.941 26.0146 102.014 32.941 93.5005 32.941Z" fill="#7EAEDB"/>
<path d="M105.509 10.9127C105.509 8.52145 102.992 6.9718 100.866 8.01645C98.7649 6.38308 96.1787 5.49146 93.4996 5.49146C86.8778 5.49146 81.4905 10.8787 81.4905 17.5005C81.4905 23.9129 86.5424 29.1674 92.8751 29.4935C93.4262 30.4843 94.4836 31.1565 95.6955 31.1565C97.3744 31.1565 98.7572 29.867 98.9068 28.2264C104.524 25.3937 106.925 18.7665 104.669 13.0815C105.19 12.5082 105.509 11.7469 105.509 10.9127ZM95.6955 29.0978C95.0523 29.0978 94.529 28.5745 94.529 27.9313C94.529 27.288 95.0523 26.7647 95.6955 26.7647C96.3388 26.7647 96.8621 27.288 96.8621 27.9313C96.8621 28.5745 96.3388 29.0978 95.6955 29.0978ZM98.3932 26.1665C96.7731 23.6982 92.9904 24.5305 92.5144 27.4021C87.4885 26.9058 83.5492 22.6547 83.5492 17.5005C83.5492 9.32146 92.8872 4.69556 99.3932 9.48334C98.2288 11.8282 100.231 14.5527 102.849 14.0872C104.5 18.5953 102.679 23.746 98.3932 26.1665ZM102.283 12.0793C101.64 12.0793 101.117 11.556 101.117 10.9127C101.117 10.2694 101.64 9.7461 102.283 9.7461C102.927 9.7461 103.45 10.2694 103.45 10.9127C103.45 11.556 102.927 12.0793 102.283 12.0793Z" fill="#7EAEDB"/>
<path d="M175.898 9.67692C174.777 9.67692 174.353 11.0823 174.335 11.1416C174.208 11.5809 173.804 11.8855 173.348 11.8855H173.34C172.88 11.8825 172.478 11.5779 172.356 11.1346C172.34 11.0824 171.916 9.67692 170.794 9.67692C169.793 9.67692 169.271 10.5535 169.271 11.419C169.271 12.6475 170.38 13.6388 172.691 15.5889C172.902 15.7678 173.121 15.9528 173.346 16.1438C173.567 15.9558 173.782 15.7749 173.991 15.599C176.109 13.806 177.421 12.7038 177.421 11.419C177.422 10.5535 176.899 9.67692 175.898 9.67692ZM173.346 0C166.538 0 161 5.54113 161 12.3529C161 20.8676 172.088 34.0771 172.561 34.6351C172.755 34.8663 173.043 35 173.346 35C173.65 35 173.937 34.8663 174.132 34.6351C174.604 34.0771 185.693 20.8676 185.693 12.3529C185.693 5.54113 180.155 0 173.346 0ZM175.318 17.1723C174.91 17.517 174.476 17.883 174.02 18.2781C173.827 18.4459 173.586 18.5294 173.346 18.5294C173.105 18.5294 172.866 18.4459 172.673 18.2781C172.213 17.88 171.775 17.5101 171.363 17.1623C168.954 15.1286 167.213 13.6579 167.213 11.419C167.213 9.28786 168.787 7.61806 170.794 7.61806C171.926 7.61806 172.761 8.13472 173.346 8.78419C173.931 8.13472 174.767 7.61806 175.898 7.61806C177.906 7.61806 179.479 9.28786 179.479 11.419C179.479 13.7432 177.565 15.2747 175.318 17.1723Z" fill="url(#paint0_linear)"/>
<defs>
<linearGradient id="paint0_linear" x1="173.346" y1="35" x2="173.346" y2="0" gradientUnits="userSpaceOnUse">
<stop stop-color="#4F5DD9"/>
<stop offset="1" stop-color="#FD3A84"/>
</linearGradient>
</defs>
</svg>
