<svg width="308" height="282" viewBox="0 0 308 282" fill="none" xmlns="http://www.w3.org/2000/svg">
<g filter="url(#filter0_d)">
<rect x="4" width="300" height="274" rx="10" fill="#EEF5FF"/>
</g>
<circle cx="109.5" cy="124.5" r="42" stroke="white" stroke-width="3"/>
<path d="M125.016 137V125.625H129C130.38 125.625 131.427 125.891 132.141 126.422C132.854 126.948 133.211 127.721 133.211 128.742C133.211 129.299 133.068 129.792 132.781 130.219C132.495 130.641 132.096 130.951 131.586 131.148C132.169 131.294 132.628 131.589 132.961 132.031C133.299 132.474 133.469 133.016 133.469 133.656C133.469 134.75 133.12 135.578 132.422 136.141C131.724 136.703 130.729 136.99 129.438 137H125.016ZM127.359 132.047V135.117H129.367C129.919 135.117 130.349 134.987 130.656 134.727C130.969 134.461 131.125 134.096 131.125 133.633C131.125 132.591 130.586 132.062 129.508 132.047H127.359ZM127.359 130.391H129.094C130.276 130.37 130.867 129.898 130.867 128.977C130.867 128.461 130.716 128.091 130.414 127.867C130.117 127.638 129.646 127.523 129 127.523H127.359V130.391ZM154.818 131.57C154.818 132.69 154.62 133.672 154.224 134.516C153.829 135.359 153.261 136.01 152.521 136.469C151.787 136.927 150.943 137.156 149.99 137.156C149.047 137.156 148.206 136.93 147.467 136.477C146.727 136.023 146.154 135.378 145.748 134.539C145.342 133.695 145.136 132.727 145.131 131.633V131.07C145.131 129.951 145.331 128.966 145.732 128.117C146.138 127.263 146.709 126.609 147.443 126.156C148.183 125.698 149.026 125.469 149.974 125.469C150.922 125.469 151.763 125.698 152.498 126.156C153.237 126.609 153.808 127.263 154.209 128.117C154.615 128.966 154.818 129.948 154.818 131.062V131.57ZM152.443 131.055C152.443 129.862 152.23 128.956 151.802 128.336C151.375 127.716 150.766 127.406 149.974 127.406C149.188 127.406 148.581 127.714 148.154 128.328C147.727 128.938 147.511 129.833 147.506 131.016V131.57C147.506 132.732 147.719 133.633 148.146 134.273C148.573 134.914 149.188 135.234 149.99 135.234C150.776 135.234 151.381 134.927 151.802 134.312C152.224 133.693 152.438 132.792 152.443 131.609V131.055ZM169.105 135.117H174.082V137H166.761V125.625H169.105V135.117ZM192.626 127.523H189.142V137H186.798V127.523H183.361V125.625H192.626V127.523ZM124.617 159.711C124.617 158.409 124.919 157.365 125.523 156.578C126.128 155.786 126.938 155.391 127.953 155.391C128.849 155.391 129.573 155.703 130.125 156.328V152H132.023V164H130.305L130.211 163.125C129.643 163.812 128.885 164.156 127.938 164.156C126.948 164.156 126.146 163.758 125.531 162.961C124.922 162.164 124.617 161.081 124.617 159.711ZM126.516 159.875C126.516 160.734 126.68 161.406 127.008 161.891C127.341 162.37 127.812 162.609 128.422 162.609C129.198 162.609 129.766 162.263 130.125 161.57V157.961C129.776 157.284 129.214 156.945 128.438 156.945C127.823 156.945 127.349 157.19 127.016 157.68C126.682 158.164 126.516 158.896 126.516 159.875ZM147.967 164.156C146.763 164.156 145.787 163.779 145.037 163.023C144.292 162.263 143.92 161.253 143.92 159.992V159.758C143.92 158.914 144.081 158.161 144.404 157.5C144.732 156.833 145.191 156.315 145.779 155.945C146.368 155.576 147.024 155.391 147.748 155.391C148.899 155.391 149.787 155.758 150.412 156.492C151.042 157.227 151.357 158.266 151.357 159.609V160.375H145.834C145.891 161.073 146.123 161.625 146.529 162.031C146.941 162.438 147.456 162.641 148.076 162.641C148.946 162.641 149.654 162.289 150.201 161.586L151.224 162.562C150.886 163.068 150.433 163.461 149.865 163.742C149.302 164.018 148.67 164.156 147.967 164.156ZM147.74 156.914C147.219 156.914 146.797 157.096 146.474 157.461C146.157 157.826 145.954 158.333 145.865 158.984H149.482V158.844C149.441 158.208 149.271 157.729 148.974 157.406C148.677 157.078 148.266 156.914 147.74 156.914ZM167.816 161.703C167.816 161.365 167.675 161.107 167.394 160.93C167.118 160.753 166.657 160.596 166.011 160.461C165.365 160.326 164.826 160.154 164.394 159.945C163.446 159.487 162.972 158.823 162.972 157.953C162.972 157.224 163.279 156.615 163.894 156.125C164.509 155.635 165.29 155.391 166.238 155.391C167.248 155.391 168.063 155.641 168.683 156.141C169.308 156.641 169.621 157.289 169.621 158.086H167.722C167.722 157.721 167.587 157.419 167.316 157.18C167.045 156.935 166.686 156.812 166.238 156.812C165.821 156.812 165.48 156.909 165.214 157.102C164.954 157.294 164.824 157.552 164.824 157.875C164.824 158.167 164.946 158.393 165.191 158.555C165.436 158.716 165.931 158.88 166.675 159.047C167.42 159.208 168.003 159.404 168.425 159.633C168.852 159.857 169.167 160.128 169.371 160.445C169.579 160.763 169.683 161.148 169.683 161.602C169.683 162.362 169.368 162.979 168.738 163.453C168.108 163.922 167.282 164.156 166.261 164.156C165.569 164.156 164.951 164.031 164.41 163.781C163.868 163.531 163.446 163.188 163.144 162.75C162.842 162.312 162.691 161.841 162.691 161.336H164.535C164.561 161.784 164.73 162.13 165.042 162.375C165.355 162.615 165.769 162.734 166.285 162.734C166.785 162.734 167.165 162.641 167.425 162.453C167.686 162.26 167.816 162.01 167.816 161.703ZM183.603 164H181.704V155.547H183.603V164ZM181.587 153.352C181.587 153.06 181.678 152.818 181.861 152.625C182.048 152.432 182.314 152.336 182.658 152.336C183.001 152.336 183.267 152.432 183.454 152.625C183.642 152.818 183.736 153.06 183.736 153.352C183.736 153.638 183.642 153.878 183.454 154.07C183.267 154.258 183.001 154.352 182.658 154.352C182.314 154.352 182.048 154.258 181.861 154.07C181.678 153.878 181.587 153.638 181.587 153.352ZM195.585 159.711C195.585 158.398 195.892 157.352 196.507 156.57C197.127 155.784 197.947 155.391 198.968 155.391C199.931 155.391 200.689 155.727 201.241 156.398L201.327 155.547H203.038V163.742C203.038 164.852 202.692 165.727 201.999 166.367C201.312 167.008 200.382 167.328 199.21 167.328C198.59 167.328 197.983 167.198 197.39 166.938C196.801 166.682 196.353 166.346 196.046 165.93L196.944 164.789C197.528 165.482 198.246 165.828 199.101 165.828C199.731 165.828 200.228 165.656 200.593 165.312C200.957 164.974 201.14 164.474 201.14 163.812V163.242C200.593 163.852 199.864 164.156 198.952 164.156C197.963 164.156 197.153 163.763 196.522 162.977C195.897 162.19 195.585 161.102 195.585 159.711ZM197.476 159.875C197.476 160.724 197.647 161.393 197.991 161.883C198.34 162.367 198.822 162.609 199.437 162.609C200.202 162.609 200.77 162.281 201.14 161.625V157.906C200.78 157.266 200.218 156.945 199.452 156.945C198.827 156.945 198.34 157.193 197.991 157.688C197.647 158.182 197.476 158.911 197.476 159.875ZM216.997 155.547L217.052 156.523C217.677 155.768 218.497 155.391 219.512 155.391C221.273 155.391 222.169 156.398 222.2 158.414V164H220.302V158.523C220.302 157.987 220.184 157.591 219.95 157.336C219.721 157.076 219.343 156.945 218.817 156.945C218.052 156.945 217.481 157.292 217.106 157.984V164H215.208V155.547H216.997ZM129.711 183.703C129.711 183.365 129.57 183.107 129.289 182.93C129.013 182.753 128.552 182.596 127.906 182.461C127.26 182.326 126.721 182.154 126.289 181.945C125.341 181.487 124.867 180.823 124.867 179.953C124.867 179.224 125.174 178.615 125.789 178.125C126.404 177.635 127.185 177.391 128.133 177.391C129.143 177.391 129.958 177.641 130.578 178.141C131.203 178.641 131.516 179.289 131.516 180.086H129.617C129.617 179.721 129.482 179.419 129.211 179.18C128.94 178.935 128.581 178.812 128.133 178.812C127.716 178.812 127.375 178.909 127.109 179.102C126.849 179.294 126.719 179.552 126.719 179.875C126.719 180.167 126.841 180.393 127.086 180.555C127.331 180.716 127.826 180.88 128.57 181.047C129.315 181.208 129.898 181.404 130.32 181.633C130.747 181.857 131.062 182.128 131.266 182.445C131.474 182.763 131.578 183.148 131.578 183.602C131.578 184.362 131.263 184.979 130.633 185.453C130.003 185.922 129.177 186.156 128.156 186.156C127.464 186.156 126.846 186.031 126.305 185.781C125.763 185.531 125.341 185.188 125.039 184.75C124.737 184.312 124.586 183.841 124.586 183.336H126.43C126.456 183.784 126.625 184.13 126.938 184.375C127.25 184.615 127.664 184.734 128.18 184.734C128.68 184.734 129.06 184.641 129.32 184.453C129.581 184.26 129.711 184.01 129.711 183.703ZM146.435 183.281L148.154 177.547H150.177L146.818 187.281C146.302 188.703 145.427 189.414 144.193 189.414C143.917 189.414 143.612 189.367 143.279 189.273V187.805L143.638 187.828C144.118 187.828 144.477 187.74 144.717 187.562C144.961 187.391 145.154 187.099 145.295 186.688L145.568 185.961L142.599 177.547H144.646L146.435 183.281ZM166.253 183.703C166.253 183.365 166.113 183.107 165.832 182.93C165.556 182.753 165.095 182.596 164.449 182.461C163.803 182.326 163.264 182.154 162.832 181.945C161.884 181.487 161.41 180.823 161.41 179.953C161.41 179.224 161.717 178.615 162.332 178.125C162.946 177.635 163.727 177.391 164.675 177.391C165.686 177.391 166.501 177.641 167.121 178.141C167.746 178.641 168.058 179.289 168.058 180.086H166.16C166.16 179.721 166.024 179.419 165.753 179.18C165.483 178.935 165.123 178.812 164.675 178.812C164.259 178.812 163.917 178.909 163.652 179.102C163.391 179.294 163.261 179.552 163.261 179.875C163.261 180.167 163.384 180.393 163.628 180.555C163.873 180.716 164.368 180.88 165.113 181.047C165.858 181.208 166.441 181.404 166.863 181.633C167.29 181.857 167.605 182.128 167.808 182.445C168.016 182.763 168.121 183.148 168.121 183.602C168.121 184.362 167.806 184.979 167.175 185.453C166.545 185.922 165.72 186.156 164.699 186.156C164.006 186.156 163.389 186.031 162.847 185.781C162.306 185.531 161.884 185.188 161.582 184.75C161.279 184.312 161.128 183.841 161.128 183.336H162.972C162.998 183.784 163.167 184.13 163.48 184.375C163.792 184.615 164.207 184.734 164.722 184.734C165.222 184.734 165.602 184.641 165.863 184.453C166.123 184.26 166.253 184.01 166.253 183.703ZM182.4 175.492V177.547H183.892V178.953H182.4V183.672C182.4 183.995 182.462 184.229 182.587 184.375C182.717 184.516 182.947 184.586 183.275 184.586C183.493 184.586 183.715 184.56 183.939 184.508V185.977C183.506 186.096 183.09 186.156 182.689 186.156C181.23 186.156 180.501 185.352 180.501 183.742V178.953H179.111V177.547H180.501V175.492H182.4ZM199.312 186.156C198.108 186.156 197.132 185.779 196.382 185.023C195.637 184.263 195.265 183.253 195.265 181.992V181.758C195.265 180.914 195.426 180.161 195.749 179.5C196.077 178.833 196.536 178.315 197.124 177.945C197.713 177.576 198.369 177.391 199.093 177.391C200.244 177.391 201.132 177.758 201.757 178.492C202.387 179.227 202.702 180.266 202.702 181.609V182.375H197.179C197.236 183.073 197.468 183.625 197.874 184.031C198.286 184.438 198.801 184.641 199.421 184.641C200.291 184.641 200.999 184.289 201.546 183.586L202.569 184.562C202.231 185.068 201.778 185.461 201.21 185.742C200.647 186.018 200.015 186.156 199.312 186.156ZM199.085 178.914C198.564 178.914 198.142 179.096 197.819 179.461C197.502 179.826 197.299 180.333 197.21 180.984H200.827V180.844C200.786 180.208 200.616 179.729 200.319 179.406C200.022 179.078 199.611 178.914 199.085 178.914ZM216.208 177.547L216.262 178.43C216.856 177.737 217.669 177.391 218.7 177.391C219.83 177.391 220.604 177.823 221.02 178.688C221.635 177.823 222.499 177.391 223.614 177.391C224.546 177.391 225.239 177.648 225.692 178.164C226.151 178.68 226.385 179.44 226.395 180.445V186H224.497V180.5C224.497 179.964 224.38 179.57 224.145 179.32C223.911 179.07 223.523 178.945 222.981 178.945C222.549 178.945 222.195 179.062 221.919 179.297C221.648 179.526 221.458 179.828 221.348 180.203L221.356 186H219.458V180.438C219.432 179.443 218.924 178.945 217.934 178.945C217.174 178.945 216.635 179.255 216.317 179.875V186H214.419V177.547H216.208Z" fill="#4F4F4F"/>
<defs>
<filter id="filter0_d" x="0" y="0" width="308" height="282" filterUnits="userSpaceOnUse" color-interpolation-filters="sRGB">
<feFlood flood-opacity="0" result="BackgroundImageFix"/>
<feColorMatrix in="SourceAlpha" type="matrix" values="0 0 0 0 0 0 0 0 0 0 0 0 0 0 0 0 0 0 127 0"/>
<feOffset dy="4"/>
<feGaussianBlur stdDeviation="2"/>
<feColorMatrix type="matrix" values="0 0 0 0 0.779167 0 0 0 0 0.779167 0 0 0 0 0.779167 0 0 0 0.25 0"/>
<feBlend mode="normal" in2="BackgroundImageFix" result="effect1_dropShadow"/>
<feBlend mode="normal" in="SourceGraphic" in2="effect1_dropShadow" result="shape"/>
</filter>
</defs>
</svg>
