<svg width="308" height="282" viewBox="0 0 308 282" fill="none" xmlns="http://www.w3.org/2000/svg">
<g filter="url(#filter0_d)">
<rect x="4" width="300" height="274" rx="10" fill="#EEF5FF"/>
</g>
<path d="M160.494 129.194H153.852V122.551C153.852 113.737 160.997 106.592 169.811 106.592H175.024C175.813 106.592 176.454 107.232 176.454 108.021V113.234C176.454 122.048 169.308 129.194 160.494 129.194V129.194Z" fill="#B3E59F"/>
<path d="M147.209 137.231H153.852V130.588C153.852 121.774 146.707 114.629 137.893 114.629H132.68C131.89 114.629 131.25 115.269 131.25 116.059V121.272C131.25 130.086 138.395 137.231 147.209 137.231Z" fill="#B3E59F"/>
<path d="M151.784 131.024C150.773 129.882 150.879 128.137 152.021 127.126L161.498 118.735C162.64 117.724 164.385 117.83 165.396 118.972C166.407 120.114 166.301 121.859 165.159 122.87L155.682 131.261C154.544 132.269 152.798 132.169 151.784 131.024Z" fill="#78C2A4"/>
<path d="M216.748 129.195H210.105V122.552C210.105 113.738 217.251 106.593 226.065 106.593H231.278C232.067 106.593 232.707 107.233 232.707 108.022V113.235C232.708 122.049 225.562 129.195 216.748 129.195Z" fill="#B3E59F"/>
<path d="M203.463 137.232H210.106V130.589C210.106 121.775 202.961 114.63 194.147 114.63H188.934C188.144 114.63 187.504 115.27 187.504 116.06V121.273C187.504 130.087 194.649 137.232 203.463 137.232Z" fill="#B3E59F"/>
<path d="M208.034 131.024C207.023 129.882 207.129 128.137 208.271 127.126L217.748 118.735C218.89 117.724 220.636 117.83 221.646 118.972C222.658 120.114 222.551 121.859 221.409 122.87L211.932 131.261C210.794 132.269 209.048 132.169 208.034 131.024V131.024Z" fill="#78C2A4"/>
<path d="M104.244 129.194H97.6016V122.551C97.6016 113.737 104.747 106.592 113.561 106.592H118.774C119.563 106.592 120.204 107.232 120.204 108.021V113.234C120.204 122.048 113.058 129.194 104.244 129.194Z" fill="#B3E59F"/>
<path d="M90.9596 137.231H97.6024V130.588C97.6024 121.774 90.4571 114.629 81.6427 114.629H76.4297C75.6401 114.629 75 115.269 75 116.059V121.272C75 130.086 82.1452 137.231 90.9596 137.231V137.231Z" fill="#B3E59F"/>
<path d="M97.6052 149.701C96.0801 149.701 94.8438 148.464 94.8438 146.939V129.104C94.8438 127.579 96.0801 126.343 97.6052 126.343C99.1303 126.343 100.367 127.579 100.367 129.104V146.939C100.367 148.465 99.1303 149.701 97.6052 149.701Z" fill="#78C2A4"/>
<path d="M95.5339 131.024C94.5227 129.882 94.6289 128.137 95.7709 127.126L105.248 118.735C106.39 117.724 108.136 117.83 109.146 118.972C110.157 120.114 110.051 121.859 108.909 122.87L99.4323 131.261C98.2943 132.269 96.5483 132.169 95.5339 131.024V131.024Z" fill="#78C2A4"/>
<path d="M95.651 139.184L86.1411 129.674C85.0624 128.596 85.0624 126.847 86.1411 125.768C87.2194 124.69 88.9683 124.69 90.0466 125.768L99.5566 135.278C100.635 136.357 100.635 138.105 99.5566 139.184C98.4782 140.263 96.7294 140.262 95.651 139.184V139.184Z" fill="#78C2A4"/>
<path d="M208.151 139.184L198.641 129.674C197.562 128.596 197.562 126.847 198.641 125.769C199.719 124.69 201.468 124.691 202.547 125.769L212.057 135.278C213.136 136.357 213.136 138.105 212.057 139.184C210.978 140.262 209.23 140.262 208.151 139.184Z" fill="#78C2A4"/>
<path d="M153.851 149.699C152.326 149.699 151.09 148.462 151.09 146.937V129.102C151.09 127.577 152.326 126.341 153.851 126.341C155.376 126.341 156.613 127.577 156.613 129.102V146.937C156.613 148.463 155.376 149.699 153.851 149.699Z" fill="#78C2A4"/>
<path d="M151.901 139.184L142.391 129.674C141.312 128.596 141.312 126.847 142.391 125.769C143.469 124.69 145.218 124.691 146.296 125.769L155.807 135.278C156.885 136.357 156.885 138.105 155.807 139.184C154.728 140.262 152.98 140.262 151.901 139.184V139.184Z" fill="#78C2A4"/>
<path d="M210.101 149.698C208.576 149.698 207.34 148.462 207.34 146.937V129.193C207.34 127.668 208.576 126.432 210.101 126.432C211.626 126.432 212.863 127.668 212.863 129.193V146.937C212.863 148.462 211.626 149.698 210.101 149.698Z" fill="#78C2A4"/>
<path d="M93.358 87.9972C92.5134 87.9972 91.8529 87.2687 91.9323 86.4277C92.7032 78.2452 99.2301 70.4563 102.309 63.3564C104.154 59.1002 101.102 55.0921 103.81 51.3949C112.636 39.3487 125.706 30.6075 140.817 27.3732C145.021 26.4736 149.382 31.3613 153.855 31.3613C184.509 31.3613 209.967 48.2471 214.963 77.4764C215.467 80.4273 215.763 83.449 215.835 86.5264C215.854 87.3316 215.209 87.9972 214.404 87.9972H93.358Z" fill="#9DC6FB"/>
<path d="M142.808 31.5233C175.186 31.5233 201.763 56.3452 204.558 87.9975H214.404C215.211 87.9975 215.853 87.3302 215.835 86.5238C215.052 52.9643 187.602 26 153.854 26C141.691 26 130.347 29.506 120.773 35.5582C127.621 32.9537 135.047 31.5233 142.808 31.5233V31.5233Z" fill="#80B4FB"/>
<path d="M214.946 77.4806C209.949 48.2527 184.508 31.3623 153.856 31.3623C149.383 31.3623 145.025 26.4853 140.82 27.3852C142.057 32.3649 143.319 38.213 144.455 45.1134C146.314 56.3983 147.092 65.9669 152.469 67.6986C157.707 69.3853 161.963 61.9177 169.227 63.3273C175.321 64.5101 176.174 70.5144 181.612 74.9843C188.987 81.0473 202.863 82.6954 214.946 77.4806V77.4806Z" fill="#B3E59F"/>
<path d="M203.413 80.4247C207.265 80.0559 211.192 79.0994 214.946 77.4789C208.839 42.8203 175.607 20.0224 140.82 27.3839C141.148 28.7045 141.478 30.0881 141.807 31.5343C171.717 30.9885 197.431 52.1626 203.413 80.4247V80.4247Z" fill="#95D6A4"/>
<path d="M117.602 67.4138C115.658 61.1389 110.325 55.299 103.821 51.4023C96.4072 61.4845 92.1724 73.8828 91.8754 86.5256C91.8565 87.3316 92.5002 87.9978 93.3065 87.9978H118.096C117.216 78.0282 119.589 73.8246 117.602 67.4138V67.4138Z" fill="#B3E59F"/>
<path d="M214.405 147.005C215.211 147.005 215.855 147.67 215.836 148.476C215.479 163.824 209.543 177.794 199.979 188.435C188.63 201.062 172.17 203.641 153.856 203.641C146.473 203.641 139.391 207.712 132.824 205.344C123.612 202.022 115.412 196.58 108.814 189.607C105.118 185.7 107.287 181.314 104.7 176.55C100.159 168.189 92.6276 158.667 91.9138 148.543C91.8552 147.713 92.5089 147.005 93.3414 147.005H214.405Z" fill="#9DC6FB"/>
<path d="M204.558 147.004C201.763 178.656 175.187 203.478 142.808 203.478C135.047 203.478 127.621 202.048 120.773 199.443C124.536 201.822 128.572 203.807 132.823 205.341C139.39 207.71 146.471 203.64 153.855 203.64C172.169 203.64 188.628 201.061 199.977 188.434C209.542 177.793 215.478 163.823 215.835 148.475C215.854 147.669 215.209 147.004 214.404 147.004H204.558Z" fill="#80B4FB"/>
<path d="M94.0582 163.415C96.7871 173.364 101.935 182.312 108.826 189.595C116.603 184.425 122.177 176.102 122.705 168.637C123.056 163.673 120.885 163.203 118.993 153.328C118.543 150.978 118.262 148.889 118.095 147.005H93.3054C92.5052 147.005 91.8568 147.662 91.8754 148.462C91.8761 148.5 91.8772 148.537 91.8782 148.575C92.003 153.586 92.7321 158.581 94.0582 163.415V163.415Z" fill="#B3E59F"/>
<path d="M132.828 205.338C139.395 207.706 146.474 209.003 153.858 209.003C172.172 209.003 188.626 201.057 199.975 188.43C195.831 182.286 189.58 176.578 186.046 173.353C181.147 168.883 169.469 158.228 162.267 161.679C156.636 164.378 159.387 172.995 154.485 184.162C149.382 195.783 139.773 201.557 132.828 205.338V205.338Z" fill="#B3E59F"/>
<path d="M132.828 205.338C139.395 207.706 146.474 209.003 153.858 209.003C172.172 209.003 188.626 201.057 199.975 188.43C195.831 182.286 189.58 176.578 186.046 173.353C181.147 168.883 169.469 158.228 162.267 161.679C156.636 164.378 159.387 172.995 154.485 184.162C149.382 195.783 139.773 201.557 132.828 205.338V205.338Z" fill="#B3E59F"/>
<path d="M192.088 179.095C179.769 195.5 158.459 205.438 136.636 203.172C136.635 203.173 136.635 203.173 136.634 203.174C135.314 203.962 134.115 204.635 132.828 205.336C132.867 205.351 132.906 205.365 132.945 205.38C139.478 207.72 146.516 209.002 153.854 209.002C172.168 209.002 188.622 201.057 199.971 188.43C197.69 185.057 194.947 181.984 192.088 179.095V179.095Z" fill="#95D6A4"/>
<path d="M219.064 191.245C219.032 191.011 218.841 190.82 218.607 190.787C217.118 190.578 215.499 191.083 214.293 192.288C213.088 193.494 212.583 195.113 212.792 196.602C212.825 196.836 213.016 197.027 213.25 197.06C214.739 197.269 216.358 196.764 217.563 195.559C218.769 194.353 219.274 192.734 219.064 191.245Z" fill="#B4E66E"/>
<path d="M219.064 191.245C219.048 191.128 218.992 191.022 218.911 190.94L212.945 196.906C213.026 196.987 213.132 197.043 213.25 197.059C214.738 197.269 216.358 196.763 217.563 195.558C218.768 194.353 219.274 192.733 219.064 191.245Z" fill="#A0D755"/>
<path d="M204.381 184.619C204.097 184.646 203.875 184.868 203.848 185.151C203.744 186.249 204.138 187.419 205.02 188.301C205.902 189.183 207.073 189.577 208.17 189.473C208.453 189.446 208.675 189.224 208.702 188.941C208.807 187.843 208.413 186.672 207.531 185.79C206.649 184.908 205.478 184.515 204.381 184.619Z" fill="#B4E66E"/>
<path d="M205.02 188.301C205.902 189.183 207.073 189.577 208.17 189.473C208.312 189.46 208.438 189.397 208.532 189.303L204.018 184.789C203.924 184.883 203.862 185.01 203.848 185.151C203.744 186.249 204.138 187.42 205.02 188.301Z" fill="#A0D755"/>
<path d="M198.983 193.799C198.752 193.838 198.566 194.024 198.527 194.255C198.146 196.503 198.883 198.98 200.713 200.81C202.543 202.64 205.02 203.376 207.268 202.995C207.498 202.956 207.684 202.77 207.724 202.539C208.105 200.291 207.368 197.814 205.538 195.984C203.708 194.154 201.231 193.418 198.983 193.799Z" fill="#B4E66E"/>
<path d="M200.713 200.81C202.543 202.64 205.02 203.376 207.268 202.995C207.383 202.976 207.487 202.919 207.567 202.839L198.683 193.955C198.603 194.035 198.547 194.14 198.527 194.255C198.146 196.503 198.883 198.98 200.713 200.81Z" fill="#A0D755"/>
<path d="M221.361 219.861C220.483 217.854 218.482 216.449 216.151 216.449C216.001 216.449 215.854 216.457 215.708 216.47C215.416 216.496 215.132 216.402 214.898 216.226C213.662 215.297 212.129 214.743 210.464 214.743C208.799 214.743 207.265 215.297 206.03 216.226C205.796 216.402 205.512 216.496 205.22 216.47C205.074 216.457 204.926 216.449 204.777 216.449C202.445 216.449 200.444 217.854 199.566 219.861H221.361Z" fill="#9B735A"/>
<path d="M215.412 194.436C215.19 194.214 214.83 194.214 214.608 194.436L211.389 197.656C211.261 197.784 211.142 197.919 211.029 198.058V193.701C211.029 192.03 210.379 190.459 209.197 189.277L206.638 186.718C206.416 186.496 206.056 186.496 205.834 186.718C205.612 186.941 205.612 187.3 205.834 187.523L208.393 190.082C209.36 191.048 209.892 192.334 209.892 193.701V204.627C209.6 204.165 209.26 203.728 208.864 203.331L203.994 198.461C203.772 198.239 203.412 198.239 203.19 198.461C202.968 198.684 202.968 199.043 203.19 199.266L208.06 204.136C209.241 205.317 209.892 206.888 209.892 208.559V215.311H211.03V201.274C211.03 200.212 211.443 199.212 212.194 198.46L215.412 195.24C215.634 195.018 215.634 194.658 215.412 194.436Z" fill="#87BE4B"/>
<path d="M211.692 214.846C211.292 214.778 210.882 214.743 210.464 214.743C208.799 214.743 207.265 215.297 206.03 216.226C205.796 216.402 205.512 216.496 205.22 216.47C205.074 216.457 204.926 216.449 204.777 216.449C202.445 216.449 200.444 217.854 199.566 219.861H206.979C207.779 217.601 209.496 215.775 211.692 214.846Z" fill="#8C5F50"/>
<path d="M222.974 220.429H197.952C197.637 220.429 197.383 220.175 197.383 219.861C197.383 219.546 197.637 219.292 197.952 219.292H222.974C223.288 219.292 223.542 219.546 223.542 219.861C223.542 220.175 223.288 220.429 222.974 220.429Z" fill="#AE8B70"/>
<path fill-rule="evenodd" clip-rule="evenodd" d="M190 150.412C190 147.423 192.472 145 195.519 145H225.481C228.529 145 231 147.422 231 150.412V215.267C231 218.256 228.528 220.679 225.481 220.679H195.519C192.471 220.679 190 218.258 190 215.267V150.412ZM192.365 150.404V215.276C192.365 216.975 193.778 218.363 195.521 218.363H225.479C227.224 218.363 228.635 216.981 228.635 215.276V150.404C228.635 148.704 227.224 147.317 225.484 147.317H219.963C219.532 147.317 218.991 147.614 218.766 147.98L217.214 150.514C216.993 150.875 216.454 151.178 216.019 151.178H204.981C204.543 151.178 204.01 150.881 203.786 150.514L202.234 147.98C202.013 147.62 201.473 147.317 201.037 147.317H195.516C193.782 147.317 192.365 148.699 192.365 150.404Z" fill="white"/>
<path d="M109.443 236.219H105.896V246H103.935V236.219H100.42V234.625H109.443V236.219ZM116.563 241.617H114.36V246H112.383V234.625H116.383C117.696 234.625 118.709 234.919 119.422 235.508C120.136 236.096 120.493 236.948 120.493 238.062C120.493 238.823 120.308 239.461 119.938 239.977C119.573 240.487 119.063 240.88 118.407 241.156L120.961 245.898V246H118.844L116.563 241.617ZM114.36 240.031H116.391C117.058 240.031 117.578 239.865 117.953 239.531C118.328 239.193 118.516 238.732 118.516 238.148C118.516 237.539 118.341 237.068 117.993 236.734C117.649 236.401 117.133 236.229 116.446 236.219H114.36V240.031ZM130.175 243.352H125.768L124.847 246H122.792L127.089 234.625H128.862L133.167 246H131.104L130.175 243.352ZM126.323 241.758H129.62L127.972 237.039L126.323 241.758ZM141.849 243.07C141.849 242.57 141.672 242.185 141.318 241.914C140.969 241.643 140.336 241.37 139.419 241.094C138.503 240.818 137.774 240.51 137.232 240.172C136.195 239.521 135.677 238.672 135.677 237.625C135.677 236.708 136.05 235.953 136.794 235.359C137.544 234.766 138.516 234.469 139.708 234.469C140.5 234.469 141.206 234.615 141.826 234.906C142.445 235.198 142.932 235.615 143.287 236.156C143.641 236.693 143.818 237.289 143.818 237.945H141.849C141.849 237.352 141.662 236.888 141.287 236.555C140.917 236.216 140.386 236.047 139.693 236.047C139.047 236.047 138.544 236.185 138.185 236.461C137.831 236.737 137.654 237.122 137.654 237.617C137.654 238.034 137.846 238.383 138.232 238.664C138.617 238.94 139.253 239.211 140.138 239.477C141.024 239.737 141.734 240.036 142.271 240.375C142.807 240.708 143.201 241.094 143.451 241.531C143.701 241.964 143.826 242.471 143.826 243.055C143.826 244.003 143.461 244.758 142.732 245.32C142.008 245.878 141.024 246.156 139.779 246.156C138.956 246.156 138.198 246.005 137.505 245.703C136.818 245.396 136.281 244.974 135.896 244.438C135.516 243.901 135.326 243.276 135.326 242.562H137.302C137.302 243.208 137.516 243.708 137.943 244.062C138.37 244.417 138.982 244.594 139.779 244.594C140.466 244.594 140.982 244.456 141.326 244.18C141.675 243.898 141.849 243.529 141.849 243.07ZM156.031 246H154.062V240.945H148.977V246H147V234.625H148.977V239.359H154.062V234.625H156.031V246ZM167.799 236.219H164.253V246H162.292V236.219H158.776V234.625H167.799V236.219ZM176.169 243.352H171.763L170.841 246H168.786L173.083 234.625H174.857L179.161 246H177.099L176.169 243.352ZM172.317 241.758H175.614L173.966 237.039L172.317 241.758ZM183.875 244.422H189.039V246H181.898V234.625H183.875V244.422ZM195.26 241.086L193.971 242.453V246H191.994V234.625H193.971V239.961L195.065 238.609L198.393 234.625H200.783L196.557 239.664L201.026 246H198.682L195.26 241.086Z" fill="#4F4F4F"/>
<defs>
<filter id="filter0_d" x="0" y="0" width="308" height="282" filterUnits="userSpaceOnUse" color-interpolation-filters="sRGB">
<feFlood flood-opacity="0" result="BackgroundImageFix"/>
<feColorMatrix in="SourceAlpha" type="matrix" values="0 0 0 0 0 0 0 0 0 0 0 0 0 0 0 0 0 0 127 0"/>
<feOffset dy="4"/>
<feGaussianBlur stdDeviation="2"/>
<feColorMatrix type="matrix" values="0 0 0 0 0.779167 0 0 0 0 0.779167 0 0 0 0 0.779167 0 0 0 0.25 0"/>
<feBlend mode="normal" in2="BackgroundImageFix" result="effect1_dropShadow"/>
<feBlend mode="normal" in="SourceGraphic" in2="effect1_dropShadow" result="shape"/>
</filter>
</defs>
</svg>
