<svg width="283" height="260" viewBox="0 0 283 260" fill="none" xmlns="http://www.w3.org/2000/svg">
<g filter="url(#filter0_d)">
<rect x="4" width="275" height="251.167" rx="5" fill="white"/>
</g>
<path d="M85.3575 140.172C84.8002 140.828 84.0085 141.156 82.9825 141.156C82.0658 141.156 81.3705 140.888 80.8966 140.352C80.4278 139.815 80.1934 139.039 80.1934 138.023V132.547H82.0919V138C82.0919 139.073 82.5372 139.609 83.4278 139.609C84.3497 139.609 84.9721 139.279 85.295 138.617V132.547H87.1934V141H85.4044L85.3575 140.172ZM92.5688 132.547L92.6234 133.523C93.2484 132.768 94.0688 132.391 95.0844 132.391C96.8448 132.391 97.7406 133.398 97.7719 135.414V141H95.8734V135.523C95.8734 134.987 95.7563 134.591 95.5219 134.336C95.2927 134.076 94.9151 133.945 94.3891 133.945C93.6234 133.945 93.0531 134.292 92.6781 134.984V141H90.7797V132.547H92.5688ZM101.038 136.711C101.038 135.409 101.34 134.365 101.944 133.578C102.548 132.786 103.358 132.391 104.374 132.391C105.27 132.391 105.994 132.703 106.546 133.328V129H108.444V141H106.725L106.632 140.125C106.064 140.812 105.306 141.156 104.358 141.156C103.369 141.156 102.566 140.758 101.952 139.961C101.343 139.164 101.038 138.081 101.038 136.711ZM102.936 136.875C102.936 137.734 103.1 138.406 103.428 138.891C103.762 139.37 104.233 139.609 104.843 139.609C105.619 139.609 106.186 139.263 106.546 138.57V134.961C106.197 134.284 105.634 133.945 104.858 133.945C104.244 133.945 103.77 134.19 103.436 134.68C103.103 135.164 102.936 135.896 102.936 136.875ZM115.827 141.156C114.624 141.156 113.647 140.779 112.897 140.023C112.153 139.263 111.78 138.253 111.78 136.992V136.758C111.78 135.914 111.942 135.161 112.265 134.5C112.593 133.833 113.051 133.315 113.64 132.945C114.228 132.576 114.884 132.391 115.608 132.391C116.759 132.391 117.647 132.758 118.272 133.492C118.903 134.227 119.218 135.266 119.218 136.609V137.375H113.694C113.752 138.073 113.983 138.625 114.39 139.031C114.801 139.438 115.317 139.641 115.937 139.641C116.806 139.641 117.515 139.289 118.062 138.586L119.085 139.562C118.746 140.068 118.293 140.461 117.726 140.742C117.163 141.018 116.53 141.156 115.827 141.156ZM115.601 133.914C115.08 133.914 114.658 134.096 114.335 134.461C114.017 134.826 113.814 135.333 113.726 135.984H117.343V135.844C117.301 135.208 117.132 134.729 116.835 134.406C116.538 134.078 116.127 133.914 115.601 133.914ZM126.804 134.281C126.554 134.24 126.296 134.219 126.031 134.219C125.161 134.219 124.575 134.552 124.273 135.219V141H122.374V132.547H124.187L124.234 133.492C124.692 132.758 125.328 132.391 126.14 132.391C126.411 132.391 126.635 132.427 126.812 132.5L126.804 134.281ZM134.422 138.703C134.422 138.365 134.281 138.107 134 137.93C133.724 137.753 133.263 137.596 132.617 137.461C131.971 137.326 131.432 137.154 131 136.945C130.052 136.487 129.578 135.823 129.578 134.953C129.578 134.224 129.885 133.615 130.5 133.125C131.114 132.635 131.896 132.391 132.843 132.391C133.854 132.391 134.669 132.641 135.289 133.141C135.914 133.641 136.226 134.289 136.226 135.086H134.328C134.328 134.721 134.192 134.419 133.922 134.18C133.651 133.935 133.291 133.812 132.843 133.812C132.427 133.812 132.086 133.909 131.82 134.102C131.56 134.294 131.429 134.552 131.429 134.875C131.429 135.167 131.552 135.393 131.797 135.555C132.041 135.716 132.536 135.88 133.281 136.047C134.026 136.208 134.609 136.404 135.031 136.633C135.458 136.857 135.773 137.128 135.976 137.445C136.185 137.763 136.289 138.148 136.289 138.602C136.289 139.362 135.974 139.979 135.343 140.453C134.713 140.922 133.888 141.156 132.867 141.156C132.174 141.156 131.557 141.031 131.015 140.781C130.474 140.531 130.052 140.188 129.75 139.75C129.448 139.312 129.297 138.841 129.297 138.336H131.14C131.166 138.784 131.336 139.13 131.648 139.375C131.961 139.615 132.375 139.734 132.89 139.734C133.39 139.734 133.771 139.641 134.031 139.453C134.291 139.26 134.422 139.01 134.422 138.703ZM142.008 130.492V132.547H143.5V133.953H142.008V138.672C142.008 138.995 142.07 139.229 142.195 139.375C142.326 139.516 142.555 139.586 142.883 139.586C143.102 139.586 143.323 139.56 143.547 139.508V140.977C143.115 141.096 142.698 141.156 142.297 141.156C140.839 141.156 140.109 140.352 140.109 138.742V133.953H138.719V132.547H140.109V130.492H142.008ZM151.688 141C151.604 140.839 151.532 140.576 151.469 140.211C150.865 140.841 150.125 141.156 149.25 141.156C148.401 141.156 147.709 140.914 147.172 140.43C146.636 139.945 146.368 139.346 146.368 138.633C146.368 137.732 146.701 137.042 147.368 136.562C148.039 136.078 148.998 135.836 150.243 135.836H151.407V135.281C151.407 134.844 151.284 134.495 151.039 134.234C150.795 133.969 150.422 133.836 149.922 133.836C149.49 133.836 149.136 133.945 148.86 134.164C148.584 134.378 148.446 134.651 148.446 134.984H146.547C146.547 134.521 146.701 134.089 147.008 133.688C147.315 133.281 147.732 132.964 148.258 132.734C148.789 132.505 149.381 132.391 150.032 132.391C151.021 132.391 151.81 132.641 152.399 133.141C152.987 133.635 153.289 134.333 153.305 135.234V139.047C153.305 139.807 153.412 140.414 153.625 140.867V141H151.688ZM149.602 139.633C149.977 139.633 150.328 139.542 150.657 139.359C150.99 139.177 151.24 138.932 151.407 138.625V137.031H150.383C149.68 137.031 149.151 137.154 148.797 137.398C148.443 137.643 148.266 137.99 148.266 138.438C148.266 138.802 148.386 139.094 148.625 139.312C148.87 139.526 149.196 139.633 149.602 139.633ZM158.735 132.547L158.79 133.523C159.415 132.768 160.235 132.391 161.251 132.391C163.011 132.391 163.907 133.398 163.938 135.414V141H162.04V135.523C162.04 134.987 161.923 134.591 161.688 134.336C161.459 134.076 161.081 133.945 160.555 133.945C159.79 133.945 159.219 134.292 158.844 134.984V141H156.946V132.547H158.735ZM167.204 136.711C167.204 135.409 167.506 134.365 168.11 133.578C168.714 132.786 169.524 132.391 170.54 132.391C171.436 132.391 172.16 132.703 172.712 133.328V129H174.61V141H172.892L172.798 140.125C172.23 140.812 171.472 141.156 170.524 141.156C169.535 141.156 168.733 140.758 168.118 139.961C167.509 139.164 167.204 138.081 167.204 136.711ZM169.103 136.875C169.103 137.734 169.267 138.406 169.595 138.891C169.928 139.37 170.399 139.609 171.009 139.609C171.785 139.609 172.353 139.263 172.712 138.57V134.961C172.363 134.284 171.8 133.945 171.024 133.945C170.41 133.945 169.936 134.19 169.603 134.68C169.269 135.164 169.103 135.896 169.103 136.875ZM180.29 141H178.392V132.547H180.29V141ZM178.275 130.352C178.275 130.06 178.366 129.818 178.548 129.625C178.736 129.432 179.001 129.336 179.345 129.336C179.689 129.336 179.954 129.432 180.142 129.625C180.329 129.818 180.423 130.06 180.423 130.352C180.423 130.638 180.329 130.878 180.142 131.07C179.954 131.258 179.689 131.352 179.345 131.352C179.001 131.352 178.736 131.258 178.548 131.07C178.366 130.878 178.275 130.638 178.275 130.352ZM185.806 132.547L185.861 133.523C186.486 132.768 187.306 132.391 188.322 132.391C190.082 132.391 190.978 133.398 191.009 135.414V141H189.111V135.523C189.111 134.987 188.994 134.591 188.759 134.336C188.53 134.076 188.153 133.945 187.627 133.945C186.861 133.945 186.291 134.292 185.916 134.984V141H184.017V132.547H185.806ZM194.299 136.711C194.299 135.398 194.606 134.352 195.221 133.57C195.84 132.784 196.661 132.391 197.682 132.391C198.645 132.391 199.403 132.727 199.955 133.398L200.041 132.547H201.752V140.742C201.752 141.852 201.406 142.727 200.713 143.367C200.025 144.008 199.096 144.328 197.924 144.328C197.304 144.328 196.697 144.198 196.103 143.938C195.515 143.682 195.067 143.346 194.76 142.93L195.658 141.789C196.241 142.482 196.96 142.828 197.814 142.828C198.445 142.828 198.942 142.656 199.307 142.312C199.671 141.974 199.853 141.474 199.853 140.812V140.242C199.307 140.852 198.577 141.156 197.666 141.156C196.676 141.156 195.866 140.763 195.236 139.977C194.611 139.19 194.299 138.102 194.299 136.711ZM196.189 136.875C196.189 137.724 196.361 138.393 196.705 138.883C197.054 139.367 197.536 139.609 198.15 139.609C198.916 139.609 199.484 139.281 199.853 138.625V134.906C199.494 134.266 198.932 133.945 198.166 133.945C197.541 133.945 197.054 134.193 196.705 134.688C196.361 135.182 196.189 135.911 196.189 136.875Z" fill="#424242"/>
<path d="M93.4852 102.758V108.807C93.4852 109.493 93.3392 110.087 93.0472 110.591C92.7552 111.09 92.3363 111.471 91.7904 111.733C91.2445 111.996 90.5991 112.127 89.8543 112.127C88.7287 112.127 87.8421 111.835 87.1946 111.251C86.5472 110.667 86.2171 109.867 86.2044 108.852V102.758H88.4451V108.896C88.4705 109.907 88.9403 110.413 89.8543 110.413C90.3156 110.413 90.6647 110.286 90.9017 110.032C91.1387 109.778 91.2571 109.366 91.2571 108.794V102.758H93.4852ZM100.494 109.543C100.494 109.218 100.377 108.964 100.145 108.782C99.9161 108.6 99.512 108.411 98.9322 108.217C98.3525 108.022 97.8785 107.834 97.5104 107.652C96.3128 107.064 95.714 106.255 95.714 105.227C95.714 104.715 95.8621 104.264 96.1583 103.875C96.4588 103.481 96.8819 103.177 97.4278 102.961C97.9737 102.741 98.5873 102.631 99.2687 102.631C99.933 102.631 100.528 102.749 101.052 102.986C101.581 103.223 101.992 103.562 102.284 104.002C102.576 104.438 102.722 104.937 102.722 105.5H100.5C100.5 105.123 100.384 104.831 100.151 104.624C99.9225 104.417 99.6114 104.313 99.2179 104.313C98.8201 104.313 98.5048 104.402 98.2721 104.58C98.0436 104.753 97.9293 104.975 97.9293 105.246C97.9293 105.483 98.0563 105.699 98.3102 105.894C98.5641 106.084 99.0105 106.283 99.6495 106.49C100.289 106.693 100.813 106.913 101.224 107.15C102.222 107.726 102.722 108.519 102.722 109.531C102.722 110.339 102.417 110.974 101.808 111.435C101.198 111.896 100.363 112.127 99.3004 112.127C98.5514 112.127 97.8722 111.994 97.2628 111.727C96.6577 111.456 96.2006 111.088 95.8917 110.623C95.587 110.153 95.4347 109.613 95.4347 109.004H97.669C97.669 109.499 97.796 109.865 98.0499 110.102C98.308 110.335 98.7249 110.451 99.3004 110.451C99.6686 110.451 99.9584 110.373 100.17 110.216C100.386 110.056 100.494 109.831 100.494 109.543ZM110.441 108.083H106.937V110.286H111.076V112H104.709V102.758H111.089V104.478H106.937V106.427H110.441V108.083ZM116.263 108.737H115.057V112H112.829V102.758H116.466C117.562 102.758 118.419 103.001 119.037 103.488C119.655 103.974 119.964 104.662 119.964 105.551C119.964 106.194 119.832 106.727 119.57 107.15C119.312 107.574 118.906 107.916 118.351 108.179L120.281 111.905V112H117.894L116.263 108.737ZM115.057 107.017H116.466C116.889 107.017 117.207 106.907 117.418 106.687C117.634 106.463 117.742 106.152 117.742 105.754C117.742 105.356 117.634 105.045 117.418 104.821C117.202 104.592 116.885 104.478 116.466 104.478H115.057V107.017ZM129.671 108.737H128.465V112H126.237V102.758H129.874C130.97 102.758 131.827 103.001 132.445 103.488C133.062 103.974 133.371 104.662 133.371 105.551C133.371 106.194 133.24 106.727 132.978 107.15C132.72 107.574 132.313 107.916 131.759 108.179L133.689 111.905V112H131.302L129.671 108.737ZM128.465 107.017H129.874C130.297 107.017 130.614 106.907 130.826 106.687C131.042 106.463 131.15 106.152 131.15 105.754C131.15 105.356 131.042 105.045 130.826 104.821C130.61 104.592 130.293 104.478 129.874 104.478H128.465V107.017ZM141.294 108.083H137.79V110.286H141.929V112H135.562V102.758H141.941V104.478H137.79V106.427H141.294V108.083ZM148.449 109.543C148.449 109.218 148.332 108.964 148.099 108.782C147.871 108.6 147.467 108.411 146.887 108.217C146.307 108.022 145.833 107.834 145.465 107.652C144.268 107.064 143.669 106.255 143.669 105.227C143.669 104.715 143.817 104.264 144.113 103.875C144.414 103.481 144.837 103.177 145.383 102.961C145.928 102.741 146.542 102.631 147.223 102.631C147.888 102.631 148.482 102.749 149.007 102.986C149.536 103.223 149.947 103.562 150.239 104.002C150.531 104.438 150.677 104.937 150.677 105.5H148.455C148.455 105.123 148.338 104.831 148.106 104.624C147.877 104.417 147.566 104.313 147.173 104.313C146.775 104.313 146.46 104.402 146.227 104.58C145.998 104.753 145.884 104.975 145.884 105.246C145.884 105.483 146.011 105.699 146.265 105.894C146.519 106.084 146.965 106.283 147.604 106.49C148.243 106.693 148.768 106.913 149.178 107.15C150.177 107.726 150.677 108.519 150.677 109.531C150.677 110.339 150.372 110.974 149.762 111.435C149.153 111.896 148.317 112.127 147.255 112.127C146.506 112.127 145.827 111.994 145.218 111.727C144.612 111.456 144.155 111.088 143.846 110.623C143.542 110.153 143.389 109.613 143.389 109.004H145.624C145.624 109.499 145.751 109.865 146.005 110.102C146.263 110.335 146.68 110.451 147.255 110.451C147.623 110.451 147.913 110.373 148.125 110.216C148.341 110.056 148.449 109.831 148.449 109.543ZM158.396 108.083H154.892V110.286H159.031V112H152.664V102.758H159.044V104.478H154.892V106.427H158.396V108.083ZM166.033 110.273H162.98L162.447 112H160.066L163.456 102.758H165.551L168.966 112H166.573L166.033 110.273ZM163.513 108.553H165.5L164.503 105.348L163.513 108.553ZM173.924 108.737H172.718V112H170.49V102.758H174.127C175.223 102.758 176.08 103.001 176.698 103.488C177.316 103.974 177.625 104.662 177.625 105.551C177.625 106.194 177.493 106.727 177.231 107.15C176.973 107.574 176.567 107.916 176.012 108.179L177.942 111.905V112H175.555L173.924 108.737ZM172.718 107.017H174.127C174.55 107.017 174.868 106.907 175.079 106.687C175.295 106.463 175.403 106.152 175.403 105.754C175.403 105.356 175.295 105.045 175.079 104.821C174.863 104.592 174.546 104.478 174.127 104.478H172.718V107.017ZM187.293 108.871C187.263 109.514 187.09 110.083 186.772 110.578C186.455 111.069 186.009 111.45 185.433 111.721C184.862 111.992 184.208 112.127 183.472 112.127C182.257 112.127 181.301 111.731 180.602 110.94C179.904 110.149 179.555 109.031 179.555 107.588V107.131C179.555 106.226 179.712 105.434 180.025 104.757C180.342 104.076 180.797 103.551 181.39 103.183C181.982 102.811 182.668 102.625 183.446 102.625C184.568 102.625 185.469 102.921 186.15 103.513C186.832 104.101 187.219 104.914 187.312 105.951H185.09C185.073 105.388 184.932 104.984 184.665 104.738C184.398 104.493 183.992 104.37 183.446 104.37C182.892 104.37 182.486 104.577 182.227 104.992C181.969 105.407 181.834 106.069 181.821 106.979V107.633C181.821 108.619 181.944 109.323 182.189 109.747C182.439 110.17 182.866 110.381 183.472 110.381C183.984 110.381 184.375 110.261 184.646 110.02C184.917 109.778 185.061 109.395 185.078 108.871H187.293ZM196.917 112H194.701V108.141H191.42V112H189.192V102.758H191.42V106.427H194.701V102.758H196.917V112Z" fill="#424242"/>
<path d="M103.145 165.302V169H101.416V159.047H105.223C106.335 159.047 107.217 159.336 107.869 159.915C108.525 160.494 108.853 161.259 108.853 162.212C108.853 163.187 108.532 163.946 107.889 164.488C107.251 165.031 106.356 165.302 105.203 165.302H103.145ZM103.145 163.914H105.223C105.839 163.914 106.308 163.771 106.632 163.483C106.955 163.192 107.117 162.772 107.117 162.226C107.117 161.688 106.953 161.259 106.625 160.94C106.297 160.617 105.846 160.451 105.271 160.441H103.145V163.914ZM123.251 159.047V165.698C123.251 166.756 122.912 167.594 122.233 168.214C121.558 168.829 120.658 169.137 119.532 169.137C118.393 169.137 117.488 168.834 116.819 168.228C116.149 167.617 115.814 166.771 115.814 165.691V159.047H117.536V165.705C117.536 166.37 117.705 166.879 118.042 167.229C118.379 167.58 118.876 167.756 119.532 167.756C120.863 167.756 121.529 167.054 121.529 165.65V159.047H123.251ZM130.704 169V159.047H134.115C135.24 159.047 136.097 159.272 136.685 159.724C137.273 160.175 137.567 160.847 137.567 161.74C137.567 162.196 137.444 162.606 137.198 162.971C136.952 163.335 136.592 163.618 136.118 163.818C136.656 163.964 137.07 164.24 137.362 164.646C137.658 165.047 137.806 165.53 137.806 166.095C137.806 167.029 137.505 167.747 136.904 168.248C136.307 168.749 135.45 169 134.334 169H130.704ZM132.433 164.509V167.619H134.354C134.896 167.619 135.32 167.485 135.626 167.216C135.931 166.947 136.084 166.573 136.084 166.095C136.084 165.06 135.555 164.532 134.498 164.509H132.433ZM132.433 163.237H134.129C134.666 163.237 135.086 163.117 135.386 162.875C135.692 162.629 135.844 162.283 135.844 161.836C135.844 161.344 135.703 160.988 135.421 160.77C135.143 160.551 134.707 160.441 134.115 160.441H132.433V163.237ZM146.865 167.619H151.384V169H145.136V159.047H146.865V167.619ZM160.135 169H158.413V159.047H160.135V169ZM175.456 165.76C175.356 166.822 174.964 167.651 174.28 168.248C173.596 168.84 172.687 169.137 171.553 169.137C170.76 169.137 170.06 168.95 169.454 168.576C168.852 168.198 168.387 167.662 168.059 166.97C167.731 166.277 167.56 165.473 167.547 164.557V163.627C167.547 162.688 167.713 161.861 168.046 161.146C168.378 160.43 168.855 159.879 169.474 159.491C170.099 159.104 170.819 158.91 171.635 158.91C172.733 158.91 173.617 159.209 174.287 159.806C174.957 160.403 175.346 161.246 175.456 162.335H173.733C173.651 161.619 173.442 161.104 173.104 160.79C172.772 160.471 172.282 160.312 171.635 160.312C170.883 160.312 170.304 160.587 169.898 161.139C169.497 161.686 169.292 162.49 169.283 163.552V164.434C169.283 165.509 169.474 166.329 169.857 166.895C170.245 167.46 170.81 167.742 171.553 167.742C172.232 167.742 172.742 167.59 173.084 167.284C173.426 166.979 173.642 166.471 173.733 165.76H175.456ZM103.05 185.683H99.1941L98.3875 188H96.5896L100.349 178.047H101.901L105.668 188H103.863L103.05 185.683ZM99.6795 184.288H102.564L101.122 180.159L99.6795 184.288ZM116.06 184.165H114.132V188H112.403V178.047H115.903C117.051 178.047 117.937 178.304 118.562 178.819C119.186 179.334 119.498 180.079 119.498 181.055C119.498 181.72 119.336 182.278 119.013 182.729C118.694 183.176 118.247 183.52 117.673 183.762L119.908 187.911V188H118.056L116.06 184.165ZM114.132 182.777H115.909C116.493 182.777 116.948 182.632 117.277 182.34C117.605 182.044 117.769 181.64 117.769 181.13C117.769 180.597 117.616 180.184 117.311 179.893C117.01 179.601 116.559 179.451 115.957 179.441H114.132V182.777ZM133.588 179.441H130.485V188H128.769V179.441H125.693V178.047H133.588V179.441ZM142.326 188H140.604V178.047H142.326V188ZM155.254 185.437C155.254 184.999 155.099 184.662 154.789 184.425C154.484 184.188 153.93 183.949 153.128 183.707C152.326 183.465 151.688 183.197 151.214 182.9C150.307 182.331 149.854 181.588 149.854 180.672C149.854 179.87 150.18 179.209 150.831 178.689C151.488 178.17 152.338 177.91 153.381 177.91C154.074 177.91 154.691 178.038 155.234 178.293C155.776 178.548 156.202 178.913 156.512 179.387C156.822 179.856 156.977 180.378 156.977 180.952H155.254C155.254 180.433 155.09 180.027 154.762 179.735C154.439 179.439 153.974 179.291 153.368 179.291C152.802 179.291 152.363 179.412 152.048 179.653C151.738 179.895 151.583 180.232 151.583 180.665C151.583 181.03 151.752 181.335 152.089 181.581C152.427 181.823 152.982 182.06 153.757 182.292C154.532 182.52 155.154 182.782 155.623 183.078C156.093 183.37 156.437 183.707 156.656 184.09C156.874 184.468 156.984 184.912 156.984 185.423C156.984 186.252 156.665 186.913 156.027 187.405C155.393 187.893 154.532 188.137 153.443 188.137C152.723 188.137 152.06 188.005 151.454 187.74C150.852 187.471 150.383 187.102 150.045 186.633C149.713 186.163 149.546 185.617 149.546 184.992H151.276C151.276 185.557 151.463 185.995 151.836 186.305C152.21 186.615 152.746 186.77 153.443 186.77C154.044 186.77 154.496 186.649 154.796 186.407C155.102 186.161 155.254 185.838 155.254 185.437ZM171.293 179.441H168.189V188H166.473V179.441H163.397V178.047H171.293V179.441ZM183.298 185.437C183.298 184.999 183.143 184.662 182.833 184.425C182.528 184.188 181.974 183.949 181.172 183.707C180.37 183.465 179.732 183.197 179.258 182.9C178.351 182.331 177.898 181.588 177.898 180.672C177.898 179.87 178.224 179.209 178.875 178.689C179.531 178.17 180.381 177.91 181.425 177.91C182.118 177.91 182.735 178.038 183.278 178.293C183.82 178.548 184.246 178.913 184.556 179.387C184.866 179.856 185.021 180.378 185.021 180.952H183.298C183.298 180.433 183.134 180.027 182.806 179.735C182.482 179.439 182.017 179.291 181.411 179.291C180.846 179.291 180.406 179.412 180.092 179.653C179.782 179.895 179.627 180.232 179.627 180.665C179.627 181.03 179.796 181.335 180.133 181.581C180.47 181.823 181.026 182.06 181.801 182.292C182.576 182.52 183.198 182.782 183.667 183.078C184.137 183.37 184.481 183.707 184.699 184.09C184.918 184.468 185.028 184.912 185.028 185.423C185.028 186.252 184.709 186.913 184.071 187.405C183.437 187.893 182.576 188.137 181.487 188.137C180.766 188.137 180.103 188.005 179.497 187.74C178.896 187.471 178.426 187.102 178.089 186.633C177.756 186.163 177.59 185.617 177.59 184.992H179.32C179.32 185.557 179.506 185.995 179.88 186.305C180.254 186.615 180.789 186.77 181.487 186.77C182.088 186.77 182.539 186.649 182.84 186.407C183.145 186.161 183.298 185.838 183.298 185.437Z" fill="#424242"/>
<path d="M148.729 66.0712V61.5761C148.741 59.5422 147.929 57.5865 146.481 56.1603C145.081 54.7642 143.248 54 141.307 54C141.277 54 141.241 54 141.211 54C137.07 54.006 133.704 57.3999 133.704 61.5761V66.0712C132.142 66.2578 131 67.5696 131 69.1582V79.2557C131 80.9707 132.37 82.3848 134.083 82.3848H148.356C150.069 82.3848 151.439 80.9707 151.439 79.2557V69.1582C151.433 67.5756 150.291 66.2578 148.729 66.0712ZM134.9 61.5761H134.906C134.906 58.0618 137.737 55.1855 141.217 55.1855H141.223C142.875 55.1794 144.462 55.8354 145.634 57.0028C146.854 58.2123 147.533 59.8611 147.521 61.5761V66.0772H146.199V61.5761C146.211 60.2101 145.67 58.8983 144.702 57.9355C143.789 57.0208 142.551 56.5033 141.259 56.5033H141.223C138.458 56.5033 136.222 58.7779 136.222 61.5701V66.0772H134.9V61.5761ZM145.003 61.5761V66.0772H137.43V61.5761C137.43 59.4459 139.125 57.7128 141.229 57.7128H141.265C142.238 57.7128 143.176 58.104 143.867 58.796C144.6 59.5301 145.015 60.5351 145.003 61.5761ZM150.291 79.2737C150.291 80.3268 149.438 81.1813 148.386 81.1813H134.107C133.055 81.1813 132.202 80.3268 132.202 79.2737V69.1883C132.202 68.1352 133.055 67.2807 134.107 67.2807H148.386C149.438 67.2807 150.291 68.1352 150.291 69.1883V79.2737Z" fill="black"/>
<path d="M143.298 73.8577C143.034 72.925 142.187 72.2871 141.219 72.2871C140.023 72.2871 139.049 73.2559 139.049 74.4595C139.049 75.4283 139.686 76.2768 140.618 76.5415V78.2264C140.618 78.5574 140.888 78.8282 141.219 78.8282C141.549 78.8282 141.82 78.5574 141.82 78.2264V76.5415C142.968 76.2106 143.635 75.007 143.298 73.8577ZM141.219 75.4223C140.684 75.4223 140.251 74.989 140.251 74.4534C140.251 73.9179 140.684 73.4846 141.219 73.4846C141.754 73.4846 142.187 73.9179 142.187 74.4534C142.187 74.989 141.754 75.4223 141.219 75.4223Z" fill="black"/>
<defs>
<filter id="filter0_d" x="0" y="0" width="283" height="259.167" filterUnits="userSpaceOnUse" color-interpolation-filters="sRGB">
<feFlood flood-opacity="0" result="BackgroundImageFix"/>
<feColorMatrix in="SourceAlpha" type="matrix" values="0 0 0 0 0 0 0 0 0 0 0 0 0 0 0 0 0 0 127 0"/>
<feOffset dy="4"/>
<feGaussianBlur stdDeviation="2"/>
<feColorMatrix type="matrix" values="0 0 0 0 0 0 0 0 0 0 0 0 0 0 0 0 0 0 0.25 0"/>
<feBlend mode="normal" in2="BackgroundImageFix" result="effect1_dropShadow"/>
<feBlend mode="normal" in="SourceGraphic" in2="effect1_dropShadow" result="shape"/>
</filter>
</defs>
</svg>
