<svg width="34" height="41" viewBox="0 0 34 41" fill="none" xmlns="http://www.w3.org/2000/svg">
<path d="M33.1307 19.0133C33.1307 28.0241 25.8261 35.3287 16.8154 35.3287C7.80464 35.3287 0.5 28.0241 0.5 19.0133C0.5 14.5323 2.30153 11.6401 5.18959 9.84002C8.11605 8.01597 12.2089 7.2832 16.8154 7.2832C21.4218 7.2832 25.5147 8.01597 28.4411 9.84002C31.3292 11.6401 33.1307 14.5323 33.1307 19.0133Z" stroke="white"/>
<path d="M30.9895 18.2743C30.9895 25.3288 25.2598 31.0492 18.19 31.0492C11.1203 31.0492 5.39062 25.3288 5.39062 18.2743C5.39062 14.7713 6.79825 12.5229 9.05006 11.1219C11.3404 9.69701 14.5544 9.11914 18.19 9.11914C21.8257 9.11914 25.0397 9.69701 27.33 11.1219C29.5818 12.5229 30.9895 14.7713 30.9895 18.2743Z" fill="#FFF9F6" stroke="white"/>
<path d="M18.499 1.89318C16.5118 1.58744 11.4672 2.3522 14.9831 4.33905C18.499 6.32589 22.6251 18.2494 22.6251 18.2494C22.6251 18.2494 20.4863 2.19891 18.499 1.89318Z" stroke="white"/>
</svg>
