<svg width="1441" height="1376" viewBox="0 0 1441 1376" fill="none" xmlns="http://www.w3.org/2000/svg">
<rect x="1" width="1440" height="1376" fill="#8A1616"/>
<path d="M4.5 1080.3C4.5 1080.3 36.9786 1062.59 36.9776 989.067C36.9766 915.544 1.97659 296.774 36.9766 320.387C71.9766 344 20.0019 908.568 61.0017 915.544C102.001 922.521 103.476 619.307 103.977 570.471C104.477 521.635 68.4763 487.825 87.4765 432.012C106.477 376.2 294.476 340.243 231.976 320.387C169.476 300.53 121.476 477.092 177.977 450.259C234.477 423.426 43.6203 559.738 36.9766 642.384C30.3329 725.03 76.0017 827.532 119.502 789.966C163.002 752.399 177.977 570.471 209.977 547.395C241.977 524.318 304.476 559.738 322.476 523.781C340.476 487.825 274.977 363.856 244.977 363.856C214.977 363.856 166.477 604.817 166.477 604.817C166.477 604.817 201.477 715.37 244.977 678.877C288.477 642.384 298.476 611.257 288.476 604.817C278.477 598.377 279.977 509.292 244.977 487.825C209.977 466.359 124.477 525.391 130.977 590.327C137.476 655.264 191.976 716.443 231.976 732.543C271.976 748.643 169.976 588.717 231.976 570.471C293.976 552.225 291.977 549.005 322.476 559.738C352.976 570.471 381.977 668.143 374.476 700.343C366.976 732.543 322.977 782.989 288.476 757.766C253.976 732.543 380.477 535.051 409.476 547.395C438.476 559.738 459.977 757.766 420.976 757.766C381.976 757.766 341.976 509.292 340.476 450.259C338.977 391.226 369.477 300.53 420.976 300.53C472.476 300.53 394.976 642.384 481.476 700.343C567.977 758.303 548.477 471.189 550.477 417.522C552.477 363.856 570.477 313.41 597.477 320.387C624.477 327.363 632.477 477.629 597.477 477.092C562.477 476.555 541.977 480.312 524.977 590.327C507.977 700.343 403.476 559.738 466.476 466.359C529.477 372.98 612.977 485.678 597.477 509.292C581.977 532.905 695.977 559.738 682.977 619.307C669.977 678.877 611.477 744.886 632.477 757.766C653.477 770.646 700.477 757.766 712.977 732.543C725.477 707.32 741.977 590.327 712.977 559.738C683.977 529.148 682.977 417.522 729.977 403.033C776.977 388.543 810.977 300.53 848.977 300.53C886.977 300.53 931.477 239.351 959.477 257.597C987.477 275.844 938.977 395.519 914.477 417.522C889.977 439.526 867.977 515.195 878.977 547.395C889.977 579.594 904.476 619.307 971.477 619.307C1038.48 619.307 1063.98 570.471 1063.98 570.471H1436.5" stroke="#04152A"/>
<path d="M1 258.009C1 258.009 27.0185 392.427 82.5579 377.796C138.097 363.164 120.585 100.732 214.652 251.609C308.719 402.485 240.17 554.274 313.222 611.881C386.274 669.488 469.333 751.327 532.377 697.377C595.422 643.428 219.655 258.468 334.237 251.609C448.818 244.749 539.883 294.127 570.905 339.391C601.927 384.655 595.422 419.399 617.438 476.55C639.453 533.701 715 561.5 715 561.5" stroke="#04152A"/>
<path d="M1 935.772C1 935.772 27 788.771 82.5 804.772C138 820.773 120.5 1107.77 214.5 942.772C308.5 777.771 240 611.772 313 548.772C386 485.772 469 396.272 532 455.272C595 514.272 219.5 935.271 334 942.772C448.5 950.273 539.5 896.273 570.5 846.772C601.5 797.271 595 759.273 617 696.772C639 634.271 700.5 434 700.5 434" stroke="#04152A"/>
</svg>
