<svg width="547" height="293" viewBox="0 0 547 293" fill="none" xmlns="http://www.w3.org/2000/svg">
<rect x="46" width="501" height="267" rx="20" fill="#05070B"/>
<circle cx="71.4183" cy="221.418" r="64.9183" stroke="url(#paint0_linear)" stroke-width="13"/>
<circle cx="130.418" cy="170.418" r="64.9183" stroke="url(#paint1_linear)" stroke-width="13"/>
<path d="M200 45.5H414.5C423.889 45.5 431.5 53.1112 431.5 62.5C431.5 71.8888 423.889 79.5 414.5 79.5H180.5V65C180.5 54.2304 189.23 45.5 200 45.5Z" stroke="white"/>
<path d="M205.07 61.22C204.81 60.9867 204.45 60.7967 203.99 60.65C203.53 60.5033 202.947 60.43 202.24 60.43C201.68 60.43 201.177 60.5367 200.73 60.75C200.29 60.9567 199.913 61.24 199.6 61.6C199.293 61.96 199.057 62.38 198.89 62.86C198.73 63.3333 198.65 63.8333 198.65 64.36C198.65 64.9067 198.727 65.43 198.88 65.93C199.04 66.4233 199.273 66.86 199.58 67.24C199.893 67.62 200.28 67.9233 200.74 68.15C201.2 68.37 201.737 68.48 202.35 68.48C202.697 68.48 203.03 68.44 203.35 68.36C203.67 68.28 203.96 68.1867 204.22 68.08C204.48 67.9667 204.7 67.8567 204.88 67.75C205.067 67.6367 205.2 67.5467 205.28 67.48L206 68.89C205.9 68.9767 205.75 69.0933 205.55 69.24C205.35 69.38 205.093 69.52 204.78 69.66C204.473 69.8 204.107 69.92 203.68 70.02C203.26 70.12 202.77 70.17 202.21 70.17C201.377 70.17 200.62 70.0067 199.94 69.68C199.267 69.3467 198.69 68.9067 198.21 68.36C197.73 67.8067 197.357 67.1733 197.09 66.46C196.83 65.7467 196.7 65.0033 196.7 64.23C196.7 63.5367 196.827 62.8667 197.08 62.22C197.34 61.5667 197.71 60.99 198.19 60.49C198.67 59.99 199.253 59.59 199.94 59.29C200.627 58.9833 201.4 58.83 202.26 58.83C203.073 58.83 203.803 58.9267 204.45 59.12C205.103 59.3067 205.64 59.63 206.06 60.09L205.07 61.22ZM214.498 70.17C213.758 70.17 213.078 70.0267 212.458 69.74C211.844 69.4467 211.314 69.0467 210.868 68.54C210.421 68.0267 210.071 67.4233 209.818 66.73C209.571 66.0367 209.448 65.2833 209.448 64.47C209.448 63.6633 209.568 62.9167 209.808 62.23C210.048 61.5367 210.388 60.94 210.828 60.44C211.268 59.9333 211.798 59.54 212.418 59.26C213.044 58.9733 213.738 58.83 214.498 58.83C215.238 58.83 215.911 58.9733 216.518 59.26C217.124 59.54 217.644 59.9333 218.078 60.44C218.518 60.94 218.858 61.5367 219.098 62.23C219.338 62.9167 219.458 63.6633 219.458 64.47C219.458 65.2833 219.341 66.0367 219.108 66.73C218.881 67.4233 218.551 68.0267 218.118 68.54C217.691 69.0467 217.171 69.4467 216.558 69.74C215.944 70.0267 215.258 70.17 214.498 70.17ZM217.558 64.74C217.558 64.2 217.501 63.67 217.388 63.15C217.274 62.63 217.094 62.1667 216.848 61.76C216.601 61.3467 216.281 61.0133 215.888 60.76C215.494 60.5067 215.018 60.38 214.458 60.38C213.924 60.38 213.461 60.49 213.068 60.71C212.674 60.93 212.351 61.2233 212.098 61.59C211.844 61.9567 211.654 62.3733 211.528 62.84C211.408 63.3067 211.348 63.7867 211.348 64.28C211.348 64.82 211.408 65.35 211.528 65.87C211.654 66.39 211.844 66.8533 212.098 67.26C212.358 67.6667 212.688 67.9967 213.088 68.25C213.494 68.4967 213.978 68.62 214.538 68.62C215.064 68.62 215.518 68.51 215.898 68.29C216.284 68.07 216.598 67.78 216.838 67.42C217.084 67.0533 217.264 66.64 217.378 66.18C217.498 65.7133 217.558 65.2333 217.558 64.74ZM223.656 70H221.876V59L223.656 58.8V60.63C223.796 60.3633 223.902 60.1567 223.976 60.01C224.056 59.8567 224.112 59.7467 224.146 59.68C224.186 59.6067 224.209 59.5633 224.216 59.55L224.236 59.52C224.296 59.46 224.379 59.39 224.486 59.31C224.599 59.23 224.736 59.1567 224.896 59.09C225.056 59.0167 225.239 58.9567 225.446 58.91C225.652 58.8567 225.886 58.83 226.146 58.83C226.519 58.83 226.826 58.88 227.066 58.98C227.306 59.0733 227.502 59.2067 227.656 59.38C227.809 59.5467 227.929 59.75 228.016 59.99C228.102 60.23 228.182 60.49 228.256 60.77L228.886 59.57C228.952 59.51 229.059 59.4367 229.206 59.35C229.359 59.2633 229.532 59.1833 229.726 59.11C229.926 59.03 230.136 58.9633 230.356 58.91C230.576 58.8567 230.792 58.83 231.006 58.83C231.512 58.83 231.912 58.9167 232.206 59.09C232.506 59.2567 232.729 59.5 232.876 59.82C233.029 60.14 233.126 60.5267 233.166 60.98C233.212 61.4333 233.236 61.94 233.236 62.5V70H231.456V62.6C231.456 62.24 231.449 61.9267 231.436 61.66C231.429 61.3867 231.389 61.16 231.316 60.98C231.249 60.7933 231.139 60.6567 230.986 60.57C230.839 60.4767 230.629 60.43 230.356 60.43C230.222 60.43 230.059 60.4733 229.866 60.56C229.672 60.64 229.479 60.7467 229.286 60.88C229.099 61.0067 228.922 61.1533 228.756 61.32C228.596 61.48 228.482 61.6433 228.416 61.81C228.416 61.85 228.416 61.9167 228.416 62.01C228.422 62.0967 228.426 62.19 228.426 62.29C228.432 62.3833 228.436 62.4733 228.436 62.56V70H226.646V62.8C226.646 62.44 226.639 62.1133 226.626 61.82C226.612 61.5267 226.569 61.28 226.496 61.08C226.429 60.8733 226.316 60.7133 226.156 60.6C226.002 60.4867 225.782 60.43 225.496 60.43C225.389 60.43 225.252 60.46 225.086 60.52C224.919 60.58 224.746 60.67 224.566 60.79C224.392 60.9033 224.222 61.0433 224.056 61.21C223.896 61.37 223.762 61.5533 223.656 61.76V70ZM236.663 70H234.883V59L236.663 58.8V60.63C236.803 60.3633 236.91 60.1567 236.983 60.01C237.063 59.8567 237.12 59.7467 237.153 59.68C237.193 59.6067 237.217 59.5633 237.223 59.55L237.243 59.52C237.303 59.46 237.387 59.39 237.493 59.31C237.607 59.23 237.743 59.1567 237.903 59.09C238.063 59.0167 238.247 58.9567 238.453 58.91C238.66 58.8567 238.893 58.83 239.153 58.83C239.527 58.83 239.833 58.88 240.073 58.98C240.313 59.0733 240.51 59.2067 240.663 59.38C240.817 59.5467 240.937 59.75 241.023 59.99C241.11 60.23 241.19 60.49 241.263 60.77L241.893 59.57C241.96 59.51 242.067 59.4367 242.213 59.35C242.367 59.2633 242.54 59.1833 242.733 59.11C242.933 59.03 243.143 58.9633 243.363 58.91C243.583 58.8567 243.8 58.83 244.013 58.83C244.52 58.83 244.92 58.9167 245.213 59.09C245.513 59.2567 245.737 59.5 245.883 59.82C246.037 60.14 246.133 60.5267 246.173 60.98C246.22 61.4333 246.243 61.94 246.243 62.5V70H244.463V62.6C244.463 62.24 244.457 61.9267 244.443 61.66C244.437 61.3867 244.397 61.16 244.323 60.98C244.257 60.7933 244.147 60.6567 243.993 60.57C243.847 60.4767 243.637 60.43 243.363 60.43C243.23 60.43 243.067 60.4733 242.873 60.56C242.68 60.64 242.487 60.7467 242.293 60.88C242.107 61.0067 241.93 61.1533 241.763 61.32C241.603 61.48 241.49 61.6433 241.423 61.81C241.423 61.85 241.423 61.9167 241.423 62.01C241.43 62.0967 241.433 62.19 241.433 62.29C241.44 62.3833 241.443 62.4733 241.443 62.56V70H239.653V62.8C239.653 62.44 239.647 62.1133 239.633 61.82C239.62 61.5267 239.577 61.28 239.503 61.08C239.437 60.8733 239.323 60.7133 239.163 60.6C239.01 60.4867 238.79 60.43 238.503 60.43C238.397 60.43 238.26 60.46 238.093 60.52C237.927 60.58 237.753 60.67 237.573 60.79C237.4 60.9033 237.23 61.0433 237.063 61.21C236.903 61.37 236.77 61.5533 236.663 61.76V70ZM256.341 59L258.141 58.8V70H256.341V68.2L255.731 69.27C255.671 69.3433 255.575 69.43 255.441 69.53C255.308 69.63 255.141 69.73 254.941 69.83C254.741 69.9233 254.511 70.0033 254.251 70.07C253.991 70.1367 253.701 70.17 253.381 70.17C252.575 70.17 251.898 70.0467 251.351 69.8C250.811 69.5467 250.378 69.2133 250.051 68.8C249.725 68.3867 249.491 67.91 249.351 67.37C249.211 66.83 249.141 66.2733 249.141 65.7V59L250.941 58.8V65.7C250.941 66.1333 250.985 66.5233 251.071 66.87C251.158 67.2167 251.305 67.5133 251.511 67.76C251.725 68.0067 252.005 68.1967 252.351 68.33C252.705 68.4567 253.141 68.52 253.661 68.52C254.048 68.52 254.391 68.4667 254.691 68.36C254.991 68.2467 255.251 68.1133 255.471 67.96C255.698 67.8 255.881 67.6333 256.021 67.46C256.168 67.2867 256.275 67.1333 256.341 67V59ZM263.949 70H262.149V59L263.949 58.8V60.73L264.559 59.56C264.679 59.48 264.819 59.3967 264.979 59.31C265.146 59.2233 265.346 59.1467 265.579 59.08C265.812 59.0067 266.089 58.9467 266.409 58.9C266.729 58.8533 267.106 58.83 267.539 58.83C268.066 58.83 268.539 58.9167 268.959 59.09C269.386 59.2567 269.742 59.5 270.029 59.82C270.322 60.14 270.546 60.5267 270.699 60.98C270.859 61.4333 270.939 61.94 270.939 62.5V70H269.139V62.5C269.139 62.14 269.079 61.83 268.959 61.57C268.846 61.31 268.686 61.0967 268.479 60.93C268.272 60.7567 268.032 60.63 267.759 60.55C267.486 60.47 267.196 60.43 266.889 60.43C266.569 60.43 266.259 60.47 265.959 60.55C265.666 60.63 265.392 60.7333 265.139 60.86C264.886 60.98 264.656 61.1133 264.449 61.26C264.249 61.4 264.082 61.5333 263.949 61.66V70ZM280.157 66.07C280.157 66.4167 280.177 66.7367 280.217 67.03C280.264 67.3233 280.337 67.5767 280.437 67.79C280.537 68.0033 280.67 68.17 280.837 68.29C281.004 68.41 281.21 68.47 281.457 68.47C281.784 68.47 282.1 68.4433 282.407 68.39C282.72 68.3367 283 68.2767 283.247 68.21C283.494 68.1367 283.697 68.07 283.857 68.01C284.024 67.95 284.127 67.9133 284.167 67.9L284.557 69.44C284.517 69.46 284.41 69.51 284.237 69.59C284.064 69.67 283.837 69.7533 283.557 69.84C283.277 69.92 282.95 69.9933 282.577 70.06C282.204 70.1333 281.797 70.17 281.357 70.17C280.704 70.17 280.174 70.0633 279.767 69.85C279.367 69.6367 279.054 69.3433 278.827 68.97C278.6 68.59 278.447 68.1433 278.367 67.63C278.294 67.1167 278.257 66.5633 278.257 65.97V60.8L278.657 60.2L277.257 60.6H275.247L275.047 59H280.157V66.07ZM278.197 55H280.217V57H278.197V55ZM291.765 66.24C291.765 66.68 291.788 67.05 291.835 67.35C291.888 67.6433 291.961 67.8833 292.055 68.07C292.155 68.25 292.275 68.38 292.415 68.46C292.561 68.5333 292.728 68.57 292.915 68.57C293.228 68.57 293.538 68.5333 293.845 68.46C294.151 68.3867 294.438 68.3033 294.705 68.21C294.971 68.11 295.208 68.0133 295.415 67.92C295.621 67.82 295.781 67.7467 295.895 67.7L296.585 68.91C296.525 68.9633 296.378 69.06 296.145 69.2C295.918 69.3333 295.628 69.4733 295.275 69.62C294.928 69.7667 294.535 69.8933 294.095 70C293.655 70.1133 293.195 70.17 292.715 70.17C292.115 70.17 291.631 70.06 291.265 69.84C290.905 69.62 290.628 69.32 290.435 68.94C290.241 68.56 290.115 68.12 290.055 67.62C289.995 67.1133 289.965 66.5733 289.965 66V60.6H287.055V59H289.965V56.91L291.715 55.8V59H296.555L296.355 60.6H291.765V66.24ZM306.183 66.36L308.873 59L310.673 58.8L306.633 70.17C306.433 70.73 306.216 71.2867 305.983 71.84C305.756 72.3933 305.496 72.89 305.203 73.33C304.916 73.77 304.589 74.1233 304.223 74.39C303.863 74.6633 303.449 74.8 302.983 74.8C302.609 74.8 302.266 74.7267 301.953 74.58C301.639 74.4333 301.343 74.24 301.063 74L301.793 72.83C301.833 72.87 301.883 72.9167 301.943 72.97C302.009 73.0233 302.079 73.0733 302.153 73.12C302.233 73.1733 302.316 73.2167 302.403 73.25C302.496 73.2833 302.589 73.3 302.683 73.3C302.923 73.3 303.139 73.2133 303.333 73.04C303.533 72.8733 303.716 72.6533 303.883 72.38C304.056 72.1067 304.213 71.8033 304.353 71.47C304.499 71.1367 304.639 70.8033 304.773 70.47L300.703 59L302.603 58.8L305.243 66.36L305.763 68.68L306.183 66.36ZM335.148 61.22C334.888 60.9867 334.528 60.7967 334.068 60.65C333.608 60.5033 333.025 60.43 332.318 60.43C331.758 60.43 331.255 60.5367 330.808 60.75C330.368 60.9567 329.991 61.24 329.678 61.6C329.371 61.96 329.135 62.38 328.968 62.86C328.808 63.3333 328.728 63.8333 328.728 64.36C328.728 64.9067 328.805 65.43 328.958 65.93C329.118 66.4233 329.351 66.86 329.658 67.24C329.971 67.62 330.358 67.9233 330.818 68.15C331.278 68.37 331.815 68.48 332.428 68.48C332.775 68.48 333.108 68.44 333.428 68.36C333.748 68.28 334.038 68.1867 334.298 68.08C334.558 67.9667 334.778 67.8567 334.958 67.75C335.145 67.6367 335.278 67.5467 335.358 67.48L336.078 68.89C335.978 68.9767 335.828 69.0933 335.628 69.24C335.428 69.38 335.171 69.52 334.858 69.66C334.551 69.8 334.185 69.92 333.758 70.02C333.338 70.12 332.848 70.17 332.288 70.17C331.455 70.17 330.698 70.0067 330.018 69.68C329.345 69.3467 328.768 68.9067 328.288 68.36C327.808 67.8067 327.435 67.1733 327.168 66.46C326.908 65.7467 326.778 65.0033 326.778 64.23C326.778 63.5367 326.905 62.8667 327.158 62.22C327.418 61.5667 327.788 60.99 328.268 60.49C328.748 59.99 329.331 59.59 330.018 59.29C330.705 58.9833 331.478 58.83 332.338 58.83C333.151 58.83 333.881 58.9267 334.528 59.12C335.181 59.3067 335.718 59.63 336.138 60.09L335.148 61.22ZM344.576 70.17C343.836 70.17 343.156 70.0267 342.536 69.74C341.923 69.4467 341.393 69.0467 340.946 68.54C340.499 68.0267 340.149 67.4233 339.896 66.73C339.649 66.0367 339.526 65.2833 339.526 64.47C339.526 63.6633 339.646 62.9167 339.886 62.23C340.126 61.5367 340.466 60.94 340.906 60.44C341.346 59.9333 341.876 59.54 342.496 59.26C343.123 58.9733 343.816 58.83 344.576 58.83C345.316 58.83 345.989 58.9733 346.596 59.26C347.203 59.54 347.723 59.9333 348.156 60.44C348.596 60.94 348.936 61.5367 349.176 62.23C349.416 62.9167 349.536 63.6633 349.536 64.47C349.536 65.2833 349.419 66.0367 349.186 66.73C348.959 67.4233 348.629 68.0267 348.196 68.54C347.769 69.0467 347.249 69.4467 346.636 69.74C346.023 70.0267 345.336 70.17 344.576 70.17ZM347.636 64.74C347.636 64.2 347.579 63.67 347.466 63.15C347.353 62.63 347.173 62.1667 346.926 61.76C346.679 61.3467 346.359 61.0133 345.966 60.76C345.573 60.5067 345.096 60.38 344.536 60.38C344.003 60.38 343.539 60.49 343.146 60.71C342.753 60.93 342.429 61.2233 342.176 61.59C341.923 61.9567 341.733 62.3733 341.606 62.84C341.486 63.3067 341.426 63.7867 341.426 64.28C341.426 64.82 341.486 65.35 341.606 65.87C341.733 66.39 341.923 66.8533 342.176 67.26C342.436 67.6667 342.766 67.9967 343.166 68.25C343.573 68.4967 344.056 68.62 344.616 68.62C345.143 68.62 345.596 68.51 345.976 68.29C346.363 68.07 346.676 67.78 346.916 67.42C347.163 67.0533 347.343 66.64 347.456 66.18C347.576 65.7133 347.636 65.2333 347.636 64.74ZM355.004 70H353.204V59L355.004 58.8V60.73L355.614 59.56C355.734 59.48 355.874 59.3967 356.034 59.31C356.2 59.2233 356.4 59.1467 356.634 59.08C356.867 59.0067 357.144 58.9467 357.464 58.9C357.784 58.8533 358.16 58.83 358.594 58.83C359.12 58.83 359.594 58.9167 360.014 59.09C360.44 59.2567 360.797 59.5 361.084 59.82C361.377 60.14 361.6 60.5267 361.754 60.98C361.914 61.4333 361.994 61.94 361.994 62.5V70H360.194V62.5C360.194 62.14 360.134 61.83 360.014 61.57C359.9 61.31 359.74 61.0967 359.534 60.93C359.327 60.7567 359.087 60.63 358.814 60.55C358.54 60.47 358.25 60.43 357.944 60.43C357.624 60.43 357.314 60.47 357.014 60.55C356.72 60.63 356.447 60.7333 356.194 60.86C355.94 60.98 355.71 61.1133 355.504 61.26C355.304 61.4 355.137 61.5333 355.004 61.66V70ZM368.012 70H366.212V59L368.012 58.8V60.73L368.622 59.56C368.742 59.48 368.882 59.3967 369.042 59.31C369.208 59.2233 369.408 59.1467 369.642 59.08C369.875 59.0067 370.152 58.9467 370.472 58.9C370.792 58.8533 371.168 58.83 371.602 58.83C372.128 58.83 372.602 58.9167 373.022 59.09C373.448 59.2567 373.805 59.5 374.092 59.82C374.385 60.14 374.608 60.5267 374.762 60.98C374.922 61.4333 375.002 61.94 375.002 62.5V70H373.202V62.5C373.202 62.14 373.142 61.83 373.022 61.57C372.908 61.31 372.748 61.0967 372.542 60.93C372.335 60.7567 372.095 60.63 371.822 60.55C371.548 60.47 371.258 60.43 370.952 60.43C370.632 60.43 370.322 60.47 370.022 60.55C369.728 60.63 369.455 60.7333 369.202 60.86C368.948 60.98 368.718 61.1133 368.512 61.26C368.312 61.4 368.145 61.5333 368.012 61.66V70ZM387.449 68.71C387.243 68.9233 387.016 69.12 386.769 69.3C386.523 69.48 386.249 69.6367 385.949 69.77C385.649 69.8967 385.316 69.9933 384.949 70.06C384.589 70.1333 384.186 70.17 383.739 70.17C382.853 70.17 382.086 70.0133 381.439 69.7C380.793 69.3867 380.259 68.9667 379.839 68.44C379.419 67.9133 379.109 67.31 378.909 66.63C378.709 65.95 378.609 65.24 378.609 64.5C378.609 64.0267 378.656 63.56 378.749 63.1C378.849 62.6333 378.989 62.19 379.169 61.77C379.356 61.35 379.586 60.96 379.859 60.6C380.139 60.24 380.459 59.93 380.819 59.67C381.186 59.41 381.589 59.2067 382.029 59.06C382.476 58.9067 382.963 58.83 383.489 58.83C384.209 58.83 384.859 58.9467 385.439 59.18C386.019 59.4133 386.513 59.74 386.919 60.16C387.326 60.58 387.639 61.0867 387.859 61.68C388.079 62.2667 388.189 62.9133 388.189 63.62C388.189 63.8267 388.183 64.0533 388.169 64.3C388.156 64.5467 388.136 64.78 388.109 65H380.509C380.509 65.5133 380.589 65.99 380.749 66.43C380.909 66.8633 381.126 67.24 381.399 67.56C381.679 67.8733 382.006 68.12 382.379 68.3C382.759 68.48 383.169 68.57 383.609 68.57C384.036 68.57 384.399 68.54 384.699 68.48C385.006 68.4133 385.263 68.3333 385.469 68.24C385.683 68.1467 385.859 68.0467 385.999 67.94C386.139 67.8333 386.259 67.7333 386.359 67.64L387.449 68.71ZM386.429 63.5V63.06C386.429 62.68 386.353 62.33 386.199 62.01C386.053 61.69 385.849 61.4133 385.589 61.18C385.336 60.94 385.039 60.7533 384.699 60.62C384.366 60.4867 384.013 60.42 383.639 60.42C383.193 60.42 382.799 60.4933 382.459 60.64C382.126 60.78 381.839 60.9633 381.599 61.19C381.359 61.41 381.166 61.6533 381.019 61.92C380.873 62.1867 380.766 62.44 380.699 62.68L380.109 63.82L381.959 63.5H386.429ZM400.187 61.22C399.927 60.9867 399.567 60.7967 399.107 60.65C398.647 60.5033 398.064 60.43 397.357 60.43C396.797 60.43 396.294 60.5367 395.847 60.75C395.407 60.9567 395.031 61.24 394.717 61.6C394.411 61.96 394.174 62.38 394.007 62.86C393.847 63.3333 393.767 63.8333 393.767 64.36C393.767 64.9067 393.844 65.43 393.997 65.93C394.157 66.4233 394.391 66.86 394.697 67.24C395.011 67.62 395.397 67.9233 395.857 68.15C396.317 68.37 396.854 68.48 397.467 68.48C397.814 68.48 398.147 68.44 398.467 68.36C398.787 68.28 399.077 68.1867 399.337 68.08C399.597 67.9667 399.817 67.8567 399.997 67.75C400.184 67.6367 400.317 67.5467 400.397 67.48L401.117 68.89C401.017 68.9767 400.867 69.0933 400.667 69.24C400.467 69.38 400.211 69.52 399.897 69.66C399.591 69.8 399.224 69.92 398.797 70.02C398.377 70.12 397.887 70.17 397.327 70.17C396.494 70.17 395.737 70.0067 395.057 69.68C394.384 69.3467 393.807 68.9067 393.327 68.36C392.847 67.8067 392.474 67.1733 392.207 66.46C391.947 65.7467 391.817 65.0033 391.817 64.23C391.817 63.5367 391.944 62.8667 392.197 62.22C392.457 61.5667 392.827 60.99 393.307 60.49C393.787 59.99 394.371 59.59 395.057 59.29C395.744 58.9833 396.517 58.83 397.377 58.83C398.191 58.83 398.921 58.9267 399.567 59.12C400.221 59.3067 400.757 59.63 401.177 60.09L400.187 61.22ZM408.835 66.24C408.835 66.68 408.858 67.05 408.905 67.35C408.958 67.6433 409.032 67.8833 409.125 68.07C409.225 68.25 409.345 68.38 409.485 68.46C409.632 68.5333 409.798 68.57 409.985 68.57C410.298 68.57 410.608 68.5333 410.915 68.46C411.222 68.3867 411.508 68.3033 411.775 68.21C412.042 68.11 412.278 68.0133 412.485 67.92C412.692 67.82 412.852 67.7467 412.965 67.7L413.655 68.91C413.595 68.9633 413.448 69.06 413.215 69.2C412.988 69.3333 412.698 69.4733 412.345 69.62C411.998 69.7667 411.605 69.8933 411.165 70C410.725 70.1133 410.265 70.17 409.785 70.17C409.185 70.17 408.702 70.06 408.335 69.84C407.975 69.62 407.698 69.32 407.505 68.94C407.312 68.56 407.185 68.12 407.125 67.62C407.065 67.1133 407.035 66.5733 407.035 66V60.6H404.125V59H407.035V56.91L408.785 55.8V59H413.625L413.425 60.6H408.835V66.24Z" fill="white"/>
<defs>
<linearGradient id="paint0_linear" x1="71.4183" y1="150" x2="71.4183" y2="292.837" gradientUnits="userSpaceOnUse">
<stop stop-color="#137FCE"/>
<stop offset="1" stop-color="#19DADA"/>
</linearGradient>
<linearGradient id="paint1_linear" x1="130.418" y1="99" x2="130.418" y2="241.837" gradientUnits="userSpaceOnUse">
<stop stop-color="#137FCE"/>
<stop offset="1" stop-color="#19DADA"/>
</linearGradient>
</defs>
</svg>
