<svg width="308" height="282" viewBox="0 0 308 282" fill="none" xmlns="http://www.w3.org/2000/svg">
<g filter="url(#filter0_d)">
<rect x="4" width="300" height="274" rx="10" fill="#1F1F1F"/>
</g>
<path d="M98.7188 130.625L102 139.344L105.273 130.625H107.828V142H105.859V138.25L106.055 133.234L102.695 142H101.281L97.9297 133.242L98.125 138.25V142H96.1562V130.625H98.7188ZM129.49 136.609C129.49 137.724 129.297 138.703 128.912 139.547C128.526 140.385 127.974 141.031 127.256 141.484C126.542 141.932 125.719 142.156 124.787 142.156C123.865 142.156 123.042 141.932 122.318 141.484C121.599 141.031 121.042 140.388 120.646 139.555C120.256 138.721 120.058 137.76 120.052 136.672V136.031C120.052 134.922 120.248 133.943 120.638 133.094C121.034 132.245 121.589 131.596 122.302 131.148C123.021 130.695 123.844 130.469 124.771 130.469C125.698 130.469 126.519 130.693 127.232 131.141C127.951 131.583 128.506 132.224 128.896 133.062C129.287 133.896 129.485 134.867 129.49 135.977V136.609ZM127.513 136.016C127.513 134.755 127.274 133.789 126.795 133.117C126.321 132.445 125.646 132.109 124.771 132.109C123.917 132.109 123.248 132.445 122.763 133.117C122.284 133.784 122.039 134.729 122.029 135.953V136.609C122.029 137.859 122.271 138.826 122.756 139.508C123.245 140.19 123.922 140.531 124.787 140.531C125.662 140.531 126.334 140.198 126.802 139.531C127.276 138.865 127.513 137.891 127.513 136.609V136.016ZM141.699 142V130.625H145.597C146.884 130.625 147.863 130.883 148.535 131.398C149.207 131.914 149.542 132.682 149.542 133.703C149.542 134.224 149.402 134.693 149.121 135.109C148.839 135.526 148.428 135.849 147.886 136.078C148.501 136.245 148.975 136.56 149.308 137.023C149.647 137.482 149.816 138.034 149.816 138.68C149.816 139.747 149.472 140.568 148.785 141.141C148.102 141.714 147.123 142 145.847 142H141.699ZM143.675 136.867V140.422H145.871C146.49 140.422 146.975 140.268 147.324 139.961C147.673 139.654 147.847 139.227 147.847 138.68C147.847 137.497 147.243 136.893 146.035 136.867H143.675ZM143.675 135.414H145.613C146.227 135.414 146.707 135.276 147.05 135C147.399 134.719 147.574 134.323 147.574 133.812C147.574 133.25 147.412 132.844 147.089 132.594C146.772 132.344 146.274 132.219 145.597 132.219H143.675V135.414ZM164.118 142H162.15V130.625H164.118V142ZM178.765 140.422H183.929V142H176.788V130.625H178.765V140.422ZM202.333 136.922H197.661V140.422H203.122V142H195.684V130.625H203.067V132.219H197.661V135.359H202.333V136.922ZM102.523 161.352H98.1172L97.1953 164H95.1406L99.4375 152.625H101.211L105.516 164H103.453L102.523 161.352ZM98.6719 159.758H101.969L100.32 155.039L98.6719 159.758ZM119.029 159.773V164H117.052V152.625H121.404C122.675 152.625 123.683 152.956 124.427 153.617C125.177 154.279 125.552 155.154 125.552 156.242C125.552 157.357 125.185 158.224 124.451 158.844C123.722 159.464 122.698 159.773 121.381 159.773H119.029ZM119.029 158.188H121.404C122.107 158.188 122.644 158.023 123.013 157.695C123.383 157.362 123.568 156.883 123.568 156.258C123.568 155.643 123.381 155.154 123.006 154.789C122.631 154.419 122.115 154.229 121.459 154.219H119.029V158.188ZM139.503 159.773V164H137.527V152.625H141.878C143.149 152.625 144.157 152.956 144.902 153.617C145.652 154.279 146.027 155.154 146.027 156.242C146.027 157.357 145.66 158.224 144.925 158.844C144.196 159.464 143.173 159.773 141.855 159.773H139.503ZM139.503 158.188H141.878C142.582 158.188 143.118 158.023 143.488 157.695C143.858 157.362 144.042 156.883 144.042 156.258C144.042 155.643 143.855 155.154 143.48 154.789C143.105 154.419 142.589 154.229 141.933 154.219H139.503V158.188ZM159.978 162.422H165.142V164H158.001V152.625H159.978V162.422ZM178.983 164H177.015V152.625H178.983V164ZM200.333 160.297C200.218 161.51 199.77 162.458 198.989 163.141C198.208 163.818 197.169 164.156 195.872 164.156C194.966 164.156 194.166 163.943 193.473 163.516C192.786 163.083 192.255 162.471 191.88 161.68C191.505 160.888 191.309 159.969 191.294 158.922V157.859C191.294 156.786 191.484 155.841 191.864 155.023C192.244 154.206 192.789 153.576 193.497 153.133C194.21 152.69 195.033 152.469 195.966 152.469C197.221 152.469 198.231 152.81 198.997 153.492C199.762 154.174 200.208 155.138 200.333 156.383H198.364C198.27 155.565 198.031 154.977 197.645 154.617C197.265 154.253 196.705 154.07 195.966 154.07C195.106 154.07 194.445 154.385 193.981 155.016C193.523 155.641 193.289 156.56 193.278 157.773V158.781C193.278 160.01 193.497 160.948 193.934 161.594C194.377 162.24 195.023 162.562 195.872 162.562C196.648 162.562 197.231 162.388 197.622 162.039C198.012 161.69 198.26 161.109 198.364 160.297H200.333ZM102.523 183.352H98.1172L97.1953 186H95.1406L99.4375 174.625H101.211L105.516 186H103.453L102.523 183.352ZM98.6719 181.758H101.969L100.32 177.039L98.6719 181.758ZM124.334 176.219H120.787V186H118.826V176.219H115.31V174.625H124.334V176.219ZM138.16 186H136.191V174.625H138.16V186ZM159.908 180.609C159.908 181.724 159.715 182.703 159.329 183.547C158.944 184.385 158.392 185.031 157.673 185.484C156.96 185.932 156.137 186.156 155.204 186.156C154.283 186.156 153.46 185.932 152.736 185.484C152.017 185.031 151.46 184.388 151.064 183.555C150.673 182.721 150.475 181.76 150.47 180.672V180.031C150.47 178.922 150.665 177.943 151.056 177.094C151.452 176.245 152.006 175.596 152.72 175.148C153.439 174.695 154.262 174.469 155.189 174.469C156.116 174.469 156.936 174.693 157.65 175.141C158.368 175.583 158.923 176.224 159.314 177.062C159.704 177.896 159.902 178.867 159.908 179.977V180.609ZM157.931 180.016C157.931 178.755 157.691 177.789 157.212 177.117C156.738 176.445 156.064 176.109 155.189 176.109C154.335 176.109 153.665 176.445 153.181 177.117C152.702 177.784 152.457 178.729 152.447 179.953V180.609C152.447 181.859 152.689 182.826 153.173 183.508C153.663 184.19 154.34 184.531 155.204 184.531C156.079 184.531 156.751 184.198 157.22 183.531C157.694 182.865 157.931 181.891 157.931 180.609V180.016ZM181.14 186H179.163L174.093 177.93V186H172.116V174.625H174.093L179.179 182.727V174.625H181.14V186Z" fill="white"/>
<path d="M95.8594 109V97.625H99.5234C100.529 97.625 101.432 97.8542 102.234 98.3125C103.036 98.7656 103.661 99.4089 104.109 100.242C104.562 101.07 104.792 102 104.797 103.031V103.555C104.797 104.596 104.576 105.531 104.133 106.359C103.695 107.182 103.076 107.828 102.273 108.297C101.477 108.76 100.586 108.995 99.6016 109H95.8594ZM98.6016 99.7422V106.891H99.5547C100.341 106.891 100.945 106.612 101.367 106.055C101.789 105.492 102 104.659 102 103.555V103.062C102 101.964 101.789 101.135 101.367 100.578C100.945 100.021 100.331 99.7422 99.5234 99.7422H98.6016ZM115.836 103.547C115.836 104.656 115.63 105.638 115.219 106.492C114.807 107.346 114.221 108.005 113.461 108.469C112.706 108.927 111.844 109.156 110.875 109.156C109.906 109.156 109.047 108.935 108.297 108.492C107.547 108.044 106.961 107.406 106.539 106.578C106.122 105.75 105.904 104.799 105.883 103.727V103.086C105.883 101.971 106.086 100.99 106.492 100.141C106.904 99.2865 107.49 98.6276 108.25 98.1641C109.016 97.7005 109.885 97.4688 110.859 97.4688C111.823 97.4688 112.682 97.6979 113.438 98.1562C114.193 98.6146 114.779 99.2682 115.195 100.117C115.617 100.961 115.831 101.93 115.836 103.023V103.547ZM113.047 103.07C113.047 101.94 112.857 101.083 112.477 100.5C112.102 99.9115 111.562 99.6172 110.859 99.6172C109.484 99.6172 108.758 100.648 108.68 102.711L108.672 103.547C108.672 104.661 108.857 105.518 109.227 106.117C109.596 106.716 110.146 107.016 110.875 107.016C111.568 107.016 112.102 106.721 112.477 106.133C112.852 105.544 113.042 104.698 113.047 103.594V103.07ZM126.172 97.625V105.07C126.172 105.914 125.992 106.646 125.633 107.266C125.273 107.88 124.758 108.349 124.086 108.672C123.414 108.995 122.62 109.156 121.703 109.156C120.318 109.156 119.227 108.797 118.43 108.078C117.633 107.359 117.227 106.375 117.211 105.125V97.625H119.969V105.18C120 106.424 120.578 107.047 121.703 107.047C122.271 107.047 122.701 106.891 122.992 106.578C123.284 106.266 123.43 105.758 123.43 105.055V97.625H126.172Z" fill="white"/>
<path d="M99.7031 64.5938H98.7812V76.8125H99.7031V78.7266H96.1406V62.6719H99.7031V64.5938ZM108.406 71.3516C108.406 72.888 108.06 74.0729 107.367 74.9062C106.68 75.7396 105.708 76.1562 104.453 76.1562C103.188 76.1562 102.208 75.737 101.516 74.8984C100.823 74.0599 100.477 72.8776 100.477 71.3516V69.2734C100.477 67.737 100.82 66.5521 101.508 65.7188C102.201 64.8854 103.177 64.4688 104.438 64.4688C105.698 64.4688 106.674 64.888 107.367 65.7266C108.06 66.5651 108.406 67.75 108.406 69.2812V71.3516ZM105.773 68.9375C105.773 68.1198 105.667 67.5104 105.453 67.1094C105.24 66.7031 104.901 66.5 104.438 66.5C103.984 66.5 103.654 66.6875 103.445 67.0625C103.242 67.4375 103.133 68.0052 103.117 68.7656V71.6719C103.117 72.5208 103.224 73.1432 103.438 73.5391C103.651 73.9297 103.99 74.125 104.453 74.125C104.901 74.125 105.232 73.9349 105.445 73.5547C105.659 73.1693 105.768 72.5677 105.773 71.75V68.9375ZM111.445 73.4453C111.862 73.4453 112.208 73.5703 112.484 73.8203C112.76 74.0651 112.898 74.3802 112.898 74.7656C112.898 75.151 112.76 75.4688 112.484 75.7188C112.208 75.9635 111.862 76.0859 111.445 76.0859C111.023 76.0859 110.674 75.9609 110.398 75.7109C110.128 75.4609 109.992 75.1458 109.992 74.7656C109.992 74.3854 110.128 74.0703 110.398 73.8203C110.674 73.5703 111.023 73.4453 111.445 73.4453ZM117.023 69.2109H118.266C119.25 69.2109 119.742 68.7292 119.742 67.7656C119.742 67.3906 119.625 67.0859 119.391 66.8516C119.156 66.612 118.826 66.4922 118.398 66.4922C118.049 66.4922 117.745 66.5938 117.484 66.7969C117.229 67 117.102 67.2526 117.102 67.5547H114.469C114.469 66.9557 114.635 66.4219 114.969 65.9531C115.302 65.4844 115.763 65.1198 116.352 64.8594C116.945 64.5938 117.596 64.4609 118.305 64.4609C119.57 64.4609 120.565 64.75 121.289 65.3281C122.013 65.9062 122.375 66.7005 122.375 67.7109C122.375 68.2005 122.224 68.6641 121.922 69.1016C121.625 69.5339 121.19 69.8854 120.617 70.1562C121.221 70.375 121.695 70.7083 122.039 71.1562C122.383 71.599 122.555 72.1484 122.555 72.8047C122.555 73.8203 122.164 74.6328 121.383 75.2422C120.602 75.8516 119.576 76.1562 118.305 76.1562C117.56 76.1562 116.867 76.0156 116.227 75.7344C115.591 75.4479 115.109 75.0547 114.781 74.5547C114.453 74.0495 114.289 73.4766 114.289 72.8359H116.938C116.938 73.1849 117.078 73.487 117.359 73.7422C117.641 73.9974 117.987 74.125 118.398 74.125C118.862 74.125 119.232 73.9974 119.508 73.7422C119.784 73.4818 119.922 73.151 119.922 72.75C119.922 72.1771 119.779 71.7708 119.492 71.5312C119.206 71.2917 118.81 71.1719 118.305 71.1719H117.023V69.2109ZM123.297 62.6719H126.859V78.7266H123.297V76.8125H124.227V64.5938H123.297V62.6719Z" fill="white"/>
<defs>
<filter id="filter0_d" x="0" y="0" width="308" height="282" filterUnits="userSpaceOnUse" color-interpolation-filters="sRGB">
<feFlood flood-opacity="0" result="BackgroundImageFix"/>
<feColorMatrix in="SourceAlpha" type="matrix" values="0 0 0 0 0 0 0 0 0 0 0 0 0 0 0 0 0 0 127 0"/>
<feOffset dy="4"/>
<feGaussianBlur stdDeviation="2"/>
<feColorMatrix type="matrix" values="0 0 0 0 0 0 0 0 0 0 0 0 0 0 0 0 0 0 0.25 0"/>
<feBlend mode="normal" in2="BackgroundImageFix" result="effect1_dropShadow"/>
<feBlend mode="normal" in="SourceGraphic" in2="effect1_dropShadow" result="shape"/>
</filter>
</defs>
</svg>
