<svg width="308" height="282" viewBox="0 0 308 282" fill="none" xmlns="http://www.w3.org/2000/svg">
<g filter="url(#filter0_d)">
<rect x="4" width="300" height="274" rx="10" fill="#1F1F1F"/>
</g>
<path d="M112.75 150.012C112.75 151.057 112.574 151.97 112.222 152.751C111.871 153.528 111.373 154.121 110.728 154.531C110.083 154.941 109.332 155.146 108.472 155.146C107.632 155.146 106.888 154.941 106.238 154.531C105.589 154.116 105.083 153.528 104.722 152.766C104.366 152 104.183 151.113 104.173 150.107V149.338C104.173 148.313 104.351 147.407 104.708 146.621C105.064 145.835 105.567 145.234 106.216 144.819C106.871 144.399 107.618 144.189 108.458 144.189C109.312 144.189 110.064 144.397 110.713 144.812C111.368 145.222 111.871 145.82 112.222 146.606C112.574 147.388 112.75 148.298 112.75 149.338V150.012ZM111.351 149.324C111.351 148.059 111.097 147.09 110.589 146.416C110.081 145.737 109.371 145.398 108.458 145.398C107.569 145.398 106.868 145.737 106.355 146.416C105.848 147.09 105.586 148.027 105.572 149.229V150.012C105.572 151.238 105.828 152.202 106.341 152.905C106.858 153.604 107.569 153.953 108.472 153.953C109.38 153.953 110.083 153.623 110.582 152.964C111.08 152.3 111.336 151.35 111.351 150.115V149.324ZM132.655 155H131.241L125.872 146.782V155H124.459V144.336H125.872L131.256 152.59V144.336H132.655V155ZM146.166 153.85H151.22V155H144.752V144.336H146.166V153.85ZM163.932 155H162.526V144.336H163.932V155ZM184.306 155H182.893L177.524 146.782V155H176.11V144.336H177.524L182.907 152.59V144.336H184.306V155ZM202.432 150.071H197.81V153.85H203.179V155H196.404V144.336H203.105V145.493H197.81V148.921H202.432V150.071ZM87.3585 172.247C86.1524 171.9 85.2735 171.475 84.7218 170.972C84.1749 170.464 83.9015 169.839 83.9015 169.097C83.9015 168.257 84.2359 167.564 84.9049 167.017C85.5787 166.465 86.4527 166.189 87.527 166.189C88.2594 166.189 88.9112 166.331 89.4825 166.614C90.0587 166.897 90.503 167.288 90.8155 167.786C91.1329 168.284 91.2916 168.829 91.2916 169.419H89.878C89.878 168.775 89.673 168.27 89.2628 167.903C88.8526 167.532 88.274 167.347 87.527 167.347C86.8336 167.347 86.2916 167.5 85.901 167.808C85.5152 168.111 85.3224 168.533 85.3224 169.075C85.3224 169.51 85.5055 169.878 85.8717 170.181C86.2428 170.479 86.8702 170.752 87.754 171.001C88.6427 171.25 89.336 171.526 89.8341 171.829C90.337 172.127 90.7081 172.476 90.9474 172.876C91.1915 173.277 91.3136 173.748 91.3136 174.29C91.3136 175.154 90.9767 175.848 90.3028 176.37C89.629 176.888 88.7281 177.146 87.6002 177.146C86.8678 177.146 86.1842 177.007 85.5494 176.729C84.9146 176.446 84.4239 176.06 84.0772 175.572C83.7355 175.083 83.5646 174.529 83.5646 173.909H84.9781C84.9781 174.554 85.2149 175.064 85.6886 175.44C86.1671 175.811 86.8043 175.997 87.6002 175.997C88.3424 175.997 88.9112 175.845 89.3067 175.542C89.7022 175.24 89.9 174.827 89.9 174.305C89.9 173.782 89.7169 173.379 89.3507 173.096C88.9845 172.808 88.3204 172.525 87.3585 172.247ZM110.918 177H109.505V172.071H104.129V177H102.723V166.336H104.129V170.921H109.505V166.336H110.918V177ZM131.219 172.012C131.219 173.057 131.043 173.97 130.692 174.751C130.34 175.528 129.842 176.121 129.198 176.531C128.553 176.941 127.801 177.146 126.942 177.146C126.102 177.146 125.357 176.941 124.708 176.531C124.058 176.116 123.553 175.528 123.192 174.766C122.835 174 122.652 173.113 122.642 172.107V171.338C122.642 170.313 122.821 169.407 123.177 168.621C123.534 167.835 124.037 167.234 124.686 166.819C125.34 166.399 126.087 166.189 126.927 166.189C127.782 166.189 128.534 166.397 129.183 166.812C129.837 167.222 130.34 167.82 130.692 168.606C131.043 169.388 131.219 170.298 131.219 171.338V172.012ZM129.82 171.324C129.82 170.059 129.566 169.09 129.058 168.416C128.551 167.737 127.84 167.398 126.927 167.398C126.038 167.398 125.338 167.737 124.825 168.416C124.317 169.09 124.056 170.027 124.041 171.229V172.012C124.041 173.238 124.298 174.202 124.81 174.905C125.328 175.604 126.038 175.953 126.942 175.953C127.85 175.953 128.553 175.623 129.051 174.964C129.549 174.3 129.806 173.35 129.82 172.115V171.324ZM144.335 172.825V177H142.929V166.336H146.862C148.029 166.336 148.942 166.634 149.601 167.229C150.265 167.825 150.597 168.614 150.597 169.595C150.597 170.63 150.272 171.429 149.623 171.99C148.978 172.547 148.053 172.825 146.847 172.825H144.335ZM144.335 171.675H146.862C147.614 171.675 148.19 171.5 148.59 171.148C148.991 170.792 149.191 170.279 149.191 169.61C149.191 168.975 148.991 168.467 148.59 168.086C148.19 167.706 147.64 167.508 146.942 167.493H144.335V171.675ZM163.398 172.825V177H161.991V166.336H165.925C167.092 166.336 168.005 166.634 168.664 167.229C169.328 167.825 169.66 168.614 169.66 169.595C169.66 170.63 169.335 171.429 168.686 171.99C168.041 172.547 167.116 172.825 165.91 172.825H163.398ZM163.398 171.675H165.925C166.676 171.675 167.253 171.5 167.653 171.148C168.053 170.792 168.254 170.279 168.254 169.61C168.254 168.975 168.053 168.467 167.653 168.086C167.253 167.706 166.703 167.508 166.005 167.493H163.398V171.675ZM182.563 177H181.157V166.336H182.563V177ZM202.937 177H201.523L196.155 168.782V177H194.741V166.336H196.155L201.538 174.59V166.336H202.937V177ZM222.908 175.601C222.547 176.119 222.041 176.507 221.392 176.766C220.747 177.02 219.996 177.146 219.136 177.146C218.267 177.146 217.496 176.944 216.822 176.539C216.148 176.128 215.625 175.547 215.254 174.795C214.888 174.043 214.7 173.172 214.69 172.181V171.25C214.69 169.644 215.064 168.399 215.811 167.515C216.563 166.631 217.618 166.189 218.975 166.189C220.088 166.189 220.984 166.475 221.663 167.046C222.342 167.613 222.757 168.418 222.908 169.463H221.502C221.238 168.052 220.398 167.347 218.982 167.347C218.04 167.347 217.325 167.679 216.836 168.343C216.353 169.002 216.109 169.959 216.104 171.214V172.085C216.104 173.282 216.377 174.234 216.924 174.942C217.471 175.645 218.211 175.997 219.143 175.997C219.671 175.997 220.132 175.938 220.528 175.821C220.923 175.704 221.25 175.506 221.509 175.228V172.833H219.041V171.69H222.908V175.601Z" fill="white"/>
<path d="M117.749 116.344C117.551 116.307 117.34 116.289 117.116 116.289C116.533 116.289 116.038 116.453 115.632 116.781C115.231 117.104 114.944 117.576 114.772 118.195V124H113.842V115.547H114.757L114.772 116.891C115.267 115.891 116.061 115.391 117.155 115.391C117.415 115.391 117.621 115.424 117.772 115.492L117.749 116.344ZM124.03 124.156C123.312 124.156 122.661 123.979 122.077 123.625C121.499 123.271 121.049 122.779 120.726 122.148C120.403 121.513 120.241 120.802 120.241 120.016V119.68C120.241 118.867 120.397 118.135 120.71 117.484C121.028 116.833 121.468 116.323 122.03 115.953C122.593 115.578 123.202 115.391 123.858 115.391C124.884 115.391 125.697 115.742 126.296 116.445C126.9 117.143 127.202 118.099 127.202 119.312V119.836H121.171V120.016C121.171 120.974 121.444 121.773 121.991 122.414C122.543 123.049 123.236 123.367 124.069 123.367C124.569 123.367 125.009 123.276 125.39 123.094C125.775 122.911 126.124 122.62 126.437 122.219L127.022 122.664C126.335 123.659 125.338 124.156 124.03 124.156ZM123.858 116.188C123.155 116.188 122.562 116.445 122.077 116.961C121.598 117.477 121.306 118.169 121.202 119.039H126.272V118.938C126.246 118.125 126.015 117.464 125.577 116.953C125.14 116.443 124.567 116.188 123.858 116.188ZM130.327 119.695C130.327 118.383 130.619 117.339 131.202 116.562C131.791 115.781 132.588 115.391 133.593 115.391C134.734 115.391 135.604 115.841 136.202 116.742V112H137.132V124H136.257L136.218 122.875C135.619 123.729 134.739 124.156 133.577 124.156C132.604 124.156 131.817 123.766 131.218 122.984C130.624 122.198 130.327 121.138 130.327 119.805V119.695ZM131.273 119.859C131.273 120.938 131.489 121.789 131.921 122.414C132.354 123.034 132.963 123.344 133.749 123.344C134.9 123.344 135.718 122.836 136.202 121.82V117.852C135.718 116.753 134.906 116.203 133.765 116.203C132.979 116.203 132.367 116.513 131.929 117.133C131.492 117.747 131.273 118.656 131.273 119.859ZM144.547 124.156C143.828 124.156 143.177 123.979 142.593 123.625C142.015 123.271 141.565 122.779 141.242 122.148C140.919 121.513 140.757 120.802 140.757 120.016V119.68C140.757 118.867 140.914 118.135 141.226 117.484C141.544 116.833 141.984 116.323 142.547 115.953C143.109 115.578 143.718 115.391 144.375 115.391C145.401 115.391 146.213 115.742 146.812 116.445C147.416 117.143 147.718 118.099 147.718 119.312V119.836H141.687V120.016C141.687 120.974 141.961 121.773 142.507 122.414C143.06 123.049 143.752 123.367 144.586 123.367C145.086 123.367 145.526 123.276 145.906 123.094C146.291 122.911 146.64 122.62 146.953 122.219L147.539 122.664C146.851 123.659 145.854 124.156 144.547 124.156ZM144.375 116.188C143.672 116.188 143.078 116.445 142.593 116.961C142.114 117.477 141.823 118.169 141.718 119.039H146.789V118.938C146.763 118.125 146.531 117.464 146.093 116.953C145.656 116.443 145.083 116.188 144.375 116.188ZM151.781 124V116.312H150.375V115.547H151.781V114.68C151.781 113.779 152.026 113.081 152.516 112.586C153.005 112.086 153.695 111.836 154.586 111.836C155.284 111.836 156.003 111.99 156.742 112.297L156.586 113.102C155.951 112.826 155.305 112.688 154.648 112.688C153.362 112.688 152.719 113.357 152.719 114.695V115.547H154.695V116.312H152.719V124H151.781ZM157.25 124H156.312V115.547H157.25V124ZM162.383 115.547L162.414 116.992C162.732 116.471 163.128 116.076 163.602 115.805C164.076 115.529 164.599 115.391 165.172 115.391C166.078 115.391 166.753 115.646 167.196 116.156C167.638 116.667 167.862 117.432 167.868 118.453V124H166.938V118.445C166.933 117.69 166.771 117.128 166.453 116.758C166.141 116.388 165.638 116.203 164.946 116.203C164.368 116.203 163.854 116.385 163.407 116.75C162.964 117.109 162.636 117.596 162.422 118.211V124H161.493V115.547H162.383ZM173.016 124H172.079V115.547H173.016V124ZM171.915 113.102C171.915 112.924 171.972 112.776 172.087 112.656C172.201 112.531 172.357 112.469 172.555 112.469C172.753 112.469 172.909 112.531 173.024 112.656C173.144 112.776 173.204 112.924 173.204 113.102C173.204 113.279 173.144 113.427 173.024 113.547C172.909 113.667 172.753 113.727 172.555 113.727C172.357 113.727 172.201 113.667 172.087 113.547C171.972 113.427 171.915 113.279 171.915 113.102ZM178.134 115.547L178.165 116.992C178.483 116.471 178.879 116.076 179.352 115.805C179.826 115.529 180.35 115.391 180.923 115.391C181.829 115.391 182.504 115.646 182.946 116.156C183.389 116.667 183.613 117.432 183.618 118.453V124H182.688V118.445C182.683 117.69 182.522 117.128 182.204 116.758C181.892 116.388 181.389 116.203 180.696 116.203C180.118 116.203 179.605 116.385 179.157 116.75C178.714 117.109 178.386 117.596 178.173 118.211V124H177.243V115.547H178.134ZM187.345 119.695C187.345 118.372 187.637 117.326 188.22 116.555C188.809 115.779 189.605 115.391 190.611 115.391C191.762 115.391 192.637 115.849 193.236 116.766L193.283 115.547H194.158V123.828C194.158 124.917 193.853 125.779 193.243 126.414C192.634 127.049 191.809 127.367 190.767 127.367C190.178 127.367 189.616 127.234 189.079 126.969C188.548 126.708 188.129 126.359 187.822 125.922L188.345 125.359C189.006 126.172 189.793 126.578 190.704 126.578C191.486 126.578 192.095 126.346 192.533 125.883C192.97 125.424 193.197 124.786 193.212 123.969V122.906C192.613 123.74 191.741 124.156 190.595 124.156C189.616 124.156 188.829 123.766 188.236 122.984C187.642 122.203 187.345 121.148 187.345 119.82V119.695ZM188.29 119.859C188.29 120.938 188.506 121.789 188.939 122.414C189.371 123.034 189.98 123.344 190.767 123.344C191.918 123.344 192.733 122.828 193.212 121.797V117.867C192.993 117.326 192.678 116.914 192.267 116.633C191.855 116.346 191.361 116.203 190.783 116.203C189.996 116.203 189.384 116.513 188.947 117.133C188.509 117.747 188.29 118.656 188.29 119.859Z" fill="white"/>
<path d="M162.083 74.9762V70.1441C162.096 67.9577 161.222 65.8553 159.663 64.3223C158.156 62.8215 156.183 62 154.094 62C154.061 62 154.023 62 153.99 62C149.533 62.0065 145.911 65.6548 145.911 70.1441V74.9762C144.229 75.1767 143 76.5869 143 78.2946V89.1491C143 90.9927 144.475 92.5128 146.318 92.5128H161.682C163.525 92.5128 165 90.9927 165 89.1491V78.2946C164.994 76.5934 163.764 75.1767 162.083 74.9762ZM147.198 70.1441H147.205C147.205 66.3664 150.251 63.2743 153.997 63.2743H154.003C155.782 63.2679 157.49 63.9729 158.751 65.2279C160.064 66.5281 160.795 68.3005 160.782 70.1441V74.9827H159.359V70.1441C159.372 68.6757 158.79 67.2655 157.749 66.2305C156.765 65.2473 155.433 64.691 154.042 64.691H154.003C151.028 64.691 148.621 67.1361 148.621 70.1376V74.9827H147.198V70.1441ZM158.072 70.1441V74.9827H149.921V70.1441C149.921 67.8542 151.746 65.9912 154.01 65.9912H154.049C155.096 65.9912 156.106 66.4116 156.849 67.1555C157.639 67.9447 158.085 69.025 158.072 70.1441ZM163.764 89.1685C163.764 90.3005 162.846 91.2191 161.714 91.2191H146.344C145.212 91.2191 144.294 90.3005 144.294 89.1685V78.327C144.294 77.1949 145.212 76.2764 146.344 76.2764H161.714C162.846 76.2764 163.764 77.1949 163.764 78.327V89.1685Z" fill="white"/>
<path d="M156.237 83.3465C155.953 82.3439 155.041 81.6582 153.999 81.6582C152.712 81.6582 151.664 82.6997 151.664 83.9934C151.664 85.0349 152.35 85.9469 153.352 86.2316V88.0428C153.352 88.3986 153.643 88.6897 153.999 88.6897C154.355 88.6897 154.646 88.3986 154.646 88.0428V86.2316C155.882 85.8758 156.6 84.582 156.237 83.3465ZM153.999 85.0284C153.424 85.0284 152.958 84.5626 152.958 83.9869C152.958 83.4112 153.424 82.9455 153.999 82.9455C154.575 82.9455 155.041 83.4112 155.041 83.9869C155.041 84.5626 154.575 85.0284 153.999 85.0284Z" fill="white"/>
<defs>
<filter id="filter0_d" x="0" y="0" width="308" height="282" filterUnits="userSpaceOnUse" color-interpolation-filters="sRGB">
<feFlood flood-opacity="0" result="BackgroundImageFix"/>
<feColorMatrix in="SourceAlpha" type="matrix" values="0 0 0 0 0 0 0 0 0 0 0 0 0 0 0 0 0 0 127 0"/>
<feOffset dy="4"/>
<feGaussianBlur stdDeviation="2"/>
<feColorMatrix type="matrix" values="0 0 0 0 0 0 0 0 0 0 0 0 0 0 0 0 0 0 0.25 0"/>
<feBlend mode="normal" in2="BackgroundImageFix" result="effect1_dropShadow"/>
<feBlend mode="normal" in="SourceGraphic" in2="effect1_dropShadow" result="shape"/>
</filter>
</defs>
</svg>
