<svg width="1441" height="1007" viewBox="0 0 1441 1007" fill="none" xmlns="http://www.w3.org/2000/svg">
<rect width="1440" height="1007" fill="#A8271F"/>
<path d="M1439.98 136C1439.98 136 1422.48 179 1402.98 209.5C1383.48 240 1342.48 266.5 1322.48 270C1302.48 273.5 1259.98 199 1241.98 298.5C1223.98 398 1199.98 346.5 1171.48 347C1142.98 347.5 1065.48 362 1126.48 375.5C1187.48 389 1109.98 384.5 1092.98 419.5C1075.98 454.5 1062.98 531.5 1062.98 531.5C1062.98 531.5 1037.48 577 970.477 577C903.476 577 888.977 540 877.977 510C866.977 480 888.977 409.5 913.477 389C937.977 368.5 986.477 257 958.477 240C930.477 223 885.977 280 847.977 280C809.977 280 775.977 362 728.977 375.5C681.977 389 682.977 493 711.977 521.5C740.977 550 724.477 659 711.977 682.5C699.477 706 652.477 718 631.477 706C610.477 694 668.977 632.5 681.977 577C694.977 521.5 580.977 496.5 596.477 474.5C611.977 452.5 528.477 347.5 465.476 434.5C402.476 521.5 506.977 652.5 523.977 550C540.977 447.5 561.477 444 596.477 444.5C631.477 445 623.477 305 596.477 298.5C569.477 292 551.477 339 549.477 389C547.477 439 566.977 706.5 480.476 652.5C393.976 598.5 471.476 280 419.976 280C368.477 280 337.977 364.5 339.476 419.5C340.976 474.5 380.976 706 419.976 706C458.977 706 437.476 521.5 408.476 510C379.477 498.5 252.976 682.5 287.476 706C321.977 729.5 365.976 682.5 373.476 652.5C380.977 622.5 351.976 531.5 321.476 521.5C290.977 511.5 292.976 514.5 230.976 531.5C168.976 548.5 270.976 697.5 230.976 682.5C190.976 667.5 136.476 610.5 129.977 550C123.477 489.5 208.977 434.5 243.977 454.5C278.977 474.5 277.477 557.5 287.476 563.5C297.476 569.5 287.477 598.5 243.977 632.5C200.477 666.5 165.477 563.5 165.477 563.5C165.477 563.5 213.977 339 243.977 339C273.977 339 339.476 454.5 321.476 488C303.476 521.5 240.977 488.5 208.977 510C176.977 531.5 162.002 701 118.502 736C75.0017 771 29.3329 675.5 35.9766 598.5C42.6203 521.5 233.477 394.5 176.977 419.5C120.476 444.5 168.476 280 230.976 298.5C293.476 317 105.477 350.5 86.4765 402.5C67.4763 454.5 103.477 486 102.977 531.5C102.476 577 101.001 859.5 60.0017 853C19.0019 846.5 70.9766 320.5 35.9766 298.5C0.976585 276.5 35.9766 853 35.9776 921.5C35.9786 990 3.5 1006.5 3.5 1006.5" stroke="#04152A"/>
</svg>
