<svg width="308" height="282" viewBox="0 0 308 282" fill="none" xmlns="http://www.w3.org/2000/svg">
<g filter="url(#filter0_d)">
<rect x="4" width="300" height="274" rx="10" fill="#1F1F1F"/>
</g>
<path d="M102.112 150.825V155H100.706V144.336H104.639C105.806 144.336 106.719 144.634 107.378 145.229C108.042 145.825 108.374 146.614 108.374 147.595C108.374 148.63 108.05 149.429 107.4 149.99C106.756 150.547 105.83 150.825 104.624 150.825H102.112ZM102.112 149.675H104.639C105.391 149.675 105.967 149.5 106.367 149.148C106.768 148.792 106.968 148.279 106.968 147.61C106.968 146.975 106.768 146.467 106.367 146.086C105.967 145.706 105.418 145.508 104.72 145.493H102.112V149.675ZM127.276 144.336V151.587C127.271 152.593 126.954 153.416 126.324 154.055C125.699 154.695 124.849 155.054 123.775 155.132L123.402 155.146C122.235 155.146 121.304 154.832 120.611 154.202C119.918 153.572 119.566 152.705 119.556 151.602V144.336H120.948V151.558C120.948 152.329 121.16 152.93 121.585 153.359C122.01 153.784 122.615 153.997 123.402 153.997C124.197 153.997 124.805 153.784 125.225 153.359C125.65 152.935 125.862 152.336 125.862 151.565V144.336H127.276ZM139.095 155V144.336H142.582C143.739 144.336 144.608 144.575 145.189 145.054C145.775 145.532 146.068 146.24 146.068 147.178C146.068 147.676 145.926 148.118 145.643 148.503C145.36 148.884 144.974 149.18 144.486 149.39C145.062 149.551 145.516 149.858 145.848 150.312C146.185 150.762 146.354 151.299 146.354 151.924C146.354 152.881 146.044 153.633 145.423 154.18C144.803 154.727 143.927 155 142.794 155H139.095ZM140.502 150.012V153.85H142.823C143.478 153.85 143.993 153.682 144.369 153.345C144.75 153.003 144.94 152.534 144.94 151.938C144.94 150.654 144.242 150.012 142.845 150.012H140.502ZM140.502 148.884H142.626C143.241 148.884 143.732 148.73 144.098 148.423C144.469 148.115 144.654 147.698 144.654 147.17C144.654 146.584 144.483 146.16 144.142 145.896C143.8 145.627 143.28 145.493 142.582 145.493H140.502V148.884ZM159.455 153.85H164.508V155H158.041V144.336H159.455V153.85ZM177.221 155H175.815V144.336H177.221V155ZM197.243 151.616C197.112 152.744 196.694 153.616 195.991 154.231C195.293 154.841 194.363 155.146 193.2 155.146C191.941 155.146 190.93 154.695 190.168 153.792C189.411 152.888 189.033 151.68 189.033 150.166V149.141C189.033 148.149 189.209 147.278 189.56 146.526C189.917 145.774 190.42 145.198 191.069 144.797C191.719 144.392 192.471 144.189 193.325 144.189C194.458 144.189 195.366 144.507 196.05 145.142C196.733 145.771 197.131 146.646 197.243 147.764H195.83C195.708 146.914 195.442 146.299 195.032 145.918C194.626 145.537 194.057 145.347 193.325 145.347C192.427 145.347 191.721 145.679 191.208 146.343C190.7 147.007 190.447 147.952 190.447 149.177V150.21C190.447 151.367 190.688 152.288 191.172 152.971C191.655 153.655 192.331 153.997 193.2 153.997C193.982 153.997 194.58 153.821 194.995 153.469C195.415 153.113 195.693 152.495 195.83 151.616H197.243ZM102.764 173.217H98.2962L97.2928 176H95.8426L99.9148 165.336H101.145L105.225 176H103.782L102.764 173.217ZM98.721 172.06H102.346L100.53 167.072L98.721 172.06ZM120.172 171.686H117.667V176H116.253V165.336H119.783C120.985 165.336 121.907 165.609 122.552 166.156C123.201 166.703 123.526 167.499 123.526 168.544C123.526 169.208 123.345 169.787 122.984 170.28C122.628 170.773 122.13 171.142 121.49 171.386L123.995 175.912V176H122.486L120.172 171.686ZM117.667 170.536H119.827C120.526 170.536 121.08 170.355 121.49 169.994C121.905 169.633 122.112 169.149 122.112 168.544C122.112 167.885 121.915 167.379 121.519 167.028C121.129 166.676 120.562 166.498 119.82 166.493H117.667V170.536ZM141.886 166.493H138.458V176H137.059V166.493H133.639V165.336H141.886V166.493ZM154.577 176H153.17V165.336H154.577V176ZM169.897 171.247C168.691 170.9 167.812 170.475 167.26 169.972C166.713 169.464 166.44 168.839 166.44 168.097C166.44 167.257 166.774 166.564 167.443 166.017C168.117 165.465 168.991 165.189 170.065 165.189C170.798 165.189 171.45 165.331 172.021 165.614C172.597 165.897 173.041 166.288 173.354 166.786C173.671 167.284 173.83 167.829 173.83 168.419H172.416C172.416 167.775 172.211 167.27 171.801 166.903C171.391 166.532 170.812 166.347 170.065 166.347C169.372 166.347 168.83 166.5 168.439 166.808C168.054 167.111 167.861 167.533 167.861 168.075C167.861 168.51 168.044 168.878 168.41 169.181C168.781 169.479 169.409 169.752 170.292 170.001C171.181 170.25 171.874 170.526 172.372 170.829C172.875 171.127 173.246 171.476 173.486 171.876C173.73 172.277 173.852 172.748 173.852 173.29C173.852 174.154 173.515 174.848 172.841 175.37C172.167 175.888 171.267 176.146 170.139 176.146C169.406 176.146 168.723 176.007 168.088 175.729C167.453 175.446 166.962 175.06 166.616 174.572C166.274 174.083 166.103 173.529 166.103 172.909H167.517C167.517 173.554 167.753 174.064 168.227 174.44C168.705 174.811 169.343 174.997 170.139 174.997C170.881 174.997 171.45 174.845 171.845 174.542C172.241 174.24 172.438 173.827 172.438 173.305C172.438 172.782 172.255 172.379 171.889 172.096C171.523 171.808 170.859 171.525 169.897 171.247ZM192.629 166.493H189.201V176H187.803V166.493H184.382V165.336H192.629V166.493ZM206.836 171.247C205.63 170.9 204.751 170.475 204.199 169.972C203.653 169.464 203.379 168.839 203.379 168.097C203.379 167.257 203.714 166.564 204.383 166.017C205.056 165.465 205.93 165.189 207.005 165.189C207.737 165.189 208.389 165.331 208.96 165.614C209.536 165.897 209.981 166.288 210.293 166.786C210.611 167.284 210.769 167.829 210.769 168.419H209.356C209.356 167.775 209.151 167.27 208.74 166.903C208.33 166.532 207.752 166.347 207.005 166.347C206.311 166.347 205.769 166.5 205.379 166.808C204.993 167.111 204.8 167.533 204.8 168.075C204.8 168.51 204.983 168.878 205.349 169.181C205.72 169.479 206.348 169.752 207.232 170.001C208.12 170.25 208.814 170.526 209.312 170.829C209.815 171.127 210.186 171.476 210.425 171.876C210.669 172.277 210.791 172.748 210.791 173.29C210.791 174.154 210.454 174.848 209.78 175.37C209.107 175.888 208.206 176.146 207.078 176.146C206.345 176.146 205.662 176.007 205.027 175.729C204.392 175.446 203.902 175.06 203.555 174.572C203.213 174.083 203.042 173.529 203.042 172.909H204.456C204.456 173.554 204.693 174.064 205.166 174.44C205.645 174.811 206.282 174.997 207.078 174.997C207.82 174.997 208.389 174.845 208.784 174.542C209.18 174.24 209.378 173.827 209.378 173.305C209.378 172.782 209.195 172.379 208.828 172.096C208.462 171.808 207.798 171.525 206.836 171.247Z" fill="white"/>
<path d="M99.6153 122.93C99.0528 123.747 98.1544 124.156 96.92 124.156C96.019 124.156 95.3341 123.896 94.8653 123.375C94.3966 122.849 94.157 122.073 94.1466 121.047V115.547H95.0763V120.93C95.0763 122.539 95.7273 123.344 97.0294 123.344C98.3835 123.344 99.2403 122.784 99.5997 121.664V115.547H100.537V124H99.6309L99.6153 122.93ZM105.545 115.547L105.577 116.992C105.894 116.471 106.29 116.076 106.764 115.805C107.238 115.529 107.761 115.391 108.334 115.391C109.241 115.391 109.915 115.646 110.358 116.156C110.801 116.667 111.024 117.432 111.03 118.453V124H110.1V118.445C110.095 117.69 109.933 117.128 109.616 116.758C109.303 116.388 108.801 116.203 108.108 116.203C107.53 116.203 107.017 116.385 106.569 116.75C106.126 117.109 105.798 117.596 105.584 118.211V124H104.655V115.547H105.545ZM114.757 119.695C114.757 118.383 115.048 117.339 115.632 116.562C116.22 115.781 117.017 115.391 118.022 115.391C119.163 115.391 120.033 115.841 120.632 116.742V112H121.561V124H120.686L120.647 122.875C120.048 123.729 119.168 124.156 118.007 124.156C117.033 124.156 116.246 123.766 115.647 122.984C115.053 122.198 114.757 121.138 114.757 119.805V119.695ZM115.702 119.859C115.702 120.938 115.918 121.789 116.35 122.414C116.783 123.034 117.392 123.344 118.178 123.344C119.329 123.344 120.147 122.836 120.632 121.82V117.852C120.147 116.753 119.335 116.203 118.194 116.203C117.408 116.203 116.796 116.513 116.358 117.133C115.921 117.747 115.702 118.656 115.702 119.859ZM128.976 124.156C128.257 124.156 127.606 123.979 127.022 123.625C126.444 123.271 125.994 122.779 125.671 122.148C125.348 121.513 125.187 120.802 125.187 120.016V119.68C125.187 118.867 125.343 118.135 125.655 117.484C125.973 116.833 126.413 116.323 126.976 115.953C127.538 115.578 128.147 115.391 128.804 115.391C129.83 115.391 130.642 115.742 131.241 116.445C131.845 117.143 132.147 118.099 132.147 119.312V119.836H126.116V120.016C126.116 120.974 126.39 121.773 126.937 122.414C127.489 123.049 128.181 123.367 129.015 123.367C129.515 123.367 129.955 123.276 130.335 123.094C130.72 122.911 131.069 122.62 131.382 122.219L131.968 122.664C131.28 123.659 130.283 124.156 128.976 124.156ZM128.804 116.188C128.101 116.188 127.507 116.445 127.022 116.961C126.543 117.477 126.252 118.169 126.147 119.039H131.218V118.938C131.192 118.125 130.96 117.464 130.522 116.953C130.085 116.443 129.512 116.188 128.804 116.188ZM139.554 116.344C139.356 116.307 139.145 116.289 138.921 116.289C138.338 116.289 137.843 116.453 137.437 116.781C137.036 117.104 136.749 117.576 136.578 118.195V124H135.648V115.547H136.562L136.578 116.891C137.072 115.891 137.867 115.391 138.96 115.391C139.221 115.391 139.426 115.424 139.578 115.492L139.554 116.344ZM147.781 121.852C147.781 121.388 147.593 121.016 147.218 120.734C146.849 120.453 146.289 120.234 145.539 120.078C144.789 119.917 144.205 119.734 143.789 119.531C143.377 119.323 143.07 119.07 142.867 118.773C142.669 118.477 142.57 118.117 142.57 117.695C142.57 117.029 142.849 116.479 143.406 116.047C143.963 115.609 144.677 115.391 145.547 115.391C146.489 115.391 147.244 115.625 147.812 116.094C148.385 116.557 148.672 117.164 148.672 117.914H147.734C147.734 117.419 147.526 117.008 147.109 116.68C146.698 116.352 146.177 116.188 145.547 116.188C144.932 116.188 144.437 116.326 144.062 116.602C143.692 116.872 143.508 117.227 143.508 117.664C143.508 118.086 143.661 118.414 143.968 118.648C144.281 118.878 144.846 119.089 145.664 119.281C146.487 119.474 147.101 119.68 147.508 119.898C147.919 120.117 148.224 120.38 148.422 120.688C148.619 120.995 148.718 121.367 148.718 121.805C148.718 122.518 148.429 123.089 147.851 123.516C147.278 123.943 146.528 124.156 145.601 124.156C144.617 124.156 143.817 123.919 143.203 123.445C142.593 122.966 142.289 122.362 142.289 121.633H143.226C143.263 122.18 143.492 122.607 143.914 122.914C144.341 123.216 144.903 123.367 145.601 123.367C146.252 123.367 146.778 123.224 147.179 122.938C147.58 122.651 147.781 122.289 147.781 121.852ZM153.961 113.383V115.547H155.711V116.312H153.961V121.945C153.961 122.414 154.044 122.763 154.211 122.992C154.383 123.221 154.667 123.336 155.062 123.336C155.219 123.336 155.471 123.31 155.82 123.258L155.859 124.023C155.615 124.112 155.281 124.156 154.859 124.156C154.219 124.156 153.753 123.971 153.461 123.602C153.169 123.227 153.023 122.677 153.023 121.953V116.312H151.469V115.547H153.023V113.383H153.961ZM164.664 124C164.571 123.734 164.511 123.341 164.485 122.82C164.157 123.247 163.737 123.578 163.227 123.812C162.722 124.042 162.185 124.156 161.618 124.156C160.805 124.156 160.146 123.93 159.641 123.477C159.141 123.023 158.891 122.451 158.891 121.758C158.891 120.935 159.232 120.284 159.914 119.805C160.602 119.326 161.558 119.086 162.782 119.086H164.477V118.125C164.477 117.521 164.289 117.047 163.914 116.703C163.545 116.354 163.003 116.18 162.289 116.18C161.638 116.18 161.099 116.346 160.672 116.68C160.245 117.013 160.032 117.414 160.032 117.883L159.094 117.875C159.094 117.203 159.407 116.622 160.032 116.133C160.657 115.638 161.425 115.391 162.336 115.391C163.279 115.391 164.021 115.628 164.563 116.102C165.11 116.57 165.391 117.227 165.407 118.07V122.07C165.407 122.888 165.493 123.5 165.664 123.906V124H164.664ZM161.727 123.328C162.352 123.328 162.909 123.177 163.399 122.875C163.894 122.573 164.253 122.169 164.477 121.664V119.805H162.805C161.873 119.815 161.144 119.987 160.618 120.32C160.091 120.648 159.828 121.102 159.828 121.68C159.828 122.154 160.003 122.547 160.352 122.859C160.706 123.172 161.164 123.328 161.727 123.328ZM170.477 115.547L170.508 116.992C170.826 116.471 171.222 116.076 171.696 115.805C172.17 115.529 172.693 115.391 173.266 115.391C174.173 115.391 174.847 115.646 175.29 116.156C175.732 116.667 175.956 117.432 175.962 118.453V124H175.032V118.445C175.027 117.69 174.865 117.128 174.548 116.758C174.235 116.388 173.732 116.203 173.04 116.203C172.462 116.203 171.949 116.385 171.501 116.75C171.058 117.109 170.73 117.596 170.516 118.211V124H169.587V115.547H170.477ZM179.688 119.695C179.688 118.383 179.98 117.339 180.563 116.562C181.152 115.781 181.949 115.391 182.954 115.391C184.095 115.391 184.964 115.841 185.563 116.742V112H186.493V124H185.618L185.579 122.875C184.98 123.729 184.1 124.156 182.938 124.156C181.964 124.156 181.178 123.766 180.579 122.984C179.985 122.198 179.688 121.138 179.688 119.805V119.695ZM180.634 119.859C180.634 120.938 180.85 121.789 181.282 122.414C181.714 123.034 182.324 123.344 183.11 123.344C184.261 123.344 185.079 122.836 185.563 121.82V117.852C185.079 116.753 184.267 116.203 183.126 116.203C182.339 116.203 181.728 116.513 181.29 117.133C180.853 117.747 180.634 118.656 180.634 119.859ZM191.681 124H190.743V115.547H191.681V124ZM190.579 113.102C190.579 112.924 190.637 112.776 190.751 112.656C190.866 112.531 191.022 112.469 191.22 112.469C191.418 112.469 191.574 112.531 191.689 112.656C191.809 112.776 191.868 112.924 191.868 113.102C191.868 113.279 191.809 113.427 191.689 113.547C191.574 113.667 191.418 113.727 191.22 113.727C191.022 113.727 190.866 113.667 190.751 113.547C190.637 113.427 190.579 113.279 190.579 113.102ZM196.798 115.547L196.83 116.992C197.147 116.471 197.543 116.076 198.017 115.805C198.491 115.529 199.015 115.391 199.587 115.391C200.494 115.391 201.168 115.646 201.611 116.156C202.054 116.667 202.278 117.432 202.283 118.453V124H201.353V118.445C201.348 117.69 201.186 117.128 200.869 116.758C200.556 116.388 200.054 116.203 199.361 116.203C198.783 116.203 198.27 116.385 197.822 116.75C197.379 117.109 197.051 117.596 196.837 118.211V124H195.908V115.547H196.798ZM206.01 119.695C206.01 118.372 206.301 117.326 206.885 116.555C207.473 115.779 208.27 115.391 209.275 115.391C210.426 115.391 211.301 115.849 211.9 116.766L211.947 115.547H212.822V123.828C212.822 124.917 212.518 125.779 211.908 126.414C211.299 127.049 210.473 127.367 209.432 127.367C208.843 127.367 208.281 127.234 207.744 126.969C207.213 126.708 206.794 126.359 206.486 125.922L207.01 125.359C207.671 126.172 208.458 126.578 209.369 126.578C210.15 126.578 210.76 126.346 211.197 125.883C211.635 125.424 211.861 124.786 211.877 123.969V122.906C211.278 123.74 210.406 124.156 209.26 124.156C208.281 124.156 207.494 123.766 206.9 122.984C206.307 122.203 206.01 121.148 206.01 119.82V119.695ZM206.955 119.859C206.955 120.938 207.171 121.789 207.603 122.414C208.036 123.034 208.645 123.344 209.432 123.344C210.583 123.344 211.398 122.828 211.877 121.797V117.867C211.658 117.326 211.343 116.914 210.932 116.633C210.52 116.346 210.025 116.203 209.447 116.203C208.661 116.203 208.049 116.513 207.611 117.133C207.174 117.747 206.955 118.656 206.955 119.859Z" fill="white"/>
<path d="M162.083 74.9762V70.1441C162.096 67.9577 161.222 65.8553 159.663 64.3223C158.156 62.8215 156.183 62 154.094 62C154.061 62 154.023 62 153.99 62C149.533 62.0065 145.911 65.6548 145.911 70.1441V74.9762C144.229 75.1767 143 76.5869 143 78.2946V89.1491C143 90.9927 144.475 92.5128 146.318 92.5128H161.682C163.525 92.5128 165 90.9927 165 89.1491V78.2946C164.994 76.5934 163.764 75.1767 162.083 74.9762ZM147.198 70.1441H147.205C147.205 66.3664 150.251 63.2743 153.997 63.2743H154.003C155.782 63.2679 157.49 63.9729 158.751 65.2279C160.064 66.5281 160.795 68.3005 160.782 70.1441V74.9827H159.359V70.1441C159.372 68.6757 158.79 67.2655 157.749 66.2305C156.765 65.2473 155.433 64.691 154.042 64.691H154.003C151.028 64.691 148.621 67.1361 148.621 70.1376V74.9827H147.198V70.1441ZM158.072 70.1441V74.9827H149.921V70.1441C149.921 67.8542 151.746 65.9912 154.01 65.9912H154.049C155.096 65.9912 156.106 66.4116 156.849 67.1555C157.639 67.9447 158.085 69.025 158.072 70.1441ZM163.764 89.1685C163.764 90.3005 162.846 91.2191 161.714 91.2191H146.344C145.212 91.2191 144.294 90.3005 144.294 89.1685V78.327C144.294 77.1949 145.212 76.2764 146.344 76.2764H161.714C162.846 76.2764 163.764 77.1949 163.764 78.327V89.1685Z" fill="white"/>
<path d="M156.237 83.3465C155.953 82.3439 155.041 81.6582 153.999 81.6582C152.712 81.6582 151.664 82.6997 151.664 83.9934C151.664 85.0349 152.35 85.9469 153.352 86.2316V88.0428C153.352 88.3986 153.643 88.6897 153.999 88.6897C154.355 88.6897 154.646 88.3986 154.646 88.0428V86.2316C155.882 85.8758 156.6 84.582 156.237 83.3465ZM153.999 85.0284C153.424 85.0284 152.958 84.5626 152.958 83.9869C152.958 83.4112 153.424 82.9455 153.999 82.9455C154.575 82.9455 155.041 83.4112 155.041 83.9869C155.041 84.5626 154.575 85.0284 153.999 85.0284Z" fill="white"/>
<defs>
<filter id="filter0_d" x="0" y="0" width="308" height="282" filterUnits="userSpaceOnUse" color-interpolation-filters="sRGB">
<feFlood flood-opacity="0" result="BackgroundImageFix"/>
<feColorMatrix in="SourceAlpha" type="matrix" values="0 0 0 0 0 0 0 0 0 0 0 0 0 0 0 0 0 0 127 0"/>
<feOffset dy="4"/>
<feGaussianBlur stdDeviation="2"/>
<feColorMatrix type="matrix" values="0 0 0 0 0 0 0 0 0 0 0 0 0 0 0 0 0 0 0.25 0"/>
<feBlend mode="normal" in2="BackgroundImageFix" result="effect1_dropShadow"/>
<feBlend mode="normal" in="SourceGraphic" in2="effect1_dropShadow" result="shape"/>
</filter>
</defs>
</svg>
