<svg width="308" height="282" viewBox="0 0 308 282" fill="none" xmlns="http://www.w3.org/2000/svg">
<g filter="url(#filter0_d)">
<rect x="4" width="300" height="274" rx="10" fill="#1F1F1F"/>
</g>
<path d="M104.477 130.625V138.227C104.477 139.435 104.089 140.393 103.312 141.102C102.542 141.805 101.513 142.156 100.227 142.156C98.9245 142.156 97.8906 141.81 97.125 141.117C96.3594 140.419 95.9766 139.453 95.9766 138.219V130.625H97.9453V138.234C97.9453 138.995 98.138 139.576 98.5234 139.977C98.9089 140.378 99.4766 140.578 100.227 140.578C101.747 140.578 102.508 139.776 102.508 138.172V130.625H104.477ZM120.748 134.734L123.138 130.625H125.42L121.982 136.266L125.498 142H123.193L120.748 137.828L118.295 142H115.998L119.521 136.266L116.076 130.625H118.357L120.748 134.734ZM96.1562 164V152.625H99.5156C100.521 152.625 101.411 152.849 102.188 153.297C102.969 153.745 103.573 154.38 104 155.203C104.427 156.026 104.641 156.969 104.641 158.031V158.602C104.641 159.68 104.424 160.628 103.992 161.445C103.565 162.263 102.953 162.893 102.156 163.336C101.365 163.779 100.456 164 99.4297 164H96.1562ZM98.1328 154.219V162.422H99.4219C100.458 162.422 101.253 162.099 101.805 161.453C102.362 160.802 102.646 159.87 102.656 158.656V158.023C102.656 156.789 102.388 155.846 101.852 155.195C101.315 154.544 100.536 154.219 99.5156 154.219H98.1328ZM123.498 158.922H118.826V162.422H124.287V164H116.849V152.625H124.232V154.219H118.826V157.359H123.498V158.922ZM142.082 161.07C142.082 160.57 141.904 160.185 141.55 159.914C141.201 159.643 140.569 159.37 139.652 159.094C138.735 158.818 138.006 158.51 137.464 158.172C136.428 157.521 135.91 156.672 135.91 155.625C135.91 154.708 136.282 153.953 137.027 153.359C137.777 152.766 138.748 152.469 139.941 152.469C140.733 152.469 141.438 152.615 142.058 152.906C142.678 153.198 143.165 153.615 143.519 154.156C143.873 154.693 144.05 155.289 144.05 155.945H142.082C142.082 155.352 141.894 154.888 141.519 154.555C141.149 154.216 140.618 154.047 139.925 154.047C139.279 154.047 138.777 154.185 138.417 154.461C138.063 154.737 137.886 155.122 137.886 155.617C137.886 156.034 138.079 156.383 138.464 156.664C138.85 156.94 139.485 157.211 140.371 157.477C141.256 157.737 141.967 158.036 142.503 158.375C143.04 158.708 143.433 159.094 143.683 159.531C143.933 159.964 144.058 160.471 144.058 161.055C144.058 162.003 143.694 162.758 142.964 163.32C142.24 163.878 141.256 164.156 140.011 164.156C139.188 164.156 138.431 164.005 137.738 163.703C137.05 163.396 136.514 162.974 136.128 162.438C135.748 161.901 135.558 161.276 135.558 160.562H137.535C137.535 161.208 137.748 161.708 138.175 162.062C138.602 162.417 139.214 162.594 140.011 162.594C140.699 162.594 141.214 162.456 141.558 162.18C141.907 161.898 142.082 161.529 142.082 161.07ZM158.118 164H156.15V152.625H158.118V164ZM179.507 162.523C179.095 163.06 178.525 163.466 177.796 163.742C177.067 164.018 176.239 164.156 175.312 164.156C174.358 164.156 173.515 163.94 172.78 163.508C172.046 163.076 171.478 162.458 171.077 161.656C170.681 160.849 170.476 159.909 170.46 158.836V157.945C170.46 156.227 170.871 154.885 171.694 153.922C172.517 152.953 173.666 152.469 175.14 152.469C176.405 152.469 177.411 152.781 178.155 153.406C178.9 154.031 179.348 154.932 179.499 156.109H177.562C177.343 154.74 176.549 154.055 175.179 154.055C174.293 154.055 173.619 154.375 173.155 155.016C172.697 155.651 172.46 156.586 172.444 157.82V158.695C172.444 159.924 172.702 160.88 173.218 161.562C173.739 162.24 174.46 162.578 175.382 162.578C176.392 162.578 177.111 162.349 177.538 161.891V159.664H175.194V158.164H179.507V162.523ZM200.942 164H198.966L193.895 155.93V164H191.919V152.625H193.895L198.981 160.727V152.625H200.942V164ZM98.2422 186H96.2734V174.625H98.2422V186ZM119.935 186H117.959L112.888 177.93V186H110.912V174.625H112.888L117.974 182.727V174.625H119.935V186ZM140.496 176.219H136.949V186H134.988V176.219H131.472V174.625H140.496V176.219ZM158.884 180.922H154.212V184.422H159.673V186H152.236V174.625H159.618V176.219H154.212V179.359H158.884V180.922ZM175.702 181.617H173.499V186H171.522V174.625H175.522C176.835 174.625 177.848 174.919 178.562 175.508C179.275 176.096 179.632 176.948 179.632 178.062C179.632 178.823 179.447 179.461 179.077 179.977C178.713 180.487 178.202 180.88 177.546 181.156L180.101 185.898V186H177.983L175.702 181.617ZM173.499 180.031H175.53C176.197 180.031 176.718 179.865 177.093 179.531C177.468 179.193 177.655 178.732 177.655 178.148C177.655 177.539 177.481 177.068 177.132 176.734C176.788 176.401 176.272 176.229 175.585 176.219H173.499V180.031ZM200.77 186H198.794L193.723 177.93V186H191.747V174.625H193.723L198.809 182.727V174.625H200.77V186ZM102.102 205.07C102.102 204.57 101.924 204.185 101.57 203.914C101.221 203.643 100.589 203.37 99.6719 203.094C98.7552 202.818 98.026 202.51 97.4844 202.172C96.4479 201.521 95.9297 200.672 95.9297 199.625C95.9297 198.708 96.3021 197.953 97.0469 197.359C97.7969 196.766 98.7682 196.469 99.9609 196.469C100.753 196.469 101.458 196.615 102.078 196.906C102.698 197.198 103.185 197.615 103.539 198.156C103.893 198.693 104.07 199.289 104.07 199.945H102.102C102.102 199.352 101.914 198.888 101.539 198.555C101.169 198.216 100.638 198.047 99.9453 198.047C99.2995 198.047 98.7969 198.185 98.4375 198.461C98.0833 198.737 97.9062 199.122 97.9062 199.617C97.9062 200.034 98.099 200.383 98.4844 200.664C98.8698 200.94 99.5052 201.211 100.391 201.477C101.276 201.737 101.987 202.036 102.523 202.375C103.06 202.708 103.453 203.094 103.703 203.531C103.953 203.964 104.078 204.471 104.078 205.055C104.078 206.003 103.714 206.758 102.984 207.32C102.26 207.878 101.276 208.156 100.031 208.156C99.2083 208.156 98.4505 208.005 97.7578 207.703C97.0703 207.396 96.5339 206.974 96.1484 206.438C95.7682 205.901 95.5781 205.276 95.5781 204.562H97.5547C97.5547 205.208 97.7682 205.708 98.1953 206.062C98.6224 206.417 99.2344 206.594 100.031 206.594C100.719 206.594 101.234 206.456 101.578 206.18C101.927 205.898 102.102 205.529 102.102 205.07ZM125.084 208H123.115V202.945H118.029V208H116.052V196.625H118.029V201.359H123.115V196.625H125.084V208ZM139.753 208H137.785V196.625H139.753V208ZM154.4 203.773V208H152.423V196.625H156.775C158.046 196.625 159.053 196.956 159.798 197.617C160.548 198.279 160.923 199.154 160.923 200.242C160.923 201.357 160.556 202.224 159.822 202.844C159.092 203.464 158.069 203.773 156.751 203.773H154.4ZM154.4 202.188H156.775C157.478 202.188 158.014 202.023 158.384 201.695C158.754 201.362 158.939 200.883 158.939 200.258C158.939 199.643 158.751 199.154 158.376 198.789C158.001 198.419 157.486 198.229 156.829 198.219H154.4V202.188Z" fill="white"/>
<path d="M98.6016 105.141V109H95.8594V97.625H100.398C101.268 97.625 102.036 97.7865 102.703 98.1094C103.375 98.4271 103.893 98.8828 104.258 99.4766C104.628 100.065 104.812 100.734 104.812 101.484C104.812 102.594 104.414 103.482 103.617 104.148C102.826 104.81 101.737 105.141 100.352 105.141H98.6016ZM98.6016 103.023H100.398C100.93 103.023 101.333 102.891 101.609 102.625C101.891 102.359 102.031 101.984 102.031 101.5C102.031 100.969 101.888 100.544 101.602 100.227C101.315 99.9089 100.924 99.7474 100.43 99.7422H98.6016V103.023ZM113.336 104.18H109.023V106.891H114.117V109H106.281V97.625H114.133V99.7422H109.023V102.141H113.336V104.18ZM124.547 107.594C124.125 108.062 123.508 108.44 122.695 108.727C121.883 109.013 120.992 109.156 120.023 109.156C118.534 109.156 117.344 108.701 116.453 107.789C115.562 106.878 115.086 105.609 115.023 103.984L115.016 103C115.016 101.88 115.214 100.904 115.609 100.07C116.005 99.2318 116.57 98.5885 117.305 98.1406C118.044 97.6875 118.898 97.4609 119.867 97.4609C121.284 97.4609 122.383 97.7865 123.164 98.4375C123.951 99.0833 124.409 100.049 124.539 101.336H121.898C121.805 100.701 121.602 100.247 121.289 99.9766C120.977 99.7057 120.534 99.5703 119.961 99.5703C119.273 99.5703 118.742 99.862 118.367 100.445C117.992 101.029 117.802 101.862 117.797 102.945V103.633C117.797 104.768 117.99 105.622 118.375 106.195C118.766 106.763 119.378 107.047 120.211 107.047C120.924 107.047 121.456 106.888 121.805 106.57V104.805H119.898V102.922H124.547V107.594ZM132.602 106.875H128.844L128.188 109H125.258L129.43 97.625H132.008L136.211 109H133.266L132.602 106.875ZM129.5 104.758H131.945L130.719 100.812L129.5 104.758ZM142.914 105.977C142.914 105.576 142.771 105.263 142.484 105.039C142.203 104.815 141.706 104.583 140.992 104.344C140.279 104.104 139.695 103.872 139.242 103.648C137.768 102.924 137.031 101.93 137.031 100.664C137.031 100.034 137.214 99.4792 137.578 99C137.948 98.5156 138.469 98.1406 139.141 97.875C139.812 97.6042 140.568 97.4688 141.406 97.4688C142.224 97.4688 142.956 97.6146 143.602 97.9062C144.253 98.1979 144.758 98.6146 145.117 99.1562C145.477 99.6927 145.656 100.307 145.656 101H142.922C142.922 100.536 142.779 100.177 142.492 99.9219C142.211 99.6667 141.828 99.5391 141.344 99.5391C140.854 99.5391 140.466 99.6484 140.18 99.8672C139.898 100.081 139.758 100.354 139.758 100.688C139.758 100.979 139.914 101.245 140.227 101.484C140.539 101.719 141.089 101.964 141.875 102.219C142.661 102.469 143.307 102.74 143.812 103.031C145.042 103.74 145.656 104.716 145.656 105.961C145.656 106.956 145.281 107.737 144.531 108.305C143.781 108.872 142.753 109.156 141.445 109.156C140.523 109.156 139.688 108.992 138.938 108.664C138.193 108.331 137.63 107.878 137.25 107.305C136.875 106.727 136.688 106.062 136.688 105.312H139.438C139.438 105.922 139.594 106.372 139.906 106.664C140.224 106.951 140.737 107.094 141.445 107.094C141.898 107.094 142.255 106.997 142.516 106.805C142.781 106.607 142.914 106.331 142.914 105.977ZM151.227 102.562L153.32 97.625H156.281L152.617 104.914V109H149.836V104.914L146.18 97.625H149.125L151.227 102.562ZM162.852 105.977C162.852 105.576 162.708 105.263 162.422 105.039C162.141 104.815 161.643 104.583 160.93 104.344C160.216 104.104 159.633 103.872 159.18 103.648C157.706 102.924 156.969 101.93 156.969 100.664C156.969 100.034 157.151 99.4792 157.516 99C157.885 98.5156 158.406 98.1406 159.078 97.875C159.75 97.6042 160.505 97.4688 161.344 97.4688C162.161 97.4688 162.893 97.6146 163.539 97.9062C164.19 98.1979 164.695 98.6146 165.055 99.1562C165.414 99.6927 165.594 100.307 165.594 101H162.859C162.859 100.536 162.716 100.177 162.43 99.9219C162.148 99.6667 161.766 99.5391 161.281 99.5391C160.792 99.5391 160.404 99.6484 160.117 99.8672C159.836 100.081 159.695 100.354 159.695 100.688C159.695 100.979 159.852 101.245 160.164 101.484C160.477 101.719 161.026 101.964 161.812 102.219C162.599 102.469 163.245 102.74 163.75 103.031C164.979 103.74 165.594 104.716 165.594 105.961C165.594 106.956 165.219 107.737 164.469 108.305C163.719 108.872 162.69 109.156 161.383 109.156C160.461 109.156 159.625 108.992 158.875 108.664C158.13 108.331 157.568 107.878 157.188 107.305C156.812 106.727 156.625 106.062 156.625 105.312H159.375C159.375 105.922 159.531 106.372 159.844 106.664C160.161 106.951 160.674 107.094 161.383 107.094C161.836 107.094 162.193 106.997 162.453 106.805C162.719 106.607 162.852 106.331 162.852 105.977ZM175.93 99.7422H172.516V109H169.773V99.7422H166.422V97.625H175.93V99.7422ZM184.148 104.18H179.836V106.891H184.93V109H177.094V97.625H184.945V99.7422H179.836V102.141H184.148V104.18ZM189.648 97.625L192.188 105.539L194.719 97.625H198.328V109H195.578V106.344L195.844 100.906L193.094 109H191.281L188.523 100.898L188.789 106.344V109H186.047V97.625H189.648ZM205.945 105.977C205.945 105.576 205.802 105.263 205.516 105.039C205.234 104.815 204.737 104.583 204.023 104.344C203.31 104.104 202.727 103.872 202.273 103.648C200.799 102.924 200.062 101.93 200.062 100.664C200.062 100.034 200.245 99.4792 200.609 99C200.979 98.5156 201.5 98.1406 202.172 97.875C202.844 97.6042 203.599 97.4688 204.438 97.4688C205.255 97.4688 205.987 97.6146 206.633 97.9062C207.284 98.1979 207.789 98.6146 208.148 99.1562C208.508 99.6927 208.688 100.307 208.688 101H205.953C205.953 100.536 205.81 100.177 205.523 99.9219C205.242 99.6667 204.859 99.5391 204.375 99.5391C203.885 99.5391 203.497 99.6484 203.211 99.8672C202.93 100.081 202.789 100.354 202.789 100.688C202.789 100.979 202.945 101.245 203.258 101.484C203.57 101.719 204.12 101.964 204.906 102.219C205.693 102.469 206.339 102.74 206.844 103.031C208.073 103.74 208.688 104.716 208.688 105.961C208.688 106.956 208.312 107.737 207.562 108.305C206.812 108.872 205.784 109.156 204.477 109.156C203.555 109.156 202.719 108.992 201.969 108.664C201.224 108.331 200.661 107.878 200.281 107.305C199.906 106.727 199.719 106.062 199.719 105.312H202.469C202.469 105.922 202.625 106.372 202.938 106.664C203.255 106.951 203.768 107.094 204.477 107.094C204.93 107.094 205.286 106.997 205.547 106.805C205.812 106.607 205.945 106.331 205.945 105.977Z" fill="white"/>
<path d="M99.7031 64.5938H98.7812V76.8125H99.7031V78.7266H96.1406V62.6719H99.7031V64.5938ZM108.406 71.3516C108.406 72.888 108.06 74.0729 107.367 74.9062C106.68 75.7396 105.708 76.1562 104.453 76.1562C103.188 76.1562 102.208 75.737 101.516 74.8984C100.823 74.0599 100.477 72.8776 100.477 71.3516V69.2734C100.477 67.737 100.82 66.5521 101.508 65.7188C102.201 64.8854 103.177 64.4688 104.438 64.4688C105.698 64.4688 106.674 64.888 107.367 65.7266C108.06 66.5651 108.406 67.75 108.406 69.2812V71.3516ZM105.773 68.9375C105.773 68.1198 105.667 67.5104 105.453 67.1094C105.24 66.7031 104.901 66.5 104.438 66.5C103.984 66.5 103.654 66.6875 103.445 67.0625C103.242 67.4375 103.133 68.0052 103.117 68.7656V71.6719C103.117 72.5208 103.224 73.1432 103.438 73.5391C103.651 73.9297 103.99 74.125 104.453 74.125C104.901 74.125 105.232 73.9349 105.445 73.5547C105.659 73.1693 105.768 72.5677 105.773 71.75V68.9375ZM111.445 73.4453C111.862 73.4453 112.208 73.5703 112.484 73.8203C112.76 74.0651 112.898 74.3802 112.898 74.7656C112.898 75.151 112.76 75.4688 112.484 75.7188C112.208 75.9635 111.862 76.0859 111.445 76.0859C111.023 76.0859 110.674 75.9609 110.398 75.7109C110.128 75.4609 109.992 75.1458 109.992 74.7656C109.992 74.3854 110.128 74.0703 110.398 73.8203C110.674 73.5703 111.023 73.4453 111.445 73.4453ZM122.555 76H114.617V74.2812L118.273 70.4375C119.174 69.4115 119.625 68.5964 119.625 67.9922C119.625 67.5026 119.518 67.1302 119.305 66.875C119.091 66.6198 118.781 66.4922 118.375 66.4922C117.974 66.4922 117.648 66.6641 117.398 67.0078C117.148 67.3464 117.023 67.7708 117.023 68.2812H114.383C114.383 67.5833 114.557 66.9401 114.906 66.3516C115.255 65.7578 115.74 65.2943 116.359 64.9609C116.979 64.6276 117.672 64.4609 118.438 64.4609C119.667 64.4609 120.612 64.7448 121.273 65.3125C121.94 65.8802 122.273 66.6953 122.273 67.7578C122.273 68.2057 122.19 68.6432 122.023 69.0703C121.857 69.4922 121.596 69.9375 121.242 70.4062C120.893 70.8698 120.328 71.4922 119.547 72.2734L118.078 73.9688H122.555V76ZM123.297 62.6719H126.859V78.7266H123.297V76.8125H124.227V64.5938H123.297V62.6719Z" fill="white"/>
<defs>
<filter id="filter0_d" x="0" y="0" width="308" height="282" filterUnits="userSpaceOnUse" color-interpolation-filters="sRGB">
<feFlood flood-opacity="0" result="BackgroundImageFix"/>
<feColorMatrix in="SourceAlpha" type="matrix" values="0 0 0 0 0 0 0 0 0 0 0 0 0 0 0 0 0 0 127 0"/>
<feOffset dy="4"/>
<feGaussianBlur stdDeviation="2"/>
<feColorMatrix type="matrix" values="0 0 0 0 0 0 0 0 0 0 0 0 0 0 0 0 0 0 0.25 0"/>
<feBlend mode="normal" in2="BackgroundImageFix" result="effect1_dropShadow"/>
<feBlend mode="normal" in="SourceGraphic" in2="effect1_dropShadow" result="shape"/>
</filter>
</defs>
</svg>
