<svg width="283" height="260" viewBox="0 0 283 260" fill="none" xmlns="http://www.w3.org/2000/svg">
<g filter="url(#filter0_d)">
<rect x="4" width="275" height="251.167" rx="5" fill="white"/>
</g>
<path d="M103.686 134.281C103.436 134.24 103.178 134.219 102.913 134.219C102.043 134.219 101.457 134.552 101.155 135.219V141H99.2566V132.547H101.069L101.116 133.492C101.574 132.758 102.21 132.391 103.022 132.391C103.293 132.391 103.517 132.427 103.694 132.5L103.686 134.281ZM110.132 141.156C108.929 141.156 107.952 140.779 107.202 140.023C106.457 139.263 106.085 138.253 106.085 136.992V136.758C106.085 135.914 106.246 135.161 106.569 134.5C106.897 133.833 107.356 133.315 107.944 132.945C108.533 132.576 109.189 132.391 109.913 132.391C111.064 132.391 111.952 132.758 112.577 133.492C113.207 134.227 113.522 135.266 113.522 136.609V137.375H107.999C108.056 138.073 108.288 138.625 108.694 139.031C109.106 139.438 109.621 139.641 110.241 139.641C111.111 139.641 111.819 139.289 112.366 138.586L113.39 139.562C113.051 140.068 112.598 140.461 112.03 140.742C111.468 141.018 110.835 141.156 110.132 141.156ZM109.905 133.914C109.384 133.914 108.963 134.096 108.64 134.461C108.322 134.826 108.119 135.333 108.03 135.984H111.647V135.844C111.606 135.208 111.437 134.729 111.14 134.406C110.843 134.078 110.431 133.914 109.905 133.914ZM116.327 136.711C116.327 135.409 116.63 134.365 117.234 133.578C117.838 132.786 118.648 132.391 119.663 132.391C120.559 132.391 121.283 132.703 121.835 133.328V129H123.734V141H122.015L121.921 140.125C121.354 140.812 120.596 141.156 119.648 141.156C118.658 141.156 117.856 140.758 117.242 139.961C116.632 139.164 116.327 138.081 116.327 136.711ZM118.226 136.875C118.226 137.734 118.39 138.406 118.718 138.891C119.051 139.37 119.523 139.609 120.132 139.609C120.908 139.609 121.476 139.263 121.835 138.57V134.961C121.486 134.284 120.924 133.945 120.148 133.945C119.533 133.945 119.059 134.19 118.726 134.68C118.393 135.164 118.226 135.896 118.226 136.875ZM131.117 141.156C129.914 141.156 128.937 140.779 128.187 140.023C127.442 139.263 127.07 138.253 127.07 136.992V136.758C127.07 135.914 127.231 135.161 127.554 134.5C127.882 133.833 128.341 133.315 128.929 132.945C129.518 132.576 130.174 132.391 130.898 132.391C132.049 132.391 132.937 132.758 133.562 133.492C134.192 134.227 134.507 135.266 134.507 136.609V137.375H128.984C129.041 138.073 129.273 138.625 129.679 139.031C130.091 139.438 130.606 139.641 131.226 139.641C132.096 139.641 132.804 139.289 133.351 138.586L134.375 139.562C134.036 140.068 133.583 140.461 133.015 140.742C132.453 141.018 131.82 141.156 131.117 141.156ZM130.89 133.914C130.369 133.914 129.948 134.096 129.625 134.461C129.307 134.826 129.104 135.333 129.015 135.984H132.632V135.844C132.591 135.208 132.422 134.729 132.125 134.406C131.828 134.078 131.416 133.914 130.89 133.914ZM138.172 141V133.953H136.883V132.547H138.172V131.969C138.177 131.307 138.318 130.74 138.594 130.266C138.87 129.792 139.26 129.435 139.766 129.195C140.271 128.956 140.878 128.836 141.586 128.836C142.003 128.836 142.401 128.88 142.781 128.969C143.167 129.057 143.565 129.169 143.977 129.305L143.688 130.875C142.969 130.625 142.312 130.5 141.719 130.5C141.141 130.5 140.721 130.628 140.461 130.883C140.201 131.133 140.07 131.51 140.07 132.016V132.547H141.734V133.953H140.07V141H138.172ZM144.875 141H142.977V132.547H144.875V141ZM150.422 132.547L150.477 133.523C151.102 132.768 151.922 132.391 152.938 132.391C154.698 132.391 155.594 133.398 155.625 135.414V141H153.727V135.523C153.727 134.987 153.61 134.591 153.375 134.336C153.146 134.076 152.769 133.945 152.243 133.945C151.477 133.945 150.907 134.292 150.532 134.984V141H148.633V132.547H150.422ZM161.266 141H159.368V132.547H161.266V141ZM159.251 130.352C159.251 130.06 159.342 129.818 159.524 129.625C159.712 129.432 159.977 129.336 160.321 129.336C160.665 129.336 160.93 129.432 161.118 129.625C161.305 129.818 161.399 130.06 161.399 130.352C161.399 130.638 161.305 130.878 161.118 131.07C160.93 131.258 160.665 131.352 160.321 131.352C159.977 131.352 159.712 131.258 159.524 131.07C159.342 130.878 159.251 130.638 159.251 130.352ZM166.782 132.547L166.837 133.523C167.462 132.768 168.282 132.391 169.298 132.391C171.058 132.391 171.954 133.398 171.985 135.414V141H170.087V135.523C170.087 134.987 169.97 134.591 169.735 134.336C169.506 134.076 169.129 133.945 168.603 133.945C167.837 133.945 167.267 134.292 166.892 134.984V141H164.993V132.547H166.782ZM175.275 136.711C175.275 135.398 175.582 134.352 176.197 133.57C176.816 132.784 177.637 132.391 178.658 132.391C179.621 132.391 180.379 132.727 180.931 133.398L181.017 132.547H182.728V140.742C182.728 141.852 182.381 142.727 181.689 143.367C181.001 144.008 180.072 144.328 178.9 144.328C178.28 144.328 177.673 144.198 177.079 143.938C176.491 143.682 176.043 143.346 175.736 142.93L176.634 141.789C177.217 142.482 177.936 142.828 178.79 142.828C179.421 142.828 179.918 142.656 180.283 142.312C180.647 141.974 180.829 141.474 180.829 140.812V140.242C180.283 140.852 179.553 141.156 178.642 141.156C177.652 141.156 176.842 140.763 176.212 139.977C175.587 139.19 175.275 138.102 175.275 136.711ZM177.165 136.875C177.165 137.724 177.337 138.393 177.681 138.883C178.03 139.367 178.512 139.609 179.126 139.609C179.892 139.609 180.46 139.281 180.829 138.625V134.906C180.47 134.266 179.908 133.945 179.142 133.945C178.517 133.945 178.03 134.193 177.681 134.688C177.337 135.182 177.165 135.911 177.165 136.875Z" fill="#424242"/>
<path d="M97.1274 110.273H94.0742L93.541 112H91.1606L94.5503 102.758H96.645L100.06 112H97.667L97.1274 110.273ZM94.6074 108.553H96.5942L95.5976 105.348L94.6074 108.553ZM103.812 108.864V112H101.584V102.758H105.272C105.979 102.758 106.603 102.889 107.145 103.151C107.691 103.41 108.112 103.78 108.408 104.262C108.708 104.74 108.859 105.284 108.859 105.894C108.859 106.795 108.535 107.516 107.887 108.058C107.244 108.596 106.36 108.864 105.234 108.864H103.812ZM103.812 107.144H105.272C105.704 107.144 106.032 107.036 106.256 106.82C106.485 106.604 106.599 106.3 106.599 105.906C106.599 105.475 106.482 105.13 106.25 104.872C106.017 104.613 105.7 104.482 105.298 104.478H103.812V107.144ZM113.125 108.864V112H110.897V102.758H114.585C115.292 102.758 115.916 102.889 116.458 103.151C117.003 103.41 117.425 103.78 117.721 104.262C118.021 104.74 118.171 105.284 118.171 105.894C118.171 106.795 117.848 107.516 117.2 108.058C116.557 108.596 115.673 108.864 114.547 108.864H113.125ZM113.125 107.144H114.585C115.017 107.144 115.345 107.036 115.569 106.82C115.797 106.604 115.912 106.3 115.912 105.906C115.912 105.475 115.795 105.13 115.563 104.872C115.33 104.613 115.012 104.482 114.61 104.478H113.125V107.144ZM127.726 108.737H126.52V112H124.292V102.758H127.929C129.025 102.758 129.882 103.001 130.5 103.488C131.118 103.974 131.427 104.662 131.427 105.551C131.427 106.194 131.296 106.727 131.033 107.15C130.775 107.574 130.369 107.916 129.815 108.179L131.744 111.905V112H129.358L127.726 108.737ZM126.52 107.017H127.929C128.352 107.017 128.67 106.907 128.881 106.687C129.097 106.463 129.205 106.152 129.205 105.754C129.205 105.356 129.097 105.045 128.881 104.821C128.666 104.592 128.348 104.478 127.929 104.478H126.52V107.017ZM139.349 108.083H135.846V110.286H139.984V112H133.618V102.758H139.997V104.478H135.846V106.427H139.349V108.083ZM141.737 112V102.758H144.714C145.531 102.758 146.265 102.944 146.917 103.316C147.568 103.685 148.076 104.207 148.44 104.884C148.808 105.557 148.994 106.312 148.999 107.15V107.576C148.999 108.422 148.819 109.182 148.459 109.854C148.104 110.523 147.6 111.048 146.948 111.429C146.301 111.805 145.577 111.996 144.777 112H141.737ZM143.965 104.478V110.286H144.739C145.378 110.286 145.869 110.06 146.212 109.607C146.555 109.15 146.726 108.473 146.726 107.576V107.176C146.726 106.283 146.555 105.61 146.212 105.157C145.869 104.704 145.37 104.478 144.714 104.478H143.965ZM156.718 108.083H153.214V110.286H157.353V112H150.986V102.758H157.366V104.478H153.214V106.427H156.718V108.083ZM163.873 109.543C163.873 109.218 163.756 108.964 163.524 108.782C163.295 108.6 162.891 108.411 162.311 108.217C161.731 108.022 161.258 107.834 160.889 107.652C159.692 107.064 159.093 106.255 159.093 105.227C159.093 104.715 159.241 104.264 159.537 103.875C159.838 103.481 160.261 103.177 160.807 102.961C161.353 102.741 161.966 102.631 162.648 102.631C163.312 102.631 163.907 102.749 164.431 102.986C164.96 103.223 165.371 103.562 165.663 104.002C165.955 104.438 166.101 104.937 166.101 105.5H163.879C163.879 105.123 163.763 104.831 163.53 104.624C163.301 104.417 162.99 104.313 162.597 104.313C162.199 104.313 161.884 104.402 161.651 104.58C161.423 104.753 161.308 104.975 161.308 105.246C161.308 105.483 161.435 105.699 161.689 105.894C161.943 106.084 162.39 106.283 163.029 106.49C163.668 106.693 164.192 106.913 164.603 107.15C165.601 107.726 166.101 108.519 166.101 109.531C166.101 110.339 165.796 110.974 165.187 111.435C164.577 111.896 163.742 112.127 162.679 112.127C161.93 112.127 161.251 111.994 160.642 111.727C160.037 111.456 159.58 111.088 159.271 110.623C158.966 110.153 158.814 109.613 158.814 109.004H161.048C161.048 109.499 161.175 109.865 161.429 110.102C161.687 110.335 162.104 110.451 162.679 110.451C163.048 110.451 163.337 110.373 163.549 110.216C163.765 110.056 163.873 109.831 163.873 109.543ZM170.462 112H168.241V102.758H170.462V112ZM180.423 110.857C180.08 111.238 179.578 111.545 178.918 111.778C178.258 112.011 177.534 112.127 176.747 112.127C175.537 112.127 174.57 111.757 173.846 111.016C173.123 110.276 172.736 109.245 172.685 107.925L172.678 107.125C172.678 106.215 172.839 105.422 173.161 104.745C173.483 104.063 173.942 103.541 174.538 103.177C175.139 102.809 175.833 102.625 176.62 102.625C177.771 102.625 178.664 102.889 179.299 103.418C179.938 103.943 180.31 104.728 180.416 105.773H178.271C178.195 105.257 178.03 104.889 177.776 104.668C177.522 104.448 177.162 104.338 176.697 104.338C176.138 104.338 175.706 104.575 175.402 105.049C175.097 105.523 174.942 106.2 174.938 107.081V107.639C174.938 108.562 175.095 109.256 175.408 109.721C175.725 110.182 176.223 110.413 176.9 110.413C177.479 110.413 177.911 110.284 178.195 110.026V108.591H176.646V107.062H180.423V110.857ZM190.281 112H188.066L184.791 106.249V112H182.563V102.758H184.791L188.06 108.509V102.758H190.281V112Z" fill="#424242"/>
<path d="M108.662 164.283C108.662 165.258 108.493 166.115 108.156 166.854C107.819 167.587 107.336 168.152 106.707 168.549C106.082 168.941 105.362 169.137 104.547 169.137C103.74 169.137 103.02 168.941 102.387 168.549C101.758 168.152 101.27 167.59 100.924 166.86C100.582 166.131 100.409 165.29 100.404 164.338V163.777C100.404 162.807 100.575 161.95 100.917 161.207C101.263 160.464 101.749 159.897 102.373 159.505C103.002 159.108 103.722 158.91 104.533 158.91C105.344 158.91 106.062 159.106 106.686 159.498C107.315 159.885 107.801 160.446 108.142 161.18C108.484 161.909 108.657 162.759 108.662 163.729V164.283ZM106.932 163.764C106.932 162.661 106.723 161.815 106.304 161.228C105.889 160.64 105.299 160.346 104.533 160.346C103.786 160.346 103.2 160.64 102.776 161.228C102.357 161.811 102.143 162.638 102.134 163.709V164.283C102.134 165.377 102.346 166.222 102.769 166.819C103.198 167.416 103.79 167.715 104.547 167.715C105.312 167.715 105.9 167.423 106.31 166.84C106.725 166.257 106.932 165.404 106.932 164.283V163.764ZM123.88 169H122.151L117.714 161.938V169H115.985V159.047H117.714L122.164 166.136V159.047H123.88V169ZM133.254 167.619H137.772V169H131.524V159.047H133.254V167.619ZM146.523 169H144.801V159.047H146.523V169ZM162.145 169H160.415L155.979 161.938V169H154.249V159.047H155.979L160.429 166.136V159.047H162.145V169ZM175.606 164.557H171.518V167.619H176.297V169H169.789V159.047H176.249V160.441H171.518V163.189H175.606V164.557ZM92.9146 185.437C92.9146 184.999 92.7597 184.662 92.4498 184.425C92.1445 184.188 91.5908 183.949 90.7887 183.707C89.9866 183.465 89.3486 183.197 88.8746 182.9C87.9677 182.331 87.5143 181.588 87.5143 180.672C87.5143 179.87 87.8401 179.209 88.4918 178.689C89.148 178.17 89.998 177.91 91.0416 177.91C91.7343 177.91 92.3518 178.038 92.8941 178.293C93.4365 178.548 93.8626 178.913 94.1725 179.387C94.4824 179.856 94.6373 180.378 94.6373 180.952H92.9146C92.9146 180.433 92.7506 180.027 92.4225 179.735C92.0989 179.439 91.6341 179.291 91.0279 179.291C90.4628 179.291 90.023 179.412 89.7086 179.653C89.3987 179.895 89.2438 180.232 89.2438 180.665C89.2438 181.03 89.4124 181.335 89.7496 181.581C90.0869 181.823 90.6428 182.06 91.4176 182.292C92.1923 182.52 92.8144 182.782 93.2838 183.078C93.7532 183.37 94.0973 183.707 94.316 184.09C94.5348 184.468 94.6441 184.912 94.6441 185.423C94.6441 186.252 94.3251 186.913 93.6871 187.405C93.0536 187.893 92.1923 188.137 91.1031 188.137C90.3831 188.137 89.72 188.005 89.1139 187.74C88.5123 187.471 88.0429 187.102 87.7057 186.633C87.373 186.163 87.2066 185.617 87.2066 184.992H88.9361C88.9361 185.557 89.123 185.995 89.4967 186.305C89.8704 186.615 90.4059 186.77 91.1031 186.77C91.7047 186.77 92.1559 186.649 92.4566 186.407C92.762 186.161 92.9146 185.838 92.9146 185.437ZM109.664 188H107.941V183.577H103.491V188H101.762V178.047H103.491V182.189H107.941V178.047H109.664V188ZM125.258 183.283C125.258 184.258 125.09 185.115 124.752 185.854C124.415 186.587 123.932 187.152 123.303 187.549C122.679 187.941 121.959 188.137 121.143 188.137C120.336 188.137 119.616 187.941 118.983 187.549C118.354 187.152 117.866 186.59 117.52 185.86C117.178 185.131 117.005 184.29 117 183.338V182.777C117 181.807 117.171 180.95 117.513 180.207C117.859 179.464 118.345 178.897 118.969 178.505C119.598 178.108 120.318 177.91 121.129 177.91C121.94 177.91 122.658 178.106 123.283 178.498C123.912 178.885 124.397 179.446 124.739 180.18C125.08 180.909 125.254 181.759 125.258 182.729V183.283ZM123.529 182.764C123.529 181.661 123.319 180.815 122.9 180.228C122.485 179.64 121.895 179.346 121.129 179.346C120.382 179.346 119.796 179.64 119.372 180.228C118.953 180.811 118.739 181.638 118.73 182.709V183.283C118.73 184.377 118.942 185.222 119.366 185.819C119.794 186.416 120.386 186.715 121.143 186.715C121.909 186.715 122.496 186.423 122.907 185.84C123.321 185.257 123.529 184.404 123.529 183.283V182.764ZM134.31 184.302V188H132.581V178.047H136.388C137.5 178.047 138.382 178.336 139.034 178.915C139.69 179.494 140.018 180.259 140.018 181.212C140.018 182.187 139.697 182.946 139.054 183.488C138.416 184.031 137.521 184.302 136.368 184.302H134.31ZM134.31 182.914H136.388C137.004 182.914 137.473 182.771 137.797 182.483C138.12 182.192 138.282 181.772 138.282 181.226C138.282 180.688 138.118 180.259 137.79 179.94C137.462 179.617 137.011 179.451 136.436 179.441H134.31V182.914ZM148.865 184.302V188H147.136V178.047H150.944C152.056 178.047 152.937 178.336 153.589 178.915C154.245 179.494 154.573 180.259 154.573 181.212C154.573 182.187 154.252 182.946 153.61 183.488C152.972 184.031 152.076 184.302 150.923 184.302H148.865ZM148.865 182.914H150.944C151.559 182.914 152.028 182.771 152.352 182.483C152.675 182.192 152.837 181.772 152.837 181.226C152.837 180.688 152.673 180.259 152.345 179.94C152.017 179.617 151.566 179.451 150.991 179.441H148.865V182.914ZM163.516 188H161.794V178.047H163.516V188ZM179.138 188H177.408L172.972 180.938V188H171.242V178.047H172.972L177.422 185.136V178.047H179.138V188ZM194.411 186.708C194.051 187.177 193.551 187.533 192.913 187.774C192.275 188.016 191.551 188.137 190.74 188.137C189.906 188.137 189.167 187.948 188.525 187.569C187.882 187.191 187.385 186.651 187.035 185.949C186.688 185.243 186.508 184.42 186.495 183.481V182.702C186.495 181.198 186.855 180.025 187.575 179.182C188.295 178.334 189.3 177.91 190.589 177.91C191.697 177.91 192.576 178.184 193.228 178.73C193.88 179.277 194.272 180.066 194.404 181.096H192.708C192.517 179.897 191.822 179.298 190.623 179.298C189.849 179.298 189.259 179.578 188.853 180.139C188.452 180.695 188.245 181.513 188.231 182.593V183.358C188.231 184.434 188.456 185.27 188.908 185.867C189.363 186.46 189.995 186.756 190.801 186.756C191.685 186.756 192.314 186.555 192.688 186.154V184.206H190.637V182.894H194.411V186.708Z" fill="#424242"/>
<path d="M148.729 66.0712V61.5761C148.741 59.5422 147.929 57.5865 146.481 56.1603C145.081 54.7642 143.248 54 141.307 54C141.277 54 141.241 54 141.211 54C137.07 54.006 133.704 57.3999 133.704 61.5761V66.0712C132.142 66.2578 131 67.5696 131 69.1582V79.2557C131 80.9707 132.37 82.3848 134.083 82.3848H148.356C150.069 82.3848 151.439 80.9707 151.439 79.2557V69.1582C151.433 67.5756 150.291 66.2578 148.729 66.0712ZM134.9 61.5761H134.906C134.906 58.0618 137.737 55.1855 141.217 55.1855H141.223C142.875 55.1794 144.462 55.8354 145.634 57.0028C146.854 58.2123 147.533 59.8611 147.521 61.5761V66.0772H146.199V61.5761C146.211 60.2101 145.67 58.8983 144.702 57.9355C143.789 57.0208 142.551 56.5033 141.259 56.5033H141.223C138.458 56.5033 136.222 58.7779 136.222 61.5701V66.0772H134.9V61.5761ZM145.003 61.5761V66.0772H137.43V61.5761C137.43 59.4459 139.125 57.7128 141.229 57.7128H141.265C142.238 57.7128 143.176 58.104 143.867 58.796C144.6 59.5301 145.015 60.5351 145.003 61.5761ZM150.291 79.2737C150.291 80.3268 149.438 81.1813 148.386 81.1813H134.107C133.055 81.1813 132.202 80.3268 132.202 79.2737V69.1883C132.202 68.1352 133.055 67.2807 134.107 67.2807H148.386C149.438 67.2807 150.291 68.1352 150.291 69.1883V79.2737Z" fill="black"/>
<path d="M143.298 73.8577C143.034 72.925 142.187 72.2871 141.219 72.2871C140.023 72.2871 139.049 73.2559 139.049 74.4595C139.049 75.4283 139.686 76.2768 140.618 76.5415V78.2264C140.618 78.5574 140.888 78.8282 141.219 78.8282C141.549 78.8282 141.82 78.5574 141.82 78.2264V76.5415C142.968 76.2106 143.635 75.007 143.298 73.8577ZM141.219 75.4223C140.684 75.4223 140.251 74.989 140.251 74.4534C140.251 73.9179 140.684 73.4846 141.219 73.4846C141.754 73.4846 142.187 73.9179 142.187 74.4534C142.187 74.989 141.754 75.4223 141.219 75.4223Z" fill="black"/>
<defs>
<filter id="filter0_d" x="0" y="0" width="283" height="259.167" filterUnits="userSpaceOnUse" color-interpolation-filters="sRGB">
<feFlood flood-opacity="0" result="BackgroundImageFix"/>
<feColorMatrix in="SourceAlpha" type="matrix" values="0 0 0 0 0 0 0 0 0 0 0 0 0 0 0 0 0 0 127 0"/>
<feOffset dy="4"/>
<feGaussianBlur stdDeviation="2"/>
<feColorMatrix type="matrix" values="0 0 0 0 0 0 0 0 0 0 0 0 0 0 0 0 0 0 0.25 0"/>
<feBlend mode="normal" in2="BackgroundImageFix" result="effect1_dropShadow"/>
<feBlend mode="normal" in="SourceGraphic" in2="effect1_dropShadow" result="shape"/>
</filter>
</defs>
</svg>
