<svg width="283" height="260" viewBox="0 0 283 260" fill="none" xmlns="http://www.w3.org/2000/svg">
<g filter="url(#filter0_d)">
<rect x="4" width="275" height="251.167" rx="5" fill="white"/>
</g>
<path d="M144.373 52.7236C143.33 52.7236 142.935 54.0309 142.919 54.0861C142.801 54.4948 142.425 54.7782 142.001 54.7782H141.993C141.565 54.7754 141.191 54.492 141.077 54.0797C141.062 54.031 140.668 52.7236 139.625 52.7236C138.694 52.7236 138.208 53.5391 138.208 54.3442C138.208 55.487 139.24 56.4091 141.389 58.2232C141.586 58.3897 141.789 58.5618 141.999 58.7394C142.204 58.5646 142.404 58.3963 142.599 58.2326C144.569 56.5647 145.79 55.5394 145.79 54.3442C145.79 53.5391 145.304 52.7236 144.373 52.7236V52.7236ZM141.999 43.7217C135.666 43.7217 130.514 48.8763 130.514 55.213C130.514 63.1338 140.829 75.4219 141.268 75.9409C141.449 76.156 141.717 76.2804 141.999 76.2804C142.281 76.2804 142.548 76.156 142.73 75.9409C143.169 75.4219 153.484 63.1338 153.484 55.213C153.484 48.8763 148.332 43.7217 141.999 43.7217V43.7217ZM143.833 59.6961C143.453 60.0169 143.05 60.3573 142.625 60.7249C142.446 60.881 142.221 60.9586 141.999 60.9586C141.775 60.9586 141.552 60.881 141.373 60.7249C140.945 60.3545 140.537 60.0104 140.154 59.6869C137.913 57.795 136.294 56.4269 136.294 54.3442C136.294 52.3617 137.757 50.8084 139.625 50.8084C140.677 50.8084 141.455 51.289 141.999 51.8932C142.543 51.289 143.32 50.8084 144.373 50.8084C146.24 50.8084 147.704 52.3617 147.704 54.3442C147.704 56.5062 145.924 57.931 143.833 59.6961V59.6961Z" fill="url(#paint0_linear)"/>
<path d="M90.0856 137.711C90.0856 136.398 90.3929 135.352 91.0075 134.57C91.6273 133.784 92.4476 133.391 93.4684 133.391C94.432 133.391 95.1898 133.727 95.7419 134.398L95.8278 133.547H97.5387V141.742C97.5387 142.852 97.1924 143.727 96.4997 144.367C95.8122 145.008 94.8825 145.328 93.7106 145.328C93.0908 145.328 92.484 145.198 91.8903 144.938C91.3018 144.682 90.8538 144.346 90.5465 143.93L91.445 142.789C92.0283 143.482 92.7471 143.828 93.6012 143.828C94.2314 143.828 94.7288 143.656 95.0934 143.312C95.458 142.974 95.6403 142.474 95.6403 141.812V141.242C95.0934 141.852 94.3643 142.156 93.4528 142.156C92.4632 142.156 91.6533 141.763 91.0231 140.977C90.3981 140.19 90.0856 139.102 90.0856 137.711ZM91.9762 137.875C91.9762 138.724 92.1481 139.393 92.4919 139.883C92.8408 140.367 93.3226 140.609 93.9372 140.609C94.7028 140.609 95.2705 140.281 95.6403 139.625V135.906C95.2809 135.266 94.7184 134.945 93.9528 134.945C93.3278 134.945 92.8408 135.193 92.4919 135.688C92.1481 136.182 91.9762 136.911 91.9762 137.875ZM103.195 142H101.297V133.547H103.195V142ZM101.18 131.352C101.18 131.06 101.271 130.818 101.453 130.625C101.641 130.432 101.906 130.336 102.25 130.336C102.594 130.336 102.859 130.432 103.047 130.625C103.234 130.818 103.328 131.06 103.328 131.352C103.328 131.638 103.234 131.878 103.047 132.07C102.859 132.258 102.594 132.352 102.25 132.352C101.906 132.352 101.641 132.258 101.453 132.07C101.271 131.878 101.18 131.638 101.18 131.352ZM109.93 139.594L111.719 133.547H113.68L110.75 142H109.102L106.149 133.547H108.117L109.93 139.594ZM118.571 142H116.672V133.547H118.571V142ZM116.555 131.352C116.555 131.06 116.646 130.818 116.829 130.625C117.016 130.432 117.282 130.336 117.626 130.336C117.969 130.336 118.235 130.432 118.422 130.625C118.61 130.818 118.704 131.06 118.704 131.352C118.704 131.638 118.61 131.878 118.422 132.07C118.235 132.258 117.969 132.352 117.626 132.352C117.282 132.352 117.016 132.258 116.829 132.07C116.646 131.878 116.555 131.638 116.555 131.352ZM124.087 133.547L124.142 134.523C124.767 133.768 125.587 133.391 126.602 133.391C128.363 133.391 129.259 134.398 129.29 136.414V142H127.392V136.523C127.392 135.987 127.274 135.591 127.04 135.336C126.811 135.076 126.433 134.945 125.907 134.945C125.142 134.945 124.571 135.292 124.196 135.984V142H122.298V133.547H124.087ZM132.579 137.711C132.579 136.398 132.887 135.352 133.501 134.57C134.121 133.784 134.941 133.391 135.962 133.391C136.926 133.391 137.684 133.727 138.236 134.398L138.322 133.547H140.032V141.742C140.032 142.852 139.686 143.727 138.993 144.367C138.306 145.008 137.376 145.328 136.204 145.328C135.585 145.328 134.978 145.198 134.384 144.938C133.796 144.682 133.348 144.346 133.04 143.93L133.939 142.789C134.522 143.482 135.241 143.828 136.095 143.828C136.725 143.828 137.223 143.656 137.587 143.312C137.952 142.974 138.134 142.474 138.134 141.812V141.242C137.587 141.852 136.858 142.156 135.947 142.156C134.957 142.156 134.147 141.763 133.517 140.977C132.892 140.19 132.579 139.102 132.579 137.711ZM134.47 137.875C134.47 138.724 134.642 139.393 134.986 139.883C135.335 140.367 135.816 140.609 136.431 140.609C137.197 140.609 137.764 140.281 138.134 139.625V135.906C137.775 135.266 137.212 134.945 136.447 134.945C135.822 134.945 135.335 135.193 134.986 135.688C134.642 136.182 134.47 136.911 134.47 137.875ZM154.455 141.172C153.898 141.828 153.106 142.156 152.08 142.156C151.163 142.156 150.468 141.888 149.994 141.352C149.525 140.815 149.291 140.039 149.291 139.023V133.547H151.189V139C151.189 140.073 151.635 140.609 152.525 140.609C153.447 140.609 154.07 140.279 154.392 139.617V133.547H156.291V142H154.502L154.455 141.172ZM164.643 139.703C164.643 139.365 164.502 139.107 164.221 138.93C163.945 138.753 163.484 138.596 162.838 138.461C162.192 138.326 161.653 138.154 161.221 137.945C160.273 137.487 159.799 136.823 159.799 135.953C159.799 135.224 160.106 134.615 160.721 134.125C161.336 133.635 162.117 133.391 163.065 133.391C164.075 133.391 164.89 133.641 165.51 134.141C166.135 134.641 166.447 135.289 166.447 136.086H164.549C164.549 135.721 164.414 135.419 164.143 135.18C163.872 134.935 163.513 134.812 163.065 134.812C162.648 134.812 162.307 134.909 162.041 135.102C161.781 135.294 161.651 135.552 161.651 135.875C161.651 136.167 161.773 136.393 162.018 136.555C162.263 136.716 162.757 136.88 163.502 137.047C164.247 137.208 164.83 137.404 165.252 137.633C165.679 137.857 165.994 138.128 166.197 138.445C166.406 138.763 166.51 139.148 166.51 139.602C166.51 140.362 166.195 140.979 165.565 141.453C164.934 141.922 164.109 142.156 163.088 142.156C162.395 142.156 161.778 142.031 161.237 141.781C160.695 141.531 160.273 141.188 159.971 140.75C159.669 140.312 159.518 139.841 159.518 139.336H161.362C161.388 139.784 161.557 140.13 161.869 140.375C162.182 140.615 162.596 140.734 163.112 140.734C163.612 140.734 163.992 140.641 164.252 140.453C164.513 140.26 164.643 140.01 164.643 139.703ZM173.573 142.156C172.37 142.156 171.393 141.779 170.643 141.023C169.898 140.263 169.526 139.253 169.526 137.992V137.758C169.526 136.914 169.687 136.161 170.01 135.5C170.338 134.833 170.797 134.315 171.385 133.945C171.974 133.576 172.63 133.391 173.354 133.391C174.505 133.391 175.393 133.758 176.018 134.492C176.648 135.227 176.963 136.266 176.963 137.609V138.375H171.44C171.497 139.073 171.729 139.625 172.135 140.031C172.547 140.438 173.062 140.641 173.682 140.641C174.552 140.641 175.26 140.289 175.807 139.586L176.831 140.562C176.492 141.068 176.039 141.461 175.471 141.742C174.909 142.018 174.276 142.156 173.573 142.156ZM173.346 134.914C172.825 134.914 172.404 135.096 172.081 135.461C171.763 135.826 171.56 136.333 171.471 136.984H175.088V136.844C175.047 136.208 174.877 135.729 174.581 135.406C174.284 135.078 173.872 134.914 173.346 134.914ZM184.55 135.281C184.3 135.24 184.042 135.219 183.776 135.219C182.906 135.219 182.321 135.552 182.018 136.219V142H180.12V133.547H181.932L181.979 134.492C182.438 133.758 183.073 133.391 183.886 133.391C184.156 133.391 184.38 133.427 184.557 133.5L184.55 135.281ZM192.167 139.703C192.167 139.365 192.027 139.107 191.745 138.93C191.469 138.753 191.008 138.596 190.362 138.461C189.717 138.326 189.178 138.154 188.745 137.945C187.797 137.487 187.323 136.823 187.323 135.953C187.323 135.224 187.631 134.615 188.245 134.125C188.86 133.635 189.641 133.391 190.589 133.391C191.599 133.391 192.415 133.641 193.034 134.141C193.659 134.641 193.972 135.289 193.972 136.086H192.073C192.073 135.721 191.938 135.419 191.667 135.18C191.396 134.935 191.037 134.812 190.589 134.812C190.172 134.812 189.831 134.909 189.566 135.102C189.305 135.294 189.175 135.552 189.175 135.875C189.175 136.167 189.297 136.393 189.542 136.555C189.787 136.716 190.282 136.88 191.027 137.047C191.771 137.208 192.355 137.404 192.777 137.633C193.204 137.857 193.519 138.128 193.722 138.445C193.93 138.763 194.034 139.148 194.034 139.602C194.034 140.362 193.719 140.979 193.089 141.453C192.459 141.922 191.633 142.156 190.612 142.156C189.92 142.156 189.303 142.031 188.761 141.781C188.219 141.531 187.797 141.188 187.495 140.75C187.193 140.312 187.042 139.841 187.042 139.336H188.886C188.912 139.784 189.081 140.13 189.394 140.375C189.706 140.615 190.12 140.734 190.636 140.734C191.136 140.734 191.516 140.641 191.777 140.453C192.037 140.26 192.167 140.01 192.167 139.703Z" fill="#424242"/>
<path d="M100.885 170V160.047H104.296C105.421 160.047 106.278 160.272 106.866 160.724C107.454 161.175 107.748 161.847 107.748 162.74C107.748 163.196 107.625 163.606 107.379 163.971C107.133 164.335 106.773 164.618 106.299 164.818C106.836 164.964 107.251 165.24 107.543 165.646C107.839 166.047 107.987 166.53 107.987 167.095C107.987 168.029 107.686 168.747 107.085 169.248C106.488 169.749 105.631 170 104.514 170H100.885ZM102.614 165.509V168.619H104.535C105.077 168.619 105.501 168.485 105.806 168.216C106.112 167.947 106.264 167.573 106.264 167.095C106.264 166.06 105.736 165.532 104.679 165.509H102.614ZM102.614 164.237H104.309C104.847 164.237 105.266 164.117 105.567 163.875C105.873 163.629 106.025 163.283 106.025 162.836C106.025 162.344 105.884 161.988 105.601 161.77C105.323 161.551 104.888 161.441 104.296 161.441H102.614V164.237ZM121.134 165.557H117.046V168.619H121.824V170H115.317V160.047H121.777V161.441H117.046V164.189H121.134V165.557ZM136.161 161.441H133.057V170H131.341V161.441H128.265V160.047H136.161V161.441ZM150.374 161.441H147.271V170H145.555V161.441H142.479V160.047H150.374V161.441ZM163.104 165.557H159.016V168.619H163.794V170H157.287V160.047H163.746V161.441H159.016V164.189H163.104V165.557ZM174.46 166.165H172.532V170H170.803V160.047H174.303C175.451 160.047 176.337 160.304 176.962 160.819C177.586 161.334 177.898 162.079 177.898 163.055C177.898 163.72 177.736 164.278 177.413 164.729C177.094 165.176 176.647 165.52 176.073 165.762L178.308 169.911V170H176.456L174.46 166.165ZM172.532 164.777H174.309C174.893 164.777 175.348 164.632 175.677 164.34C176.005 164.044 176.169 163.64 176.169 163.13C176.169 162.597 176.016 162.184 175.711 161.893C175.41 161.601 174.959 161.451 174.357 161.441H172.532V164.777ZM104.692 185.76C104.592 186.822 104.2 187.651 103.516 188.248C102.833 188.84 101.924 189.137 100.789 189.137C99.9959 189.137 99.2964 188.95 98.6902 188.576C98.0887 188.198 97.6238 187.662 97.2957 186.97C96.9676 186.277 96.7967 185.473 96.783 184.557V183.627C96.783 182.688 96.9493 181.861 97.282 181.146C97.6147 180.43 98.091 179.879 98.7107 179.491C99.3351 179.104 100.055 178.91 100.871 178.91C101.969 178.91 102.853 179.209 103.523 179.806C104.193 180.403 104.583 181.246 104.692 182.335H102.97C102.888 181.619 102.678 181.104 102.341 180.79C102.008 180.471 101.518 180.312 100.871 180.312C100.119 180.312 99.5402 180.587 99.1346 181.139C98.7335 181.686 98.5285 182.49 98.5193 183.552V184.434C98.5193 185.509 98.7107 186.329 99.0936 186.895C99.4809 187.46 100.046 187.742 100.789 187.742C101.468 187.742 101.978 187.59 102.32 187.284C102.662 186.979 102.878 186.471 102.97 185.76H104.692ZM119.746 189H118.024V184.577H113.573V189H111.844V179.047H113.573V183.189H118.024V179.047H119.746V189ZM135.34 184.283C135.34 185.258 135.172 186.115 134.835 186.854C134.497 187.587 134.014 188.152 133.385 188.549C132.761 188.941 132.041 189.137 131.225 189.137C130.419 189.137 129.699 188.941 129.065 188.549C128.436 188.152 127.949 187.59 127.602 186.86C127.26 186.131 127.087 185.29 127.083 184.338V183.777C127.083 182.807 127.254 181.95 127.595 181.207C127.942 180.464 128.427 179.897 129.051 179.505C129.68 179.108 130.4 178.91 131.212 178.91C132.023 178.91 132.74 179.106 133.365 179.498C133.994 179.885 134.479 180.446 134.821 181.18C135.163 181.909 135.336 182.759 135.34 183.729V184.283ZM133.611 183.764C133.611 182.661 133.401 181.815 132.982 181.228C132.567 180.64 131.977 180.346 131.212 180.346C130.464 180.346 129.879 180.64 129.455 181.228C129.035 181.811 128.821 182.638 128.812 183.709V184.283C128.812 185.377 129.024 186.222 129.448 186.819C129.876 187.416 130.469 187.715 131.225 187.715C131.991 187.715 132.579 187.423 132.989 186.84C133.404 186.257 133.611 185.404 133.611 184.283V183.764ZM144.488 189H142.766V179.047H144.488V189ZM159.809 185.76C159.709 186.822 159.317 187.651 158.633 188.248C157.95 188.84 157.04 189.137 155.906 189.137C155.113 189.137 154.413 188.95 153.807 188.576C153.205 188.198 152.741 187.662 152.413 186.97C152.084 186.277 151.913 185.473 151.9 184.557V183.627C151.9 182.688 152.066 181.861 152.399 181.146C152.732 180.43 153.208 179.879 153.828 179.491C154.452 179.104 155.172 178.91 155.988 178.91C157.086 178.91 157.97 179.209 158.64 179.806C159.31 180.403 159.7 181.246 159.809 182.335H158.086C158.004 181.619 157.795 181.104 157.457 180.79C157.125 180.471 156.635 180.312 155.988 180.312C155.236 180.312 154.657 180.587 154.251 181.139C153.85 181.686 153.645 182.49 153.636 183.552V184.434C153.636 185.509 153.828 186.329 154.21 186.895C154.598 187.46 155.163 187.742 155.906 187.742C156.585 187.742 157.095 187.59 157.437 187.284C157.779 186.979 157.995 186.471 158.086 185.76H159.809ZM172.778 184.557H168.69V187.619H173.469V189H166.961V179.047H173.421V180.441H168.69V183.189H172.778V184.557ZM185.679 186.437C185.679 185.999 185.524 185.662 185.214 185.425C184.909 185.188 184.355 184.949 183.553 184.707C182.751 184.465 182.113 184.197 181.639 183.9C180.732 183.331 180.279 182.588 180.279 181.672C180.279 180.87 180.604 180.209 181.256 179.689C181.912 179.17 182.762 178.91 183.806 178.91C184.499 178.91 185.116 179.038 185.658 179.293C186.201 179.548 186.627 179.913 186.937 180.387C187.247 180.856 187.402 181.378 187.402 181.952H185.679C185.679 181.433 185.515 181.027 185.187 180.735C184.863 180.439 184.398 180.291 183.792 180.291C183.227 180.291 182.787 180.412 182.473 180.653C182.163 180.895 182.008 181.232 182.008 181.665C182.008 182.03 182.177 182.335 182.514 182.581C182.851 182.823 183.407 183.06 184.182 183.292C184.957 183.52 185.579 183.782 186.048 184.078C186.517 184.37 186.862 184.707 187.08 185.09C187.299 185.468 187.408 185.912 187.408 186.423C187.408 187.252 187.089 187.913 186.451 188.405C185.818 188.893 184.957 189.137 183.867 189.137C183.147 189.137 182.484 189.005 181.878 188.74C181.277 188.471 180.807 188.102 180.47 187.633C180.137 187.163 179.971 186.617 179.971 185.992H181.7C181.7 186.557 181.887 186.995 182.261 187.305C182.635 187.615 183.17 187.77 183.867 187.77C184.469 187.77 184.92 187.649 185.221 187.407C185.526 187.161 185.679 186.838 185.679 186.437Z" fill="#424242"/>
<path d="M81.1158 109.864V113H78.8877V103.758H82.5757C83.2824 103.758 83.9066 103.889 84.4483 104.151C84.9942 104.41 85.4152 104.78 85.7115 105.262C86.0119 105.74 86.1621 106.284 86.1621 106.894C86.1621 107.795 85.8384 108.516 85.191 109.058C84.5477 109.596 83.6633 109.864 82.5376 109.864H81.1158ZM81.1158 108.144H82.5757C83.0074 108.144 83.3353 108.036 83.5596 107.82C83.7881 107.604 83.9024 107.3 83.9024 106.906C83.9024 106.475 83.786 106.13 83.5533 105.872C83.3205 105.613 83.0031 105.482 82.6011 105.478H81.1158V108.144ZM92.3201 111.273H89.2669L88.7337 113H86.3533L89.743 103.758H91.8377L95.2528 113H92.8597L92.3201 111.273ZM89.8001 109.553H91.7869L90.7904 106.348L89.8001 109.553ZM101.544 110.543C101.544 110.218 101.428 109.964 101.195 109.782C100.966 109.6 100.562 109.411 99.9825 109.217C99.4028 109.022 98.9288 108.834 98.5606 108.652C97.3631 108.064 96.7643 107.255 96.7643 106.227C96.7643 105.715 96.9124 105.264 97.2086 104.875C97.509 104.481 97.9322 104.177 98.4781 103.961C99.024 103.741 99.6376 103.631 100.319 103.631C100.983 103.631 101.578 103.749 102.103 103.986C102.632 104.223 103.042 104.562 103.334 105.002C103.626 105.438 103.772 105.937 103.772 106.5H101.55C101.55 106.123 101.434 105.831 101.201 105.624C100.973 105.417 100.662 105.313 100.268 105.313C99.8704 105.313 99.5551 105.402 99.3224 105.58C99.0938 105.753 98.9796 105.975 98.9796 106.246C98.9796 106.483 99.1065 106.699 99.3604 106.894C99.6144 107.084 100.061 107.283 100.7 107.49C101.339 107.693 101.864 107.913 102.274 108.15C103.273 108.726 103.772 109.519 103.772 110.531C103.772 111.339 103.467 111.974 102.858 112.435C102.249 112.896 101.413 113.127 100.351 113.127C99.6017 113.127 98.9225 112.994 98.3131 112.727C97.7079 112.456 97.2509 112.088 96.942 111.623C96.6373 111.153 96.485 110.613 96.485 110.004H98.7193C98.7193 110.499 98.8463 110.865 99.1002 111.102C99.3583 111.335 99.7752 111.451 100.351 111.451C100.719 111.451 101.009 111.373 101.22 111.216C101.436 111.056 101.544 110.831 101.544 110.543ZM110.527 110.543C110.527 110.218 110.41 109.964 110.178 109.782C109.949 109.6 109.545 109.411 108.965 109.217C108.385 109.022 107.912 108.834 107.543 108.652C106.346 108.064 105.747 107.255 105.747 106.227C105.747 105.715 105.895 105.264 106.191 104.875C106.492 104.481 106.915 104.177 107.461 103.961C108.007 103.741 108.62 103.631 109.302 103.631C109.966 103.631 110.561 103.749 111.085 103.986C111.614 104.223 112.025 104.562 112.317 105.002C112.609 105.438 112.755 105.937 112.755 106.5H110.533C110.533 106.123 110.417 105.831 110.184 105.624C109.955 105.417 109.644 105.313 109.251 105.313C108.853 105.313 108.538 105.402 108.305 105.58C108.077 105.753 107.962 105.975 107.962 106.246C107.962 106.483 108.089 106.699 108.343 106.894C108.597 107.084 109.044 107.283 109.682 107.49C110.321 107.693 110.846 107.913 111.257 108.15C112.255 108.726 112.755 109.519 112.755 110.531C112.755 111.339 112.45 111.974 111.841 112.435C111.231 112.896 110.396 113.127 109.333 113.127C108.584 113.127 107.905 112.994 107.296 112.727C106.691 112.456 106.234 112.088 105.925 111.623C105.62 111.153 105.468 110.613 105.468 110.004H107.702C107.702 110.499 107.829 110.865 108.083 111.102C108.341 111.335 108.758 111.451 109.333 111.451C109.702 111.451 109.991 111.373 110.203 111.216C110.419 111.056 110.527 110.831 110.527 110.543ZM117.116 113H114.895V103.758H117.116V113ZM127.337 108.569C127.337 109.471 127.17 110.268 126.835 110.962C126.501 111.656 126.025 112.192 125.407 112.568C124.794 112.941 124.093 113.127 123.306 113.127C122.519 113.127 121.821 112.947 121.211 112.587C120.602 112.223 120.126 111.705 119.783 111.032C119.445 110.359 119.267 109.587 119.25 108.715V108.195C119.25 107.289 119.415 106.492 119.745 105.802C120.079 105.108 120.555 104.572 121.173 104.196C121.795 103.819 122.502 103.631 123.293 103.631C124.076 103.631 124.775 103.817 125.388 104.189C126.002 104.562 126.478 105.093 126.816 105.783C127.159 106.468 127.333 107.255 127.337 108.144V108.569ZM125.071 108.182C125.071 107.264 124.916 106.568 124.607 106.094C124.303 105.616 123.865 105.376 123.293 105.376C122.176 105.376 121.586 106.214 121.522 107.89L121.516 108.569C121.516 109.475 121.666 110.171 121.967 110.658C122.267 111.144 122.714 111.388 123.306 111.388C123.869 111.388 124.303 111.149 124.607 110.67C124.912 110.192 125.067 109.505 125.071 108.607V108.182ZM137.05 113H134.834L131.559 107.249V113H129.331V103.758H131.559L134.828 109.509V103.758H137.05V113ZM145.614 109.864V113H143.386V103.758H147.074C147.781 103.758 148.405 103.889 148.947 104.151C149.492 104.41 149.914 104.78 150.21 105.262C150.51 105.74 150.66 106.284 150.66 106.894C150.66 107.795 150.337 108.516 149.689 109.058C149.046 109.596 148.162 109.864 147.036 109.864H145.614ZM145.614 108.144H147.074C147.506 108.144 147.834 108.036 148.058 107.82C148.286 107.604 148.401 107.3 148.401 106.906C148.401 106.475 148.284 106.13 148.052 105.872C147.819 105.613 147.501 105.482 147.099 105.478H145.614V108.144ZM156.133 109.737H154.927V113H152.699V103.758H156.336C157.432 103.758 158.289 104.001 158.907 104.488C159.525 104.974 159.834 105.662 159.834 106.551C159.834 107.194 159.702 107.727 159.44 108.15C159.182 108.574 158.776 108.916 158.221 109.179L160.151 112.905V113H157.764L156.133 109.737ZM154.927 108.017H156.336C156.759 108.017 157.077 107.907 157.288 107.687C157.504 107.463 157.612 107.152 157.612 106.754C157.612 106.356 157.504 106.045 157.288 105.821C157.072 105.592 156.755 105.478 156.336 105.478H154.927V108.017ZM169.851 108.569C169.851 109.471 169.684 110.268 169.349 110.962C169.015 111.656 168.539 112.192 167.921 112.568C167.308 112.941 166.607 113.127 165.82 113.127C165.033 113.127 164.335 112.947 163.725 112.587C163.116 112.223 162.64 111.705 162.297 111.032C161.959 110.359 161.781 109.587 161.764 108.715V108.195C161.764 107.289 161.929 106.492 162.259 105.802C162.593 105.108 163.07 104.572 163.687 104.196C164.309 103.819 165.016 103.631 165.807 103.631C166.59 103.631 167.289 103.817 167.902 104.189C168.516 104.562 168.992 105.093 169.33 105.783C169.673 106.468 169.847 107.255 169.851 108.144V108.569ZM167.585 108.182C167.585 107.264 167.43 106.568 167.121 106.094C166.817 105.616 166.379 105.376 165.807 105.376C164.69 105.376 164.1 106.214 164.036 107.89L164.03 108.569C164.03 109.475 164.18 110.171 164.481 110.658C164.781 111.144 165.228 111.388 165.82 111.388C166.383 111.388 166.817 111.149 167.121 110.67C167.426 110.192 167.581 109.505 167.585 108.607V108.182ZM175.526 103.758H177.748V110.099C177.748 110.687 177.611 111.212 177.336 111.673C177.065 112.135 176.684 112.492 176.193 112.746C175.706 113 175.163 113.127 174.562 113.127C173.554 113.127 172.772 112.873 172.213 112.365C171.654 111.857 171.375 111.138 171.375 110.207H173.609C173.609 110.63 173.681 110.937 173.825 111.127C173.973 111.318 174.219 111.413 174.562 111.413C174.871 111.413 175.108 111.299 175.273 111.07C175.442 110.838 175.526 110.514 175.526 110.099V103.758ZM185.734 109.083H182.23V111.286H186.369V113H180.002V103.758H186.382V105.478H182.23V107.427H185.734V109.083ZM195.599 109.871C195.57 110.514 195.396 111.083 195.079 111.578C194.761 112.069 194.315 112.45 193.739 112.721C193.168 112.992 192.514 113.127 191.778 113.127C190.563 113.127 189.607 112.731 188.909 111.94C188.211 111.149 187.862 110.031 187.862 108.588V108.131C187.862 107.226 188.018 106.434 188.331 105.757C188.649 105.076 189.104 104.551 189.696 104.183C190.288 103.811 190.974 103.625 191.753 103.625C192.874 103.625 193.775 103.921 194.457 104.513C195.138 105.101 195.525 105.914 195.618 106.951H193.397C193.38 106.388 193.238 105.984 192.971 105.738C192.705 105.493 192.299 105.37 191.753 105.37C191.198 105.37 190.792 105.577 190.534 105.992C190.276 106.407 190.14 107.069 190.128 107.979V108.633C190.128 109.619 190.25 110.323 190.496 110.747C190.745 111.17 191.173 111.381 191.778 111.381C192.29 111.381 192.681 111.261 192.952 111.02C193.223 110.778 193.367 110.395 193.384 109.871H195.599ZM204.563 105.478H201.789V113H199.561V105.478H196.838V103.758H204.563V105.478Z" fill="#424242"/>
<defs>
<filter id="filter0_d" x="0" y="0" width="283" height="259.167" filterUnits="userSpaceOnUse" color-interpolation-filters="sRGB">
<feFlood flood-opacity="0" result="BackgroundImageFix"/>
<feColorMatrix in="SourceAlpha" type="matrix" values="0 0 0 0 0 0 0 0 0 0 0 0 0 0 0 0 0 0 127 0"/>
<feOffset dy="4"/>
<feGaussianBlur stdDeviation="2"/>
<feColorMatrix type="matrix" values="0 0 0 0 0 0 0 0 0 0 0 0 0 0 0 0 0 0 0.25 0"/>
<feBlend mode="normal" in2="BackgroundImageFix" result="effect1_dropShadow"/>
<feBlend mode="normal" in="SourceGraphic" in2="effect1_dropShadow" result="shape"/>
</filter>
<linearGradient id="paint0_linear" x1="141.999" y1="76.2804" x2="141.999" y2="43.7217" gradientUnits="userSpaceOnUse">
<stop stop-color="#4F5DD9"/>
<stop offset="1" stop-color="#FD3A84"/>
</linearGradient>
</defs>
</svg>
