<svg width="308" height="282" viewBox="0 0 308 282" fill="none" xmlns="http://www.w3.org/2000/svg">
<g filter="url(#filter0_d)">
<rect x="4" width="300" height="274" rx="10" fill="#1F1F1F"/>
</g>
<path d="M103.836 157V146.336H107.322C108.479 146.336 109.349 146.575 109.93 147.054C110.516 147.532 110.809 148.24 110.809 149.178C110.809 149.676 110.667 150.118 110.384 150.503C110.101 150.884 109.715 151.18 109.227 151.39C109.803 151.551 110.257 151.858 110.589 152.312C110.926 152.762 111.094 153.299 111.094 153.924C111.094 154.881 110.784 155.633 110.164 156.18C109.544 156.727 108.667 157 107.535 157H103.836ZM105.242 152.012V155.85H107.564C108.218 155.85 108.733 155.682 109.109 155.345C109.49 155.003 109.681 154.534 109.681 153.938C109.681 152.654 108.982 152.012 107.586 152.012H105.242ZM105.242 150.884H107.366C107.981 150.884 108.472 150.73 108.838 150.423C109.209 150.115 109.395 149.698 109.395 149.17C109.395 148.584 109.224 148.16 108.882 147.896C108.541 147.627 108.021 147.493 107.322 147.493H105.242V150.884ZM128.809 152.071H124.188V155.85H129.557V157H122.782V146.336H129.483V147.493H124.188V150.921H128.809V152.071ZM148.422 147.493H144.994V157H143.595V147.493H140.175V146.336H148.422V147.493ZM167.089 147.493H163.661V157H162.262V147.493H158.842V146.336H167.089V147.493ZM184.299 152.071H179.677V155.85H185.046V157H178.271V146.336H184.973V147.493H179.677V150.921H184.299V152.071ZM200.308 152.686H197.803V157H196.389V146.336H199.919C201.121 146.336 202.043 146.609 202.688 147.156C203.337 147.703 203.662 148.499 203.662 149.544C203.662 150.208 203.481 150.787 203.12 151.28C202.764 151.773 202.266 152.142 201.626 152.386L204.131 156.912V157H202.622L200.308 152.686ZM197.803 151.536H199.963C200.662 151.536 201.216 151.355 201.626 150.994C202.041 150.633 202.249 150.149 202.249 149.544C202.249 148.885 202.051 148.379 201.655 148.028C201.265 147.676 200.698 147.498 199.956 147.493H197.803V151.536ZM102.749 175.616C102.617 176.744 102.2 177.616 101.497 178.231C100.799 178.841 99.8685 179.146 98.7063 179.146C97.4466 179.146 96.4358 178.695 95.6741 177.792C94.9173 176.888 94.5389 175.68 94.5389 174.166V173.141C94.5389 172.149 94.7146 171.278 95.0662 170.526C95.4227 169.774 95.9256 169.198 96.575 168.797C97.2244 168.392 97.9764 168.189 98.8309 168.189C99.9637 168.189 100.872 168.507 101.555 169.142C102.239 169.771 102.637 170.646 102.749 171.764H101.336C101.214 170.914 100.948 170.299 100.537 169.918C100.132 169.537 99.5633 169.347 98.8309 169.347C97.9324 169.347 97.2269 169.679 96.7142 170.343C96.2063 171.007 95.9524 171.952 95.9524 173.177V174.21C95.9524 175.367 96.1941 176.288 96.6775 176.971C97.1609 177.655 97.8372 177.997 98.7063 177.997C99.4876 177.997 100.086 177.821 100.501 177.469C100.921 177.113 101.199 176.495 101.336 175.616H102.749ZM122.471 179H121.058V174.071H115.682V179H114.276V168.336H115.682V172.921H121.058V168.336H122.471V179ZM142.772 174.012C142.772 175.057 142.596 175.97 142.245 176.751C141.893 177.528 141.395 178.121 140.751 178.531C140.106 178.941 139.354 179.146 138.495 179.146C137.655 179.146 136.91 178.941 136.261 178.531C135.611 178.116 135.106 177.528 134.745 176.766C134.388 176 134.205 175.113 134.195 174.107V173.338C134.195 172.313 134.374 171.407 134.73 170.621C135.087 169.835 135.589 169.234 136.239 168.819C136.893 168.399 137.64 168.189 138.48 168.189C139.335 168.189 140.087 168.397 140.736 168.812C141.39 169.222 141.893 169.82 142.245 170.606C142.596 171.388 142.772 172.298 142.772 173.338V174.012ZM141.373 173.324C141.373 172.059 141.119 171.09 140.611 170.416C140.104 169.737 139.393 169.398 138.48 169.398C137.591 169.398 136.891 169.737 136.378 170.416C135.87 171.09 135.609 172.027 135.594 173.229V174.012C135.594 175.238 135.851 176.202 136.363 176.905C136.881 177.604 137.591 177.953 138.495 177.953C139.403 177.953 140.106 177.623 140.604 176.964C141.102 176.3 141.358 175.35 141.373 174.115V173.324ZM155.99 179H154.584V168.336H155.99V179ZM176.013 175.616C175.881 176.744 175.463 177.616 174.76 178.231C174.062 178.841 173.132 179.146 171.97 179.146C170.71 179.146 169.699 178.695 168.937 177.792C168.181 176.888 167.802 175.68 167.802 174.166V173.141C167.802 172.149 167.978 171.278 168.329 170.526C168.686 169.774 169.189 169.198 169.838 168.797C170.488 168.392 171.24 168.189 172.094 168.189C173.227 168.189 174.135 168.507 174.819 169.142C175.502 169.771 175.9 170.646 176.013 171.764H174.599C174.477 170.914 174.211 170.299 173.801 169.918C173.395 169.537 172.827 169.347 172.094 169.347C171.196 169.347 170.49 169.679 169.977 170.343C169.47 171.007 169.216 171.952 169.216 173.177V174.21C169.216 175.367 169.457 176.288 169.941 176.971C170.424 177.655 171.1 177.997 171.97 177.997C172.751 177.997 173.349 177.821 173.764 177.469C174.184 177.113 174.462 176.495 174.599 175.616H176.013ZM193.567 174.071H188.945V177.85H194.314V179H187.539V168.336H194.241V169.493H188.945V172.921H193.567V174.071ZM208.806 174.247C207.6 173.9 206.721 173.475 206.17 172.972C205.623 172.464 205.349 171.839 205.349 171.097C205.349 170.257 205.684 169.564 206.353 169.017C207.027 168.465 207.901 168.189 208.975 168.189C209.707 168.189 210.359 168.331 210.93 168.614C211.507 168.897 211.951 169.288 212.263 169.786C212.581 170.284 212.739 170.829 212.739 171.419H211.326C211.326 170.775 211.121 170.27 210.711 169.903C210.3 169.532 209.722 169.347 208.975 169.347C208.281 169.347 207.739 169.5 207.349 169.808C206.963 170.111 206.77 170.533 206.77 171.075C206.77 171.51 206.953 171.878 207.32 172.181C207.691 172.479 208.318 172.752 209.202 173.001C210.091 173.25 210.784 173.526 211.282 173.829C211.785 174.127 212.156 174.476 212.395 174.876C212.639 175.277 212.761 175.748 212.761 176.29C212.761 177.154 212.425 177.848 211.751 178.37C211.077 178.888 210.176 179.146 209.048 179.146C208.316 179.146 207.632 179.007 206.997 178.729C206.363 178.446 205.872 178.06 205.525 177.572C205.183 177.083 205.012 176.529 205.012 175.909H206.426C206.426 176.554 206.663 177.064 207.136 177.44C207.615 177.811 208.252 177.997 209.048 177.997C209.79 177.997 210.359 177.845 210.755 177.542C211.15 177.24 211.348 176.827 211.348 176.305C211.348 175.782 211.165 175.379 210.799 175.096C210.432 174.808 209.768 174.525 208.806 174.247Z" fill="white"/>
<path d="M103.604 121.695C103.604 120.372 103.895 119.326 104.479 118.555C105.067 117.779 105.864 117.391 106.869 117.391C108.02 117.391 108.895 117.849 109.494 118.766L109.541 117.547H110.416V125.828C110.416 126.917 110.112 127.779 109.502 128.414C108.893 129.049 108.067 129.367 107.026 129.367C106.437 129.367 105.875 129.234 105.338 128.969C104.807 128.708 104.388 128.359 104.08 127.922L104.604 127.359C105.265 128.172 106.052 128.578 106.963 128.578C107.744 128.578 108.354 128.346 108.791 127.883C109.229 127.424 109.455 126.786 109.471 125.969V124.906C108.872 125.74 108 126.156 106.854 126.156C105.875 126.156 105.088 125.766 104.494 124.984C103.901 124.203 103.604 123.148 103.604 121.82V121.695ZM104.549 121.859C104.549 122.938 104.765 123.789 105.198 124.414C105.63 125.034 106.239 125.344 107.026 125.344C108.177 125.344 108.992 124.828 109.471 123.797V119.867C109.252 119.326 108.937 118.914 108.526 118.633C108.114 118.346 107.619 118.203 107.041 118.203C106.255 118.203 105.643 118.513 105.205 119.133C104.768 119.747 104.549 120.656 104.549 121.859ZM115.581 126H114.643V117.547H115.581V126ZM114.479 115.102C114.479 114.924 114.536 114.776 114.651 114.656C114.766 114.531 114.922 114.469 115.12 114.469C115.318 114.469 115.474 114.531 115.588 114.656C115.708 114.776 115.768 114.924 115.768 115.102C115.768 115.279 115.708 115.427 115.588 115.547C115.474 115.667 115.318 115.727 115.12 115.727C114.922 115.727 114.766 115.667 114.651 115.547C114.536 115.427 114.479 115.279 114.479 115.102ZM122.44 124.711L125.011 117.547H125.972L122.815 126H122.058L118.886 117.547H119.847L122.44 124.711ZM130.238 126H129.3V117.547H130.238V126ZM129.136 115.102C129.136 114.924 129.193 114.776 129.308 114.656C129.422 114.531 129.579 114.469 129.777 114.469C129.974 114.469 130.131 114.531 130.245 114.656C130.365 114.776 130.425 114.924 130.425 115.102C130.425 115.279 130.365 115.427 130.245 115.547C130.131 115.667 129.974 115.727 129.777 115.727C129.579 115.727 129.422 115.667 129.308 115.547C129.193 115.427 129.136 115.279 129.136 115.102ZM135.355 117.547L135.386 118.992C135.704 118.471 136.1 118.076 136.574 117.805C137.048 117.529 137.571 117.391 138.144 117.391C139.05 117.391 139.725 117.646 140.168 118.156C140.61 118.667 140.834 119.432 140.839 120.453V126H139.91V120.445C139.904 119.69 139.743 119.128 139.425 118.758C139.113 118.388 138.61 118.203 137.918 118.203C137.339 118.203 136.826 118.385 136.378 118.75C135.936 119.109 135.608 119.596 135.394 120.211V126H134.464V117.547H135.355ZM144.566 121.695C144.566 120.372 144.858 119.326 145.441 118.555C146.03 117.779 146.827 117.391 147.832 117.391C148.983 117.391 149.858 117.849 150.457 118.766L150.504 117.547H151.379V125.828C151.379 126.917 151.074 127.779 150.465 128.414C149.855 129.049 149.03 129.367 147.988 129.367C147.4 129.367 146.837 129.234 146.301 128.969C145.769 128.708 145.35 128.359 145.043 127.922L145.566 127.359C146.228 128.172 147.014 128.578 147.926 128.578C148.707 128.578 149.316 128.346 149.754 127.883C150.191 127.424 150.418 126.786 150.433 125.969V124.906C149.834 125.74 148.962 126.156 147.816 126.156C146.837 126.156 146.051 125.766 145.457 124.984C144.863 124.203 144.566 123.148 144.566 121.82V121.695ZM145.512 121.859C145.512 122.938 145.728 123.789 146.16 124.414C146.592 125.034 147.202 125.344 147.988 125.344C149.139 125.344 149.954 124.828 150.433 123.797V119.867C150.215 119.326 149.9 118.914 149.488 118.633C149.077 118.346 148.582 118.203 148.004 118.203C147.217 118.203 146.605 118.513 146.168 119.133C145.73 119.747 145.512 120.656 145.512 121.859ZM166.504 124.93C165.942 125.747 165.043 126.156 163.809 126.156C162.908 126.156 162.223 125.896 161.754 125.375C161.286 124.849 161.046 124.073 161.036 123.047V117.547H161.965V122.93C161.965 124.539 162.616 125.344 163.918 125.344C165.273 125.344 166.129 124.784 166.489 123.664V117.547H167.426V126H166.52L166.504 124.93ZM176.606 123.852C176.606 123.388 176.419 123.016 176.044 122.734C175.674 122.453 175.114 122.234 174.364 122.078C173.614 121.917 173.031 121.734 172.614 121.531C172.203 121.323 171.895 121.07 171.692 120.773C171.494 120.477 171.395 120.117 171.395 119.695C171.395 119.029 171.674 118.479 172.231 118.047C172.789 117.609 173.502 117.391 174.372 117.391C175.315 117.391 176.07 117.625 176.638 118.094C177.21 118.557 177.497 119.164 177.497 119.914H176.559C176.559 119.419 176.351 119.008 175.934 118.68C175.523 118.352 175.002 118.188 174.372 118.188C173.757 118.188 173.263 118.326 172.888 118.602C172.518 118.872 172.333 119.227 172.333 119.664C172.333 120.086 172.486 120.414 172.794 120.648C173.106 120.878 173.671 121.089 174.489 121.281C175.312 121.474 175.927 121.68 176.333 121.898C176.744 122.117 177.049 122.38 177.247 122.688C177.445 122.995 177.544 123.367 177.544 123.805C177.544 124.518 177.255 125.089 176.677 125.516C176.104 125.943 175.354 126.156 174.427 126.156C173.442 126.156 172.643 125.919 172.028 125.445C171.419 124.966 171.114 124.362 171.114 123.633H172.052C172.088 124.18 172.317 124.607 172.739 124.914C173.166 125.216 173.729 125.367 174.427 125.367C175.078 125.367 175.604 125.224 176.005 124.938C176.406 124.651 176.606 124.289 176.606 123.852ZM184.607 126.156C183.888 126.156 183.237 125.979 182.653 125.625C182.075 125.271 181.625 124.779 181.302 124.148C180.979 123.513 180.818 122.802 180.818 122.016V121.68C180.818 120.867 180.974 120.135 181.286 119.484C181.604 118.833 182.044 118.323 182.607 117.953C183.169 117.578 183.778 117.391 184.435 117.391C185.461 117.391 186.273 117.742 186.872 118.445C187.476 119.143 187.778 120.099 187.778 121.312V121.836H181.747V122.016C181.747 122.974 182.021 123.773 182.568 124.414C183.12 125.049 183.812 125.367 184.646 125.367C185.146 125.367 185.586 125.276 185.966 125.094C186.351 124.911 186.7 124.62 187.013 124.219L187.599 124.664C186.911 125.659 185.914 126.156 184.607 126.156ZM184.435 118.188C183.732 118.188 183.138 118.445 182.653 118.961C182.174 119.477 181.883 120.169 181.778 121.039H186.849V120.938C186.823 120.125 186.591 119.464 186.153 118.953C185.716 118.443 185.143 118.188 184.435 118.188ZM195.185 118.344C194.987 118.307 194.776 118.289 194.552 118.289C193.969 118.289 193.474 118.453 193.068 118.781C192.667 119.104 192.38 119.576 192.208 120.195V126H191.279V117.547H192.193L192.208 118.891C192.703 117.891 193.498 117.391 194.591 117.391C194.852 117.391 195.057 117.424 195.208 117.492L195.185 118.344ZM203.412 123.852C203.412 123.388 203.224 123.016 202.849 122.734C202.48 122.453 201.92 122.234 201.17 122.078C200.42 121.917 199.836 121.734 199.42 121.531C199.008 121.323 198.701 121.07 198.498 120.773C198.3 120.477 198.201 120.117 198.201 119.695C198.201 119.029 198.48 118.479 199.037 118.047C199.594 117.609 200.308 117.391 201.177 117.391C202.12 117.391 202.875 117.625 203.443 118.094C204.016 118.557 204.302 119.164 204.302 119.914H203.365C203.365 119.419 203.157 119.008 202.74 118.68C202.329 118.352 201.808 118.188 201.177 118.188C200.563 118.188 200.068 118.326 199.693 118.602C199.323 118.872 199.138 119.227 199.138 119.664C199.138 120.086 199.292 120.414 199.599 120.648C199.912 120.878 200.477 121.089 201.295 121.281C202.118 121.474 202.732 121.68 203.138 121.898C203.55 122.117 203.855 122.38 204.052 122.688C204.25 122.995 204.349 123.367 204.349 123.805C204.349 124.518 204.06 125.089 203.482 125.516C202.909 125.943 202.159 126.156 201.232 126.156C200.248 126.156 199.448 125.919 198.834 125.445C198.224 124.966 197.92 124.362 197.92 123.633H198.857C198.894 124.18 199.123 124.607 199.545 124.914C199.972 125.216 200.534 125.367 201.232 125.367C201.883 125.367 202.409 125.224 202.81 124.938C203.211 124.651 203.412 124.289 203.412 123.852Z" fill="white"/>
<path d="M156.898 75.6769C155.777 75.6769 155.353 77.0823 155.335 77.1416C155.208 77.5809 154.804 77.8855 154.348 77.8855H154.34C153.88 77.8825 153.478 77.5779 153.356 77.1346C153.34 77.0824 152.916 75.6769 151.794 75.6769C150.793 75.6769 150.271 76.5535 150.271 77.419C150.271 78.6475 151.38 79.6388 153.691 81.5889C153.902 81.7678 154.121 81.9528 154.346 82.1438C154.567 81.9558 154.782 81.7749 154.991 81.599C157.109 79.806 158.421 78.7038 158.421 77.419C158.422 76.5535 157.899 75.6769 156.898 75.6769ZM154.346 66C147.538 66 142 71.5411 142 78.3529C142 86.8676 153.088 100.077 153.561 100.635C153.755 100.866 154.043 101 154.346 101C154.65 101 154.937 100.866 155.132 100.635C155.604 100.077 166.693 86.8676 166.693 78.3529C166.693 71.5411 161.155 66 154.346 66ZM156.318 83.1723C155.91 83.517 155.476 83.883 155.02 84.2781C154.827 84.4459 154.586 84.5294 154.346 84.5294C154.105 84.5294 153.866 84.4459 153.673 84.2781C153.213 83.88 152.775 83.5101 152.363 83.1623C149.954 81.1286 148.213 79.6579 148.213 77.419C148.213 75.2879 149.787 73.6181 151.794 73.6181C152.926 73.6181 153.761 74.1347 154.346 74.7842C154.931 74.1347 155.767 73.6181 156.898 73.6181C158.906 73.6181 160.479 75.2879 160.479 77.419C160.479 79.7432 158.565 81.2747 156.318 83.1723Z" fill="url(#paint0_linear)"/>
<defs>
<filter id="filter0_d" x="0" y="0" width="308" height="282" filterUnits="userSpaceOnUse" color-interpolation-filters="sRGB">
<feFlood flood-opacity="0" result="BackgroundImageFix"/>
<feColorMatrix in="SourceAlpha" type="matrix" values="0 0 0 0 0 0 0 0 0 0 0 0 0 0 0 0 0 0 127 0"/>
<feOffset dy="4"/>
<feGaussianBlur stdDeviation="2"/>
<feColorMatrix type="matrix" values="0 0 0 0 0 0 0 0 0 0 0 0 0 0 0 0 0 0 0.25 0"/>
<feBlend mode="normal" in2="BackgroundImageFix" result="effect1_dropShadow"/>
<feBlend mode="normal" in="SourceGraphic" in2="effect1_dropShadow" result="shape"/>
</filter>
<linearGradient id="paint0_linear" x1="154.346" y1="101" x2="154.346" y2="66" gradientUnits="userSpaceOnUse">
<stop stop-color="#4F5DD9"/>
<stop offset="1" stop-color="#FD3A84"/>
</linearGradient>
</defs>
</svg>
