<svg width="264" height="343" viewBox="0 0 264 343" fill="none" xmlns="http://www.w3.org/2000/svg">
<rect y="43" width="264" height="280" rx="20" fill="#182435" fill-opacity="0.2"/>
<path d="M45.5 121.5H200.5C209.889 121.5 217.5 129.111 217.5 138.5C217.5 147.889 209.889 155.5 200.5 155.5H65C54.2305 155.5 45.5 146.77 45.5 136V121.5Z" stroke="white"/>
<path d="M63.9 144.4H65.54C66.1533 144.4 66.71 144.3 67.21 144.1C67.71 143.893 68.1367 143.607 68.49 143.24C68.8433 142.873 69.1167 142.433 69.31 141.92C69.5033 141.407 69.6 140.84 69.6 140.22C69.6 139.567 69.51 139.003 69.33 138.53C69.15 138.05 68.92 137.657 68.64 137.35C68.36 137.037 68.0467 136.807 67.7 136.66C67.36 136.507 67.0267 136.43 66.7 136.43C66.3733 136.43 66.0667 136.473 65.78 136.56C65.5 136.64 65.24 136.743 65 136.87C64.7667 136.997 64.5567 137.137 64.37 137.29C64.1833 137.443 64.0267 137.59 63.9 137.73V144.4ZM62.1 151V135L63.9 134.8V136.56L64.85 135.29C65.0433 135.177 65.3167 135.073 65.67 134.98C66.03 134.88 66.47 134.83 66.99 134.83C67.5433 134.83 68.09 134.96 68.63 135.22C69.17 135.48 69.65 135.85 70.07 136.33C70.4967 136.81 70.84 137.39 71.1 138.07C71.3667 138.75 71.5 139.51 71.5 140.35C71.5 141.17 71.34 141.927 71.02 142.62C70.7067 143.307 70.27 143.903 69.71 144.41C69.1567 144.91 68.5067 145.3 67.76 145.58C67.0133 145.86 66.21 146 65.35 146H63.9V151H62.1ZM83.3478 144.71C83.1411 144.923 82.9145 145.12 82.6678 145.3C82.4211 145.48 82.1478 145.637 81.8478 145.77C81.5478 145.897 81.2145 145.993 80.8478 146.06C80.4878 146.133 80.0845 146.17 79.6378 146.17C78.7511 146.17 77.9845 146.013 77.3378 145.7C76.6911 145.387 76.1578 144.967 75.7378 144.44C75.3178 143.913 75.0078 143.31 74.8078 142.63C74.6078 141.95 74.5078 141.24 74.5078 140.5C74.5078 140.027 74.5545 139.56 74.6478 139.1C74.7478 138.633 74.8878 138.19 75.0678 137.77C75.2545 137.35 75.4845 136.96 75.7578 136.6C76.0378 136.24 76.3578 135.93 76.7178 135.67C77.0845 135.41 77.4878 135.207 77.9278 135.06C78.3745 134.907 78.8611 134.83 79.3878 134.83C80.1078 134.83 80.7578 134.947 81.3378 135.18C81.9178 135.413 82.4111 135.74 82.8178 136.16C83.2245 136.58 83.5378 137.087 83.7578 137.68C83.9778 138.267 84.0878 138.913 84.0878 139.62C84.0878 139.827 84.0811 140.053 84.0678 140.3C84.0545 140.547 84.0345 140.78 84.0078 141H76.4078C76.4078 141.513 76.4878 141.99 76.6478 142.43C76.8078 142.863 77.0245 143.24 77.2978 143.56C77.5778 143.873 77.9045 144.12 78.2778 144.3C78.6578 144.48 79.0678 144.57 79.5078 144.57C79.9345 144.57 80.2978 144.54 80.5978 144.48C80.9045 144.413 81.1611 144.333 81.3678 144.24C81.5811 144.147 81.7578 144.047 81.8978 143.94C82.0378 143.833 82.1578 143.733 82.2578 143.64L83.3478 144.71ZM82.3278 139.5V139.06C82.3278 138.68 82.2511 138.33 82.0978 138.01C81.9511 137.69 81.7478 137.413 81.4878 137.18C81.2345 136.94 80.9378 136.753 80.5978 136.62C80.2645 136.487 79.9111 136.42 79.5378 136.42C79.0911 136.42 78.6978 136.493 78.3578 136.64C78.0245 136.78 77.7378 136.963 77.4978 137.19C77.2578 137.41 77.0645 137.653 76.9178 137.92C76.7711 138.187 76.6645 138.44 76.5978 138.68L76.0078 139.82L77.8578 139.5H82.3278ZM95.1156 144.65L94.2456 145.75C94.1856 145.79 94.099 145.833 93.9856 145.88C93.879 145.927 93.7456 145.97 93.5856 146.01C93.4256 146.057 93.239 146.093 93.0256 146.12C92.8123 146.153 92.5756 146.17 92.3156 146.17C91.909 146.17 91.509 146.103 91.1156 145.97C90.7223 145.837 90.3456 145.647 89.9856 145.4C89.6323 145.153 89.3056 144.86 89.0056 144.52C88.7056 144.173 88.4423 143.793 88.2156 143.38C87.9956 142.96 87.8223 142.513 87.6956 142.04C87.5756 141.56 87.5156 141.063 87.5156 140.55C87.5156 139.77 87.6423 139.033 87.8956 138.34C88.149 137.647 88.5056 137.04 88.9656 136.52C89.4256 136 89.979 135.59 90.6256 135.29C91.2723 134.983 91.989 134.83 92.7756 134.83C93.0223 134.83 93.2623 134.84 93.4956 134.86C93.7356 134.88 93.959 134.927 94.1656 135L95.1156 136.42V134.8L96.9156 135V146.46C96.9156 147.113 96.809 147.727 96.5956 148.3C96.3823 148.873 96.0723 149.37 95.6656 149.79C95.259 150.217 94.759 150.553 94.1656 150.8C93.5723 151.047 92.8956 151.17 92.1356 151.17C91.609 151.17 91.1456 151.103 90.7456 150.97C90.3523 150.837 90.0156 150.69 89.7356 150.53C89.5756 150.437 89.4256 150.337 89.2856 150.23C89.1456 150.123 89.019 150.007 88.9056 149.88L89.8856 148.78C89.979 148.853 90.079 148.923 90.1856 148.99C90.299 149.057 90.4156 149.12 90.5356 149.18C90.7423 149.28 90.9823 149.37 91.2556 149.45C91.529 149.53 91.8256 149.57 92.1456 149.57C92.559 149.57 92.9456 149.483 93.3056 149.31C93.6656 149.143 93.979 148.913 94.2456 148.62C94.519 148.327 94.7323 147.98 94.8856 147.58C95.039 147.187 95.1156 146.763 95.1156 146.31V144.65ZM95.1156 137.66C94.9423 137.44 94.7323 137.237 94.4856 137.05C94.279 136.897 94.029 136.757 93.7356 136.63C93.4423 136.497 93.1056 136.43 92.7256 136.43C92.3256 136.43 91.9656 136.493 91.6456 136.62C91.3256 136.747 91.0423 136.917 90.7956 137.13C90.5556 137.343 90.3456 137.593 90.1656 137.88C89.9923 138.16 89.849 138.46 89.7356 138.78C89.629 139.093 89.549 139.413 89.4956 139.74C89.4423 140.06 89.4156 140.37 89.4156 140.67C89.4156 141.237 89.5023 141.76 89.6756 142.24C89.8556 142.713 90.089 143.123 90.3756 143.47C90.6623 143.81 90.989 144.077 91.3556 144.27C91.7223 144.463 92.0956 144.56 92.4756 144.56C92.8156 144.56 93.119 144.523 93.3856 144.45C93.6523 144.377 93.8923 144.28 94.1056 144.16C94.319 144.033 94.5056 143.893 94.6656 143.74C94.8323 143.58 94.9823 143.417 95.1156 143.25V137.66ZM110.123 146H108.123V144.38L107.183 145.5C107.07 145.587 106.923 145.67 106.743 145.75C106.57 145.83 106.383 145.903 106.183 145.97C105.983 146.03 105.78 146.077 105.573 146.11C105.367 146.15 105.17 146.17 104.983 146.17C104.483 146.17 103.98 146.093 103.473 145.94C102.967 145.78 102.51 145.55 102.103 145.25C101.697 144.943 101.363 144.567 101.103 144.12C100.85 143.667 100.723 143.147 100.723 142.56C100.723 141.94 100.853 141.407 101.113 140.96C101.38 140.507 101.727 140.133 102.153 139.84C102.58 139.547 103.067 139.33 103.613 139.19C104.16 139.05 104.713 138.98 105.273 138.98C105.907 138.98 106.457 139.017 106.923 139.09C107.39 139.157 107.79 139.253 108.123 139.38V138.95C108.123 138.557 108.073 138.203 107.973 137.89C107.88 137.577 107.73 137.313 107.523 137.1C107.317 136.88 107.05 136.713 106.723 136.6C106.403 136.487 106.02 136.43 105.573 136.43C105.153 136.43 104.79 136.457 104.483 136.51C104.183 136.557 103.903 136.61 103.643 136.67C103.49 136.703 103.343 136.74 103.203 136.78C103.063 136.82 102.927 136.86 102.793 136.9L102.073 135.56C102.353 135.433 102.687 135.313 103.073 135.2C103.393 135.107 103.757 135.023 104.163 134.95C104.577 134.87 105.08 134.83 105.673 134.83C106.44 134.83 107.093 134.933 107.633 135.14C108.173 135.347 108.613 135.637 108.953 136.01C109.293 136.383 109.54 136.833 109.693 137.36C109.847 137.88 109.923 138.46 109.923 139.1V144.2L110.123 146ZM108.123 140.75L107.523 140.67C107.43 140.663 107.307 140.653 107.153 140.64C107 140.627 106.833 140.617 106.653 140.61L106.123 140.59C105.95 140.583 105.8 140.58 105.673 140.58C105.3 140.58 104.933 140.613 104.573 140.68C104.213 140.747 103.89 140.857 103.603 141.01C103.323 141.163 103.093 141.367 102.913 141.62C102.74 141.867 102.653 142.177 102.653 142.55C102.653 142.85 102.72 143.123 102.853 143.37C102.987 143.617 103.163 143.83 103.383 144.01C103.61 144.19 103.867 144.33 104.153 144.43C104.447 144.523 104.75 144.57 105.063 144.57C105.683 144.57 106.24 144.453 106.733 144.22C107.227 143.98 107.69 143.66 108.123 143.26V140.75ZM121.651 137.01C121.525 136.95 121.371 136.883 121.191 136.81C121.018 136.73 120.821 136.66 120.601 136.6C120.381 136.533 120.138 136.48 119.871 136.44C119.611 136.393 119.331 136.37 119.031 136.37C118.625 136.37 118.228 136.39 117.841 136.43C117.455 136.47 117.111 136.543 116.811 136.65C116.511 136.757 116.268 136.9 116.081 137.08C115.901 137.26 115.811 137.493 115.811 137.78C115.811 138.02 115.901 138.227 116.081 138.4C116.261 138.567 116.495 138.713 116.781 138.84C117.075 138.96 117.405 139.067 117.771 139.16C118.138 139.247 118.508 139.33 118.881 139.41C119.255 139.49 119.615 139.57 119.961 139.65C120.308 139.723 120.608 139.807 120.861 139.9C121.155 140.013 121.428 140.157 121.681 140.33C121.941 140.503 122.168 140.707 122.361 140.94C122.555 141.167 122.705 141.42 122.811 141.7C122.925 141.973 122.981 142.27 122.981 142.59C122.981 143.023 122.898 143.413 122.731 143.76C122.565 144.1 122.338 144.403 122.051 144.67C121.771 144.93 121.445 145.157 121.071 145.35C120.698 145.537 120.301 145.693 119.881 145.82C119.468 145.94 119.045 146.027 118.611 146.08C118.185 146.14 117.775 146.17 117.381 146.17C117.155 146.17 116.871 146.147 116.531 146.1C116.198 146.06 115.855 146.003 115.501 145.93C115.155 145.85 114.825 145.757 114.511 145.65C114.198 145.543 113.955 145.43 113.781 145.31L114.441 143.89C114.601 143.97 114.811 144.05 115.071 144.13C115.331 144.21 115.605 144.283 115.891 144.35C116.178 144.417 116.455 144.47 116.721 144.51C116.995 144.55 117.221 144.57 117.401 144.57C117.608 144.57 117.838 144.56 118.091 144.54C118.351 144.513 118.615 144.473 118.881 144.42C119.155 144.36 119.418 144.283 119.671 144.19C119.931 144.09 120.161 143.967 120.361 143.82C120.561 143.673 120.721 143.5 120.841 143.3C120.968 143.1 121.031 142.867 121.031 142.6C121.031 142.34 120.945 142.12 120.771 141.94C120.598 141.76 120.368 141.607 120.081 141.48C119.795 141.353 119.471 141.247 119.111 141.16C118.758 141.067 118.395 140.98 118.021 140.9C117.648 140.82 117.288 140.74 116.941 140.66C116.595 140.573 116.291 140.467 116.031 140.34C115.651 140.16 115.335 139.967 115.081 139.76C114.835 139.547 114.635 139.323 114.481 139.09C114.335 138.857 114.231 138.613 114.171 138.36C114.111 138.107 114.081 137.847 114.081 137.58C114.081 137.107 114.215 136.697 114.481 136.35C114.755 136.003 115.118 135.72 115.571 135.5C116.025 135.273 116.545 135.107 117.131 135C117.718 134.887 118.331 134.83 118.971 134.83C119.318 134.83 119.655 134.85 119.981 134.89C120.315 134.93 120.625 134.983 120.911 135.05C121.205 135.117 121.465 135.193 121.691 135.28C121.918 135.36 122.098 135.443 122.231 135.53L121.651 137.01ZM132.159 142.36L134.849 135L136.649 134.8L132.609 146.17C132.409 146.73 132.192 147.287 131.959 147.84C131.732 148.393 131.472 148.89 131.179 149.33C130.892 149.77 130.566 150.123 130.199 150.39C129.839 150.663 129.426 150.8 128.959 150.8C128.586 150.8 128.242 150.727 127.929 150.58C127.616 150.433 127.319 150.24 127.039 150L127.769 148.83C127.809 148.87 127.859 148.917 127.919 148.97C127.986 149.023 128.056 149.073 128.129 149.12C128.209 149.173 128.292 149.217 128.379 149.25C128.472 149.283 128.566 149.3 128.659 149.3C128.899 149.3 129.116 149.213 129.309 149.04C129.509 148.873 129.692 148.653 129.859 148.38C130.032 148.107 130.189 147.803 130.329 147.47C130.476 147.137 130.616 146.803 130.749 146.47L126.679 135L128.579 134.8L131.219 142.36L131.739 144.68L132.159 142.36ZM147.667 137.01C147.54 136.95 147.387 136.883 147.207 136.81C147.034 136.73 146.837 136.66 146.617 136.6C146.397 136.533 146.154 136.48 145.887 136.44C145.627 136.393 145.347 136.37 145.047 136.37C144.64 136.37 144.244 136.39 143.857 136.43C143.47 136.47 143.127 136.543 142.827 136.65C142.527 136.757 142.284 136.9 142.097 137.08C141.917 137.26 141.827 137.493 141.827 137.78C141.827 138.02 141.917 138.227 142.097 138.4C142.277 138.567 142.51 138.713 142.797 138.84C143.09 138.96 143.42 139.067 143.787 139.16C144.154 139.247 144.524 139.33 144.897 139.41C145.27 139.49 145.63 139.57 145.977 139.65C146.324 139.723 146.624 139.807 146.877 139.9C147.17 140.013 147.444 140.157 147.697 140.33C147.957 140.503 148.184 140.707 148.377 140.94C148.57 141.167 148.72 141.42 148.827 141.7C148.94 141.973 148.997 142.27 148.997 142.59C148.997 143.023 148.914 143.413 148.747 143.76C148.58 144.1 148.354 144.403 148.067 144.67C147.787 144.93 147.46 145.157 147.087 145.35C146.714 145.537 146.317 145.693 145.897 145.82C145.484 145.94 145.06 146.027 144.627 146.08C144.2 146.14 143.79 146.17 143.397 146.17C143.17 146.17 142.887 146.147 142.547 146.1C142.214 146.06 141.87 146.003 141.517 145.93C141.17 145.85 140.84 145.757 140.527 145.65C140.214 145.543 139.97 145.43 139.797 145.31L140.457 143.89C140.617 143.97 140.827 144.05 141.087 144.13C141.347 144.21 141.62 144.283 141.907 144.35C142.194 144.417 142.47 144.47 142.737 144.51C143.01 144.55 143.237 144.57 143.417 144.57C143.624 144.57 143.854 144.56 144.107 144.54C144.367 144.513 144.63 144.473 144.897 144.42C145.17 144.36 145.434 144.283 145.687 144.19C145.947 144.09 146.177 143.967 146.377 143.82C146.577 143.673 146.737 143.5 146.857 143.3C146.984 143.1 147.047 142.867 147.047 142.6C147.047 142.34 146.96 142.12 146.787 141.94C146.614 141.76 146.384 141.607 146.097 141.48C145.81 141.353 145.487 141.247 145.127 141.16C144.774 141.067 144.41 140.98 144.037 140.9C143.664 140.82 143.304 140.74 142.957 140.66C142.61 140.573 142.307 140.467 142.047 140.34C141.667 140.16 141.35 139.967 141.097 139.76C140.85 139.547 140.65 139.323 140.497 139.09C140.35 138.857 140.247 138.613 140.187 138.36C140.127 138.107 140.097 137.847 140.097 137.58C140.097 137.107 140.23 136.697 140.497 136.35C140.77 136.003 141.134 135.72 141.587 135.5C142.04 135.273 142.56 135.107 143.147 135C143.734 134.887 144.347 134.83 144.987 134.83C145.334 134.83 145.67 134.85 145.997 134.89C146.33 134.93 146.64 134.983 146.927 135.05C147.22 135.117 147.48 135.193 147.707 135.28C147.934 135.36 148.114 135.443 148.247 135.53L147.667 137.01ZM156.765 142.24C156.765 142.68 156.788 143.05 156.835 143.35C156.888 143.643 156.961 143.883 157.055 144.07C157.155 144.25 157.275 144.38 157.415 144.46C157.561 144.533 157.728 144.57 157.915 144.57C158.228 144.57 158.538 144.533 158.845 144.46C159.151 144.387 159.438 144.303 159.705 144.21C159.971 144.11 160.208 144.013 160.415 143.92C160.621 143.82 160.781 143.747 160.895 143.7L161.585 144.91C161.525 144.963 161.378 145.06 161.145 145.2C160.918 145.333 160.628 145.473 160.275 145.62C159.928 145.767 159.535 145.893 159.095 146C158.655 146.113 158.195 146.17 157.715 146.17C157.115 146.17 156.631 146.06 156.265 145.84C155.905 145.62 155.628 145.32 155.435 144.94C155.241 144.56 155.115 144.12 155.055 143.62C154.995 143.113 154.965 142.573 154.965 142V136.6H152.055V135H154.965V132.91L156.715 131.8V135H161.555L161.355 136.6H156.765V142.24ZM174.403 144.71C174.196 144.923 173.969 145.12 173.723 145.3C173.476 145.48 173.203 145.637 172.903 145.77C172.603 145.897 172.269 145.993 171.903 146.06C171.543 146.133 171.139 146.17 170.693 146.17C169.806 146.17 169.039 146.013 168.393 145.7C167.746 145.387 167.213 144.967 166.793 144.44C166.373 143.913 166.063 143.31 165.863 142.63C165.663 141.95 165.563 141.24 165.563 140.5C165.563 140.027 165.609 139.56 165.703 139.1C165.803 138.633 165.943 138.19 166.123 137.77C166.309 137.35 166.539 136.96 166.813 136.6C167.093 136.24 167.413 135.93 167.773 135.67C168.139 135.41 168.543 135.207 168.983 135.06C169.429 134.907 169.916 134.83 170.443 134.83C171.163 134.83 171.813 134.947 172.393 135.18C172.973 135.413 173.466 135.74 173.873 136.16C174.279 136.58 174.593 137.087 174.813 137.68C175.033 138.267 175.143 138.913 175.143 139.62C175.143 139.827 175.136 140.053 175.123 140.3C175.109 140.547 175.089 140.78 175.063 141H167.463C167.463 141.513 167.543 141.99 167.703 142.43C167.863 142.863 168.079 143.24 168.353 143.56C168.633 143.873 168.959 144.12 169.333 144.3C169.713 144.48 170.123 144.57 170.563 144.57C170.989 144.57 171.353 144.54 171.653 144.48C171.959 144.413 172.216 144.333 172.423 144.24C172.636 144.147 172.813 144.047 172.953 143.94C173.093 143.833 173.213 143.733 173.313 143.64L174.403 144.71ZM173.383 139.5V139.06C173.383 138.68 173.306 138.33 173.153 138.01C173.006 137.69 172.803 137.413 172.543 137.18C172.289 136.94 171.993 136.753 171.653 136.62C171.319 136.487 170.966 136.42 170.593 136.42C170.146 136.42 169.753 136.493 169.413 136.64C169.079 136.78 168.793 136.963 168.553 137.19C168.313 137.41 168.119 137.653 167.973 137.92C167.826 138.187 167.719 138.44 167.653 138.68L167.063 139.82L168.913 139.5H173.383ZM179.71 146H177.93V135L179.71 134.8V136.63C179.85 136.363 179.957 136.157 180.03 136.01C180.11 135.857 180.167 135.747 180.2 135.68C180.24 135.607 180.264 135.563 180.27 135.55L180.29 135.52C180.35 135.46 180.434 135.39 180.54 135.31C180.654 135.23 180.79 135.157 180.95 135.09C181.11 135.017 181.294 134.957 181.5 134.91C181.707 134.857 181.94 134.83 182.2 134.83C182.574 134.83 182.88 134.88 183.12 134.98C183.36 135.073 183.557 135.207 183.71 135.38C183.864 135.547 183.984 135.75 184.07 135.99C184.157 136.23 184.237 136.49 184.31 136.77L184.94 135.57C185.007 135.51 185.114 135.437 185.26 135.35C185.414 135.263 185.587 135.183 185.78 135.11C185.98 135.03 186.19 134.963 186.41 134.91C186.63 134.857 186.847 134.83 187.06 134.83C187.567 134.83 187.967 134.917 188.26 135.09C188.56 135.257 188.784 135.5 188.93 135.82C189.084 136.14 189.18 136.527 189.22 136.98C189.267 137.433 189.29 137.94 189.29 138.5V146H187.51V138.6C187.51 138.24 187.504 137.927 187.49 137.66C187.484 137.387 187.444 137.16 187.37 136.98C187.304 136.793 187.194 136.657 187.04 136.57C186.894 136.477 186.684 136.43 186.41 136.43C186.277 136.43 186.114 136.473 185.92 136.56C185.727 136.64 185.534 136.747 185.34 136.88C185.154 137.007 184.977 137.153 184.81 137.32C184.65 137.48 184.537 137.643 184.47 137.81C184.47 137.85 184.47 137.917 184.47 138.01C184.477 138.097 184.48 138.19 184.48 138.29C184.487 138.383 184.49 138.473 184.49 138.56V146H182.7V138.8C182.7 138.44 182.694 138.113 182.68 137.82C182.667 137.527 182.624 137.28 182.55 137.08C182.484 136.873 182.37 136.713 182.21 136.6C182.057 136.487 181.837 136.43 181.55 136.43C181.444 136.43 181.307 136.46 181.14 136.52C180.974 136.58 180.8 136.67 180.62 136.79C180.447 136.903 180.277 137.043 180.11 137.21C179.95 137.37 179.817 137.553 179.71 137.76V146ZM199.698 137.01C199.571 136.95 199.418 136.883 199.238 136.81C199.065 136.73 198.868 136.66 198.648 136.6C198.428 136.533 198.185 136.48 197.918 136.44C197.658 136.393 197.378 136.37 197.078 136.37C196.671 136.37 196.275 136.39 195.888 136.43C195.501 136.47 195.158 136.543 194.858 136.65C194.558 136.757 194.315 136.9 194.128 137.08C193.948 137.26 193.858 137.493 193.858 137.78C193.858 138.02 193.948 138.227 194.128 138.4C194.308 138.567 194.541 138.713 194.828 138.84C195.121 138.96 195.451 139.067 195.818 139.16C196.185 139.247 196.555 139.33 196.928 139.41C197.301 139.49 197.661 139.57 198.008 139.65C198.355 139.723 198.655 139.807 198.908 139.9C199.201 140.013 199.475 140.157 199.728 140.33C199.988 140.503 200.215 140.707 200.408 140.94C200.601 141.167 200.751 141.42 200.858 141.7C200.971 141.973 201.028 142.27 201.028 142.59C201.028 143.023 200.945 143.413 200.778 143.76C200.611 144.1 200.385 144.403 200.098 144.67C199.818 144.93 199.491 145.157 199.118 145.35C198.745 145.537 198.348 145.693 197.928 145.82C197.515 145.94 197.091 146.027 196.658 146.08C196.231 146.14 195.821 146.17 195.428 146.17C195.201 146.17 194.918 146.147 194.578 146.1C194.245 146.06 193.901 146.003 193.548 145.93C193.201 145.85 192.871 145.757 192.558 145.65C192.245 145.543 192.001 145.43 191.828 145.31L192.488 143.89C192.648 143.97 192.858 144.05 193.118 144.13C193.378 144.21 193.651 144.283 193.938 144.35C194.225 144.417 194.501 144.47 194.768 144.51C195.041 144.55 195.268 144.57 195.448 144.57C195.655 144.57 195.885 144.56 196.138 144.54C196.398 144.513 196.661 144.473 196.928 144.42C197.201 144.36 197.465 144.283 197.718 144.19C197.978 144.09 198.208 143.967 198.408 143.82C198.608 143.673 198.768 143.5 198.888 143.3C199.015 143.1 199.078 142.867 199.078 142.6C199.078 142.34 198.991 142.12 198.818 141.94C198.645 141.76 198.415 141.607 198.128 141.48C197.841 141.353 197.518 141.247 197.158 141.16C196.805 141.067 196.441 140.98 196.068 140.9C195.695 140.82 195.335 140.74 194.988 140.66C194.641 140.573 194.338 140.467 194.078 140.34C193.698 140.16 193.381 139.967 193.128 139.76C192.881 139.547 192.681 139.323 192.528 139.09C192.381 138.857 192.278 138.613 192.218 138.36C192.158 138.107 192.128 137.847 192.128 137.58C192.128 137.107 192.261 136.697 192.528 136.35C192.801 136.003 193.165 135.72 193.618 135.5C194.071 135.273 194.591 135.107 195.178 135C195.765 134.887 196.378 134.83 197.018 134.83C197.365 134.83 197.701 134.85 198.028 134.89C198.361 134.93 198.671 134.983 198.958 135.05C199.251 135.117 199.511 135.193 199.738 135.28C199.965 135.36 200.145 135.443 200.278 135.53L199.698 137.01Z" fill="white"/>
<path d="M80.8432 183.36C80.4752 183.36 80.1412 183.43 79.8412 183.57C79.5412 183.706 79.2832 183.892 79.0672 184.128C78.8552 184.364 78.6912 184.642 78.5752 184.962C78.4592 185.282 78.4012 185.624 78.4012 185.988C78.4012 186.344 78.4512 186.656 78.5512 186.924C78.6552 187.192 78.7892 187.416 78.9532 187.596C79.1212 187.776 79.3092 187.912 79.5172 188.004C79.7252 188.092 79.9352 188.136 80.1472 188.136C80.3352 188.136 80.5132 188.104 80.6812 188.04C80.8492 187.976 81.0052 187.896 81.1492 187.8C81.2932 187.704 81.4232 187.6 81.5392 187.488C81.6552 187.372 81.7532 187.264 81.8332 187.164V183.36H80.8432ZM81.8332 189V188.028L81.3172 188.706C81.1732 188.802 80.9812 188.892 80.7412 188.976C80.5012 189.06 80.2252 189.102 79.9132 189.102C79.5532 189.102 79.2132 189.038 78.8932 188.91C78.5732 188.778 78.2932 188.58 78.0532 188.316C77.8132 188.048 77.6232 187.71 77.4832 187.302C77.3432 186.89 77.2732 186.404 77.2732 185.844C77.2732 185.364 77.3652 184.916 77.5492 184.5C77.7372 184.08 77.9912 183.714 78.3112 183.402C78.6312 183.09 79.0072 182.846 79.4392 182.67C79.8752 182.49 80.3412 182.4 80.8372 182.4H81.8332V179.28L82.9132 179.4V187.92L83.0332 189H81.8332ZM90.3759 188.226C90.2519 188.354 90.1159 188.472 89.9679 188.58C89.8199 188.688 89.6559 188.782 89.4759 188.862C89.2959 188.938 89.0959 188.996 88.8759 189.036C88.6599 189.08 88.4179 189.102 88.1499 189.102C87.6179 189.102 87.1579 189.008 86.7699 188.82C86.3819 188.632 86.0619 188.38 85.8099 188.064C85.5579 187.748 85.3719 187.386 85.2519 186.978C85.1319 186.57 85.0719 186.144 85.0719 185.7C85.0719 185.416 85.0999 185.136 85.1559 184.86C85.2159 184.58 85.2999 184.314 85.4079 184.062C85.5199 183.81 85.6579 183.576 85.8219 183.36C85.9899 183.144 86.1819 182.958 86.3979 182.802C86.6179 182.646 86.8599 182.524 87.1239 182.436C87.3919 182.344 87.6839 182.298 87.9999 182.298C88.4319 182.298 88.8219 182.368 89.1699 182.508C89.5179 182.648 89.8139 182.844 90.0579 183.096C90.3019 183.348 90.4899 183.652 90.6219 184.008C90.7539 184.36 90.8199 184.748 90.8199 185.172C90.8199 185.296 90.8159 185.432 90.8079 185.58C90.7999 185.728 90.7879 185.868 90.7719 186H86.2119C86.2119 186.308 86.2599 186.594 86.3559 186.858C86.4519 187.118 86.5819 187.344 86.7459 187.536C86.9139 187.724 87.1099 187.872 87.3339 187.98C87.5619 188.088 87.8079 188.142 88.0719 188.142C88.3279 188.142 88.5459 188.124 88.7259 188.088C88.9099 188.048 89.0639 188 89.1879 187.944C89.3159 187.888 89.4219 187.828 89.5059 187.764C89.5899 187.7 89.6619 187.64 89.7219 187.584L90.3759 188.226ZM89.7639 185.1V184.836C89.7639 184.608 89.7179 184.398 89.6259 184.206C89.5379 184.014 89.4159 183.848 89.2599 183.708C89.1079 183.564 88.9299 183.452 88.7259 183.372C88.5259 183.292 88.3139 183.252 88.0899 183.252C87.8219 183.252 87.5859 183.296 87.3819 183.384C87.1819 183.468 87.0099 183.578 86.8659 183.714C86.7219 183.846 86.6059 183.992 86.5179 184.152C86.4299 184.312 86.3659 184.464 86.3259 184.608L85.9719 185.292L87.0819 185.1H89.7639ZM97.7486 183.606C97.6726 183.57 97.5806 183.53 97.4726 183.486C97.3686 183.438 97.2506 183.396 97.1186 183.36C96.9866 183.32 96.8406 183.288 96.6806 183.264C96.5246 183.236 96.3566 183.222 96.1766 183.222C95.9326 183.222 95.6946 183.234 95.4626 183.258C95.2306 183.282 95.0246 183.326 94.8446 183.39C94.6646 183.454 94.5186 183.54 94.4066 183.648C94.2986 183.756 94.2446 183.896 94.2446 184.068C94.2446 184.212 94.2986 184.336 94.4066 184.44C94.5146 184.54 94.6546 184.628 94.8266 184.704C95.0026 184.776 95.2006 184.84 95.4206 184.896C95.6406 184.948 95.8626 184.998 96.0866 185.046C96.3106 185.094 96.5266 185.142 96.7346 185.19C96.9426 185.234 97.1226 185.284 97.2746 185.34C97.4506 185.408 97.6146 185.494 97.7666 185.598C97.9226 185.702 98.0586 185.824 98.1746 185.964C98.2906 186.1 98.3806 186.252 98.4446 186.42C98.5126 186.584 98.5466 186.762 98.5466 186.954C98.5466 187.214 98.4966 187.448 98.3966 187.656C98.2966 187.86 98.1606 188.042 97.9886 188.202C97.8206 188.358 97.6246 188.494 97.4006 188.61C97.1766 188.722 96.9386 188.816 96.6866 188.892C96.4386 188.964 96.1846 189.016 95.9246 189.048C95.6686 189.084 95.4226 189.102 95.1866 189.102C95.0506 189.102 94.8806 189.088 94.6766 189.06C94.4766 189.036 94.2706 189.002 94.0586 188.958C93.8506 188.91 93.6526 188.854 93.4646 188.79C93.2766 188.726 93.1306 188.658 93.0266 188.586L93.4226 187.734C93.5186 187.782 93.6446 187.83 93.8006 187.878C93.9566 187.926 94.1206 187.97 94.2926 188.01C94.4646 188.05 94.6306 188.082 94.7906 188.106C94.9546 188.13 95.0906 188.142 95.1986 188.142C95.3226 188.142 95.4606 188.136 95.6126 188.124C95.7686 188.108 95.9266 188.084 96.0866 188.052C96.2506 188.016 96.4086 187.97 96.5606 187.914C96.7166 187.854 96.8546 187.78 96.9746 187.692C97.0946 187.604 97.1906 187.5 97.2626 187.38C97.3386 187.26 97.3766 187.12 97.3766 186.96C97.3766 186.804 97.3246 186.672 97.2206 186.564C97.1166 186.456 96.9786 186.364 96.8066 186.288C96.6346 186.212 96.4406 186.148 96.2246 186.096C96.0126 186.04 95.7946 185.988 95.5706 185.94C95.3466 185.892 95.1306 185.844 94.9226 185.796C94.7146 185.744 94.5326 185.68 94.3766 185.604C94.1486 185.496 93.9586 185.38 93.8066 185.256C93.6586 185.128 93.5386 184.994 93.4466 184.854C93.3586 184.714 93.2966 184.568 93.2606 184.416C93.2246 184.264 93.2066 184.108 93.2066 183.948C93.2066 183.664 93.2866 183.418 93.4466 183.21C93.6106 183.002 93.8286 182.832 94.1006 182.7C94.3726 182.564 94.6846 182.464 95.0366 182.4C95.3886 182.332 95.7566 182.298 96.1406 182.298C96.3486 182.298 96.5506 182.31 96.7466 182.334C96.9466 182.358 97.1326 182.39 97.3046 182.43C97.4806 182.47 97.6366 182.516 97.7726 182.568C97.9086 182.616 98.0166 182.666 98.0966 182.718L97.7486 183.606ZM104.047 186.642C104.047 186.85 104.059 187.042 104.083 187.218C104.111 187.394 104.155 187.546 104.215 187.674C104.275 187.802 104.355 187.902 104.455 187.974C104.555 188.046 104.679 188.082 104.827 188.082C105.023 188.082 105.213 188.066 105.397 188.034C105.585 188.002 105.753 187.966 105.901 187.926C106.049 187.882 106.171 187.842 106.267 187.806C106.367 187.77 106.429 187.748 106.453 187.74L106.687 188.664C106.663 188.676 106.599 188.706 106.495 188.754C106.391 188.802 106.255 188.852 106.087 188.904C105.919 188.952 105.723 188.996 105.499 189.036C105.275 189.08 105.031 189.102 104.767 189.102C104.375 189.102 104.057 189.038 103.813 188.91C103.573 188.782 103.385 188.606 103.249 188.382C103.113 188.154 103.021 187.886 102.973 187.578C102.929 187.27 102.907 186.938 102.907 186.582V183.48L103.147 183.12L102.307 183.36H101.101L100.981 182.4H104.047V186.642ZM102.871 180H104.083V181.2H102.871V180ZM113.046 188.19L112.524 188.85C112.488 188.874 112.436 188.9 112.368 188.928C112.304 188.956 112.224 188.982 112.128 189.006C112.032 189.034 111.92 189.056 111.792 189.072C111.664 189.092 111.522 189.102 111.366 189.102C111.122 189.102 110.882 189.062 110.646 188.982C110.41 188.902 110.184 188.788 109.968 188.64C109.756 188.492 109.56 188.316 109.38 188.112C109.2 187.904 109.042 187.676 108.906 187.428C108.774 187.176 108.67 186.908 108.594 186.624C108.522 186.336 108.486 186.038 108.486 185.73C108.486 185.262 108.562 184.82 108.714 184.404C108.866 183.988 109.08 183.624 109.356 183.312C109.632 183 109.964 182.754 110.352 182.574C110.74 182.39 111.17 182.298 111.642 182.298C111.79 182.298 111.934 182.304 112.074 182.316C112.218 182.328 112.352 182.356 112.476 182.4L113.046 183.252V182.28L114.126 182.4V189.276C114.126 189.668 114.062 190.036 113.934 190.38C113.806 190.724 113.62 191.022 113.376 191.274C113.132 191.53 112.832 191.732 112.476 191.88C112.12 192.028 111.714 192.102 111.258 192.102C110.942 192.102 110.664 192.062 110.424 191.982C110.188 191.902 109.986 191.814 109.818 191.718C109.722 191.662 109.632 191.602 109.548 191.538C109.464 191.474 109.388 191.404 109.32 191.328L109.908 190.668C109.964 190.712 110.024 190.754 110.088 190.794C110.156 190.834 110.226 190.872 110.298 190.908C110.422 190.968 110.566 191.022 110.73 191.07C110.894 191.118 111.072 191.142 111.264 191.142C111.512 191.142 111.744 191.09 111.96 190.986C112.176 190.886 112.364 190.748 112.524 190.572C112.688 190.396 112.816 190.188 112.908 189.948C113 189.712 113.046 189.458 113.046 189.186V188.19ZM113.046 183.996C112.942 183.864 112.816 183.742 112.668 183.63C112.544 183.538 112.394 183.454 112.218 183.378C112.042 183.298 111.84 183.258 111.612 183.258C111.372 183.258 111.156 183.296 110.964 183.372C110.772 183.448 110.602 183.55 110.454 183.678C110.31 183.806 110.184 183.956 110.076 184.128C109.972 184.296 109.886 184.476 109.818 184.668C109.754 184.856 109.706 185.048 109.674 185.244C109.642 185.436 109.626 185.622 109.626 185.802C109.626 186.142 109.678 186.456 109.782 186.744C109.89 187.028 110.03 187.274 110.202 187.482C110.374 187.686 110.57 187.846 110.79 187.962C111.01 188.078 111.234 188.136 111.462 188.136C111.666 188.136 111.848 188.114 112.008 188.07C112.168 188.026 112.312 187.968 112.44 187.896C112.568 187.82 112.68 187.736 112.776 187.644C112.876 187.548 112.966 187.45 113.046 187.35V183.996ZM117.737 189H116.657V182.4L117.737 182.28V183.438L118.103 182.736C118.175 182.688 118.259 182.638 118.355 182.586C118.455 182.534 118.575 182.488 118.715 182.448C118.855 182.404 119.021 182.368 119.213 182.34C119.405 182.312 119.631 182.298 119.891 182.298C120.207 182.298 120.491 182.35 120.743 182.454C120.999 182.554 121.213 182.7 121.385 182.892C121.561 183.084 121.695 183.316 121.787 183.588C121.883 183.86 121.931 184.164 121.931 184.5V189H120.851V184.5C120.851 184.284 120.815 184.098 120.743 183.942C120.675 183.786 120.579 183.658 120.455 183.558C120.331 183.454 120.187 183.378 120.023 183.33C119.859 183.282 119.685 183.258 119.501 183.258C119.309 183.258 119.123 183.282 118.943 183.33C118.767 183.378 118.603 183.44 118.451 183.516C118.299 183.588 118.161 183.668 118.037 183.756C117.917 183.84 117.817 183.92 117.737 183.996V189ZM136.772 183.606C136.696 183.57 136.604 183.53 136.496 183.486C136.392 183.438 136.274 183.396 136.142 183.36C136.01 183.32 135.864 183.288 135.704 183.264C135.548 183.236 135.38 183.222 135.2 183.222C134.956 183.222 134.718 183.234 134.486 183.258C134.254 183.282 134.048 183.326 133.868 183.39C133.688 183.454 133.542 183.54 133.43 183.648C133.322 183.756 133.268 183.896 133.268 184.068C133.268 184.212 133.322 184.336 133.43 184.44C133.538 184.54 133.678 184.628 133.85 184.704C134.026 184.776 134.224 184.84 134.444 184.896C134.664 184.948 134.886 184.998 135.11 185.046C135.334 185.094 135.55 185.142 135.758 185.19C135.966 185.234 136.146 185.284 136.298 185.34C136.474 185.408 136.638 185.494 136.79 185.598C136.946 185.702 137.082 185.824 137.198 185.964C137.314 186.1 137.404 186.252 137.468 186.42C137.536 186.584 137.57 186.762 137.57 186.954C137.57 187.214 137.52 187.448 137.42 187.656C137.32 187.86 137.184 188.042 137.012 188.202C136.844 188.358 136.648 188.494 136.424 188.61C136.2 188.722 135.962 188.816 135.71 188.892C135.462 188.964 135.208 189.016 134.948 189.048C134.692 189.084 134.446 189.102 134.21 189.102C134.074 189.102 133.904 189.088 133.7 189.06C133.5 189.036 133.294 189.002 133.082 188.958C132.874 188.91 132.676 188.854 132.488 188.79C132.3 188.726 132.154 188.658 132.05 188.586L132.446 187.734C132.542 187.782 132.668 187.83 132.824 187.878C132.98 187.926 133.144 187.97 133.316 188.01C133.488 188.05 133.654 188.082 133.814 188.106C133.978 188.13 134.114 188.142 134.222 188.142C134.346 188.142 134.484 188.136 134.636 188.124C134.792 188.108 134.95 188.084 135.11 188.052C135.274 188.016 135.432 187.97 135.584 187.914C135.74 187.854 135.878 187.78 135.998 187.692C136.118 187.604 136.214 187.5 136.286 187.38C136.362 187.26 136.4 187.12 136.4 186.96C136.4 186.804 136.348 186.672 136.244 186.564C136.14 186.456 136.002 186.364 135.83 186.288C135.658 186.212 135.464 186.148 135.248 186.096C135.036 186.04 134.818 185.988 134.594 185.94C134.37 185.892 134.154 185.844 133.946 185.796C133.738 185.744 133.556 185.68 133.4 185.604C133.172 185.496 132.982 185.38 132.83 185.256C132.682 185.128 132.562 184.994 132.47 184.854C132.382 184.714 132.32 184.568 132.284 184.416C132.248 184.264 132.23 184.108 132.23 183.948C132.23 183.664 132.31 183.418 132.47 183.21C132.634 183.002 132.852 182.832 133.124 182.7C133.396 182.564 133.708 182.464 134.06 182.4C134.412 182.332 134.78 182.298 135.164 182.298C135.372 182.298 135.574 182.31 135.77 182.334C135.97 182.358 136.156 182.39 136.328 182.43C136.504 182.47 136.66 182.516 136.796 182.568C136.932 182.616 137.04 182.666 137.12 182.718L136.772 183.606ZM143.077 186.816L144.691 182.4L145.771 182.28L143.347 189.102C143.227 189.438 143.097 189.772 142.957 190.104C142.821 190.436 142.665 190.734 142.489 190.998C142.317 191.262 142.121 191.474 141.901 191.634C141.685 191.798 141.437 191.88 141.157 191.88C140.933 191.88 140.727 191.836 140.539 191.748C140.351 191.66 140.173 191.544 140.005 191.4L140.443 190.698C140.467 190.722 140.497 190.75 140.533 190.782C140.573 190.814 140.615 190.844 140.659 190.872C140.707 190.904 140.757 190.93 140.809 190.95C140.865 190.97 140.921 190.98 140.977 190.98C141.121 190.98 141.251 190.928 141.367 190.824C141.487 190.724 141.597 190.592 141.697 190.428C141.801 190.264 141.895 190.082 141.979 189.882C142.067 189.682 142.151 189.482 142.231 189.282L139.789 182.4L140.929 182.28L142.513 186.816L142.825 188.208L143.077 186.816ZM152.381 183.606C152.305 183.57 152.213 183.53 152.105 183.486C152.001 183.438 151.883 183.396 151.751 183.36C151.619 183.32 151.473 183.288 151.313 183.264C151.157 183.236 150.989 183.222 150.809 183.222C150.565 183.222 150.327 183.234 150.095 183.258C149.863 183.282 149.657 183.326 149.477 183.39C149.297 183.454 149.151 183.54 149.039 183.648C148.931 183.756 148.877 183.896 148.877 184.068C148.877 184.212 148.931 184.336 149.039 184.44C149.147 184.54 149.287 184.628 149.459 184.704C149.635 184.776 149.833 184.84 150.053 184.896C150.273 184.948 150.495 184.998 150.719 185.046C150.943 185.094 151.159 185.142 151.367 185.19C151.575 185.234 151.755 185.284 151.907 185.34C152.083 185.408 152.247 185.494 152.399 185.598C152.555 185.702 152.691 185.824 152.807 185.964C152.923 186.1 153.013 186.252 153.077 186.42C153.145 186.584 153.179 186.762 153.179 186.954C153.179 187.214 153.129 187.448 153.029 187.656C152.929 187.86 152.793 188.042 152.621 188.202C152.453 188.358 152.257 188.494 152.033 188.61C151.809 188.722 151.571 188.816 151.319 188.892C151.071 188.964 150.817 189.016 150.557 189.048C150.301 189.084 150.055 189.102 149.819 189.102C149.683 189.102 149.513 189.088 149.309 189.06C149.109 189.036 148.903 189.002 148.691 188.958C148.483 188.91 148.285 188.854 148.097 188.79C147.909 188.726 147.763 188.658 147.659 188.586L148.055 187.734C148.151 187.782 148.277 187.83 148.433 187.878C148.589 187.926 148.753 187.97 148.925 188.01C149.097 188.05 149.263 188.082 149.423 188.106C149.587 188.13 149.723 188.142 149.831 188.142C149.955 188.142 150.093 188.136 150.245 188.124C150.401 188.108 150.559 188.084 150.719 188.052C150.883 188.016 151.041 187.97 151.193 187.914C151.349 187.854 151.487 187.78 151.607 187.692C151.727 187.604 151.823 187.5 151.895 187.38C151.971 187.26 152.009 187.12 152.009 186.96C152.009 186.804 151.957 186.672 151.853 186.564C151.749 186.456 151.611 186.364 151.439 186.288C151.267 186.212 151.073 186.148 150.857 186.096C150.645 186.04 150.427 185.988 150.203 185.94C149.979 185.892 149.763 185.844 149.555 185.796C149.347 185.744 149.165 185.68 149.009 185.604C148.781 185.496 148.591 185.38 148.439 185.256C148.291 185.128 148.171 184.994 148.079 184.854C147.991 184.714 147.929 184.568 147.893 184.416C147.857 184.264 147.839 184.108 147.839 183.948C147.839 183.664 147.919 183.418 148.079 183.21C148.243 183.002 148.461 182.832 148.733 182.7C149.005 182.564 149.317 182.464 149.669 182.4C150.021 182.332 150.389 182.298 150.773 182.298C150.981 182.298 151.183 182.31 151.379 182.334C151.579 182.358 151.765 182.39 151.937 182.43C152.113 182.47 152.269 182.516 152.405 182.568C152.541 182.616 152.649 182.666 152.729 182.718L152.381 183.606ZM157.84 186.744C157.84 187.008 157.854 187.23 157.882 187.41C157.914 187.586 157.958 187.73 158.014 187.842C158.074 187.95 158.146 188.028 158.23 188.076C158.318 188.12 158.418 188.142 158.53 188.142C158.718 188.142 158.904 188.12 159.088 188.076C159.272 188.032 159.444 187.982 159.604 187.926C159.764 187.866 159.906 187.808 160.03 187.752C160.154 187.692 160.25 187.648 160.318 187.62L160.732 188.346C160.696 188.378 160.608 188.436 160.468 188.52C160.332 188.6 160.158 188.684 159.946 188.772C159.738 188.86 159.502 188.936 159.238 189C158.974 189.068 158.698 189.102 158.41 189.102C158.05 189.102 157.76 189.036 157.54 188.904C157.324 188.772 157.158 188.592 157.042 188.364C156.926 188.136 156.85 187.872 156.814 187.572C156.778 187.268 156.76 186.944 156.76 186.6V183.36H155.014V182.4H156.76V181.146L157.81 180.48V182.4H160.714L160.594 183.36H157.84V186.744ZM168.423 188.226C168.299 188.354 168.163 188.472 168.015 188.58C167.867 188.688 167.703 188.782 167.523 188.862C167.343 188.938 167.143 188.996 166.923 189.036C166.707 189.08 166.465 189.102 166.197 189.102C165.665 189.102 165.205 189.008 164.817 188.82C164.429 188.632 164.109 188.38 163.857 188.064C163.605 187.748 163.419 187.386 163.299 186.978C163.179 186.57 163.119 186.144 163.119 185.7C163.119 185.416 163.147 185.136 163.203 184.86C163.263 184.58 163.347 184.314 163.455 184.062C163.567 183.81 163.705 183.576 163.869 183.36C164.037 183.144 164.229 182.958 164.445 182.802C164.665 182.646 164.907 182.524 165.171 182.436C165.439 182.344 165.731 182.298 166.047 182.298C166.479 182.298 166.869 182.368 167.217 182.508C167.565 182.648 167.861 182.844 168.105 183.096C168.349 183.348 168.537 183.652 168.669 184.008C168.801 184.36 168.867 184.748 168.867 185.172C168.867 185.296 168.863 185.432 168.855 185.58C168.847 185.728 168.835 185.868 168.819 186H164.259C164.259 186.308 164.307 186.594 164.403 186.858C164.499 187.118 164.629 187.344 164.793 187.536C164.961 187.724 165.157 187.872 165.381 187.98C165.609 188.088 165.855 188.142 166.119 188.142C166.375 188.142 166.593 188.124 166.773 188.088C166.957 188.048 167.111 188 167.235 187.944C167.363 187.888 167.469 187.828 167.553 187.764C167.637 187.7 167.709 187.64 167.769 187.584L168.423 188.226ZM167.811 185.1V184.836C167.811 184.608 167.765 184.398 167.673 184.206C167.585 184.014 167.463 183.848 167.307 183.708C167.155 183.564 166.977 183.452 166.773 183.372C166.573 183.292 166.361 183.252 166.137 183.252C165.869 183.252 165.633 183.296 165.429 183.384C165.229 183.468 165.057 183.578 164.913 183.714C164.769 183.846 164.653 183.992 164.565 184.152C164.477 184.312 164.413 184.464 164.373 184.608L164.019 185.292L165.129 185.1H167.811ZM171.607 189H170.539V182.4L171.607 182.28V183.378C171.691 183.218 171.755 183.094 171.799 183.006C171.847 182.914 171.881 182.848 171.901 182.808C171.925 182.764 171.939 182.738 171.943 182.73L171.955 182.712C171.991 182.676 172.041 182.634 172.105 182.586C172.173 182.538 172.255 182.494 172.351 182.454C172.447 182.41 172.557 182.374 172.681 182.346C172.805 182.314 172.945 182.298 173.101 182.298C173.325 182.298 173.509 182.328 173.653 182.388C173.797 182.444 173.915 182.524 174.007 182.628C174.099 182.728 174.171 182.85 174.223 182.994C174.275 183.138 174.323 183.294 174.367 183.462L174.745 182.742C174.785 182.706 174.849 182.662 174.937 182.61C175.029 182.558 175.133 182.51 175.249 182.466C175.369 182.418 175.495 182.378 175.627 182.346C175.759 182.314 175.889 182.298 176.017 182.298C176.321 182.298 176.561 182.35 176.737 182.454C176.917 182.554 177.051 182.7 177.139 182.892C177.231 183.084 177.289 183.316 177.313 183.588C177.341 183.86 177.355 184.164 177.355 184.5V189H176.287V184.56C176.287 184.344 176.283 184.156 176.275 183.996C176.271 183.832 176.247 183.696 176.203 183.588C176.163 183.476 176.097 183.394 176.005 183.342C175.917 183.286 175.791 183.258 175.627 183.258C175.547 183.258 175.449 183.284 175.333 183.336C175.217 183.384 175.101 183.448 174.985 183.528C174.873 183.604 174.767 183.692 174.667 183.792C174.571 183.888 174.503 183.986 174.463 184.086C174.463 184.11 174.463 184.15 174.463 184.206C174.467 184.258 174.469 184.314 174.469 184.374C174.473 184.43 174.475 184.484 174.475 184.536V189H173.401V184.68C173.401 184.464 173.397 184.268 173.389 184.092C173.381 183.916 173.355 183.768 173.311 183.648C173.271 183.524 173.203 183.428 173.107 183.36C173.015 183.292 172.883 183.258 172.711 183.258C172.647 183.258 172.565 183.276 172.465 183.312C172.365 183.348 172.261 183.402 172.153 183.474C172.049 183.542 171.947 183.626 171.847 183.726C171.751 183.822 171.671 183.932 171.607 184.056V189ZM183.6 183.606C183.524 183.57 183.432 183.53 183.324 183.486C183.22 183.438 183.102 183.396 182.97 183.36C182.838 183.32 182.692 183.288 182.532 183.264C182.376 183.236 182.208 183.222 182.028 183.222C181.784 183.222 181.546 183.234 181.314 183.258C181.082 183.282 180.876 183.326 180.696 183.39C180.516 183.454 180.37 183.54 180.258 183.648C180.15 183.756 180.096 183.896 180.096 184.068C180.096 184.212 180.15 184.336 180.258 184.44C180.366 184.54 180.506 184.628 180.678 184.704C180.854 184.776 181.052 184.84 181.272 184.896C181.492 184.948 181.714 184.998 181.938 185.046C182.162 185.094 182.378 185.142 182.586 185.19C182.794 185.234 182.974 185.284 183.126 185.34C183.302 185.408 183.466 185.494 183.618 185.598C183.774 185.702 183.91 185.824 184.026 185.964C184.142 186.1 184.232 186.252 184.296 186.42C184.364 186.584 184.398 186.762 184.398 186.954C184.398 187.214 184.348 187.448 184.248 187.656C184.148 187.86 184.012 188.042 183.84 188.202C183.672 188.358 183.476 188.494 183.252 188.61C183.028 188.722 182.79 188.816 182.538 188.892C182.29 188.964 182.036 189.016 181.776 189.048C181.52 189.084 181.274 189.102 181.038 189.102C180.902 189.102 180.732 189.088 180.528 189.06C180.328 189.036 180.122 189.002 179.91 188.958C179.702 188.91 179.504 188.854 179.316 188.79C179.128 188.726 178.982 188.658 178.878 188.586L179.274 187.734C179.37 187.782 179.496 187.83 179.652 187.878C179.808 187.926 179.972 187.97 180.144 188.01C180.316 188.05 180.482 188.082 180.642 188.106C180.806 188.13 180.942 188.142 181.05 188.142C181.174 188.142 181.312 188.136 181.464 188.124C181.62 188.108 181.778 188.084 181.938 188.052C182.102 188.016 182.26 187.97 182.412 187.914C182.568 187.854 182.706 187.78 182.826 187.692C182.946 187.604 183.042 187.5 183.114 187.38C183.19 187.26 183.228 187.12 183.228 186.96C183.228 186.804 183.176 186.672 183.072 186.564C182.968 186.456 182.83 186.364 182.658 186.288C182.486 186.212 182.292 186.148 182.076 186.096C181.864 186.04 181.646 185.988 181.422 185.94C181.198 185.892 180.982 185.844 180.774 185.796C180.566 185.744 180.384 185.68 180.228 185.604C180 185.496 179.81 185.38 179.658 185.256C179.51 185.128 179.39 184.994 179.298 184.854C179.21 184.714 179.148 184.568 179.112 184.416C179.076 184.264 179.058 184.108 179.058 183.948C179.058 183.664 179.138 183.418 179.298 183.21C179.462 183.002 179.68 182.832 179.952 182.7C180.224 182.564 180.536 182.464 180.888 182.4C181.24 182.332 181.608 182.298 181.992 182.298C182.2 182.298 182.402 182.31 182.598 182.334C182.798 182.358 182.984 182.39 183.156 182.43C183.332 182.47 183.488 182.516 183.624 182.568C183.76 182.616 183.868 182.666 183.948 182.718L183.6 183.606Z" fill="white"/>
<path d="M92.3402 215.642C92.3402 215.85 92.3522 216.042 92.3762 216.218C92.4042 216.394 92.4482 216.546 92.5082 216.674C92.5682 216.802 92.6482 216.902 92.7482 216.974C92.8482 217.046 92.9722 217.082 93.1202 217.082C93.3162 217.082 93.5062 217.066 93.6902 217.034C93.8782 217.002 94.0462 216.966 94.1942 216.926C94.3422 216.882 94.4642 216.842 94.5602 216.806C94.6602 216.77 94.7222 216.748 94.7462 216.74L94.9802 217.664C94.9562 217.676 94.8922 217.706 94.7882 217.754C94.6842 217.802 94.5482 217.852 94.3802 217.904C94.2122 217.952 94.0162 217.996 93.7922 218.036C93.5682 218.08 93.3242 218.102 93.0602 218.102C92.6682 218.102 92.3502 218.038 92.1062 217.91C91.8662 217.782 91.6782 217.606 91.5422 217.382C91.4062 217.154 91.3142 216.886 91.2662 216.578C91.2222 216.27 91.2002 215.938 91.2002 215.582V212.48L91.4402 212.12L90.6002 212.36H89.3942L89.2742 211.4H92.3402V215.642ZM91.1642 209H92.3762V210.2H91.1642V209ZM101.921 212.732C101.765 212.592 101.549 212.478 101.273 212.39C100.997 212.302 100.647 212.258 100.223 212.258C99.8869 212.258 99.5849 212.322 99.3169 212.45C99.0529 212.574 98.8269 212.744 98.6389 212.96C98.4549 213.176 98.3129 213.428 98.2129 213.716C98.1169 214 98.0689 214.3 98.0689 214.616C98.0689 214.944 98.1149 215.258 98.2069 215.558C98.3029 215.854 98.4429 216.116 98.6269 216.344C98.8149 216.572 99.0469 216.754 99.3229 216.89C99.5989 217.022 99.9209 217.088 100.289 217.088C100.497 217.088 100.697 217.064 100.889 217.016C101.081 216.968 101.255 216.912 101.411 216.848C101.567 216.78 101.699 216.714 101.807 216.65C101.919 216.582 101.999 216.528 102.047 216.488L102.479 217.334C102.419 217.386 102.329 217.456 102.209 217.544C102.089 217.628 101.935 217.712 101.747 217.796C101.563 217.88 101.343 217.952 101.087 218.012C100.835 218.072 100.541 218.102 100.205 218.102C99.7049 218.102 99.2509 218.004 98.8429 217.808C98.4389 217.608 98.0929 217.344 97.8049 217.016C97.5169 216.684 97.2929 216.304 97.1329 215.876C96.9769 215.448 96.8989 215.002 96.8989 214.538C96.8989 214.122 96.9749 213.72 97.1269 213.332C97.2829 212.94 97.5049 212.594 97.7929 212.294C98.0809 211.994 98.4309 211.754 98.8429 211.574C99.2549 211.39 99.7189 211.298 100.235 211.298C100.723 211.298 101.161 211.356 101.549 211.472C101.941 211.584 102.263 211.778 102.515 212.054L101.921 212.732ZM107.578 218.102C107.134 218.102 106.726 218.016 106.354 217.844C105.986 217.668 105.668 217.428 105.4 217.124C105.132 216.816 104.922 216.454 104.77 216.038C104.622 215.622 104.548 215.17 104.548 214.682C104.548 214.198 104.62 213.75 104.764 213.338C104.908 212.922 105.112 212.564 105.376 212.264C105.64 211.96 105.958 211.724 106.33 211.556C106.706 211.384 107.122 211.298 107.578 211.298C108.022 211.298 108.426 211.384 108.79 211.556C109.154 211.724 109.466 211.96 109.726 212.264C109.99 212.564 110.194 212.922 110.338 213.338C110.482 213.75 110.554 214.198 110.554 214.682C110.554 215.17 110.484 215.622 110.344 216.038C110.208 216.454 110.01 216.816 109.75 217.124C109.494 217.428 109.182 217.668 108.814 217.844C108.446 218.016 108.034 218.102 107.578 218.102ZM109.414 214.844C109.414 214.52 109.38 214.202 109.312 213.89C109.244 213.578 109.136 213.3 108.988 213.056C108.84 212.808 108.648 212.608 108.412 212.456C108.176 212.304 107.89 212.228 107.554 212.228C107.234 212.228 106.956 212.294 106.72 212.426C106.484 212.558 106.29 212.734 106.138 212.954C105.986 213.174 105.872 213.424 105.796 213.704C105.724 213.984 105.688 214.272 105.688 214.568C105.688 214.892 105.724 215.21 105.796 215.522C105.872 215.834 105.986 216.112 106.138 216.356C106.294 216.6 106.492 216.798 106.732 216.95C106.976 217.098 107.266 217.172 107.602 217.172C107.918 217.172 108.19 217.106 108.418 216.974C108.65 216.842 108.838 216.668 108.982 216.452C109.13 216.232 109.238 215.984 109.306 215.708C109.378 215.428 109.414 215.14 109.414 214.844ZM113.834 218H112.754V211.4L113.834 211.28V212.438L114.2 211.736C114.272 211.688 114.356 211.638 114.452 211.586C114.552 211.534 114.672 211.488 114.812 211.448C114.952 211.404 115.118 211.368 115.31 211.34C115.502 211.312 115.728 211.298 115.988 211.298C116.304 211.298 116.588 211.35 116.84 211.454C117.096 211.554 117.31 211.7 117.482 211.892C117.658 212.084 117.792 212.316 117.884 212.588C117.98 212.86 118.028 213.164 118.028 213.5V218H116.948V213.5C116.948 213.284 116.912 213.098 116.84 212.942C116.772 212.786 116.676 212.658 116.552 212.558C116.428 212.454 116.284 212.378 116.12 212.33C115.956 212.282 115.782 212.258 115.598 212.258C115.406 212.258 115.22 212.282 115.04 212.33C114.864 212.378 114.7 212.44 114.548 212.516C114.396 212.588 114.258 212.668 114.134 212.756C114.014 212.84 113.914 212.92 113.834 212.996V218ZM123.187 218.102C122.743 218.102 122.335 218.016 121.963 217.844C121.595 217.668 121.277 217.428 121.009 217.124C120.741 216.816 120.531 216.454 120.379 216.038C120.231 215.622 120.157 215.17 120.157 214.682C120.157 214.198 120.229 213.75 120.373 213.338C120.517 212.922 120.721 212.564 120.985 212.264C121.249 211.96 121.567 211.724 121.939 211.556C122.315 211.384 122.731 211.298 123.187 211.298C123.631 211.298 124.035 211.384 124.399 211.556C124.763 211.724 125.075 211.96 125.335 212.264C125.599 212.564 125.803 212.922 125.947 213.338C126.091 213.75 126.163 214.198 126.163 214.682C126.163 215.17 126.093 215.622 125.953 216.038C125.817 216.454 125.619 216.816 125.359 217.124C125.103 217.428 124.791 217.668 124.423 217.844C124.055 218.016 123.643 218.102 123.187 218.102ZM125.023 214.844C125.023 214.52 124.989 214.202 124.921 213.89C124.853 213.578 124.745 213.3 124.597 213.056C124.449 212.808 124.257 212.608 124.021 212.456C123.785 212.304 123.499 212.228 123.163 212.228C122.843 212.228 122.565 212.294 122.329 212.426C122.093 212.558 121.899 212.734 121.747 212.954C121.595 213.174 121.481 213.424 121.405 213.704C121.333 213.984 121.297 214.272 121.297 214.568C121.297 214.892 121.333 215.21 121.405 215.522C121.481 215.834 121.595 216.112 121.747 216.356C121.903 216.6 122.101 216.798 122.341 216.95C122.585 217.098 122.875 217.172 123.211 217.172C123.527 217.172 123.799 217.106 124.027 216.974C124.259 216.842 124.447 216.668 124.591 216.452C124.739 216.232 124.847 215.984 124.915 215.708C124.987 215.428 125.023 215.14 125.023 214.844ZM132.558 217.19L132.036 217.85C132 217.874 131.948 217.9 131.88 217.928C131.816 217.956 131.736 217.982 131.64 218.006C131.544 218.034 131.432 218.056 131.304 218.072C131.176 218.092 131.034 218.102 130.878 218.102C130.634 218.102 130.394 218.062 130.158 217.982C129.922 217.902 129.696 217.788 129.48 217.64C129.268 217.492 129.072 217.316 128.892 217.112C128.712 216.904 128.554 216.676 128.418 216.428C128.286 216.176 128.182 215.908 128.106 215.624C128.034 215.336 127.998 215.038 127.998 214.73C127.998 214.262 128.074 213.82 128.226 213.404C128.378 212.988 128.592 212.624 128.868 212.312C129.144 212 129.476 211.754 129.864 211.574C130.252 211.39 130.682 211.298 131.154 211.298C131.302 211.298 131.446 211.304 131.586 211.316C131.73 211.328 131.864 211.356 131.988 211.4L132.558 212.252V211.28L133.638 211.4V218.276C133.638 218.668 133.574 219.036 133.446 219.38C133.318 219.724 133.132 220.022 132.888 220.274C132.644 220.53 132.344 220.732 131.988 220.88C131.632 221.028 131.226 221.102 130.77 221.102C130.454 221.102 130.176 221.062 129.936 220.982C129.7 220.902 129.498 220.814 129.33 220.718C129.234 220.662 129.144 220.602 129.06 220.538C128.976 220.474 128.9 220.404 128.832 220.328L129.42 219.668C129.476 219.712 129.536 219.754 129.6 219.794C129.668 219.834 129.738 219.872 129.81 219.908C129.934 219.968 130.078 220.022 130.242 220.07C130.406 220.118 130.584 220.142 130.776 220.142C131.024 220.142 131.256 220.09 131.472 219.986C131.688 219.886 131.876 219.748 132.036 219.572C132.2 219.396 132.328 219.188 132.42 218.948C132.512 218.712 132.558 218.458 132.558 218.186V217.19ZM132.558 212.996C132.454 212.864 132.328 212.742 132.18 212.63C132.056 212.538 131.906 212.454 131.73 212.378C131.554 212.298 131.352 212.258 131.124 212.258C130.884 212.258 130.668 212.296 130.476 212.372C130.284 212.448 130.114 212.55 129.966 212.678C129.822 212.806 129.696 212.956 129.588 213.128C129.484 213.296 129.398 213.476 129.33 213.668C129.266 213.856 129.218 214.048 129.186 214.244C129.154 214.436 129.138 214.622 129.138 214.802C129.138 215.142 129.19 215.456 129.294 215.744C129.402 216.028 129.542 216.274 129.714 216.482C129.886 216.686 130.082 216.846 130.302 216.962C130.522 217.078 130.746 217.136 130.974 217.136C131.178 217.136 131.36 217.114 131.52 217.07C131.68 217.026 131.824 216.968 131.952 216.896C132.08 216.82 132.192 216.736 132.288 216.644C132.388 216.548 132.478 216.45 132.558 216.35V212.996ZM137.248 212.63L137.794 211.682C137.906 211.598 138.034 211.53 138.178 211.478C138.322 211.426 138.47 211.388 138.622 211.364C138.774 211.336 138.926 211.318 139.078 211.31C139.234 211.302 139.382 211.298 139.522 211.298C139.822 211.298 140.078 211.312 140.29 211.34C140.502 211.364 140.68 211.396 140.824 211.436C140.972 211.476 141.09 211.518 141.178 211.562C141.266 211.602 141.334 211.638 141.382 211.67L141.682 213.38L140.782 213.5L140.482 212.432C140.45 212.42 140.4 212.408 140.332 212.396C140.264 212.384 140.186 212.372 140.098 212.36C140.01 212.348 139.916 212.338 139.816 212.33C139.72 212.322 139.628 212.318 139.54 212.318C139.268 212.318 139.016 212.35 138.784 212.414C138.552 212.474 138.34 212.558 138.148 212.666C137.956 212.774 137.784 212.9 137.632 213.044C137.484 213.188 137.356 213.34 137.248 213.5V218H136.168V211.4L137.248 211.28V212.63ZM149.367 218H148.167V217.028L147.603 217.7C147.535 217.752 147.447 217.802 147.339 217.85C147.235 217.898 147.123 217.942 147.003 217.982C146.883 218.018 146.761 218.046 146.637 218.066C146.513 218.09 146.395 218.102 146.283 218.102C145.983 218.102 145.681 218.056 145.377 217.964C145.073 217.868 144.799 217.73 144.555 217.55C144.311 217.366 144.111 217.14 143.955 216.872C143.803 216.6 143.727 216.288 143.727 215.936C143.727 215.564 143.805 215.244 143.961 214.976C144.121 214.704 144.329 214.48 144.585 214.304C144.841 214.128 145.133 213.998 145.461 213.914C145.789 213.83 146.121 213.788 146.457 213.788C146.837 213.788 147.167 213.81 147.447 213.854C147.727 213.894 147.967 213.952 148.167 214.028V213.77C148.167 213.534 148.137 213.322 148.077 213.134C148.021 212.946 147.931 212.788 147.807 212.66C147.683 212.528 147.523 212.428 147.327 212.36C147.135 212.292 146.905 212.258 146.637 212.258C146.385 212.258 146.167 212.274 145.983 212.306C145.803 212.334 145.635 212.366 145.479 212.402C145.387 212.422 145.299 212.444 145.215 212.468C145.131 212.492 145.049 212.516 144.969 212.54L144.537 211.736C144.705 211.66 144.905 211.588 145.137 211.52C145.329 211.464 145.547 211.414 145.791 211.37C146.039 211.322 146.341 211.298 146.697 211.298C147.157 211.298 147.549 211.36 147.873 211.484C148.197 211.608 148.461 211.782 148.665 212.006C148.869 212.23 149.017 212.5 149.109 212.816C149.201 213.128 149.247 213.476 149.247 213.86V216.92L149.367 218ZM148.167 214.85L147.807 214.802C147.751 214.798 147.677 214.792 147.585 214.784C147.493 214.776 147.393 214.77 147.285 214.766L146.967 214.754C146.863 214.75 146.773 214.748 146.697 214.748C146.473 214.748 146.253 214.768 146.037 214.808C145.821 214.848 145.627 214.914 145.455 215.006C145.287 215.098 145.149 215.22 145.041 215.372C144.937 215.52 144.885 215.706 144.885 215.93C144.885 216.11 144.925 216.274 145.005 216.422C145.085 216.57 145.191 216.698 145.323 216.806C145.459 216.914 145.613 216.998 145.785 217.058C145.961 217.114 146.143 217.142 146.331 217.142C146.703 217.142 147.037 217.072 147.333 216.932C147.629 216.788 147.907 216.596 148.167 216.356V214.85ZM152.852 217.04H153.836C154.204 217.04 154.538 216.98 154.838 216.86C155.138 216.736 155.394 216.564 155.606 216.344C155.818 216.124 155.982 215.86 156.098 215.552C156.214 215.244 156.272 214.904 156.272 214.532C156.272 214.14 156.218 213.802 156.11 213.518C156.002 213.23 155.864 212.994 155.696 212.81C155.528 212.622 155.34 212.484 155.132 212.396C154.928 212.304 154.728 212.258 154.532 212.258C154.336 212.258 154.152 212.284 153.98 212.336C153.812 212.384 153.656 212.446 153.512 212.522C153.372 212.598 153.246 212.682 153.134 212.774C153.022 212.866 152.928 212.954 152.852 213.038V217.04ZM151.772 221V211.4L152.852 211.28V212.336L153.422 211.574C153.538 211.506 153.702 211.444 153.914 211.388C154.13 211.328 154.394 211.298 154.706 211.298C155.038 211.298 155.366 211.376 155.69 211.532C156.014 211.688 156.302 211.91 156.554 212.198C156.81 212.486 157.016 212.834 157.172 213.242C157.332 213.65 157.412 214.106 157.412 214.61C157.412 215.102 157.316 215.556 157.124 215.972C156.936 216.384 156.674 216.742 156.338 217.046C156.006 217.346 155.616 217.58 155.168 217.748C154.72 217.916 154.238 218 153.722 218H152.852V221H151.772ZM160.662 218H159.582V209.6L159.462 208.4L160.662 208.28V212.3L161.196 211.61C161.352 211.522 161.576 211.448 161.868 211.388C162.16 211.328 162.536 211.298 162.996 211.298C163.6 211.298 164.06 211.498 164.376 211.898C164.696 212.294 164.856 212.868 164.856 213.62V218H163.716V213.746C163.716 213.478 163.692 213.25 163.644 213.062C163.6 212.874 163.536 212.72 163.452 212.6C163.368 212.48 163.264 212.394 163.14 212.342C163.016 212.286 162.876 212.258 162.72 212.258C162.48 212.258 162.25 212.282 162.03 212.33C161.814 212.378 161.616 212.44 161.436 212.516C161.256 212.588 161.098 212.668 160.962 212.756C160.83 212.844 160.73 212.926 160.662 213.002V218ZM170.393 215.816L172.007 211.4L173.087 211.28L170.663 218.102C170.543 218.438 170.413 218.772 170.273 219.104C170.137 219.436 169.981 219.734 169.805 219.998C169.633 220.262 169.437 220.474 169.217 220.634C169.001 220.798 168.753 220.88 168.473 220.88C168.249 220.88 168.043 220.836 167.855 220.748C167.667 220.66 167.489 220.544 167.321 220.4L167.759 219.698C167.783 219.722 167.813 219.75 167.849 219.782C167.889 219.814 167.931 219.844 167.975 219.872C168.023 219.904 168.073 219.93 168.125 219.95C168.181 219.97 168.237 219.98 168.293 219.98C168.437 219.98 168.567 219.928 168.683 219.824C168.803 219.724 168.913 219.592 169.013 219.428C169.117 219.264 169.211 219.082 169.295 218.882C169.383 218.682 169.467 218.482 169.547 218.282L167.105 211.4L168.245 211.28L169.829 215.816L170.141 217.208L170.393 215.816Z" fill="white"/>
<path d="M122.639 270.63L123.185 269.682C123.297 269.598 123.425 269.53 123.569 269.478C123.713 269.426 123.861 269.388 124.013 269.364C124.165 269.336 124.317 269.318 124.469 269.31C124.625 269.302 124.773 269.298 124.913 269.298C125.213 269.298 125.469 269.312 125.681 269.34C125.893 269.364 126.071 269.396 126.215 269.436C126.363 269.476 126.481 269.518 126.569 269.562C126.657 269.602 126.725 269.638 126.773 269.67L127.073 271.38L126.173 271.5L125.873 270.432C125.841 270.42 125.791 270.408 125.723 270.396C125.655 270.384 125.577 270.372 125.489 270.36C125.401 270.348 125.307 270.338 125.207 270.33C125.111 270.322 125.019 270.318 124.931 270.318C124.659 270.318 124.407 270.35 124.175 270.414C123.943 270.474 123.731 270.558 123.539 270.666C123.347 270.774 123.175 270.9 123.023 271.044C122.875 271.188 122.747 271.34 122.639 271.5V276H121.559V269.4L122.639 269.28V270.63ZM135.154 271.674C135.154 271.99 135.138 272.308 135.106 272.628C135.078 272.944 135.02 273.252 134.932 273.552C134.848 273.852 134.73 274.138 134.578 274.41C134.43 274.682 134.236 274.93 133.996 275.154H134.548L135.268 276.12H133.936L133.48 275.538C133.18 275.738 132.852 275.882 132.496 275.97C132.144 276.058 131.776 276.102 131.392 276.102C130.98 276.102 130.608 276.028 130.276 275.88C129.944 275.728 129.66 275.524 129.424 275.268C129.192 275.012 129.012 274.716 128.884 274.38C128.76 274.044 128.698 273.69 128.698 273.318C128.698 272.938 128.748 272.602 128.848 272.31C128.952 272.014 129.084 271.76 129.244 271.548C129.404 271.332 129.578 271.156 129.766 271.02C129.954 270.884 130.136 270.782 130.312 270.714C130.236 270.602 130.158 270.474 130.078 270.33C130.002 270.182 129.932 270.03 129.868 269.874C129.808 269.718 129.758 269.56 129.718 269.4C129.678 269.24 129.658 269.088 129.658 268.944C129.658 268.656 129.696 268.388 129.772 268.14C129.852 267.892 129.978 267.676 130.15 267.492C130.322 267.308 130.544 267.164 130.816 267.06C131.088 266.952 131.416 266.898 131.8 266.898C132.064 266.898 132.3 266.934 132.508 267.006C132.72 267.074 132.908 267.162 133.072 267.27C133.24 267.374 133.386 267.49 133.51 267.618C133.638 267.742 133.748 267.86 133.84 267.972L133.36 268.8C133.3 268.696 133.224 268.588 133.132 268.476C133.04 268.364 132.928 268.262 132.796 268.17C132.668 268.074 132.516 267.996 132.34 267.936C132.168 267.876 131.972 267.846 131.752 267.846C131.56 267.846 131.398 267.884 131.266 267.96C131.138 268.036 131.034 268.13 130.954 268.242C130.874 268.354 130.816 268.474 130.78 268.602C130.748 268.73 130.732 268.846 130.732 268.95C130.732 269.066 130.752 269.192 130.792 269.328C130.808 269.388 130.838 269.464 130.882 269.556C130.93 269.648 130.996 269.77 131.08 269.922C131.168 270.07 131.28 270.256 131.416 270.48C131.552 270.7 131.718 270.97 131.914 271.29C132.114 271.606 132.346 271.978 132.61 272.406C132.878 272.834 133.186 273.328 133.534 273.888C133.63 273.752 133.706 273.61 133.762 273.462C133.822 273.314 133.868 273.156 133.9 272.988C133.936 272.82 133.96 272.64 133.972 272.448C133.984 272.252 133.99 272.036 133.99 271.8L135.154 271.674ZM130.648 271.8C130.396 271.916 130.196 272.092 130.048 272.328C129.904 272.564 129.832 272.874 129.832 273.258C129.832 273.546 129.884 273.798 129.988 274.014C130.092 274.23 130.224 274.41 130.384 274.554C130.548 274.698 130.73 274.806 130.93 274.878C131.134 274.946 131.336 274.98 131.536 274.98C131.708 274.98 131.86 274.97 131.992 274.95C132.124 274.93 132.24 274.904 132.34 274.872C132.44 274.836 132.528 274.796 132.604 274.752C132.684 274.704 132.756 274.652 132.82 274.596L130.648 271.2V271.8ZM140.378 270.36C140.01 270.36 139.676 270.43 139.376 270.57C139.076 270.706 138.818 270.892 138.602 271.128C138.39 271.364 138.226 271.642 138.11 271.962C137.994 272.282 137.936 272.624 137.936 272.988C137.936 273.344 137.986 273.656 138.086 273.924C138.19 274.192 138.324 274.416 138.488 274.596C138.656 274.776 138.844 274.912 139.052 275.004C139.26 275.092 139.47 275.136 139.682 275.136C139.87 275.136 140.048 275.104 140.216 275.04C140.384 274.976 140.54 274.896 140.684 274.8C140.828 274.704 140.958 274.6 141.074 274.488C141.19 274.372 141.288 274.264 141.368 274.164V270.36H140.378ZM141.368 276V275.028L140.852 275.706C140.708 275.802 140.516 275.892 140.276 275.976C140.036 276.06 139.76 276.102 139.448 276.102C139.088 276.102 138.748 276.038 138.428 275.91C138.108 275.778 137.828 275.58 137.588 275.316C137.348 275.048 137.158 274.71 137.018 274.302C136.878 273.89 136.808 273.404 136.808 272.844C136.808 272.364 136.9 271.916 137.084 271.5C137.272 271.08 137.526 270.714 137.846 270.402C138.166 270.09 138.542 269.846 138.974 269.67C139.41 269.49 139.876 269.4 140.372 269.4H141.368V266.28L142.448 266.4V274.92L142.568 276H141.368Z" fill="white"/>
<path d="M65.5238 244.642C65.5238 244.85 65.5358 245.042 65.5598 245.218C65.5878 245.394 65.6318 245.546 65.6918 245.674C65.7518 245.802 65.8318 245.902 65.9318 245.974C66.0318 246.046 66.1558 246.082 66.3038 246.082C66.4998 246.082 66.6898 246.066 66.8738 246.034C67.0618 246.002 67.2298 245.966 67.3778 245.926C67.5258 245.882 67.6478 245.842 67.7438 245.806C67.8438 245.77 67.9058 245.748 67.9298 245.74L68.1638 246.664C68.1398 246.676 68.0758 246.706 67.9718 246.754C67.8678 246.802 67.7318 246.852 67.5638 246.904C67.3958 246.952 67.1998 246.996 66.9758 247.036C66.7518 247.08 66.5078 247.102 66.2438 247.102C65.8518 247.102 65.5338 247.038 65.2898 246.91C65.0498 246.782 64.8618 246.606 64.7258 246.382C64.5898 246.154 64.4978 245.886 64.4498 245.578C64.4058 245.27 64.3838 244.938 64.3838 244.582V241.48L64.6238 241.12L63.7838 241.36H62.5778L62.4578 240.4H65.5238V244.642ZM64.3478 238H65.5598V239.2H64.3478V238ZM71.4085 247H70.3285V240.4L71.4085 240.28V241.438L71.7745 240.736C71.8465 240.688 71.9305 240.638 72.0265 240.586C72.1265 240.534 72.2465 240.488 72.3865 240.448C72.5265 240.404 72.6925 240.368 72.8845 240.34C73.0765 240.312 73.3025 240.298 73.5625 240.298C73.8785 240.298 74.1625 240.35 74.4145 240.454C74.6705 240.554 74.8845 240.7 75.0565 240.892C75.2325 241.084 75.3665 241.316 75.4585 241.588C75.5545 241.86 75.6025 242.164 75.6025 242.5V247H74.5225V242.5C74.5225 242.284 74.4865 242.098 74.4145 241.942C74.3465 241.786 74.2505 241.658 74.1265 241.558C74.0025 241.454 73.8585 241.378 73.6945 241.33C73.5305 241.282 73.3565 241.258 73.1725 241.258C72.9805 241.258 72.7945 241.282 72.6145 241.33C72.4385 241.378 72.2745 241.44 72.1225 241.516C71.9705 241.588 71.8325 241.668 71.7085 241.756C71.5885 241.84 71.4885 241.92 71.4085 241.996V247ZM80.2932 244.744C80.2932 245.008 80.3072 245.23 80.3352 245.41C80.3672 245.586 80.4112 245.73 80.4672 245.842C80.5272 245.95 80.5992 246.028 80.6832 246.076C80.7712 246.12 80.8712 246.142 80.9832 246.142C81.1712 246.142 81.3572 246.12 81.5412 246.076C81.7252 246.032 81.8972 245.982 82.0572 245.926C82.2172 245.866 82.3592 245.808 82.4832 245.752C82.6072 245.692 82.7032 245.648 82.7712 245.62L83.1852 246.346C83.1492 246.378 83.0612 246.436 82.9212 246.52C82.7852 246.6 82.6112 246.684 82.3992 246.772C82.1912 246.86 81.9552 246.936 81.6912 247C81.4272 247.068 81.1512 247.102 80.8632 247.102C80.5032 247.102 80.2132 247.036 79.9932 246.904C79.7772 246.772 79.6112 246.592 79.4952 246.364C79.3792 246.136 79.3032 245.872 79.2672 245.572C79.2312 245.268 79.2132 244.944 79.2132 244.6V241.36H77.4672V240.4H79.2132V239.146L80.2632 238.48V240.4H83.1672L83.0472 241.36H80.2932V244.744ZM90.8759 246.226C90.7519 246.354 90.6159 246.472 90.4679 246.58C90.3199 246.688 90.1559 246.782 89.9759 246.862C89.7959 246.938 89.5959 246.996 89.3759 247.036C89.1599 247.08 88.9179 247.102 88.6499 247.102C88.1179 247.102 87.6579 247.008 87.2699 246.82C86.8819 246.632 86.5619 246.38 86.3099 246.064C86.0579 245.748 85.8719 245.386 85.7519 244.978C85.6319 244.57 85.5719 244.144 85.5719 243.7C85.5719 243.416 85.5999 243.136 85.6559 242.86C85.7159 242.58 85.7999 242.314 85.9079 242.062C86.0199 241.81 86.1579 241.576 86.3219 241.36C86.4899 241.144 86.6819 240.958 86.8979 240.802C87.1179 240.646 87.3599 240.524 87.6239 240.436C87.8919 240.344 88.1839 240.298 88.4999 240.298C88.9319 240.298 89.3219 240.368 89.6699 240.508C90.0179 240.648 90.3139 240.844 90.5579 241.096C90.8019 241.348 90.9899 241.652 91.1219 242.008C91.2539 242.36 91.3199 242.748 91.3199 243.172C91.3199 243.296 91.3159 243.432 91.3079 243.58C91.2999 243.728 91.2879 243.868 91.2719 244H86.7119C86.7119 244.308 86.7599 244.594 86.8559 244.858C86.9519 245.118 87.0819 245.344 87.2459 245.536C87.4139 245.724 87.6099 245.872 87.8339 245.98C88.0619 246.088 88.3079 246.142 88.5719 246.142C88.8279 246.142 89.0459 246.124 89.2259 246.088C89.4099 246.048 89.5639 246 89.6879 245.944C89.8159 245.888 89.9219 245.828 90.0059 245.764C90.0899 245.7 90.1619 245.64 90.2219 245.584L90.8759 246.226ZM90.2639 243.1V242.836C90.2639 242.608 90.2179 242.398 90.1259 242.206C90.0379 242.014 89.9159 241.848 89.7599 241.708C89.6079 241.564 89.4299 241.452 89.2259 241.372C89.0259 241.292 88.8139 241.252 88.5899 241.252C88.3219 241.252 88.0859 241.296 87.8819 241.384C87.6819 241.468 87.5099 241.578 87.3659 241.714C87.2219 241.846 87.1059 241.992 87.0179 242.152C86.9299 242.312 86.8659 242.464 86.8259 242.608L86.4719 243.292L87.5819 243.1H90.2639ZM94.8226 241.63L95.3686 240.682C95.4806 240.598 95.6086 240.53 95.7526 240.478C95.8966 240.426 96.0446 240.388 96.1966 240.364C96.3486 240.336 96.5006 240.318 96.6526 240.31C96.8086 240.302 96.9566 240.298 97.0966 240.298C97.3966 240.298 97.6526 240.312 97.8646 240.34C98.0766 240.364 98.2546 240.396 98.3986 240.436C98.5466 240.476 98.6646 240.518 98.7526 240.562C98.8406 240.602 98.9086 240.638 98.9566 240.67L99.2566 242.38L98.3566 242.5L98.0566 241.432C98.0246 241.42 97.9746 241.408 97.9066 241.396C97.8386 241.384 97.7606 241.372 97.6726 241.36C97.5846 241.348 97.4906 241.338 97.3906 241.33C97.2946 241.322 97.2026 241.318 97.1146 241.318C96.8426 241.318 96.5906 241.35 96.3586 241.414C96.1266 241.474 95.9146 241.558 95.7226 241.666C95.5306 241.774 95.3586 241.9 95.2066 242.044C95.0586 242.188 94.9306 242.34 94.8226 242.5V247H93.7426V240.4L94.8226 240.28V241.63ZM102.627 247H101.547V240.4L102.627 240.28V241.438L102.993 240.736C103.065 240.688 103.149 240.638 103.245 240.586C103.345 240.534 103.465 240.488 103.605 240.448C103.745 240.404 103.911 240.368 104.103 240.34C104.295 240.312 104.521 240.298 104.781 240.298C105.097 240.298 105.381 240.35 105.633 240.454C105.889 240.554 106.103 240.7 106.275 240.892C106.451 241.084 106.585 241.316 106.677 241.588C106.773 241.86 106.821 242.164 106.821 242.5V247H105.741V242.5C105.741 242.284 105.705 242.098 105.633 241.942C105.565 241.786 105.469 241.658 105.345 241.558C105.221 241.454 105.077 241.378 104.913 241.33C104.749 241.282 104.575 241.258 104.391 241.258C104.199 241.258 104.013 241.282 103.833 241.33C103.657 241.378 103.493 241.44 103.341 241.516C103.189 241.588 103.051 241.668 102.927 241.756C102.807 241.84 102.707 241.92 102.627 241.996V247ZM121.933 241.732C121.777 241.592 121.561 241.478 121.285 241.39C121.009 241.302 120.659 241.258 120.235 241.258C119.899 241.258 119.597 241.322 119.329 241.45C119.065 241.574 118.839 241.744 118.651 241.96C118.467 242.176 118.325 242.428 118.225 242.716C118.129 243 118.081 243.3 118.081 243.616C118.081 243.944 118.127 244.258 118.219 244.558C118.315 244.854 118.455 245.116 118.639 245.344C118.827 245.572 119.059 245.754 119.335 245.89C119.611 246.022 119.933 246.088 120.301 246.088C120.509 246.088 120.709 246.064 120.901 246.016C121.093 245.968 121.267 245.912 121.423 245.848C121.579 245.78 121.711 245.714 121.819 245.65C121.931 245.582 122.011 245.528 122.059 245.488L122.491 246.334C122.431 246.386 122.341 246.456 122.221 246.544C122.101 246.628 121.947 246.712 121.759 246.796C121.575 246.88 121.355 246.952 121.099 247.012C120.847 247.072 120.553 247.102 120.217 247.102C119.717 247.102 119.263 247.004 118.855 246.808C118.451 246.608 118.105 246.344 117.817 246.016C117.529 245.684 117.305 245.304 117.145 244.876C116.989 244.448 116.911 244.002 116.911 243.538C116.911 243.122 116.987 242.72 117.139 242.332C117.295 241.94 117.517 241.594 117.805 241.294C118.093 240.994 118.443 240.754 118.855 240.574C119.267 240.39 119.731 240.298 120.247 240.298C120.735 240.298 121.173 240.356 121.561 240.472C121.953 240.584 122.275 240.778 122.527 241.054L121.933 241.732ZM127.589 247.102C127.145 247.102 126.737 247.016 126.365 246.844C125.997 246.668 125.679 246.428 125.411 246.124C125.143 245.816 124.933 245.454 124.781 245.038C124.633 244.622 124.559 244.17 124.559 243.682C124.559 243.198 124.631 242.75 124.775 242.338C124.919 241.922 125.123 241.564 125.387 241.264C125.651 240.96 125.969 240.724 126.341 240.556C126.717 240.384 127.133 240.298 127.589 240.298C128.033 240.298 128.437 240.384 128.801 240.556C129.165 240.724 129.477 240.96 129.737 241.264C130.001 241.564 130.205 241.922 130.349 242.338C130.493 242.75 130.565 243.198 130.565 243.682C130.565 244.17 130.495 244.622 130.355 245.038C130.219 245.454 130.021 245.816 129.761 246.124C129.505 246.428 129.193 246.668 128.825 246.844C128.457 247.016 128.045 247.102 127.589 247.102ZM129.425 243.844C129.425 243.52 129.391 243.202 129.323 242.89C129.255 242.578 129.147 242.3 128.999 242.056C128.851 241.808 128.659 241.608 128.423 241.456C128.187 241.304 127.901 241.228 127.565 241.228C127.245 241.228 126.967 241.294 126.731 241.426C126.495 241.558 126.301 241.734 126.149 241.954C125.997 242.174 125.883 242.424 125.807 242.704C125.735 242.984 125.699 243.272 125.699 243.568C125.699 243.892 125.735 244.21 125.807 244.522C125.883 244.834 125.997 245.112 126.149 245.356C126.305 245.6 126.503 245.798 126.743 245.95C126.987 246.098 127.277 246.172 127.613 246.172C127.929 246.172 128.201 246.106 128.429 245.974C128.661 245.842 128.849 245.668 128.993 245.452C129.141 245.232 129.249 244.984 129.317 244.708C129.389 244.428 129.425 244.14 129.425 243.844ZM133.084 247H132.016V240.4L133.084 240.28V241.378C133.168 241.218 133.232 241.094 133.276 241.006C133.324 240.914 133.358 240.848 133.378 240.808C133.402 240.764 133.416 240.738 133.42 240.73L133.432 240.712C133.468 240.676 133.518 240.634 133.582 240.586C133.65 240.538 133.732 240.494 133.828 240.454C133.924 240.41 134.034 240.374 134.158 240.346C134.282 240.314 134.422 240.298 134.578 240.298C134.802 240.298 134.986 240.328 135.13 240.388C135.274 240.444 135.392 240.524 135.484 240.628C135.576 240.728 135.648 240.85 135.7 240.994C135.752 241.138 135.8 241.294 135.844 241.462L136.222 240.742C136.262 240.706 136.326 240.662 136.414 240.61C136.506 240.558 136.61 240.51 136.726 240.466C136.846 240.418 136.972 240.378 137.104 240.346C137.236 240.314 137.366 240.298 137.494 240.298C137.798 240.298 138.038 240.35 138.214 240.454C138.394 240.554 138.528 240.7 138.616 240.892C138.708 241.084 138.766 241.316 138.79 241.588C138.818 241.86 138.832 242.164 138.832 242.5V247H137.764V242.56C137.764 242.344 137.76 242.156 137.752 241.996C137.748 241.832 137.724 241.696 137.68 241.588C137.64 241.476 137.574 241.394 137.482 241.342C137.394 241.286 137.268 241.258 137.104 241.258C137.024 241.258 136.926 241.284 136.81 241.336C136.694 241.384 136.578 241.448 136.462 241.528C136.35 241.604 136.244 241.692 136.144 241.792C136.048 241.888 135.98 241.986 135.94 242.086C135.94 242.11 135.94 242.15 135.94 242.206C135.944 242.258 135.946 242.314 135.946 242.374C135.95 242.43 135.952 242.484 135.952 242.536V247H134.878V242.68C134.878 242.464 134.874 242.268 134.866 242.092C134.858 241.916 134.832 241.768 134.788 241.648C134.748 241.524 134.68 241.428 134.584 241.36C134.492 241.292 134.36 241.258 134.188 241.258C134.124 241.258 134.042 241.276 133.942 241.312C133.842 241.348 133.738 241.402 133.63 241.474C133.526 241.542 133.424 241.626 133.324 241.726C133.228 241.822 133.148 241.932 133.084 242.056V247ZM141.645 246.04H142.629C142.997 246.04 143.331 245.98 143.631 245.86C143.931 245.736 144.187 245.564 144.399 245.344C144.611 245.124 144.775 244.86 144.891 244.552C145.007 244.244 145.065 243.904 145.065 243.532C145.065 243.14 145.011 242.802 144.903 242.518C144.795 242.23 144.657 241.994 144.489 241.81C144.321 241.622 144.133 241.484 143.925 241.396C143.721 241.304 143.521 241.258 143.325 241.258C143.129 241.258 142.945 241.284 142.773 241.336C142.605 241.384 142.449 241.446 142.305 241.522C142.165 241.598 142.039 241.682 141.927 241.774C141.815 241.866 141.721 241.954 141.645 242.038V246.04ZM140.565 250V240.4L141.645 240.28V241.336L142.215 240.574C142.331 240.506 142.495 240.444 142.707 240.388C142.923 240.328 143.187 240.298 143.499 240.298C143.831 240.298 144.159 240.376 144.483 240.532C144.807 240.688 145.095 240.91 145.347 241.198C145.603 241.486 145.809 241.834 145.965 242.242C146.125 242.65 146.205 243.106 146.205 243.61C146.205 244.102 146.109 244.556 145.917 244.972C145.729 245.384 145.467 245.742 145.131 246.046C144.799 246.346 144.409 246.58 143.961 246.748C143.513 246.916 143.031 247 142.515 247H141.645V250H140.565ZM153.313 246.226C153.189 246.354 153.053 246.472 152.905 246.58C152.757 246.688 152.593 246.782 152.413 246.862C152.233 246.938 152.033 246.996 151.813 247.036C151.597 247.08 151.355 247.102 151.087 247.102C150.555 247.102 150.095 247.008 149.707 246.82C149.319 246.632 148.999 246.38 148.747 246.064C148.495 245.748 148.309 245.386 148.189 244.978C148.069 244.57 148.009 244.144 148.009 243.7C148.009 243.416 148.037 243.136 148.093 242.86C148.153 242.58 148.237 242.314 148.345 242.062C148.457 241.81 148.595 241.576 148.759 241.36C148.927 241.144 149.119 240.958 149.335 240.802C149.555 240.646 149.797 240.524 150.061 240.436C150.329 240.344 150.621 240.298 150.937 240.298C151.369 240.298 151.759 240.368 152.107 240.508C152.455 240.648 152.751 240.844 152.995 241.096C153.239 241.348 153.427 241.652 153.559 242.008C153.691 242.36 153.757 242.748 153.757 243.172C153.757 243.296 153.753 243.432 153.745 243.58C153.737 243.728 153.725 243.868 153.709 244H149.149C149.149 244.308 149.197 244.594 149.293 244.858C149.389 245.118 149.519 245.344 149.683 245.536C149.851 245.724 150.047 245.872 150.271 245.98C150.499 246.088 150.745 246.142 151.009 246.142C151.265 246.142 151.483 246.124 151.663 246.088C151.847 246.048 152.001 246 152.125 245.944C152.253 245.888 152.359 245.828 152.443 245.764C152.527 245.7 152.599 245.64 152.659 245.584L153.313 246.226ZM152.701 243.1V242.836C152.701 242.608 152.655 242.398 152.563 242.206C152.475 242.014 152.353 241.848 152.197 241.708C152.045 241.564 151.867 241.452 151.663 241.372C151.463 241.292 151.251 241.252 151.027 241.252C150.759 241.252 150.523 241.296 150.319 241.384C150.119 241.468 149.947 241.578 149.803 241.714C149.659 241.846 149.543 241.992 149.455 242.152C149.367 242.312 149.303 242.464 149.263 242.608L148.909 243.292L150.019 243.1H152.701ZM158.34 244.744C158.34 245.008 158.354 245.23 158.382 245.41C158.414 245.586 158.458 245.73 158.514 245.842C158.574 245.95 158.646 246.028 158.73 246.076C158.818 246.12 158.918 246.142 159.03 246.142C159.218 246.142 159.404 246.12 159.588 246.076C159.772 246.032 159.944 245.982 160.104 245.926C160.264 245.866 160.406 245.808 160.53 245.752C160.654 245.692 160.75 245.648 160.818 245.62L161.232 246.346C161.196 246.378 161.108 246.436 160.968 246.52C160.832 246.6 160.658 246.684 160.446 246.772C160.238 246.86 160.002 246.936 159.738 247C159.474 247.068 159.198 247.102 158.91 247.102C158.55 247.102 158.26 247.036 158.04 246.904C157.824 246.772 157.658 246.592 157.542 246.364C157.426 246.136 157.35 245.872 157.314 245.572C157.278 245.268 157.26 244.944 157.26 244.6V241.36H155.514V240.4H157.26V239.146L158.31 238.48V240.4H161.214L161.094 241.36H158.34V244.744ZM166.985 244.642C166.985 244.85 166.997 245.042 167.021 245.218C167.049 245.394 167.093 245.546 167.153 245.674C167.213 245.802 167.293 245.902 167.393 245.974C167.493 246.046 167.617 246.082 167.765 246.082C167.961 246.082 168.151 246.066 168.335 246.034C168.523 246.002 168.691 245.966 168.839 245.926C168.987 245.882 169.109 245.842 169.205 245.806C169.305 245.77 169.367 245.748 169.391 245.74L169.625 246.664C169.601 246.676 169.537 246.706 169.433 246.754C169.329 246.802 169.193 246.852 169.025 246.904C168.857 246.952 168.661 246.996 168.437 247.036C168.213 247.08 167.969 247.102 167.705 247.102C167.313 247.102 166.995 247.038 166.751 246.91C166.511 246.782 166.323 246.606 166.187 246.382C166.051 246.154 165.959 245.886 165.911 245.578C165.867 245.27 165.845 244.938 165.845 244.582V241.48L166.085 241.12L165.245 241.36H164.039L163.919 240.4H166.985V244.642ZM165.809 238H167.021V239.2H165.809V238ZM173.949 244.744C173.949 245.008 173.963 245.23 173.991 245.41C174.023 245.586 174.067 245.73 174.123 245.842C174.183 245.95 174.255 246.028 174.339 246.076C174.427 246.12 174.527 246.142 174.639 246.142C174.827 246.142 175.013 246.12 175.197 246.076C175.381 246.032 175.553 245.982 175.713 245.926C175.873 245.866 176.015 245.808 176.139 245.752C176.263 245.692 176.359 245.648 176.427 245.62L176.841 246.346C176.805 246.378 176.717 246.436 176.577 246.52C176.441 246.6 176.267 246.684 176.055 246.772C175.847 246.86 175.611 246.936 175.347 247C175.083 247.068 174.807 247.102 174.519 247.102C174.159 247.102 173.869 247.036 173.649 246.904C173.433 246.772 173.267 246.592 173.151 246.364C173.035 246.136 172.959 245.872 172.923 245.572C172.887 245.268 172.869 244.944 172.869 244.6V241.36H171.123V240.4H172.869V239.146L173.919 238.48V240.4H176.823L176.703 241.36H173.949V244.744ZM182.594 244.642C182.594 244.85 182.606 245.042 182.63 245.218C182.658 245.394 182.702 245.546 182.762 245.674C182.822 245.802 182.902 245.902 183.002 245.974C183.102 246.046 183.226 246.082 183.374 246.082C183.57 246.082 183.76 246.066 183.944 246.034C184.132 246.002 184.3 245.966 184.448 245.926C184.596 245.882 184.718 245.842 184.814 245.806C184.914 245.77 184.976 245.748 185 245.74L185.234 246.664C185.21 246.676 185.146 246.706 185.042 246.754C184.938 246.802 184.802 246.852 184.634 246.904C184.466 246.952 184.27 246.996 184.046 247.036C183.822 247.08 183.578 247.102 183.314 247.102C182.922 247.102 182.604 247.038 182.36 246.91C182.12 246.782 181.932 246.606 181.796 246.382C181.66 246.154 181.568 245.886 181.52 245.578C181.476 245.27 181.454 244.938 181.454 244.582V241.48L181.694 241.12L180.854 241.36H179.648L179.528 240.4H182.594V244.642ZM181.418 238H182.63V239.2H181.418V238ZM190.027 247.102C189.583 247.102 189.175 247.016 188.803 246.844C188.435 246.668 188.117 246.428 187.849 246.124C187.581 245.816 187.371 245.454 187.219 245.038C187.071 244.622 186.997 244.17 186.997 243.682C186.997 243.198 187.069 242.75 187.213 242.338C187.357 241.922 187.561 241.564 187.825 241.264C188.089 240.96 188.407 240.724 188.779 240.556C189.155 240.384 189.571 240.298 190.027 240.298C190.471 240.298 190.875 240.384 191.239 240.556C191.603 240.724 191.915 240.96 192.175 241.264C192.439 241.564 192.643 241.922 192.787 242.338C192.931 242.75 193.003 243.198 193.003 243.682C193.003 244.17 192.933 244.622 192.793 245.038C192.657 245.454 192.459 245.816 192.199 246.124C191.943 246.428 191.631 246.668 191.263 246.844C190.895 247.016 190.483 247.102 190.027 247.102ZM191.863 243.844C191.863 243.52 191.829 243.202 191.761 242.89C191.693 242.578 191.585 242.3 191.437 242.056C191.289 241.808 191.097 241.608 190.861 241.456C190.625 241.304 190.339 241.228 190.003 241.228C189.683 241.228 189.405 241.294 189.169 241.426C188.933 241.558 188.739 241.734 188.587 241.954C188.435 242.174 188.321 242.424 188.245 242.704C188.173 242.984 188.137 243.272 188.137 243.568C188.137 243.892 188.173 244.21 188.245 244.522C188.321 244.834 188.435 245.112 188.587 245.356C188.743 245.6 188.941 245.798 189.181 245.95C189.425 246.098 189.715 246.172 190.051 246.172C190.367 246.172 190.639 246.106 190.867 245.974C191.099 245.842 191.287 245.668 191.431 245.452C191.579 245.232 191.687 244.984 191.755 244.708C191.827 244.428 191.863 244.14 191.863 243.844ZM196.284 247H195.204V240.4L196.284 240.28V241.438L196.65 240.736C196.722 240.688 196.806 240.638 196.902 240.586C197.002 240.534 197.122 240.488 197.262 240.448C197.402 240.404 197.568 240.368 197.76 240.34C197.952 240.312 198.178 240.298 198.438 240.298C198.754 240.298 199.038 240.35 199.29 240.454C199.546 240.554 199.76 240.7 199.932 240.892C200.108 241.084 200.242 241.316 200.334 241.588C200.43 241.86 200.478 242.164 200.478 242.5V247H199.398V242.5C199.398 242.284 199.362 242.098 199.29 241.942C199.222 241.786 199.126 241.658 199.002 241.558C198.878 241.454 198.734 241.378 198.57 241.33C198.406 241.282 198.232 241.258 198.048 241.258C197.856 241.258 197.67 241.282 197.49 241.33C197.314 241.378 197.15 241.44 196.998 241.516C196.846 241.588 196.708 241.668 196.584 241.756C196.464 241.84 196.364 241.92 196.284 241.996V247Z" fill="white"/>
<path d="M102.555 83.035C102.555 83.2083 102.565 83.3683 102.585 83.515C102.608 83.6617 102.645 83.7883 102.695 83.895C102.745 84.0017 102.812 84.085 102.895 84.145C102.978 84.205 103.082 84.235 103.205 84.235C103.368 84.235 103.527 84.2217 103.68 84.195C103.837 84.1683 103.977 84.1383 104.1 84.105C104.223 84.0683 104.325 84.035 104.405 84.005C104.488 83.975 104.54 83.9567 104.56 83.95L104.755 84.72C104.735 84.73 104.682 84.755 104.595 84.795C104.508 84.835 104.395 84.8767 104.255 84.92C104.115 84.96 103.952 84.9967 103.765 85.03C103.578 85.0667 103.375 85.085 103.155 85.085C102.828 85.085 102.563 85.0317 102.36 84.925C102.16 84.8183 102.003 84.6717 101.89 84.485C101.777 84.295 101.7 84.0717 101.66 83.815C101.623 83.5583 101.605 83.2817 101.605 82.985V80.4L101.805 80.1L101.105 80.3H100.1L100 79.5H102.555V83.035ZM101.575 77.5H102.585V78.5H101.575V77.5ZM107.459 85H106.559V79.5L107.459 79.4V80.365L107.764 79.78C107.824 79.74 107.894 79.6983 107.974 79.655C108.057 79.6117 108.157 79.5733 108.274 79.54C108.391 79.5033 108.529 79.4733 108.689 79.45C108.849 79.4267 109.037 79.415 109.254 79.415C109.517 79.415 109.754 79.4583 109.964 79.545C110.177 79.6283 110.356 79.75 110.499 79.91C110.646 80.07 110.757 80.2633 110.834 80.49C110.914 80.7167 110.954 80.97 110.954 81.25V85H110.054V81.25C110.054 81.07 110.024 80.915 109.964 80.785C109.907 80.655 109.827 80.5483 109.724 80.465C109.621 80.3783 109.501 80.315 109.364 80.275C109.227 80.235 109.082 80.215 108.929 80.215C108.769 80.215 108.614 80.235 108.464 80.275C108.317 80.315 108.181 80.3667 108.054 80.43C107.927 80.49 107.812 80.5567 107.709 80.63C107.609 80.7 107.526 80.7667 107.459 80.83V85ZM114.863 83.12C114.863 83.34 114.874 83.525 114.898 83.675C114.924 83.8217 114.961 83.9417 115.008 84.035C115.058 84.125 115.118 84.19 115.188 84.23C115.261 84.2667 115.344 84.285 115.438 84.285C115.594 84.285 115.749 84.2667 115.903 84.23C116.056 84.1933 116.199 84.1517 116.333 84.105C116.466 84.055 116.584 84.0067 116.688 83.96C116.791 83.91 116.871 83.8733 116.928 83.85L117.273 84.455C117.243 84.4817 117.169 84.53 117.053 84.6C116.939 84.6667 116.794 84.7367 116.618 84.81C116.444 84.8833 116.248 84.9467 116.028 85C115.808 85.0567 115.578 85.085 115.338 85.085C115.038 85.085 114.796 85.03 114.613 84.92C114.433 84.81 114.294 84.66 114.198 84.47C114.101 84.28 114.038 84.06 114.008 83.81C113.978 83.5567 113.963 83.2867 113.963 83V80.3H112.508V79.5H113.963V78.455L114.838 77.9V79.5H117.258L117.158 80.3H114.863V83.12ZM123.682 84.355C123.578 84.4617 123.465 84.56 123.342 84.65C123.218 84.74 123.082 84.8183 122.932 84.885C122.782 84.9483 122.615 84.9967 122.432 85.03C122.252 85.0667 122.05 85.085 121.827 85.085C121.383 85.085 121 85.0067 120.677 84.85C120.353 84.6933 120.087 84.4833 119.877 84.22C119.667 83.9567 119.512 83.655 119.412 83.315C119.312 82.975 119.262 82.62 119.262 82.25C119.262 82.0133 119.285 81.78 119.332 81.55C119.382 81.3167 119.452 81.095 119.542 80.885C119.635 80.675 119.75 80.48 119.887 80.3C120.027 80.12 120.187 79.965 120.367 79.835C120.55 79.705 120.752 79.6033 120.972 79.53C121.195 79.4533 121.438 79.415 121.702 79.415C122.062 79.415 122.387 79.4733 122.677 79.59C122.967 79.7067 123.213 79.87 123.417 80.08C123.62 80.29 123.777 80.5433 123.887 80.84C123.997 81.1333 124.052 81.4567 124.052 81.81C124.052 81.9133 124.048 82.0267 124.042 82.15C124.035 82.2733 124.025 82.39 124.012 82.5H120.212C120.212 82.7567 120.252 82.995 120.332 83.215C120.412 83.4317 120.52 83.62 120.657 83.78C120.797 83.9367 120.96 84.06 121.147 84.15C121.337 84.24 121.542 84.285 121.762 84.285C121.975 84.285 122.157 84.27 122.307 84.24C122.46 84.2067 122.588 84.1667 122.692 84.12C122.798 84.0733 122.887 84.0233 122.957 83.97C123.027 83.9167 123.087 83.8667 123.137 83.82L123.682 84.355ZM123.172 81.75V81.53C123.172 81.34 123.133 81.165 123.057 81.005C122.983 80.845 122.882 80.7067 122.752 80.59C122.625 80.47 122.477 80.3767 122.307 80.31C122.14 80.2433 121.963 80.21 121.777 80.21C121.553 80.21 121.357 80.2467 121.187 80.32C121.02 80.39 120.877 80.4817 120.757 80.595C120.637 80.705 120.54 80.8267 120.467 80.96C120.393 81.0933 120.34 81.22 120.307 81.34L120.012 81.91L120.937 81.75H123.172ZM126.971 80.525L127.426 79.735C127.519 79.665 127.626 79.6083 127.746 79.565C127.866 79.5217 127.989 79.49 128.116 79.47C128.242 79.4467 128.369 79.4317 128.496 79.425C128.626 79.4183 128.749 79.415 128.866 79.415C129.116 79.415 129.329 79.4267 129.506 79.45C129.682 79.47 129.831 79.4967 129.951 79.53C130.074 79.5633 130.172 79.5983 130.246 79.635C130.319 79.6683 130.376 79.6983 130.416 79.725L130.666 81.15L129.916 81.25L129.666 80.36C129.639 80.35 129.597 80.34 129.541 80.33C129.484 80.32 129.419 80.31 129.346 80.3C129.272 80.29 129.194 80.2817 129.111 80.275C129.031 80.2683 128.954 80.265 128.881 80.265C128.654 80.265 128.444 80.2917 128.251 80.345C128.057 80.395 127.881 80.465 127.721 80.555C127.561 80.645 127.417 80.75 127.291 80.87C127.167 80.99 127.061 81.1167 126.971 81.25V85H126.071V79.5L126.971 79.4V80.525ZM133.475 85H132.575V79.5L133.475 79.4V80.365L133.78 79.78C133.84 79.74 133.91 79.6983 133.99 79.655C134.073 79.6117 134.173 79.5733 134.29 79.54C134.406 79.5033 134.545 79.4733 134.705 79.45C134.865 79.4267 135.053 79.415 135.27 79.415C135.533 79.415 135.77 79.4583 135.98 79.545C136.193 79.6283 136.371 79.75 136.515 79.91C136.661 80.07 136.773 80.2633 136.85 80.49C136.93 80.7167 136.97 80.97 136.97 81.25V85H136.07V81.25C136.07 81.07 136.04 80.915 135.98 80.785C135.923 80.655 135.843 80.5483 135.74 80.465C135.636 80.3783 135.516 80.315 135.38 80.275C135.243 80.235 135.098 80.215 134.945 80.215C134.785 80.215 134.63 80.235 134.48 80.275C134.333 80.315 134.196 80.3667 134.07 80.43C133.943 80.49 133.828 80.5567 133.725 80.63C133.625 80.7 133.541 80.7667 133.475 80.83V85ZM142.833 80.505C142.77 80.475 142.693 80.4417 142.603 80.405C142.517 80.365 142.418 80.33 142.308 80.3C142.198 80.2667 142.077 80.24 141.943 80.22C141.813 80.1967 141.673 80.185 141.523 80.185C141.32 80.185 141.122 80.195 140.928 80.215C140.735 80.235 140.563 80.2717 140.413 80.325C140.263 80.3783 140.142 80.45 140.048 80.54C139.958 80.63 139.913 80.7467 139.913 80.89C139.913 81.01 139.958 81.1133 140.048 81.2C140.138 81.2833 140.255 81.3567 140.398 81.42C140.545 81.48 140.71 81.5333 140.893 81.58C141.077 81.6233 141.262 81.665 141.448 81.705C141.635 81.745 141.815 81.785 141.988 81.825C142.162 81.8617 142.312 81.9033 142.438 81.95C142.585 82.0067 142.722 82.0783 142.848 82.165C142.978 82.2517 143.092 82.3533 143.188 82.47C143.285 82.5833 143.36 82.71 143.413 82.85C143.47 82.9867 143.498 83.135 143.498 83.295C143.498 83.5117 143.457 83.7067 143.373 83.88C143.29 84.05 143.177 84.2017 143.033 84.335C142.893 84.465 142.73 84.5783 142.543 84.675C142.357 84.7683 142.158 84.8467 141.948 84.91C141.742 84.97 141.53 85.0133 141.313 85.04C141.1 85.07 140.895 85.085 140.698 85.085C140.585 85.085 140.443 85.0733 140.273 85.05C140.107 85.03 139.935 85.0017 139.758 84.965C139.585 84.925 139.42 84.8783 139.263 84.825C139.107 84.7717 138.985 84.715 138.898 84.655L139.228 83.945C139.308 83.985 139.413 84.025 139.543 84.065C139.673 84.105 139.81 84.1417 139.953 84.175C140.097 84.2083 140.235 84.235 140.368 84.255C140.505 84.275 140.618 84.285 140.708 84.285C140.812 84.285 140.927 84.28 141.053 84.27C141.183 84.2567 141.315 84.2367 141.448 84.21C141.585 84.18 141.717 84.1417 141.843 84.095C141.973 84.045 142.088 83.9833 142.188 83.91C142.288 83.8367 142.368 83.75 142.428 83.65C142.492 83.55 142.523 83.4333 142.523 83.3C142.523 83.17 142.48 83.06 142.393 82.97C142.307 82.88 142.192 82.8033 142.048 82.74C141.905 82.6767 141.743 82.6233 141.563 82.58C141.387 82.5333 141.205 82.49 141.018 82.45C140.832 82.41 140.652 82.37 140.478 82.33C140.305 82.2867 140.153 82.2333 140.023 82.17C139.833 82.08 139.675 81.9833 139.548 81.88C139.425 81.7733 139.325 81.6617 139.248 81.545C139.175 81.4283 139.123 81.3067 139.093 81.18C139.063 81.0533 139.048 80.9233 139.048 80.79C139.048 80.5533 139.115 80.3483 139.248 80.175C139.385 80.0017 139.567 79.86 139.793 79.75C140.02 79.6367 140.28 79.5533 140.573 79.5C140.867 79.4433 141.173 79.415 141.493 79.415C141.667 79.415 141.835 79.425 141.998 79.445C142.165 79.465 142.32 79.4917 142.463 79.525C142.61 79.5583 142.74 79.5967 142.853 79.64C142.967 79.68 143.057 79.7217 143.123 79.765L142.833 80.505ZM146.482 85H145.582V78L145.482 77L146.482 76.9V80.25L146.927 79.675C147.057 79.6017 147.244 79.54 147.487 79.49C147.731 79.44 148.044 79.415 148.427 79.415C148.931 79.415 149.314 79.5817 149.577 79.915C149.844 80.245 149.977 80.7233 149.977 81.35V85H149.027V81.455C149.027 81.2317 149.007 81.0417 148.967 80.885C148.931 80.7283 148.877 80.6 148.807 80.5C148.737 80.4 148.651 80.3283 148.547 80.285C148.444 80.2383 148.327 80.215 148.197 80.215C147.997 80.215 147.806 80.235 147.622 80.275C147.442 80.315 147.277 80.3667 147.127 80.43C146.977 80.49 146.846 80.5567 146.732 80.63C146.622 80.7033 146.539 80.7717 146.482 80.835V85ZM154.586 83.035C154.586 83.2083 154.596 83.3683 154.616 83.515C154.64 83.6617 154.676 83.7883 154.726 83.895C154.776 84.0017 154.843 84.085 154.926 84.145C155.01 84.205 155.113 84.235 155.236 84.235C155.4 84.235 155.558 84.2217 155.711 84.195C155.868 84.1683 156.008 84.1383 156.131 84.105C156.255 84.0683 156.356 84.035 156.436 84.005C156.52 83.975 156.571 83.9567 156.591 83.95L156.786 84.72C156.766 84.73 156.713 84.755 156.626 84.795C156.54 84.835 156.426 84.8767 156.286 84.92C156.146 84.96 155.983 84.9967 155.796 85.03C155.61 85.0667 155.406 85.085 155.186 85.085C154.86 85.085 154.595 85.0317 154.391 84.925C154.191 84.8183 154.035 84.6717 153.921 84.485C153.808 84.295 153.731 84.0717 153.691 83.815C153.655 83.5583 153.636 83.2817 153.636 82.985V80.4L153.836 80.1L153.136 80.3H152.131L152.031 79.5H154.586V83.035ZM153.606 77.5H154.616V78.5H153.606V77.5ZM159.485 84.2H160.305C160.612 84.2 160.89 84.15 161.14 84.05C161.39 83.9467 161.603 83.8033 161.78 83.62C161.957 83.4367 162.093 83.2167 162.19 82.96C162.287 82.7033 162.335 82.42 162.335 82.11C162.335 81.7833 162.29 81.5017 162.2 81.265C162.11 81.025 161.995 80.8283 161.855 80.675C161.715 80.5183 161.558 80.4033 161.385 80.33C161.215 80.2533 161.048 80.215 160.885 80.215C160.722 80.215 160.568 80.2367 160.425 80.28C160.285 80.32 160.155 80.3717 160.035 80.435C159.918 80.4983 159.813 80.5683 159.72 80.645C159.627 80.7217 159.548 80.795 159.485 80.865V84.2ZM158.585 87.5V79.5L159.485 79.4V80.28L159.96 79.645C160.057 79.5883 160.193 79.5367 160.37 79.49C160.55 79.44 160.77 79.415 161.03 79.415C161.307 79.415 161.58 79.48 161.85 79.61C162.12 79.74 162.36 79.925 162.57 80.165C162.783 80.405 162.955 80.695 163.085 81.035C163.218 81.375 163.285 81.755 163.285 82.175C163.285 82.585 163.205 82.9633 163.045 83.31C162.888 83.6533 162.67 83.9517 162.39 84.205C162.113 84.455 161.788 84.65 161.415 84.79C161.042 84.93 160.64 85 160.21 85H159.485V87.5H158.585Z" fill="white"/>
<path d="M165.954 5C160.01 9.75595 143.365 8.56696 136.232 13.3224C129.098 18.0783 127.909 28.7787 127.909 28.7787C127.909 28.7787 125.531 18.0783 118.398 15.7004C112.762 13.8217 109.362 14.9038 108.173 15.4505C107.923 15.5752 107.619 15.5057 107.448 15.2842C106.568 14.221 105.303 13.5497 103.929 13.4176C103.727 13.385 103.522 13.4597 103.389 13.6149C103.255 13.7701 103.212 13.9837 103.275 14.1784C103.576 15.3374 103.518 16.5605 103.109 17.6859C103.005 17.9258 102.836 18.132 102.621 18.2804C101.076 19.4336 101.444 22.3939 101.658 23.5472C101.711 23.8502 101.643 24.1622 101.468 24.4152C100.541 25.7705 97.8654 30.1813 101.753 31.1562C105.011 31.9648 105.474 30.0029 105.451 28.6714C105.452 28.0753 105.894 27.5724 106.485 27.4945C107.459 27.3482 108.375 26.9416 109.136 26.3176C109.408 26.0809 109.772 25.9814 110.126 26.0461C110.48 26.1108 110.785 26.3334 110.955 26.6501C111.823 28.3384 112.822 31.1919 111.265 33.5341C108.887 37.1011 110.076 43.0455 110.076 43.0455L103.049 43.842C101.229 44.0682 99.7015 45.3225 99.1254 47.0639L97.354 52.3785C96.8169 54.0136 96.8931 55.7887 97.5681 57.3717L99.2685 61.3428C99.4332 61.7352 99.7962 62.0088 100.219 62.0604C100.641 62.1119 101.059 61.9336 101.313 61.5927L103.144 59.1552C103.296 58.9485 103.379 58.6986 103.382 58.4418C103.379 58.2051 103.309 57.9741 103.18 57.7763C101.969 55.9692 101.666 53.7027 102.359 51.6415L103.275 48.8831C103.477 48.2702 104.132 47.9319 104.749 48.1218L110.575 49.7628C111.777 50.0295 113.035 49.7933 114.058 49.1088C115.278 48.3065 116.808 48.1387 118.172 48.6569C130.656 53.3771 133.854 50.1789 133.854 50.1789C134.009 50.9754 134.211 51.7604 134.425 52.5448C134.678 53.5375 135.109 54.4756 135.697 55.3152C136.401 56.1223 137.186 56.8551 138.039 57.5028C138.769 58.1688 139.397 58.938 139.906 59.7855C140.902 61.2097 141.171 63.0194 140.631 64.6719C140.197 65.5821 139.49 66.3339 138.609 66.8237C133.461 69.915 131.88 69.4395 130.775 72.3519C130.638 72.7181 130.689 73.1274 130.912 73.4478C131.135 73.7682 131.502 73.9587 131.892 73.9571H137.944C138.355 73.9576 138.737 73.7466 138.954 73.3984C140.179 71.4365 141.439 69.2374 143.484 68.0006C144.376 67.5187 145.209 66.9363 145.969 66.265C147.112 65.2506 147.685 63.7402 147.502 62.2224C147.197 61.3054 146.77 60.4331 146.23 59.6308C145.311 58.1483 145.077 56.3406 145.589 54.6729C146.091 53.638 147.013 52.8678 148.121 52.5569C151.212 51.5226 152.52 46.0295 152.032 43.0334C151.976 42.6262 151.86 42.2295 151.688 41.8565C151.49 40.425 150.733 39.1297 149.583 38.2543C149.129 37.8297 148.639 37.4441 148.121 37.1011C144.554 34.7231 143.365 32.3451 145.743 29.9672C146.352 29.3863 147.061 28.9192 147.835 28.5883C150.344 27.4466 153.733 27.0189 156.443 25.2117C158.088 24.2837 158.826 22.3061 158.191 20.5273C161.615 18.9938 162.257 16.58 162.352 15.2369V15.2248C164.884 13.7743 164.98 10.1242 164.873 8.36494C165.724 7.46478 166.122 6.22739 165.954 5Z" fill="#D1D4D1"/>
<path d="M162.352 15.2246V15.2367C161.993 15.4476 161.604 15.6039 161.199 15.7002C156.443 16.8892 140.987 19.2671 138.609 22.8336L138.609 22.8325C137.852 21.7177 137.629 20.3256 137.999 19.0304C138.369 17.7351 139.293 16.6703 140.524 16.1226C144.798 14.3055 150.919 13.8115 157.632 12.1332C161.674 11.1231 163.779 9.68421 164.873 8.36475C164.979 10.124 164.884 13.7741 162.352 15.2246Z" fill="#BDC3C7"/>
<path d="M162.352 15.2368C162.257 16.58 161.615 18.9937 158.191 20.5273C156.877 21.0955 155.487 21.4716 154.066 21.6447C149.398 22.2013 144.922 23.8291 140.987 26.4007L138.609 22.8337C140.987 19.2673 156.443 16.8893 161.199 15.7003C161.604 15.604 161.993 15.4478 162.352 15.2368Z" fill="#95A5A5"/>
<path d="M156.443 25.2117C153.732 27.0189 150.344 27.4466 147.835 28.5883C145.641 29.2375 143.681 30.5069 142.191 32.2441C141.868 32.6671 141.302 32.8223 140.809 32.6229C140.315 32.4235 140.015 31.919 140.076 31.3903C140.264 29.7078 140.568 28.0406 140.987 26.4007C144.922 23.8292 149.398 22.2014 154.065 21.6448C155.487 21.4717 156.876 21.0955 158.19 20.5273C158.825 22.3061 158.088 24.2837 156.443 25.2117Z" fill="#7F8C8D"/>
<path d="M149.572 38.2544H149.584C152.64 38.3017 159.642 39.2766 162.389 46.612C165.232 54.1931 163.543 63.1942 163.944 67.8118C163.993 68.32 163.712 68.8024 163.245 69.0108C162.779 69.2186 162.232 69.106 161.886 68.7304C160.19 66.8979 158.257 63.0432 157.633 54.9344C157.098 47.932 154.602 44.5913 152.033 43.0335" fill="#BDC3C7"/>
<path d="M106.509 21.6446C106.509 22.3011 105.976 22.8335 105.32 22.8335C104.663 22.8335 104.131 22.3011 104.131 21.6446C104.131 20.988 104.663 20.4556 105.32 20.4556C105.976 20.4556 106.509 20.988 106.509 21.6446Z" fill="#2C3E50"/>
<path d="M111.933 26.4009C111.43 26.4014 110.982 26.0858 110.812 25.6128C110.642 25.1398 110.789 24.6111 111.177 24.2923C112.166 23.4226 113.087 22.4799 113.933 21.4724C114.211 21.1509 114.639 21.002 115.057 21.0825C115.474 21.1625 115.816 21.4587 115.956 21.8601C116.095 22.2615 116.009 22.7066 115.732 23.0281C114.798 24.1408 113.779 25.1793 112.683 26.1326C112.471 26.3062 112.206 26.4009 111.933 26.4009Z" fill="#7F8C8D"/>
<rect x="0.5" y="0.5" width="263" height="342" stroke="black"/>
</svg>
