<svg width="304" height="278" viewBox="0 0 304 278" fill="none" xmlns="http://www.w3.org/2000/svg">
<g filter="url(#filter0_d)">
<rect x="4" width="295.62" height="270" rx="5" fill="white"/>
</g>
<path d="M153.501 59.6282C150.814 59.6282 148.628 61.8138 148.628 64.5004C148.628 67.187 150.814 69.3727 153.501 69.3727C156.187 69.3727 158.373 67.187 158.373 64.5004C158.373 61.8138 156.187 59.6282 153.501 59.6282ZM153.501 67.314C151.949 67.314 150.687 66.0518 150.687 64.5004C150.687 62.9491 151.949 61.6869 153.501 61.6869C155.052 61.6869 156.314 62.9491 156.314 64.5004C156.314 66.0518 155.052 67.314 153.501 67.314Z" fill="#7EAEDB"/>
<path d="M165.874 52.1272C160.059 46.3124 151.272 45.4901 144.614 49.4234C142.54 47.6492 139.295 49.1145 139.295 51.8741C139.295 52.5125 139.483 53.1077 139.804 53.6091C135.136 59.4738 134.698 67.7476 138.855 74.081C138.443 74.6227 138.197 75.2979 138.197 76.0295C138.197 78.6398 141.139 80.144 143.251 78.6843C150.073 83.6136 159.672 83.0764 165.874 76.8745C172.713 70.036 172.713 58.9666 165.874 52.1272ZM142.521 50.7075C143.164 50.7075 143.687 51.2309 143.687 51.8741C143.687 52.5174 143.164 53.0407 142.521 53.0407C141.877 53.0407 141.354 52.5174 141.354 51.8741C141.354 51.2309 141.877 50.7075 142.521 50.7075ZM141.423 77.1961C140.779 77.1961 140.256 76.6728 140.256 76.0295C140.256 75.3862 140.779 74.8629 141.423 74.8629C142.066 74.8629 142.589 75.3862 142.589 76.0295C142.589 76.6728 142.066 77.1961 141.423 77.1961ZM153.5 79.941C150.217 79.941 147.118 78.9396 144.486 77.0378C145.295 74.5849 143.025 72.2345 140.557 72.9231C136.915 67.3448 137.303 60.0667 141.407 54.901C143.775 55.7752 146.214 53.6838 145.672 51.1892C155.821 45.2059 168.941 52.4861 168.941 64.5008C168.941 73.0146 162.014 79.941 153.5 79.941Z" fill="#7EAEDB"/>
<path d="M165.509 57.9127C165.509 55.5214 162.992 53.9718 160.866 55.0164C158.765 53.3831 156.179 52.4915 153.5 52.4915C146.878 52.4915 141.491 57.8787 141.491 64.5005C141.491 70.9129 146.542 76.1674 152.875 76.4935C153.426 77.4843 154.484 78.1565 155.696 78.1565C157.374 78.1565 158.757 76.867 158.907 75.2264C164.524 72.3937 166.925 65.7665 164.669 60.0815C165.19 59.5082 165.509 58.7469 165.509 57.9127ZM155.696 76.0978C155.052 76.0978 154.529 75.5745 154.529 74.9313C154.529 74.288 155.052 73.7647 155.696 73.7647C156.339 73.7647 156.862 74.288 156.862 74.9313C156.862 75.5745 156.339 76.0978 155.696 76.0978ZM158.393 73.1665C156.773 70.6982 152.99 71.5305 152.514 74.4021C147.489 73.9058 143.549 69.6547 143.549 64.5005C143.549 56.3215 152.887 51.6956 159.393 56.4833C158.229 58.8282 160.231 61.5527 162.849 61.0872C164.5 65.5953 162.679 70.746 158.393 73.1665ZM162.283 59.0793C161.64 59.0793 161.117 58.556 161.117 57.9127C161.117 57.2694 161.64 56.7461 162.283 56.7461C162.927 56.7461 163.45 57.2694 163.45 57.9127C163.45 58.556 162.927 59.0793 162.283 59.0793Z" fill="#7EAEDB"/>
<path d="M109.996 134.281C109.746 134.24 109.489 134.219 109.223 134.219C108.353 134.219 107.767 134.552 107.465 135.219V141H105.567V132.547H107.379L107.426 133.492C107.885 132.758 108.52 132.391 109.332 132.391C109.603 132.391 109.827 132.427 110.004 132.5L109.996 134.281ZM116.442 141.156C115.239 141.156 114.262 140.779 113.512 140.023C112.768 139.263 112.395 138.253 112.395 136.992V136.758C112.395 135.914 112.557 135.161 112.88 134.5C113.208 133.833 113.666 133.315 114.255 132.945C114.843 132.576 115.499 132.391 116.223 132.391C117.374 132.391 118.262 132.758 118.887 133.492C119.518 134.227 119.833 135.266 119.833 136.609V137.375H114.309C114.367 138.073 114.598 138.625 115.005 139.031C115.416 139.438 115.932 139.641 116.551 139.641C117.421 139.641 118.13 139.289 118.676 138.586L119.7 139.562C119.361 140.068 118.908 140.461 118.341 140.742C117.778 141.018 117.145 141.156 116.442 141.156ZM116.216 133.914C115.695 133.914 115.273 134.096 114.95 134.461C114.632 134.826 114.429 135.333 114.341 135.984H117.958V135.844C117.916 135.208 117.747 134.729 117.45 134.406C117.153 134.078 116.742 133.914 116.216 133.914ZM122.638 136.711C122.638 135.409 122.94 134.365 123.544 133.578C124.148 132.786 124.958 132.391 125.974 132.391C126.87 132.391 127.593 132.703 128.146 133.328V129H130.044V141H128.325L128.231 140.125C127.664 140.812 126.906 141.156 125.958 141.156C124.968 141.156 124.166 140.758 123.552 139.961C122.942 139.164 122.638 138.081 122.638 136.711ZM124.536 136.875C124.536 137.734 124.7 138.406 125.028 138.891C125.362 139.37 125.833 139.609 126.442 139.609C127.218 139.609 127.786 139.263 128.146 138.57V134.961C127.797 134.284 127.234 133.945 126.458 133.945C125.843 133.945 125.37 134.19 125.036 134.68C124.703 135.164 124.536 135.896 124.536 136.875ZM137.427 141.156C136.224 141.156 135.247 140.779 134.497 140.023C133.753 139.263 133.38 138.253 133.38 136.992V136.758C133.38 135.914 133.542 135.161 133.865 134.5C134.193 133.833 134.651 133.315 135.24 132.945C135.828 132.576 136.484 132.391 137.208 132.391C138.359 132.391 139.247 132.758 139.872 133.492C140.503 134.227 140.818 135.266 140.818 136.609V137.375H135.294C135.352 138.073 135.583 138.625 135.99 139.031C136.401 139.438 136.917 139.641 137.536 139.641C138.406 139.641 139.115 139.289 139.661 138.586L140.685 139.562C140.346 140.068 139.893 140.461 139.326 140.742C138.763 141.018 138.13 141.156 137.427 141.156ZM137.201 133.914C136.68 133.914 136.258 134.096 135.935 134.461C135.617 134.826 135.414 135.333 135.326 135.984H138.943V135.844C138.901 135.208 138.732 134.729 138.435 134.406C138.138 134.078 137.727 133.914 137.201 133.914ZM148.716 138.703C148.716 138.365 148.576 138.107 148.295 137.93C148.019 137.753 147.558 137.596 146.912 137.461C146.266 137.326 145.727 137.154 145.295 136.945C144.347 136.487 143.873 135.823 143.873 134.953C143.873 134.224 144.18 133.615 144.795 133.125C145.409 132.635 146.19 132.391 147.138 132.391C148.149 132.391 148.964 132.641 149.584 133.141C150.209 133.641 150.521 134.289 150.521 135.086H148.623C148.623 134.721 148.487 134.419 148.216 134.18C147.946 133.935 147.586 133.812 147.138 133.812C146.722 133.812 146.381 133.909 146.115 134.102C145.855 134.294 145.724 134.552 145.724 134.875C145.724 135.167 145.847 135.393 146.091 135.555C146.336 135.716 146.831 135.88 147.576 136.047C148.321 136.208 148.904 136.404 149.326 136.633C149.753 136.857 150.068 137.128 150.271 137.445C150.48 137.763 150.584 138.148 150.584 138.602C150.584 139.362 150.269 139.979 149.638 140.453C149.008 140.922 148.183 141.156 147.162 141.156C146.469 141.156 145.852 141.031 145.31 140.781C144.769 140.531 144.347 140.188 144.045 139.75C143.743 139.312 143.591 138.841 143.591 138.336H145.435C145.461 138.784 145.631 139.13 145.943 139.375C146.256 139.615 146.67 139.734 147.185 139.734C147.685 139.734 148.065 139.641 148.326 139.453C148.586 139.26 148.716 139.01 148.716 138.703ZM155.943 141H154.045V132.547H155.943V141ZM153.928 130.352C153.928 130.06 154.019 129.818 154.201 129.625C154.389 129.432 154.654 129.336 154.998 129.336C155.342 129.336 155.607 129.432 155.795 129.625C155.982 129.818 156.076 130.06 156.076 130.352C156.076 130.638 155.982 130.878 155.795 131.07C155.607 131.258 155.342 131.352 154.998 131.352C154.654 131.352 154.389 131.258 154.201 131.07C154.019 130.878 153.928 130.638 153.928 130.352ZM159.366 136.711C159.366 135.398 159.673 134.352 160.287 133.57C160.907 132.784 161.728 132.391 162.748 132.391C163.712 132.391 164.47 132.727 165.022 133.398L165.108 132.547H166.819V140.742C166.819 141.852 166.472 142.727 165.78 143.367C165.092 144.008 164.162 144.328 162.991 144.328C162.371 144.328 161.764 144.198 161.17 143.938C160.582 143.682 160.134 143.346 159.826 142.93L160.725 141.789C161.308 142.482 162.027 142.828 162.881 142.828C163.511 142.828 164.009 142.656 164.373 142.312C164.738 141.974 164.92 141.474 164.92 140.812V140.242C164.373 140.852 163.644 141.156 162.733 141.156C161.743 141.156 160.933 140.763 160.303 139.977C159.678 139.19 159.366 138.102 159.366 136.711ZM161.256 136.875C161.256 137.724 161.428 138.393 161.772 138.883C162.121 139.367 162.603 139.609 163.217 139.609C163.983 139.609 164.55 139.281 164.92 138.625V134.906C164.561 134.266 163.998 133.945 163.233 133.945C162.608 133.945 162.121 134.193 161.772 134.688C161.428 135.182 161.256 135.911 161.256 136.875ZM172.217 132.547L172.272 133.523C172.897 132.768 173.717 132.391 174.733 132.391C176.493 132.391 177.389 133.398 177.421 135.414V141H175.522V135.523C175.522 134.987 175.405 134.591 175.171 134.336C174.941 134.076 174.564 133.945 174.038 133.945C173.272 133.945 172.702 134.292 172.327 134.984V141H170.428V132.547H172.217ZM183.062 141H181.163V132.547H183.062V141ZM181.046 130.352C181.046 130.06 181.137 129.818 181.319 129.625C181.507 129.432 181.772 129.336 182.116 129.336C182.46 129.336 182.726 129.432 182.913 129.625C183.101 129.818 183.194 130.06 183.194 130.352C183.194 130.638 183.101 130.878 182.913 131.07C182.726 131.258 182.46 131.352 182.116 131.352C181.772 131.352 181.507 131.258 181.319 131.07C181.137 130.878 181.046 130.638 181.046 130.352ZM188.577 132.547L188.632 133.523C189.257 132.768 190.077 132.391 191.093 132.391C192.853 132.391 193.749 133.398 193.781 135.414V141H191.882V135.523C191.882 134.987 191.765 134.591 191.531 134.336C191.301 134.076 190.924 133.945 190.398 133.945C189.632 133.945 189.062 134.292 188.687 134.984V141H186.788V132.547H188.577ZM197.07 136.711C197.07 135.398 197.377 134.352 197.992 133.57C198.612 132.784 199.432 132.391 200.453 132.391C201.416 132.391 202.174 132.727 202.726 133.398L202.812 132.547H204.523V140.742C204.523 141.852 204.177 142.727 203.484 143.367C202.797 144.008 201.867 144.328 200.695 144.328C200.075 144.328 199.468 144.198 198.875 143.938C198.286 143.682 197.838 143.346 197.531 142.93L198.429 141.789C199.013 142.482 199.731 142.828 200.586 142.828C201.216 142.828 201.713 142.656 202.078 142.312C202.442 141.974 202.625 141.474 202.625 140.812V140.242C202.078 140.852 201.349 141.156 200.437 141.156C199.448 141.156 198.638 140.763 198.007 139.977C197.382 139.19 197.07 138.102 197.07 136.711ZM198.961 136.875C198.961 137.724 199.132 138.393 199.476 138.883C199.825 139.367 200.307 139.609 200.922 139.609C201.687 139.609 202.255 139.281 202.625 138.625V134.906C202.265 134.266 201.703 133.945 200.937 133.945C200.312 133.945 199.825 134.193 199.476 134.688C199.132 135.182 198.961 135.911 198.961 136.875Z" fill="#424242"/>
<path d="M116.699 174V161.203H121.084C122.532 161.203 123.633 161.493 124.389 162.073C125.145 162.653 125.523 163.518 125.523 164.666C125.523 165.252 125.365 165.779 125.048 166.248C124.732 166.717 124.269 167.08 123.659 167.338C124.351 167.525 124.884 167.88 125.259 168.401C125.64 168.917 125.83 169.538 125.83 170.265C125.83 171.466 125.444 172.389 124.67 173.033C123.903 173.678 122.801 174 121.366 174H116.699ZM118.922 168.226V172.225H121.392C122.089 172.225 122.634 172.052 123.027 171.706C123.419 171.36 123.616 170.88 123.616 170.265C123.616 168.935 122.936 168.255 121.576 168.226H118.922ZM118.922 166.591H121.102C121.793 166.591 122.332 166.436 122.719 166.125C123.112 165.809 123.308 165.363 123.308 164.789C123.308 164.156 123.126 163.699 122.763 163.418C122.406 163.137 121.846 162.996 121.084 162.996H118.922V166.591ZM149.787 167.936C149.787 169.189 149.57 170.291 149.136 171.24C148.703 172.184 148.082 172.91 147.273 173.42C146.47 173.924 145.545 174.176 144.496 174.176C143.459 174.176 142.533 173.924 141.719 173.42C140.91 172.91 140.283 172.187 139.838 171.249C139.398 170.312 139.176 169.23 139.17 168.006V167.285C139.17 166.037 139.389 164.936 139.829 163.98C140.274 163.025 140.898 162.296 141.701 161.792C142.51 161.282 143.435 161.027 144.478 161.027C145.521 161.027 146.444 161.279 147.247 161.783C148.055 162.281 148.679 163.002 149.119 163.945C149.558 164.883 149.781 165.976 149.787 167.224V167.936ZM147.563 167.268C147.563 165.85 147.294 164.763 146.755 164.007C146.221 163.251 145.463 162.873 144.478 162.873C143.517 162.873 142.764 163.251 142.219 164.007C141.68 164.757 141.405 165.82 141.393 167.197V167.936C141.393 169.342 141.666 170.429 142.211 171.196C142.761 171.964 143.523 172.348 144.496 172.348C145.48 172.348 146.236 171.973 146.763 171.223C147.297 170.473 147.563 169.377 147.563 167.936V167.268ZM165.745 172.225H171.555V174H163.522V161.203H165.745V172.225ZM192.216 162.996H188.225V174H186.019V162.996H182.064V161.203H192.216V162.996ZM95.0447 200V187.203H98.824C99.9549 187.203 100.957 187.455 101.83 187.959C102.709 188.463 103.388 189.178 103.869 190.104C104.349 191.029 104.59 192.09 104.59 193.285V193.927C104.59 195.14 104.346 196.206 103.86 197.126C103.38 198.046 102.691 198.755 101.795 199.253C100.904 199.751 99.8816 200 98.7273 200H95.0447ZM97.2684 188.996V198.225H98.7186C99.8846 198.225 100.778 197.861 101.399 197.135C102.026 196.402 102.346 195.354 102.357 193.988V193.276C102.357 191.888 102.055 190.827 101.452 190.095C100.848 189.362 99.9725 188.996 98.824 188.996H97.2684ZM125.804 194.287H120.548V198.225H126.692V200H118.324V187.203H126.63V188.996H120.548V192.529H125.804V194.287ZM146.711 196.704C146.711 196.142 146.511 195.708 146.113 195.403C145.72 195.099 145.009 194.791 143.977 194.48C142.946 194.17 142.126 193.824 141.516 193.443C140.35 192.711 139.767 191.756 139.767 190.578C139.767 189.547 140.186 188.697 141.024 188.029C141.868 187.361 142.961 187.027 144.302 187.027C145.193 187.027 145.987 187.191 146.684 187.52C147.382 187.848 147.929 188.316 148.328 188.926C148.726 189.529 148.926 190.2 148.926 190.938H146.711C146.711 190.271 146.5 189.749 146.078 189.374C145.662 188.993 145.064 188.803 144.285 188.803C143.558 188.803 142.993 188.958 142.589 189.269C142.19 189.579 141.991 190.013 141.991 190.569C141.991 191.038 142.208 191.431 142.641 191.747C143.075 192.058 143.79 192.362 144.786 192.661C145.782 192.954 146.582 193.291 147.185 193.672C147.789 194.047 148.231 194.48 148.512 194.973C148.794 195.459 148.934 196.03 148.934 196.687C148.934 197.753 148.524 198.603 147.704 199.235C146.889 199.862 145.782 200.176 144.382 200.176C143.456 200.176 142.603 200.006 141.824 199.666C141.051 199.32 140.447 198.846 140.013 198.242C139.586 197.639 139.372 196.936 139.372 196.133H141.595C141.595 196.859 141.836 197.422 142.316 197.82C142.797 198.219 143.485 198.418 144.382 198.418C145.155 198.418 145.735 198.263 146.122 197.952C146.514 197.636 146.711 197.22 146.711 196.704ZM164.752 200H162.537V187.203H164.752V200ZM188.814 198.339C188.351 198.942 187.71 199.399 186.889 199.71C186.069 200.021 185.137 200.176 184.094 200.176C183.022 200.176 182.073 199.933 181.247 199.446C180.421 198.96 179.782 198.266 179.331 197.363C178.885 196.455 178.654 195.397 178.636 194.19V193.188C178.636 191.255 179.099 189.746 180.025 188.662C180.951 187.572 182.243 187.027 183.901 187.027C185.325 187.027 186.456 187.379 187.294 188.082C188.132 188.785 188.635 189.799 188.805 191.123H186.626C186.38 189.582 185.486 188.812 183.945 188.812C182.949 188.812 182.19 189.172 181.669 189.893C181.153 190.607 180.886 191.659 180.869 193.048V194.032C180.869 195.415 181.159 196.49 181.739 197.258C182.325 198.02 183.136 198.4 184.174 198.4C185.31 198.4 186.119 198.143 186.599 197.627V195.122H183.963V193.435H188.814V198.339ZM212.929 200H210.705L205.001 190.921V200H202.778V187.203H205.001L210.723 196.317V187.203H212.929V200ZM98.4725 222.704C98.4725 222.142 98.2732 221.708 97.8748 221.403C97.4822 221.099 96.7703 220.791 95.7391 220.48C94.7078 220.17 93.8875 219.824 93.2781 219.443C92.1121 218.711 91.5291 217.756 91.5291 216.578C91.5291 215.547 91.948 214.697 92.7859 214.029C93.6297 213.361 94.7225 213.027 96.0643 213.027C96.9549 213.027 97.7488 213.191 98.4461 213.52C99.1434 213.848 99.6912 214.316 100.09 214.926C100.488 215.529 100.687 216.2 100.687 216.938H98.4725C98.4725 216.271 98.2615 215.749 97.8396 215.374C97.4236 214.993 96.826 214.803 96.0467 214.803C95.3201 214.803 94.7547 214.958 94.3504 215.269C93.952 215.579 93.7527 216.013 93.7527 216.569C93.7527 217.038 93.9695 217.431 94.4031 217.747C94.8367 218.058 95.5516 218.362 96.5477 218.661C97.5437 218.954 98.3436 219.291 98.9471 219.672C99.5506 220.047 99.993 220.48 100.274 220.973C100.555 221.459 100.696 222.03 100.696 222.687C100.696 223.753 100.286 224.603 99.4656 225.235C98.6512 225.862 97.5437 226.176 96.1434 226.176C95.2176 226.176 94.365 226.006 93.5857 225.666C92.8123 225.32 92.2088 224.846 91.7752 224.242C91.3475 223.639 91.1336 222.936 91.1336 222.133H93.3572C93.3572 222.859 93.5975 223.422 94.0779 223.82C94.5584 224.219 95.2469 224.418 96.1434 224.418C96.9168 224.418 97.4969 224.263 97.8836 223.952C98.2762 223.636 98.4725 223.22 98.4725 222.704ZM118.342 219.268L121.286 213.203H123.747L119.458 221.289V226H117.226V221.289L112.928 213.203H115.398L118.342 219.268ZM143.204 222.704C143.204 222.142 143.005 221.708 142.606 221.403C142.214 221.099 141.502 220.791 140.47 220.48C139.439 220.17 138.619 219.824 138.01 219.443C136.844 218.711 136.261 217.756 136.261 216.578C136.261 215.547 136.679 214.697 137.517 214.029C138.361 213.361 139.454 213.027 140.796 213.027C141.686 213.027 142.48 213.191 143.177 213.52C143.875 213.848 144.423 214.316 144.821 214.926C145.219 215.529 145.419 216.2 145.419 216.938H143.204C143.204 216.271 142.993 215.749 142.571 215.374C142.155 214.993 141.557 214.803 140.778 214.803C140.052 214.803 139.486 214.958 139.082 215.269C138.683 215.579 138.484 216.013 138.484 216.569C138.484 217.038 138.701 217.431 139.135 217.747C139.568 218.058 140.283 218.362 141.279 218.661C142.275 218.954 143.075 219.291 143.678 219.672C144.282 220.047 144.724 220.48 145.006 220.973C145.287 221.459 145.427 222.03 145.427 222.687C145.427 223.753 145.017 224.603 144.197 225.235C143.383 225.862 142.275 226.176 140.875 226.176C139.949 226.176 139.096 226.006 138.317 225.666C137.544 225.32 136.94 224.846 136.507 224.242C136.079 223.639 135.865 222.936 135.865 222.133H138.089C138.089 222.859 138.329 223.422 138.809 223.82C139.29 224.219 139.978 224.418 140.875 224.418C141.648 224.418 142.228 224.263 142.615 223.952C143.008 223.636 143.204 223.22 143.204 222.704ZM168.145 214.996H164.155V226H161.948V214.996H157.993V213.203H168.145V214.996ZM188.832 220.287H183.576V224.225H189.719V226H181.352V213.203H189.658V214.996H183.576V218.529H188.832V220.287ZM205.933 213.203L209.624 223.012L213.307 213.203H216.181V226H213.966V221.781L214.186 216.139L210.406 226H208.816L205.045 216.147L205.265 221.781V226H203.05V213.203H205.933Z" fill="#424242"/>
<path d="M116.463 112H114.241V102.758H116.463V112ZM126.576 112H124.36L121.085 106.249V112H118.857V102.758H121.085L124.354 108.509V102.758H126.576V112ZM135.895 104.478H133.121V112H130.893V104.478H128.17V102.758H135.895V104.478ZM143.418 108.083H139.914V110.286H144.052V112H137.686V102.758H144.065V104.478H139.914V106.427H143.418V108.083ZM149.239 108.737H148.033V112H145.805V102.758H149.442C150.538 102.758 151.395 103.001 152.013 103.488C152.631 103.974 152.94 104.662 152.94 105.551C152.94 106.194 152.809 106.727 152.546 107.15C152.288 107.574 151.882 107.916 151.327 108.179L153.257 111.905V112H150.87L149.239 108.737ZM148.033 107.017H149.442C149.865 107.017 150.183 106.907 150.394 106.687C150.61 106.463 150.718 106.152 150.718 105.754C150.718 105.356 150.61 105.045 150.394 104.821C150.179 104.592 149.861 104.478 149.442 104.478H148.033V107.017ZM162.849 112H160.634L157.359 106.249V112H155.131V102.758H157.359L160.628 108.509V102.758H162.849V112ZM169.871 109.543C169.871 109.218 169.754 108.964 169.521 108.782C169.293 108.6 168.889 108.411 168.309 108.217C167.729 108.022 167.255 107.834 166.887 107.652C165.69 107.064 165.091 106.255 165.091 105.227C165.091 104.715 165.239 104.264 165.535 103.875C165.836 103.481 166.259 103.177 166.805 102.961C167.351 102.741 167.964 102.631 168.645 102.631C169.31 102.631 169.904 102.749 170.429 102.986C170.958 103.223 171.369 103.562 171.661 104.002C171.953 104.438 172.099 104.937 172.099 105.5H169.877C169.877 105.123 169.76 104.831 169.528 104.624C169.299 104.417 168.988 104.313 168.595 104.313C168.197 104.313 167.882 104.402 167.649 104.58C167.42 104.753 167.306 104.975 167.306 105.246C167.306 105.483 167.433 105.699 167.687 105.894C167.941 106.084 168.387 106.283 169.026 106.49C169.665 106.693 170.19 106.913 170.601 107.15C171.599 107.726 172.099 108.519 172.099 109.531C172.099 110.339 171.794 110.974 171.184 111.435C170.575 111.896 169.739 112.127 168.677 112.127C167.928 112.127 167.249 111.994 166.64 111.727C166.034 111.456 165.577 111.088 165.268 110.623C164.964 110.153 164.811 109.613 164.811 109.004H167.046C167.046 109.499 167.173 109.865 167.427 110.102C167.685 110.335 168.102 110.451 168.677 110.451C169.045 110.451 169.335 110.373 169.547 110.216C169.763 110.056 169.871 109.831 169.871 109.543ZM181.811 112H179.596V108.141H176.314V112H174.086V102.758H176.314V106.427H179.596V102.758H181.811V112ZM186.446 112H184.224V102.758H186.446V112ZM191.068 108.864V112H188.84V102.758H192.528C193.234 102.758 193.858 102.889 194.4 103.151C194.946 103.41 195.367 103.78 195.663 104.262C195.964 104.74 196.114 105.284 196.114 105.894C196.114 106.795 195.79 107.516 195.143 108.058C194.5 108.596 193.615 108.864 192.49 108.864H191.068ZM191.068 107.144H192.528C192.959 107.144 193.287 107.036 193.511 106.82C193.74 106.604 193.854 106.3 193.854 105.906C193.854 105.475 193.738 105.13 193.505 104.872C193.272 104.613 192.955 104.482 192.553 104.478H191.068V107.144Z" fill="#424242"/>
<defs>
<filter id="filter0_d" x="0" y="0" width="303.62" height="278" filterUnits="userSpaceOnUse" color-interpolation-filters="sRGB">
<feFlood flood-opacity="0" result="BackgroundImageFix"/>
<feColorMatrix in="SourceAlpha" type="matrix" values="0 0 0 0 0 0 0 0 0 0 0 0 0 0 0 0 0 0 127 0"/>
<feOffset dy="4"/>
<feGaussianBlur stdDeviation="2"/>
<feColorMatrix type="matrix" values="0 0 0 0 0 0 0 0 0 0 0 0 0 0 0 0 0 0 0.25 0"/>
<feBlend mode="normal" in2="BackgroundImageFix" result="effect1_dropShadow"/>
<feBlend mode="normal" in="SourceGraphic" in2="effect1_dropShadow" result="shape"/>
</filter>
</defs>
</svg>
