<svg width="1443" height="1376" viewBox="0 0 1443 1376" fill="none" xmlns="http://www.w3.org/2000/svg">
<rect x="1" width="1440" height="1376" fill="#8A1616"/>
<path d="M1440.98 145.973C1440.98 145.973 1423.48 192.126 1403.98 224.862C1384.48 257.598 1343.48 286.041 1323.48 289.798C1303.48 293.555 1260.98 213.592 1242.98 320.388C1224.98 427.183 1200.98 371.907 1172.48 372.444C1143.98 372.98 1066.48 388.544 1127.48 403.034C1188.48 417.523 1110.98 412.693 1093.98 450.26C1076.98 487.826 1063.98 570.472 1063.98 570.472C1063.98 570.472 1038.48 619.308 971.477 619.308C904.476 619.308 889.977 579.595 878.977 547.395C867.977 515.196 889.977 439.526 914.477 417.523C938.977 395.52 987.477 275.845 959.477 257.598C931.477 239.352 886.977 300.531 848.977 300.531C810.977 300.531 776.977 388.544 729.977 403.034C682.977 417.523 683.977 529.149 712.977 559.739C741.977 590.328 725.477 707.321 712.977 732.544C700.477 757.767 653.477 770.647 632.477 757.767C611.477 744.887 669.977 678.878 682.977 619.308C695.977 559.739 581.977 532.906 597.477 509.292C612.977 485.679 529.477 372.98 466.476 466.36C403.476 559.739 507.977 700.344 524.977 590.328C541.977 480.313 562.477 476.556 597.477 477.093C632.477 477.629 624.477 327.364 597.477 320.388C570.477 313.411 552.477 363.857 550.477 417.523C548.477 471.19 567.977 758.303 481.476 700.344C394.976 642.385 472.476 300.531 420.976 300.531C369.477 300.531 338.977 391.227 340.476 450.26C341.976 509.292 381.976 757.767 420.976 757.767C459.977 757.767 438.476 559.739 409.476 547.395C380.477 535.052 253.976 732.544 288.476 757.767C322.977 782.99 366.976 732.544 374.476 700.344C381.977 668.144 352.976 570.472 322.476 559.739C291.977 549.005 293.976 552.225 231.976 570.472C169.976 588.718 271.976 748.644 231.976 732.544C191.976 716.444 137.476 655.264 130.977 590.328C124.477 525.392 209.977 466.36 244.977 487.826C279.977 509.292 278.477 598.378 288.476 604.818C298.476 611.258 288.477 642.385 244.977 678.878C201.477 715.371 166.477 604.818 166.477 604.818C166.477 604.818 214.977 363.857 244.977 363.857C274.977 363.857 340.476 487.826 322.476 523.782C304.476 559.739 241.977 524.319 209.977 547.395C177.977 570.472 163.002 752.4 119.502 789.966C76.0017 827.533 30.3329 725.03 36.9766 642.385C43.6203 559.739 234.477 423.427 177.977 450.26C121.476 477.093 169.476 300.531 231.976 320.388C294.476 340.244 106.477 376.2 87.4765 432.013C68.4763 487.826 104.477 521.636 103.977 570.472C103.476 619.308 102.001 922.522 61.0017 915.545C20.0019 908.569 71.9766 344.001 36.9766 320.388C1.97659 296.775 36.9766 915.545 36.9776 989.068C36.9786 1062.59 4.5 1080.3 4.5 1080.3" stroke="#04152A" stroke-width="2.5"/>
<path d="M1 258.009C1 258.009 27.0185 392.427 82.5579 377.796C138.097 363.164 120.585 100.732 214.652 251.609C308.719 402.485 240.17 554.274 313.222 611.881C386.274 669.488 469.333 751.327 532.377 697.377C595.422 643.428 219.655 258.468 334.237 251.609C448.818 244.749 539.883 294.127 570.905 339.391C601.927 384.655 595.422 419.399 617.438 476.55C639.453 533.701 715 561.5 715 561.5" stroke="#04152A" stroke-width="2"/>
<path d="M1 935.772C1 935.772 27 788.771 82.5 804.772C138 820.773 120.5 1107.77 214.5 942.772C308.5 777.771 240 611.772 313 548.772C386 485.772 469 396.272 532 455.272C595 514.272 219.5 935.271 334 942.772C448.5 950.273 539.5 896.273 570.5 846.772C601.5 797.271 595 759.273 617 696.772C639 634.271 700.5 434 700.5 434" stroke="#04152A" stroke-width="2"/>
</svg>
