<svg width="304" height="278" viewBox="0 0 304 278" fill="none" xmlns="http://www.w3.org/2000/svg">
<g filter="url(#filter0_d)">
<rect x="4" width="295.62" height="270" rx="5" fill="white"/>
</g>
<path d="M154.898 56.6769C153.777 56.6769 153.353 58.0823 153.335 58.1416C153.208 58.5809 152.804 58.8855 152.348 58.8855H152.34C151.88 58.8825 151.478 58.5779 151.356 58.1346C151.34 58.0824 150.916 56.6769 149.794 56.6769C148.793 56.6769 148.271 57.5535 148.271 58.419C148.271 59.6475 149.38 60.6388 151.691 62.5889C151.902 62.7678 152.121 62.9528 152.346 63.1438C152.567 62.9558 152.782 62.7749 152.991 62.599C155.109 60.806 156.421 59.7038 156.421 58.419C156.422 57.5535 155.899 56.6769 154.898 56.6769ZM152.346 47C145.538 47 140 52.5411 140 59.3529C140 67.8676 151.088 81.0771 151.561 81.6351C151.755 81.8663 152.043 82 152.346 82C152.65 82 152.937 81.8663 153.132 81.6351C153.604 81.0771 164.693 67.8676 164.693 59.3529C164.693 52.5411 159.155 47 152.346 47ZM154.318 64.1723C153.91 64.517 153.476 64.883 153.02 65.2781C152.827 65.4459 152.586 65.5294 152.346 65.5294C152.105 65.5294 151.866 65.4459 151.673 65.2781C151.213 64.88 150.775 64.5101 150.363 64.1623C147.954 62.1286 146.213 60.6579 146.213 58.419C146.213 56.2879 147.787 54.6181 149.794 54.6181C150.926 54.6181 151.761 55.1347 152.346 55.7842C152.931 55.1347 153.767 54.6181 154.898 54.6181C156.906 54.6181 158.479 56.2879 158.479 58.419C158.479 60.7432 156.565 62.2747 154.318 64.1723Z" fill="url(#paint0_linear)"/>
<path d="M100.055 136.711C100.055 135.398 100.362 134.352 100.977 133.57C101.597 132.784 102.417 132.391 103.438 132.391C104.401 132.391 105.159 132.727 105.711 133.398L105.797 132.547H107.508V140.742C107.508 141.852 107.162 142.727 106.469 143.367C105.782 144.008 104.852 144.328 103.68 144.328C103.06 144.328 102.453 144.198 101.86 143.938C101.271 143.682 100.823 143.346 100.516 142.93L101.414 141.789C101.998 142.482 102.716 142.828 103.571 142.828C104.201 142.828 104.698 142.656 105.063 142.312C105.427 141.974 105.61 141.474 105.61 140.812V140.242C105.063 140.852 104.334 141.156 103.422 141.156C102.433 141.156 101.623 140.763 100.992 139.977C100.367 139.19 100.055 138.102 100.055 136.711ZM101.946 136.875C101.946 137.724 102.117 138.393 102.461 138.883C102.81 139.367 103.292 139.609 103.907 139.609C104.672 139.609 105.24 139.281 105.61 138.625V134.906C105.25 134.266 104.688 133.945 103.922 133.945C103.297 133.945 102.81 134.193 102.461 134.688C102.117 135.182 101.946 135.911 101.946 136.875ZM113.165 141H111.266V132.547H113.165V141ZM111.149 130.352C111.149 130.06 111.24 129.818 111.422 129.625C111.61 129.432 111.876 129.336 112.219 129.336C112.563 129.336 112.829 129.432 113.016 129.625C113.204 129.818 113.297 130.06 113.297 130.352C113.297 130.638 113.204 130.878 113.016 131.07C112.829 131.258 112.563 131.352 112.219 131.352C111.876 131.352 111.61 131.258 111.422 131.07C111.24 130.878 111.149 130.638 111.149 130.352ZM119.899 138.594L121.688 132.547H123.649L120.72 141H119.071L116.118 132.547H118.087L119.899 138.594ZM128.54 141H126.642V132.547H128.54V141ZM126.525 130.352C126.525 130.06 126.616 129.818 126.798 129.625C126.986 129.432 127.251 129.336 127.595 129.336C127.939 129.336 128.204 129.432 128.392 129.625C128.579 129.818 128.673 130.06 128.673 130.352C128.673 130.638 128.579 130.878 128.392 131.07C128.204 131.258 127.939 131.352 127.595 131.352C127.251 131.352 126.986 131.258 126.798 131.07C126.616 130.878 126.525 130.638 126.525 130.352ZM134.056 132.547L134.111 133.523C134.736 132.768 135.556 132.391 136.572 132.391C138.332 132.391 139.228 133.398 139.259 135.414V141H137.361V135.523C137.361 134.987 137.244 134.591 137.009 134.336C136.78 134.076 136.403 133.945 135.877 133.945C135.111 133.945 134.541 134.292 134.166 134.984V141H132.267V132.547H134.056ZM142.549 136.711C142.549 135.398 142.856 134.352 143.471 133.57C144.09 132.784 144.911 132.391 145.932 132.391C146.895 132.391 147.653 132.727 148.205 133.398L148.291 132.547H150.002V140.742C150.002 141.852 149.655 142.727 148.963 143.367C148.275 144.008 147.346 144.328 146.174 144.328C145.554 144.328 144.947 144.198 144.353 143.938C143.765 143.682 143.317 143.346 143.01 142.93L143.908 141.789C144.491 142.482 145.21 142.828 146.064 142.828C146.695 142.828 147.192 142.656 147.557 142.312C147.921 141.974 148.103 141.474 148.103 140.812V140.242C147.557 140.852 146.827 141.156 145.916 141.156C144.926 141.156 144.116 140.763 143.486 139.977C142.861 139.19 142.549 138.102 142.549 136.711ZM144.439 136.875C144.439 137.724 144.611 138.393 144.955 138.883C145.304 139.367 145.786 139.609 146.4 139.609C147.166 139.609 147.734 139.281 148.103 138.625V134.906C147.744 134.266 147.182 133.945 146.416 133.945C145.791 133.945 145.304 134.193 144.955 134.688C144.611 135.182 144.439 135.911 144.439 136.875ZM164.424 140.172C163.867 140.828 163.075 141.156 162.049 141.156C161.133 141.156 160.437 140.888 159.963 140.352C159.495 139.815 159.26 139.039 159.26 138.023V132.547H161.159V138C161.159 139.073 161.604 139.609 162.495 139.609C163.417 139.609 164.039 139.279 164.362 138.617V132.547H166.26V141H164.471L164.424 140.172ZM174.612 138.703C174.612 138.365 174.472 138.107 174.19 137.93C173.914 137.753 173.453 137.596 172.807 137.461C172.162 137.326 171.623 137.154 171.19 136.945C170.242 136.487 169.768 135.823 169.768 134.953C169.768 134.224 170.076 133.615 170.69 133.125C171.305 132.635 172.086 132.391 173.034 132.391C174.044 132.391 174.86 132.641 175.479 133.141C176.104 133.641 176.417 134.289 176.417 135.086H174.518C174.518 134.721 174.383 134.419 174.112 134.18C173.841 133.935 173.482 133.812 173.034 133.812C172.617 133.812 172.276 133.909 172.011 134.102C171.75 134.294 171.62 134.552 171.62 134.875C171.62 135.167 171.742 135.393 171.987 135.555C172.232 135.716 172.727 135.88 173.472 136.047C174.216 136.208 174.8 136.404 175.222 136.633C175.649 136.857 175.964 137.128 176.167 137.445C176.375 137.763 176.479 138.148 176.479 138.602C176.479 139.362 176.164 139.979 175.534 140.453C174.904 140.922 174.078 141.156 173.057 141.156C172.365 141.156 171.748 141.031 171.206 140.781C170.664 140.531 170.242 140.188 169.94 139.75C169.638 139.312 169.487 138.841 169.487 138.336H171.331C171.357 138.784 171.526 139.13 171.839 139.375C172.151 139.615 172.565 139.734 173.081 139.734C173.581 139.734 173.961 139.641 174.222 139.453C174.482 139.26 174.612 139.01 174.612 138.703ZM183.542 141.156C182.339 141.156 181.362 140.779 180.612 140.023C179.868 139.263 179.495 138.253 179.495 136.992V136.758C179.495 135.914 179.657 135.161 179.98 134.5C180.308 133.833 180.766 133.315 181.355 132.945C181.943 132.576 182.599 132.391 183.323 132.391C184.474 132.391 185.362 132.758 185.987 133.492C186.618 134.227 186.933 135.266 186.933 136.609V137.375H181.409C181.467 138.073 181.698 138.625 182.105 139.031C182.516 139.438 183.032 139.641 183.652 139.641C184.521 139.641 185.23 139.289 185.777 138.586L186.8 139.562C186.461 140.068 186.008 140.461 185.441 140.742C184.878 141.018 184.245 141.156 183.542 141.156ZM183.316 133.914C182.795 133.914 182.373 134.096 182.05 134.461C181.732 134.826 181.529 135.333 181.441 135.984H185.058V135.844C185.016 135.208 184.847 134.729 184.55 134.406C184.253 134.078 183.842 133.914 183.316 133.914ZM194.519 134.281C194.269 134.24 194.011 134.219 193.746 134.219C192.876 134.219 192.29 134.552 191.988 135.219V141H190.089V132.547H191.902L191.949 133.492C192.407 132.758 193.042 132.391 193.855 132.391C194.126 132.391 194.35 132.427 194.527 132.5L194.519 134.281ZM202.136 138.703C202.136 138.365 201.996 138.107 201.715 137.93C201.439 137.753 200.978 137.596 200.332 137.461C199.686 137.326 199.147 137.154 198.715 136.945C197.767 136.487 197.293 135.823 197.293 134.953C197.293 134.224 197.6 133.615 198.215 133.125C198.829 132.635 199.61 132.391 200.558 132.391C201.569 132.391 202.384 132.641 203.004 133.141C203.629 133.641 203.941 134.289 203.941 135.086H202.043C202.043 134.721 201.907 134.419 201.636 134.18C201.366 133.935 201.006 133.812 200.558 133.812C200.142 133.812 199.801 133.909 199.535 134.102C199.275 134.294 199.144 134.552 199.144 134.875C199.144 135.167 199.267 135.393 199.511 135.555C199.756 135.716 200.251 135.88 200.996 136.047C201.741 136.208 202.324 136.404 202.746 136.633C203.173 136.857 203.488 137.128 203.691 137.445C203.9 137.763 204.004 138.148 204.004 138.602C204.004 139.362 203.689 139.979 203.058 140.453C202.428 140.922 201.603 141.156 200.582 141.156C199.889 141.156 199.272 141.031 198.73 140.781C198.189 140.531 197.767 140.188 197.465 139.75C197.163 139.312 197.011 138.841 197.011 138.336H198.855C198.881 138.784 199.051 139.13 199.363 139.375C199.676 139.615 200.09 139.734 200.605 139.734C201.105 139.734 201.485 139.641 201.746 139.453C202.006 139.26 202.136 139.01 202.136 138.703Z" fill="#424242"/>
<path d="M91.9373 181V168.203H96.323C97.7703 168.203 98.8719 168.493 99.6277 169.073C100.384 169.653 100.762 170.518 100.762 171.666C100.762 172.252 100.603 172.779 100.287 173.248C99.9705 173.717 99.5076 174.08 98.8982 174.338C99.5896 174.525 100.123 174.88 100.498 175.401C100.879 175.917 101.069 176.538 101.069 177.265C101.069 178.466 100.682 179.389 99.909 180.033C99.1414 180.678 98.0398 181 96.6043 181H91.9373ZM94.1609 175.226V179.225H96.6307C97.3279 179.225 97.8728 179.052 98.2654 178.706C98.658 178.36 98.8543 177.88 98.8543 177.265C98.8543 175.935 98.1746 175.255 96.8152 175.226H94.1609ZM94.1609 173.591H96.3406C97.032 173.591 97.5711 173.436 97.9578 173.125C98.3504 172.809 98.5467 172.363 98.5467 171.789C98.5467 171.156 98.365 170.699 98.0018 170.418C97.6443 170.137 97.0848 169.996 96.323 169.996H94.1609V173.591ZM122.292 175.287H117.036V179.225H123.18V181H114.813V168.203H123.118V169.996H117.036V173.529H122.292V175.287ZM145.932 169.996H141.942V181H139.736V169.996H135.781V168.203H145.932V169.996ZM168.527 169.996H164.536V181H162.33V169.996H158.375V168.203H168.527V169.996ZM189.214 175.287H183.958V179.225H190.101V181H181.734V168.203H190.04V169.996H183.958V173.529H189.214V175.287ZM208.134 176.069H205.655V181H203.432V168.203H207.932C209.408 168.203 210.548 168.534 211.351 169.196C212.154 169.858 212.555 170.816 212.555 172.07C212.555 172.926 212.347 173.644 211.931 174.224C211.521 174.798 210.946 175.24 210.208 175.551L213.082 180.886V181H210.7L208.134 176.069ZM205.655 174.285H207.941C208.691 174.285 209.277 174.098 209.698 173.723C210.12 173.342 210.331 172.823 210.331 172.167C210.331 171.481 210.135 170.951 209.742 170.576C209.356 170.201 208.776 170.008 208.002 169.996H205.655V174.285ZM91.0728 202.834C90.9439 204.199 90.44 205.266 89.5611 206.033C88.6822 206.795 87.5132 207.176 86.0543 207.176C85.0347 207.176 84.1353 206.936 83.356 206.455C82.5826 205.969 81.9849 205.28 81.563 204.39C81.1412 203.499 80.9214 202.465 80.9039 201.287V200.092C80.9039 198.885 81.1177 197.821 81.5455 196.901C81.9732 195.981 82.5855 195.272 83.3824 194.774C84.1851 194.276 85.1109 194.027 86.1597 194.027C87.5718 194.027 88.7086 194.411 89.5699 195.179C90.4312 195.946 90.9322 197.03 91.0728 198.431H88.858C88.7525 197.511 88.483 196.849 88.0494 196.444C87.6216 196.034 86.9918 195.829 86.1597 195.829C85.1929 195.829 84.4488 196.184 83.9273 196.893C83.4117 197.596 83.148 198.63 83.1363 199.995V201.129C83.1363 202.512 83.3824 203.566 83.8746 204.293C84.3726 205.02 85.0992 205.383 86.0543 205.383C86.9273 205.383 87.5836 205.187 88.023 204.794C88.4625 204.401 88.7408 203.748 88.858 202.834H91.0728ZM114.748 207H112.533V201.313H106.812V207H104.588V194.203H106.812V199.529H112.533V194.203H114.748V207ZM139.118 200.936C139.118 202.189 138.901 203.291 138.467 204.24C138.034 205.184 137.413 205.91 136.604 206.42C135.801 206.924 134.876 207.176 133.827 207.176C132.79 207.176 131.864 206.924 131.049 206.42C130.241 205.91 129.614 205.187 129.168 204.249C128.729 203.312 128.506 202.23 128.501 201.006V200.285C128.501 199.037 128.72 197.936 129.16 196.98C129.605 196.025 130.229 195.296 131.032 194.792C131.84 194.282 132.766 194.027 133.809 194.027C134.852 194.027 135.775 194.279 136.578 194.783C137.386 195.281 138.01 196.002 138.45 196.945C138.889 197.883 139.112 198.976 139.118 200.224V200.936ZM136.894 200.268C136.894 198.85 136.625 197.763 136.085 197.007C135.552 196.251 134.793 195.873 133.809 195.873C132.848 195.873 132.095 196.251 131.55 197.007C131.011 197.757 130.736 198.82 130.724 200.197V200.936C130.724 202.342 130.997 203.429 131.542 204.196C132.092 204.964 132.854 205.348 133.827 205.348C134.811 205.348 135.567 204.973 136.094 204.223C136.627 203.473 136.894 202.377 136.894 200.936V200.268ZM155.199 207H152.984V194.203H155.199V207ZM179.217 202.834C179.088 204.199 178.584 205.266 177.706 206.033C176.827 206.795 175.658 207.176 174.199 207.176C173.179 207.176 172.28 206.936 171.5 206.455C170.727 205.969 170.129 205.28 169.708 204.39C169.286 203.499 169.066 202.465 169.048 201.287V200.092C169.048 198.885 169.262 197.821 169.69 196.901C170.118 195.981 170.73 195.272 171.527 194.774C172.33 194.276 173.255 194.027 174.304 194.027C175.716 194.027 176.853 194.411 177.714 195.179C178.576 195.946 179.077 197.03 179.217 198.431H177.002C176.897 197.511 176.627 196.849 176.194 196.444C175.766 196.034 175.136 195.829 174.304 195.829C173.337 195.829 172.593 196.184 172.072 196.893C171.556 197.596 171.292 198.63 171.281 199.995V201.129C171.281 202.512 171.527 203.566 172.019 204.293C172.517 205.02 173.244 205.383 174.199 205.383C175.072 205.383 175.728 205.187 176.167 204.794C176.607 204.401 176.885 203.748 177.002 202.834H179.217ZM200.212 201.287H194.956V205.225H201.1V207H192.732V194.203H201.038V195.996H194.956V199.529H200.212V201.287ZM221.119 203.704C221.119 203.142 220.919 202.708 220.521 202.403C220.128 202.099 219.416 201.791 218.385 201.48C217.354 201.17 216.534 200.824 215.924 200.443C214.758 199.711 214.175 198.756 214.175 197.578C214.175 196.547 214.594 195.697 215.432 195.029C216.276 194.361 217.369 194.027 218.71 194.027C219.601 194.027 220.395 194.191 221.092 194.52C221.789 194.848 222.337 195.316 222.736 195.926C223.134 196.529 223.333 197.2 223.333 197.938H221.119C221.119 197.271 220.908 196.749 220.486 196.374C220.07 195.993 219.472 195.803 218.693 195.803C217.966 195.803 217.401 195.958 216.997 196.269C216.598 196.579 216.399 197.013 216.399 197.569C216.399 198.038 216.616 198.431 217.049 198.747C217.483 199.058 218.198 199.362 219.194 199.661C220.19 199.954 220.99 200.291 221.593 200.672C222.197 201.047 222.639 201.48 222.92 201.973C223.202 202.459 223.342 203.03 223.342 203.687C223.342 204.753 222.932 205.603 222.112 206.235C221.297 206.862 220.19 207.176 218.789 207.176C217.864 207.176 217.011 207.006 216.232 206.666C215.458 206.32 214.855 205.846 214.421 205.242C213.994 204.639 213.78 203.936 213.78 203.133H216.003C216.003 203.859 216.244 204.422 216.724 204.82C217.205 205.219 217.893 205.418 218.789 205.418C219.563 205.418 220.143 205.263 220.53 204.952C220.922 204.636 221.119 204.22 221.119 203.704Z" fill="#424242"/>
<path d="M92.1158 108.864V112H89.8877V102.758H93.5757C94.2824 102.758 94.9066 102.889 95.4483 103.151C95.9942 103.41 96.4152 103.78 96.7115 104.262C97.0119 104.74 97.1621 105.284 97.1621 105.894C97.1621 106.795 96.8384 107.516 96.191 108.058C95.5477 108.596 94.6633 108.864 93.5376 108.864H92.1158ZM92.1158 107.144H93.5757C94.0074 107.144 94.3353 107.036 94.5596 106.82C94.7881 106.604 94.9024 106.3 94.9024 105.906C94.9024 105.475 94.786 105.13 94.5533 104.872C94.3205 104.613 94.0031 104.482 93.6011 104.478H92.1158V107.144ZM103.32 110.273H100.267L99.7337 112H97.3533L100.743 102.758H102.838L106.253 112H103.86L103.32 110.273ZM100.8 108.553H102.787L101.79 105.348L100.8 108.553ZM112.544 109.543C112.544 109.218 112.428 108.964 112.195 108.782C111.966 108.6 111.562 108.411 110.983 108.217C110.403 108.022 109.929 107.834 109.561 107.652C108.363 107.064 107.764 106.255 107.764 105.227C107.764 104.715 107.912 104.264 108.209 103.875C108.509 103.481 108.932 103.177 109.478 102.961C110.024 102.741 110.638 102.631 111.319 102.631C111.983 102.631 112.578 102.749 113.103 102.986C113.632 103.223 114.042 103.562 114.334 104.002C114.626 104.438 114.772 104.937 114.772 105.5H112.55C112.55 105.123 112.434 104.831 112.201 104.624C111.973 104.417 111.662 104.313 111.268 104.313C110.87 104.313 110.555 104.402 110.322 104.58C110.094 104.753 109.98 104.975 109.98 105.246C109.98 105.483 110.107 105.699 110.36 105.894C110.614 106.084 111.061 106.283 111.7 106.49C112.339 106.693 112.864 106.913 113.274 107.15C114.273 107.726 114.772 108.519 114.772 109.531C114.772 110.339 114.467 110.974 113.858 111.435C113.249 111.896 112.413 112.127 111.351 112.127C110.602 112.127 109.922 111.994 109.313 111.727C108.708 111.456 108.251 111.088 107.942 110.623C107.637 110.153 107.485 109.613 107.485 109.004H109.719C109.719 109.499 109.846 109.865 110.1 110.102C110.358 110.335 110.775 110.451 111.351 110.451C111.719 110.451 112.009 110.373 112.22 110.216C112.436 110.056 112.544 109.831 112.544 109.543ZM121.527 109.543C121.527 109.218 121.41 108.964 121.178 108.782C120.949 108.6 120.545 108.411 119.965 108.217C119.385 108.022 118.912 107.834 118.543 107.652C117.346 107.064 116.747 106.255 116.747 105.227C116.747 104.715 116.895 104.264 117.191 103.875C117.492 103.481 117.915 103.177 118.461 102.961C119.007 102.741 119.62 102.631 120.302 102.631C120.966 102.631 121.561 102.749 122.085 102.986C122.614 103.223 123.025 103.562 123.317 104.002C123.609 104.438 123.755 104.937 123.755 105.5H121.533C121.533 105.123 121.417 104.831 121.184 104.624C120.955 104.417 120.644 104.313 120.251 104.313C119.853 104.313 119.538 104.402 119.305 104.58C119.077 104.753 118.962 104.975 118.962 105.246C118.962 105.483 119.089 105.699 119.343 105.894C119.597 106.084 120.044 106.283 120.682 106.49C121.321 106.693 121.846 106.913 122.257 107.15C123.255 107.726 123.755 108.519 123.755 109.531C123.755 110.339 123.45 110.974 122.841 111.435C122.231 111.896 121.396 112.127 120.333 112.127C119.584 112.127 118.905 111.994 118.296 111.727C117.691 111.456 117.234 111.088 116.925 110.623C116.62 110.153 116.468 109.613 116.468 109.004H118.702C118.702 109.499 118.829 109.865 119.083 110.102C119.341 110.335 119.758 110.451 120.333 110.451C120.702 110.451 120.991 110.373 121.203 110.216C121.419 110.056 121.527 109.831 121.527 109.543ZM128.116 112H125.895V102.758H128.116V112ZM138.337 107.569C138.337 108.471 138.17 109.268 137.835 109.962C137.501 110.656 137.025 111.192 136.407 111.568C135.794 111.941 135.093 112.127 134.306 112.127C133.519 112.127 132.821 111.947 132.211 111.587C131.602 111.223 131.126 110.705 130.783 110.032C130.445 109.359 130.267 108.587 130.25 107.715V107.195C130.25 106.289 130.415 105.492 130.745 104.802C131.079 104.108 131.555 103.572 132.173 103.196C132.795 102.819 133.502 102.631 134.293 102.631C135.076 102.631 135.775 102.817 136.388 103.189C137.002 103.562 137.478 104.093 137.816 104.783C138.159 105.468 138.333 106.255 138.337 107.144V107.569ZM136.071 107.182C136.071 106.264 135.916 105.568 135.607 105.094C135.303 104.616 134.865 104.376 134.293 104.376C133.176 104.376 132.586 105.214 132.522 106.89L132.516 107.569C132.516 108.475 132.666 109.171 132.967 109.658C133.267 110.144 133.714 110.388 134.306 110.388C134.869 110.388 135.303 110.149 135.607 109.67C135.912 109.192 136.067 108.505 136.071 107.607V107.182ZM148.05 112H145.834L142.559 106.249V112H140.331V102.758H142.559L145.828 108.509V102.758H148.05V112ZM156.614 108.864V112H154.386V102.758H158.074C158.781 102.758 159.405 102.889 159.947 103.151C160.492 103.41 160.914 103.78 161.21 104.262C161.51 104.74 161.66 105.284 161.66 105.894C161.66 106.795 161.337 107.516 160.689 108.058C160.046 108.596 159.162 108.864 158.036 108.864H156.614ZM156.614 107.144H158.074C158.506 107.144 158.834 107.036 159.058 106.82C159.286 106.604 159.401 106.3 159.401 105.906C159.401 105.475 159.284 105.13 159.052 104.872C158.819 104.613 158.501 104.482 158.099 104.478H156.614V107.144ZM167.133 108.737H165.927V112H163.699V102.758H167.336C168.432 102.758 169.289 103.001 169.907 103.488C170.525 103.974 170.834 104.662 170.834 105.551C170.834 106.194 170.702 106.727 170.44 107.15C170.182 107.574 169.776 107.916 169.221 108.179L171.151 111.905V112H168.764L167.133 108.737ZM165.927 107.017H167.336C167.759 107.017 168.077 106.907 168.288 106.687C168.504 106.463 168.612 106.152 168.612 105.754C168.612 105.356 168.504 105.045 168.288 104.821C168.072 104.592 167.755 104.478 167.336 104.478H165.927V107.017ZM180.851 107.569C180.851 108.471 180.684 109.268 180.349 109.962C180.015 110.656 179.539 111.192 178.921 111.568C178.308 111.941 177.607 112.127 176.82 112.127C176.033 112.127 175.335 111.947 174.725 111.587C174.116 111.223 173.64 110.705 173.297 110.032C172.959 109.359 172.781 108.587 172.764 107.715V107.195C172.764 106.289 172.929 105.492 173.259 104.802C173.593 104.108 174.07 103.572 174.687 103.196C175.309 102.819 176.016 102.631 176.807 102.631C177.59 102.631 178.289 102.817 178.902 103.189C179.516 103.562 179.992 104.093 180.33 104.783C180.673 105.468 180.847 106.255 180.851 107.144V107.569ZM178.585 107.182C178.585 106.264 178.43 105.568 178.121 105.094C177.817 104.616 177.379 104.376 176.807 104.376C175.69 104.376 175.1 105.214 175.036 106.89L175.03 107.569C175.03 108.475 175.18 109.171 175.481 109.658C175.781 110.144 176.228 110.388 176.82 110.388C177.383 110.388 177.817 110.149 178.121 109.67C178.426 109.192 178.581 108.505 178.585 107.607V107.182ZM186.526 102.758H188.748V109.099C188.748 109.687 188.611 110.212 188.336 110.673C188.065 111.135 187.684 111.492 187.193 111.746C186.706 112 186.163 112.127 185.562 112.127C184.554 112.127 183.772 111.873 183.213 111.365C182.654 110.857 182.375 110.138 182.375 109.207H184.609C184.609 109.63 184.681 109.937 184.825 110.127C184.973 110.318 185.219 110.413 185.562 110.413C185.871 110.413 186.108 110.299 186.273 110.07C186.442 109.838 186.526 109.514 186.526 109.099V102.758ZM196.734 108.083H193.23V110.286H197.369V112H191.002V102.758H197.382V104.478H193.23V106.427H196.734V108.083ZM206.599 108.871C206.57 109.514 206.396 110.083 206.079 110.578C205.761 111.069 205.315 111.45 204.739 111.721C204.168 111.992 203.514 112.127 202.778 112.127C201.563 112.127 200.607 111.731 199.909 110.94C199.211 110.149 198.862 109.031 198.862 107.588V107.131C198.862 106.226 199.018 105.434 199.331 104.757C199.649 104.076 200.104 103.551 200.696 103.183C201.288 102.811 201.974 102.625 202.753 102.625C203.874 102.625 204.775 102.921 205.457 103.513C206.138 104.101 206.525 104.914 206.618 105.951H204.397C204.38 105.388 204.238 104.984 203.971 104.738C203.705 104.493 203.299 104.37 202.753 104.37C202.198 104.37 201.792 104.577 201.534 104.992C201.276 105.407 201.14 106.069 201.128 106.979V107.633C201.128 108.619 201.25 109.323 201.496 109.747C201.745 110.17 202.173 110.381 202.778 110.381C203.29 110.381 203.681 110.261 203.952 110.02C204.223 109.778 204.367 109.395 204.384 108.871H206.599ZM215.563 104.478H212.789V112H210.561V104.478H207.838V102.758H215.563V104.478Z" fill="#424242"/>
<defs>
<filter id="filter0_d" x="0" y="0" width="303.62" height="278" filterUnits="userSpaceOnUse" color-interpolation-filters="sRGB">
<feFlood flood-opacity="0" result="BackgroundImageFix"/>
<feColorMatrix in="SourceAlpha" type="matrix" values="0 0 0 0 0 0 0 0 0 0 0 0 0 0 0 0 0 0 127 0"/>
<feOffset dy="4"/>
<feGaussianBlur stdDeviation="2"/>
<feColorMatrix type="matrix" values="0 0 0 0 0 0 0 0 0 0 0 0 0 0 0 0 0 0 0.25 0"/>
<feBlend mode="normal" in2="BackgroundImageFix" result="effect1_dropShadow"/>
<feBlend mode="normal" in="SourceGraphic" in2="effect1_dropShadow" result="shape"/>
</filter>
<linearGradient id="paint0_linear" x1="152.346" y1="82" x2="152.346" y2="47" gradientUnits="userSpaceOnUse">
<stop stop-color="#4F5DD9"/>
<stop offset="1" stop-color="#FD3A84"/>
</linearGradient>
</defs>
</svg>
