<svg width="283" height="260" viewBox="0 0 283 260" fill="none" xmlns="http://www.w3.org/2000/svg">
<g filter="url(#filter0_d)">
<rect x="4" width="275" height="251.167" rx="5" fill="#0D1A2E"/>
</g>
<path d="M140.501 58.6284C137.814 58.6284 135.628 60.8141 135.628 63.5007C135.628 66.1873 137.814 68.3729 140.501 68.3729C143.187 68.3729 145.373 66.1873 145.373 63.5007C145.373 60.8141 143.187 58.6284 140.501 58.6284ZM140.501 66.3142C138.949 66.3142 137.687 65.052 137.687 63.5007C137.687 61.9493 138.949 60.6871 140.501 60.6871C142.052 60.6871 143.314 61.9493 143.314 63.5007C143.314 65.052 142.052 66.3142 140.501 66.3142Z" fill="#7EAEDB"/>
<path d="M152.874 51.1272C147.059 45.3124 138.272 44.4901 131.614 48.4234C129.54 46.6492 126.295 48.1145 126.295 50.8741C126.295 51.5125 126.483 52.1077 126.804 52.6091C122.136 58.4738 121.698 66.7476 125.855 73.081C125.443 73.6227 125.197 74.2979 125.197 75.0295C125.197 77.6398 128.139 79.144 130.251 77.6843C137.073 82.6136 146.672 82.0764 152.874 75.8745C159.713 69.036 159.713 57.9666 152.874 51.1272ZM129.521 49.7075C130.164 49.7075 130.687 50.2309 130.687 50.8741C130.687 51.5174 130.164 52.0407 129.521 52.0407C128.877 52.0407 128.354 51.5174 128.354 50.8741C128.354 50.2309 128.877 49.7075 129.521 49.7075ZM128.423 76.1961C127.779 76.1961 127.256 75.6728 127.256 75.0295C127.256 74.3862 127.779 73.8629 128.423 73.8629C129.066 73.8629 129.589 74.3862 129.589 75.0295C129.589 75.6728 129.066 76.1961 128.423 76.1961ZM140.5 78.941C137.217 78.941 134.118 77.9396 131.486 76.0378C132.295 73.5849 130.025 71.2345 127.557 71.9231C123.915 66.3448 124.303 59.0667 128.407 53.901C130.775 54.7752 133.214 52.6838 132.672 50.1892C142.821 44.2059 155.941 51.4861 155.941 63.5008C155.941 72.0146 149.014 78.941 140.5 78.941Z" fill="#7EAEDB"/>
<path d="M152.509 56.9129C152.509 54.5217 149.992 52.972 147.866 54.0167C145.765 52.3833 143.179 51.4917 140.5 51.4917C133.878 51.4917 128.491 56.879 128.491 63.5008C128.491 69.9131 133.542 75.1677 139.875 75.4937C140.426 76.4846 141.484 77.1568 142.696 77.1568C144.374 77.1568 145.757 75.8672 145.907 74.2266C151.524 71.3939 153.925 64.7667 151.669 59.0818C152.19 58.5085 152.509 57.7472 152.509 56.9129ZM142.696 75.0981C142.052 75.0981 141.529 74.5748 141.529 73.9315C141.529 73.2882 142.052 72.7649 142.696 72.7649C143.339 72.7649 143.862 73.2882 143.862 73.9315C143.862 74.5748 143.339 75.0981 142.696 75.0981ZM145.393 72.1668C143.773 69.6985 139.99 70.5307 139.514 73.4023C134.488 72.9061 130.549 68.6549 130.549 63.5007C130.549 55.3217 139.887 50.6958 146.393 55.4836C145.229 57.8284 147.231 60.553 149.849 60.0874C151.5 64.5955 149.679 69.7462 145.393 72.1668ZM149.283 58.0795C148.64 58.0795 148.117 57.5562 148.117 56.9129C148.117 56.2697 148.64 55.7463 149.283 55.7463C149.927 55.7463 150.45 56.2697 150.45 56.9129C150.45 57.5562 149.927 58.0795 149.283 58.0795Z" fill="#7EAEDB"/>
<path d="M96.0824 134.281C95.8324 134.24 95.5746 134.219 95.309 134.219C94.4392 134.219 93.8533 134.552 93.5512 135.219V141H91.6527V132.547H93.4652L93.5121 133.492C93.9705 132.758 94.6059 132.391 95.4184 132.391C95.6892 132.391 95.9132 132.427 96.0902 132.5L96.0824 134.281ZM102.528 141.156C101.325 141.156 100.348 140.779 99.5984 140.023C98.8536 139.263 98.4812 138.253 98.4812 136.992V136.758C98.4812 135.914 98.6426 135.161 98.9656 134.5C99.2937 133.833 99.752 133.315 100.341 132.945C100.929 132.576 101.585 132.391 102.309 132.391C103.46 132.391 104.348 132.758 104.973 133.492C105.604 134.227 105.919 135.266 105.919 136.609V137.375H100.395C100.453 138.073 100.684 138.625 101.091 139.031C101.502 139.438 102.018 139.641 102.637 139.641C103.507 139.641 104.216 139.289 104.762 138.586L105.786 139.562C105.447 140.068 104.994 140.461 104.426 140.742C103.864 141.018 103.231 141.156 102.528 141.156ZM102.301 133.914C101.781 133.914 101.359 134.096 101.036 134.461C100.718 134.826 100.515 135.333 100.426 135.984H104.044V135.844C104.002 135.208 103.833 134.729 103.536 134.406C103.239 134.078 102.828 133.914 102.301 133.914ZM108.724 136.711C108.724 135.409 109.026 134.365 109.63 133.578C110.234 132.786 111.044 132.391 112.06 132.391C112.955 132.391 113.679 132.703 114.231 133.328V129H116.13V141H114.411L114.317 140.125C113.75 140.812 112.992 141.156 112.044 141.156C111.054 141.156 110.252 140.758 109.638 139.961C109.028 139.164 108.724 138.081 108.724 136.711ZM110.622 136.875C110.622 137.734 110.786 138.406 111.114 138.891C111.448 139.37 111.919 139.609 112.528 139.609C113.304 139.609 113.872 139.263 114.231 138.57V134.961C113.883 134.284 113.32 133.945 112.544 133.945C111.929 133.945 111.455 134.19 111.122 134.68C110.789 135.164 110.622 135.896 110.622 136.875ZM123.513 141.156C122.31 141.156 121.333 140.779 120.583 140.023C119.839 139.263 119.466 138.253 119.466 136.992V136.758C119.466 135.914 119.628 135.161 119.951 134.5C120.279 133.833 120.737 133.315 121.326 132.945C121.914 132.576 122.57 132.391 123.294 132.391C124.445 132.391 125.333 132.758 125.958 133.492C126.589 134.227 126.904 135.266 126.904 136.609V137.375H121.38C121.438 138.073 121.669 138.625 122.076 139.031C122.487 139.438 123.003 139.641 123.622 139.641C124.492 139.641 125.201 139.289 125.747 138.586L126.771 139.562C126.432 140.068 125.979 140.461 125.411 140.742C124.849 141.018 124.216 141.156 123.513 141.156ZM123.286 133.914C122.766 133.914 122.344 134.096 122.021 134.461C121.703 134.826 121.5 135.333 121.411 135.984H125.029V135.844C124.987 135.208 124.818 134.729 124.521 134.406C124.224 134.078 123.813 133.914 123.286 133.914ZM134.802 138.703C134.802 138.365 134.662 138.107 134.381 137.93C134.105 137.753 133.644 137.596 132.998 137.461C132.352 137.326 131.813 137.154 131.381 136.945C130.433 136.487 129.959 135.823 129.959 134.953C129.959 134.224 130.266 133.615 130.881 133.125C131.495 132.635 132.276 132.391 133.224 132.391C134.235 132.391 135.05 132.641 135.67 133.141C136.295 133.641 136.607 134.289 136.607 135.086H134.709C134.709 134.721 134.573 134.419 134.302 134.18C134.032 133.935 133.672 133.812 133.224 133.812C132.808 133.812 132.466 133.909 132.201 134.102C131.94 134.294 131.81 134.552 131.81 134.875C131.81 135.167 131.933 135.393 132.177 135.555C132.422 135.716 132.917 135.88 133.662 136.047C134.407 136.208 134.99 136.404 135.412 136.633C135.839 136.857 136.154 137.128 136.357 137.445C136.565 137.763 136.67 138.148 136.67 138.602C136.67 139.362 136.355 139.979 135.724 140.453C135.094 140.922 134.269 141.156 133.248 141.156C132.555 141.156 131.938 141.031 131.396 140.781C130.855 140.531 130.433 140.188 130.131 139.75C129.828 139.312 129.677 138.841 129.677 138.336H131.521C131.547 138.784 131.716 139.13 132.029 139.375C132.341 139.615 132.756 139.734 133.271 139.734C133.771 139.734 134.151 139.641 134.412 139.453C134.672 139.26 134.802 139.01 134.802 138.703ZM142.029 141H140.131V132.547H142.029V141ZM140.014 130.352C140.014 130.06 140.105 129.818 140.287 129.625C140.475 129.432 140.74 129.336 141.084 129.336C141.428 129.336 141.693 129.432 141.881 129.625C142.068 129.818 142.162 130.06 142.162 130.352C142.162 130.638 142.068 130.878 141.881 131.07C141.693 131.258 141.428 131.352 141.084 131.352C140.74 131.352 140.475 131.258 140.287 131.07C140.105 130.878 140.014 130.638 140.014 130.352ZM145.451 136.711C145.451 135.398 145.759 134.352 146.373 133.57C146.993 132.784 147.813 132.391 148.834 132.391C149.798 132.391 150.556 132.727 151.108 133.398L151.194 132.547H152.905V140.742C152.905 141.852 152.558 142.727 151.866 143.367C151.178 144.008 150.248 144.328 149.076 144.328C148.457 144.328 147.85 144.198 147.256 143.938C146.668 143.682 146.22 143.346 145.912 142.93L146.811 141.789C147.394 142.482 148.113 142.828 148.967 142.828C149.597 142.828 150.095 142.656 150.459 142.312C150.824 141.974 151.006 141.474 151.006 140.812V140.242C150.459 140.852 149.73 141.156 148.819 141.156C147.829 141.156 147.019 140.763 146.389 139.977C145.764 139.19 145.451 138.102 145.451 136.711ZM147.342 136.875C147.342 137.724 147.514 138.393 147.858 138.883C148.207 139.367 148.688 139.609 149.303 139.609C150.069 139.609 150.636 139.281 151.006 138.625V134.906C150.647 134.266 150.084 133.945 149.319 133.945C148.694 133.945 148.207 134.193 147.858 134.688C147.514 135.182 147.342 135.911 147.342 136.875ZM158.303 132.547L158.358 133.523C158.983 132.768 159.803 132.391 160.819 132.391C162.579 132.391 163.475 133.398 163.507 135.414V141H161.608V135.523C161.608 134.987 161.491 134.591 161.257 134.336C161.027 134.076 160.65 133.945 160.124 133.945C159.358 133.945 158.788 134.292 158.413 134.984V141H156.514V132.547H158.303ZM169.147 141H167.249V132.547H169.147V141ZM167.132 130.352C167.132 130.06 167.223 129.818 167.405 129.625C167.593 129.432 167.858 129.336 168.202 129.336C168.546 129.336 168.812 129.432 168.999 129.625C169.187 129.818 169.28 130.06 169.28 130.352C169.28 130.638 169.187 130.878 168.999 131.07C168.812 131.258 168.546 131.352 168.202 131.352C167.858 131.352 167.593 131.258 167.405 131.07C167.223 130.878 167.132 130.638 167.132 130.352ZM174.663 132.547L174.718 133.523C175.343 132.768 176.163 132.391 177.179 132.391C178.939 132.391 179.835 133.398 179.867 135.414V141H177.968V135.523C177.968 134.987 177.851 134.591 177.617 134.336C177.387 134.076 177.01 133.945 176.484 133.945C175.718 133.945 175.148 134.292 174.773 134.984V141H172.874V132.547H174.663ZM183.156 136.711C183.156 135.398 183.463 134.352 184.078 133.57C184.698 132.784 185.518 132.391 186.539 132.391C187.502 132.391 188.26 132.727 188.812 133.398L188.898 132.547H190.609V140.742C190.609 141.852 190.263 142.727 189.57 143.367C188.882 144.008 187.953 144.328 186.781 144.328C186.161 144.328 185.554 144.198 184.961 143.938C184.372 143.682 183.924 143.346 183.617 142.93L184.515 141.789C185.099 142.482 185.817 142.828 186.672 142.828C187.302 142.828 187.799 142.656 188.164 142.312C188.528 141.974 188.711 141.474 188.711 140.812V140.242C188.164 140.852 187.435 141.156 186.523 141.156C185.533 141.156 184.724 140.763 184.093 139.977C183.468 139.19 183.156 138.102 183.156 136.711ZM185.047 136.875C185.047 137.724 185.218 138.393 185.562 138.883C185.911 139.367 186.393 139.609 187.007 139.609C187.773 139.609 188.341 139.281 188.711 138.625V134.906C188.351 134.266 187.789 133.945 187.023 133.945C186.398 133.945 185.911 134.193 185.562 134.688C185.218 135.182 185.047 135.911 185.047 136.875Z" fill="white"/>
<path d="M71.9238 169V159.047H75.335C76.4606 159.047 77.3174 159.272 77.9053 159.724C78.4932 160.175 78.7871 160.847 78.7871 161.74C78.7871 162.196 78.6641 162.606 78.418 162.971C78.1719 163.335 77.8118 163.618 77.3379 163.818C77.8757 163.964 78.2904 164.24 78.582 164.646C78.8783 165.047 79.0264 165.53 79.0264 166.095C79.0264 167.029 78.7256 167.747 78.124 168.248C77.527 168.749 76.6702 169 75.5537 169H71.9238ZM73.6533 164.509V167.619H75.5742C76.1165 167.619 76.5404 167.485 76.8457 167.216C77.151 166.947 77.3037 166.573 77.3037 166.095C77.3037 165.06 76.7751 164.532 75.7178 164.509H73.6533ZM73.6533 163.237H75.3486C75.8864 163.237 76.3057 163.117 76.6064 162.875C76.9118 162.629 77.0645 162.283 77.0645 161.836C77.0645 161.344 76.9232 160.988 76.6406 160.77C76.3626 160.551 75.9274 160.441 75.335 160.441H73.6533V163.237ZM94.2992 164.283C94.2992 165.258 94.1306 166.115 93.7934 166.854C93.4561 167.587 92.973 168.152 92.3441 168.549C91.7198 168.941 90.9997 169.137 90.184 169.137C89.3773 169.137 88.6573 168.941 88.0238 168.549C87.3949 168.152 86.9073 167.59 86.5609 166.86C86.2191 166.131 86.046 165.29 86.0414 164.338V163.777C86.0414 162.807 86.2123 161.95 86.5541 161.207C86.9005 160.464 87.3858 159.897 88.0102 159.505C88.6391 159.108 89.3591 158.91 90.1703 158.91C90.9815 158.91 91.6993 159.106 92.3236 159.498C92.9525 159.885 93.4379 160.446 93.7797 161.18C94.1215 161.909 94.2947 162.759 94.2992 163.729V164.283ZM92.5697 163.764C92.5697 162.661 92.3601 161.815 91.9408 161.228C91.5261 160.64 90.9359 160.346 90.1703 160.346C89.4229 160.346 88.8373 160.64 88.4135 161.228C87.9942 161.811 87.78 162.638 87.7709 163.709V164.283C87.7709 165.377 87.9828 166.222 88.4066 166.819C88.835 167.416 89.4275 167.715 90.184 167.715C90.9496 167.715 91.5375 167.423 91.9477 166.84C92.3624 166.257 92.5697 165.404 92.5697 164.283V163.764ZM103.351 167.619H107.87V169H101.622V159.047H103.351V167.619ZM120.579 160.441H117.476V169H115.76V160.441H112.684V159.047H120.579V160.441ZM136.168 169V159.047H139.107C139.987 159.047 140.766 159.243 141.445 159.635C142.129 160.027 142.658 160.583 143.031 161.303C143.405 162.023 143.592 162.848 143.592 163.777V164.276C143.592 165.22 143.403 166.049 143.024 166.765C142.651 167.48 142.115 168.032 141.418 168.419C140.725 168.806 139.93 169 139.032 169H136.168ZM137.897 160.441V167.619H139.025C139.932 167.619 140.627 167.337 141.11 166.771C141.598 166.202 141.846 165.386 141.855 164.324V163.771C141.855 162.69 141.621 161.866 141.151 161.296C140.682 160.726 140.001 160.441 139.107 160.441H137.897ZM156.732 164.557H152.644V167.619H157.422V169H150.914V159.047H157.374V160.441H152.644V163.189H156.732V164.557ZM169.633 166.437C169.633 165.999 169.478 165.662 169.168 165.425C168.862 165.188 168.309 164.949 167.507 164.707C166.705 164.465 166.067 164.197 165.593 163.9C164.686 163.331 164.232 162.588 164.232 161.672C164.232 160.87 164.558 160.209 165.21 159.689C165.866 159.17 166.716 158.91 167.76 158.91C168.452 158.91 169.07 159.038 169.612 159.293C170.154 159.548 170.581 159.913 170.89 160.387C171.2 160.856 171.355 161.378 171.355 161.952H169.633C169.633 161.433 169.469 161.027 169.14 160.735C168.817 160.439 168.352 160.291 167.746 160.291C167.181 160.291 166.741 160.412 166.427 160.653C166.117 160.895 165.962 161.232 165.962 161.665C165.962 162.03 166.13 162.335 166.468 162.581C166.805 162.823 167.361 163.06 168.136 163.292C168.91 163.52 169.532 163.782 170.002 164.078C170.471 164.37 170.815 164.707 171.034 165.09C171.253 165.468 171.362 165.912 171.362 166.423C171.362 167.252 171.043 167.913 170.405 168.405C169.772 168.893 168.91 169.137 167.821 169.137C167.101 169.137 166.438 169.005 165.832 168.74C165.23 168.471 164.761 168.102 164.424 167.633C164.091 167.163 163.925 166.617 163.925 165.992H165.654C165.654 166.557 165.841 166.995 166.215 167.305C166.588 167.615 167.124 167.77 167.821 167.77C168.423 167.77 168.874 167.649 169.175 167.407C169.48 167.161 169.633 166.838 169.633 166.437ZM180.305 169H178.582V159.047H180.305V169ZM195.66 167.708C195.3 168.177 194.801 168.533 194.163 168.774C193.525 169.016 192.8 169.137 191.989 169.137C191.155 169.137 190.417 168.948 189.774 168.569C189.131 168.191 188.635 167.651 188.284 166.949C187.937 166.243 187.757 165.42 187.744 164.481V163.702C187.744 162.198 188.104 161.025 188.824 160.182C189.544 159.334 190.549 158.91 191.838 158.91C192.946 158.91 193.825 159.184 194.477 159.73C195.129 160.277 195.521 161.066 195.653 162.096H193.958C193.766 160.897 193.071 160.298 191.873 160.298C191.098 160.298 190.508 160.578 190.102 161.139C189.701 161.695 189.494 162.513 189.48 163.593V164.358C189.48 165.434 189.706 166.27 190.157 166.867C190.613 167.46 191.244 167.756 192.05 167.756C192.934 167.756 193.563 167.555 193.937 167.154V165.206H191.886V163.894H195.66V167.708ZM211.056 169H209.326L204.89 161.938V169H203.16V159.047H204.89L209.34 166.136V159.047H211.056V169ZM106.712 186.437C106.712 185.999 106.557 185.662 106.247 185.425C105.942 185.188 105.388 184.949 104.586 184.707C103.784 184.465 103.146 184.197 102.672 183.9C101.765 183.331 101.312 182.588 101.312 181.672C101.312 180.87 101.637 180.209 102.289 179.689C102.945 179.17 103.795 178.91 104.839 178.91C105.532 178.91 106.149 179.038 106.691 179.293C107.234 179.548 107.66 179.913 107.97 180.387C108.28 180.856 108.435 181.378 108.435 181.952H106.712C106.712 181.433 106.548 181.027 106.22 180.735C105.896 180.439 105.431 180.291 104.825 180.291C104.26 180.291 103.82 180.412 103.506 180.653C103.196 180.895 103.041 181.232 103.041 181.665C103.041 182.03 103.21 182.335 103.547 182.581C103.884 182.823 104.44 183.06 105.215 183.292C105.99 183.52 106.612 183.782 107.081 184.078C107.55 184.37 107.895 184.707 108.113 185.09C108.332 185.468 108.441 185.912 108.441 186.423C108.441 187.252 108.122 187.913 107.484 188.405C106.851 188.893 105.99 189.137 104.9 189.137C104.18 189.137 103.517 189.005 102.911 188.74C102.31 188.471 101.84 188.102 101.503 187.633C101.17 187.163 101.004 186.617 101.004 185.992H102.733C102.733 186.557 102.92 186.995 103.294 187.305C103.668 187.615 104.203 187.77 104.9 187.77C105.502 187.77 105.953 187.649 106.254 187.407C106.559 187.161 106.712 186.838 106.712 186.437ZM118.806 183.764L121.096 179.047H123.01L119.674 185.336V189H117.938V185.336L114.595 179.047H116.516L118.806 183.764ZM134.783 186.437C134.783 185.999 134.628 185.662 134.318 185.425C134.013 185.188 133.459 184.949 132.657 184.707C131.855 184.465 131.217 184.197 130.743 183.9C129.836 183.331 129.383 182.588 129.383 181.672C129.383 180.87 129.708 180.209 130.36 179.689C131.016 179.17 131.866 178.91 132.91 178.91C133.603 178.91 134.22 179.038 134.762 179.293C135.305 179.548 135.731 179.913 136.041 180.387C136.351 180.856 136.506 181.378 136.506 181.952H134.783C134.783 181.433 134.619 181.027 134.291 180.735C133.967 180.439 133.502 180.291 132.896 180.291C132.331 180.291 131.891 180.412 131.577 180.653C131.267 180.895 131.112 181.232 131.112 181.665C131.112 182.03 131.281 182.335 131.618 182.581C131.955 182.823 132.511 183.06 133.286 183.292C134.061 183.52 134.683 183.782 135.152 184.078C135.622 184.37 135.966 184.707 136.184 185.09C136.403 185.468 136.512 185.912 136.512 186.423C136.512 187.252 136.193 187.913 135.555 188.405C134.922 188.893 134.061 189.137 132.971 189.137C132.251 189.137 131.588 189.005 130.982 188.74C130.381 188.471 129.911 188.102 129.574 187.633C129.241 187.163 129.075 186.617 129.075 185.992H130.804C130.804 186.557 130.991 186.995 131.365 187.305C131.739 187.615 132.274 187.77 132.971 187.77C133.573 187.77 134.024 187.649 134.325 187.407C134.63 187.161 134.783 186.838 134.783 186.437ZM150.821 180.441H147.718V189H146.002V180.441H142.926V179.047H150.821V180.441ZM163.551 184.557H159.463V187.619H164.242V189H157.734V179.047H164.194V180.441H159.463V183.189H163.551V184.557ZM173.492 179.047L176.363 186.676L179.228 179.047H181.463V189H179.74V185.719L179.911 181.33L176.972 189H175.734L172.802 181.337L172.973 185.719V189H171.25V179.047H173.492Z" fill="white"/>
<path d="M102.463 112H100.241V102.758H102.463V112ZM112.576 112H110.36L107.085 106.249V112H104.857V102.758H107.085L110.354 108.509V102.758H112.576V112ZM121.895 104.478H119.121V112H116.893V104.478H114.17V102.758H121.895V104.478ZM129.418 108.083H125.914V110.286H130.052V112H123.686V102.758H130.065V104.478H125.914V106.427H129.418V108.083ZM135.239 108.737H134.033V112H131.805V102.758H135.442C136.538 102.758 137.395 103.001 138.013 103.488C138.631 103.974 138.94 104.662 138.94 105.551C138.94 106.194 138.809 106.727 138.546 107.15C138.288 107.574 137.882 107.916 137.327 108.179L139.257 111.905V112H136.87L135.239 108.737ZM134.033 107.017H135.442C135.865 107.017 136.183 106.907 136.394 106.687C136.61 106.463 136.718 106.152 136.718 105.754C136.718 105.356 136.61 105.045 136.394 104.821C136.179 104.592 135.861 104.478 135.442 104.478H134.033V107.017ZM148.849 112H146.634L143.359 106.249V112H141.131V102.758H143.359L146.628 108.509V102.758H148.849V112ZM155.871 109.543C155.871 109.218 155.754 108.964 155.521 108.782C155.293 108.6 154.889 108.411 154.309 108.217C153.729 108.022 153.255 107.834 152.887 107.652C151.69 107.064 151.091 106.255 151.091 105.227C151.091 104.715 151.239 104.264 151.535 103.875C151.836 103.481 152.259 103.177 152.805 102.961C153.351 102.741 153.964 102.631 154.645 102.631C155.31 102.631 155.904 102.749 156.429 102.986C156.958 103.223 157.369 103.562 157.661 104.002C157.953 104.438 158.099 104.937 158.099 105.5H155.877C155.877 105.123 155.76 104.831 155.528 104.624C155.299 104.417 154.988 104.313 154.595 104.313C154.197 104.313 153.882 104.402 153.649 104.58C153.42 104.753 153.306 104.975 153.306 105.246C153.306 105.483 153.433 105.699 153.687 105.894C153.941 106.084 154.387 106.283 155.026 106.49C155.665 106.693 156.19 106.913 156.601 107.15C157.599 107.726 158.099 108.519 158.099 109.531C158.099 110.339 157.794 110.974 157.184 111.435C156.575 111.896 155.739 112.127 154.677 112.127C153.928 112.127 153.249 111.994 152.64 111.727C152.034 111.456 151.577 111.088 151.268 110.623C150.964 110.153 150.811 109.613 150.811 109.004H153.046C153.046 109.499 153.173 109.865 153.427 110.102C153.685 110.335 154.102 110.451 154.677 110.451C155.045 110.451 155.335 110.373 155.547 110.216C155.763 110.056 155.871 109.831 155.871 109.543ZM167.811 112H165.596V108.141H162.314V112H160.086V102.758H162.314V106.427H165.596V102.758H167.811V112ZM172.446 112H170.224V102.758H172.446V112ZM177.068 108.864V112H174.84V102.758H178.528C179.234 102.758 179.858 102.889 180.4 103.151C180.946 103.41 181.367 103.78 181.663 104.262C181.964 104.74 182.114 105.284 182.114 105.894C182.114 106.795 181.79 107.516 181.143 108.058C180.5 108.596 179.615 108.864 178.49 108.864H177.068ZM177.068 107.144H178.528C178.959 107.144 179.287 107.036 179.511 106.82C179.74 106.604 179.854 106.3 179.854 105.906C179.854 105.475 179.738 105.13 179.505 104.872C179.272 104.613 178.955 104.482 178.553 104.478H177.068V107.144Z" fill="white"/>
<defs>
<filter id="filter0_d" x="0" y="0" width="283" height="259.167" filterUnits="userSpaceOnUse" color-interpolation-filters="sRGB">
<feFlood flood-opacity="0" result="BackgroundImageFix"/>
<feColorMatrix in="SourceAlpha" type="matrix" values="0 0 0 0 0 0 0 0 0 0 0 0 0 0 0 0 0 0 127 0"/>
<feOffset dy="4"/>
<feGaussianBlur stdDeviation="2"/>
<feColorMatrix type="matrix" values="0 0 0 0 0 0 0 0 0 0 0 0 0 0 0 0 0 0 0.25 0"/>
<feBlend mode="normal" in2="BackgroundImageFix" result="effect1_dropShadow"/>
<feBlend mode="normal" in="SourceGraphic" in2="effect1_dropShadow" result="shape"/>
</filter>
</defs>
</svg>
