<svg width="308" height="282" viewBox="0 0 308 282" fill="none" xmlns="http://www.w3.org/2000/svg">
<g filter="url(#filter0_d)">
<rect x="4" width="300" height="274" rx="10" fill="#E6F0FF"/>
</g>
<path d="M64.3281 130.625V138.359C64.3229 139.432 63.9844 140.31 63.3125 140.992C62.6458 141.674 61.7396 142.057 60.5938 142.141L60.1953 142.156C58.9505 142.156 57.9583 141.82 57.2188 141.148C56.4792 140.477 56.1042 139.552 56.0938 138.375V130.625H57.5781V138.328C57.5781 139.151 57.8047 139.792 58.2578 140.25C58.7109 140.703 59.3568 140.93 60.1953 140.93C61.0443 140.93 61.6927 140.703 62.1406 140.25C62.5938 139.797 62.8203 139.159 62.8203 138.336V130.625H64.3281ZM80.6462 134.984L83.3728 130.625H85.1384L81.5447 136.266L85.2244 142H83.4431L80.6462 137.562L77.8337 142H76.0603L79.7478 136.266L76.1462 130.625H77.9041L80.6462 134.984ZM56.3203 164V152.625H59.5312C60.5208 152.625 61.3958 152.844 62.1562 153.281C62.9167 153.719 63.5026 154.341 63.9141 155.148C64.3307 155.956 64.5417 156.883 64.5469 157.93V158.656C64.5469 159.729 64.3385 160.669 63.9219 161.477C63.5104 162.284 62.9193 162.904 62.1484 163.336C61.3828 163.768 60.4896 163.99 59.4688 164H56.3203ZM57.8203 153.859V162.773H59.3984C60.5547 162.773 61.4531 162.414 62.0938 161.695C62.7396 160.977 63.0625 159.953 63.0625 158.625V157.961C63.0625 156.669 62.7578 155.667 62.1484 154.953C61.5443 154.234 60.6849 153.87 59.5703 153.859H57.8203ZM83.49 158.742H78.5603V162.773H84.2869V164H77.0603V152.625H84.2087V153.859H78.5603V157.516H83.49V158.742ZM99.7456 158.93C98.4592 158.56 97.5217 158.107 96.9331 157.57C96.3498 157.029 96.0581 156.362 96.0581 155.57C96.0581 154.674 96.4149 153.935 97.1284 153.352C97.8472 152.763 98.7795 152.469 99.9253 152.469C100.707 152.469 101.402 152.62 102.011 152.922C102.626 153.224 103.1 153.641 103.433 154.172C103.772 154.703 103.941 155.284 103.941 155.914H102.433C102.433 155.227 102.214 154.688 101.777 154.297C101.339 153.901 100.722 153.703 99.9253 153.703C99.1857 153.703 98.6076 153.867 98.1909 154.195C97.7795 154.518 97.5737 154.969 97.5737 155.547C97.5737 156.01 97.7691 156.404 98.1597 156.727C98.5555 157.044 99.2248 157.336 100.167 157.602C101.115 157.867 101.855 158.161 102.386 158.484C102.923 158.802 103.319 159.174 103.574 159.602C103.834 160.029 103.964 160.531 103.964 161.109C103.964 162.031 103.605 162.771 102.886 163.328C102.167 163.88 101.207 164.156 100.003 164.156C99.2222 164.156 98.493 164.008 97.8159 163.711C97.1389 163.409 96.6154 162.997 96.2456 162.477C95.881 161.956 95.6987 161.365 95.6987 160.703H97.2066C97.2066 161.391 97.4592 161.935 97.9644 162.336C98.4748 162.732 99.1545 162.93 100.003 162.93C100.795 162.93 101.402 162.768 101.824 162.445C102.246 162.122 102.457 161.682 102.457 161.125C102.457 160.568 102.261 160.138 101.871 159.836C101.48 159.529 100.772 159.227 99.7456 158.93ZM117.743 164H116.243V152.625H117.743V164ZM139.132 162.508C138.746 163.06 138.207 163.474 137.515 163.75C136.827 164.021 136.025 164.156 135.108 164.156C134.181 164.156 133.358 163.94 132.64 163.508C131.921 163.07 131.364 162.451 130.968 161.648C130.577 160.846 130.377 159.917 130.366 158.859V157.867C130.366 156.154 130.765 154.826 131.562 153.883C132.364 152.94 133.489 152.469 134.937 152.469C136.124 152.469 137.08 152.773 137.804 153.383C138.528 153.987 138.97 154.846 139.132 155.961H137.632C137.351 154.456 136.455 153.703 134.944 153.703C133.939 153.703 133.176 154.057 132.655 154.766C132.14 155.469 131.879 156.49 131.874 157.828V158.758C131.874 160.034 132.166 161.049 132.749 161.805C133.332 162.555 134.121 162.93 135.116 162.93C135.679 162.93 136.171 162.867 136.593 162.742C137.015 162.617 137.364 162.406 137.64 162.109V159.555H135.007V158.336H139.132V162.508ZM160.622 164H159.114L153.387 155.234V164H151.88V152.625H153.387L159.13 161.43V152.625H160.622V164ZM57.9297 186H56.4297V174.625H57.9297V186ZM79.6619 186H78.1541L72.4275 177.234V186H70.9197V174.625H72.4275L78.1697 183.43V174.625H79.6619V186ZM100.191 175.859H96.5347V186H95.0425V175.859H91.3941V174.625H100.191V175.859ZM118.548 180.742H113.618V184.773H119.345V186H112.118V174.625H119.267V175.859H113.618V179.516H118.548V180.742ZM135.624 181.398H132.952V186H131.444V174.625H135.21C136.491 174.625 137.476 174.917 138.163 175.5C138.856 176.083 139.202 176.932 139.202 178.047C139.202 178.755 139.009 179.372 138.624 179.898C138.244 180.424 137.713 180.818 137.03 181.078L139.702 185.906V186H138.093L135.624 181.398ZM132.952 180.172H135.257C136.002 180.172 136.593 179.979 137.03 179.594C137.473 179.208 137.694 178.693 137.694 178.047C137.694 177.344 137.483 176.805 137.062 176.43C136.645 176.055 136.041 175.865 135.249 175.859H132.952V180.172ZM160.294 186H158.786L153.059 177.234V186H151.552V174.625H153.059L158.802 183.43V174.625H160.294V186ZM59.6719 202.93C58.3854 202.56 57.4479 202.107 56.8594 201.57C56.276 201.029 55.9844 200.362 55.9844 199.57C55.9844 198.674 56.3411 197.935 57.0547 197.352C57.7734 196.763 58.7057 196.469 59.8516 196.469C60.6328 196.469 61.3281 196.62 61.9375 196.922C62.5521 197.224 63.026 197.641 63.3594 198.172C63.6979 198.703 63.8672 199.284 63.8672 199.914H62.3594C62.3594 199.227 62.1406 198.688 61.7031 198.297C61.2656 197.901 60.6484 197.703 59.8516 197.703C59.112 197.703 58.5339 197.867 58.1172 198.195C57.7057 198.518 57.5 198.969 57.5 199.547C57.5 200.01 57.6953 200.404 58.0859 200.727C58.4818 201.044 59.151 201.336 60.0938 201.602C61.0417 201.867 61.7812 202.161 62.3125 202.484C62.849 202.802 63.2448 203.174 63.5 203.602C63.7604 204.029 63.8906 204.531 63.8906 205.109C63.8906 206.031 63.5312 206.771 62.8125 207.328C62.0938 207.88 61.1328 208.156 59.9297 208.156C59.1484 208.156 58.4193 208.008 57.7422 207.711C57.0651 207.409 56.5417 206.997 56.1719 206.477C55.8073 205.956 55.625 205.365 55.625 204.703H57.1328C57.1328 205.391 57.3854 205.935 57.8906 206.336C58.401 206.732 59.0807 206.93 59.9297 206.93C60.7214 206.93 61.3281 206.768 61.75 206.445C62.1719 206.122 62.3828 205.682 62.3828 205.125C62.3828 204.568 62.1875 204.138 61.7969 203.836C61.4062 203.529 60.6979 203.227 59.6719 202.93ZM84.8025 208H83.2947V202.742H77.5603V208H76.0603V196.625H77.5603V201.516H83.2947V196.625H84.8025V208ZM99.3159 208H97.8159V196.625H99.3159V208ZM113.806 203.547V208H112.306V196.625H116.501C117.746 196.625 118.72 196.943 119.423 197.578C120.131 198.214 120.486 199.055 120.486 200.102C120.486 201.206 120.139 202.057 119.447 202.656C118.759 203.25 117.772 203.547 116.486 203.547H113.806ZM113.806 202.32H116.501C117.303 202.32 117.918 202.133 118.345 201.758C118.772 201.378 118.986 200.831 118.986 200.117C118.986 199.44 118.772 198.898 118.345 198.492C117.918 198.086 117.332 197.875 116.587 197.859H113.806V202.32Z" fill="#444444"/>
<path d="M58.3594 104.992V109H56.0156V97.625H60.4531C61.3073 97.625 62.0573 97.7812 62.7031 98.0938C63.3542 98.4062 63.8542 98.8516 64.2031 99.4297C64.5521 100.003 64.7266 100.656 64.7266 101.391C64.7266 102.505 64.3438 103.385 63.5781 104.031C62.8177 104.672 61.763 104.992 60.4141 104.992H58.3594ZM58.3594 103.094H60.4531C61.0729 103.094 61.5443 102.948 61.8672 102.656C62.1953 102.365 62.3594 101.948 62.3594 101.406C62.3594 100.849 62.1953 100.398 61.8672 100.055C61.5391 99.7109 61.0859 99.5339 60.5078 99.5234H58.3594V103.094ZM73.1875 104.07H68.6875V107.117H73.9688V109H66.3438V97.625H73.9531V99.5234H68.6875V102.234H73.1875V104.07ZM84.3438 107.562C83.9219 108.068 83.3255 108.461 82.5547 108.742C81.7839 109.018 80.9297 109.156 79.9922 109.156C79.0078 109.156 78.1432 108.943 77.3984 108.516C76.6589 108.083 76.0859 107.458 75.6797 106.641C75.2786 105.823 75.0729 104.862 75.0625 103.758V102.984C75.0625 101.849 75.2526 100.867 75.6328 100.039C76.0182 99.2057 76.5703 98.5703 77.2891 98.1328C78.013 97.6901 78.8594 97.4688 79.8281 97.4688C81.1771 97.4688 82.2318 97.7917 82.9922 98.4375C83.7526 99.0781 84.2031 100.013 84.3438 101.242H82.0625C81.9583 100.591 81.7266 100.115 81.3672 99.8125C81.013 99.5104 80.5234 99.3594 79.8984 99.3594C79.1016 99.3594 78.4948 99.6589 78.0781 100.258C77.6615 100.857 77.4505 101.747 77.4453 102.93V103.656C77.4453 104.849 77.6719 105.75 78.125 106.359C78.5781 106.969 79.2422 107.273 80.1172 107.273C80.9974 107.273 81.625 107.086 82 106.711V104.75H79.8672V103.023H84.3438V107.562ZM92.6719 106.656H88.5625L87.7812 109H85.2891L89.5234 97.625H91.6953L95.9531 109H93.4609L92.6719 106.656ZM89.1953 104.758H92.0391L90.6094 100.5L89.1953 104.758ZM102.914 106.016C102.914 105.573 102.758 105.234 102.445 105C102.133 104.76 101.57 104.51 100.758 104.25C99.9453 103.984 99.3021 103.724 98.8281 103.469C97.5365 102.771 96.8906 101.831 96.8906 100.648C96.8906 100.034 97.0625 99.487 97.4062 99.0078C97.7552 98.5234 98.2526 98.1458 98.8984 97.875C99.5495 97.6042 100.279 97.4688 101.086 97.4688C101.898 97.4688 102.622 97.6172 103.258 97.9141C103.893 98.2057 104.385 98.6198 104.734 99.1562C105.089 99.6927 105.266 100.302 105.266 100.984H102.922C102.922 100.464 102.758 100.06 102.43 99.7734C102.102 99.4818 101.641 99.3359 101.047 99.3359C100.474 99.3359 100.029 99.4583 99.7109 99.7031C99.3932 99.9427 99.2344 100.26 99.2344 100.656C99.2344 101.026 99.4193 101.336 99.7891 101.586C100.164 101.836 100.714 102.07 101.438 102.289C102.771 102.69 103.742 103.188 104.352 103.781C104.961 104.375 105.266 105.115 105.266 106C105.266 106.984 104.893 107.758 104.148 108.32C103.404 108.878 102.401 109.156 101.141 109.156C100.266 109.156 99.4688 108.997 98.75 108.68C98.0312 108.357 97.4818 107.917 97.1016 107.359C96.7266 106.802 96.5391 106.156 96.5391 105.422H98.8906C98.8906 106.677 99.6406 107.305 101.141 107.305C101.698 107.305 102.133 107.193 102.445 106.969C102.758 106.74 102.914 106.422 102.914 106.016ZM110.781 102.75L113.148 97.625H115.711L111.977 104.875V109H109.594V104.875L105.859 97.625H108.43L110.781 102.75ZM122.523 106.016C122.523 105.573 122.367 105.234 122.055 105C121.742 104.76 121.18 104.51 120.367 104.25C119.555 103.984 118.911 103.724 118.438 103.469C117.146 102.771 116.5 101.831 116.5 100.648C116.5 100.034 116.672 99.487 117.016 99.0078C117.365 98.5234 117.862 98.1458 118.508 97.875C119.159 97.6042 119.888 97.4688 120.695 97.4688C121.508 97.4688 122.232 97.6172 122.867 97.9141C123.503 98.2057 123.995 98.6198 124.344 99.1562C124.698 99.6927 124.875 100.302 124.875 100.984H122.531C122.531 100.464 122.367 100.06 122.039 99.7734C121.711 99.4818 121.25 99.3359 120.656 99.3359C120.083 99.3359 119.638 99.4583 119.32 99.7031C119.003 99.9427 118.844 100.26 118.844 100.656C118.844 101.026 119.029 101.336 119.398 101.586C119.773 101.836 120.323 102.07 121.047 102.289C122.38 102.69 123.352 103.188 123.961 103.781C124.57 104.375 124.875 105.115 124.875 106C124.875 106.984 124.503 107.758 123.758 108.32C123.013 108.878 122.01 109.156 120.75 109.156C119.875 109.156 119.078 108.997 118.359 108.68C117.641 108.357 117.091 107.917 116.711 107.359C116.336 106.802 116.148 106.156 116.148 105.422H118.5C118.5 106.677 119.25 107.305 120.75 107.305C121.307 107.305 121.742 107.193 122.055 106.969C122.367 106.74 122.523 106.422 122.523 106.016ZM135.031 99.5234H131.547V109H129.203V99.5234H125.766V97.625H135.031V99.5234ZM143.219 104.07H138.719V107.117H144V109H136.375V97.625H143.984V99.5234H138.719V102.234H143.219V104.07ZM148.438 97.625L151.359 105.875L154.266 97.625H157.344V109H154.992V105.891L155.227 100.523L152.156 109H150.547L147.484 100.531L147.719 105.891V109H145.375V97.625H148.438ZM165.289 106.016C165.289 105.573 165.133 105.234 164.82 105C164.508 104.76 163.945 104.51 163.133 104.25C162.32 103.984 161.677 103.724 161.203 103.469C159.911 102.771 159.266 101.831 159.266 100.648C159.266 100.034 159.438 99.487 159.781 99.0078C160.13 98.5234 160.628 98.1458 161.273 97.875C161.924 97.6042 162.654 97.4688 163.461 97.4688C164.273 97.4688 164.997 97.6172 165.633 97.9141C166.268 98.2057 166.76 98.6198 167.109 99.1562C167.464 99.6927 167.641 100.302 167.641 100.984H165.297C165.297 100.464 165.133 100.06 164.805 99.7734C164.477 99.4818 164.016 99.3359 163.422 99.3359C162.849 99.3359 162.404 99.4583 162.086 99.7031C161.768 99.9427 161.609 100.26 161.609 100.656C161.609 101.026 161.794 101.336 162.164 101.586C162.539 101.836 163.089 102.07 163.812 102.289C165.146 102.69 166.117 103.188 166.727 103.781C167.336 104.375 167.641 105.115 167.641 106C167.641 106.984 167.268 107.758 166.523 108.32C165.779 108.878 164.776 109.156 163.516 109.156C162.641 109.156 161.844 108.997 161.125 108.68C160.406 108.357 159.857 107.917 159.477 107.359C159.102 106.802 158.914 106.156 158.914 105.422H161.266C161.266 106.677 162.016 107.305 163.516 107.305C164.073 107.305 164.508 107.193 164.82 106.969C165.133 106.74 165.289 106.422 165.289 106.016Z" fill="#444444"/>
<path d="M59.3125 64.5078H58.2031V76.9062H59.3125V78.6484H55.9375V62.7656H59.3125V64.5078ZM62.7031 76H60.4375V67.5469H62.7031V76ZM60.3047 65.3594C60.3047 65.0208 60.4167 64.7422 60.6406 64.5234C60.8698 64.3047 61.1797 64.1953 61.5703 64.1953C61.9557 64.1953 62.263 64.3047 62.4922 64.5234C62.7214 64.7422 62.8359 65.0208 62.8359 65.3594C62.8359 65.7031 62.7188 65.9844 62.4844 66.2031C62.2552 66.4219 61.9505 66.5312 61.5703 66.5312C61.1901 66.5312 60.8828 66.4219 60.6484 66.2031C60.4193 65.9844 60.3047 65.7031 60.3047 65.3594ZM66.6484 67.5469L66.7188 68.5234C67.3229 67.7682 68.1328 67.3906 69.1484 67.3906C70.0443 67.3906 70.7109 67.6536 71.1484 68.1797C71.5859 68.7057 71.8099 69.4922 71.8203 70.5391V76H69.5625V70.5938C69.5625 70.1146 69.4583 69.7682 69.25 69.5547C69.0417 69.3359 68.6953 69.2266 68.2109 69.2266C67.5755 69.2266 67.099 69.4974 66.7812 70.0391V76H64.5234V67.5469H66.6484ZM76.2422 65.4688V67.5469H77.6875V69.2031H76.2422V73.4219C76.2422 73.7344 76.3021 73.9583 76.4219 74.0938C76.5417 74.2292 76.7708 74.2969 77.1094 74.2969C77.3594 74.2969 77.5807 74.2786 77.7734 74.2422V75.9531C77.3307 76.0885 76.875 76.1562 76.4062 76.1562C74.8229 76.1562 74.0156 75.3568 73.9844 73.7578V69.2031H72.75V67.5469H73.9844V65.4688H76.2422ZM82.8359 76.1562C81.5964 76.1562 80.5859 75.776 79.8047 75.0156C79.0286 74.2552 78.6406 73.2422 78.6406 71.9766V71.7578C78.6406 70.9089 78.8047 70.151 79.1328 69.4844C79.4609 68.8125 79.9245 68.2969 80.5234 67.9375C81.1276 67.5729 81.8151 67.3906 82.5859 67.3906C83.7422 67.3906 84.651 67.7552 85.3125 68.4844C85.9792 69.2135 86.3125 70.2474 86.3125 71.5859V72.5078H80.9297C81.0026 73.0599 81.2214 73.5026 81.5859 73.8359C81.9557 74.1693 82.4219 74.3359 82.9844 74.3359C83.8542 74.3359 84.5339 74.0208 85.0234 73.3906L86.1328 74.6328C85.7943 75.112 85.3359 75.487 84.7578 75.7578C84.1797 76.0234 83.5391 76.1562 82.8359 76.1562ZM82.5781 69.2188C82.1302 69.2188 81.7656 69.3698 81.4844 69.6719C81.2083 69.974 81.0312 70.4062 80.9531 70.9688H84.0938V70.7891C84.0833 70.2891 83.9479 69.9036 83.6875 69.6328C83.4271 69.3568 83.0573 69.2188 82.5781 69.2188ZM92.3516 69.6641C92.0443 69.6224 91.7734 69.6016 91.5391 69.6016C90.6849 69.6016 90.125 69.8906 89.8594 70.4688V76H87.6016V67.5469H89.7344L89.7969 68.5547C90.25 67.7786 90.8776 67.3906 91.6797 67.3906C91.9297 67.3906 92.1641 67.4245 92.3828 67.4922L92.3516 69.6641ZM95.5234 67.5469L95.5938 68.5234C96.1979 67.7682 97.0078 67.3906 98.0234 67.3906C98.9193 67.3906 99.5859 67.6536 100.023 68.1797C100.461 68.7057 100.685 69.4922 100.695 70.5391V76H98.4375V70.5938C98.4375 70.1146 98.3333 69.7682 98.125 69.5547C97.9167 69.3359 97.5703 69.2266 97.0859 69.2266C96.4505 69.2266 95.974 69.4974 95.6562 70.0391V76H93.3984V67.5469H95.5234ZM106.992 73.6641C106.992 73.388 106.854 73.1719 106.578 73.0156C106.307 72.8542 105.87 72.7109 105.266 72.5859C103.255 72.1641 102.25 71.3099 102.25 70.0234C102.25 69.2734 102.56 68.6484 103.18 68.1484C103.805 67.6432 104.62 67.3906 105.625 67.3906C106.698 67.3906 107.555 67.6432 108.195 68.1484C108.841 68.6536 109.164 69.3099 109.164 70.1172H106.906C106.906 69.7943 106.802 69.5286 106.594 69.3203C106.385 69.1068 106.06 69 105.617 69C105.237 69 104.943 69.0859 104.734 69.2578C104.526 69.4297 104.422 69.6484 104.422 69.9141C104.422 70.1641 104.539 70.3672 104.773 70.5234C105.013 70.6745 105.414 70.8073 105.977 70.9219C106.539 71.0312 107.013 71.1562 107.398 71.2969C108.591 71.7344 109.188 72.4922 109.188 73.5703C109.188 74.3411 108.857 74.9661 108.195 75.4453C107.534 75.9193 106.68 76.1562 105.633 76.1562C104.924 76.1562 104.294 76.0312 103.742 75.7812C103.195 75.526 102.766 75.1797 102.453 74.7422C102.141 74.2995 101.984 73.8229 101.984 73.3125H104.125C104.146 73.7135 104.294 74.0208 104.57 74.2344C104.846 74.4479 105.216 74.5547 105.68 74.5547C106.112 74.5547 106.438 74.474 106.656 74.3125C106.88 74.1458 106.992 73.9297 106.992 73.6641ZM112.852 68.4688C113.451 67.75 114.203 67.3906 115.109 67.3906C116.943 67.3906 117.872 68.4557 117.898 70.5859V76H115.641V70.6484C115.641 70.1641 115.536 69.8073 115.328 69.5781C115.12 69.3438 114.773 69.2266 114.289 69.2266C113.628 69.2266 113.148 69.4818 112.852 69.9922V76H110.594V64H112.852V68.4688ZM121.984 76H119.719V67.5469H121.984V76ZM119.586 65.3594C119.586 65.0208 119.698 64.7422 119.922 64.5234C120.151 64.3047 120.461 64.1953 120.852 64.1953C121.237 64.1953 121.544 64.3047 121.773 64.5234C122.003 64.7422 122.117 65.0208 122.117 65.3594C122.117 65.7031 122 65.9844 121.766 66.2031C121.536 66.4219 121.232 66.5312 120.852 66.5312C120.471 66.5312 120.164 66.4219 119.93 66.2031C119.701 65.9844 119.586 65.7031 119.586 65.3594ZM131.461 71.8516C131.461 73.1536 131.164 74.1979 130.57 74.9844C129.982 75.7656 129.185 76.1562 128.18 76.1562C127.326 76.1562 126.635 75.8594 126.109 75.2656V79.25H123.852V67.5469H125.945L126.023 68.375C126.57 67.7188 127.284 67.3906 128.164 67.3906C129.206 67.3906 130.016 67.776 130.594 68.5469C131.172 69.3177 131.461 70.3802 131.461 71.7344V71.8516ZM129.203 71.6875C129.203 70.901 129.062 70.2943 128.781 69.8672C128.505 69.4401 128.102 69.2266 127.57 69.2266C126.862 69.2266 126.375 69.4974 126.109 70.0391V73.5C126.385 74.0573 126.878 74.3359 127.586 74.3359C128.664 74.3359 129.203 73.4531 129.203 71.6875ZM132.102 62.7656H135.477V78.6484H132.102V76.9062H133.219V64.5078H132.102V62.7656Z" fill="#444444"/>
<defs>
<filter id="filter0_d" x="0" y="0" width="308" height="282" filterUnits="userSpaceOnUse" color-interpolation-filters="sRGB">
<feFlood flood-opacity="0" result="BackgroundImageFix"/>
<feColorMatrix in="SourceAlpha" type="matrix" values="0 0 0 0 0 0 0 0 0 0 0 0 0 0 0 0 0 0 127 0"/>
<feOffset dy="4"/>
<feGaussianBlur stdDeviation="2"/>
<feColorMatrix type="matrix" values="0 0 0 0 0 0 0 0 0 0 0 0 0 0 0 0 0 0 0.25 0"/>
<feBlend mode="normal" in2="BackgroundImageFix" result="effect1_dropShadow"/>
<feBlend mode="normal" in="SourceGraphic" in2="effect1_dropShadow" result="shape"/>
</filter>
</defs>
</svg>
