<svg width="398" height="343" viewBox="0 0 398 343" fill="none" xmlns="http://www.w3.org/2000/svg">
<rect y="43" width="398" height="280" rx="20" fill="#0A121C"/>
<path d="M208.739 150.561H199.047V140.869C199.047 128.009 209.472 117.584 222.332 117.584H229.938C231.09 117.584 232.024 118.518 232.024 119.67V127.276C232.024 140.135 221.599 150.561 208.739 150.561V150.561Z" fill="#B3E59F"/>
<path d="M189.355 162.288H199.047V152.596C199.047 139.737 188.622 129.312 175.762 129.312H168.156C167.004 129.312 166.07 130.246 166.07 131.397V139.003C166.07 151.863 176.495 162.288 189.355 162.288Z" fill="#B3E59F"/>
<path d="M196.028 153.231C194.553 151.565 194.708 149.019 196.374 147.544L210.201 135.302C211.867 133.826 214.414 133.982 215.889 135.647C217.364 137.313 217.209 139.86 215.543 141.335L201.716 153.577C200.056 155.048 197.508 154.903 196.028 153.231Z" fill="#78C2A4"/>
<path d="M290.809 150.562H281.117V140.87C281.117 128.01 291.542 117.585 304.402 117.585H312.008C313.16 117.585 314.094 118.519 314.094 119.671V127.277C314.094 140.136 303.669 150.562 290.809 150.562Z" fill="#B3E59F"/>
<path d="M271.425 162.289H281.117V152.597C281.117 139.738 270.692 129.312 257.832 129.312H250.227C249.075 129.312 248.141 130.246 248.141 131.398V139.004C248.14 151.864 258.566 162.289 271.425 162.289Z" fill="#B3E59F"/>
<path d="M278.102 153.231C276.627 151.565 276.782 149.019 278.448 147.544L292.275 135.302C293.942 133.826 296.489 133.982 297.963 135.647C299.439 137.313 299.284 139.86 297.618 141.335L283.79 153.577C282.13 155.048 279.582 154.903 278.102 153.231V153.231Z" fill="#78C2A4"/>
<path d="M126.668 150.561H116.977V140.869C116.977 128.009 127.402 117.584 140.261 117.584H147.867C149.019 117.584 149.953 118.518 149.953 119.67V127.276C149.953 140.135 139.528 150.561 126.668 150.561Z" fill="#B3E59F"/>
<path d="M107.285 162.288H116.977V152.596C116.977 139.737 106.552 129.312 93.6918 129.312H86.0859C84.934 129.312 84 130.246 84 131.397V139.003C84 151.863 94.425 162.288 107.285 162.288V162.288Z" fill="#B3E59F"/>
<path d="M116.978 180.478C114.753 180.478 112.949 178.674 112.949 176.449V150.427C112.949 148.202 114.753 146.398 116.978 146.398C119.203 146.398 121.007 148.202 121.007 150.427V176.449C121.007 178.675 119.203 180.478 116.978 180.478Z" fill="#78C2A4"/>
<path d="M113.958 153.23C112.483 151.564 112.638 149.018 114.304 147.543L128.131 135.301C129.797 133.825 132.344 133.981 133.818 135.646C135.294 137.312 135.139 139.859 133.472 141.334L119.646 153.576C117.985 155.047 115.438 154.902 113.958 153.23V153.23Z" fill="#78C2A4"/>
<path d="M114.13 165.137L100.255 151.262C98.6808 149.688 98.6808 147.137 100.255 145.563C101.828 143.991 104.38 143.991 105.953 145.563L119.828 159.439C121.402 161.012 121.402 163.563 119.828 165.137C118.255 166.711 115.703 166.71 114.13 165.137V165.137Z" fill="#78C2A4"/>
<path d="M278.267 165.137L264.391 151.262C262.817 149.689 262.817 147.137 264.391 145.564C265.965 143.99 268.516 143.991 270.09 145.564L283.965 159.439C285.539 161.012 285.539 163.563 283.965 165.137C282.391 166.71 279.841 166.71 278.267 165.137Z" fill="#78C2A4"/>
<path d="M199.045 180.478C196.819 180.478 195.016 178.674 195.016 176.449V150.427C195.016 148.202 196.819 146.398 199.045 146.398C201.27 146.398 203.074 148.202 203.074 150.427V176.449C203.074 178.675 201.27 180.478 199.045 180.478Z" fill="#78C2A4"/>
<path d="M196.197 165.137L182.321 151.262C180.747 149.689 180.747 147.137 182.321 145.564C183.894 143.99 186.445 143.991 188.019 145.564L201.894 159.439C203.468 161.012 203.468 163.563 201.894 165.137C200.321 166.71 197.77 166.71 196.197 165.137V165.137Z" fill="#78C2A4"/>
<path d="M281.119 180.478C278.894 180.478 277.09 178.674 277.09 176.449V150.56C277.09 148.335 278.894 146.531 281.119 146.531C283.344 146.531 285.148 148.335 285.148 150.56V176.449C285.148 178.675 283.344 180.478 281.119 180.478Z" fill="#78C2A4"/>
<path d="M110.781 90.4543C109.549 90.4543 108.585 89.3915 108.701 88.1645C109.826 76.2261 119.349 64.8619 123.84 54.5031C126.533 48.2933 122.079 42.4453 126.031 37.0511C138.907 19.4754 157.977 6.72198 180.024 2.00306C186.158 0.69048 192.521 7.8218 199.047 7.8218C243.771 7.8218 280.915 32.4583 288.205 75.1044C288.94 79.4098 289.372 83.8184 289.476 88.3084C289.504 89.4833 288.564 90.4543 287.388 90.4543H110.781Z" fill="#9DC6FB"/>
<path d="M182.93 8.05852C230.17 8.05852 268.946 44.2741 273.024 90.4553H287.39C288.567 90.4553 289.504 89.4817 289.477 88.3052C288.335 39.3414 248.285 0 199.047 0C181.3 0 164.749 5.11525 150.781 13.9456C160.771 10.1455 171.606 8.05852 182.93 8.05852V8.05852Z" fill="#80B4FB"/>
<path d="M288.182 75.11C280.891 32.466 243.773 7.82267 199.05 7.82267C192.524 7.82267 186.165 0.706996 180.031 2.0201C181.836 9.28544 183.677 17.818 185.335 27.8858C188.046 44.3507 189.182 58.3114 197.028 60.838C204.669 63.2989 210.879 52.4034 221.476 54.4602C230.368 56.1858 231.613 64.9462 239.547 71.4679C250.308 80.3139 270.552 82.7185 288.182 75.11V75.11Z" fill="#B3E59F"/>
<path d="M271.355 79.4071C276.974 78.8689 282.705 77.4734 288.182 75.109C279.271 24.5415 230.785 -8.72092 180.031 2.01961C180.51 3.9465 180.991 5.96517 181.471 8.0751C225.11 7.2788 262.627 38.1721 271.355 79.4071V79.4071Z" fill="#95D6A4"/>
<path d="M146.153 60.4235C143.316 51.2683 135.535 42.7477 126.046 37.0625C115.23 51.7726 109.051 69.8619 108.618 88.3079C108.59 89.4838 109.529 90.4559 110.706 90.4559H146.874C145.59 75.9101 149.052 69.7769 146.153 60.4235V60.4235Z" fill="#B3E59F"/>
<path d="M287.39 176.545C288.566 176.545 289.506 177.516 289.478 178.691C288.957 201.085 280.297 221.466 266.342 236.992C249.783 255.414 225.769 259.178 199.048 259.178C188.276 259.178 177.944 265.117 168.362 261.662C154.921 256.816 142.957 248.876 133.331 238.701C127.939 233.002 131.102 226.602 127.328 219.651C120.703 207.453 109.715 193.56 108.673 178.789C108.588 177.578 109.542 176.545 110.756 176.545H287.39Z" fill="#9DC6FB"/>
<path d="M273.024 176.544C268.946 222.725 230.171 258.941 182.93 258.941C171.606 258.941 160.771 256.854 150.781 253.054C156.271 256.524 162.159 259.421 168.362 261.658C177.943 265.115 188.275 259.177 199.047 259.177C225.768 259.177 249.782 255.413 266.341 236.991C280.296 221.465 288.956 201.083 289.477 178.69C289.505 177.515 288.565 176.544 287.389 176.544H273.024Z" fill="#80B4FB"/>
<path d="M111.802 200.486C115.784 215.002 123.295 228.057 133.349 238.683C144.696 231.14 152.828 218.997 153.598 208.106C154.11 200.863 150.943 200.177 148.183 185.77C147.526 182.34 147.116 179.293 146.873 176.544H110.704C109.537 176.544 108.591 177.502 108.618 178.67C108.619 178.725 108.62 178.78 108.622 178.835C108.804 186.146 109.868 193.434 111.802 200.486V200.486Z" fill="#B3E59F"/>
<path d="M168.367 261.653C177.948 265.108 188.277 267 199.05 267C225.77 267 249.777 255.407 266.336 236.985C260.29 228.02 251.17 219.691 246.013 214.987C238.866 208.465 221.827 192.919 211.319 197.955C203.103 201.893 207.117 214.465 199.965 230.757C192.52 247.713 178.5 256.137 168.367 261.653V261.653Z" fill="#B3E59F"/>
<path d="M168.367 261.653C177.948 265.108 188.277 267 199.05 267C225.77 267 249.777 255.407 266.336 236.985C260.29 228.02 251.17 219.691 246.013 214.987C238.866 208.465 221.827 192.919 211.319 197.955C203.103 201.893 207.117 214.465 199.965 230.757C192.52 247.713 178.5 256.137 168.367 261.653V261.653Z" fill="#B3E59F"/>
<path d="M254.832 223.363C236.858 247.299 205.766 261.799 173.928 258.492C173.926 258.493 173.925 258.494 173.923 258.495C171.999 259.645 170.248 260.628 168.371 261.649C168.427 261.671 168.485 261.692 168.541 261.713C178.074 265.128 188.341 266.999 199.049 266.999C225.769 266.999 249.776 255.407 266.334 236.984C263.006 232.062 259.003 227.579 254.832 223.363V223.363Z" fill="#95D6A4"/>
<path d="M295.064 237.245C295.032 237.011 294.841 236.82 294.607 236.787C293.118 236.578 291.499 237.083 290.293 238.288C289.088 239.494 288.583 241.113 288.792 242.602C288.825 242.836 289.016 243.027 289.25 243.06C290.739 243.269 292.358 242.764 293.563 241.559C294.769 240.353 295.274 238.734 295.064 237.245Z" fill="#B4E66E"/>
<path d="M295.064 237.245C295.048 237.128 294.992 237.022 294.911 236.94L288.945 242.906C289.026 242.987 289.132 243.043 289.25 243.059C290.738 243.269 292.358 242.763 293.563 241.558C294.768 240.353 295.274 238.733 295.064 237.245Z" fill="#A0D755"/>
<path d="M280.381 230.619C280.097 230.646 279.875 230.868 279.848 231.151C279.744 232.249 280.138 233.419 281.02 234.301C281.902 235.183 283.073 235.577 284.17 235.473C284.453 235.446 284.675 235.224 284.702 234.941C284.807 233.843 284.413 232.672 283.531 231.79C282.649 230.908 281.478 230.515 280.381 230.619Z" fill="#B4E66E"/>
<path d="M281.02 234.301C281.902 235.183 283.073 235.577 284.17 235.473C284.312 235.46 284.438 235.397 284.532 235.303L280.018 230.789C279.924 230.883 279.862 231.01 279.848 231.151C279.744 232.249 280.138 233.42 281.02 234.301Z" fill="#A0D755"/>
<path d="M274.983 239.799C274.752 239.838 274.566 240.024 274.527 240.255C274.146 242.503 274.883 244.98 276.713 246.81C278.543 248.64 281.02 249.376 283.268 248.995C283.498 248.956 283.684 248.77 283.724 248.539C284.105 246.291 283.368 243.814 281.538 241.984C279.708 240.154 277.231 239.418 274.983 239.799Z" fill="#B4E66E"/>
<path d="M276.713 246.81C278.543 248.64 281.02 249.376 283.268 248.995C283.383 248.976 283.487 248.919 283.567 248.839L274.683 239.955C274.603 240.035 274.547 240.14 274.527 240.255C274.146 242.503 274.883 244.98 276.713 246.81Z" fill="#A0D755"/>
<path d="M297.361 265.861C296.483 263.854 294.482 262.449 292.151 262.449C292.001 262.449 291.854 262.457 291.708 262.47C291.416 262.496 291.132 262.402 290.898 262.226C289.662 261.297 288.129 260.743 286.464 260.743C284.799 260.743 283.265 261.297 282.03 262.226C281.796 262.402 281.512 262.496 281.22 262.47C281.074 262.457 280.926 262.449 280.777 262.449C278.445 262.449 276.444 263.854 275.566 265.861H297.361Z" fill="#9B735A"/>
<path d="M291.412 240.436C291.19 240.214 290.83 240.214 290.608 240.436L287.389 243.656C287.261 243.784 287.142 243.919 287.029 244.058V239.701C287.029 238.03 286.379 236.459 285.197 235.277L282.638 232.718C282.416 232.496 282.056 232.496 281.834 232.718C281.612 232.941 281.612 233.3 281.834 233.523L284.393 236.082C285.36 237.048 285.892 238.334 285.892 239.701V250.627C285.6 250.165 285.26 249.728 284.864 249.331L279.994 244.461C279.772 244.239 279.412 244.239 279.19 244.461C278.968 244.684 278.968 245.043 279.19 245.266L284.06 250.136C285.241 251.317 285.892 252.888 285.892 254.559V261.311H287.03V247.274C287.03 246.212 287.443 245.212 288.194 244.46L291.412 241.24C291.634 241.018 291.634 240.658 291.412 240.436Z" fill="#87BE4B"/>
<path d="M287.692 260.846C287.292 260.778 286.882 260.743 286.464 260.743C284.799 260.743 283.265 261.297 282.03 262.226C281.796 262.402 281.512 262.496 281.22 262.47C281.074 262.457 280.926 262.449 280.777 262.449C278.445 262.449 276.444 263.854 275.566 265.861H282.979C283.779 263.601 285.496 261.775 287.692 260.846Z" fill="#8C5F50"/>
<path d="M298.974 266.429H273.952C273.637 266.429 273.383 266.175 273.383 265.861C273.383 265.546 273.637 265.292 273.952 265.292H298.974C299.288 265.292 299.542 265.546 299.542 265.861C299.542 266.175 299.288 266.429 298.974 266.429Z" fill="#AE8B70"/>
<path fill-rule="evenodd" clip-rule="evenodd" d="M266 196.412C266 193.423 268.472 191 271.519 191H301.481C304.529 191 307 193.422 307 196.412V261.267C307 264.256 304.528 266.679 301.481 266.679H271.519C268.471 266.679 266 264.258 266 261.267V196.412ZM268.365 196.404V261.276C268.365 262.975 269.778 264.363 271.521 264.363H301.479C303.224 264.363 304.635 262.981 304.635 261.276V196.404C304.635 194.704 303.224 193.317 301.484 193.317H295.963C295.532 193.317 294.991 193.614 294.766 193.98L293.214 196.514C292.993 196.875 292.454 197.178 292.019 197.178H280.981C280.543 197.178 280.01 196.881 279.786 196.514L278.234 193.98C278.013 193.62 277.473 193.317 277.037 193.317H271.516C269.782 193.317 268.365 194.699 268.365 196.404Z" fill="white"/>
<path d="M203.5 288.5H306.5V303C306.5 313.77 297.77 322.5 287 322.5H203.5C194.111 322.5 186.5 314.889 186.5 305.5C186.5 296.111 194.111 288.5 203.5 288.5Z" stroke="white"/>
<path d="M207.283 308.18C207.283 308.51 207.3 308.787 207.335 309.012C207.375 309.232 207.43 309.412 207.5 309.552C207.575 309.687 207.665 309.785 207.77 309.845C207.88 309.9 208.005 309.927 208.145 309.927C208.38 309.927 208.613 309.9 208.843 309.845C209.073 309.79 209.288 309.727 209.488 309.657C209.688 309.582 209.865 309.51 210.02 309.44C210.175 309.365 210.295 309.31 210.38 309.275L210.898 310.182C210.853 310.222 210.743 310.295 210.568 310.4C210.398 310.5 210.18 310.605 209.915 310.715C209.655 310.825 209.36 310.92 209.03 311C208.7 311.085 208.355 311.128 207.995 311.128C207.545 311.128 207.183 311.045 206.908 310.88C206.638 310.715 206.43 310.49 206.285 310.205C206.14 309.92 206.045 309.59 206 309.215C205.955 308.835 205.933 308.43 205.933 308V303.95H203.75V302.75H205.933V301.182L207.245 300.35V302.75H210.875L210.725 303.95H207.283V308.18ZM215.688 304.287L216.371 303.102C216.511 302.997 216.671 302.912 216.851 302.847C217.031 302.782 217.216 302.735 217.406 302.705C217.596 302.67 217.786 302.647 217.976 302.637C218.171 302.627 218.356 302.622 218.531 302.622C218.906 302.622 219.226 302.64 219.491 302.675C219.756 302.705 219.978 302.745 220.158 302.795C220.343 302.845 220.491 302.897 220.601 302.952C220.711 303.002 220.796 303.047 220.856 303.087L221.231 305.225L220.106 305.375L219.731 304.04C219.691 304.025 219.628 304.01 219.543 303.995C219.458 303.98 219.361 303.965 219.251 303.95C219.141 303.935 219.023 303.922 218.898 303.912C218.778 303.902 218.663 303.897 218.553 303.897C218.213 303.897 217.898 303.937 217.608 304.017C217.318 304.092 217.053 304.197 216.813 304.332C216.573 304.467 216.358 304.625 216.168 304.805C215.983 304.985 215.823 305.175 215.688 305.375V311H214.338V302.75L215.688 302.6V304.287ZM230.837 311H229.337V309.785L228.632 310.625C228.547 310.69 228.437 310.752 228.302 310.812C228.172 310.872 228.032 310.927 227.882 310.977C227.732 311.023 227.579 311.058 227.424 311.083C227.269 311.113 227.122 311.128 226.982 311.128C226.607 311.128 226.229 311.07 225.849 310.955C225.469 310.835 225.127 310.662 224.822 310.437C224.517 310.207 224.267 309.925 224.072 309.59C223.882 309.25 223.787 308.86 223.787 308.42C223.787 307.955 223.884 307.555 224.079 307.22C224.279 306.88 224.539 306.6 224.859 306.38C225.179 306.16 225.544 305.997 225.954 305.892C226.364 305.787 226.779 305.735 227.199 305.735C227.674 305.735 228.087 305.762 228.437 305.817C228.787 305.867 229.087 305.94 229.337 306.035V305.712C229.337 305.417 229.299 305.152 229.224 304.917C229.154 304.682 229.042 304.485 228.887 304.325C228.732 304.16 228.532 304.035 228.287 303.95C228.047 303.865 227.759 303.822 227.424 303.822C227.109 303.822 226.837 303.842 226.607 303.882C226.382 303.917 226.172 303.957 225.977 304.002C225.862 304.027 225.752 304.055 225.647 304.085C225.542 304.115 225.439 304.145 225.339 304.175L224.799 303.17C225.009 303.075 225.259 302.985 225.549 302.9C225.789 302.83 226.062 302.767 226.367 302.712C226.677 302.652 227.054 302.622 227.499 302.622C228.074 302.622 228.564 302.7 228.969 302.855C229.374 303.01 229.704 303.227 229.959 303.507C230.214 303.787 230.399 304.125 230.514 304.52C230.629 304.91 230.687 305.345 230.687 305.825V309.65L230.837 311ZM229.337 307.062L228.887 307.002C228.817 306.997 228.724 306.99 228.609 306.98C228.494 306.97 228.369 306.962 228.234 306.957L227.837 306.942C227.707 306.937 227.594 306.935 227.499 306.935C227.219 306.935 226.944 306.96 226.674 307.01C226.404 307.06 226.162 307.142 225.947 307.257C225.737 307.372 225.564 307.525 225.429 307.715C225.299 307.9 225.234 308.132 225.234 308.412C225.234 308.637 225.284 308.842 225.384 309.027C225.484 309.212 225.617 309.372 225.782 309.507C225.952 309.642 226.144 309.747 226.359 309.822C226.579 309.892 226.807 309.927 227.042 309.927C227.507 309.927 227.924 309.84 228.294 309.665C228.664 309.485 229.012 309.245 229.337 308.945V307.062ZM239.483 304.257C239.388 304.212 239.273 304.162 239.138 304.107C239.008 304.047 238.86 303.995 238.695 303.95C238.53 303.9 238.348 303.86 238.148 303.83C237.953 303.795 237.743 303.777 237.518 303.777C237.213 303.777 236.915 303.792 236.625 303.822C236.335 303.852 236.078 303.907 235.853 303.987C235.628 304.067 235.445 304.175 235.305 304.31C235.17 304.445 235.103 304.62 235.103 304.835C235.103 305.015 235.17 305.17 235.305 305.3C235.44 305.425 235.615 305.535 235.83 305.63C236.05 305.72 236.298 305.8 236.573 305.87C236.848 305.935 237.125 305.997 237.405 306.057C237.685 306.117 237.955 306.177 238.215 306.237C238.475 306.292 238.7 306.355 238.89 306.425C239.11 306.51 239.315 306.617 239.505 306.747C239.7 306.877 239.87 307.03 240.015 307.205C240.16 307.375 240.273 307.565 240.353 307.775C240.438 307.98 240.48 308.202 240.48 308.442C240.48 308.767 240.418 309.06 240.293 309.32C240.168 309.575 239.998 309.802 239.783 310.002C239.573 310.197 239.328 310.367 239.048 310.512C238.768 310.652 238.47 310.77 238.155 310.865C237.845 310.955 237.528 311.02 237.203 311.06C236.883 311.105 236.575 311.128 236.28 311.128C236.11 311.128 235.898 311.11 235.643 311.075C235.393 311.045 235.135 311.003 234.87 310.947C234.61 310.887 234.363 310.817 234.128 310.737C233.893 310.657 233.71 310.572 233.58 310.482L234.075 309.417C234.195 309.477 234.353 309.537 234.548 309.597C234.743 309.657 234.948 309.712 235.163 309.762C235.378 309.812 235.585 309.852 235.785 309.882C235.99 309.912 236.16 309.927 236.295 309.927C236.45 309.927 236.623 309.92 236.813 309.905C237.008 309.885 237.205 309.855 237.405 309.815C237.61 309.77 237.808 309.712 237.998 309.642C238.193 309.567 238.365 309.475 238.515 309.365C238.665 309.255 238.785 309.125 238.875 308.975C238.97 308.825 239.018 308.65 239.018 308.45C239.018 308.255 238.953 308.09 238.823 307.955C238.693 307.82 238.52 307.705 238.305 307.61C238.09 307.515 237.848 307.435 237.578 307.37C237.313 307.3 237.04 307.235 236.76 307.175C236.48 307.115 236.21 307.055 235.95 306.995C235.69 306.93 235.463 306.85 235.268 306.755C234.983 306.62 234.745 306.475 234.555 306.32C234.37 306.16 234.22 305.992 234.105 305.817C233.995 305.642 233.918 305.46 233.873 305.27C233.828 305.08 233.805 304.885 233.805 304.685C233.805 304.33 233.905 304.022 234.105 303.762C234.31 303.502 234.583 303.29 234.923 303.125C235.263 302.955 235.653 302.83 236.093 302.75C236.533 302.665 236.993 302.622 237.473 302.622C237.733 302.622 237.985 302.637 238.23 302.667C238.48 302.697 238.713 302.737 238.928 302.787C239.148 302.837 239.343 302.895 239.513 302.96C239.683 303.02 239.818 303.082 239.918 303.147L239.483 304.257ZM244.956 311H243.606V300.5L243.456 299L244.956 298.85V303.875L245.623 303.012C245.818 302.902 246.098 302.81 246.463 302.735C246.828 302.66 247.298 302.622 247.873 302.622C248.628 302.622 249.203 302.872 249.598 303.372C249.998 303.867 250.198 304.585 250.198 305.525V311H248.773V305.682C248.773 305.347 248.743 305.062 248.683 304.827C248.628 304.592 248.548 304.4 248.443 304.25C248.338 304.1 248.208 303.992 248.053 303.927C247.898 303.857 247.723 303.822 247.528 303.822C247.228 303.822 246.941 303.852 246.666 303.912C246.396 303.972 246.148 304.05 245.923 304.145C245.698 304.235 245.501 304.335 245.331 304.445C245.166 304.555 245.041 304.657 244.956 304.752V311ZM256.062 308.18C256.062 308.51 256.079 308.787 256.114 309.012C256.154 309.232 256.209 309.412 256.279 309.552C256.354 309.687 256.444 309.785 256.549 309.845C256.659 309.9 256.784 309.927 256.924 309.927C257.159 309.927 257.392 309.9 257.622 309.845C257.852 309.79 258.067 309.727 258.267 309.657C258.467 309.582 258.644 309.51 258.799 309.44C258.954 309.365 259.074 309.31 259.159 309.275L259.677 310.182C259.632 310.222 259.522 310.295 259.347 310.4C259.177 310.5 258.959 310.605 258.694 310.715C258.434 310.825 258.139 310.92 257.809 311C257.479 311.085 257.134 311.128 256.774 311.128C256.324 311.128 255.962 311.045 255.687 310.88C255.417 310.715 255.209 310.49 255.064 310.205C254.919 309.92 254.824 309.59 254.779 309.215C254.734 308.835 254.712 308.43 254.712 308V303.95H252.529V302.75H254.712V301.182L256.024 300.35V302.75H259.654L259.504 303.95H256.062V308.18ZM269.86 311H268.36V309.785L267.655 310.625C267.57 310.69 267.46 310.752 267.325 310.812C267.195 310.872 267.055 310.927 266.905 310.977C266.755 311.023 266.603 311.058 266.448 311.083C266.293 311.113 266.145 311.128 266.005 311.128C265.63 311.128 265.253 311.07 264.873 310.955C264.493 310.835 264.15 310.662 263.845 310.437C263.54 310.207 263.29 309.925 263.095 309.59C262.905 309.25 262.81 308.86 262.81 308.42C262.81 307.955 262.908 307.555 263.103 307.22C263.303 306.88 263.563 306.6 263.883 306.38C264.203 306.16 264.568 305.997 264.978 305.892C265.388 305.787 265.803 305.735 266.223 305.735C266.698 305.735 267.11 305.762 267.46 305.817C267.81 305.867 268.11 305.94 268.36 306.035V305.712C268.36 305.417 268.323 305.152 268.248 304.917C268.178 304.682 268.065 304.485 267.91 304.325C267.755 304.16 267.555 304.035 267.31 303.95C267.07 303.865 266.783 303.822 266.448 303.822C266.133 303.822 265.86 303.842 265.63 303.882C265.405 303.917 265.195 303.957 265 304.002C264.885 304.027 264.775 304.055 264.67 304.085C264.565 304.115 264.463 304.145 264.363 304.175L263.823 303.17C264.033 303.075 264.283 302.985 264.573 302.9C264.813 302.83 265.085 302.767 265.39 302.712C265.7 302.652 266.078 302.622 266.523 302.622C267.098 302.622 267.588 302.7 267.993 302.855C268.398 303.01 268.728 303.227 268.983 303.507C269.238 303.787 269.423 304.125 269.538 304.52C269.653 304.91 269.71 305.345 269.71 305.825V309.65L269.86 311ZM268.36 307.062L267.91 307.002C267.84 306.997 267.748 306.99 267.633 306.98C267.518 306.97 267.393 306.962 267.258 306.957L266.86 306.942C266.73 306.937 266.618 306.935 266.523 306.935C266.243 306.935 265.968 306.96 265.698 307.01C265.428 307.06 265.185 307.142 264.97 307.257C264.76 307.372 264.588 307.525 264.453 307.715C264.323 307.9 264.258 308.132 264.258 308.412C264.258 308.637 264.308 308.842 264.408 309.027C264.508 309.212 264.64 309.372 264.805 309.507C264.975 309.642 265.168 309.747 265.383 309.822C265.603 309.892 265.83 309.927 266.065 309.927C266.53 309.927 266.948 309.84 267.318 309.665C267.688 309.485 268.035 309.245 268.36 308.945V307.062ZM275.116 300.35L275.416 299.9L274.366 300.2H272.859L272.709 299H276.466V308.18C276.466 308.51 276.491 308.787 276.541 309.012C276.591 309.232 276.659 309.412 276.744 309.552C276.829 309.687 276.931 309.785 277.051 309.845C277.171 309.9 277.301 309.927 277.441 309.927C277.641 309.927 277.824 309.912 277.989 309.882C278.159 309.852 278.309 309.815 278.439 309.77C278.574 309.725 278.689 309.677 278.784 309.627C278.884 309.577 278.964 309.535 279.024 309.5L279.541 310.407C279.501 310.442 279.419 310.5 279.294 310.58C279.169 310.66 279.009 310.74 278.814 310.82C278.624 310.9 278.399 310.97 278.139 311.03C277.884 311.095 277.601 311.128 277.291 311.128C276.841 311.128 276.474 311.045 276.189 310.88C275.904 310.715 275.681 310.49 275.521 310.205C275.366 309.92 275.259 309.59 275.199 309.215C275.144 308.835 275.116 308.43 275.116 308V300.35ZM282.629 311V300.35L282.479 299L283.979 298.85V305.825L286.904 302.75H288.622L285.772 305.825L284.437 306.297L285.772 306.747L289.454 311H287.684L283.979 306.822V311H282.629Z" fill="white"/>
<rect x="0.5" y="0.5" width="397" height="342" stroke="black"/>
</svg>
