<svg width="283" height="260" viewBox="0 0 283 260" fill="none" xmlns="http://www.w3.org/2000/svg">
<g filter="url(#filter0_d)">
<rect x="4" width="275" height="251.167" rx="5" fill="#0D1A2E"/>
</g>
<path d="M148.767 52.6421C148.734 52.4079 148.544 52.2173 148.309 52.1843C146.821 51.9747 145.201 52.48 143.996 53.6854C142.791 54.8907 142.285 56.5101 142.495 57.9988C142.528 58.233 142.718 58.4235 142.953 58.4565C144.441 58.6661 146.061 58.1608 147.266 56.9555C148.472 55.7502 148.977 54.1308 148.767 52.6421Z" fill="#B4E66E"/>
<path d="M148.767 52.6417C148.751 52.5246 148.695 52.4185 148.614 52.3374L142.648 58.3027C142.729 58.3838 142.836 58.4397 142.953 58.4561C144.441 58.6658 146.061 58.1604 147.266 56.9551C148.471 55.7499 148.977 54.1304 148.767 52.6417Z" fill="#A0D755"/>
<path d="M134.082 46.0164C133.799 46.0433 133.577 46.2653 133.55 46.5486C133.446 47.646 133.84 48.8168 134.722 49.6988C135.604 50.5807 136.774 50.9745 137.872 50.8703C138.155 50.8433 138.377 50.6214 138.404 50.3381C138.508 49.2406 138.114 48.0699 137.232 47.1879C136.35 46.3059 135.18 45.9121 134.082 46.0164Z" fill="#B4E66E"/>
<path d="M134.722 49.6989C135.604 50.5809 136.774 50.9747 137.872 50.8705C138.013 50.8571 138.14 50.7949 138.234 50.7006L133.72 46.1865C133.626 46.2808 133.564 46.4071 133.55 46.5488C133.446 47.6462 133.84 48.817 134.722 49.6989Z" fill="#A0D755"/>
<path d="M128.687 55.1957C128.456 55.2348 128.27 55.4209 128.231 55.6516C127.85 57.8997 128.586 60.3766 130.416 62.2066C132.246 64.0366 134.723 64.773 136.971 64.3921C137.202 64.3529 137.388 64.1668 137.427 63.9362C137.808 61.6881 137.072 59.2112 135.242 57.3812C133.412 55.5512 130.935 54.8147 128.687 55.1957Z" fill="#B4E66E"/>
<path d="M130.416 62.2073C132.246 64.0373 134.723 64.7737 136.971 64.3928C137.087 64.3733 137.191 64.3169 137.271 64.2367L128.387 55.3525C128.307 55.4328 128.25 55.537 128.231 55.6523C127.85 57.9003 128.586 60.3773 130.416 62.2073Z" fill="#A0D755"/>
<path d="M151.063 81.2583C150.185 79.2507 148.184 77.8462 145.852 77.8462C145.703 77.8462 145.555 77.8537 145.41 77.8667C145.118 77.8927 144.834 77.7993 144.599 77.6232C143.364 76.6938 141.831 76.1401 140.166 76.1401C138.501 76.1401 136.967 76.6938 135.732 77.6232C135.498 77.7994 135.213 77.8928 134.922 77.8667C134.776 77.8537 134.628 77.8462 134.479 77.8462C132.147 77.8462 130.146 79.2506 129.268 81.2583H151.063Z" fill="#9B735A"/>
<path d="M145.117 55.8341C144.895 55.6119 144.535 55.6119 144.313 55.8341L141.094 59.0541C140.966 59.1824 140.847 59.317 140.734 59.456V55.0988C140.734 53.4283 140.083 51.8572 138.902 50.6754L136.343 48.1163C136.121 47.8942 135.761 47.8942 135.539 48.1163C135.317 48.3385 135.317 48.6983 135.539 48.9205L138.098 51.4796C139.064 52.4464 139.597 53.7321 139.597 55.0988V66.0254C139.305 65.5626 138.965 65.1258 138.569 64.7293L133.699 59.8594C133.477 59.6372 133.117 59.6372 132.895 59.8594C132.673 60.0815 132.673 60.4414 132.895 60.6635L137.765 65.5335C138.946 66.7153 139.597 68.2864 139.597 69.9569V76.7089H140.734V62.6722C140.734 61.6098 141.148 60.6102 141.899 59.8583L145.117 56.6383C145.339 56.4161 145.339 56.0562 145.117 55.8341Z" fill="#87BE4B"/>
<path d="M141.393 76.2425C140.994 76.1754 140.584 76.1401 140.166 76.1401C138.501 76.1401 136.967 76.6938 135.732 77.6231C135.498 77.7993 135.213 77.8927 134.922 77.8666C134.776 77.8536 134.628 77.8461 134.479 77.8461C132.147 77.8461 130.146 79.2505 129.268 81.2583H136.681C137.481 78.9983 139.198 77.1717 141.393 76.2425Z" fill="#8C5F50"/>
<path d="M152.677 81.8268H127.655C127.34 81.8268 127.086 81.5725 127.086 81.2581C127.086 80.9438 127.34 80.6895 127.655 80.6895H152.677C152.991 80.6895 153.246 80.9438 153.246 81.2581C153.246 81.5725 152.991 81.8268 152.677 81.8268Z" fill="#AE8B70"/>
<path d="M101.252 141H99.3541V132.547H101.252V141ZM99.2369 130.352C99.2369 130.06 99.328 129.818 99.5103 129.625C99.6978 129.432 99.9634 129.336 100.307 129.336C100.651 129.336 100.917 129.432 101.104 129.625C101.292 129.818 101.385 130.06 101.385 130.352C101.385 130.638 101.292 130.878 101.104 131.07C100.917 131.258 100.651 131.352 100.307 131.352C99.9634 131.352 99.6978 131.258 99.5103 131.07C99.328 130.878 99.2369 130.638 99.2369 130.352ZM106.792 132.547L106.847 133.43C107.44 132.737 108.253 132.391 109.284 132.391C110.414 132.391 111.188 132.823 111.604 133.688C112.219 132.823 113.084 132.391 114.198 132.391C115.13 132.391 115.823 132.648 116.276 133.164C116.735 133.68 116.969 134.44 116.979 135.445V141H115.081V135.5C115.081 134.964 114.964 134.57 114.729 134.32C114.495 134.07 114.107 133.945 113.565 133.945C113.133 133.945 112.779 134.062 112.503 134.297C112.232 134.526 112.042 134.828 111.932 135.203L111.94 141H110.042V135.438C110.016 134.443 109.508 133.945 108.518 133.945C107.758 133.945 107.219 134.255 106.901 134.875V141H105.003V132.547H106.792ZM128.011 136.859C128.011 138.167 127.714 139.211 127.12 139.992C126.527 140.768 125.73 141.156 124.73 141.156C123.803 141.156 123.06 140.852 122.503 140.242V144.25H120.605V132.547H122.355L122.433 133.406C122.99 132.729 123.748 132.391 124.706 132.391C125.737 132.391 126.545 132.776 127.128 133.547C127.717 134.312 128.011 135.378 128.011 136.742V136.859ZM126.12 136.695C126.12 135.852 125.951 135.182 125.612 134.688C125.279 134.193 124.8 133.945 124.175 133.945C123.399 133.945 122.842 134.266 122.503 134.906V138.656C122.847 139.312 123.409 139.641 124.191 139.641C124.795 139.641 125.266 139.398 125.605 138.914C125.948 138.424 126.12 137.685 126.12 136.695ZM135.73 134.281C135.48 134.24 135.222 134.219 134.957 134.219C134.087 134.219 133.501 134.552 133.199 135.219V141H131.3V132.547H133.113L133.16 133.492C133.618 132.758 134.253 132.391 135.066 132.391C135.337 132.391 135.561 132.427 135.738 132.5L135.73 134.281ZM137.972 136.695C137.972 135.867 138.137 135.122 138.465 134.461C138.793 133.794 139.254 133.284 139.847 132.93C140.441 132.57 141.124 132.391 141.894 132.391C143.035 132.391 143.959 132.758 144.668 133.492C145.381 134.227 145.767 135.201 145.824 136.414L145.832 136.859C145.832 137.693 145.67 138.438 145.347 139.094C145.03 139.75 144.571 140.258 143.972 140.617C143.379 140.977 142.691 141.156 141.91 141.156C140.717 141.156 139.762 140.76 139.043 139.969C138.329 139.172 137.972 138.112 137.972 136.789V136.695ZM139.871 136.859C139.871 137.729 140.051 138.411 140.41 138.906C140.769 139.396 141.269 139.641 141.91 139.641C142.551 139.641 143.048 139.391 143.402 138.891C143.762 138.391 143.941 137.659 143.941 136.695C143.941 135.841 143.756 135.164 143.387 134.664C143.022 134.164 142.525 133.914 141.894 133.914C141.275 133.914 140.782 134.161 140.418 134.656C140.053 135.146 139.871 135.88 139.871 136.859ZM151.973 138.594L153.762 132.547H155.723L152.793 141H151.145L148.192 132.547H150.16L151.973 138.594ZM160.614 141H158.715V132.547H160.614V141ZM158.598 130.352C158.598 130.06 158.689 129.818 158.872 129.625C159.059 129.432 159.325 129.336 159.668 129.336C160.012 129.336 160.278 129.432 160.465 129.625C160.653 129.818 160.747 130.06 160.747 130.352C160.747 130.638 160.653 130.878 160.465 131.07C160.278 131.258 160.012 131.352 159.668 131.352C159.325 131.352 159.059 131.258 158.872 131.07C158.689 130.878 158.598 130.638 158.598 130.352ZM166.13 132.547L166.184 133.523C166.809 132.768 167.63 132.391 168.645 132.391C170.406 132.391 171.302 133.398 171.333 135.414V141H169.434V135.523C169.434 134.987 169.317 134.591 169.083 134.336C168.854 134.076 168.476 133.945 167.95 133.945C167.184 133.945 166.614 134.292 166.239 134.984V141H164.341V132.547H166.13ZM174.622 136.711C174.622 135.398 174.929 134.352 175.544 133.57C176.164 132.784 176.984 132.391 178.005 132.391C178.969 132.391 179.726 132.727 180.278 133.398L180.364 132.547H182.075V140.742C182.075 141.852 181.729 142.727 181.036 143.367C180.349 144.008 179.419 144.328 178.247 144.328C177.627 144.328 177.021 144.198 176.427 143.938C175.838 143.682 175.39 143.346 175.083 142.93L175.982 141.789C176.565 142.482 177.284 142.828 178.138 142.828C178.768 142.828 179.265 142.656 179.63 142.312C179.995 141.974 180.177 141.474 180.177 140.812V140.242C179.63 140.852 178.901 141.156 177.989 141.156C177 141.156 176.19 140.763 175.56 139.977C174.935 139.19 174.622 138.102 174.622 136.711ZM176.513 136.875C176.513 137.724 176.685 138.393 177.028 138.883C177.377 139.367 177.859 139.609 178.474 139.609C179.239 139.609 179.807 139.281 180.177 138.625V134.906C179.818 134.266 179.255 133.945 178.489 133.945C177.864 133.945 177.377 134.193 177.028 134.688C176.685 135.182 176.513 135.911 176.513 136.875Z" fill="white"/>
<path d="M102.885 102.758L104.948 109.188L107.005 102.758H109.938V112H107.703V109.842L107.919 105.424L105.685 112H104.212L101.971 105.417L102.187 109.842V112H99.9592V102.758H102.885ZM120.031 107.569C120.031 108.471 119.864 109.268 119.53 109.962C119.195 110.656 118.719 111.192 118.102 111.568C117.488 111.941 116.788 112.127 116.001 112.127C115.213 112.127 114.515 111.947 113.906 111.587C113.296 111.223 112.82 110.705 112.478 110.032C112.139 109.359 111.961 108.587 111.944 107.715V107.195C111.944 106.289 112.109 105.492 112.439 104.802C112.774 104.108 113.25 103.572 113.868 103.196C114.49 102.819 115.196 102.631 115.988 102.631C116.771 102.631 117.469 102.817 118.083 103.189C118.696 103.562 119.172 104.093 119.511 104.783C119.854 105.468 120.027 106.255 120.031 107.144V107.569ZM117.765 107.182C117.765 106.264 117.611 105.568 117.302 105.094C116.997 104.616 116.559 104.376 115.988 104.376C114.871 104.376 114.28 105.214 114.217 106.89L114.21 107.569C114.21 108.475 114.361 109.171 114.661 109.658C114.962 110.144 115.408 110.388 116.001 110.388C116.563 110.388 116.997 110.149 117.302 109.67C117.606 109.192 117.761 108.505 117.765 107.607V107.182ZM122.025 112V102.758H125.345C126.534 102.758 127.438 102.976 128.055 103.412C128.678 103.847 128.989 104.48 128.989 105.31C128.989 105.788 128.879 106.196 128.658 106.535C128.438 106.873 128.115 107.123 127.687 107.284C128.17 107.411 128.54 107.648 128.798 107.995C129.056 108.342 129.185 108.765 129.185 109.264C129.185 110.17 128.898 110.851 128.322 111.308C127.751 111.761 126.902 111.992 125.777 112H122.025ZM124.253 108.071V110.286H125.713C126.115 110.286 126.424 110.195 126.64 110.013C126.856 109.827 126.964 109.567 126.964 109.232C126.964 108.462 126.581 108.075 125.815 108.071H124.253ZM124.253 106.611H125.415C125.901 106.607 126.249 106.518 126.456 106.344C126.663 106.171 126.767 105.915 126.767 105.576C126.767 105.187 126.655 104.908 126.43 104.738C126.206 104.565 125.844 104.478 125.345 104.478H124.253V106.611ZM133.636 112H131.414V102.758H133.636V112ZM138.258 110.286H142.136V112H136.03V102.758H138.258V110.286ZM149.652 108.083H146.149V110.286H150.287V112H143.921V102.758H150.3V104.478H146.149V106.427H149.652V108.083ZM161.372 110.273H158.319L157.785 112H155.405L158.795 102.758H160.889L164.304 112H161.911L161.372 110.273ZM158.852 108.553H160.839L159.842 105.348L158.852 108.553ZM168.057 108.864V112H165.829V102.758H169.517C170.223 102.758 170.847 102.889 171.389 103.151C171.935 103.41 172.356 103.78 172.652 104.262C172.953 104.74 173.103 105.284 173.103 105.894C173.103 106.795 172.779 107.516 172.132 108.058C171.489 108.596 170.604 108.864 169.479 108.864H168.057ZM168.057 107.144H169.517C169.948 107.144 170.276 107.036 170.5 106.82C170.729 106.604 170.843 106.3 170.843 105.906C170.843 105.475 170.727 105.13 170.494 104.872C170.261 104.613 169.944 104.482 169.542 104.478H168.057V107.144ZM177.369 108.864V112H175.141V102.758H178.829C179.536 102.758 180.16 102.889 180.702 103.151C181.248 103.41 181.669 103.78 181.965 104.262C182.266 104.74 182.416 105.284 182.416 105.894C182.416 106.795 182.092 107.516 181.445 108.058C180.801 108.596 179.917 108.864 178.791 108.864H177.369ZM177.369 107.144H178.829C179.261 107.144 179.589 107.036 179.813 106.82C180.042 106.604 180.156 106.3 180.156 105.906C180.156 105.475 180.04 105.13 179.807 104.872C179.574 104.613 179.257 104.482 178.855 104.478H177.369V107.144Z" fill="white"/>
<path d="M112.713 166.539L114.244 159.047H115.96L113.663 169H112.009L110.115 161.733L108.181 169H106.52L104.223 159.047H105.938L107.483 166.525L109.384 159.047H110.833L112.713 166.539ZM128.095 166.683H124.24L123.433 169H121.635L125.395 159.047H126.947L130.713 169H128.909L128.095 166.683ZM124.725 165.288H127.61L126.167 161.159L124.725 165.288ZM142.65 166.437C142.65 165.999 142.495 165.662 142.185 165.425C141.88 165.188 141.326 164.949 140.524 164.707C139.722 164.465 139.084 164.197 138.61 163.9C137.703 163.331 137.25 162.588 137.25 161.672C137.25 160.87 137.576 160.209 138.227 159.689C138.884 159.17 139.734 158.91 140.777 158.91C141.47 158.91 142.087 159.038 142.63 159.293C143.172 159.548 143.598 159.913 143.908 160.387C144.218 160.856 144.373 161.378 144.373 161.952H142.65C142.65 161.433 142.486 161.027 142.158 160.735C141.834 160.439 141.37 160.291 140.763 160.291C140.198 160.291 139.759 160.412 139.444 160.653C139.134 160.895 138.979 161.232 138.979 161.665C138.979 162.03 139.148 162.335 139.485 162.581C139.822 162.823 140.378 163.06 141.153 163.292C141.928 163.52 142.55 163.782 143.019 164.078C143.489 164.37 143.833 164.707 144.052 165.09C144.27 165.468 144.38 165.912 144.38 166.423C144.38 167.252 144.061 167.913 143.423 168.405C142.789 168.893 141.928 169.137 140.839 169.137C140.119 169.137 139.456 169.005 138.849 168.74C138.248 168.471 137.778 168.102 137.441 167.633C137.109 167.163 136.942 166.617 136.942 165.992H138.672C138.672 166.557 138.859 166.995 139.232 167.305C139.606 167.615 140.141 167.77 140.839 167.77C141.44 167.77 141.891 167.649 142.192 167.407C142.498 167.161 142.65 166.838 142.65 166.437ZM158.689 160.441H155.585V169H153.869V160.441H150.793V159.047H158.689V160.441ZM171.419 164.557H167.331V167.619H172.109V169H165.601V159.047H172.061V160.441H167.331V163.189H171.419V164.557ZM70.6486 178.047L73.5197 185.676L76.384 178.047H78.6193V188H76.8967V184.719L77.0676 180.33L74.1281 188H72.8908L69.9582 180.337L70.1291 184.719V188H68.4064V178.047H70.6486ZM91.9645 185.683H88.109L87.3023 188H85.5045L89.2643 178.047H90.816L94.5826 188H92.7779L91.9645 185.683ZM88.5943 184.288H91.4791L90.0367 180.159L88.5943 184.288ZM109.213 188H107.483L103.047 180.938V188H101.317V178.047H103.047L107.497 185.136V178.047H109.213V188ZM122.551 185.683H118.696L117.889 188H116.091L119.851 178.047H121.403L125.169 188H123.365L122.551 185.683ZM119.181 184.288H122.066L120.623 180.159L119.181 184.288ZM139.383 186.708C139.023 187.177 138.524 187.533 137.886 187.774C137.248 188.016 136.523 188.137 135.712 188.137C134.878 188.137 134.139 187.948 133.497 187.569C132.854 187.191 132.358 186.651 132.007 185.949C131.66 185.243 131.48 184.42 131.467 183.481V182.702C131.467 181.198 131.827 180.025 132.547 179.182C133.267 178.334 134.272 177.91 135.561 177.91C136.669 177.91 137.548 178.184 138.2 178.73C138.852 179.277 139.244 180.066 139.376 181.096H137.68C137.489 179.897 136.794 179.298 135.596 179.298C134.821 179.298 134.231 179.578 133.825 180.139C133.424 180.695 133.217 181.513 133.203 182.593V183.358C133.203 184.434 133.429 185.27 133.88 185.867C134.335 186.46 134.967 186.756 135.773 186.756C136.657 186.756 137.286 186.555 137.66 186.154V184.206H135.609V182.894H139.383V186.708ZM152.7 183.557H148.613V186.619H153.391V188H146.883V178.047H153.343V179.441H148.613V182.189H152.7V183.557ZM162.641 178.047L165.512 185.676L168.377 178.047H170.612V188H168.889V184.719L169.06 180.33L166.121 188H164.883L161.951 180.337L162.122 184.719V188H160.399V178.047H162.641ZM184.08 183.557H179.992V186.619H184.771V188H178.263V178.047H184.723V179.441H179.992V182.189H184.08V183.557ZM199.674 188H197.945L193.508 180.938V188H191.779V178.047H193.508L197.958 185.136V178.047H199.674V188ZM214.304 179.441H211.201V188H209.485V179.441H206.409V178.047H214.304V179.441Z" fill="white"/>
<defs>
<filter id="filter0_d" x="0" y="0" width="283" height="259.167" filterUnits="userSpaceOnUse" color-interpolation-filters="sRGB">
<feFlood flood-opacity="0" result="BackgroundImageFix"/>
<feColorMatrix in="SourceAlpha" type="matrix" values="0 0 0 0 0 0 0 0 0 0 0 0 0 0 0 0 0 0 127 0"/>
<feOffset dy="4"/>
<feGaussianBlur stdDeviation="2"/>
<feColorMatrix type="matrix" values="0 0 0 0 0 0 0 0 0 0 0 0 0 0 0 0 0 0 0.25 0"/>
<feBlend mode="normal" in2="BackgroundImageFix" result="effect1_dropShadow"/>
<feBlend mode="normal" in="SourceGraphic" in2="effect1_dropShadow" result="shape"/>
</filter>
</defs>
</svg>
