<svg width="2590" height="1410" viewBox="0 0 2590 1410" fill="none" xmlns="http://www.w3.org/2000/svg">
<path d="M123.426 152H100.379V85.5938C100.379 77.2604 98.6862 71.043 95.3008 66.9414C91.9805 62.8398 86.6745 60.7891 79.3828 60.7891C69.7474 60.7891 62.651 63.6862 58.0938 69.4805C53.6016 75.2096 51.3555 84.8451 51.3555 98.3867V152H28.4062V0.046875H51.3555V38.6211C51.3555 44.806 50.9648 51.4141 50.1836 58.4453H51.6484C54.7734 53.237 59.1029 49.2005 64.6367 46.3359C70.2357 43.4714 76.7461 42.0391 84.168 42.0391C110.34 42.0391 123.426 55.2227 123.426 81.5898V152ZM198.527 153.953C181.73 153.953 168.579 149.07 159.074 139.305C149.634 129.474 144.914 115.965 144.914 98.7773C144.914 81.1341 149.309 67.2669 158.098 57.1758C166.887 47.0846 178.964 42.0391 194.328 42.0391C208.586 42.0391 219.849 46.3685 228.117 55.0273C236.385 63.6862 240.52 75.6003 240.52 90.7695V103.172H168.547C168.872 113.654 171.704 121.727 177.043 127.391C182.382 132.99 189.901 135.789 199.602 135.789C205.982 135.789 211.906 135.203 217.375 134.031C222.909 132.794 228.833 130.776 235.148 127.977V146.629C229.549 149.298 223.885 151.186 218.156 152.293C212.427 153.4 205.884 153.953 198.527 153.953ZM194.328 59.4219C187.036 59.4219 181.177 61.7331 176.75 66.3555C172.388 70.9779 169.784 77.7161 168.938 86.5703H217.961C217.831 77.651 215.682 70.9128 211.516 66.3555C207.349 61.7331 201.62 59.4219 194.328 59.4219ZM285.543 152H262.594V0.046875H285.543V152ZM337.402 152H314.453V0.046875H337.402V152ZM462.113 97.8008C462.113 115.444 457.589 129.214 448.539 139.109C439.49 149.005 426.892 153.953 410.746 153.953C400.655 153.953 391.736 151.674 383.988 147.117C376.241 142.56 370.284 136.017 366.117 127.488C361.951 118.96 359.867 109.064 359.867 97.8008C359.867 80.2878 364.359 66.6159 373.344 56.7852C382.328 46.9544 394.991 42.0391 411.332 42.0391C426.957 42.0391 439.327 47.0846 448.441 57.1758C457.556 67.2018 462.113 80.7435 462.113 97.8008ZM383.5 97.8008C383.5 122.736 392.712 135.203 411.137 135.203C429.366 135.203 438.48 122.736 438.48 97.8008C438.48 73.1263 429.301 60.7891 410.941 60.7891C401.306 60.7891 394.307 63.9792 389.945 70.3594C385.648 76.7396 383.5 85.8867 383.5 97.8008ZM481.16 139.793C481.16 135.04 482.397 131.395 484.871 128.855C487.345 126.316 490.926 125.047 495.613 125.047C500.366 125.047 503.979 126.382 506.453 129.051C508.927 131.655 510.164 135.236 510.164 139.793C510.164 144.415 508.895 148.094 506.355 150.828C503.882 153.497 500.301 154.832 495.613 154.832C490.926 154.832 487.345 153.497 484.871 150.828C482.397 148.159 481.16 144.48 481.16 139.793ZM873.908 152L859.943 101.609C858.25 96.2708 855.19 83.8685 850.763 64.4023H849.884C846.108 81.9805 843.113 94.4479 840.9 101.805L826.544 152H801.154L770.88 43.9922H794.318L808.087 97.2148C811.212 110.366 813.426 121.629 814.728 131.004H815.314C815.965 126.251 816.941 120.815 818.243 114.695C819.611 108.51 820.783 103.888 821.759 100.828L838.165 43.9922H863.361L879.279 100.828C880.255 104.018 881.46 108.901 882.892 115.477C884.389 122.052 885.268 127.163 885.529 130.809H886.31C887.286 122.801 889.565 111.603 893.146 97.2148L907.111 43.9922H930.158L899.689 152H873.908ZM991.978 153.953C975.181 153.953 962.03 149.07 952.525 139.305C943.085 129.474 938.365 115.965 938.365 98.7773C938.365 81.1341 942.759 67.2669 951.548 57.1758C960.337 47.0846 972.414 42.0391 987.779 42.0391C1002.04 42.0391 1013.3 46.3685 1021.57 55.0273C1029.84 63.6862 1033.97 75.6003 1033.97 90.7695V103.172H961.997C962.323 113.654 965.155 121.727 970.493 127.391C975.832 132.99 983.352 135.789 993.052 135.789C999.432 135.789 1005.36 135.203 1010.83 134.031C1016.36 132.794 1022.28 130.776 1028.6 127.977V146.629C1023 149.298 1017.34 151.186 1011.61 152.293C1005.88 153.4 999.335 153.953 991.978 153.953ZM987.779 59.4219C980.487 59.4219 974.628 61.7331 970.201 66.3555C965.839 70.9779 963.234 77.7161 962.388 86.5703H1011.41C1011.28 77.651 1009.13 70.9128 1004.97 66.3555C1000.8 61.7331 995.07 59.4219 987.779 59.4219ZM1078.99 152H1056.04V0.046875H1078.99V152ZM1151.46 153.953C1135.12 153.953 1122.68 149.201 1114.15 139.695C1105.69 130.125 1101.46 116.421 1101.46 98.582C1101.46 80.418 1105.89 66.4531 1114.74 56.6875C1123.66 46.9219 1136.52 42.0391 1153.31 42.0391C1164.71 42.0391 1174.96 44.1549 1184.08 48.3867L1177.14 66.8438C1167.44 63.0677 1159.43 61.1797 1153.12 61.1797C1134.43 61.1797 1125.09 73.582 1125.09 98.3867C1125.09 110.496 1127.4 119.611 1132.02 125.73C1136.71 131.785 1143.55 134.812 1152.53 134.812C1162.75 134.812 1172.42 132.273 1181.54 127.195V147.215C1177.43 149.624 1173.04 151.349 1168.35 152.391C1163.73 153.432 1158.1 153.953 1151.46 153.953ZM1298.73 97.8008C1298.73 115.444 1294.2 129.214 1285.15 139.109C1276.1 149.005 1263.51 153.953 1247.36 153.953C1237.27 153.953 1228.35 151.674 1220.6 147.117C1212.86 142.56 1206.9 136.017 1202.73 127.488C1198.57 118.96 1196.48 109.064 1196.48 97.8008C1196.48 80.2878 1200.97 66.6159 1209.96 56.7852C1218.94 46.9544 1231.61 42.0391 1247.95 42.0391C1263.57 42.0391 1275.94 47.0846 1285.06 57.1758C1294.17 67.2018 1298.73 80.7435 1298.73 97.8008ZM1220.11 97.8008C1220.11 122.736 1229.33 135.203 1247.75 135.203C1265.98 135.203 1275.1 122.736 1275.1 97.8008C1275.1 73.1263 1265.92 60.7891 1247.56 60.7891C1237.92 60.7891 1230.92 63.9792 1226.56 70.3594C1222.26 76.7396 1220.11 85.8867 1220.11 97.8008ZM1412.21 152H1389.16V85.3984C1389.16 77.1302 1387.6 70.9779 1384.47 66.9414C1381.35 62.8398 1376.47 60.7891 1369.83 60.7891C1360.97 60.7891 1354.46 63.6862 1350.29 69.4805C1346.19 75.2096 1344.14 84.7799 1344.14 98.1914V152H1321.19V43.9922H1339.16L1342.38 58.1523H1343.56C1346.55 53.0091 1350.88 49.0378 1356.54 46.2383C1362.27 43.4388 1368.56 42.0391 1375.39 42.0391C1391.99 42.0391 1403 47.7031 1408.4 59.0312H1409.96C1413.15 53.6927 1417.64 49.526 1423.44 46.5312C1429.23 43.5365 1435.87 42.0391 1443.36 42.0391C1456.25 42.0391 1465.63 45.2943 1471.49 51.8047C1477.41 58.3151 1480.37 68.2435 1480.37 81.5898V152H1457.42V85.3984C1457.42 77.1302 1455.83 70.9779 1452.64 66.9414C1449.51 62.8398 1444.63 60.7891 1437.99 60.7891C1429.07 60.7891 1422.53 63.5885 1418.36 69.1875C1414.26 74.7214 1412.21 83.25 1412.21 94.7734V152ZM1555.57 153.953C1538.77 153.953 1525.62 149.07 1516.12 139.305C1506.68 129.474 1501.96 115.965 1501.96 98.7773C1501.96 81.1341 1506.35 67.2669 1515.14 57.1758C1523.93 47.0846 1536.01 42.0391 1551.37 42.0391C1565.63 42.0391 1576.89 46.3685 1585.16 55.0273C1593.43 63.6862 1597.56 75.6003 1597.56 90.7695V103.172H1525.59C1525.92 113.654 1528.75 121.727 1534.09 127.391C1539.43 132.99 1546.95 135.789 1556.65 135.789C1563.03 135.789 1568.95 135.203 1574.42 134.031C1579.95 132.794 1585.88 130.776 1592.19 127.977V146.629C1586.59 149.298 1580.93 151.186 1575.2 152.293C1569.47 153.4 1562.93 153.953 1555.57 153.953ZM1551.37 59.4219C1544.08 59.4219 1538.22 61.7331 1533.79 66.3555C1529.43 70.9779 1526.83 77.7161 1525.98 86.5703H1575.01C1574.88 77.651 1572.73 70.9128 1568.56 66.3555C1564.39 61.7331 1558.66 59.4219 1551.37 59.4219ZM1909.55 135.398C1915.15 135.398 1920.75 134.52 1926.35 132.762V150.047C1923.81 151.154 1920.52 152.065 1916.48 152.781C1912.51 153.562 1908.38 153.953 1904.08 153.953C1882.34 153.953 1871.46 142.495 1871.46 119.578V61.375H1856.72V51.2188L1872.54 42.8203L1880.35 19.9688H1894.51V43.9922H1925.27V61.375H1894.51V119.188C1894.51 124.721 1895.88 128.823 1898.61 131.492C1901.41 134.096 1905.06 135.398 1909.55 135.398ZM2039.83 97.8008C2039.83 115.444 2035.3 129.214 2026.25 139.109C2017.2 149.005 2004.61 153.953 1988.46 153.953C1978.37 153.953 1969.45 151.674 1961.7 147.117C1953.95 142.56 1948 136.017 1943.83 127.488C1939.66 118.96 1937.58 109.064 1937.58 97.8008C1937.58 80.2878 1942.07 66.6159 1951.06 56.7852C1960.04 46.9544 1972.7 42.0391 1989.05 42.0391C2004.67 42.0391 2017.04 47.0846 2026.15 57.1758C2035.27 67.2018 2039.83 80.7435 2039.83 97.8008ZM1961.21 97.8008C1961.21 122.736 1970.43 135.203 1988.85 135.203C2007.08 135.203 2016.19 122.736 2016.19 97.8008C2016.19 73.1263 2007.01 60.7891 1988.65 60.7891C1979.02 60.7891 1972.02 63.9792 1967.66 70.3594C1963.36 76.7396 1961.21 85.8867 1961.21 97.8008ZM2402.98 152H2379.94V85.3984C2379.94 77.1302 2378.38 70.9779 2375.25 66.9414C2372.12 62.8398 2367.24 60.7891 2360.6 60.7891C2351.75 60.7891 2345.24 63.6862 2341.07 69.4805C2336.97 75.2096 2334.92 84.7799 2334.92 98.1914V152H2311.97V43.9922H2329.94L2333.16 58.1523H2334.33C2337.33 53.0091 2341.66 49.0378 2347.32 46.2383C2353.05 43.4388 2359.33 42.0391 2366.17 42.0391C2382.77 42.0391 2393.77 47.7031 2399.18 59.0312H2400.74C2403.93 53.6927 2408.42 49.526 2414.21 46.5312C2420.01 43.5365 2426.65 42.0391 2434.14 42.0391C2447.03 42.0391 2456.4 45.2943 2462.26 51.8047C2468.19 58.3151 2471.15 68.2435 2471.15 81.5898V152H2448.2V85.3984C2448.2 77.1302 2446.6 70.9779 2443.41 66.9414C2440.29 62.8398 2435.41 60.7891 2428.77 60.7891C2419.85 60.7891 2413.3 63.5885 2409.14 69.1875C2405.04 74.7214 2402.98 83.25 2402.98 94.7734V152ZM2482.77 43.9922H2507.77L2529.75 105.223C2533.07 113.947 2535.28 122.15 2536.39 129.832H2537.17C2537.75 126.251 2538.83 121.922 2540.39 116.844C2541.95 111.701 2550.22 87.4167 2565.2 43.9922H2590L2543.81 166.355C2535.41 188.816 2521.41 200.047 2501.82 200.047C2496.74 200.047 2491.79 199.493 2486.97 198.387V180.223C2490.42 181.004 2494.36 181.395 2498.79 181.395C2509.86 181.395 2517.64 174.982 2522.13 162.156L2526.13 152L2482.77 43.9922ZM17.3711 451.047C10.4701 451.047 4.74089 450.233 0.183594 448.605V430.441C4.61068 431.613 9.13542 432.199 13.7578 432.199C23.5234 432.199 28.4062 426.665 28.4062 415.598V294.992H51.3555V417.16C51.3555 428.293 48.4258 436.724 42.5664 442.453C36.7721 448.182 28.3737 451.047 17.3711 451.047ZM27.0391 266.379C27.0391 262.277 28.1458 259.12 30.3594 256.906C32.638 254.693 35.8607 253.586 40.0273 253.586C44.0638 253.586 47.1888 254.693 49.4023 256.906C51.681 259.12 52.8203 262.277 52.8203 266.379C52.8203 270.285 51.681 273.378 49.4023 275.656C47.1888 277.87 44.0638 278.977 40.0273 278.977C35.8607 278.977 32.638 277.87 30.3594 275.656C28.1458 273.378 27.0391 270.285 27.0391 266.379ZM176.066 348.801C176.066 366.444 171.542 380.214 162.492 390.109C153.443 400.005 140.845 404.953 124.699 404.953C114.608 404.953 105.689 402.674 97.9414 398.117C90.194 393.56 84.237 387.017 80.0703 378.488C75.9036 369.96 73.8203 360.064 73.8203 348.801C73.8203 331.288 78.3125 317.616 87.2969 307.785C96.2812 297.954 108.944 293.039 125.285 293.039C140.91 293.039 153.28 298.085 162.395 308.176C171.509 318.202 176.066 331.743 176.066 348.801ZM97.4531 348.801C97.4531 373.736 106.665 386.203 125.09 386.203C143.319 386.203 152.434 373.736 152.434 348.801C152.434 324.126 143.254 311.789 124.895 311.789C115.259 311.789 108.26 314.979 103.898 321.359C99.6016 327.74 97.4531 336.887 97.4531 348.801ZM274.703 403L271.48 388.84H270.309C267.118 393.853 262.561 397.792 256.637 400.656C250.777 403.521 244.072 404.953 236.52 404.953C223.434 404.953 213.668 401.698 207.223 395.188C200.777 388.677 197.555 378.814 197.555 365.598V294.992H220.699V361.594C220.699 369.862 222.392 376.079 225.777 380.246C229.163 384.348 234.469 386.398 241.695 386.398C251.331 386.398 258.395 383.534 262.887 377.805C267.444 372.01 269.723 362.342 269.723 348.801V294.992H292.77V403H274.703ZM376.27 293.039C380.892 293.039 384.701 293.365 387.695 294.016L385.449 315.402C382.194 314.621 378.809 314.23 375.293 314.23C366.113 314.23 358.659 317.225 352.93 323.215C347.266 329.204 344.434 336.984 344.434 346.555V403H321.484V294.992H339.453L342.48 314.035H343.652C347.233 307.59 351.888 302.479 357.617 298.703C363.411 294.927 369.629 293.039 376.27 293.039ZM498.832 403H475.785V336.594C475.785 328.26 474.092 322.043 470.707 317.941C467.387 313.84 462.081 311.789 454.789 311.789C445.089 311.789 437.992 314.654 433.5 320.383C429.008 326.112 426.762 335.715 426.762 349.191V403H403.812V294.992H421.781L425.004 309.152H426.176C429.431 304.009 434.053 300.038 440.043 297.238C446.033 294.439 452.673 293.039 459.965 293.039C485.876 293.039 498.832 306.223 498.832 332.59V403ZM573.934 404.953C557.137 404.953 543.986 400.07 534.48 390.305C525.04 380.474 520.32 366.965 520.32 349.777C520.32 332.134 524.715 318.267 533.504 308.176C542.293 298.085 554.37 293.039 569.734 293.039C583.992 293.039 595.255 297.368 603.523 306.027C611.792 314.686 615.926 326.6 615.926 341.77V354.172H543.953C544.279 364.654 547.111 372.727 552.449 378.391C557.788 383.99 565.307 386.789 575.008 386.789C581.388 386.789 587.312 386.203 592.781 385.031C598.315 383.794 604.24 381.776 610.555 378.977V397.629C604.956 400.298 599.292 402.186 593.562 403.293C587.833 404.4 581.29 404.953 573.934 404.953ZM569.734 310.422C562.443 310.422 556.583 312.733 552.156 317.355C547.794 321.978 545.19 328.716 544.344 337.57H593.367C593.237 328.651 591.089 321.913 586.922 317.355C582.755 312.733 577.026 310.422 569.734 310.422ZM621.594 294.992H646.594L668.566 356.223C671.887 364.947 674.1 373.15 675.207 380.832H675.988C676.574 377.251 677.648 372.922 679.211 367.844C680.773 362.701 689.042 338.417 704.016 294.992H728.82L682.629 417.355C674.23 439.816 660.233 451.047 640.637 451.047C635.559 451.047 630.611 450.493 625.793 449.387V431.223C629.243 432.004 633.182 432.395 637.609 432.395C648.677 432.395 656.457 425.982 660.949 413.156L664.953 403L621.594 294.992ZM737.809 390.793C737.809 386.04 739.046 382.395 741.52 379.855C743.993 377.316 747.574 376.047 752.262 376.047C757.014 376.047 760.628 377.382 763.102 380.051C765.576 382.655 766.812 386.236 766.812 390.793C766.812 395.415 765.543 399.094 763.004 401.828C760.53 404.497 756.949 405.832 752.262 405.832C747.574 405.832 743.993 404.497 741.52 401.828C739.046 399.159 737.809 395.48 737.809 390.793ZM941.324 403H918.277V336.398C918.277 328.13 916.715 321.978 913.59 317.941C910.465 313.84 905.582 311.789 898.941 311.789C890.087 311.789 883.577 314.686 879.41 320.48C875.309 326.21 873.258 335.78 873.258 349.191V403H850.309V294.992H868.277L871.5 309.152H872.672C875.667 304.009 879.996 300.038 885.66 297.238C891.389 294.439 897.672 293.039 904.508 293.039C921.109 293.039 932.112 298.703 937.516 310.031H939.078C942.268 304.693 946.76 300.526 952.555 297.531C958.349 294.536 964.99 293.039 972.477 293.039C985.367 293.039 994.742 296.294 1000.6 302.805C1006.53 309.315 1009.49 319.243 1009.49 332.59V403H986.539V336.398C986.539 328.13 984.944 321.978 981.754 317.941C978.629 313.84 973.746 311.789 967.105 311.789C958.186 311.789 951.643 314.589 947.477 320.188C943.375 325.721 941.324 334.25 941.324 345.773V403ZM1021.11 294.992H1046.11L1068.09 356.223C1071.41 364.947 1073.62 373.15 1074.73 380.832H1075.51C1076.09 377.251 1077.17 372.922 1078.73 367.844C1080.29 362.701 1088.56 338.417 1103.54 294.992H1128.34L1082.15 417.355C1073.75 439.816 1059.75 451.047 1040.16 451.047C1035.08 451.047 1030.13 450.493 1025.31 449.387V431.223C1028.76 432.004 1032.7 432.395 1037.13 432.395C1048.2 432.395 1055.98 425.982 1060.47 413.156L1064.47 403L1021.11 294.992ZM1293.77 403H1270.72V336.594C1270.72 328.26 1269.03 322.043 1265.64 317.941C1262.32 313.84 1257.02 311.789 1249.73 311.789C1240.03 311.789 1232.93 314.654 1228.44 320.383C1223.95 326.112 1221.7 335.715 1221.7 349.191V403H1198.75V294.992H1216.72L1219.94 309.152H1221.11C1224.37 304.009 1228.99 300.038 1234.98 297.238C1240.97 294.439 1247.61 293.039 1254.9 293.039C1280.81 293.039 1293.77 306.223 1293.77 332.59V403ZM1389.28 403L1384.69 387.961H1383.91C1378.7 394.536 1373.46 399.029 1368.19 401.438C1362.91 403.781 1356.14 404.953 1347.88 404.953C1337.26 404.953 1328.96 402.089 1322.97 396.359C1317.05 390.63 1314.09 382.525 1314.09 372.043C1314.09 360.91 1318.22 352.512 1326.49 346.848C1334.76 341.184 1347.35 338.091 1364.28 337.57L1382.93 336.984V331.223C1382.93 324.322 1381.31 319.178 1378.05 315.793C1374.86 312.342 1369.88 310.617 1363.11 310.617C1357.58 310.617 1352.27 311.431 1347.19 313.059C1342.11 314.686 1337.23 316.607 1332.54 318.82L1325.12 302.414C1330.98 299.354 1337.39 297.043 1344.36 295.48C1351.33 293.853 1357.9 293.039 1364.09 293.039C1377.82 293.039 1388.17 296.034 1395.14 302.023C1402.17 308.013 1405.69 317.421 1405.69 330.246V403H1389.28ZM1355.1 387.375C1363.43 387.375 1370.11 385.064 1375.12 380.441C1380.2 375.754 1382.74 369.211 1382.74 360.812V351.438L1368.87 352.023C1358.06 352.414 1350.19 354.237 1345.24 357.492C1340.36 360.682 1337.91 365.598 1337.91 372.238C1337.91 377.056 1339.35 380.799 1342.21 383.469C1345.08 386.073 1349.37 387.375 1355.1 387.375ZM1524.73 403H1501.69V336.398C1501.69 328.13 1500.12 321.978 1497 317.941C1493.88 313.84 1488.99 311.789 1482.35 311.789C1473.5 311.789 1466.99 314.686 1462.82 320.48C1458.72 326.21 1456.67 335.78 1456.67 349.191V403H1433.72V294.992H1451.69L1454.91 309.152H1456.08C1459.08 304.009 1463.41 300.038 1469.07 297.238C1474.8 294.439 1481.08 293.039 1487.92 293.039C1504.52 293.039 1515.52 298.703 1520.93 310.031H1522.49C1525.68 304.693 1530.17 300.526 1535.96 297.531C1541.76 294.536 1548.4 293.039 1555.89 293.039C1568.78 293.039 1578.15 296.294 1584.01 302.805C1589.94 309.315 1592.9 319.243 1592.9 332.59V403H1569.95V336.398C1569.95 328.13 1568.35 321.978 1565.16 317.941C1562.04 313.84 1557.16 311.789 1550.52 311.789C1541.6 311.789 1535.05 314.589 1530.89 320.188C1526.79 325.721 1524.73 334.25 1524.73 345.773V403ZM1668.1 404.953C1651.3 404.953 1638.15 400.07 1628.64 390.305C1619.2 380.474 1614.48 366.965 1614.48 349.777C1614.48 332.134 1618.88 318.267 1627.67 308.176C1636.46 298.085 1648.53 293.039 1663.9 293.039C1678.16 293.039 1689.42 297.368 1697.69 306.027C1705.96 314.686 1710.09 326.6 1710.09 341.77V354.172H1638.12C1638.44 364.654 1641.27 372.727 1646.61 378.391C1651.95 383.99 1659.47 386.789 1669.17 386.789C1675.55 386.789 1681.48 386.203 1686.95 385.031C1692.48 383.794 1698.4 381.776 1704.72 378.977V397.629C1699.12 400.298 1693.46 402.186 1687.73 403.293C1682 404.4 1675.45 404.953 1668.1 404.953ZM1663.9 310.422C1656.61 310.422 1650.75 312.733 1646.32 317.355C1641.96 321.978 1639.35 328.716 1638.51 337.57H1687.53C1687.4 328.651 1685.25 321.913 1681.09 317.355C1676.92 312.733 1671.19 310.422 1663.9 310.422ZM1813.12 403H1790.17V294.992H1813.12V403ZM1788.8 266.379C1788.8 262.277 1789.91 259.12 1792.12 256.906C1794.4 254.693 1797.62 253.586 1801.79 253.586C1805.83 253.586 1808.95 254.693 1811.16 256.906C1813.44 259.12 1814.58 262.277 1814.58 266.379C1814.58 270.285 1813.44 273.378 1811.16 275.656C1808.95 277.87 1805.83 278.977 1801.79 278.977C1797.62 278.977 1794.4 277.87 1792.12 275.656C1789.91 273.378 1788.8 270.285 1788.8 266.379ZM1914.59 372.238C1914.59 382.785 1910.74 390.891 1903.06 396.555C1895.38 402.154 1884.38 404.953 1870.05 404.953C1855.67 404.953 1844.11 402.772 1835.39 398.41V378.586C1848.08 384.445 1859.9 387.375 1870.84 387.375C1884.96 387.375 1892.03 383.111 1892.03 374.582C1892.03 371.848 1891.25 369.569 1889.68 367.746C1888.12 365.923 1885.55 364.035 1881.97 362.082C1878.39 360.129 1873.41 357.915 1867.03 355.441C1854.59 350.624 1846.16 345.806 1841.73 340.988C1837.37 336.171 1835.19 329.921 1835.19 322.238C1835.19 312.993 1838.9 305.832 1846.32 300.754C1853.81 295.611 1863.97 293.039 1876.79 293.039C1889.49 293.039 1901.5 295.611 1912.83 300.754L1905.41 318.039C1893.75 313.221 1883.95 310.812 1876.01 310.812C1863.9 310.812 1857.85 314.263 1857.85 321.164C1857.85 324.549 1859.41 327.414 1862.54 329.758C1865.73 332.102 1872.63 335.324 1883.24 339.426C1892.16 342.876 1898.64 346.034 1902.67 348.898C1906.71 351.763 1909.7 355.083 1911.66 358.859C1913.61 362.57 1914.59 367.03 1914.59 372.238ZM1982.46 451.047C1975.56 451.047 1969.83 450.233 1965.27 448.605V430.441C1969.7 431.613 1974.22 432.199 1978.84 432.199C1988.61 432.199 1993.49 426.665 1993.49 415.598V294.992H2016.44V417.16C2016.44 428.293 2013.51 436.724 2007.65 442.453C2001.86 448.182 1993.46 451.047 1982.46 451.047ZM1992.12 266.379C1992.12 262.277 1993.23 259.12 1995.45 256.906C1997.72 254.693 2000.95 253.586 2005.11 253.586C2009.15 253.586 2012.27 254.693 2014.49 256.906C2016.77 259.12 2017.91 262.277 2017.91 266.379C2017.91 270.285 2016.77 273.378 2014.49 275.656C2012.27 277.87 2009.15 278.977 2005.11 278.977C2000.95 278.977 1997.72 277.87 1995.45 275.656C1993.23 273.378 1992.12 270.285 1992.12 266.379ZM2092.52 404.953C2075.72 404.953 2062.57 400.07 2053.07 390.305C2043.63 380.474 2038.91 366.965 2038.91 349.777C2038.91 332.134 2043.3 318.267 2052.09 308.176C2060.88 298.085 2072.96 293.039 2088.32 293.039C2102.58 293.039 2113.84 297.368 2122.11 306.027C2130.38 314.686 2134.51 326.6 2134.51 341.77V354.172H2062.54C2062.86 364.654 2065.7 372.727 2071.04 378.391C2076.37 383.99 2083.89 386.789 2093.59 386.789C2099.97 386.789 2105.9 386.203 2111.37 385.031C2116.9 383.794 2122.83 381.776 2129.14 378.977V397.629C2123.54 400.298 2117.88 402.186 2112.15 403.293C2106.42 404.4 2099.88 404.953 2092.52 404.953ZM2088.32 310.422C2081.03 310.422 2075.17 312.733 2070.74 317.355C2066.38 321.978 2063.78 328.716 2062.93 337.57H2111.95C2111.82 328.651 2109.67 321.913 2105.51 317.355C2101.34 312.733 2095.61 310.422 2088.32 310.422ZM2229.14 372.238C2229.14 382.785 2225.3 390.891 2217.62 396.555C2209.94 402.154 2198.94 404.953 2184.61 404.953C2170.23 404.953 2158.67 402.772 2149.95 398.41V378.586C2162.64 384.445 2174.46 387.375 2185.39 387.375C2199.52 387.375 2206.59 383.111 2206.59 374.582C2206.59 371.848 2205.8 369.569 2204.24 367.746C2202.68 365.923 2200.11 364.035 2196.53 362.082C2192.95 360.129 2187.97 357.915 2181.59 355.441C2169.15 350.624 2160.72 345.806 2156.29 340.988C2151.93 336.171 2149.75 329.921 2149.75 322.238C2149.75 312.993 2153.46 305.832 2160.88 300.754C2168.37 295.611 2178.53 293.039 2191.35 293.039C2204.05 293.039 2216.06 295.611 2227.39 300.754L2219.96 318.039C2208.31 313.221 2198.51 310.812 2190.57 310.812C2178.46 310.812 2172.41 314.263 2172.41 321.164C2172.41 324.549 2173.97 327.414 2177.09 329.758C2180.28 332.102 2187.18 335.324 2197.8 339.426C2206.72 342.876 2213.19 346.034 2217.23 348.898C2221.27 351.763 2224.26 355.083 2226.21 358.859C2228.17 362.57 2229.14 367.03 2229.14 372.238ZM2322.61 372.238C2322.61 382.785 2318.76 390.891 2311.08 396.555C2303.4 402.154 2292.4 404.953 2278.07 404.953C2263.69 404.953 2252.13 402.772 2243.41 398.41V378.586C2256.1 384.445 2267.92 387.375 2278.86 387.375C2292.98 387.375 2300.05 383.111 2300.05 374.582C2300.05 371.848 2299.27 369.569 2297.7 367.746C2296.14 365.923 2293.57 364.035 2289.99 362.082C2286.41 360.129 2281.43 357.915 2275.05 355.441C2262.61 350.624 2254.18 345.806 2249.75 340.988C2245.39 336.171 2243.21 329.921 2243.21 322.238C2243.21 312.993 2246.92 305.832 2254.34 300.754C2261.83 295.611 2271.99 293.039 2284.81 293.039C2297.51 293.039 2309.52 295.611 2320.85 300.754L2313.43 318.039C2301.77 313.221 2291.97 310.812 2284.03 310.812C2271.92 310.812 2265.87 314.263 2265.87 321.164C2265.87 324.549 2267.43 327.414 2270.55 329.758C2273.74 332.102 2280.65 335.324 2291.26 339.426C2300.18 342.876 2306.65 346.034 2310.69 348.898C2314.73 351.763 2317.72 355.083 2319.68 358.859C2321.63 362.57 2322.61 367.03 2322.61 372.238ZM2366.46 403H2343.51V294.992H2366.46V403ZM2342.14 266.379C2342.14 262.277 2343.25 259.12 2345.46 256.906C2347.74 254.693 2350.96 253.586 2355.13 253.586C2359.17 253.586 2362.29 254.693 2364.5 256.906C2366.78 259.12 2367.92 262.277 2367.92 266.379C2367.92 270.285 2366.78 273.378 2364.5 275.656C2362.29 277.87 2359.17 278.977 2355.13 278.977C2350.96 278.977 2347.74 277.87 2345.46 275.656C2343.25 273.378 2342.14 270.285 2342.14 266.379ZM2438.92 404.953C2422.58 404.953 2410.15 400.201 2401.62 390.695C2393.15 381.125 2388.92 367.421 2388.92 349.582C2388.92 331.418 2393.35 317.453 2402.2 307.688C2411.12 297.922 2423.98 293.039 2440.78 293.039C2452.17 293.039 2462.42 295.155 2471.54 299.387L2464.61 317.844C2454.9 314.068 2446.9 312.18 2440.58 312.18C2421.9 312.18 2412.55 324.582 2412.55 349.387C2412.55 361.496 2414.87 370.611 2419.49 376.73C2424.18 382.785 2431.01 385.812 2440 385.812C2450.22 385.812 2459.89 383.273 2469 378.195V398.215C2464.9 400.624 2460.5 402.349 2455.82 403.391C2451.19 404.432 2445.56 404.953 2438.92 404.953ZM2557.97 403L2553.38 387.961H2552.6C2547.39 394.536 2542.15 399.029 2536.88 401.438C2531.6 403.781 2524.83 404.953 2516.56 404.953C2505.95 404.953 2497.65 402.089 2491.66 396.359C2485.74 390.63 2482.77 382.525 2482.77 372.043C2482.77 360.91 2486.91 352.512 2495.18 346.848C2503.44 341.184 2516.04 338.091 2532.97 337.57L2551.62 336.984V331.223C2551.62 324.322 2549.99 319.178 2546.74 315.793C2543.55 312.342 2538.57 310.617 2531.8 310.617C2526.26 310.617 2520.96 311.431 2515.88 313.059C2510.8 314.686 2505.92 316.607 2501.23 318.82L2493.81 302.414C2499.67 299.354 2506.08 297.043 2513.05 295.48C2520.01 293.853 2526.59 293.039 2532.77 293.039C2546.51 293.039 2556.86 296.034 2563.83 302.023C2570.86 308.013 2574.38 317.421 2574.38 330.246V403H2557.97ZM2523.79 387.375C2532.12 387.375 2538.8 385.064 2543.81 380.441C2548.89 375.754 2551.43 369.211 2551.43 360.812V351.438L2537.56 352.023C2526.75 352.414 2518.87 354.237 2513.93 357.492C2509.04 360.682 2506.6 365.598 2506.6 372.238C2506.6 377.056 2508.03 380.799 2510.9 383.469C2513.76 386.073 2518.06 387.375 2523.79 387.375ZM51.3555 654H28.4062V502.047H51.3555V654ZM103.215 654H80.2656V545.992H103.215V654ZM78.8984 517.379C78.8984 513.277 80.0052 510.12 82.2188 507.906C84.4974 505.693 87.7201 504.586 91.8867 504.586C95.9232 504.586 99.0482 505.693 101.262 507.906C103.54 510.12 104.68 513.277 104.68 517.379C104.68 521.285 103.54 524.378 101.262 526.656C99.0482 528.87 95.9232 529.977 91.8867 529.977C87.7201 529.977 84.4974 528.87 82.2188 526.656C80.0052 524.378 78.8984 521.285 78.8984 517.379ZM223.141 654H200.094V587.398C200.094 579.13 198.531 572.978 195.406 568.941C192.281 564.84 187.398 562.789 180.758 562.789C171.904 562.789 165.393 565.686 161.227 571.48C157.125 577.21 155.074 586.78 155.074 600.191V654H132.125V545.992H150.094L153.316 560.152H154.488C157.483 555.009 161.812 551.038 167.477 548.238C173.206 545.439 179.488 544.039 186.324 544.039C202.926 544.039 213.928 549.703 219.332 561.031H220.895C224.085 555.693 228.577 551.526 234.371 548.531C240.165 545.536 246.806 544.039 254.293 544.039C267.184 544.039 276.559 547.294 282.418 553.805C288.342 560.315 291.305 570.243 291.305 583.59V654H268.355V587.398C268.355 579.13 266.76 572.978 263.57 568.941C260.445 564.84 255.562 562.789 248.922 562.789C240.003 562.789 233.46 565.589 229.293 571.188C225.191 576.721 223.141 585.25 223.141 596.773V654ZM570.361 654L565.771 638.961H564.99C559.782 645.536 554.541 650.029 549.268 652.438C543.994 654.781 537.223 655.953 528.955 655.953C518.343 655.953 510.042 653.089 504.053 647.359C498.128 641.63 495.166 633.525 495.166 623.043C495.166 611.91 499.3 603.512 507.568 597.848C515.837 592.184 528.434 589.091 545.361 588.57L564.014 587.984V582.223C564.014 575.322 562.386 570.178 559.131 566.793C555.941 563.342 550.96 561.617 544.189 561.617C538.656 561.617 533.35 562.431 528.271 564.059C523.193 565.686 518.311 567.607 513.623 569.82L506.201 553.414C512.061 550.354 518.473 548.043 525.439 546.48C532.406 544.853 538.981 544.039 545.166 544.039C558.903 544.039 569.255 547.034 576.221 553.023C583.252 559.013 586.768 568.421 586.768 581.246V654H570.361ZM536.182 638.375C544.515 638.375 551.188 636.064 556.201 631.441C561.279 626.754 563.818 620.211 563.818 611.812V602.438L549.951 603.023C539.144 603.414 531.266 605.237 526.318 608.492C521.436 611.682 518.994 616.598 518.994 623.238C518.994 628.056 520.426 631.799 523.291 634.469C526.156 637.073 530.452 638.375 536.182 638.375ZM709.818 654H686.771V587.594C686.771 579.26 685.079 573.043 681.693 568.941C678.373 564.84 673.067 562.789 665.775 562.789C656.075 562.789 648.979 565.654 644.486 571.383C639.994 577.112 637.748 586.715 637.748 600.191V654H614.799V545.992H632.768L635.99 560.152H637.162C640.417 555.009 645.04 551.038 651.029 548.238C657.019 545.439 663.66 544.039 670.951 544.039C696.863 544.039 709.818 557.223 709.818 583.59V654ZM774.178 655.953C760.701 655.953 750.187 651.07 742.635 641.305C735.083 631.539 731.307 617.835 731.307 600.191C731.307 582.483 735.115 568.714 742.732 558.883C750.415 548.987 761.027 544.039 774.568 544.039C788.761 544.039 799.568 549.28 806.99 559.762H808.162C807.055 552.014 806.502 545.895 806.502 541.402V502.047H829.549V654H811.58L807.576 639.84H806.502C799.145 650.582 788.37 655.953 774.178 655.953ZM780.33 637.398C789.77 637.398 796.639 634.762 800.936 629.488C805.232 624.15 807.446 615.523 807.576 603.609V600.387C807.576 586.78 805.363 577.112 800.936 571.383C796.508 565.654 789.575 562.789 780.135 562.789C772.062 562.789 765.844 566.077 761.482 572.652C757.12 579.163 754.939 588.473 754.939 600.582C754.939 612.561 757.055 621.708 761.287 628.023C765.519 634.273 771.867 637.398 780.33 637.398ZM1064.76 654H1041.81V545.992H1064.76V654ZM1040.44 517.379C1040.44 513.277 1041.55 510.12 1043.76 507.906C1046.04 505.693 1049.26 504.586 1053.43 504.586C1057.47 504.586 1060.59 505.693 1062.8 507.906C1065.08 510.12 1066.22 513.277 1066.22 517.379C1066.22 521.285 1065.08 524.378 1062.8 526.656C1060.59 528.87 1057.47 529.977 1053.43 529.977C1049.26 529.977 1046.04 528.87 1043.76 526.656C1041.55 524.378 1040.44 521.285 1040.44 517.379ZM1300.06 654H1277.12V502.047H1300.06V654ZM1424.78 599.801C1424.78 617.444 1420.25 631.214 1411.2 641.109C1402.15 651.005 1389.55 655.953 1373.41 655.953C1363.32 655.953 1354.4 653.674 1346.65 649.117C1338.9 644.56 1332.95 638.017 1328.78 629.488C1324.61 620.96 1322.53 611.064 1322.53 599.801C1322.53 582.288 1327.02 568.616 1336.01 558.785C1344.99 548.954 1357.65 544.039 1373.99 544.039C1389.62 544.039 1401.99 549.085 1411.1 559.176C1420.22 569.202 1424.78 582.743 1424.78 599.801ZM1346.16 599.801C1346.16 624.736 1355.37 637.203 1373.8 637.203C1392.03 637.203 1401.14 624.736 1401.14 599.801C1401.14 575.126 1391.96 562.789 1373.6 562.789C1363.97 562.789 1356.97 565.979 1352.61 572.359C1348.31 578.74 1346.16 587.887 1346.16 599.801ZM1471.85 654L1430.83 545.992H1455.05L1477.03 608.785C1480.8 619.332 1483.08 627.861 1483.86 634.371H1484.64C1485.23 629.684 1487.51 621.155 1491.48 608.785L1513.45 545.992H1537.87L1496.65 654H1471.85ZM1597.44 655.953C1580.64 655.953 1567.49 651.07 1557.99 641.305C1548.55 631.474 1543.83 617.965 1543.83 600.777C1543.83 583.134 1548.22 569.267 1557.01 559.176C1565.8 549.085 1577.88 544.039 1593.24 544.039C1607.5 544.039 1618.76 548.368 1627.03 557.027C1635.3 565.686 1639.43 577.6 1639.43 592.77V605.172H1567.46C1567.78 615.654 1570.62 623.727 1575.96 629.391C1581.29 634.99 1588.81 637.789 1598.51 637.789C1604.89 637.789 1610.82 637.203 1616.29 636.031C1621.82 634.794 1627.75 632.776 1634.06 629.977V648.629C1628.46 651.298 1622.8 653.186 1617.07 654.293C1611.34 655.4 1604.8 655.953 1597.44 655.953ZM1593.24 561.422C1585.95 561.422 1580.09 563.733 1575.66 568.355C1571.3 572.978 1568.7 579.716 1567.85 588.57H1616.87C1616.74 579.651 1614.59 572.913 1610.43 568.355C1606.26 563.733 1600.53 561.422 1593.24 561.422ZM1888.51 655.953C1872.17 655.953 1859.73 651.201 1851.2 641.695C1842.74 632.125 1838.51 618.421 1838.51 600.582C1838.51 582.418 1842.93 568.453 1851.79 558.688C1860.71 548.922 1873.57 544.039 1890.36 544.039C1901.76 544.039 1912.01 546.155 1921.12 550.387L1914.19 568.844C1904.49 565.068 1896.48 563.18 1890.17 563.18C1871.48 563.18 1862.14 575.582 1862.14 600.387C1862.14 612.496 1864.45 621.611 1869.07 627.73C1873.76 633.785 1880.6 636.812 1889.58 636.812C1899.8 636.812 1909.47 634.273 1918.59 629.195V649.215C1914.48 651.624 1910.09 653.349 1905.4 654.391C1900.78 655.432 1895.15 655.953 1888.51 655.953ZM1994.76 544.039C1999.38 544.039 2003.19 544.365 2006.19 545.016L2003.94 566.402C2000.69 565.621 1997.3 565.23 1993.79 565.23C1984.61 565.23 1977.15 568.225 1971.42 574.215C1965.76 580.204 1962.93 587.984 1962.93 597.555V654H1939.98V545.992H1957.95L1960.97 565.035H1962.14C1965.73 558.59 1970.38 553.479 1976.11 549.703C1981.9 545.927 1988.12 544.039 1994.76 544.039ZM2069.47 655.953C2052.68 655.953 2039.52 651.07 2030.02 641.305C2020.58 631.474 2015.86 617.965 2015.86 600.777C2015.86 583.134 2020.25 569.267 2029.04 559.176C2037.83 549.085 2049.91 544.039 2065.27 544.039C2079.53 544.039 2090.79 548.368 2099.06 557.027C2107.33 565.686 2111.46 577.6 2111.46 592.77V605.172H2039.49C2039.82 615.654 2042.65 623.727 2047.99 629.391C2053.33 634.99 2060.85 637.789 2070.55 637.789C2076.93 637.789 2082.85 637.203 2088.32 636.031C2093.85 634.794 2099.78 632.776 2106.09 629.977V648.629C2100.49 651.298 2094.83 653.186 2089.1 654.293C2083.37 655.4 2076.83 655.953 2069.47 655.953ZM2065.27 561.422C2057.98 561.422 2052.12 563.733 2047.7 568.355C2043.33 572.978 2040.73 579.716 2039.88 588.57H2088.91C2088.78 579.651 2086.63 572.913 2082.46 568.355C2078.29 563.733 2072.57 561.422 2065.27 561.422ZM2201.12 654L2196.53 638.961H2195.75C2190.54 645.536 2185.3 650.029 2180.02 652.438C2174.75 654.781 2167.98 655.953 2159.71 655.953C2149.1 655.953 2140.8 653.089 2134.81 647.359C2128.88 641.63 2125.92 633.525 2125.92 623.043C2125.92 611.91 2130.06 603.512 2138.32 597.848C2146.59 592.184 2159.19 589.091 2176.12 588.57L2194.77 587.984V582.223C2194.77 575.322 2193.14 570.178 2189.89 566.793C2186.7 563.342 2181.72 561.617 2174.95 561.617C2169.41 561.617 2164.11 562.431 2159.03 564.059C2153.95 565.686 2149.07 567.607 2144.38 569.82L2136.96 553.414C2142.82 550.354 2149.23 548.043 2156.2 546.48C2163.16 544.853 2169.74 544.039 2175.92 544.039C2189.66 544.039 2200.01 547.034 2206.98 553.023C2214.01 559.013 2217.52 568.421 2217.52 581.246V654H2201.12ZM2166.94 638.375C2175.27 638.375 2181.94 636.064 2186.96 631.441C2192.04 626.754 2194.57 620.211 2194.57 611.812V602.438L2180.71 603.023C2169.9 603.414 2162.02 605.237 2157.07 608.492C2152.19 611.682 2149.75 616.598 2149.75 623.238C2149.75 628.056 2151.18 631.799 2154.05 634.469C2156.91 637.073 2161.21 638.375 2166.94 638.375ZM2285.79 637.398C2291.39 637.398 2296.99 636.52 2302.59 634.762V652.047C2300.05 653.154 2296.76 654.065 2292.72 654.781C2288.75 655.562 2284.62 655.953 2280.32 655.953C2258.58 655.953 2247.7 644.495 2247.7 621.578V563.375H2232.96V553.219L2248.78 544.82L2256.59 521.969H2270.75V545.992H2301.51V563.375H2270.75V621.188C2270.75 626.721 2272.12 630.823 2274.85 633.492C2277.65 636.096 2281.3 637.398 2285.79 637.398ZM2343.21 654H2320.27V545.992H2343.21V654ZM2318.9 517.379C2318.9 513.277 2320.01 510.12 2322.22 507.906C2324.5 505.693 2327.72 504.586 2331.89 504.586C2335.92 504.586 2339.05 505.693 2341.26 507.906C2343.54 510.12 2344.68 513.277 2344.68 517.379C2344.68 521.285 2343.54 524.378 2341.26 526.656C2339.05 528.87 2335.92 529.977 2331.89 529.977C2327.72 529.977 2324.5 528.87 2322.22 526.656C2320.01 524.378 2318.9 521.285 2318.9 517.379ZM2467.14 654H2444.1V587.594C2444.1 579.26 2442.4 573.043 2439.02 568.941C2435.7 564.84 2430.39 562.789 2423.1 562.789C2413.4 562.789 2406.3 565.654 2401.81 571.383C2397.32 577.112 2395.07 586.715 2395.07 600.191V654H2372.12V545.992H2390.09L2393.32 560.152H2394.49C2397.74 555.009 2402.37 551.038 2408.36 548.238C2414.35 545.439 2420.99 544.039 2428.28 544.039C2454.19 544.039 2467.14 557.223 2467.14 583.59V654ZM2586.29 545.992V558.59L2567.83 562.008C2569.52 564.286 2570.92 567.086 2572.03 570.406C2573.14 573.727 2573.69 577.242 2573.69 580.953C2573.69 592.086 2569.85 600.842 2562.17 607.223C2554.49 613.603 2543.91 616.793 2530.43 616.793C2526.98 616.793 2523.85 616.533 2521.05 616.012C2516.11 619.072 2513.63 622.652 2513.63 626.754C2513.63 629.228 2514.77 631.083 2517.05 632.32C2519.39 633.557 2523.66 634.176 2529.84 634.176H2548.69C2560.61 634.176 2569.65 636.715 2575.84 641.793C2582.02 646.871 2585.12 654.195 2585.12 663.766C2585.12 676.005 2580.07 685.445 2569.98 692.086C2559.89 698.727 2545.31 702.047 2526.23 702.047C2511.52 702.047 2500.29 699.443 2492.54 694.234C2484.79 689.026 2480.92 681.604 2480.92 671.969C2480.92 665.328 2483 659.729 2487.17 655.172C2491.4 650.68 2497.29 647.555 2504.84 645.797C2501.78 644.495 2499.24 642.411 2497.23 639.547C2495.27 636.617 2494.3 633.557 2494.3 630.367C2494.3 626.331 2495.44 622.913 2497.71 620.113C2499.99 617.314 2503.38 614.547 2507.87 611.812C2502.27 609.404 2497.71 605.497 2494.2 600.094C2490.75 594.625 2489.02 588.245 2489.02 580.953C2489.02 569.234 2492.7 560.152 2500.06 553.707C2507.48 547.262 2518.03 544.039 2531.7 544.039C2534.76 544.039 2537.95 544.267 2541.27 544.723C2544.65 545.113 2547.19 545.536 2548.89 545.992H2586.29ZM2501.43 670.797C2501.43 675.745 2503.64 679.553 2508.07 682.223C2512.56 684.892 2518.84 686.227 2526.91 686.227C2539.41 686.227 2548.72 684.436 2554.84 680.855C2560.96 677.275 2564.02 672.522 2564.02 666.598C2564.02 661.91 2562.33 658.557 2558.95 656.539C2555.62 654.586 2549.41 653.609 2540.29 653.609H2522.91C2516.33 653.609 2511.09 655.139 2507.19 658.199C2503.35 661.324 2501.43 665.523 2501.43 670.797ZM2511.29 580.953C2511.29 587.724 2513.01 592.932 2516.46 596.578C2519.98 600.224 2524.99 602.047 2531.5 602.047C2544.79 602.047 2551.43 594.951 2551.43 580.758C2551.43 573.727 2549.77 568.323 2546.45 564.547C2543.19 560.706 2538.21 558.785 2531.5 558.785C2524.86 558.785 2519.82 560.673 2516.37 564.449C2512.98 568.225 2511.29 573.727 2511.29 580.953ZM53.0156 905L12 796.992H36.2188L58.1914 859.785C61.9674 870.332 64.2461 878.861 65.0273 885.371H65.8086C66.3945 880.684 68.6732 872.155 72.6445 859.785L94.6172 796.992H119.031L77.8203 905H53.0156ZM199.016 905L194.426 889.961H193.645C188.436 896.536 183.195 901.029 177.922 903.438C172.648 905.781 165.878 906.953 157.609 906.953C146.997 906.953 138.697 904.089 132.707 898.359C126.783 892.63 123.82 884.525 123.82 874.043C123.82 862.91 127.954 854.512 136.223 848.848C144.491 843.184 157.089 840.091 174.016 839.57L192.668 838.984V833.223C192.668 826.322 191.04 821.178 187.785 817.793C184.595 814.342 179.615 812.617 172.844 812.617C167.31 812.617 162.004 813.431 156.926 815.059C151.848 816.686 146.965 818.607 142.277 820.82L134.855 804.414C140.715 801.354 147.128 799.043 154.094 797.48C161.06 795.853 167.635 795.039 173.82 795.039C187.557 795.039 197.909 798.034 204.875 804.023C211.906 810.013 215.422 819.421 215.422 832.246V905H199.016ZM164.836 889.375C173.169 889.375 179.842 887.064 184.855 882.441C189.934 877.754 192.473 871.211 192.473 862.812V853.438L178.605 854.023C167.798 854.414 159.921 856.237 154.973 859.492C150.09 862.682 147.648 867.598 147.648 874.238C147.648 879.056 149.081 882.799 151.945 885.469C154.81 888.073 159.107 889.375 164.836 889.375ZM266.402 905H243.453V753.047H266.402V905ZM371.484 905L368.262 890.84H367.09C363.9 895.853 359.342 899.792 353.418 902.656C347.559 905.521 340.853 906.953 333.301 906.953C320.215 906.953 310.449 903.698 304.004 897.188C297.559 890.677 294.336 880.814 294.336 867.598V796.992H317.48V863.594C317.48 871.862 319.173 878.079 322.559 882.246C325.944 886.348 331.25 888.398 338.477 888.398C348.112 888.398 355.176 885.534 359.668 879.805C364.225 874.01 366.504 864.342 366.504 850.801V796.992H389.551V905H371.484ZM485.844 905L481.254 889.961H480.473C475.264 896.536 470.023 901.029 464.75 903.438C459.477 905.781 452.706 906.953 444.438 906.953C433.826 906.953 425.525 904.089 419.535 898.359C413.611 892.63 410.648 884.525 410.648 874.043C410.648 862.91 414.783 854.512 423.051 848.848C431.319 843.184 443.917 840.091 460.844 839.57L479.496 838.984V833.223C479.496 826.322 477.868 821.178 474.613 817.793C471.423 814.342 466.443 812.617 459.672 812.617C454.138 812.617 448.832 813.431 443.754 815.059C438.676 816.686 433.793 818.607 429.105 820.82L421.684 804.414C427.543 801.354 433.956 799.043 440.922 797.48C447.888 795.853 454.464 795.039 460.648 795.039C474.385 795.039 484.737 798.034 491.703 804.023C498.734 810.013 502.25 819.421 502.25 832.246V905H485.844ZM451.664 889.375C459.997 889.375 466.671 887.064 471.684 882.441C476.762 877.754 479.301 871.211 479.301 862.812V853.438L465.434 854.023C454.626 854.414 446.749 856.237 441.801 859.492C436.918 862.682 434.477 867.598 434.477 874.238C434.477 879.056 435.909 882.799 438.773 885.469C441.638 888.073 445.935 889.375 451.664 889.375ZM585.457 795.039C598.934 795.039 609.415 799.922 616.902 809.688C624.454 819.453 628.23 833.158 628.23 850.801C628.23 868.509 624.422 882.311 616.805 892.207C609.188 902.038 598.608 906.953 585.066 906.953C571.395 906.953 560.783 902.038 553.23 892.207H551.668L547.469 905H530.281V753.047H553.23V789.18C553.23 791.849 553.1 795.82 552.84 801.094C552.579 806.367 552.384 809.72 552.254 811.152H553.23C560.522 800.41 571.264 795.039 585.457 795.039ZM579.5 813.789C570.255 813.789 563.582 816.523 559.48 821.992C555.444 827.396 553.361 836.478 553.23 849.238V850.801C553.23 863.952 555.314 873.49 559.48 879.414C563.647 885.273 570.451 888.203 579.891 888.203C588.029 888.203 594.181 884.98 598.348 878.535C602.579 872.09 604.695 862.78 604.695 850.605C604.695 826.061 596.297 813.789 579.5 813.789ZM673.84 905H650.891V753.047H673.84V905ZM749.918 906.953C733.121 906.953 719.97 902.07 710.465 892.305C701.025 882.474 696.305 868.965 696.305 851.777C696.305 834.134 700.699 820.267 709.488 810.176C718.277 800.085 730.354 795.039 745.719 795.039C759.977 795.039 771.24 799.368 779.508 808.027C787.776 816.686 791.91 828.6 791.91 843.77V856.172H719.938C720.263 866.654 723.095 874.727 728.434 880.391C733.772 885.99 741.292 888.789 750.992 888.789C757.372 888.789 763.297 888.203 768.766 887.031C774.299 885.794 780.224 883.776 786.539 880.977V899.629C780.94 902.298 775.276 904.186 769.547 905.293C763.818 906.4 757.275 906.953 749.918 906.953ZM745.719 812.422C738.427 812.422 732.568 814.733 728.141 819.355C723.779 823.978 721.174 830.716 720.328 839.57H769.352C769.221 830.651 767.073 823.913 762.906 819.355C758.74 814.733 753.01 812.422 745.719 812.422ZM1004.5 906.953C987.707 906.953 974.556 902.07 965.051 892.305C955.611 882.474 950.891 868.965 950.891 851.777C950.891 834.134 955.285 820.267 964.074 810.176C972.863 800.085 984.94 795.039 1000.3 795.039C1014.56 795.039 1025.83 799.368 1034.09 808.027C1042.36 816.686 1046.5 828.6 1046.5 843.77V856.172H974.523C974.849 866.654 977.681 874.727 983.02 880.391C988.358 885.99 995.878 888.789 1005.58 888.789C1011.96 888.789 1017.88 888.203 1023.35 887.031C1028.89 885.794 1034.81 883.776 1041.12 880.977V899.629C1035.53 902.298 1029.86 904.186 1024.13 905.293C1018.4 906.4 1011.86 906.953 1004.5 906.953ZM1000.3 812.422C993.013 812.422 987.154 814.733 982.727 819.355C978.365 823.978 975.76 830.716 974.914 839.57H1023.94C1023.81 830.651 1021.66 823.913 1017.49 819.355C1013.33 814.733 1007.6 812.422 1000.3 812.422ZM1092.59 849.824L1056.36 796.992H1082.54L1107.14 834.785L1131.95 796.992H1157.93L1121.6 849.824L1159.78 905H1133.8L1107.14 864.57L1080.58 905H1054.61L1092.59 849.824ZM1229.51 906.953C1215.84 906.953 1205.23 902.038 1197.68 892.207H1196.31C1197.22 901.322 1197.68 906.855 1197.68 908.809V953.047H1174.73V796.992H1193.28C1193.8 799.01 1194.88 803.828 1196.5 811.445H1197.68C1204.84 800.508 1215.58 795.039 1229.9 795.039C1243.38 795.039 1253.86 799.922 1261.35 809.688C1268.9 819.453 1272.68 833.158 1272.68 850.801C1272.68 868.444 1268.83 882.214 1261.15 892.109C1253.54 902.005 1242.99 906.953 1229.51 906.953ZM1223.95 813.789C1214.83 813.789 1208.16 816.458 1203.93 821.797C1199.76 827.135 1197.68 835.664 1197.68 847.383V850.801C1197.68 863.952 1199.76 873.49 1203.93 879.414C1208.09 885.273 1214.9 888.203 1224.34 888.203C1232.28 888.203 1238.4 884.948 1242.7 878.438C1246.99 871.927 1249.14 862.65 1249.14 850.605C1249.14 838.496 1246.99 829.349 1242.7 823.164C1238.46 816.914 1232.21 813.789 1223.95 813.789ZM1342.5 906.953C1325.71 906.953 1312.56 902.07 1303.05 892.305C1293.61 882.474 1288.89 868.965 1288.89 851.777C1288.89 834.134 1293.29 820.267 1302.07 810.176C1310.86 800.085 1322.94 795.039 1338.3 795.039C1352.56 795.039 1363.83 799.368 1372.09 808.027C1380.36 816.686 1384.5 828.6 1384.5 843.77V856.172H1312.52C1312.85 866.654 1315.68 874.727 1321.02 880.391C1326.36 885.99 1333.88 888.789 1343.58 888.789C1349.96 888.789 1355.88 888.203 1361.35 887.031C1366.89 885.794 1372.81 883.776 1379.12 880.977V899.629C1373.53 902.298 1367.86 904.186 1362.13 905.293C1356.4 906.4 1349.86 906.953 1342.5 906.953ZM1338.3 812.422C1331.01 812.422 1325.15 814.733 1320.73 819.355C1316.36 823.978 1313.76 830.716 1312.91 839.57H1361.94C1361.81 830.651 1359.66 823.913 1355.49 819.355C1351.33 814.733 1345.6 812.422 1338.3 812.422ZM1461.36 795.039C1465.98 795.039 1469.79 795.365 1472.78 796.016L1470.54 817.402C1467.28 816.621 1463.89 816.23 1460.38 816.23C1451.2 816.23 1443.74 819.225 1438.02 825.215C1432.35 831.204 1429.52 838.984 1429.52 848.555V905H1406.57V796.992H1424.54L1427.57 816.035H1428.74C1432.32 809.59 1436.97 804.479 1442.7 800.703C1448.5 796.927 1454.71 795.039 1461.36 795.039ZM1511.85 905H1488.9V796.992H1511.85V905ZM1487.53 768.379C1487.53 764.277 1488.64 761.12 1490.85 758.906C1493.13 756.693 1496.35 755.586 1500.52 755.586C1504.56 755.586 1507.68 756.693 1509.89 758.906C1512.17 761.12 1513.31 764.277 1513.31 768.379C1513.31 772.285 1512.17 775.378 1509.89 777.656C1507.68 779.87 1504.56 780.977 1500.52 780.977C1496.35 780.977 1493.13 779.87 1490.85 777.656C1488.64 775.378 1487.53 772.285 1487.53 768.379ZM1587.93 906.953C1571.13 906.953 1557.98 902.07 1548.47 892.305C1539.03 882.474 1534.31 868.965 1534.31 851.777C1534.31 834.134 1538.71 820.267 1547.5 810.176C1556.29 800.085 1568.36 795.039 1583.73 795.039C1597.98 795.039 1609.25 799.368 1617.52 808.027C1625.78 816.686 1629.92 828.6 1629.92 843.77V856.172H1557.95C1558.27 866.654 1561.1 874.727 1566.44 880.391C1571.78 885.99 1579.3 888.789 1589 888.789C1595.38 888.789 1601.3 888.203 1606.77 887.031C1612.31 885.794 1618.23 883.776 1624.55 880.977V899.629C1618.95 902.298 1613.28 904.186 1607.55 905.293C1601.83 906.4 1595.28 906.953 1587.93 906.953ZM1583.73 812.422C1576.43 812.422 1570.58 814.733 1566.15 819.355C1561.79 823.978 1559.18 830.716 1558.34 839.57H1607.36C1607.23 830.651 1605.08 823.913 1600.91 819.355C1596.75 814.733 1591.02 812.422 1583.73 812.422ZM1747.01 905H1723.96V838.594C1723.96 830.26 1722.27 824.043 1718.89 819.941C1715.57 815.84 1710.26 813.789 1702.97 813.789C1693.27 813.789 1686.17 816.654 1681.68 822.383C1677.19 828.112 1674.94 837.715 1674.94 851.191V905H1651.99V796.992H1669.96L1673.18 811.152H1674.36C1677.61 806.009 1682.23 802.038 1688.22 799.238C1694.21 796.439 1700.85 795.039 1708.14 795.039C1734.06 795.039 1747.01 808.223 1747.01 834.59V905ZM1818.5 906.953C1802.16 906.953 1789.72 902.201 1781.2 892.695C1772.73 883.125 1768.5 869.421 1768.5 851.582C1768.5 833.418 1772.93 819.453 1781.78 809.688C1790.7 799.922 1803.56 795.039 1820.36 795.039C1831.75 795.039 1842 797.155 1851.12 801.387L1844.18 819.844C1834.48 816.068 1826.48 814.18 1820.16 814.18C1801.48 814.18 1792.13 826.582 1792.13 851.387C1792.13 863.496 1794.44 872.611 1799.07 878.73C1803.75 884.785 1810.59 887.812 1819.57 887.812C1829.8 887.812 1839.46 885.273 1848.58 880.195V900.215C1844.48 902.624 1840.08 904.349 1835.39 905.391C1830.77 906.432 1825.14 906.953 1818.5 906.953ZM1917.14 906.953C1900.34 906.953 1887.19 902.07 1877.68 892.305C1868.24 882.474 1863.52 868.965 1863.52 851.777C1863.52 834.134 1867.92 820.267 1876.71 810.176C1885.5 800.085 1897.57 795.039 1912.94 795.039C1927.2 795.039 1938.46 799.368 1946.73 808.027C1954.99 816.686 1959.13 828.6 1959.13 843.77V856.172H1887.16C1887.48 866.654 1890.31 874.727 1895.65 880.391C1900.99 885.99 1908.51 888.789 1918.21 888.789C1924.59 888.789 1930.52 888.203 1935.98 887.031C1941.52 885.794 1947.44 883.776 1953.76 880.977V899.629C1948.16 902.298 1942.49 904.186 1936.77 905.293C1931.04 906.4 1924.49 906.953 1917.14 906.953ZM1912.94 812.422C1905.65 812.422 1899.79 814.733 1895.36 819.355C1891 823.978 1888.39 830.716 1887.55 839.57H1936.57C1936.44 830.651 1934.29 823.913 1930.12 819.355C1925.96 814.733 1920.23 812.422 1912.94 812.422ZM2053.76 874.238C2053.76 884.785 2049.92 892.891 2042.24 898.555C2034.56 904.154 2023.55 906.953 2009.23 906.953C1994.84 906.953 1983.29 904.772 1974.56 900.41V880.586C1987.26 886.445 1999.07 889.375 2010.01 889.375C2024.14 889.375 2031.2 885.111 2031.2 876.582C2031.2 873.848 2030.42 871.569 2028.86 869.746C2027.3 867.923 2024.73 866.035 2021.14 864.082C2017.56 862.129 2012.58 859.915 2006.2 857.441C1993.77 852.624 1985.34 847.806 1980.91 842.988C1976.55 838.171 1974.37 831.921 1974.37 824.238C1974.37 814.993 1978.08 807.832 1985.5 802.754C1992.99 797.611 2003.14 795.039 2015.97 795.039C2028.66 795.039 2040.68 797.611 2052 802.754L2044.58 820.039C2032.93 815.221 2023.13 812.812 2015.19 812.812C2003.08 812.812 1997.02 816.263 1997.02 823.164C1997.02 826.549 1998.59 829.414 2001.71 831.758C2004.9 834.102 2011.8 837.324 2022.41 841.426C2031.33 844.876 2037.81 848.034 2041.85 850.898C2045.88 853.763 2048.88 857.083 2050.83 860.859C2052.79 864.57 2053.76 869.03 2053.76 874.238ZM2258.25 888.398C2263.85 888.398 2269.45 887.52 2275.05 885.762V903.047C2272.51 904.154 2269.22 905.065 2265.18 905.781C2261.21 906.562 2257.08 906.953 2252.78 906.953C2231.04 906.953 2220.16 895.495 2220.16 872.578V814.375H2205.42V804.219L2221.24 795.82L2229.05 772.969H2243.21V796.992H2273.97V814.375H2243.21V872.188C2243.21 877.721 2244.58 881.823 2247.31 884.492C2250.11 887.096 2253.76 888.398 2258.25 888.398ZM2387.75 905H2364.7V838.594C2364.7 830.26 2363.01 824.043 2359.62 819.941C2356.3 815.84 2350.99 813.789 2343.7 813.789C2334.07 813.789 2326.97 816.686 2322.41 822.48C2317.92 828.21 2315.68 837.845 2315.68 851.387V905H2292.73V753.047H2315.68V791.621C2315.68 797.806 2315.29 804.414 2314.5 811.445H2315.97C2319.09 806.237 2323.42 802.201 2328.96 799.336C2334.56 796.471 2341.07 795.039 2348.49 795.039C2374.66 795.039 2387.75 808.223 2387.75 834.59V905ZM2483.26 905L2478.67 889.961H2477.89C2472.68 896.536 2467.44 901.029 2462.16 903.438C2456.89 905.781 2450.12 906.953 2441.85 906.953C2431.24 906.953 2422.94 904.089 2416.95 898.359C2411.02 892.63 2408.06 884.525 2408.06 874.043C2408.06 862.91 2412.2 854.512 2420.46 848.848C2428.73 843.184 2441.33 840.091 2458.26 839.57L2476.91 838.984V833.223C2476.91 826.322 2475.28 821.178 2472.03 817.793C2468.84 814.342 2463.86 812.617 2457.09 812.617C2451.55 812.617 2446.25 813.431 2441.17 815.059C2436.09 816.686 2431.21 818.607 2426.52 820.82L2419.1 804.414C2424.96 801.354 2431.37 799.043 2438.34 797.48C2445.3 795.853 2451.88 795.039 2458.06 795.039C2471.8 795.039 2482.15 798.034 2489.12 804.023C2496.15 810.013 2499.66 819.421 2499.66 832.246V905H2483.26ZM2449.08 889.375C2457.41 889.375 2464.08 887.064 2469.1 882.441C2474.18 877.754 2476.71 871.211 2476.71 862.812V853.438L2462.85 854.023C2452.04 854.414 2444.16 856.237 2439.21 859.492C2434.33 862.682 2431.89 867.598 2431.89 874.238C2431.89 879.056 2433.32 882.799 2436.19 885.469C2439.05 888.073 2443.35 889.375 2449.08 889.375ZM2567.93 888.398C2573.53 888.398 2579.13 887.52 2584.73 885.762V903.047C2582.19 904.154 2578.9 905.065 2574.86 905.781C2570.89 906.562 2566.76 906.953 2562.46 906.953C2540.72 906.953 2529.84 895.495 2529.84 872.578V814.375H2515.1V804.219L2530.92 795.82L2538.73 772.969H2552.89V796.992H2583.65V814.375H2552.89V872.188C2552.89 877.721 2554.26 881.823 2556.99 884.492C2559.79 887.096 2563.44 888.398 2567.93 888.398ZM51.3555 1156H28.4062V1047.99H51.3555V1156ZM27.0391 1019.38C27.0391 1015.28 28.1458 1012.12 30.3594 1009.91C32.638 1007.69 35.8607 1006.59 40.0273 1006.59C44.0638 1006.59 47.1888 1007.69 49.4023 1009.91C51.681 1012.12 52.8203 1015.28 52.8203 1019.38C52.8203 1023.29 51.681 1026.38 49.4023 1028.66C47.1888 1030.87 44.0638 1031.98 40.0273 1031.98C35.8607 1031.98 32.638 1030.87 30.3594 1028.66C28.1458 1026.38 27.0391 1023.29 27.0391 1019.38ZM175.285 1156H152.238V1089.59C152.238 1081.26 150.546 1075.04 147.16 1070.94C143.84 1066.84 138.534 1064.79 131.242 1064.79C121.542 1064.79 114.445 1067.65 109.953 1073.38C105.461 1079.11 103.215 1088.71 103.215 1102.19V1156H80.2656V1047.99H98.2344L101.457 1062.15H102.629C105.884 1057.01 110.507 1053.04 116.496 1050.24C122.486 1047.44 129.126 1046.04 136.418 1046.04C162.329 1046.04 175.285 1059.22 175.285 1085.59V1156ZM275.777 1125.24C275.777 1135.79 271.936 1143.89 264.254 1149.55C256.572 1155.15 245.569 1157.95 231.246 1157.95C216.858 1157.95 205.302 1155.77 196.578 1151.41V1131.59C209.273 1137.45 221.09 1140.38 232.027 1140.38C246.155 1140.38 253.219 1136.11 253.219 1127.58C253.219 1124.85 252.438 1122.57 250.875 1120.75C249.312 1118.92 246.741 1117.04 243.16 1115.08C239.579 1113.13 234.599 1110.92 228.219 1108.44C215.784 1103.62 207.353 1098.81 202.926 1093.99C198.564 1089.17 196.383 1082.92 196.383 1075.24C196.383 1065.99 200.094 1058.83 207.516 1053.75C215.003 1048.61 225.159 1046.04 237.984 1046.04C250.68 1046.04 262.691 1048.61 274.02 1053.75L266.598 1071.04C254.944 1066.22 245.146 1063.81 237.203 1063.81C225.094 1063.81 219.039 1067.26 219.039 1074.16C219.039 1077.55 220.602 1080.41 223.727 1082.76C226.917 1085.1 233.818 1088.32 244.43 1092.43C253.349 1095.88 259.827 1099.03 263.863 1101.9C267.9 1104.76 270.895 1108.08 272.848 1111.86C274.801 1115.57 275.777 1120.03 275.777 1125.24ZM336.914 1139.4C342.513 1139.4 348.112 1138.52 353.711 1136.76V1154.05C351.172 1155.15 347.884 1156.07 343.848 1156.78C339.876 1157.56 335.742 1157.95 331.445 1157.95C309.701 1157.95 298.828 1146.49 298.828 1123.58V1065.38H284.082V1055.22L299.902 1046.82L307.715 1023.97H321.875V1047.99H352.637V1065.38H321.875V1123.19C321.875 1128.72 323.242 1132.82 325.977 1135.49C328.776 1138.1 332.422 1139.4 336.914 1139.4ZM394.34 1156H371.391V1047.99H394.34V1156ZM370.023 1019.38C370.023 1015.28 371.13 1012.12 373.344 1009.91C375.622 1007.69 378.845 1006.59 383.012 1006.59C387.048 1006.59 390.173 1007.69 392.387 1009.91C394.665 1012.12 395.805 1015.28 395.805 1019.38C395.805 1023.29 394.665 1026.38 392.387 1028.66C390.173 1030.87 387.048 1031.98 383.012 1031.98C378.845 1031.98 375.622 1030.87 373.344 1028.66C371.13 1026.38 370.023 1023.29 370.023 1019.38ZM446.199 1156H423.25V1004.05H446.199V1156ZM498.059 1156H475.109V1004.05H498.059V1156ZM817.977 1157.95C804.305 1157.95 793.693 1153.04 786.141 1143.21H784.773C785.685 1152.32 786.141 1157.86 786.141 1159.81V1204.05H763.191V1047.99H781.746C782.267 1050.01 783.341 1054.83 784.969 1062.45H786.141C793.302 1051.51 804.044 1046.04 818.367 1046.04C831.844 1046.04 842.326 1050.92 849.812 1060.69C857.365 1070.45 861.141 1084.16 861.141 1101.8C861.141 1119.44 857.299 1133.21 849.617 1143.11C842 1153.01 831.453 1157.95 817.977 1157.95ZM812.41 1064.79C803.296 1064.79 796.622 1067.46 792.391 1072.8C788.224 1078.14 786.141 1086.66 786.141 1098.38V1101.8C786.141 1114.95 788.224 1124.49 792.391 1130.41C796.557 1136.27 803.361 1139.2 812.801 1139.2C820.743 1139.2 826.863 1135.95 831.16 1129.44C835.457 1122.93 837.605 1113.65 837.605 1101.61C837.605 1089.5 835.457 1080.35 831.16 1074.16C826.928 1067.91 820.678 1064.79 812.41 1064.79ZM979.602 1101.8C979.602 1119.44 975.077 1133.21 966.027 1143.11C956.978 1153.01 944.38 1157.95 928.234 1157.95C918.143 1157.95 909.224 1155.67 901.477 1151.12C893.729 1146.56 887.772 1140.02 883.605 1131.49C879.439 1122.96 877.355 1113.06 877.355 1101.8C877.355 1084.29 881.848 1070.62 890.832 1060.79C899.816 1050.95 912.479 1046.04 928.82 1046.04C944.445 1046.04 956.815 1051.08 965.93 1061.18C975.044 1071.2 979.602 1084.74 979.602 1101.8ZM900.988 1101.8C900.988 1126.74 910.201 1139.2 928.625 1139.2C946.854 1139.2 955.969 1126.74 955.969 1101.8C955.969 1077.13 946.789 1064.79 928.43 1064.79C918.794 1064.79 911.796 1067.98 907.434 1074.36C903.137 1080.74 900.988 1089.89 900.988 1101.8ZM1074.62 1125.24C1074.62 1135.79 1070.78 1143.89 1063.1 1149.55C1055.42 1155.15 1044.42 1157.95 1030.09 1157.95C1015.71 1157.95 1004.15 1155.77 995.426 1151.41V1131.59C1008.12 1137.45 1019.94 1140.38 1030.88 1140.38C1045 1140.38 1052.07 1136.11 1052.07 1127.58C1052.07 1124.85 1051.29 1122.57 1049.72 1120.75C1048.16 1118.92 1045.59 1117.04 1042.01 1115.08C1038.43 1113.13 1033.45 1110.92 1027.07 1108.44C1014.63 1103.62 1006.2 1098.81 1001.77 1093.99C997.411 1089.17 995.23 1082.92 995.23 1075.24C995.23 1065.99 998.941 1058.83 1006.36 1053.75C1013.85 1048.61 1024.01 1046.04 1036.83 1046.04C1049.53 1046.04 1061.54 1048.61 1072.87 1053.75L1065.45 1071.04C1053.79 1066.22 1043.99 1063.81 1036.05 1063.81C1023.94 1063.81 1017.89 1067.26 1017.89 1074.16C1017.89 1077.55 1019.45 1080.41 1022.57 1082.76C1025.76 1085.1 1032.67 1088.32 1043.28 1092.43C1052.2 1095.88 1058.67 1099.03 1062.71 1101.9C1066.75 1104.76 1069.74 1108.08 1071.7 1111.86C1073.65 1115.57 1074.62 1120.03 1074.62 1125.24ZM1118.48 1156H1095.53V1047.99H1118.48V1156ZM1094.16 1019.38C1094.16 1015.28 1095.27 1012.12 1097.48 1009.91C1099.76 1007.69 1102.98 1006.59 1107.15 1006.59C1111.18 1006.59 1114.31 1007.69 1116.52 1009.91C1118.8 1012.12 1119.94 1015.28 1119.94 1019.38C1119.94 1023.29 1118.8 1026.38 1116.52 1028.66C1114.31 1030.87 1111.18 1031.98 1107.15 1031.98C1102.98 1031.98 1099.76 1030.87 1097.48 1028.66C1095.27 1026.38 1094.16 1023.29 1094.16 1019.38ZM1187.62 1139.4C1193.22 1139.4 1198.82 1138.52 1204.42 1136.76V1154.05C1201.88 1155.15 1198.59 1156.07 1194.55 1156.78C1190.58 1157.56 1186.45 1157.95 1182.15 1157.95C1160.41 1157.95 1149.54 1146.49 1149.54 1123.58V1065.38H1134.79V1055.22L1150.61 1046.82L1158.42 1023.97H1172.58V1047.99H1203.34V1065.38H1172.58V1123.19C1172.58 1128.72 1173.95 1132.82 1176.68 1135.49C1179.48 1138.1 1183.13 1139.4 1187.62 1139.4ZM1245.05 1156H1222.1V1047.99H1245.05V1156ZM1220.73 1019.38C1220.73 1015.28 1221.84 1012.12 1224.05 1009.91C1226.33 1007.69 1229.55 1006.59 1233.72 1006.59C1237.76 1006.59 1240.88 1007.69 1243.09 1009.91C1245.37 1012.12 1246.51 1015.28 1246.51 1019.38C1246.51 1023.29 1245.37 1026.38 1243.09 1028.66C1240.88 1030.87 1237.76 1031.98 1233.72 1031.98C1229.55 1031.98 1226.33 1030.87 1224.05 1028.66C1221.84 1026.38 1220.73 1023.29 1220.73 1019.38ZM1298.57 1156L1257.55 1047.99H1281.77L1303.74 1110.79C1307.52 1121.33 1309.8 1129.86 1310.58 1136.37H1311.36C1311.95 1131.68 1314.22 1123.15 1318.2 1110.79L1340.17 1047.99H1364.58L1323.37 1156H1298.57ZM1424.16 1157.95C1407.36 1157.95 1394.21 1153.07 1384.7 1143.3C1375.26 1133.47 1370.54 1119.96 1370.54 1102.78C1370.54 1085.13 1374.94 1071.27 1383.73 1061.18C1392.52 1051.08 1404.59 1046.04 1419.96 1046.04C1434.21 1046.04 1445.48 1050.37 1453.75 1059.03C1462.01 1067.69 1466.15 1079.6 1466.15 1094.77V1107.17H1394.18C1394.5 1117.65 1397.33 1125.73 1402.67 1131.39C1408.01 1136.99 1415.53 1139.79 1425.23 1139.79C1431.61 1139.79 1437.54 1139.2 1443 1138.03C1448.54 1136.79 1454.46 1134.78 1460.78 1131.98V1150.63C1455.18 1153.3 1449.51 1155.19 1443.79 1156.29C1438.06 1157.4 1431.51 1157.95 1424.16 1157.95ZM1419.96 1063.42C1412.67 1063.42 1406.81 1065.73 1402.38 1070.36C1398.02 1074.98 1395.41 1081.72 1394.57 1090.57H1443.59C1443.46 1081.65 1441.31 1074.91 1437.14 1070.36C1432.98 1065.73 1427.25 1063.42 1419.96 1063.42ZM1771.61 1157.95C1754.82 1157.95 1741.67 1153.07 1732.16 1143.3C1722.72 1133.47 1718 1119.96 1718 1102.78C1718 1085.13 1722.39 1071.27 1731.18 1061.18C1739.97 1051.08 1752.05 1046.04 1767.41 1046.04C1781.67 1046.04 1792.93 1050.37 1801.2 1059.03C1809.47 1067.69 1813.61 1079.6 1813.61 1094.77V1107.17H1741.63C1741.96 1117.65 1744.79 1125.73 1750.13 1131.39C1755.47 1136.99 1762.99 1139.79 1772.69 1139.79C1779.07 1139.79 1784.99 1139.2 1790.46 1138.03C1795.99 1136.79 1801.92 1134.78 1808.23 1131.98V1150.63C1802.64 1153.3 1796.97 1155.19 1791.24 1156.29C1785.51 1157.4 1778.97 1157.95 1771.61 1157.95ZM1767.41 1063.42C1760.12 1063.42 1754.26 1065.73 1749.84 1070.36C1745.47 1074.98 1742.87 1081.72 1742.02 1090.57H1791.05C1790.92 1081.65 1788.77 1074.91 1784.6 1070.36C1780.43 1065.73 1774.71 1063.42 1767.41 1063.42ZM1926.7 1156H1903.65V1089.4C1903.65 1081.13 1902.09 1074.98 1898.96 1070.94C1895.84 1066.84 1890.95 1064.79 1884.31 1064.79C1875.46 1064.79 1868.95 1067.69 1864.78 1073.48C1860.68 1079.21 1858.63 1088.78 1858.63 1102.19V1156H1835.68V1047.99H1853.65L1856.87 1062.15H1858.04C1861.04 1057.01 1865.37 1053.04 1871.03 1050.24C1876.76 1047.44 1883.04 1046.04 1889.88 1046.04C1906.48 1046.04 1917.48 1051.7 1922.89 1063.03H1924.45C1927.64 1057.69 1932.13 1053.53 1937.93 1050.53C1943.72 1047.54 1950.36 1046.04 1957.85 1046.04C1970.74 1046.04 1980.11 1049.29 1985.97 1055.8C1991.9 1062.32 1994.86 1072.24 1994.86 1085.59V1156H1971.91V1089.4C1971.91 1081.13 1970.32 1074.98 1967.12 1070.94C1964 1066.84 1959.12 1064.79 1952.48 1064.79C1943.56 1064.79 1937.01 1067.59 1932.85 1073.19C1928.75 1078.72 1926.7 1087.25 1926.7 1098.77V1156ZM2118.69 1101.8C2118.69 1119.44 2114.17 1133.21 2105.12 1143.11C2096.07 1153.01 2083.47 1157.95 2067.32 1157.95C2057.23 1157.95 2048.31 1155.67 2040.57 1151.12C2032.82 1146.56 2026.86 1140.02 2022.7 1131.49C2018.53 1122.96 2016.45 1113.06 2016.45 1101.8C2016.45 1084.29 2020.94 1070.62 2029.92 1060.79C2038.91 1050.95 2051.57 1046.04 2067.91 1046.04C2083.54 1046.04 2095.9 1051.08 2105.02 1061.18C2114.13 1071.2 2118.69 1084.74 2118.69 1101.8ZM2040.08 1101.8C2040.08 1126.74 2049.29 1139.2 2067.71 1139.2C2085.94 1139.2 2095.06 1126.74 2095.06 1101.8C2095.06 1077.13 2085.88 1064.79 2067.52 1064.79C2057.88 1064.79 2050.89 1067.98 2046.52 1074.36C2042.23 1080.74 2040.08 1089.89 2040.08 1101.8ZM2181.39 1139.4C2186.99 1139.4 2192.59 1138.52 2198.19 1136.76V1154.05C2195.65 1155.15 2192.36 1156.07 2188.32 1156.78C2184.35 1157.56 2180.22 1157.95 2175.92 1157.95C2154.18 1157.95 2143.3 1146.49 2143.3 1123.58V1065.38H2128.56V1055.22L2144.38 1046.82L2152.19 1023.97H2166.35V1047.99H2197.11V1065.38H2166.35V1123.19C2166.35 1128.72 2167.72 1132.82 2170.45 1135.49C2173.25 1138.1 2176.9 1139.4 2181.39 1139.4ZM2238.82 1156H2215.87V1047.99H2238.82V1156ZM2214.5 1019.38C2214.5 1015.28 2215.61 1012.12 2217.82 1009.91C2220.1 1007.69 2223.32 1006.59 2227.49 1006.59C2231.52 1006.59 2234.65 1007.69 2236.86 1009.91C2239.14 1012.12 2240.28 1015.28 2240.28 1019.38C2240.28 1023.29 2239.14 1026.38 2236.86 1028.66C2234.65 1030.87 2231.52 1031.98 2227.49 1031.98C2223.32 1031.98 2220.1 1030.87 2217.82 1028.66C2215.61 1026.38 2214.5 1023.29 2214.5 1019.38ZM2363.53 1101.8C2363.53 1119.44 2359 1133.21 2349.95 1143.11C2340.9 1153.01 2328.31 1157.95 2312.16 1157.95C2302.07 1157.95 2293.15 1155.67 2285.4 1151.12C2277.65 1146.56 2271.7 1140.02 2267.53 1131.49C2263.36 1122.96 2261.28 1113.06 2261.28 1101.8C2261.28 1084.29 2265.77 1070.62 2274.76 1060.79C2283.74 1050.95 2296.4 1046.04 2312.75 1046.04C2328.37 1046.04 2340.74 1051.08 2349.86 1061.18C2358.97 1071.2 2363.53 1084.74 2363.53 1101.8ZM2284.91 1101.8C2284.91 1126.74 2294.13 1139.2 2312.55 1139.2C2330.78 1139.2 2339.89 1126.74 2339.89 1101.8C2339.89 1077.13 2330.71 1064.79 2312.36 1064.79C2302.72 1064.79 2295.72 1067.98 2291.36 1074.36C2287.06 1080.74 2284.91 1089.89 2284.91 1101.8ZM2481.01 1156H2457.96V1089.59C2457.96 1081.26 2456.27 1075.04 2452.89 1070.94C2449.57 1066.84 2444.26 1064.79 2436.97 1064.79C2427.27 1064.79 2420.17 1067.65 2415.68 1073.38C2411.19 1079.11 2408.94 1088.71 2408.94 1102.19V1156H2385.99V1047.99H2403.96L2407.18 1062.15H2408.36C2411.61 1057.01 2416.23 1053.04 2422.22 1050.24C2428.21 1047.44 2434.85 1046.04 2442.14 1046.04C2468.06 1046.04 2481.01 1059.22 2481.01 1085.59V1156ZM2581.5 1125.24C2581.5 1135.79 2577.66 1143.89 2569.98 1149.55C2562.3 1155.15 2551.3 1157.95 2536.97 1157.95C2522.58 1157.95 2511.03 1155.77 2502.3 1151.41V1131.59C2515 1137.45 2526.82 1140.38 2537.75 1140.38C2551.88 1140.38 2558.95 1136.11 2558.95 1127.58C2558.95 1124.85 2558.16 1122.57 2556.6 1120.75C2555.04 1118.92 2552.47 1117.04 2548.89 1115.08C2545.31 1113.13 2540.33 1110.92 2533.95 1108.44C2521.51 1103.62 2513.08 1098.81 2508.65 1093.99C2504.29 1089.17 2502.11 1082.92 2502.11 1075.24C2502.11 1065.99 2505.82 1058.83 2513.24 1053.75C2520.73 1048.61 2530.89 1046.04 2543.71 1046.04C2556.41 1046.04 2568.42 1048.61 2579.75 1053.75L2572.32 1071.04C2560.67 1066.22 2550.87 1063.81 2542.93 1063.81C2530.82 1063.81 2524.77 1067.26 2524.77 1074.16C2524.77 1077.55 2526.33 1080.41 2529.45 1082.76C2532.64 1085.1 2539.54 1088.32 2550.16 1092.43C2559.08 1095.88 2565.55 1099.03 2569.59 1101.9C2573.63 1104.76 2576.62 1108.08 2578.57 1111.86C2580.53 1115.57 2581.5 1120.03 2581.5 1125.24ZM116.98 1407L103.016 1356.61C101.323 1351.27 98.263 1338.87 93.8359 1319.4H92.957C89.181 1336.98 86.1862 1349.45 83.9727 1356.8L69.6172 1407H44.2266L13.9531 1298.99H37.3906L51.1602 1352.21C54.2852 1365.37 56.4987 1376.63 57.8008 1386H58.3867C59.0378 1381.25 60.0143 1375.82 61.3164 1369.7C62.6836 1363.51 63.8555 1358.89 64.832 1355.83L81.2383 1298.99H106.434L122.352 1355.83C123.328 1359.02 124.533 1363.9 125.965 1370.48C127.462 1377.05 128.341 1382.16 128.602 1385.81H129.383C130.359 1377.8 132.638 1366.6 136.219 1352.21L150.184 1298.99H173.23L142.762 1407H116.98ZM210.832 1407H187.883V1298.99H210.832V1407ZM186.516 1270.38C186.516 1266.28 187.622 1263.12 189.836 1260.91C192.115 1258.69 195.337 1257.59 199.504 1257.59C203.54 1257.59 206.665 1258.69 208.879 1260.91C211.158 1263.12 212.297 1266.28 212.297 1270.38C212.297 1274.29 211.158 1277.38 208.879 1279.66C206.665 1281.87 203.54 1282.98 199.504 1282.98C195.337 1282.98 192.115 1281.87 189.836 1279.66C187.622 1277.38 186.516 1274.29 186.516 1270.38ZM279.977 1390.4C285.576 1390.4 291.174 1389.52 296.773 1387.76V1405.05C294.234 1406.15 290.947 1407.07 286.91 1407.78C282.939 1408.56 278.805 1408.95 274.508 1408.95C252.763 1408.95 241.891 1397.49 241.891 1374.58V1316.38H227.145V1306.22L242.965 1297.82L250.777 1274.97H264.938V1298.99H295.699V1316.38H264.938V1374.19C264.938 1379.72 266.305 1383.82 269.039 1386.49C271.839 1389.1 275.484 1390.4 279.977 1390.4ZM409.473 1407H386.426V1340.59C386.426 1332.26 384.733 1326.04 381.348 1321.94C378.027 1317.84 372.721 1315.79 365.43 1315.79C355.794 1315.79 348.698 1318.69 344.141 1324.48C339.648 1330.21 337.402 1339.85 337.402 1353.39V1407H314.453V1255.05H337.402V1293.62C337.402 1299.81 337.012 1306.41 336.23 1313.45H337.695C340.82 1308.24 345.15 1304.2 350.684 1301.34C356.283 1298.47 362.793 1297.04 370.215 1297.04C396.387 1297.04 409.473 1310.22 409.473 1336.59V1407ZM460.355 1407H437.406V1298.99H460.355V1407ZM436.039 1270.38C436.039 1266.28 437.146 1263.12 439.359 1260.91C441.638 1258.69 444.861 1257.59 449.027 1257.59C453.064 1257.59 456.189 1258.69 458.402 1260.91C460.681 1263.12 461.82 1266.28 461.82 1270.38C461.82 1274.29 460.681 1277.38 458.402 1279.66C456.189 1281.87 453.064 1282.98 449.027 1282.98C444.861 1282.98 441.638 1281.87 439.359 1279.66C437.146 1277.38 436.039 1274.29 436.039 1270.38ZM584.285 1407H561.238V1340.59C561.238 1332.26 559.546 1326.04 556.16 1321.94C552.84 1317.84 547.534 1315.79 540.242 1315.79C530.542 1315.79 523.445 1318.65 518.953 1324.38C514.461 1330.11 512.215 1339.71 512.215 1353.19V1407H489.266V1298.99H507.234L510.457 1313.15H511.629C514.884 1308.01 519.507 1304.04 525.496 1301.24C531.486 1298.44 538.126 1297.04 545.418 1297.04C571.329 1297.04 584.285 1310.22 584.285 1336.59V1407ZM736.344 1407L733.121 1392.84H731.949C728.759 1397.85 724.202 1401.79 718.277 1404.66C712.418 1407.52 705.712 1408.95 698.16 1408.95C685.074 1408.95 675.309 1405.7 668.863 1399.19C662.418 1392.68 659.195 1382.81 659.195 1369.6V1298.99H682.34V1365.59C682.34 1373.86 684.033 1380.08 687.418 1384.25C690.803 1388.35 696.109 1390.4 703.336 1390.4C712.971 1390.4 720.035 1387.53 724.527 1381.8C729.085 1376.01 731.363 1366.34 731.363 1352.8V1298.99H754.41V1407H736.344ZM855.684 1376.24C855.684 1386.79 851.842 1394.89 844.16 1400.55C836.478 1406.15 825.475 1408.95 811.152 1408.95C796.764 1408.95 785.208 1406.77 776.484 1402.41V1382.59C789.18 1388.45 800.996 1391.38 811.934 1391.38C826.061 1391.38 833.125 1387.11 833.125 1378.58C833.125 1375.85 832.344 1373.57 830.781 1371.75C829.219 1369.92 826.647 1368.04 823.066 1366.08C819.486 1364.13 814.505 1361.92 808.125 1359.44C795.69 1354.62 787.259 1349.81 782.832 1344.99C778.47 1340.17 776.289 1333.92 776.289 1326.24C776.289 1316.99 780 1309.83 787.422 1304.75C794.909 1299.61 805.065 1297.04 817.891 1297.04C830.586 1297.04 842.598 1299.61 853.926 1304.75L846.504 1322.04C834.85 1317.22 825.052 1314.81 817.109 1314.81C805 1314.81 798.945 1318.26 798.945 1325.16C798.945 1328.55 800.508 1331.41 803.633 1333.76C806.823 1336.1 813.724 1339.32 824.336 1343.43C833.255 1346.88 839.733 1350.03 843.77 1352.9C847.806 1355.76 850.801 1359.08 852.754 1362.86C854.707 1366.57 855.684 1371.03 855.684 1376.24ZM923.754 1408.95C906.957 1408.95 893.806 1404.07 884.301 1394.3C874.861 1384.47 870.141 1370.96 870.141 1353.78C870.141 1336.13 874.535 1322.27 883.324 1312.18C892.113 1302.08 904.19 1297.04 919.555 1297.04C933.812 1297.04 945.076 1301.37 953.344 1310.03C961.612 1318.69 965.746 1330.6 965.746 1345.77V1358.17H893.773C894.099 1368.65 896.931 1376.73 902.27 1382.39C907.608 1387.99 915.128 1390.79 924.828 1390.79C931.208 1390.79 937.133 1390.2 942.602 1389.03C948.135 1387.79 954.06 1385.78 960.375 1382.98V1401.63C954.776 1404.3 949.112 1406.19 943.383 1407.29C937.654 1408.4 931.111 1408.95 923.754 1408.95ZM919.555 1314.42C912.263 1314.42 906.404 1316.73 901.977 1321.36C897.615 1325.98 895.01 1332.72 894.164 1341.57H943.188C943.057 1332.65 940.909 1325.91 936.742 1321.36C932.576 1316.73 926.846 1314.42 919.555 1314.42ZM1042.61 1297.04C1047.23 1297.04 1051.04 1297.36 1054.03 1298.02L1051.79 1319.4C1048.53 1318.62 1045.14 1318.23 1041.63 1318.23C1032.45 1318.23 1024.99 1321.23 1019.27 1327.21C1013.6 1333.2 1010.77 1340.98 1010.77 1350.55V1407H987.82V1298.99H1005.79L1008.82 1318.04H1009.99C1013.57 1311.59 1018.22 1306.48 1023.95 1302.7C1029.75 1298.93 1035.96 1297.04 1042.61 1297.04ZM1142.71 1376.24C1142.71 1386.79 1138.87 1394.89 1131.18 1400.55C1123.5 1406.15 1112.5 1408.95 1098.18 1408.95C1083.79 1408.95 1072.23 1406.77 1063.51 1402.41V1382.59C1076.2 1388.45 1088.02 1391.38 1098.96 1391.38C1113.08 1391.38 1120.15 1387.11 1120.15 1378.58C1120.15 1375.85 1119.37 1373.57 1117.8 1371.75C1116.24 1369.92 1113.67 1368.04 1110.09 1366.08C1106.51 1364.13 1101.53 1361.92 1095.15 1359.44C1082.71 1354.62 1074.28 1349.81 1069.86 1344.99C1065.49 1340.17 1063.31 1333.92 1063.31 1326.24C1063.31 1316.99 1067.02 1309.83 1074.45 1304.75C1081.93 1299.61 1092.09 1297.04 1104.91 1297.04C1117.61 1297.04 1129.62 1299.61 1140.95 1304.75L1133.53 1322.04C1121.87 1317.22 1112.08 1314.81 1104.13 1314.81C1092.02 1314.81 1085.97 1318.26 1085.97 1325.16C1085.97 1328.55 1087.53 1331.41 1090.66 1333.76C1093.85 1336.1 1100.75 1339.32 1111.36 1343.43C1120.28 1346.88 1126.76 1350.03 1130.79 1352.9C1134.83 1355.76 1137.82 1359.08 1139.78 1362.86C1141.73 1366.57 1142.71 1371.03 1142.71 1376.24ZM1160.19 1394.79C1160.19 1390.04 1161.43 1386.39 1163.9 1383.86C1166.38 1381.32 1169.96 1380.05 1174.64 1380.05C1179.4 1380.05 1183.01 1381.38 1185.48 1384.05C1187.96 1386.65 1189.2 1390.24 1189.2 1394.79C1189.2 1399.42 1187.93 1403.09 1185.39 1405.83C1182.91 1408.5 1179.33 1409.83 1174.64 1409.83C1169.96 1409.83 1166.38 1408.5 1163.9 1405.83C1161.43 1403.16 1160.19 1399.48 1160.19 1394.79Z" fill="#404040"/>
</svg>
