<svg width="308" height="282" viewBox="0 0 308 282" fill="none" xmlns="http://www.w3.org/2000/svg">
<g filter="url(#filter0_d)">
<rect x="4" width="300" height="274" rx="10" fill="#333333"/>
</g>
<path d="M125.041 174V164.047H128.295C129.375 164.047 130.187 164.27 130.729 164.717C131.276 165.163 131.549 165.824 131.549 166.699C131.549 167.164 131.417 167.576 131.153 167.937C130.888 168.292 130.528 168.568 130.073 168.764C130.61 168.914 131.034 169.201 131.344 169.625C131.659 170.044 131.816 170.546 131.816 171.129C131.816 172.022 131.526 172.724 130.948 173.234C130.369 173.745 129.551 174 128.494 174H125.041ZM126.354 169.345V172.927H128.521C129.132 172.927 129.612 172.77 129.963 172.455C130.319 172.136 130.497 171.699 130.497 171.143C130.497 169.944 129.845 169.345 128.541 169.345H126.354ZM126.354 168.292H128.336C128.911 168.292 129.369 168.148 129.71 167.861C130.057 167.574 130.23 167.185 130.23 166.692C130.23 166.146 130.07 165.749 129.751 165.503C129.432 165.252 128.947 165.127 128.295 165.127H126.354V168.292ZM150.38 169.345C150.38 170.32 150.216 171.172 149.888 171.901C149.56 172.626 149.095 173.18 148.494 173.562C147.892 173.945 147.19 174.137 146.388 174.137C145.604 174.137 144.909 173.945 144.303 173.562C143.697 173.175 143.225 172.626 142.888 171.915C142.555 171.2 142.385 170.372 142.375 169.434V168.716C142.375 167.759 142.542 166.913 142.874 166.18C143.207 165.446 143.677 164.885 144.283 164.498C144.893 164.106 145.591 163.91 146.374 163.91C147.172 163.91 147.874 164.104 148.48 164.491C149.091 164.874 149.56 165.432 149.888 166.166C150.216 166.895 150.38 167.745 150.38 168.716V169.345ZM149.075 168.702C149.075 167.522 148.838 166.617 148.364 165.988C147.89 165.355 147.227 165.038 146.374 165.038C145.545 165.038 144.891 165.355 144.413 165.988C143.939 166.617 143.695 167.492 143.681 168.613V169.345C143.681 170.489 143.92 171.389 144.399 172.045C144.882 172.697 145.545 173.022 146.388 173.022C147.236 173.022 147.892 172.715 148.357 172.1C148.822 171.48 149.061 170.593 149.075 169.44V168.702ZM162.628 172.927H167.345V174H161.309V164.047H162.628V172.927ZM182.793 165.127H179.593V174H178.288V165.127H175.095V164.047H182.793V165.127ZM107.858 194V184.047H110.667C111.533 184.047 112.299 184.238 112.964 184.621C113.63 185.004 114.142 185.549 114.502 186.255C114.867 186.961 115.051 187.772 115.056 188.688V189.324C115.056 190.263 114.874 191.086 114.509 191.792C114.149 192.498 113.632 193.041 112.957 193.419C112.287 193.797 111.506 193.991 110.613 194H107.858ZM109.17 185.127V192.927H110.551C111.563 192.927 112.349 192.612 112.91 191.983C113.475 191.354 113.757 190.459 113.757 189.297V188.716C113.757 187.586 113.491 186.708 112.957 186.084C112.429 185.455 111.677 185.136 110.702 185.127H109.17ZM131.631 189.399H127.318V192.927H132.329V194H126.005V184.047H132.26V185.127H127.318V188.326H131.631V189.399ZM145.855 189.563C144.729 189.24 143.909 188.843 143.394 188.374C142.884 187.9 142.628 187.317 142.628 186.624C142.628 185.84 142.941 185.193 143.565 184.683C144.194 184.168 145.01 183.91 146.012 183.91C146.696 183.91 147.304 184.042 147.837 184.307C148.375 184.571 148.79 184.936 149.082 185.4C149.378 185.865 149.526 186.373 149.526 186.925H148.207C148.207 186.323 148.015 185.852 147.632 185.51C147.249 185.163 146.709 184.99 146.012 184.99C145.365 184.99 144.859 185.134 144.495 185.421C144.135 185.703 143.955 186.098 143.955 186.604C143.955 187.009 144.125 187.353 144.467 187.636C144.814 187.914 145.399 188.169 146.224 188.401C147.054 188.634 147.701 188.891 148.166 189.174C148.635 189.452 148.981 189.778 149.205 190.151C149.432 190.525 149.546 190.965 149.546 191.471C149.546 192.277 149.232 192.924 148.603 193.412C147.974 193.895 147.133 194.137 146.081 194.137C145.397 194.137 144.759 194.007 144.166 193.747C143.574 193.483 143.116 193.123 142.792 192.667C142.473 192.211 142.314 191.694 142.314 191.115H143.633C143.633 191.717 143.854 192.193 144.296 192.544C144.743 192.89 145.338 193.063 146.081 193.063C146.773 193.063 147.304 192.922 147.673 192.64C148.042 192.357 148.227 191.972 148.227 191.484C148.227 190.997 148.056 190.621 147.714 190.356C147.373 190.088 146.753 189.823 145.855 189.563ZM161.603 194H160.291V184.047H161.603V194ZM180.318 192.694C179.981 193.177 179.509 193.54 178.903 193.781C178.301 194.018 177.6 194.137 176.797 194.137C175.986 194.137 175.266 193.948 174.637 193.569C174.008 193.187 173.521 192.644 173.174 191.942C172.833 191.241 172.657 190.427 172.648 189.502V188.634C172.648 187.134 172.997 185.972 173.694 185.147C174.396 184.323 175.38 183.91 176.647 183.91C177.686 183.91 178.522 184.177 179.156 184.71C179.789 185.239 180.177 185.991 180.318 186.966H179.005C178.759 185.649 177.975 184.99 176.654 184.99C175.774 184.99 175.107 185.3 174.651 185.92C174.2 186.535 173.972 187.428 173.967 188.6V189.413C173.967 190.53 174.223 191.418 174.733 192.079C175.243 192.735 175.934 193.063 176.804 193.063C177.296 193.063 177.727 193.009 178.096 192.899C178.465 192.79 178.771 192.605 179.012 192.346V190.11H176.709V189.044H180.318V192.694ZM199.122 194H197.802L192.792 186.33V194H191.472V184.047H192.792L197.816 191.751V184.047H199.122V194ZM108.459 209.563C107.334 209.24 106.513 208.843 105.998 208.374C105.488 207.9 105.233 207.317 105.233 206.624C105.233 205.84 105.545 205.193 106.169 204.683C106.798 204.168 107.614 203.91 108.617 203.91C109.3 203.91 109.909 204.042 110.442 204.307C110.98 204.571 111.394 204.936 111.686 205.4C111.982 205.865 112.13 206.373 112.13 206.925H110.811C110.811 206.323 110.62 205.852 110.237 205.51C109.854 205.163 109.314 204.99 108.617 204.99C107.969 204.99 107.464 205.134 107.099 205.421C106.739 205.703 106.559 206.098 106.559 206.604C106.559 207.009 106.73 207.353 107.072 207.636C107.418 207.914 108.004 208.169 108.829 208.401C109.658 208.634 110.305 208.891 110.77 209.174C111.239 209.452 111.586 209.778 111.809 210.151C112.037 210.525 112.151 210.965 112.151 211.471C112.151 212.277 111.836 212.924 111.207 213.412C110.579 213.895 109.738 214.137 108.685 214.137C108.001 214.137 107.363 214.007 106.771 213.747C106.178 213.483 105.72 213.123 105.397 212.667C105.078 212.211 104.918 211.694 104.918 211.115H106.238C106.238 211.717 106.459 212.193 106.901 212.544C107.347 212.89 107.942 213.063 108.685 213.063C109.378 213.063 109.909 212.922 110.278 212.64C110.647 212.357 110.831 211.972 110.831 211.484C110.831 210.997 110.661 210.621 110.319 210.356C109.977 210.088 109.357 209.823 108.459 209.563ZM125.834 209.044L128.432 204.047H129.922L126.491 210.288V214H125.178V210.288L121.747 204.047H123.25L125.834 209.044ZM142.991 209.563C141.865 209.24 141.045 208.843 140.53 208.374C140.019 207.9 139.764 207.317 139.764 206.624C139.764 205.84 140.076 205.193 140.701 204.683C141.33 204.168 142.145 203.91 143.148 203.91C143.832 203.91 144.44 204.042 144.973 204.307C145.511 204.571 145.926 204.936 146.217 205.4C146.513 205.865 146.662 206.373 146.662 206.925H145.342C145.342 206.323 145.151 205.852 144.768 205.51C144.385 205.163 143.845 204.99 143.148 204.99C142.501 204.99 141.995 205.134 141.63 205.421C141.27 205.703 141.09 206.098 141.09 206.604C141.09 207.009 141.261 207.353 141.603 207.636C141.949 207.914 142.535 208.169 143.36 208.401C144.189 208.634 144.836 208.891 145.301 209.174C145.771 209.452 146.117 209.778 146.34 210.151C146.568 210.525 146.682 210.965 146.682 211.471C146.682 212.277 146.368 212.924 145.739 213.412C145.11 213.895 144.269 214.137 143.216 214.137C142.533 214.137 141.895 214.007 141.302 213.747C140.71 213.483 140.252 213.123 139.928 212.667C139.609 212.211 139.45 211.694 139.45 211.115H140.769C140.769 211.717 140.99 212.193 141.432 212.544C141.879 212.89 142.473 213.063 143.216 213.063C143.909 213.063 144.44 212.922 144.809 212.64C145.178 212.357 145.363 211.972 145.363 211.484C145.363 210.997 145.192 210.621 144.85 210.356C144.508 210.088 143.888 209.823 142.991 209.563ZM164.208 205.127H161.008V214H159.703V205.127H156.51V204.047H164.208V205.127ZM180.27 209.399H175.957V212.927H180.967V214H174.644V204.047H180.899V205.127H175.957V208.326H180.27V209.399ZM193.256 204.047L196.51 212.168L199.764 204.047H201.466V214H200.154V210.124L200.277 205.94L197.009 214H196.004L192.744 205.961L192.874 210.124V214H191.561V204.047H193.256Z" fill="white"/>
<path d="M110.077 139.344C109.879 139.307 109.668 139.289 109.444 139.289C108.86 139.289 108.366 139.453 107.959 139.781C107.558 140.104 107.272 140.576 107.1 141.195V147H106.17V138.547H107.084L107.1 139.891C107.595 138.891 108.389 138.391 109.483 138.391C109.743 138.391 109.949 138.424 110.1 138.492L110.077 139.344ZM116.358 147.156C115.639 147.156 114.988 146.979 114.405 146.625C113.827 146.271 113.376 145.779 113.053 145.148C112.731 144.513 112.569 143.802 112.569 143.016V142.68C112.569 141.867 112.725 141.135 113.038 140.484C113.356 139.833 113.796 139.323 114.358 138.953C114.921 138.578 115.53 138.391 116.186 138.391C117.212 138.391 118.025 138.742 118.624 139.445C119.228 140.143 119.53 141.099 119.53 142.312V142.836H113.499V143.016C113.499 143.974 113.772 144.773 114.319 145.414C114.871 146.049 115.564 146.367 116.397 146.367C116.897 146.367 117.337 146.276 117.717 146.094C118.103 145.911 118.452 145.62 118.764 145.219L119.35 145.664C118.663 146.659 117.665 147.156 116.358 147.156ZM116.186 139.188C115.483 139.188 114.889 139.445 114.405 139.961C113.926 140.477 113.634 141.169 113.53 142.039H118.6V141.938C118.574 141.125 118.342 140.464 117.905 139.953C117.467 139.443 116.895 139.188 116.186 139.188ZM122.655 142.695C122.655 141.383 122.947 140.339 123.53 139.562C124.119 138.781 124.916 138.391 125.921 138.391C127.062 138.391 127.931 138.841 128.53 139.742V135H129.46V147H128.585L128.546 145.875C127.947 146.729 127.067 147.156 125.905 147.156C124.931 147.156 124.145 146.766 123.546 145.984C122.952 145.198 122.655 144.138 122.655 142.805V142.695ZM123.601 142.859C123.601 143.938 123.817 144.789 124.249 145.414C124.681 146.034 125.291 146.344 126.077 146.344C127.228 146.344 128.046 145.836 128.53 144.82V140.852C128.046 139.753 127.233 139.203 126.093 139.203C125.306 139.203 124.694 139.513 124.257 140.133C123.819 140.747 123.601 141.656 123.601 142.859ZM136.874 147.156C136.156 147.156 135.505 146.979 134.921 146.625C134.343 146.271 133.893 145.779 133.57 145.148C133.247 144.513 133.085 143.802 133.085 143.016V142.68C133.085 141.867 133.242 141.135 133.554 140.484C133.872 139.833 134.312 139.323 134.874 138.953C135.437 138.578 136.046 138.391 136.702 138.391C137.729 138.391 138.541 138.742 139.14 139.445C139.744 140.143 140.046 141.099 140.046 142.312V142.836H134.015V143.016C134.015 143.974 134.288 144.773 134.835 145.414C135.387 146.049 136.08 146.367 136.913 146.367C137.413 146.367 137.854 146.276 138.234 146.094C138.619 145.911 138.968 145.62 139.281 145.219L139.867 145.664C139.179 146.659 138.182 147.156 136.874 147.156ZM136.702 139.188C135.999 139.188 135.406 139.445 134.921 139.961C134.442 140.477 134.15 141.169 134.046 142.039H139.117V141.938C139.091 141.125 138.859 140.464 138.421 139.953C137.984 139.443 137.411 139.188 136.702 139.188ZM148.609 144.852C148.609 144.388 148.422 144.016 148.047 143.734C147.677 143.453 147.117 143.234 146.367 143.078C145.617 142.917 145.034 142.734 144.617 142.531C144.205 142.323 143.898 142.07 143.695 141.773C143.497 141.477 143.398 141.117 143.398 140.695C143.398 140.029 143.677 139.479 144.234 139.047C144.791 138.609 145.505 138.391 146.375 138.391C147.317 138.391 148.073 138.625 148.64 139.094C149.213 139.557 149.5 140.164 149.5 140.914H148.562C148.562 140.419 148.354 140.008 147.937 139.68C147.526 139.352 147.005 139.188 146.375 139.188C145.76 139.188 145.265 139.326 144.89 139.602C144.521 139.872 144.336 140.227 144.336 140.664C144.336 141.086 144.489 141.414 144.797 141.648C145.109 141.878 145.674 142.089 146.492 142.281C147.315 142.474 147.929 142.68 148.336 142.898C148.747 143.117 149.052 143.38 149.25 143.688C149.448 143.995 149.547 144.367 149.547 144.805C149.547 145.518 149.257 146.089 148.679 146.516C148.106 146.943 147.356 147.156 146.429 147.156C145.445 147.156 144.646 146.919 144.031 146.445C143.422 145.966 143.117 145.362 143.117 144.633H144.054C144.091 145.18 144.32 145.607 144.742 145.914C145.169 146.216 145.731 146.367 146.429 146.367C147.08 146.367 147.606 146.224 148.007 145.938C148.409 145.651 148.609 145.289 148.609 144.852ZM154.383 147H153.445V138.547H154.383V147ZM153.281 136.102C153.281 135.924 153.339 135.776 153.453 135.656C153.568 135.531 153.724 135.469 153.922 135.469C154.12 135.469 154.276 135.531 154.391 135.656C154.51 135.776 154.57 135.924 154.57 136.102C154.57 136.279 154.51 136.427 154.391 136.547C154.276 136.667 154.12 136.727 153.922 136.727C153.724 136.727 153.568 136.667 153.453 136.547C153.339 136.427 153.281 136.279 153.281 136.102ZM158.235 142.695C158.235 141.372 158.526 140.326 159.11 139.555C159.698 138.779 160.495 138.391 161.5 138.391C162.651 138.391 163.526 138.849 164.125 139.766L164.172 138.547H165.047V146.828C165.047 147.917 164.742 148.779 164.133 149.414C163.524 150.049 162.698 150.367 161.657 150.367C161.068 150.367 160.506 150.234 159.969 149.969C159.438 149.708 159.019 149.359 158.711 148.922L159.235 148.359C159.896 149.172 160.683 149.578 161.594 149.578C162.375 149.578 162.985 149.346 163.422 148.883C163.86 148.424 164.086 147.786 164.102 146.969V145.906C163.503 146.74 162.631 147.156 161.485 147.156C160.506 147.156 159.719 146.766 159.125 145.984C158.532 145.203 158.235 144.148 158.235 142.82V142.695ZM159.18 142.859C159.18 143.938 159.396 144.789 159.828 145.414C160.261 146.034 160.87 146.344 161.657 146.344C162.808 146.344 163.623 145.828 164.102 144.797V140.867C163.883 140.326 163.568 139.914 163.157 139.633C162.745 139.346 162.25 139.203 161.672 139.203C160.886 139.203 160.274 139.513 159.836 140.133C159.399 140.747 159.18 141.656 159.18 142.859ZM170.055 138.547L170.087 139.992C170.404 139.471 170.8 139.076 171.274 138.805C171.748 138.529 172.271 138.391 172.844 138.391C173.751 138.391 174.425 138.646 174.868 139.156C175.311 139.667 175.534 140.432 175.54 141.453V147H174.61V141.445C174.605 140.69 174.443 140.128 174.126 139.758C173.813 139.388 173.311 139.203 172.618 139.203C172.04 139.203 171.527 139.385 171.079 139.75C170.636 140.109 170.308 140.596 170.094 141.211V147H169.165V138.547H170.055ZM180.688 147H179.751V138.547H180.688V147ZM179.587 136.102C179.587 135.924 179.644 135.776 179.759 135.656C179.873 135.531 180.03 135.469 180.228 135.469C180.425 135.469 180.582 135.531 180.696 135.656C180.816 135.776 180.876 135.924 180.876 136.102C180.876 136.279 180.816 136.427 180.696 136.547C180.582 136.667 180.425 136.727 180.228 136.727C180.03 136.727 179.873 136.667 179.759 136.547C179.644 136.427 179.587 136.279 179.587 136.102ZM185.806 138.547L185.837 139.992C186.155 139.471 186.551 139.076 187.025 138.805C187.499 138.529 188.022 138.391 188.595 138.391C189.501 138.391 190.176 138.646 190.618 139.156C191.061 139.667 191.285 140.432 191.29 141.453V147H190.361V141.445C190.355 140.69 190.194 140.128 189.876 139.758C189.564 139.388 189.061 139.203 188.368 139.203C187.79 139.203 187.277 139.385 186.829 139.75C186.387 140.109 186.059 140.596 185.845 141.211V147H184.915V138.547H185.806ZM195.017 142.695C195.017 141.372 195.309 140.326 195.892 139.555C196.481 138.779 197.278 138.391 198.283 138.391C199.434 138.391 200.309 138.849 200.908 139.766L200.955 138.547H201.83V146.828C201.83 147.917 201.525 148.779 200.916 149.414C200.306 150.049 199.481 150.367 198.439 150.367C197.851 150.367 197.288 150.234 196.752 149.969C196.22 149.708 195.801 149.359 195.494 148.922L196.017 148.359C196.679 149.172 197.465 149.578 198.377 149.578C199.158 149.578 199.767 149.346 200.205 148.883C200.642 148.424 200.869 147.786 200.884 146.969V145.906C200.285 146.74 199.413 147.156 198.267 147.156C197.288 147.156 196.502 146.766 195.908 145.984C195.314 145.203 195.017 144.148 195.017 142.82V142.695ZM195.963 142.859C195.963 143.938 196.179 144.789 196.611 145.414C197.043 146.034 197.653 146.344 198.439 146.344C199.59 146.344 200.405 145.828 200.884 144.797V140.867C200.666 140.326 200.351 139.914 199.939 139.633C199.528 139.346 199.033 139.203 198.455 139.203C197.668 139.203 197.056 139.513 196.619 140.133C196.181 140.747 195.963 141.656 195.963 142.859Z" fill="white"/>
<path d="M113.573 118H111.674V109.547H113.573V118ZM111.557 107.352C111.557 107.06 111.648 106.818 111.831 106.625C112.018 106.432 112.284 106.336 112.627 106.336C112.971 106.336 113.237 106.432 113.424 106.625C113.612 106.818 113.706 107.06 113.706 107.352C113.706 107.638 113.612 107.878 113.424 108.07C113.237 108.258 112.971 108.352 112.627 108.352C112.284 108.352 112.018 108.258 111.831 108.07C111.648 107.878 111.557 107.638 111.557 107.352ZM119.089 109.547L119.143 110.523C119.768 109.768 120.589 109.391 121.604 109.391C123.365 109.391 124.261 110.398 124.292 112.414V118H122.393V112.523C122.393 111.987 122.276 111.591 122.042 111.336C121.813 111.076 121.435 110.945 120.909 110.945C120.143 110.945 119.573 111.292 119.198 111.984V118H117.3V109.547H119.089ZM130.292 107.492V109.547H131.784V110.953H130.292V115.672C130.292 115.995 130.355 116.229 130.48 116.375C130.61 116.516 130.839 116.586 131.167 116.586C131.386 116.586 131.607 116.56 131.831 116.508V117.977C131.399 118.096 130.982 118.156 130.581 118.156C129.123 118.156 128.394 117.352 128.394 115.742V110.953H127.003V109.547H128.394V107.492H130.292ZM138.644 118.156C137.441 118.156 136.464 117.779 135.714 117.023C134.97 116.263 134.597 115.253 134.597 113.992V113.758C134.597 112.914 134.759 112.161 135.082 111.5C135.41 110.833 135.868 110.315 136.457 109.945C137.045 109.576 137.701 109.391 138.425 109.391C139.576 109.391 140.464 109.758 141.089 110.492C141.72 111.227 142.035 112.266 142.035 113.609V114.375H136.511C136.569 115.073 136.8 115.625 137.207 116.031C137.618 116.438 138.134 116.641 138.753 116.641C139.623 116.641 140.332 116.289 140.878 115.586L141.902 116.562C141.563 117.068 141.11 117.461 140.542 117.742C139.98 118.018 139.347 118.156 138.644 118.156ZM138.417 110.914C137.897 110.914 137.475 111.096 137.152 111.461C136.834 111.826 136.631 112.333 136.542 112.984H140.16V112.844C140.118 112.208 139.949 111.729 139.652 111.406C139.355 111.078 138.944 110.914 138.417 110.914ZM149.621 111.281C149.371 111.24 149.113 111.219 148.847 111.219C147.978 111.219 147.392 111.552 147.09 112.219V118H145.191V109.547H147.004L147.051 110.492C147.509 109.758 148.144 109.391 148.957 109.391C149.228 109.391 149.452 109.427 149.629 109.5L149.621 111.281ZM154.262 109.547L154.317 110.523C154.942 109.768 155.762 109.391 156.778 109.391C158.538 109.391 159.434 110.398 159.465 112.414V118H157.567V112.523C157.567 111.987 157.449 111.591 157.215 111.336C156.986 111.076 156.608 110.945 156.082 110.945C155.317 110.945 154.746 111.292 154.371 111.984V118H152.473V109.547H154.262ZM167.825 115.703C167.825 115.365 167.684 115.107 167.403 114.93C167.127 114.753 166.666 114.596 166.02 114.461C165.374 114.326 164.835 114.154 164.403 113.945C163.455 113.487 162.981 112.823 162.981 111.953C162.981 111.224 163.288 110.615 163.903 110.125C164.517 109.635 165.299 109.391 166.247 109.391C167.257 109.391 168.072 109.641 168.692 110.141C169.317 110.641 169.629 111.289 169.629 112.086H167.731C167.731 111.721 167.596 111.419 167.325 111.18C167.054 110.935 166.694 110.812 166.247 110.812C165.83 110.812 165.489 110.909 165.223 111.102C164.963 111.294 164.832 111.552 164.832 111.875C164.832 112.167 164.955 112.393 165.2 112.555C165.444 112.716 165.939 112.88 166.684 113.047C167.429 113.208 168.012 113.404 168.434 113.633C168.861 113.857 169.176 114.128 169.379 114.445C169.588 114.763 169.692 115.148 169.692 115.602C169.692 116.362 169.377 116.979 168.747 117.453C168.116 117.922 167.291 118.156 166.27 118.156C165.577 118.156 164.96 118.031 164.418 117.781C163.877 117.531 163.455 117.188 163.153 116.75C162.851 116.312 162.7 115.841 162.7 115.336H164.543C164.569 115.784 164.739 116.13 165.051 116.375C165.364 116.615 165.778 116.734 166.293 116.734C166.793 116.734 167.174 116.641 167.434 116.453C167.694 116.26 167.825 116.01 167.825 115.703ZM174.903 110.469C175.523 109.75 176.307 109.391 177.255 109.391C179.057 109.391 179.971 110.419 179.997 112.477V118H178.098V112.547C178.098 111.964 177.971 111.552 177.716 111.312C177.466 111.068 177.096 110.945 176.606 110.945C175.846 110.945 175.278 111.284 174.903 111.961V118H173.005V106H174.903V110.469ZM185.622 118H183.724V109.547H185.622V118ZM183.607 107.352C183.607 107.06 183.698 106.818 183.88 106.625C184.068 106.432 184.333 106.336 184.677 106.336C185.021 106.336 185.286 106.432 185.474 106.625C185.661 106.818 185.755 107.06 185.755 107.352C185.755 107.638 185.661 107.878 185.474 108.07C185.286 108.258 185.021 108.352 184.677 108.352C184.333 108.352 184.068 108.258 183.88 108.07C183.698 107.878 183.607 107.638 183.607 107.352ZM196.779 113.859C196.779 115.167 196.482 116.211 195.888 116.992C195.294 117.768 194.497 118.156 193.497 118.156C192.57 118.156 191.828 117.852 191.271 117.242V121.25H189.372V109.547H191.122L191.201 110.406C191.758 109.729 192.516 109.391 193.474 109.391C194.505 109.391 195.313 109.776 195.896 110.547C196.484 111.312 196.779 112.378 196.779 113.742V113.859ZM194.888 113.695C194.888 112.852 194.719 112.182 194.38 111.688C194.047 111.193 193.568 110.945 192.943 110.945C192.167 110.945 191.609 111.266 191.271 111.906V115.656C191.615 116.312 192.177 116.641 192.958 116.641C193.563 116.641 194.034 116.398 194.372 115.914C194.716 115.424 194.888 114.685 194.888 113.695Z" fill="white"/>
<path d="M153.501 65.6279C150.815 65.6279 148.629 67.8136 148.629 70.5002C148.629 73.1868 150.815 75.3724 153.501 75.3724C156.188 75.3724 158.373 73.1868 158.373 70.5002C158.373 67.8136 156.188 65.6279 153.501 65.6279ZM153.501 73.3137C151.95 73.3137 150.688 72.0515 150.688 70.5002C150.688 68.9488 151.95 67.6866 153.501 67.6866C155.053 67.6866 156.315 68.9488 156.315 70.5002C156.315 72.0515 155.053 73.3137 153.501 73.3137Z" fill="#7EAEDB"/>
<path d="M165.874 58.1272C160.059 52.3124 151.272 51.4901 144.614 55.4234C142.54 53.6492 139.295 55.1145 139.295 57.8741C139.295 58.5125 139.483 59.1077 139.804 59.6091C135.136 65.4738 134.698 73.7476 138.855 80.081C138.443 80.6227 138.197 81.2979 138.197 82.0295C138.197 84.6398 141.139 86.144 143.251 84.6843C150.073 89.6136 159.672 89.0764 165.874 82.8745C172.713 76.036 172.713 64.9666 165.874 58.1272ZM142.521 56.7075C143.164 56.7075 143.687 57.2309 143.687 57.8741C143.687 58.5174 143.164 59.0407 142.521 59.0407C141.877 59.0407 141.354 58.5174 141.354 57.8741C141.354 57.2309 141.877 56.7075 142.521 56.7075ZM141.423 83.1961C140.779 83.1961 140.256 82.6728 140.256 82.0295C140.256 81.3862 140.779 80.8629 141.423 80.8629C142.066 80.8629 142.589 81.3862 142.589 82.0295C142.589 82.6728 142.066 83.1961 141.423 83.1961ZM153.5 85.941C150.217 85.941 147.118 84.9396 144.486 83.0378C145.295 80.5849 143.025 78.2345 140.557 78.9231C136.915 73.3448 137.303 66.0667 141.407 60.901C143.775 61.7752 146.214 59.6838 145.672 57.1892C155.821 51.2059 168.941 58.4861 168.941 70.5008C168.941 79.0146 162.014 85.941 153.5 85.941Z" fill="#7EAEDB"/>
<path d="M165.51 63.9124C165.51 61.5212 162.993 59.9716 160.868 61.0162C158.767 59.3828 156.18 58.4912 153.501 58.4912C146.879 58.4912 141.492 63.8785 141.492 70.5003C141.492 76.9126 146.544 82.1672 152.877 82.4932C153.428 83.4841 154.485 84.1563 155.697 84.1563C157.376 84.1563 158.759 82.8667 158.908 81.2262C164.526 78.3935 166.927 71.7662 164.67 66.0813C165.192 65.508 165.51 64.7467 165.51 63.9124ZM155.697 82.0976C155.054 82.0976 154.531 81.5743 154.531 80.931C154.531 80.2877 155.054 79.7644 155.697 79.7644C156.34 79.7644 156.864 80.2877 156.864 80.931C156.864 81.5743 156.34 82.0976 155.697 82.0976ZM158.395 79.1663C156.775 76.698 152.992 77.5302 152.516 80.4019C147.49 79.9056 143.551 75.6544 143.551 70.5002C143.551 62.3212 152.889 57.6953 159.395 62.4831C158.23 64.8279 160.232 67.5525 162.851 67.087C164.501 71.595 162.68 76.7457 158.395 79.1663ZM162.285 65.079C161.642 65.079 161.118 64.5557 161.118 63.9124C161.118 63.2692 161.642 62.7459 162.285 62.7459C162.928 62.7459 163.452 63.2692 163.452 63.9124C163.452 64.5557 162.928 65.079 162.285 65.079Z" fill="#7EAEDB"/>
<defs>
<filter id="filter0_d" x="0" y="0" width="308" height="282" filterUnits="userSpaceOnUse" color-interpolation-filters="sRGB">
<feFlood flood-opacity="0" result="BackgroundImageFix"/>
<feColorMatrix in="SourceAlpha" type="matrix" values="0 0 0 0 0 0 0 0 0 0 0 0 0 0 0 0 0 0 127 0"/>
<feOffset dy="4"/>
<feGaussianBlur stdDeviation="2"/>
<feColorMatrix type="matrix" values="0 0 0 0 0 0 0 0 0 0 0 0 0 0 0 0 0 0 0.25 0"/>
<feBlend mode="normal" in2="BackgroundImageFix" result="effect1_dropShadow"/>
<feBlend mode="normal" in="SourceGraphic" in2="effect1_dropShadow" result="shape"/>
</filter>
</defs>
</svg>
