<svg width="625" height="220" viewBox="0 0 625 220" fill="none" xmlns="http://www.w3.org/2000/svg">
<g filter="url(#filter0_d)">
<path d="M39.8057 121.745C36.042 111.968 28.5387 103.274 34.71 90.8229C37.9717 84.2418 52.9716 78.608 67.921 73.8489C73.9663 64.2076 84.4037 55.7553 96.0221 58.2907C111.812 61.7363 89.921 66.8453 67.921 73.8489C60.1679 86.214 59.6393 100.535 73.1097 96.1407C88.0855 91.2555 62.1044 104.925 39.8057 121.745C26.4085 131.851 14.3405 143.094 13.2826 152.134C10.4636 176.22 29.8411 206.094 48.2984 195.145C56.8036 190.1 62.7387 176.121 67.9949 161.856C60.3589 154.659 54.4746 145.934 53.1673 136.962C51.439 125.103 65.0401 113.919 79.0913 108.761C85.9906 90.3557 94.8484 70.9595 101.538 70.9595C114.267 70.9595 142.059 107.089 134.422 117.568C130.725 122.64 122.605 122.839 113.67 122.456C114.236 124.055 114.726 125.666 115.163 127.236C123.37 125.692 125.921 125.992 134.422 128.047C139.011 129.157 143.52 133.452 147.287 138.953C148.185 138.118 149.081 137.306 149.972 136.519C145.347 119.64 142.321 103.218 142.059 96.1407C141.423 78.9361 154.364 52.5037 176.216 52.5037C198.067 52.5037 165.184 152.134 201.886 169.026C228.998 181.503 231.568 139.105 231.402 109.79C227.132 114.386 223.588 122.542 220.344 136.962C213.13 169.026 168.79 128.047 195.522 100.833C207.13 89.0145 220.379 88.5227 231.116 92.3123C231.085 89.944 231.088 87.9996 231.163 86.6C232.012 70.9595 239.65 56.2574 251.106 58.2907C262.562 60.3239 265.957 104.117 251.106 103.961C250.175 103.951 249.269 103.946 248.385 103.954C241.511 104.011 236.03 104.808 231.402 109.79C231.568 139.105 228.998 181.503 201.886 169.026C165.184 152.134 198.067 52.5037 176.216 52.5037C154.364 52.5037 141.423 78.9361 142.059 96.1407C142.321 103.218 145.347 119.64 149.972 136.519C158.954 128.581 167.334 123.28 171.336 124.45C183.641 128.047 192.764 185.761 176.216 185.761C166.475 185.761 156.588 160.671 149.972 136.519C149.081 137.306 148.185 138.118 147.287 138.953C154.143 148.965 158.54 162.969 156.486 169.026C153.303 178.41 134.634 193.112 119.995 185.761C110.59 181.038 129.384 155.591 147.287 138.953C143.52 133.452 139.011 129.157 134.422 128.047C125.921 125.992 123.37 125.692 115.163 127.236C117.095 134.167 118.012 140.308 119.995 141.185C124.238 143.062 119.995 152.134 101.538 162.769C99.4855 163.952 97.4774 164.605 95.5294 164.831C99.8437 173.703 102.945 180.324 96.0221 178.41C87.0955 175.942 76.467 169.84 67.9949 161.856C62.7387 176.121 56.8036 190.1 48.2984 195.145C29.8411 206.094 10.4636 176.22 13.2826 152.134C14.3405 143.094 26.4085 131.851 39.8057 121.745Z" fill="white"/>
<path d="M41.711 131.175C41.9232 116.943 26.6481 107.089 34.71 90.8229C42.7718 74.5568 122.541 64.0777 96.0221 58.2907C69.503 52.5037 49.1363 103.961 73.1097 96.1407C97.083 88.3205 16.1015 128.047 13.2826 152.134C10.4636 176.22 29.8411 206.094 48.2984 195.145C66.7557 184.197 73.1097 131.175 86.6874 124.45C100.265 117.725 126.784 128.047 134.422 117.568C142.059 107.089 114.267 70.9595 101.538 70.9595C88.809 70.9595 68.2301 141.185 68.2301 141.185C68.2301 141.185 83.0808 173.405 101.538 162.769C119.995 152.134 124.238 143.062 119.995 141.185C115.752 139.309 116.389 113.345 101.538 107.089C86.6874 100.833 50.4094 118.037 53.1673 136.962C55.9252 155.887 79.0498 173.718 96.0221 178.41C112.994 183.102 69.7151 136.493 96.0221 131.175C122.329 125.858 121.481 124.919 134.422 128.047C147.363 131.175 159.668 159.641 156.486 169.026C153.303 178.41 134.634 193.112 119.995 185.761C105.357 178.41 159.032 120.853 171.336 124.45C183.641 128.047 192.764 185.761 176.216 185.761C159.668 185.761 142.696 113.345 142.059 96.1407C141.423 78.9361 154.364 52.5037 176.216 52.5037C198.067 52.5037 165.184 152.134 201.886 169.026C238.589 185.917 230.315 102.241 231.163 86.6C232.012 70.9595 239.65 56.2574 251.106 58.2907C262.562 60.3239 265.957 104.117 251.106 103.961C236.255 103.805 227.557 104.899 220.344 136.962C213.13 169.026 168.79 128.047 195.522 100.833C222.253 73.6184 257.683 106.463 251.106 113.345C244.529 120.227 292.9 128.047 287.384 145.408C281.868 162.769 257.046 182.007 265.957 185.761C274.867 189.515 294.809 185.761 300.113 178.41C305.417 171.059 312.418 136.962 300.113 128.047C287.808 119.132 287.384 86.6 307.326 82.3771C327.269 78.1541 341.695 52.5037 357.819 52.5037C373.942 52.5037 392.824 34.6735 404.704 39.9913C416.585 45.309 396.006 80.1874 385.611 86.6C375.215 93.0126 365.881 115.066 370.548 124.45C375.215 133.834 381.368 145.408 409.796 145.408C438.225 145.408 449.044 131.175 449.044 131.175C449.044 131.175 454.56 107.089 461.774 96.1407C468.987 85.1924 501.87 86.6 475.988 82.3771C450.105 78.1541 482.989 73.6184 495.082 73.462C507.175 73.3056 517.358 89.4153 524.995 58.2907C532.633 27.166 550.666 50.4704 559.152 49.3756C567.638 48.2807 585.034 39.9913 593.308 30.4505C601.583 20.9098 609.008 7.45898 609.008 7.45898" stroke="#3F3F3F" stroke-opacity="0.19" stroke-width="0.5"/>
</g>
<g filter="url(#filter1_d)">
<path d="M31.7978 117.286C28.0342 107.509 20.5309 98.8153 26.7021 86.364C29.9639 79.7828 44.9638 74.149 59.9132 69.3899C65.9584 59.7486 76.3959 51.2963 88.0143 53.8317C103.804 57.2773 81.9132 62.3864 59.9132 69.3899C52.1601 81.755 51.6315 96.0758 65.1018 91.6817C80.0777 86.7965 54.0966 100.466 31.7978 117.286C18.4007 127.392 6.33273 138.635 5.27474 147.675C2.45579 171.761 21.8333 201.635 40.2906 190.686C48.7957 185.641 54.7309 171.662 59.9871 157.397C52.3511 150.2 46.4668 141.475 45.1595 132.503C43.4312 120.644 57.0323 109.46 71.0835 104.302C77.9828 85.8967 86.8406 66.5005 93.5303 66.5005C106.259 66.5005 134.051 102.63 126.414 113.109C122.717 118.181 114.597 118.38 105.662 117.997C106.228 119.596 106.718 121.207 107.155 122.777C115.362 121.233 117.913 121.534 126.414 123.588C131.003 124.698 135.512 128.993 139.279 134.494C140.178 133.66 141.074 132.847 141.964 132.06C137.34 115.181 134.313 98.7594 134.051 91.6817C133.415 74.4772 146.356 48.0447 168.208 48.0447C190.06 48.0447 157.176 147.675 193.879 164.567C220.99 177.044 223.56 134.646 223.394 105.331C219.124 109.927 215.58 118.083 212.336 132.503C205.123 164.567 160.783 123.588 187.514 96.3739C199.123 84.5555 212.372 84.0637 223.108 87.8533C223.077 85.485 223.08 83.5406 223.156 82.141C224.004 66.5005 231.642 51.7984 243.098 53.8317C254.554 55.8649 257.949 99.6584 243.098 99.502C242.167 99.4922 241.261 99.4873 240.377 99.4946C233.503 99.5517 228.023 100.349 223.394 105.331C223.56 134.646 220.99 177.044 193.879 164.567C157.176 147.675 190.06 48.0447 168.208 48.0447C146.356 48.0447 133.415 74.4772 134.051 91.6817C134.313 98.7594 137.34 115.181 141.964 132.06C150.946 124.122 159.326 118.821 163.329 119.991C175.633 123.588 184.756 181.302 168.208 181.302C158.468 181.302 148.58 156.212 141.964 132.06C141.074 132.847 140.178 133.66 139.279 134.494C146.135 144.506 150.532 158.51 148.478 164.567C145.295 173.951 126.626 188.653 111.988 181.302C102.583 176.579 121.376 151.132 139.279 134.494C135.512 128.993 131.003 124.698 126.414 123.588C117.913 121.534 115.362 121.233 107.155 122.777C109.087 129.708 110.004 135.849 111.988 136.726C116.23 138.603 111.988 147.675 93.5303 158.31C91.4776 159.493 89.4696 160.146 87.5215 160.372C91.8359 169.244 94.9367 175.865 88.0143 173.951C79.0877 171.483 68.4592 165.381 59.9871 157.397C54.7309 171.662 48.7957 185.641 40.2906 190.686C21.8333 201.635 2.45579 171.761 5.27474 147.675C6.33273 138.635 18.4007 127.392 31.7978 117.286Z" fill="white"/>
<path d="M33.7032 126.716C33.9154 112.484 18.6402 102.63 26.7021 86.364C34.764 70.0978 114.533 59.6187 88.0143 53.8317C61.4952 48.0447 41.1285 99.502 65.1018 91.6817C89.0752 83.8615 8.09368 123.588 5.27474 147.675C2.45579 171.761 21.8333 201.635 40.2906 190.686C58.7479 179.738 65.1018 126.716 78.6796 119.991C92.2574 113.266 118.776 123.588 126.414 113.109C134.051 102.63 106.259 66.5005 93.5303 66.5005C80.8012 66.5005 60.2223 136.726 60.2223 136.726C60.2223 136.726 75.073 168.946 93.5303 158.31C111.988 147.675 116.23 138.603 111.988 136.726C107.745 134.85 108.381 108.886 93.5303 102.63C78.6796 96.3739 42.4016 113.578 45.1595 132.503C47.9173 151.429 71.042 169.259 88.0143 173.951C104.986 178.643 61.7073 132.034 88.0143 126.716C114.321 121.399 113.473 120.46 126.414 123.588C139.355 126.716 151.66 155.182 148.478 164.567C145.295 173.951 126.626 188.653 111.988 181.302C97.3489 173.951 151.024 116.394 163.329 119.991C175.633 123.588 184.756 181.302 168.208 181.302C151.66 181.302 134.688 108.886 134.051 91.6817C133.415 74.4772 146.356 48.0447 168.208 48.0447C190.06 48.0447 157.176 147.675 193.879 164.567C230.581 181.458 222.307 97.7815 223.156 82.141C224.004 66.5005 231.642 51.7984 243.098 53.8317C254.554 55.8649 257.949 99.6584 243.098 99.502C228.247 99.3456 219.549 100.44 212.336 132.503C205.123 164.567 160.783 123.588 187.514 96.3739C214.245 69.1594 249.675 102.004 243.098 108.886C236.521 115.768 284.892 123.588 279.376 140.949C273.86 158.31 249.038 177.548 257.949 181.302C266.859 185.056 286.801 181.302 292.105 173.951C297.409 166.6 304.41 132.503 292.105 123.588C279.801 114.673 279.376 82.141 299.319 77.9181C319.261 73.6951 333.687 48.0447 349.811 48.0447C365.935 48.0447 384.816 30.2145 396.697 35.5323C408.577 40.8501 387.998 75.7284 377.603 82.141C367.207 88.5536 357.873 110.607 362.54 119.991C367.207 129.375 373.36 140.949 401.788 140.949C430.217 140.949 441.037 126.716 441.037 126.716C441.037 126.716 446.553 102.63 453.766 91.6817C460.979 80.7334 493.863 82.141 467.98 77.9181C442.098 73.6951 474.981 69.1594 487.074 69.003C499.167 68.8466 509.35 84.9563 516.987 53.8317C524.625 22.7071 542.658 46.0114 551.144 44.9166C559.63 43.8218 577.027 35.5323 585.301 25.9916C593.575 16.4508 601 3 601 3" stroke="#878787" stroke-opacity="0.55" stroke-width="0.5"/>
</g>
<defs>
<filter id="filter0_d" x="8.75781" y="5.33789" width="608.469" height="202.387" filterUnits="userSpaceOnUse" color-interpolation-filters="sRGB">
<feFlood flood-opacity="0" result="BackgroundImageFix"/>
<feColorMatrix in="SourceAlpha" type="matrix" values="0 0 0 0 0 0 0 0 0 0 0 0 0 0 0 0 0 0 127 0"/>
<feOffset dx="2" dy="4"/>
<feGaussianBlur stdDeviation="3"/>
<feColorMatrix type="matrix" values="0 0 0 0 0.325 0 0 0 0 0.325 0 0 0 0 0.325 0 0 0 0.25 0"/>
<feBlend mode="normal" in2="BackgroundImageFix" result="effect1_dropShadow"/>
<feBlend mode="normal" in="SourceGraphic" in2="effect1_dropShadow" result="shape"/>
</filter>
<filter id="filter1_d" x="0.75" y="0.878906" width="608.469" height="202.387" filterUnits="userSpaceOnUse" color-interpolation-filters="sRGB">
<feFlood flood-opacity="0" result="BackgroundImageFix"/>
<feColorMatrix in="SourceAlpha" type="matrix" values="0 0 0 0 0 0 0 0 0 0 0 0 0 0 0 0 0 0 127 0"/>
<feOffset dx="2" dy="4"/>
<feGaussianBlur stdDeviation="3"/>
<feColorMatrix type="matrix" values="0 0 0 0 0.779167 0 0 0 0 0.779167 0 0 0 0 0.779167 0 0 0 0.01 0"/>
<feBlend mode="normal" in2="BackgroundImageFix" result="effect1_dropShadow"/>
<feBlend mode="normal" in="SourceGraphic" in2="effect1_dropShadow" result="shape"/>
</filter>
</defs>
</svg>
