<svg width="1441" height="1376" viewBox="0 0 1441 1376" fill="none" xmlns="http://www.w3.org/2000/svg">
<rect width="1440" height="1376" fill="#FFF9F6"/>
<path d="M1439.98 145.973C1439.98 145.973 1422.48 192.126 1402.98 224.862C1383.48 257.598 1342.48 286.041 1322.48 289.798C1302.48 293.555 1259.98 213.592 1241.98 320.388C1223.98 427.183 1199.98 371.907 1171.48 372.444C1142.98 372.98 1065.48 388.544 1126.48 403.034C1187.48 417.523 1109.98 412.693 1092.98 450.26C1075.98 487.826 1062.98 570.472 1062.98 570.472C1062.98 570.472 1037.48 619.308 970.477 619.308C903.476 619.308 888.977 579.595 877.977 547.395C866.977 515.196 888.977 439.526 913.477 417.523C937.977 395.52 986.477 275.845 958.477 257.598C930.477 239.352 885.977 300.531 847.977 300.531C809.977 300.531 775.977 388.544 728.977 403.034C681.977 417.523 682.977 529.149 711.977 559.739C740.977 590.328 724.477 707.321 711.977 732.544C699.477 757.767 652.477 770.647 631.477 757.767C610.477 744.887 668.977 678.878 681.977 619.308C694.977 559.739 580.977 532.906 596.477 509.292C611.977 485.679 528.477 372.98 465.476 466.36C402.476 559.739 506.977 700.344 523.977 590.328C540.977 480.313 561.477 476.556 596.477 477.093C631.477 477.629 623.477 327.364 596.477 320.388C569.477 313.411 551.477 363.857 549.477 417.523C547.477 471.19 566.977 758.303 480.476 700.344C393.976 642.385 471.476 300.531 419.976 300.531C368.477 300.531 337.977 391.227 339.476 450.26C340.976 509.292 380.976 757.767 419.976 757.767C458.977 757.767 437.476 559.739 408.476 547.395C379.477 535.052 252.976 732.544 287.476 757.767C321.977 782.99 365.976 732.544 373.476 700.344C380.977 668.144 351.976 570.472 321.476 559.739C290.977 549.005 292.976 552.225 230.976 570.472C168.976 588.718 270.976 748.644 230.976 732.544C190.976 716.444 136.476 655.264 129.977 590.328C123.477 525.392 208.977 466.36 243.977 487.826C278.977 509.292 277.477 598.378 287.476 604.818C297.476 611.258 287.477 642.385 243.977 678.878C200.477 715.371 165.477 604.818 165.477 604.818C165.477 604.818 213.977 363.857 243.977 363.857C273.977 363.857 339.476 487.826 321.476 523.782C303.476 559.739 240.977 524.319 208.977 547.395C176.977 570.472 162.002 752.4 118.502 789.966C75.0017 827.533 29.3329 725.03 35.9766 642.385C42.6203 559.739 233.477 423.427 176.977 450.26C120.476 477.093 168.476 300.531 230.976 320.388C293.476 340.244 105.477 376.2 86.4765 432.013C67.4763 487.826 103.477 521.636 102.977 570.472C102.476 619.308 101.001 922.522 60.0017 915.545C19.0019 908.569 70.9766 344.001 35.9766 320.388C0.976585 296.775 35.9766 915.545 35.9776 989.068C35.9786 1062.59 3.5 1080.3 3.5 1080.3" stroke="#04152A"/>
</svg>
