<svg width="618" height="208" viewBox="0 0 618 208" fill="none" xmlns="http://www.w3.org/2000/svg">
<g filter="url(#filter0_d)">
<path d="M39.7978 121.286C36.0342 111.509 28.5309 102.815 34.7021 90.364C37.9639 83.7828 52.9638 78.149 67.9132 73.3899C73.9584 63.7486 84.3959 55.2963 96.0143 57.8317C111.804 61.2773 89.9132 66.3864 67.9132 73.3899C60.1601 85.755 59.6315 100.076 73.1018 95.6817C88.0777 90.7965 62.0966 104.466 39.7978 121.286C26.4007 131.392 14.3327 142.635 13.2747 151.675C10.4558 175.761 29.8333 205.635 48.2906 194.686C56.7957 189.641 62.7309 175.662 67.9871 161.397C60.3511 154.2 54.4668 145.475 53.1595 136.503C51.4312 124.644 65.0323 113.46 79.0835 108.302C85.9828 89.8967 94.8406 70.5005 101.53 70.5005C114.259 70.5005 142.051 106.63 134.414 117.109C130.717 122.181 122.597 122.38 113.662 121.997C114.228 123.596 114.718 125.207 115.155 126.777C123.362 125.233 125.913 125.534 134.414 127.588C139.003 128.698 143.512 132.993 147.279 138.494C148.178 137.66 149.074 136.847 149.964 136.06C145.34 119.181 142.313 102.759 142.051 95.6817C141.415 78.4772 154.356 52.0447 176.208 52.0447C198.06 52.0447 165.176 151.675 201.879 168.567C228.99 181.044 231.56 138.646 231.394 109.331C227.124 113.927 223.58 122.083 220.336 136.503C213.123 168.567 168.783 127.588 195.514 100.374C207.123 88.5555 220.372 88.0637 231.108 91.8533C231.077 89.485 231.08 87.5406 231.156 86.141C232.004 70.5005 239.642 55.7984 251.098 57.8317C262.554 59.8649 265.949 103.658 251.098 103.502C250.167 103.492 249.261 103.487 248.377 103.495C241.503 103.552 236.023 104.349 231.394 109.331C231.56 138.646 228.99 181.044 201.879 168.567C165.176 151.675 198.06 52.0447 176.208 52.0447C154.356 52.0447 141.415 78.4772 142.051 95.6817C142.313 102.759 145.34 119.181 149.964 136.06C158.946 128.122 167.326 122.821 171.329 123.991C183.633 127.588 192.756 185.302 176.208 185.302C166.468 185.302 156.58 160.212 149.964 136.06C149.074 136.847 148.178 137.66 147.279 138.494C154.135 148.506 158.532 162.51 156.478 168.567C153.295 177.951 134.626 192.653 119.988 185.302C110.583 180.579 129.376 155.132 147.279 138.494C143.512 132.993 139.003 128.698 134.414 127.588C125.913 125.534 123.362 125.233 115.155 126.777C117.087 133.708 118.004 139.849 119.988 140.726C124.23 142.603 119.988 151.675 101.53 162.31C99.4776 163.493 97.4696 164.146 95.5215 164.372C99.8359 173.244 102.937 179.865 96.0143 177.951C87.0877 175.483 76.4592 169.381 67.9871 161.397C62.7309 175.662 56.7957 189.641 48.2906 194.686C29.8333 205.635 10.4558 175.761 13.2747 151.675C14.3327 142.635 26.4007 131.392 39.7978 121.286Z" fill="#701B00" fill-opacity="0.61"/>
<path d="M41.7032 130.716C41.9154 116.484 26.6402 106.63 34.7021 90.364C42.764 74.0978 122.533 63.6187 96.0143 57.8317C69.4952 52.0447 49.1285 103.502 73.1018 95.6817C97.0752 87.8615 16.0937 127.588 13.2747 151.675C10.4558 175.761 29.8333 205.635 48.2906 194.686C66.7479 183.738 73.1018 130.716 86.6796 123.991C100.257 117.266 126.776 127.588 134.414 117.109C142.051 106.63 114.259 70.5005 101.53 70.5005C88.8012 70.5005 68.2223 140.726 68.2223 140.726C68.2223 140.726 83.073 172.946 101.53 162.31C119.988 151.675 124.23 142.603 119.988 140.726C115.745 138.85 116.381 112.886 101.53 106.63C86.6796 100.374 50.4016 117.578 53.1595 136.503C55.9173 155.429 79.042 173.259 96.0143 177.951C112.986 182.643 69.7073 136.034 96.0143 130.716C122.321 125.399 121.473 124.46 134.414 127.588C147.355 130.716 159.66 159.182 156.478 168.567C153.295 177.951 134.626 192.653 119.988 185.302C105.349 177.951 159.024 120.394 171.329 123.991C183.633 127.588 192.756 185.302 176.208 185.302C159.66 185.302 142.688 112.886 142.051 95.6817C141.415 78.4772 154.356 52.0447 176.208 52.0447C198.06 52.0447 165.176 151.675 201.879 168.567C238.581 185.458 230.307 101.782 231.156 86.141C232.004 70.5005 239.642 55.7984 251.098 57.8317C262.554 59.8649 265.949 103.658 251.098 103.502C236.247 103.346 227.549 104.44 220.336 136.503C213.123 168.567 168.783 127.588 195.514 100.374C222.245 73.1594 257.675 106.004 251.098 112.886C244.521 119.768 292.892 127.588 287.376 144.949C281.86 162.31 257.038 181.548 265.949 185.302C274.859 189.056 294.801 185.302 300.105 177.951C305.409 170.6 312.41 136.503 300.105 127.588C287.801 118.673 287.376 86.141 307.319 81.9181C327.261 77.6951 341.687 52.0447 357.811 52.0447C373.935 52.0447 392.816 34.2145 404.697 39.5323C416.577 44.8501 395.998 79.7284 385.603 86.141C375.207 92.5536 365.873 114.607 370.54 123.991C375.207 133.375 381.36 144.949 409.788 144.949C438.217 144.949 449.037 130.716 449.037 130.716C449.037 130.716 454.553 106.63 461.766 95.6817C468.979 84.7334 501.863 86.141 475.98 81.9181C450.098 77.6951 482.981 73.1594 495.074 73.003C507.167 72.8466 517.35 88.9563 524.987 57.8317C532.625 26.7071 550.658 50.0114 559.144 48.9166C567.63 47.8218 585.027 39.5323 593.301 29.9916C601.575 20.4508 609 7 609 7" stroke="white" stroke-opacity="0.19" stroke-width="0.5"/>
</g>
<g filter="url(#filter1_d)">
<path d="M31.79 116.827C28.0264 107.05 20.5231 98.3563 26.6943 85.905C29.9561 79.3238 44.956 73.69 59.9054 68.9309C65.9506 59.2896 76.3881 50.8373 88.0064 53.3727C103.796 56.8183 81.9054 61.9274 59.9054 68.9309C52.1523 81.296 51.6237 95.6168 65.094 91.2227C80.0699 86.3375 54.0888 100.007 31.79 116.827C18.3929 126.933 6.32491 138.176 5.26693 147.216C2.44798 171.302 21.8255 201.176 40.2828 190.227C48.7879 185.182 54.7231 171.203 59.9793 156.938C52.3433 149.741 46.459 141.016 45.1516 132.044C43.4234 120.185 57.0244 109.001 71.0756 103.843C77.975 85.4377 86.8328 66.0415 93.5225 66.0415C106.252 66.0415 134.044 102.171 126.406 112.65C122.71 117.722 114.59 117.921 105.655 117.538C106.22 119.137 106.71 120.748 107.148 122.318C115.354 120.774 117.905 121.075 126.406 123.129C130.995 124.239 135.505 128.534 139.271 134.035C140.17 133.201 141.066 132.388 141.956 131.601C137.332 114.722 134.305 98.3004 134.044 91.2227C133.407 74.0182 146.349 47.5857 168.2 47.5857C190.052 47.5857 157.168 147.216 193.871 164.108C220.982 176.585 223.552 134.187 223.386 104.872C219.117 109.468 215.572 117.624 212.328 132.044C205.115 164.108 160.775 123.129 187.506 95.9149C199.115 84.0965 212.364 83.6047 223.1 87.3943C223.069 85.026 223.072 83.0816 223.148 81.682C223.996 66.0415 231.634 51.3394 243.09 53.3727C254.546 55.406 257.941 99.1994 243.09 99.043C242.16 99.0332 241.253 99.0283 240.37 99.0357C233.496 99.0928 228.015 99.8901 223.386 104.872C223.552 134.187 220.982 176.585 193.871 164.108C157.168 147.216 190.052 47.5857 168.2 47.5857C146.349 47.5857 133.407 74.0182 134.044 91.2227C134.305 98.3004 137.332 114.722 141.956 131.601C150.938 123.663 159.318 118.362 163.321 119.532C175.625 123.129 184.748 180.843 168.2 180.843C158.46 180.843 148.572 155.753 141.956 131.601C141.066 132.388 140.17 133.201 139.271 134.035C146.127 144.047 150.524 158.051 148.47 164.108C145.288 173.492 126.618 188.194 111.98 180.843C102.575 176.12 121.368 150.673 139.271 134.035C135.505 128.534 130.995 124.239 126.406 123.129C117.905 121.075 115.354 120.774 107.148 122.318C109.079 129.249 109.996 135.39 111.98 136.267C116.223 138.144 111.98 147.216 93.5225 157.851C91.4698 159.034 89.4617 159.687 87.5137 159.913C91.8281 168.785 94.9289 175.406 88.0064 173.492C79.0799 171.024 68.4514 164.922 59.9793 156.938C54.7231 171.203 48.7879 185.182 40.2828 190.227C21.8255 201.176 2.44798 171.302 5.26693 147.216C6.32491 138.176 18.3929 126.933 31.79 116.827Z" fill="#701B00"/>
<path d="M33.6954 126.258C33.9076 112.025 18.6324 102.171 26.6943 85.905C34.7562 69.6388 114.526 59.1597 88.0064 53.3727C61.4873 47.5857 41.1207 99.043 65.094 91.2227C89.0674 83.4025 8.08587 123.129 5.26693 147.216C2.44798 171.302 21.8255 201.176 40.2828 190.227C58.7401 179.279 65.094 126.258 78.6718 119.532C92.2496 112.807 118.769 123.129 126.406 112.65C134.044 102.171 106.252 66.0415 93.5225 66.0415C80.7934 66.0415 60.2145 136.267 60.2145 136.267C60.2145 136.267 75.0652 168.487 93.5225 157.851C111.98 147.216 116.223 138.144 111.98 136.267C107.737 134.391 108.373 108.427 93.5225 102.171C78.6718 95.9149 42.3937 113.119 45.1516 132.044C47.9095 150.97 71.0342 168.8 88.0064 173.492C104.979 178.184 61.6995 131.575 88.0064 126.258C114.313 120.94 113.465 120.001 126.406 123.129C139.347 126.258 151.652 154.723 148.47 164.108C145.288 173.492 126.618 188.194 111.98 180.843C97.3411 173.492 151.016 115.935 163.321 119.532C175.625 123.129 184.748 180.843 168.2 180.843C151.652 180.843 134.68 108.427 134.044 91.2227C133.407 74.0182 146.349 47.5857 168.2 47.5857C190.052 47.5857 157.168 147.216 193.871 164.108C230.573 180.999 222.299 97.3225 223.148 81.682C223.996 66.0415 231.634 51.3394 243.09 53.3727C254.546 55.406 257.941 99.1994 243.09 99.043C228.24 98.8866 219.541 99.9814 212.328 132.044C205.115 164.108 160.775 123.129 187.506 95.9149C214.237 68.7004 249.667 101.545 243.09 108.427C236.513 115.309 284.884 123.129 279.368 140.49C273.852 157.851 249.031 177.089 257.941 180.843C266.851 184.597 286.794 180.843 292.098 173.492C297.401 166.141 304.402 132.044 292.098 123.129C279.793 114.214 279.368 81.682 299.311 77.4591C319.253 73.2361 333.679 47.5857 349.803 47.5857C365.927 47.5857 384.808 29.7555 396.689 35.0733C408.569 40.3911 387.991 75.2694 377.595 81.682C367.2 88.0946 357.865 110.148 362.532 119.532C367.2 128.916 373.352 140.49 401.781 140.49C430.209 140.49 441.029 126.258 441.029 126.258C441.029 126.258 446.545 102.171 453.758 91.2227C460.971 80.2744 493.855 81.682 467.972 77.4591C442.09 73.2361 474.973 68.7004 487.066 68.544C499.159 68.3876 509.342 84.4973 516.98 53.3727C524.617 22.2481 542.65 45.5524 551.136 44.4576C559.622 43.3628 577.019 35.0733 585.293 25.5326C593.567 15.9919 600.992 2.54102 600.992 2.54102" stroke="white" stroke-opacity="0.55" stroke-width="0.5"/>
</g>
<defs>
<filter id="filter0_d" x="8.75" y="4.87891" width="608.469" height="202.387" filterUnits="userSpaceOnUse" color-interpolation-filters="sRGB">
<feFlood flood-opacity="0" result="BackgroundImageFix"/>
<feColorMatrix in="SourceAlpha" type="matrix" values="0 0 0 0 0 0 0 0 0 0 0 0 0 0 0 0 0 0 127 0"/>
<feOffset dx="2" dy="4"/>
<feGaussianBlur stdDeviation="3"/>
<feColorMatrix type="matrix" values="0 0 0 0 0.325 0 0 0 0 0.325 0 0 0 0 0.325 0 0 0 0.25 0"/>
<feBlend mode="normal" in2="BackgroundImageFix" result="effect1_dropShadow"/>
<feBlend mode="normal" in="SourceGraphic" in2="effect1_dropShadow" result="shape"/>
</filter>
<filter id="filter1_d" x="0.742188" y="0.419922" width="608.469" height="202.387" filterUnits="userSpaceOnUse" color-interpolation-filters="sRGB">
<feFlood flood-opacity="0" result="BackgroundImageFix"/>
<feColorMatrix in="SourceAlpha" type="matrix" values="0 0 0 0 0 0 0 0 0 0 0 0 0 0 0 0 0 0 127 0"/>
<feOffset dx="2" dy="4"/>
<feGaussianBlur stdDeviation="3"/>
<feColorMatrix type="matrix" values="0 0 0 0 0.325 0 0 0 0 0.325 0 0 0 0 0.325 0 0 0 0.25 0"/>
<feBlend mode="normal" in2="BackgroundImageFix" result="effect1_dropShadow"/>
<feBlend mode="normal" in="SourceGraphic" in2="effect1_dropShadow" result="shape"/>
</filter>
</defs>
</svg>
