<svg width="33" height="36" viewBox="0 0 33 36" fill="none" xmlns="http://www.w3.org/2000/svg">
<path d="M16.4994 4.77541C16.9305 4.77541 17.2801 4.42614 17.2801 3.99512V0.78029C17.2801 0.349265 16.9305 0 16.4994 0C16.0684 0 15.7188 0.349265 15.7188 0.78029V3.99512C15.7188 4.42614 16.0684 4.77541 16.4994 4.77541Z" fill="#F5D423"/>
<path d="M9.56797 6.05914C9.71244 6.30919 9.97478 6.44889 10.2443 6.44889C10.3768 6.44889 10.511 6.41516 10.634 6.34372C11.0075 6.12781 11.1349 5.65074 10.919 5.27727L9.31157 2.49704C9.09606 2.12396 8.6186 1.99695 8.24552 2.21207C7.87205 2.42798 7.74464 2.90504 7.96055 3.27852L9.56797 6.05914Z" fill="#F5D423"/>
<path d="M6.06003 9.57355L3.27623 7.96614C2.90315 7.75023 2.42608 7.87882 2.21018 8.2515C1.99466 8.62458 2.12246 9.10204 2.49594 9.31756L5.27974 10.925C5.40238 10.996 5.53693 11.0297 5.66909 11.0297C5.93858 11.0297 6.20093 10.8896 6.34579 10.6396C6.5613 10.2661 6.43351 9.78906 6.06003 9.57355Z" fill="#F5D423"/>
<path d="M30.5017 23.6851L27.7215 22.0813C27.348 21.8657 26.8705 21.9935 26.6554 22.3674C26.4399 22.7405 26.5681 23.218 26.9412 23.4335L29.7214 25.0373C29.844 25.1084 29.9786 25.1421 30.1107 25.1421C30.3806 25.1421 30.643 25.002 30.7874 24.7515C31.003 24.3777 30.8748 23.9002 30.5017 23.6851Z" fill="#F5D423"/>
<path d="M4.77263 16.5029C4.77263 16.0719 4.42297 15.7227 3.99194 15.7227H0.780687C0.349662 15.7227 0 16.0719 0 16.5029C0 16.934 0.349662 17.2832 0.780687 17.2832H3.99194C4.42297 17.2832 4.77263 16.934 4.77263 16.5029Z" fill="#F5D423"/>
<path d="M32.2185 15.7227H29.0073C28.5762 15.7227 28.2266 16.0719 28.2266 16.5029C28.2266 16.934 28.5762 17.2832 29.0073 17.2832H32.2185C32.6495 17.2832 32.9992 16.934 32.9992 16.5029C32.9988 16.0719 32.6495 15.7227 32.2185 15.7227Z" fill="#F5D423"/>
<path d="M5.27575 22.0775L2.49552 23.6849C2.12205 23.9008 1.99464 24.3779 2.21055 24.7514C2.35502 25.0014 2.61737 25.1411 2.88686 25.1411C3.01942 25.1411 3.15357 25.1074 3.27661 25.0359L6.05684 23.4285C6.43031 23.2126 6.55771 22.7355 6.3418 22.3621C6.12629 21.9894 5.64843 21.862 5.27575 22.0775Z" fill="#F5D423"/>
<path d="M27.3321 11.0248C27.4643 11.0248 27.5988 10.9911 27.7215 10.92L30.5017 9.31619C30.8748 9.10068 31.003 8.62362 30.7874 8.25014C30.5719 7.87666 30.0949 7.74847 29.7214 7.96398L26.9412 9.56782C26.5681 9.78333 26.4399 10.2604 26.6554 10.6339C26.7999 10.8847 27.0622 11.0248 27.3321 11.0248Z" fill="#F5D423"/>
<path d="M22.3628 6.34425C22.4854 6.41529 22.62 6.44903 22.7521 6.44903C23.022 6.44903 23.2844 6.30893 23.4288 6.05849L25.0327 3.27826C25.2482 2.90518 25.12 2.42772 24.7469 2.2122C24.3734 1.99629 23.896 2.12489 23.6809 2.49836L22.077 5.27859C21.8619 5.65128 21.9901 6.12874 22.3628 6.34425Z" fill="#F5D423"/>
<path d="M15.6847 17.422C15.6847 16.4754 14.8977 15.7055 13.9304 15.7055C12.9628 15.7055 12.1758 16.4754 12.1758 17.422C12.1758 18.367 12.9628 19.1358 13.9304 19.1358C13.9336 19.1358 13.9368 19.135 13.94 19.135H14.5055V28.0191C14.5055 28.3441 14.7691 28.6076 15.0941 28.6076C15.4192 28.6076 15.6827 28.3441 15.6827 28.0191V19.1346H17.3139V28.0187C17.3139 28.3437 17.5775 28.6072 17.9025 28.6072C18.2276 28.6072 18.4911 28.3437 18.4911 28.0187V19.1346H19.0627C19.0658 19.1346 19.069 19.1354 19.0722 19.1354C20.0394 19.1354 20.8264 18.3666 20.8264 17.4216C20.8264 16.475 20.0394 15.7051 19.0722 15.7051C18.1462 15.7051 17.3933 16.4108 17.3274 17.299C17.3191 17.3383 17.3143 17.3792 17.3143 17.4212V17.9578H15.6831V17.4443C15.6827 17.4367 15.6847 17.4296 15.6847 17.422ZM14.5059 17.4216V17.9582H13.9312C13.9296 17.9582 13.9281 17.9586 13.9261 17.9586C13.6098 17.9563 13.353 17.7165 13.353 17.422C13.353 17.1244 13.6121 16.8823 13.9308 16.8823C14.2452 16.8823 14.5008 17.1184 14.5071 17.4109C14.5067 17.4145 14.5059 17.4181 14.5059 17.4216ZM18.4907 17.4256C18.4907 17.4244 18.4911 17.4232 18.4911 17.422C18.4911 17.1244 18.7515 16.8823 19.0714 16.8823C19.3897 16.8823 19.6489 17.1244 19.6489 17.422C19.6489 17.7169 19.3921 17.9566 19.0754 17.9586C19.0734 17.9586 19.0718 17.9582 19.0698 17.9582H18.4903V17.4256H18.4907Z" fill="#F5D423"/>
<path d="M18.2094 7.07374C17.6379 6.9765 17.066 6.93086 16.4992 6.93165C15.9324 6.93086 15.3605 6.9761 14.789 7.07374C10.9014 7.73496 7.85647 10.7097 7.21192 14.4758C6.80788 16.8373 7.35361 19.2016 8.74948 21.1325C10.2632 23.2273 11.44 25.2383 11.4702 27.0831C11.4896 28.2622 11.9175 28.4896 12.2572 28.4873C13.7245 28.4781 12.7299 25.3082 12.6025 24.9176C12.0445 23.211 11.0713 21.6568 10.0259 20.2101C8.88045 18.6245 8.43196 16.6825 8.76416 14.7413C9.296 11.6328 11.8238 9.17528 15.0537 8.62598C15.532 8.54462 16.011 8.50454 16.4849 8.50454C16.4897 8.50454 16.4948 8.50533 16.4996 8.50533C16.5044 8.50533 16.5095 8.50454 16.5143 8.50454C16.9886 8.50454 17.4672 8.54462 17.9455 8.62598C21.1754 9.17528 23.7028 11.6328 24.235 14.7413C24.5672 16.6825 24.1191 18.6245 22.9733 20.2101C21.9279 21.6568 20.9547 23.211 20.3967 24.9176C20.2689 25.3082 19.2747 28.4785 20.742 28.4873C21.0817 28.4892 21.51 28.2622 21.529 27.0831C21.5592 25.2383 22.736 23.2269 24.2497 21.1325C25.6452 19.2012 26.1913 16.8373 25.7873 14.4758C25.1419 10.7097 22.097 7.73496 18.2094 7.07374Z" fill="#F5D423"/>
<path d="M20.2015 29.3516H12.7979C12.3141 29.3516 11.918 29.7477 11.918 30.2315C11.918 30.7153 12.3141 31.1114 12.7979 31.1114H20.2015C20.6853 31.1114 21.0814 30.7153 21.0814 30.2315C21.081 29.7477 20.6853 29.3516 20.2015 29.3516Z" fill="black"/>
<path d="M20.2015 31.7188H12.7979C12.3141 31.7188 11.918 32.1148 11.918 32.5987C11.918 33.0825 12.3141 33.4786 12.7979 33.4786H20.2015C20.6853 33.4786 21.0814 33.0825 21.0814 32.5987C21.081 32.1148 20.6853 31.7188 20.2015 31.7188Z" fill="black"/>
<path d="M18.2863 34.2109H14.715C14.3003 34.2109 13.9609 34.5503 13.9609 34.965C13.9609 35.3798 14.3003 35.7191 14.715 35.7191H18.2863C18.701 35.7191 19.0404 35.3798 19.0404 34.965C19.0404 34.5503 18.701 34.2109 18.2863 34.2109Z" fill="black"/>
</svg>
