<svg width="1792" height="731" viewBox="0 0 1792 731" fill="none" xmlns="http://www.w3.org/2000/svg">
<g clip-path="url(#clip0)">
<rect width="1792" height="731" fill="#3F4D71"/>
<path d="M2255.73 521.711C2255.73 390.503 1593.94 629.743 1123.11 629.743C652.278 629.743 -54.5136 360.871 -54.5136 492.078C-54.5136 623.286 -194.567 806.396 276.265 806.396C1362.32 880.008 2869.91 724.905 2255.73 521.711Z" fill="#D2DEFC" fill-opacity="0.4"/>
<path d="M2228.73 195.949C2228.73 392.334 1383.57 195.949 906.138 195.949C428.704 195.949 -288 598.384 -288 401.999C-288 205.615 -255.922 -230.154 221.512 -230.154C1322.8 -340.333 2851.53 -108.183 2228.73 195.949Z" fill="#8FA0CB"/>
<path d="M2242.4 606.738C2242.4 469.486 1588.37 719.748 1123.07 719.748C657.758 719.748 -40.7422 438.488 -40.7422 575.741C-40.7422 712.993 -179.152 904.539 286.156 904.539C1359.47 981.542 2849.37 819.294 2242.4 606.738Z" fill="#AFBAD6"/>
</g>
<defs>
<clipPath id="clip0">
<rect width="1792" height="731" fill="white"/>
</clipPath>
</defs>
</svg>
