<svg width="308" height="282" viewBox="0 0 308 282" fill="none" xmlns="http://www.w3.org/2000/svg">
<g filter="url(#filter0_d)">
<rect x="4" width="300" height="274" rx="5" fill="#F4F4F4"/>
</g>
<path d="M168.712 127.334C166.185 127.334 164.129 129.39 164.129 131.917V139.938C164.129 142.466 166.185 144.521 168.712 144.521C169.546 144.521 170.33 144.297 171.004 143.905V148.293C171.004 155.691 164.988 161.709 157.589 161.709H152.522C150.546 161.709 148.571 161.241 146.804 160.357C143.227 158.567 140.665 155.15 139.95 151.213L138.985 145.926C138.944 145.686 138.921 145.44 138.921 145.195C138.921 143.307 140.204 141.684 142.042 141.253L156.461 137.862C156.635 138.811 156.518 139.789 156.113 140.692C155.576 141.897 154.596 142.81 153.356 143.261L148.417 145.058C147.636 145.342 147.013 145.947 146.703 146.719C146.396 147.491 146.435 148.358 146.806 149.1L148.209 151.907C148.493 152.476 149.178 152.7 149.747 152.421C150.313 152.137 150.542 151.449 150.26 150.883L148.857 148.073C148.747 147.858 148.796 147.663 148.835 147.567C148.871 147.468 148.97 147.294 149.201 147.21L154.14 145.413C155.966 144.748 157.41 143.405 158.205 141.629C159 139.853 159.039 137.88 158.317 136.074C158.106 135.547 157.545 135.261 156.993 135.385L141.519 139.026C138.639 139.702 136.629 142.239 136.629 145.198C136.629 145.576 136.666 145.954 136.73 146.334L137.695 151.628C138.538 156.269 141.561 160.302 145.78 162.41C147.86 163.451 150.191 164.001 152.519 164.001H157.586C166.249 164.001 173.296 156.954 173.296 148.293V131.917C173.296 129.39 171.24 127.334 168.712 127.334ZM171.004 139.938C171.004 141.201 169.977 142.23 168.712 142.23C167.447 142.23 166.421 141.201 166.421 139.938V131.917C166.421 130.655 167.447 129.626 168.712 129.626C169.977 129.626 171.004 130.655 171.004 131.917V139.938Z" fill="#B6B6B6"/>
<path d="M166.421 131.917V127.333C166.421 124.806 164.365 122.75 161.837 122.75C159.31 122.75 157.254 124.806 157.254 127.333V138.792C157.254 141.319 159.31 143.375 161.837 143.375C164.363 143.375 166.421 141.319 166.421 138.792V134.208C166.421 133.576 165.907 133.063 165.275 133.063C164.642 133.063 164.129 133.576 164.129 134.208V138.792C164.129 140.054 163.102 141.083 161.837 141.083C160.572 141.083 159.546 140.054 159.546 138.792V127.333C159.546 126.071 160.572 125.042 161.837 125.042C163.102 125.042 164.129 126.071 164.129 127.333V131.917C164.129 132.549 164.642 133.063 165.275 133.063C165.907 133.063 166.421 132.549 166.421 131.917Z" fill="#B6B6B6"/>
<path d="M154.792 109C152.338 109 150.305 110.84 150.055 113.352L149.418 130.384L143.843 117.883C143.313 116.67 142.284 115.74 141.022 115.336C139.759 114.935 138.379 115.094 137.245 115.776C135.405 116.879 134.571 119.076 135.217 121.123L141.267 140.281C141.423 140.772 141.872 141.083 142.36 141.083C142.475 141.083 142.591 141.067 142.706 141.031C143.309 140.84 143.643 140.197 143.453 139.594L137.401 120.433C137.075 119.404 137.497 118.297 138.421 117.74C138.993 117.397 139.69 117.316 140.323 117.52C140.96 117.724 141.478 118.19 141.746 118.808L148.176 133.225C148.52 133.997 149.333 134.415 150.172 134.261C151.004 134.098 151.6 133.395 151.632 132.554L152.342 113.508C152.468 112.245 153.52 111.292 154.792 111.292C156.151 111.292 157.256 112.396 157.256 113.755V127.333C157.256 127.966 157.769 128.479 158.401 128.479C159.034 128.479 159.547 127.966 159.547 127.333V113.755C159.547 111.134 157.416 109 154.792 109Z" fill="#B6B6B6"/>
<defs>
<filter id="filter0_d" x="0" y="0" width="308" height="282" filterUnits="userSpaceOnUse" color-interpolation-filters="sRGB">
<feFlood flood-opacity="0" result="BackgroundImageFix"/>
<feColorMatrix in="SourceAlpha" type="matrix" values="0 0 0 0 0 0 0 0 0 0 0 0 0 0 0 0 0 0 127 0"/>
<feOffset dy="4"/>
<feGaussianBlur stdDeviation="2"/>
<feColorMatrix type="matrix" values="0 0 0 0 0.883333 0 0 0 0 0.883333 0 0 0 0 0.883333 0 0 0 0.47 0"/>
<feBlend mode="normal" in2="BackgroundImageFix" result="effect1_dropShadow"/>
<feBlend mode="normal" in="SourceGraphic" in2="effect1_dropShadow" result="shape"/>
</filter>
</defs>
</svg>
