<svg width="308" height="282" viewBox="0 0 308 282" fill="none" xmlns="http://www.w3.org/2000/svg">
<g filter="url(#filter0_d)">
<rect x="4" width="300" height="274" rx="10" fill="#701B00"/>
</g>
<path d="M102.266 61.9297L101.399 61.8672C100.571 61.8672 100.04 62.1276 99.8053 62.6484V68H97.1725V59.5469H99.6413L99.7272 60.6328C100.17 59.8047 100.787 59.3906 101.579 59.3906C101.86 59.3906 102.105 59.4219 102.313 59.4844L102.266 61.9297ZM108.589 68.1562C107.292 68.1562 106.243 67.7708 105.441 67C104.639 66.224 104.238 65.2161 104.238 63.9766V63.7578C104.238 62.8932 104.396 62.1302 104.714 61.4688C105.037 60.8073 105.506 60.2969 106.12 59.9375C106.735 59.5729 107.464 59.3906 108.308 59.3906C109.495 59.3906 110.433 59.7604 111.12 60.5C111.808 61.2344 112.152 62.2604 112.152 63.5781V64.6016H106.917C107.011 65.0755 107.217 65.4479 107.534 65.7188C107.852 65.9896 108.264 66.125 108.769 66.125C109.602 66.125 110.253 65.8333 110.722 65.25L111.925 66.6719C111.597 67.125 111.131 67.487 110.527 67.7578C109.928 68.0234 109.282 68.1562 108.589 68.1562ZM108.292 61.4219C107.521 61.4219 107.063 61.9323 106.917 62.9531H109.573V62.75C109.584 62.3281 109.477 62.0026 109.253 61.7734C109.029 61.5391 108.709 61.4219 108.292 61.4219ZM114.326 63.7109C114.326 62.3724 114.615 61.3177 115.193 60.5469C115.771 59.776 116.579 59.3906 117.615 59.3906C118.37 59.3906 119.006 59.6875 119.521 60.2812V56H122.162V68H119.795L119.662 67.0938C119.12 67.8021 118.433 68.1562 117.599 68.1562C116.594 68.1562 115.797 67.7708 115.209 67C114.62 66.2292 114.326 65.1328 114.326 63.7109ZM116.959 63.875C116.959 65.375 117.396 66.125 118.271 66.125C118.855 66.125 119.271 65.8802 119.521 65.3906V62.1719C119.282 61.6719 118.87 61.4219 118.287 61.4219C117.474 61.4219 117.034 62.0781 116.967 63.3906L116.959 63.875ZM132.323 60.5703C132.964 59.7839 133.797 59.3906 134.823 59.3906C136.61 59.3906 137.511 60.3984 137.526 62.4141V68H136.081V62.4062C136.076 61.7969 135.935 61.3464 135.659 61.0547C135.388 60.763 134.964 60.6172 134.386 60.6172C133.917 60.6172 133.505 60.7422 133.151 60.9922C132.797 61.2422 132.521 61.5703 132.323 61.9766V68H130.878V56H132.323V60.5703ZM146.349 68C146.266 67.8333 146.198 67.5365 146.146 67.1094C145.474 67.8073 144.672 68.1562 143.74 68.1562C142.906 68.1562 142.221 67.9219 141.685 67.4531C141.154 66.9792 140.888 66.3802 140.888 65.6562C140.888 64.776 141.221 64.0938 141.888 63.6094C142.56 63.1198 143.503 62.875 144.716 62.875H146.122V62.2109C146.122 61.7057 145.971 61.3047 145.669 61.0078C145.367 60.7057 144.922 60.5547 144.333 60.5547C143.818 60.5547 143.386 60.6849 143.037 60.9453C142.688 61.2057 142.513 61.5208 142.513 61.8906H141.06C141.06 61.4688 141.208 61.0625 141.505 60.6719C141.807 60.276 142.214 59.9635 142.724 59.7344C143.24 59.5052 143.805 59.3906 144.419 59.3906C145.393 59.3906 146.156 59.6354 146.708 60.125C147.261 60.6094 147.547 61.2786 147.568 62.1328V66.0234C147.568 66.7995 147.667 67.4167 147.865 67.875V68H146.349ZM143.951 66.8984C144.404 66.8984 144.833 66.7812 145.24 66.5469C145.646 66.3125 145.94 66.0078 146.122 65.6328V63.8984H144.99C143.219 63.8984 142.333 64.4167 142.333 65.4531C142.333 65.9062 142.484 66.2604 142.787 66.5156C143.089 66.7708 143.477 66.8984 143.951 66.8984ZM156.195 65.7578C156.195 65.3672 156.047 65.0651 155.75 64.8516C155.458 64.6328 154.945 64.4453 154.211 64.2891C153.482 64.1328 152.901 63.9453 152.469 63.7266C152.042 63.5078 151.724 63.2474 151.516 62.9453C151.312 62.6432 151.211 62.2839 151.211 61.8672C151.211 61.1745 151.503 60.5885 152.086 60.1094C152.674 59.6302 153.424 59.3906 154.336 59.3906C155.294 59.3906 156.07 59.638 156.664 60.1328C157.263 60.6276 157.562 61.2604 157.562 62.0312H156.109C156.109 61.6354 155.94 61.2943 155.602 61.0078C155.268 60.7214 154.846 60.5781 154.336 60.5781C153.81 60.5781 153.398 60.6927 153.102 60.9219C152.805 61.151 152.656 61.4505 152.656 61.8203C152.656 62.1693 152.794 62.4323 153.07 62.6094C153.346 62.7865 153.844 62.9557 154.562 63.1172C155.286 63.2786 155.872 63.4714 156.32 63.6953C156.768 63.9193 157.099 64.1901 157.312 64.5078C157.531 64.8203 157.641 65.2031 157.641 65.6562C157.641 66.4115 157.339 67.0182 156.734 67.4766C156.13 67.9297 155.346 68.1562 154.383 68.1562C153.706 68.1562 153.107 68.0365 152.586 67.7969C152.065 67.5573 151.656 67.224 151.359 66.7969C151.068 66.3646 150.922 65.8984 150.922 65.3984H152.367C152.393 65.8828 152.586 66.2682 152.945 66.5547C153.31 66.8359 153.789 66.9766 154.383 66.9766C154.93 66.9766 155.367 66.8672 155.695 66.6484C156.029 66.4245 156.195 66.1276 156.195 65.7578ZM166.021 63.7031C166.021 62.4062 166.328 61.3646 166.943 60.5781C167.557 59.7865 168.362 59.3906 169.357 59.3906C170.346 59.3906 171.13 59.7292 171.708 60.4062V56H173.153V68H171.825L171.755 67.0938C171.177 67.8021 170.372 68.1562 169.341 68.1562C168.362 68.1562 167.562 67.7552 166.943 66.9531C166.328 66.151 166.021 65.1042 166.021 63.8125V63.7031ZM167.466 63.8672C167.466 64.8255 167.664 65.5755 168.06 66.1172C168.456 66.6589 169.002 66.9297 169.7 66.9297C170.617 66.9297 171.286 66.5182 171.708 65.6953V61.8125C171.276 61.0156 170.612 60.6172 169.716 60.6172C169.008 60.6172 168.456 60.8906 168.06 61.4375C167.664 61.9844 167.466 62.7943 167.466 63.8672ZM180.351 68.1562C179.205 68.1562 178.273 67.7812 177.554 67.0312C176.836 66.276 176.476 65.2682 176.476 64.0078V63.7422C176.476 62.9036 176.635 62.1562 176.953 61.5C177.276 60.8385 177.724 60.3229 178.297 59.9531C178.875 59.5781 179.5 59.3906 180.172 59.3906C181.271 59.3906 182.125 59.7526 182.734 60.4766C183.343 61.2005 183.648 62.237 183.648 63.5859V64.1875H177.922C177.942 65.0208 178.185 65.6953 178.648 66.2109C179.117 66.7214 179.711 66.9766 180.429 66.9766C180.94 66.9766 181.372 66.8724 181.726 66.6641C182.08 66.4557 182.39 66.1797 182.656 65.8359L183.539 66.5234C182.83 67.612 181.768 68.1562 180.351 68.1562ZM180.172 60.5781C179.588 60.5781 179.099 60.7917 178.703 61.2188C178.307 61.6406 178.062 62.2344 177.968 63H182.203V62.8906C182.161 62.1562 181.963 61.5885 181.609 61.1875C181.255 60.7812 180.776 60.5781 180.172 60.5781ZM193.908 63.8672C193.908 65.1536 193.614 66.1901 193.026 66.9766C192.437 67.763 191.64 68.1562 190.635 68.1562C189.609 68.1562 188.802 67.8307 188.213 67.1797V71.25H186.768V59.5469H188.088L188.158 60.4844C188.747 59.7552 189.565 59.3906 190.612 59.3906C191.627 59.3906 192.429 59.7734 193.018 60.5391C193.612 61.3047 193.908 62.3698 193.908 63.7344V63.8672ZM192.463 63.7031C192.463 62.75 192.26 61.9974 191.854 61.4453C191.448 60.8932 190.89 60.6172 190.182 60.6172C189.307 60.6172 188.651 61.0052 188.213 61.7812V65.8203C188.645 66.5911 189.307 66.9766 190.198 66.9766C190.89 66.9766 191.44 66.7031 191.846 66.1562C192.257 65.6042 192.463 64.7865 192.463 63.7031ZM199.153 57.5V59.5469H200.731V60.6641H199.153V65.9062C199.153 66.2448 199.223 66.5 199.364 66.6719C199.505 66.8385 199.744 66.9219 200.083 66.9219C200.249 66.9219 200.479 66.8906 200.77 66.8281V68C200.39 68.1042 200.02 68.1562 199.661 68.1562C199.015 68.1562 198.528 67.9609 198.2 67.5703C197.872 67.1797 197.708 66.625 197.708 65.9062V60.6641H196.169V59.5469H197.708V57.5H199.153ZM205.312 60.5703C205.952 59.7839 206.786 59.3906 207.812 59.3906C209.598 59.3906 210.499 60.3984 210.515 62.4141V68H209.07V62.4062C209.064 61.7969 208.924 61.3464 208.648 61.0547C208.377 60.763 207.952 60.6172 207.374 60.6172C206.906 60.6172 206.494 60.7422 206.14 60.9922C205.786 61.2422 205.51 61.5703 205.312 61.9766V68H203.867V56H205.312V60.5703ZM70.8031 92.7578C70.8031 92.3672 70.6547 92.0651 70.3578 91.8516C70.0661 91.6328 69.5531 91.4453 68.8187 91.2891C68.0896 91.1328 67.5089 90.9453 67.0766 90.7266C66.6495 90.5078 66.3318 90.2474 66.1234 89.9453C65.9203 89.6432 65.8187 89.2839 65.8187 88.8672C65.8187 88.1745 66.1104 87.5885 66.6937 87.1094C67.2823 86.6302 68.0323 86.3906 68.9437 86.3906C69.9021 86.3906 70.6781 86.638 71.2719 87.1328C71.8708 87.6276 72.1703 88.2604 72.1703 89.0312H70.7172C70.7172 88.6354 70.5479 88.2943 70.2094 88.0078C69.876 87.7214 69.4542 87.5781 68.9437 87.5781C68.4177 87.5781 68.0062 87.6927 67.7094 87.9219C67.4125 88.151 67.2641 88.4505 67.2641 88.8203C67.2641 89.1693 67.4021 89.4323 67.6781 89.6094C67.9542 89.7865 68.4516 89.9557 69.1703 90.1172C69.8943 90.2786 70.4802 90.4714 70.9281 90.6953C71.376 90.9193 71.7068 91.1901 71.9203 91.5078C72.1391 91.8203 72.2484 92.2031 72.2484 92.6562C72.2484 93.4115 71.9464 94.0182 71.3422 94.4766C70.738 94.9297 69.9542 95.1562 68.9906 95.1562C68.3135 95.1562 67.7146 95.0365 67.1937 94.7969C66.6729 94.5573 66.2641 94.224 65.9672 93.7969C65.6755 93.3646 65.5297 92.8984 65.5297 92.3984H66.975C67.001 92.8828 67.1937 93.2682 67.5531 93.5547C67.9177 93.8359 68.3969 93.9766 68.9906 93.9766C69.5375 93.9766 69.975 93.8672 70.3031 93.6484C70.6365 93.4245 70.8031 93.1276 70.8031 92.7578ZM77.5322 84.5V86.5469H79.1103V87.6641H77.5322V92.9062C77.5322 93.2448 77.6025 93.5 77.7431 93.6719C77.8838 93.8385 78.1233 93.9219 78.4619 93.9219C78.6285 93.9219 78.8577 93.8906 79.1494 93.8281V95C78.7692 95.1042 78.3994 95.1562 78.04 95.1562C77.3942 95.1562 76.9072 94.9609 76.5791 94.5703C76.2509 94.1797 76.0869 93.625 76.0869 92.9062V87.6641H74.5478V86.5469H76.0869V84.5H77.5322ZM86.3316 87.8438C86.1128 87.8073 85.8758 87.7891 85.6206 87.7891C84.6727 87.7891 84.0295 88.1927 83.6909 89V95H82.2456V86.5469H83.6519L83.6753 87.5234C84.1493 86.7682 84.8211 86.3906 85.6909 86.3906C85.9722 86.3906 86.1857 86.4271 86.3316 86.5V87.8438ZM88.5684 90.6953C88.5684 89.8672 88.7299 89.1224 89.0528 88.4609C89.3809 87.7995 89.8341 87.2891 90.4122 86.9297C90.9955 86.5703 91.6596 86.3906 92.4044 86.3906C93.5554 86.3906 94.4851 86.7891 95.1934 87.5859C95.907 88.3828 96.2637 89.4427 96.2637 90.7656V90.8672C96.2637 91.6901 96.1049 92.4297 95.7872 93.0859C95.4747 93.737 95.0242 94.2448 94.4356 94.6094C93.8523 94.974 93.1804 95.1562 92.42 95.1562C91.2742 95.1562 90.3445 94.7578 89.6309 93.9609C88.9226 93.1641 88.5684 92.1094 88.5684 90.7969V90.6953ZM90.0216 90.8672C90.0216 91.8047 90.2377 92.5573 90.67 93.125C91.1075 93.6927 91.6908 93.9766 92.42 93.9766C93.1544 93.9766 93.7377 93.6901 94.17 93.1172C94.6023 92.5391 94.8184 91.7318 94.8184 90.6953C94.8184 89.7682 94.5971 89.0182 94.1544 88.4453C93.7169 87.8672 93.1335 87.5781 92.4044 87.5781C91.6908 87.5781 91.1153 87.862 90.6778 88.4297C90.2403 88.9974 90.0216 89.8099 90.0216 90.8672ZM100.883 86.5469L100.93 87.6094C101.576 86.7969 102.42 86.3906 103.462 86.3906C105.248 86.3906 106.149 87.3984 106.165 89.4141V95H104.719V89.4062C104.714 88.7969 104.574 88.3464 104.298 88.0547C104.027 87.763 103.602 87.6172 103.024 87.6172C102.555 87.6172 102.144 87.7422 101.79 87.9922C101.436 88.2422 101.159 88.5703 100.962 88.9766V95H99.5163V86.5469H100.883ZM109.441 90.7031C109.441 89.3854 109.745 88.3385 110.355 87.5625C110.964 86.7812 111.771 86.3906 112.777 86.3906C113.808 86.3906 114.613 86.7552 115.191 87.4844L115.261 86.5469H116.581V94.7969C116.581 95.8906 116.256 96.7526 115.605 97.3828C114.959 98.013 114.089 98.3281 112.995 98.3281C112.386 98.3281 111.79 98.1979 111.206 97.9375C110.623 97.6771 110.178 97.3203 109.87 96.8672L110.62 96C111.24 96.7656 111.998 97.1484 112.894 97.1484C113.597 97.1484 114.144 96.9505 114.534 96.5547C114.93 96.1589 115.128 95.6016 115.128 94.8828V94.1562C114.55 94.8229 113.761 95.1562 112.761 95.1562C111.771 95.1562 110.969 94.7578 110.355 93.9609C109.745 93.1641 109.441 92.0781 109.441 90.7031ZM110.894 90.8672C110.894 91.8203 111.089 92.5703 111.48 93.1172C111.87 93.6589 112.417 93.9297 113.12 93.9297C114.032 93.9297 114.701 93.5156 115.128 92.6875V88.8281C114.685 88.0208 114.021 87.6172 113.136 87.6172C112.433 87.6172 111.883 87.8906 111.488 88.4375C111.092 88.9844 110.894 89.7943 110.894 90.8672ZM132.774 90.8672C132.774 92.1589 132.477 93.1979 131.883 93.9844C131.289 94.7656 130.493 95.1562 129.493 95.1562C128.425 95.1562 127.599 94.7786 127.016 94.0234L126.946 95H125.618V83H127.063V87.4766C127.646 86.7526 128.451 86.3906 129.477 86.3906C130.503 86.3906 131.308 86.7786 131.891 87.5547C132.479 88.3307 132.774 89.3932 132.774 90.7422V90.8672ZM131.328 90.7031C131.328 89.7188 131.138 88.9583 130.758 88.4219C130.378 87.8854 129.831 87.6172 129.118 87.6172C128.164 87.6172 127.479 88.0599 127.063 88.9453V92.6016C127.506 93.487 128.196 93.9297 129.133 93.9297C129.826 93.9297 130.365 93.6615 130.75 93.125C131.136 92.5885 131.328 91.7812 131.328 90.7031ZM141.261 94.1641C140.698 94.8255 139.873 95.1562 138.784 95.1562C137.883 95.1562 137.196 94.8958 136.722 94.375C136.253 93.849 136.016 93.0729 136.011 92.0469V86.5469H137.456V92.0078C137.456 93.2891 137.977 93.9297 139.018 93.9297C140.123 93.9297 140.857 93.5182 141.222 92.6953V86.5469H142.667V95H141.292L141.261 94.1641ZM148.271 84.5V86.5469H149.849V87.6641H148.271V92.9062C148.271 93.2448 148.341 93.5 148.482 93.6719C148.622 93.8385 148.862 93.9219 149.201 93.9219C149.367 93.9219 149.596 93.8906 149.888 93.8281V95C149.508 95.1042 149.138 95.1562 148.779 95.1562C148.133 95.1562 147.646 94.9609 147.318 94.5703C146.99 94.1797 146.826 93.625 146.826 92.9062V87.6641H145.287V86.5469H146.826V84.5H148.271ZM161.182 93.0391L163.276 86.5469H164.753L161.721 95H160.62L157.557 86.5469H159.034L161.182 93.0391ZM172.802 94.1641C172.239 94.8255 171.414 95.1562 170.325 95.1562C169.424 95.1562 168.737 94.8958 168.263 94.375C167.794 93.849 167.557 93.0729 167.552 92.0469V86.5469H168.997V92.0078C168.997 93.2891 169.518 93.9297 170.56 93.9297C171.664 93.9297 172.398 93.5182 172.763 92.6953V86.5469H174.208V95H172.833L172.802 94.1641ZM179.422 95H177.976V83H179.422V95ZM184.549 86.5469L184.596 87.6094C185.242 86.7969 186.086 86.3906 187.127 86.3906C188.914 86.3906 189.815 87.3984 189.83 89.4141V95H188.385V89.4062C188.38 88.7969 188.239 88.3464 187.963 88.0547C187.692 87.763 187.268 87.6172 186.69 87.6172C186.221 87.6172 185.809 87.7422 185.455 87.9922C185.101 88.2422 184.825 88.5703 184.627 88.9766V95H183.182V86.5469H184.549ZM196.958 95.1562C195.812 95.1562 194.88 94.7812 194.161 94.0312C193.442 93.276 193.083 92.2682 193.083 91.0078V90.7422C193.083 89.9036 193.242 89.1562 193.559 88.5C193.882 87.8385 194.33 87.3229 194.903 86.9531C195.481 86.5781 196.106 86.3906 196.778 86.3906C197.877 86.3906 198.731 86.7526 199.341 87.4766C199.95 88.2005 200.255 89.237 200.255 90.5859V91.1875H194.528C194.549 92.0208 194.791 92.6953 195.255 93.2109C195.723 93.7214 196.317 93.9766 197.036 93.9766C197.546 93.9766 197.979 93.8724 198.333 93.6641C198.687 93.4557 198.997 93.1797 199.262 92.8359L200.145 93.5234C199.437 94.612 198.374 95.1562 196.958 95.1562ZM196.778 87.5781C196.195 87.5781 195.705 87.7917 195.309 88.2188C194.914 88.6406 194.669 89.2344 194.575 90H198.809V89.8906C198.768 89.1562 198.57 88.5885 198.216 88.1875C197.861 87.7812 197.382 87.5781 196.778 87.5781ZM207.46 87.8438C207.242 87.8073 207.005 87.7891 206.749 87.7891C205.801 87.7891 205.158 88.1927 204.82 89V95H203.374V86.5469H204.781L204.804 87.5234C205.278 86.7682 205.95 86.3906 206.82 86.3906C207.101 86.3906 207.314 86.4271 207.46 86.5V87.8438ZM215.142 95C215.059 94.8333 214.991 94.5365 214.939 94.1094C214.267 94.8073 213.465 95.1562 212.533 95.1562C211.7 95.1562 211.015 94.9219 210.478 94.4531C209.947 93.9792 209.682 93.3802 209.682 92.6562C209.682 91.776 210.015 91.0938 210.682 90.6094C211.353 90.1198 212.296 89.875 213.51 89.875H214.916V89.2109C214.916 88.7057 214.765 88.3047 214.463 88.0078C214.161 87.7057 213.715 87.5547 213.127 87.5547C212.611 87.5547 212.179 87.6849 211.83 87.9453C211.481 88.2057 211.307 88.5208 211.307 88.8906H209.853C209.853 88.4688 210.002 88.0625 210.299 87.6719C210.601 87.276 211.007 86.9635 211.517 86.7344C212.033 86.5052 212.598 86.3906 213.213 86.3906C214.187 86.3906 214.95 86.6354 215.502 87.125C216.054 87.6094 216.34 88.2786 216.361 89.1328V93.0234C216.361 93.7995 216.46 94.4167 216.658 94.875V95H215.142ZM212.744 93.8984C213.197 93.8984 213.627 93.7812 214.033 93.5469C214.439 93.3125 214.734 93.0078 214.916 92.6328V90.8984H213.783C212.012 90.8984 211.127 91.4167 211.127 92.4531C211.127 92.9062 211.278 93.2604 211.58 93.5156C211.882 93.7708 212.27 93.8984 212.744 93.8984ZM227.223 90.8672C227.223 92.1589 226.926 93.1979 226.332 93.9844C225.739 94.7656 224.942 95.1562 223.942 95.1562C222.874 95.1562 222.049 94.7786 221.465 94.0234L221.395 95H220.067V83H221.512V87.4766C222.096 86.7526 222.9 86.3906 223.926 86.3906C224.952 86.3906 225.757 86.7786 226.34 87.5547C226.929 88.3307 227.223 89.3932 227.223 90.7422V90.8672ZM225.778 90.7031C225.778 89.7188 225.588 88.9583 225.207 88.4219C224.827 87.8854 224.28 87.6172 223.567 87.6172C222.614 87.6172 221.929 88.0599 221.512 88.9453V92.6016C221.955 93.487 222.645 93.9297 223.582 93.9297C224.275 93.9297 224.814 93.6615 225.2 93.125C225.585 92.5885 225.778 91.7812 225.778 90.7031ZM232.062 95H230.616V83H232.062V95ZM239.33 95.1562C238.184 95.1562 237.252 94.7812 236.533 94.0312C235.814 93.276 235.455 92.2682 235.455 91.0078V90.7422C235.455 89.9036 235.614 89.1562 235.931 88.5C236.254 87.8385 236.702 87.3229 237.275 86.9531C237.853 86.5781 238.478 86.3906 239.15 86.3906C240.249 86.3906 241.103 86.7526 241.712 87.4766C242.322 88.2005 242.627 89.237 242.627 90.5859V91.1875H236.9C236.921 92.0208 237.163 92.6953 237.627 93.2109C238.095 93.7214 238.689 93.9766 239.408 93.9766C239.918 93.9766 240.351 93.8724 240.705 93.6641C241.059 93.4557 241.369 93.1797 241.634 92.8359L242.517 93.5234C241.809 94.612 240.746 95.1562 239.33 95.1562ZM239.15 87.5781C238.567 87.5781 238.077 87.7917 237.681 88.2188C237.285 88.6406 237.041 89.2344 236.947 90H241.181V89.8906C241.14 89.1562 240.942 88.5885 240.587 88.1875C240.233 87.7812 239.754 87.5781 239.15 87.5781ZM52.285 117.703C52.285 116.385 52.5897 115.339 53.1991 114.562C53.8084 113.781 54.6157 113.391 55.6209 113.391C56.6522 113.391 57.4569 113.755 58.035 114.484L58.1053 113.547H59.4256V121.797C59.4256 122.891 59.1001 123.753 58.4491 124.383C57.8032 125.013 56.9334 125.328 55.8397 125.328C55.2303 125.328 54.634 125.198 54.0506 124.938C53.4673 124.677 53.022 124.32 52.7147 123.867L53.4647 123C54.0845 123.766 54.8423 124.148 55.7381 124.148C56.4412 124.148 56.9881 123.951 57.3787 123.555C57.7746 123.159 57.9725 122.602 57.9725 121.883V121.156C57.3944 121.823 56.6053 122.156 55.6053 122.156C54.6157 122.156 53.8136 121.758 53.1991 120.961C52.5897 120.164 52.285 119.078 52.285 117.703ZM53.7381 117.867C53.7381 118.82 53.9334 119.57 54.3241 120.117C54.7147 120.659 55.2616 120.93 55.9647 120.93C56.8761 120.93 57.5454 120.516 57.9725 119.688V115.828C57.5298 115.021 56.8657 114.617 55.9803 114.617C55.2772 114.617 54.7277 114.891 54.3319 115.438C53.936 115.984 53.7381 116.794 53.7381 117.867ZM66.5609 122.156C65.4151 122.156 64.4828 121.781 63.7641 121.031C63.0453 120.276 62.6859 119.268 62.6859 118.008V117.742C62.6859 116.904 62.8448 116.156 63.1625 115.5C63.4854 114.839 63.9333 114.323 64.5062 113.953C65.0844 113.578 65.7094 113.391 66.3812 113.391C67.4802 113.391 68.3344 113.753 68.9437 114.477C69.5531 115.201 69.8578 116.237 69.8578 117.586V118.188H64.1312C64.1521 119.021 64.3943 119.695 64.8578 120.211C65.3266 120.721 65.9203 120.977 66.6391 120.977C67.1495 120.977 67.5818 120.872 67.9359 120.664C68.2901 120.456 68.6 120.18 68.8656 119.836L69.7484 120.523C69.0401 121.612 67.9776 122.156 66.5609 122.156ZM66.3812 114.578C65.7979 114.578 65.3083 114.792 64.9125 115.219C64.5167 115.641 64.2719 116.234 64.1781 117H68.4125V116.891C68.3708 116.156 68.1729 115.589 67.8187 115.188C67.4646 114.781 66.9854 114.578 66.3812 114.578ZM74.3447 113.547L74.3916 114.609C75.0374 113.797 75.8811 113.391 76.9228 113.391C78.7093 113.391 79.6103 114.398 79.6259 116.414V122H78.1806V116.406C78.1754 115.797 78.0348 115.346 77.7587 115.055C77.4879 114.763 77.0634 114.617 76.4853 114.617C76.0166 114.617 75.6051 114.742 75.2509 114.992C74.8968 115.242 74.6207 115.57 74.4228 115.977V122H72.9775V113.547H74.3447ZM88.4644 121.164C87.9019 121.826 87.0763 122.156 85.9878 122.156C85.0868 122.156 84.3993 121.896 83.9253 121.375C83.4566 120.849 83.2196 120.073 83.2144 119.047V113.547H84.6597V119.008C84.6597 120.289 85.1805 120.93 86.2222 120.93C87.3263 120.93 88.0607 120.518 88.4253 119.695V113.547H89.8706V122H88.4956L88.4644 121.164ZM95.0841 122H93.6387V113.547H95.0841V122ZM93.5216 111.305C93.5216 111.07 93.5919 110.872 93.7325 110.711C93.8783 110.549 94.0919 110.469 94.3731 110.469C94.6544 110.469 94.8679 110.549 95.0137 110.711C95.1596 110.872 95.2325 111.07 95.2325 111.305C95.2325 111.539 95.1596 111.734 95.0137 111.891C94.8679 112.047 94.6544 112.125 94.3731 112.125C94.0919 112.125 93.8783 112.047 93.7325 111.891C93.5919 111.734 93.5216 111.539 93.5216 111.305ZM100.212 113.547L100.258 114.609C100.904 113.797 101.748 113.391 102.79 113.391C104.576 113.391 105.477 114.398 105.493 116.414V122H104.048V116.406C104.042 115.797 103.902 115.346 103.626 115.055C103.355 114.763 102.93 114.617 102.352 114.617C101.883 114.617 101.472 114.742 101.118 114.992C100.764 115.242 100.488 115.57 100.29 115.977V122H98.8444V113.547H100.212ZM112.62 122.156C111.474 122.156 110.542 121.781 109.823 121.031C109.105 120.276 108.745 119.268 108.745 118.008V117.742C108.745 116.904 108.904 116.156 109.222 115.5C109.545 114.839 109.993 114.323 110.566 113.953C111.144 113.578 111.769 113.391 112.441 113.391C113.54 113.391 114.394 113.753 115.003 114.477C115.612 115.201 115.917 116.237 115.917 117.586V118.188H110.191C110.211 119.021 110.454 119.695 110.917 120.211C111.386 120.721 111.98 120.977 112.698 120.977C113.209 120.977 113.641 120.872 113.995 120.664C114.349 120.456 114.659 120.18 114.925 119.836L115.808 120.523C115.099 121.612 114.037 122.156 112.62 122.156ZM112.441 114.578C111.857 114.578 111.368 114.792 110.972 115.219C110.576 115.641 110.331 116.234 110.237 117H114.472V116.891C114.43 116.156 114.232 115.589 113.878 115.188C113.524 114.781 113.045 114.578 112.441 114.578ZM129.664 122C129.581 121.833 129.513 121.536 129.461 121.109C128.789 121.807 127.987 122.156 127.055 122.156C126.222 122.156 125.537 121.922 125 121.453C124.469 120.979 124.203 120.38 124.203 119.656C124.203 118.776 124.537 118.094 125.203 117.609C125.875 117.12 126.818 116.875 128.032 116.875H129.438V116.211C129.438 115.706 129.287 115.305 128.985 115.008C128.683 114.706 128.237 114.555 127.649 114.555C127.133 114.555 126.701 114.685 126.352 114.945C126.003 115.206 125.828 115.521 125.828 115.891H124.375C124.375 115.469 124.524 115.062 124.821 114.672C125.123 114.276 125.529 113.964 126.039 113.734C126.555 113.505 127.12 113.391 127.735 113.391C128.709 113.391 129.472 113.635 130.024 114.125C130.576 114.609 130.862 115.279 130.883 116.133V120.023C130.883 120.799 130.982 121.417 131.18 121.875V122H129.664ZM127.266 120.898C127.719 120.898 128.149 120.781 128.555 120.547C128.961 120.312 129.256 120.008 129.438 119.633V117.898H128.305C126.534 117.898 125.649 118.417 125.649 119.453C125.649 119.906 125.8 120.26 126.102 120.516C126.404 120.771 126.792 120.898 127.266 120.898ZM135.956 113.547L136.003 114.609C136.649 113.797 137.492 113.391 138.534 113.391C140.321 113.391 141.222 114.398 141.237 116.414V122H139.792V116.406C139.787 115.797 139.646 115.346 139.37 115.055C139.099 114.763 138.675 114.617 138.097 114.617C137.628 114.617 137.216 114.742 136.862 114.992C136.508 115.242 136.232 115.57 136.034 115.977V122H134.589V113.547H135.956ZM144.505 117.703C144.505 116.406 144.813 115.365 145.427 114.578C146.042 113.786 146.846 113.391 147.841 113.391C148.831 113.391 149.615 113.729 150.193 114.406V110H151.638V122H150.31L150.24 121.094C149.662 121.802 148.857 122.156 147.826 122.156C146.846 122.156 146.047 121.755 145.427 120.953C144.813 120.151 144.505 119.104 144.505 117.812V117.703ZM145.951 117.867C145.951 118.826 146.149 119.576 146.544 120.117C146.94 120.659 147.487 120.93 148.185 120.93C149.102 120.93 149.771 120.518 150.193 119.695V115.812C149.761 115.016 149.096 114.617 148.201 114.617C147.492 114.617 146.94 114.891 146.544 115.438C146.149 115.984 145.951 116.794 145.951 117.867ZM167.878 117.867C167.878 119.154 167.583 120.19 166.995 120.977C166.406 121.763 165.609 122.156 164.604 122.156C163.578 122.156 162.771 121.831 162.182 121.18V125.25H160.737V113.547H162.057L162.128 114.484C162.716 113.755 163.534 113.391 164.581 113.391C165.596 113.391 166.398 113.773 166.987 114.539C167.581 115.305 167.878 116.37 167.878 117.734V117.867ZM166.432 117.703C166.432 116.75 166.229 115.997 165.823 115.445C165.417 114.893 164.859 114.617 164.151 114.617C163.276 114.617 162.62 115.005 162.182 115.781V119.82C162.614 120.591 163.276 120.977 164.167 120.977C164.859 120.977 165.409 120.703 165.815 120.156C166.226 119.604 166.432 118.786 166.432 117.703ZM176.38 122C176.297 121.833 176.229 121.536 176.177 121.109C175.505 121.807 174.703 122.156 173.771 122.156C172.937 122.156 172.252 121.922 171.716 121.453C171.185 120.979 170.919 120.38 170.919 119.656C170.919 118.776 171.252 118.094 171.919 117.609C172.591 117.12 173.534 116.875 174.747 116.875H176.153V116.211C176.153 115.706 176.002 115.305 175.7 115.008C175.398 114.706 174.953 114.555 174.364 114.555C173.849 114.555 173.416 114.685 173.068 114.945C172.719 115.206 172.544 115.521 172.544 115.891H171.091C171.091 115.469 171.239 115.062 171.536 114.672C171.838 114.276 172.245 113.964 172.755 113.734C173.271 113.505 173.836 113.391 174.45 113.391C175.424 113.391 176.187 113.635 176.739 114.125C177.291 114.609 177.578 115.279 177.599 116.133V120.023C177.599 120.799 177.698 121.417 177.896 121.875V122H176.38ZM173.982 120.898C174.435 120.898 174.864 120.781 175.271 120.547C175.677 120.312 175.971 120.008 176.153 119.633V117.898H175.021C173.25 117.898 172.364 118.417 172.364 119.453C172.364 119.906 172.515 120.26 172.818 120.516C173.12 120.771 173.508 120.898 173.982 120.898ZM186.226 119.758C186.226 119.367 186.078 119.065 185.781 118.852C185.489 118.633 184.976 118.445 184.242 118.289C183.513 118.133 182.932 117.945 182.5 117.727C182.073 117.508 181.755 117.247 181.547 116.945C181.343 116.643 181.242 116.284 181.242 115.867C181.242 115.174 181.534 114.589 182.117 114.109C182.705 113.63 183.455 113.391 184.367 113.391C185.325 113.391 186.101 113.638 186.695 114.133C187.294 114.628 187.593 115.26 187.593 116.031H186.14C186.14 115.635 185.971 115.294 185.633 115.008C185.299 114.721 184.877 114.578 184.367 114.578C183.841 114.578 183.429 114.693 183.133 114.922C182.836 115.151 182.687 115.451 182.687 115.82C182.687 116.169 182.825 116.432 183.101 116.609C183.377 116.786 183.875 116.956 184.593 117.117C185.317 117.279 185.903 117.471 186.351 117.695C186.799 117.919 187.13 118.19 187.343 118.508C187.562 118.82 187.672 119.203 187.672 119.656C187.672 120.411 187.369 121.018 186.765 121.477C186.161 121.93 185.377 122.156 184.414 122.156C183.737 122.156 183.138 122.036 182.617 121.797C182.096 121.557 181.687 121.224 181.39 120.797C181.099 120.365 180.953 119.898 180.953 119.398H182.398C182.424 119.883 182.617 120.268 182.976 120.555C183.341 120.836 183.82 120.977 184.414 120.977C184.961 120.977 185.398 120.867 185.726 120.648C186.06 120.424 186.226 120.128 186.226 119.758ZM195.916 119.758C195.916 119.367 195.768 119.065 195.471 118.852C195.179 118.633 194.666 118.445 193.932 118.289C193.203 118.133 192.622 117.945 192.19 117.727C191.763 117.508 191.445 117.247 191.237 116.945C191.033 116.643 190.932 116.284 190.932 115.867C190.932 115.174 191.224 114.589 191.807 114.109C192.395 113.63 193.145 113.391 194.057 113.391C195.015 113.391 195.791 113.638 196.385 114.133C196.984 114.628 197.283 115.26 197.283 116.031H195.83C195.83 115.635 195.661 115.294 195.323 115.008C194.989 114.721 194.567 114.578 194.057 114.578C193.531 114.578 193.119 114.693 192.823 114.922C192.526 115.151 192.377 115.451 192.377 115.82C192.377 116.169 192.515 116.432 192.791 116.609C193.067 116.786 193.565 116.956 194.283 117.117C195.007 117.279 195.593 117.471 196.041 117.695C196.489 117.919 196.82 118.19 197.033 118.508C197.252 118.82 197.362 119.203 197.362 119.656C197.362 120.411 197.059 121.018 196.455 121.477C195.851 121.93 195.067 122.156 194.104 122.156C193.427 122.156 192.828 122.036 192.307 121.797C191.786 121.557 191.377 121.224 191.08 120.797C190.789 120.365 190.643 119.898 190.643 119.398H192.088C192.114 119.883 192.307 120.268 192.666 120.555C193.031 120.836 193.51 120.977 194.104 120.977C194.651 120.977 195.088 120.867 195.416 120.648C195.75 120.424 195.916 120.128 195.916 119.758ZM202.255 122H200.809V113.547H202.255V122ZM200.692 111.305C200.692 111.07 200.763 110.872 200.903 110.711C201.049 110.549 201.263 110.469 201.544 110.469C201.825 110.469 202.039 110.549 202.184 110.711C202.33 110.872 202.403 111.07 202.403 111.305C202.403 111.539 202.33 111.734 202.184 111.891C202.039 112.047 201.825 112.125 201.544 112.125C201.263 112.125 201.049 112.047 200.903 111.891C200.763 111.734 200.692 111.539 200.692 111.305ZM205.632 117.695C205.632 116.867 205.794 116.122 206.117 115.461C206.445 114.799 206.898 114.289 207.476 113.93C208.059 113.57 208.723 113.391 209.468 113.391C210.619 113.391 211.549 113.789 212.257 114.586C212.971 115.383 213.327 116.443 213.327 117.766V117.867C213.327 118.69 213.169 119.43 212.851 120.086C212.538 120.737 212.088 121.245 211.499 121.609C210.916 121.974 210.244 122.156 209.484 122.156C208.338 122.156 207.408 121.758 206.695 120.961C205.986 120.164 205.632 119.109 205.632 117.797V117.695ZM207.085 117.867C207.085 118.805 207.301 119.557 207.734 120.125C208.171 120.693 208.755 120.977 209.484 120.977C210.218 120.977 210.801 120.69 211.234 120.117C211.666 119.539 211.882 118.732 211.882 117.695C211.882 116.768 211.661 116.018 211.218 115.445C210.781 114.867 210.197 114.578 209.468 114.578C208.755 114.578 208.179 114.862 207.742 115.43C207.304 115.997 207.085 116.81 207.085 117.867ZM217.947 113.547L217.994 114.609C218.64 113.797 219.484 113.391 220.525 113.391C222.312 113.391 223.213 114.398 223.228 116.414V122H221.783V116.406C221.778 115.797 221.637 115.346 221.361 115.055C221.09 114.763 220.666 114.617 220.088 114.617C219.619 114.617 219.208 114.742 218.853 114.992C218.499 115.242 218.223 115.57 218.025 115.977V122H216.58V113.547H217.947ZM232.067 122C231.984 121.833 231.916 121.536 231.864 121.109C231.192 121.807 230.39 122.156 229.457 122.156C228.624 122.156 227.939 121.922 227.403 121.453C226.872 120.979 226.606 120.38 226.606 119.656C226.606 118.776 226.939 118.094 227.606 117.609C228.278 117.12 229.221 116.875 230.434 116.875H231.84V116.211C231.84 115.706 231.689 115.305 231.387 115.008C231.085 114.706 230.64 114.555 230.051 114.555C229.536 114.555 229.103 114.685 228.754 114.945C228.405 115.206 228.231 115.521 228.231 115.891H226.778C226.778 115.469 226.926 115.062 227.223 114.672C227.525 114.276 227.931 113.964 228.442 113.734C228.957 113.505 229.523 113.391 230.137 113.391C231.111 113.391 231.874 113.635 232.426 114.125C232.978 114.609 233.265 115.279 233.286 116.133V120.023C233.286 120.799 233.385 121.417 233.582 121.875V122H232.067ZM229.668 120.898C230.122 120.898 230.551 120.781 230.957 120.547C231.364 120.312 231.658 120.008 231.84 119.633V117.898H230.707C228.937 117.898 228.051 118.417 228.051 119.453C228.051 119.906 228.202 120.26 228.504 120.516C228.806 120.771 229.194 120.898 229.668 120.898ZM238.952 111.5V113.547H240.53V114.664H238.952V119.906C238.952 120.245 239.022 120.5 239.163 120.672C239.304 120.839 239.543 120.922 239.882 120.922C240.049 120.922 240.278 120.891 240.569 120.828V122C240.189 122.104 239.819 122.156 239.46 122.156C238.814 122.156 238.327 121.961 237.999 121.57C237.671 121.18 237.507 120.625 237.507 119.906V114.664H235.968V113.547H237.507V111.5H238.952ZM247.173 122.156C246.028 122.156 245.095 121.781 244.377 121.031C243.658 120.276 243.298 119.268 243.298 118.008V117.742C243.298 116.904 243.457 116.156 243.775 115.5C244.098 114.839 244.546 114.323 245.119 113.953C245.697 113.578 246.322 113.391 246.994 113.391C248.093 113.391 248.947 113.753 249.556 114.477C250.166 115.201 250.47 116.237 250.47 117.586V118.188H244.744C244.765 119.021 245.007 119.695 245.47 120.211C245.939 120.721 246.533 120.977 247.252 120.977C247.762 120.977 248.194 120.872 248.548 120.664C248.903 120.456 249.212 120.18 249.478 119.836L250.361 120.523C249.653 121.612 248.59 122.156 247.173 122.156ZM246.994 114.578C246.41 114.578 245.921 114.792 245.525 115.219C245.129 115.641 244.884 116.234 244.791 117H249.025V116.891C248.983 116.156 248.785 115.589 248.431 115.188C248.077 114.781 247.598 114.578 246.994 114.578ZM58.2681 149C58.1848 148.833 58.1171 148.536 58.065 148.109C57.3931 148.807 56.591 149.156 55.6588 149.156C54.8254 149.156 54.1405 148.922 53.6041 148.453C53.0728 147.979 52.8072 147.38 52.8072 146.656C52.8072 145.776 53.1405 145.094 53.8072 144.609C54.4791 144.12 55.4218 143.875 56.6353 143.875H58.0416V143.211C58.0416 142.706 57.8905 142.305 57.5884 142.008C57.2864 141.706 56.841 141.555 56.2525 141.555C55.7369 141.555 55.3046 141.685 54.9556 141.945C54.6067 142.206 54.4322 142.521 54.4322 142.891H52.9791C52.9791 142.469 53.1275 142.062 53.4244 141.672C53.7265 141.276 54.1327 140.964 54.6431 140.734C55.1588 140.505 55.7239 140.391 56.3384 140.391C57.3124 140.391 58.0754 140.635 58.6275 141.125C59.1796 141.609 59.466 142.279 59.4869 143.133V147.023C59.4869 147.799 59.5858 148.417 59.7838 148.875V149H58.2681ZM55.8697 147.898C56.3228 147.898 56.7525 147.781 57.1588 147.547C57.565 147.312 57.8593 147.008 58.0416 146.633V144.898H56.9088C55.1379 144.898 54.2525 145.417 54.2525 146.453C54.2525 146.906 54.4035 147.26 54.7056 147.516C55.0077 147.771 55.3957 147.898 55.8697 147.898ZM68.1144 146.758C68.1144 146.367 67.9659 146.065 67.6691 145.852C67.3774 145.633 66.8644 145.445 66.13 145.289C65.4008 145.133 64.8201 144.945 64.3878 144.727C63.9607 144.508 63.643 144.247 63.4347 143.945C63.2316 143.643 63.13 143.284 63.13 142.867C63.13 142.174 63.4217 141.589 64.005 141.109C64.5935 140.63 65.3435 140.391 66.255 140.391C67.2133 140.391 67.9894 140.638 68.5831 141.133C69.1821 141.628 69.4816 142.26 69.4816 143.031H68.0284C68.0284 142.635 67.8592 142.294 67.5206 142.008C67.1873 141.721 66.7654 141.578 66.255 141.578C65.729 141.578 65.3175 141.693 65.0206 141.922C64.7238 142.151 64.5753 142.451 64.5753 142.82C64.5753 143.169 64.7133 143.432 64.9894 143.609C65.2654 143.786 65.7628 143.956 66.4816 144.117C67.2055 144.279 67.7915 144.471 68.2394 144.695C68.6873 144.919 69.018 145.19 69.2316 145.508C69.4503 145.82 69.5597 146.203 69.5597 146.656C69.5597 147.411 69.2576 148.018 68.6534 148.477C68.0493 148.93 67.2654 149.156 66.3019 149.156C65.6248 149.156 65.0258 149.036 64.505 148.797C63.9842 148.557 63.5753 148.224 63.2784 147.797C62.9868 147.365 62.8409 146.898 62.8409 146.398H64.2863C64.3123 146.883 64.505 147.268 64.8644 147.555C65.229 147.836 65.7081 147.977 66.3019 147.977C66.8488 147.977 67.2863 147.867 67.6144 147.648C67.9477 147.424 68.1144 147.128 68.1144 146.758ZM77.8044 146.758C77.8044 146.367 77.6559 146.065 77.3591 145.852C77.0674 145.633 76.5544 145.445 75.82 145.289C75.0908 145.133 74.5101 144.945 74.0778 144.727C73.6507 144.508 73.333 144.247 73.1247 143.945C72.9216 143.643 72.82 143.284 72.82 142.867C72.82 142.174 73.1117 141.589 73.695 141.109C74.2835 140.63 75.0335 140.391 75.945 140.391C76.9033 140.391 77.6794 140.638 78.2731 141.133C78.8721 141.628 79.1716 142.26 79.1716 143.031H77.7184C77.7184 142.635 77.5492 142.294 77.2106 142.008C76.8773 141.721 76.4554 141.578 75.945 141.578C75.419 141.578 75.0075 141.693 74.7106 141.922C74.4138 142.151 74.2653 142.451 74.2653 142.82C74.2653 143.169 74.4033 143.432 74.6794 143.609C74.9554 143.786 75.4528 143.956 76.1716 144.117C76.8955 144.279 77.4815 144.471 77.9294 144.695C78.3773 144.919 78.708 145.19 78.9216 145.508C79.1403 145.82 79.2497 146.203 79.2497 146.656C79.2497 147.411 78.9476 148.018 78.3434 148.477C77.7393 148.93 76.9554 149.156 75.9919 149.156C75.3148 149.156 74.7158 149.036 74.195 148.797C73.6742 148.557 73.2653 148.224 72.9684 147.797C72.6768 147.365 72.5309 146.898 72.5309 146.398H73.9763C74.0023 146.883 74.195 147.268 74.5544 147.555C74.919 147.836 75.3981 147.977 75.9919 147.977C76.5388 147.977 76.9763 147.867 77.3044 147.648C77.6377 147.424 77.8044 147.128 77.8044 146.758ZM86.0803 149.156C84.9345 149.156 84.0022 148.781 83.2834 148.031C82.5647 147.276 82.2053 146.268 82.2053 145.008V144.742C82.2053 143.904 82.3642 143.156 82.6819 142.5C83.0048 141.839 83.4527 141.323 84.0256 140.953C84.6038 140.578 85.2288 140.391 85.9006 140.391C86.9996 140.391 87.8538 140.753 88.4631 141.477C89.0725 142.201 89.3772 143.237 89.3772 144.586V145.188H83.6506C83.6715 146.021 83.9136 146.695 84.3772 147.211C84.8459 147.721 85.4397 147.977 86.1584 147.977C86.6689 147.977 87.1011 147.872 87.4553 147.664C87.8095 147.456 88.1194 147.18 88.385 146.836L89.2678 147.523C88.5595 148.612 87.497 149.156 86.0803 149.156ZM85.9006 141.578C85.3173 141.578 84.8277 141.792 84.4319 142.219C84.036 142.641 83.7913 143.234 83.6975 144H87.9319V143.891C87.8902 143.156 87.6923 142.589 87.3381 142.188C86.984 141.781 86.5048 141.578 85.9006 141.578ZM96.5828 141.844C96.3641 141.807 96.1271 141.789 95.8719 141.789C94.924 141.789 94.2807 142.193 93.9422 143V149H92.4969V140.547H93.9031L93.9266 141.523C94.4005 140.768 95.0724 140.391 95.9422 140.391C96.2234 140.391 96.437 140.427 96.5828 140.5V141.844ZM101.71 138.5V140.547H103.288V141.664H101.71V146.906C101.71 147.245 101.781 147.5 101.921 147.672C102.062 147.839 102.301 147.922 102.64 147.922C102.807 147.922 103.036 147.891 103.327 147.828V149C102.947 149.104 102.577 149.156 102.218 149.156C101.572 149.156 101.085 148.961 100.757 148.57C100.429 148.18 100.265 147.625 100.265 146.906V141.664H98.7259V140.547H100.265V138.5H101.71ZM107.994 149H106.549V140.547H107.994V149ZM106.432 138.305C106.432 138.07 106.502 137.872 106.643 137.711C106.788 137.549 107.002 137.469 107.283 137.469C107.564 137.469 107.778 137.549 107.924 137.711C108.07 137.872 108.143 138.07 108.143 138.305C108.143 138.539 108.07 138.734 107.924 138.891C107.778 139.047 107.564 139.125 107.283 139.125C107.002 139.125 106.788 139.047 106.643 138.891C106.502 138.734 106.432 138.539 106.432 138.305ZM114.543 147.039L116.637 140.547H118.114L115.083 149H113.981L110.918 140.547H112.395L114.543 147.039ZM124.343 149.156C123.197 149.156 122.265 148.781 121.546 148.031C120.827 147.276 120.468 146.268 120.468 145.008V144.742C120.468 143.904 120.627 143.156 120.944 142.5C121.267 141.839 121.715 141.323 122.288 140.953C122.866 140.578 123.491 140.391 124.163 140.391C125.262 140.391 126.116 140.753 126.726 141.477C127.335 142.201 127.64 143.237 127.64 144.586V145.188H121.913C121.934 146.021 122.176 146.695 122.64 147.211C123.108 147.721 123.702 147.977 124.421 147.977C124.931 147.977 125.364 147.872 125.718 147.664C126.072 147.456 126.382 147.18 126.648 146.836L127.53 147.523C126.822 148.612 125.759 149.156 124.343 149.156ZM124.163 141.578C123.58 141.578 123.09 141.792 122.694 142.219C122.299 142.641 122.054 143.234 121.96 144H126.194V143.891C126.153 143.156 125.955 142.589 125.601 142.188C125.246 141.781 124.767 141.578 124.163 141.578ZM143.324 144.867C143.324 146.159 143.028 147.198 142.434 147.984C141.84 148.766 141.043 149.156 140.043 149.156C138.975 149.156 138.15 148.779 137.567 148.023L137.496 149H136.168V137H137.613V141.477C138.197 140.753 139.001 140.391 140.028 140.391C141.054 140.391 141.858 140.779 142.442 141.555C143.03 142.331 143.324 143.393 143.324 144.742V144.867ZM141.879 144.703C141.879 143.719 141.689 142.958 141.309 142.422C140.929 141.885 140.382 141.617 139.668 141.617C138.715 141.617 138.03 142.06 137.613 142.945V146.602C138.056 147.487 138.746 147.93 139.684 147.93C140.376 147.93 140.916 147.661 141.301 147.125C141.686 146.589 141.879 145.781 141.879 144.703ZM151.811 148.164C151.249 148.826 150.423 149.156 149.335 149.156C148.434 149.156 147.746 148.896 147.272 148.375C146.803 147.849 146.566 147.073 146.561 146.047V140.547H148.007V146.008C148.007 147.289 148.527 147.93 149.569 147.93C150.673 147.93 151.408 147.518 151.772 146.695V140.547H153.218V149H151.843L151.811 148.164ZM158.822 138.5V140.547H160.4V141.664H158.822V146.906C158.822 147.245 158.892 147.5 159.033 147.672C159.173 147.839 159.413 147.922 159.751 147.922C159.918 147.922 160.147 147.891 160.439 147.828V149C160.059 149.104 159.689 149.156 159.329 149.156C158.684 149.156 158.197 148.961 157.868 148.57C157.54 148.18 157.376 147.625 157.376 146.906V141.664H155.837V140.547H157.376V138.5H158.822ZM173.866 146.758C173.866 146.367 173.717 146.065 173.42 145.852C173.129 145.633 172.616 145.445 171.881 145.289C171.152 145.133 170.571 144.945 170.139 144.727C169.712 144.508 169.394 144.247 169.186 143.945C168.983 143.643 168.881 143.284 168.881 142.867C168.881 142.174 169.173 141.589 169.756 141.109C170.345 140.63 171.095 140.391 172.006 140.391C172.965 140.391 173.741 140.638 174.334 141.133C174.933 141.628 175.233 142.26 175.233 143.031H173.78C173.78 142.635 173.61 142.294 173.272 142.008C172.939 141.721 172.517 141.578 172.006 141.578C171.48 141.578 171.069 141.693 170.772 141.922C170.475 142.151 170.327 142.451 170.327 142.82C170.327 143.169 170.465 143.432 170.741 143.609C171.017 143.786 171.514 143.956 172.233 144.117C172.957 144.279 173.543 144.471 173.991 144.695C174.439 144.919 174.769 145.19 174.983 145.508C175.202 145.82 175.311 146.203 175.311 146.656C175.311 147.411 175.009 148.018 174.405 148.477C173.801 148.93 173.017 149.156 172.053 149.156C171.376 149.156 170.777 149.036 170.256 148.797C169.735 148.557 169.327 148.224 169.03 147.797C168.738 147.365 168.592 146.898 168.592 146.398H170.038C170.064 146.883 170.256 147.268 170.616 147.555C170.98 147.836 171.459 147.977 172.053 147.977C172.6 147.977 173.038 147.867 173.366 147.648C173.699 147.424 173.866 147.128 173.866 146.758ZM183.853 148.164C183.29 148.826 182.464 149.156 181.376 149.156C180.475 149.156 179.787 148.896 179.313 148.375C178.845 147.849 178.608 147.073 178.603 146.047V140.547H180.048V146.008C180.048 147.289 180.569 147.93 181.61 147.93C182.714 147.93 183.449 147.518 183.813 146.695V140.547H185.259V149H183.884L183.853 148.164ZM196.043 144.867C196.043 146.154 195.748 147.19 195.16 147.977C194.571 148.763 193.774 149.156 192.769 149.156C191.743 149.156 190.936 148.831 190.347 148.18V152.25H188.902V140.547H190.222L190.293 141.484C190.881 140.755 191.699 140.391 192.746 140.391C193.761 140.391 194.563 140.773 195.152 141.539C195.746 142.305 196.043 143.37 196.043 144.734V144.867ZM194.597 144.703C194.597 143.75 194.394 142.997 193.988 142.445C193.582 141.893 193.024 141.617 192.316 141.617C191.441 141.617 190.785 142.005 190.347 142.781V146.82C190.779 147.591 191.441 147.977 192.332 147.977C193.024 147.977 193.574 147.703 193.98 147.156C194.391 146.604 194.597 145.786 194.597 144.703ZM206.467 144.867C206.467 146.154 206.173 147.19 205.584 147.977C204.996 148.763 204.199 149.156 203.193 149.156C202.167 149.156 201.36 148.831 200.772 148.18V152.25H199.326V140.547H200.647L200.717 141.484C201.305 140.755 202.123 140.391 203.17 140.391C204.186 140.391 204.988 140.773 205.576 141.539C206.17 142.305 206.467 143.37 206.467 144.734V144.867ZM205.022 144.703C205.022 143.75 204.818 142.997 204.412 142.445C204.006 141.893 203.449 141.617 202.74 141.617C201.865 141.617 201.209 142.005 200.772 142.781V146.82C201.204 147.591 201.865 147.977 202.756 147.977C203.449 147.977 203.998 147.703 204.404 147.156C204.816 146.604 205.022 145.786 205.022 144.703ZM209.368 144.695C209.368 143.867 209.529 143.122 209.852 142.461C210.18 141.799 210.633 141.289 211.212 140.93C211.795 140.57 212.459 140.391 213.204 140.391C214.355 140.391 215.284 140.789 215.993 141.586C216.706 142.383 217.063 143.443 217.063 144.766V144.867C217.063 145.69 216.904 146.43 216.587 147.086C216.274 147.737 215.824 148.245 215.235 148.609C214.652 148.974 213.98 149.156 213.219 149.156C212.074 149.156 211.144 148.758 210.43 147.961C209.722 147.164 209.368 146.109 209.368 144.797V144.695ZM210.821 144.867C210.821 145.805 211.037 146.557 211.469 147.125C211.907 147.693 212.49 147.977 213.219 147.977C213.954 147.977 214.537 147.69 214.969 147.117C215.402 146.539 215.618 145.732 215.618 144.695C215.618 143.768 215.396 143.018 214.954 142.445C214.516 141.867 213.933 141.578 213.204 141.578C212.49 141.578 211.915 141.862 211.477 142.43C211.04 142.997 210.821 143.81 210.821 144.867ZM224.402 141.844C224.183 141.807 223.946 141.789 223.691 141.789C222.743 141.789 222.099 142.193 221.761 143V149H220.316V140.547H221.722L221.745 141.523C222.219 140.768 222.891 140.391 223.761 140.391C224.042 140.391 224.256 140.427 224.402 140.5V141.844ZM229.529 138.5V140.547H231.107V141.664H229.529V146.906C229.529 147.245 229.599 147.5 229.74 147.672C229.881 147.839 230.12 147.922 230.459 147.922C230.625 147.922 230.855 147.891 231.146 147.828V149C230.766 149.104 230.396 149.156 230.037 149.156C229.391 149.156 228.904 148.961 228.576 148.57C228.248 148.18 228.084 147.625 228.084 146.906V141.664H226.545V140.547H228.084V138.5H229.529ZM235.813 149H234.368V140.547H235.813V149ZM234.25 138.305C234.25 138.07 234.321 137.872 234.461 137.711C234.607 137.549 234.821 137.469 235.102 137.469C235.383 137.469 235.597 137.549 235.743 137.711C235.888 137.872 235.961 138.07 235.961 138.305C235.961 138.539 235.888 138.734 235.743 138.891C235.597 139.047 235.383 139.125 235.102 139.125C234.821 139.125 234.607 139.047 234.461 138.891C234.321 138.734 234.25 138.539 234.25 138.305ZM242.362 147.039L244.456 140.547H245.933L242.901 149H241.8L238.737 140.547H240.214L242.362 147.039ZM252.162 149.156C251.016 149.156 250.083 148.781 249.365 148.031C248.646 147.276 248.287 146.268 248.287 145.008V144.742C248.287 143.904 248.445 143.156 248.763 142.5C249.086 141.839 249.534 141.323 250.107 140.953C250.685 140.578 251.31 140.391 251.982 140.391C253.081 140.391 253.935 140.753 254.544 141.477C255.154 142.201 255.458 143.237 255.458 144.586V145.188H249.732C249.753 146.021 249.995 146.695 250.458 147.211C250.927 147.721 251.521 147.977 252.24 147.977C252.75 147.977 253.182 147.872 253.537 147.664C253.891 147.456 254.201 147.18 254.466 146.836L255.349 147.523C254.641 148.612 253.578 149.156 252.162 149.156ZM251.982 141.578C251.399 141.578 250.909 141.792 250.513 142.219C250.117 142.641 249.872 143.234 249.779 144H254.013V143.891C253.971 143.156 253.774 142.589 253.419 142.188C253.065 141.781 252.586 141.578 251.982 141.578Z" fill="white"/>
<path d="M50.3594 177.492V179.547H51.8516V180.953H50.3594V185.672C50.3594 185.995 50.4219 186.229 50.5469 186.375C50.6771 186.516 50.9062 186.586 51.2344 186.586C51.4531 186.586 51.6745 186.56 51.8984 186.508V187.977C51.4661 188.096 51.0495 188.156 50.6484 188.156C49.1901 188.156 48.4609 187.352 48.4609 185.742V180.953H47.0703V179.547H48.4609V177.492H50.3594ZM56.6197 180.469C57.2395 179.75 58.0233 179.391 58.9713 179.391C60.7733 179.391 61.6874 180.419 61.7134 182.477V188H59.815V182.547C59.815 181.964 59.6874 181.552 59.4322 181.312C59.1822 181.068 58.8124 180.945 58.3228 180.945C57.5624 180.945 56.9947 181.284 56.6197 181.961V188H54.7213V176H56.6197V180.469ZM70.13 188C70.0467 187.839 69.9738 187.576 69.9113 187.211C69.3071 187.841 68.5675 188.156 67.6925 188.156C66.8435 188.156 66.1508 187.914 65.6144 187.43C65.0779 186.945 64.8097 186.346 64.8097 185.633C64.8097 184.732 65.143 184.042 65.8097 183.562C66.4816 183.078 67.4399 182.836 68.6847 182.836H69.8488V182.281C69.8488 181.844 69.7264 181.495 69.4816 181.234C69.2368 180.969 68.8644 180.836 68.3644 180.836C67.9321 180.836 67.5779 180.945 67.3019 181.164C67.0258 181.378 66.8878 181.651 66.8878 181.984H64.9894C64.9894 181.521 65.143 181.089 65.4503 180.688C65.7576 180.281 66.1743 179.964 66.7003 179.734C67.2316 179.505 67.8227 179.391 68.4738 179.391C69.4633 179.391 70.2524 179.641 70.8409 180.141C71.4295 180.635 71.7316 181.333 71.7472 182.234V186.047C71.7472 186.807 71.854 187.414 72.0675 187.867V188H70.13ZM68.0441 186.633C68.4191 186.633 68.7706 186.542 69.0988 186.359C69.4321 186.177 69.6821 185.932 69.8488 185.625V184.031H68.8253C68.1222 184.031 67.5935 184.154 67.2394 184.398C66.8852 184.643 66.7081 184.99 66.7081 185.438C66.7081 185.802 66.8279 186.094 67.0675 186.312C67.3123 186.526 67.6378 186.633 68.0441 186.633ZM77.5544 177.492V179.547H79.0466V180.953H77.5544V185.672C77.5544 185.995 77.6169 186.229 77.7419 186.375C77.8721 186.516 78.1012 186.586 78.4294 186.586C78.6481 186.586 78.8695 186.56 79.0934 186.508V187.977C78.6611 188.096 78.2445 188.156 77.8434 188.156C76.3851 188.156 75.6559 187.352 75.6559 185.742V180.953H74.2653V179.547H75.6559V177.492H77.5544ZM89.3875 188H87.4891V179.547H89.3875V188ZM87.3719 177.352C87.3719 177.06 87.463 176.818 87.6453 176.625C87.8328 176.432 88.0984 176.336 88.4422 176.336C88.7859 176.336 89.0516 176.432 89.2391 176.625C89.4266 176.818 89.5203 177.06 89.5203 177.352C89.5203 177.638 89.4266 177.878 89.2391 178.07C89.0516 178.258 88.7859 178.352 88.4422 178.352C88.0984 178.352 87.8328 178.258 87.6453 178.07C87.463 177.878 87.3719 177.638 87.3719 177.352ZM97.64 185.703C97.64 185.365 97.4994 185.107 97.2181 184.93C96.9421 184.753 96.4811 184.596 95.8353 184.461C95.1895 184.326 94.6504 184.154 94.2181 183.945C93.2702 183.487 92.7962 182.823 92.7962 181.953C92.7962 181.224 93.1035 180.615 93.7181 180.125C94.3327 179.635 95.114 179.391 96.0619 179.391C97.0723 179.391 97.8874 179.641 98.5072 180.141C99.1322 180.641 99.4447 181.289 99.4447 182.086H97.5462C97.5462 181.721 97.4108 181.419 97.14 181.18C96.8692 180.935 96.5098 180.812 96.0619 180.812C95.6452 180.812 95.3041 180.909 95.0384 181.102C94.778 181.294 94.6478 181.552 94.6478 181.875C94.6478 182.167 94.7702 182.393 95.015 182.555C95.2598 182.716 95.7546 182.88 96.4994 183.047C97.2442 183.208 97.8275 183.404 98.2494 183.633C98.6765 183.857 98.9916 184.128 99.1947 184.445C99.403 184.763 99.5072 185.148 99.5072 185.602C99.5072 186.362 99.1921 186.979 98.5619 187.453C97.9317 187.922 97.1061 188.156 96.0853 188.156C95.3926 188.156 94.7754 188.031 94.2337 187.781C93.6921 187.531 93.2702 187.188 92.9681 186.75C92.666 186.312 92.515 185.841 92.515 185.336H94.3587C94.3848 185.784 94.5541 186.13 94.8666 186.375C95.1791 186.615 95.5931 186.734 96.1087 186.734C96.6087 186.734 96.989 186.641 97.2494 186.453C97.5098 186.26 97.64 186.01 97.64 185.703ZM110.411 177.492V179.547H111.903V180.953H110.411V185.672C110.411 185.995 110.473 186.229 110.598 186.375C110.728 186.516 110.958 186.586 111.286 186.586C111.504 186.586 111.726 186.56 111.95 186.508V187.977C111.517 188.096 111.101 188.156 110.7 188.156C109.241 188.156 108.512 187.352 108.512 185.742V180.953H107.122V179.547H108.512V177.492H110.411ZM116.671 180.469C117.291 179.75 118.075 179.391 119.022 179.391C120.825 179.391 121.739 180.419 121.765 182.477V188H119.866V182.547C119.866 181.964 119.739 181.552 119.483 181.312C119.233 181.068 118.864 180.945 118.374 180.945C117.614 180.945 117.046 181.284 116.671 181.961V188H114.772V176H116.671V180.469ZM128.853 188.156C127.65 188.156 126.673 187.779 125.923 187.023C125.179 186.263 124.806 185.253 124.806 183.992V183.758C124.806 182.914 124.968 182.161 125.291 181.5C125.619 180.833 126.077 180.315 126.666 179.945C127.254 179.576 127.91 179.391 128.634 179.391C129.785 179.391 130.673 179.758 131.298 180.492C131.929 181.227 132.244 182.266 132.244 183.609V184.375H126.72C126.778 185.073 127.009 185.625 127.416 186.031C127.827 186.438 128.343 186.641 128.963 186.641C129.832 186.641 130.541 186.289 131.088 185.586L132.111 186.562C131.772 187.068 131.319 187.461 130.752 187.742C130.189 188.018 129.556 188.156 128.853 188.156ZM128.627 180.914C128.106 180.914 127.684 181.096 127.361 181.461C127.043 181.826 126.84 182.333 126.752 182.984H130.369V182.844C130.327 182.208 130.158 181.729 129.861 181.406C129.564 181.078 129.153 180.914 128.627 180.914ZM143.335 184.375L142.491 185.242V188H140.592V176H142.491V182.922L143.085 182.18L145.421 179.547H147.702L144.561 183.07L148.038 188H145.842L143.335 184.375ZM152.408 188H150.509V179.547H152.408V188ZM150.392 177.352C150.392 177.06 150.483 176.818 150.665 176.625C150.853 176.432 151.118 176.336 151.462 176.336C151.806 176.336 152.072 176.432 152.259 176.625C152.447 176.818 152.54 177.06 152.54 177.352C152.54 177.638 152.447 177.878 152.259 178.07C152.072 178.258 151.806 178.352 151.462 178.352C151.118 178.352 150.853 178.258 150.665 178.07C150.483 177.878 150.392 177.638 150.392 177.352ZM157.683 179.547L157.738 180.523C158.363 179.768 159.183 179.391 160.199 179.391C161.959 179.391 162.855 180.398 162.887 182.414V188H160.988V182.523C160.988 181.987 160.871 181.591 160.637 181.336C160.407 181.076 160.03 180.945 159.504 180.945C158.738 180.945 158.168 181.292 157.793 181.984V188H155.894V179.547H157.683ZM165.912 183.711C165.912 182.409 166.215 181.365 166.819 180.578C167.423 179.786 168.233 179.391 169.248 179.391C170.144 179.391 170.868 179.703 171.42 180.328V176H173.319V188H171.6L171.506 187.125C170.939 187.812 170.181 188.156 169.233 188.156C168.243 188.156 167.441 187.758 166.827 186.961C166.217 186.164 165.912 185.081 165.912 183.711ZM167.811 183.875C167.811 184.734 167.975 185.406 168.303 185.891C168.636 186.37 169.108 186.609 169.717 186.609C170.493 186.609 171.061 186.263 171.42 185.57V181.961C171.071 181.284 170.509 180.945 169.733 180.945C169.118 180.945 168.644 181.19 168.311 181.68C167.978 182.164 167.811 182.896 167.811 183.875ZM181.808 183.695C181.808 182.867 181.972 182.122 182.3 181.461C182.628 180.794 183.089 180.284 183.683 179.93C184.277 179.57 184.959 179.391 185.73 179.391C186.871 179.391 187.795 179.758 188.503 180.492C189.217 181.227 189.602 182.201 189.66 183.414L189.667 183.859C189.667 184.693 189.506 185.438 189.183 186.094C188.865 186.75 188.407 187.258 187.808 187.617C187.214 187.977 186.527 188.156 185.746 188.156C184.553 188.156 183.597 187.76 182.878 186.969C182.165 186.172 181.808 185.112 181.808 183.789V183.695ZM183.707 183.859C183.707 184.729 183.886 185.411 184.246 185.906C184.605 186.396 185.105 186.641 185.746 186.641C186.386 186.641 186.884 186.391 187.238 185.891C187.597 185.391 187.777 184.659 187.777 183.695C187.777 182.841 187.592 182.164 187.222 181.664C186.858 181.164 186.36 180.914 185.73 180.914C185.11 180.914 184.618 181.161 184.253 181.656C183.889 182.146 183.707 182.88 183.707 183.859ZM193.381 188V180.953H192.092V179.547H193.381V178.773C193.381 177.836 193.641 177.112 194.162 176.602C194.683 176.091 195.412 175.836 196.35 175.836C196.683 175.836 197.037 175.883 197.412 175.977L197.365 177.461C197.157 177.419 196.915 177.398 196.639 177.398C195.732 177.398 195.279 177.865 195.279 178.797V179.547H196.998V180.953H195.279V188H193.381ZM212.652 183.859C212.652 185.167 212.355 186.211 211.761 186.992C211.167 187.768 210.37 188.156 209.37 188.156C208.443 188.156 207.701 187.852 207.144 187.242V191.25H205.245V179.547H206.995L207.073 180.406C207.631 179.729 208.389 179.391 209.347 179.391C210.378 179.391 211.185 179.776 211.769 180.547C212.357 181.312 212.652 182.378 212.652 183.742V183.859ZM210.761 183.695C210.761 182.852 210.592 182.182 210.253 181.688C209.92 181.193 209.441 180.945 208.816 180.945C208.04 180.945 207.482 181.266 207.144 181.906V185.656C207.488 186.312 208.05 186.641 208.831 186.641C209.435 186.641 209.907 186.398 210.245 185.914C210.589 185.424 210.761 184.685 210.761 183.695ZM219.428 188.156C218.224 188.156 217.248 187.779 216.498 187.023C215.753 186.263 215.381 185.253 215.381 183.992V183.758C215.381 182.914 215.542 182.161 215.865 181.5C216.193 180.833 216.651 180.315 217.24 179.945C217.829 179.576 218.485 179.391 219.209 179.391C220.36 179.391 221.248 179.758 221.873 180.492C222.503 181.227 222.818 182.266 222.818 183.609V184.375H217.295C217.352 185.073 217.584 185.625 217.99 186.031C218.401 186.438 218.917 186.641 219.537 186.641C220.407 186.641 221.115 186.289 221.662 185.586L222.685 186.562C222.347 187.068 221.894 187.461 221.326 187.742C220.763 188.018 220.131 188.156 219.428 188.156ZM219.201 180.914C218.68 180.914 218.258 181.096 217.935 181.461C217.618 181.826 217.414 182.333 217.326 182.984H220.943V182.844C220.901 182.208 220.732 181.729 220.435 181.406C220.138 181.078 219.727 180.914 219.201 180.914ZM230.164 181.281C229.914 181.24 229.657 181.219 229.391 181.219C228.521 181.219 227.935 181.552 227.633 182.219V188H225.735V179.547H227.547L227.594 180.492C228.052 179.758 228.688 179.391 229.5 179.391C229.771 179.391 229.995 179.427 230.172 179.5L230.164 181.281ZM237.542 185.703C237.542 185.365 237.401 185.107 237.12 184.93C236.844 184.753 236.383 184.596 235.737 184.461C235.091 184.326 234.552 184.154 234.12 183.945C233.172 183.487 232.698 182.823 232.698 181.953C232.698 181.224 233.005 180.615 233.62 180.125C234.235 179.635 235.016 179.391 235.964 179.391C236.974 179.391 237.789 179.641 238.409 180.141C239.034 180.641 239.347 181.289 239.347 182.086H237.448C237.448 181.721 237.313 181.419 237.042 181.18C236.771 180.935 236.412 180.812 235.964 180.812C235.547 180.812 235.206 180.909 234.94 181.102C234.68 181.294 234.55 181.552 234.55 181.875C234.55 182.167 234.672 182.393 234.917 182.555C235.162 182.716 235.656 182.88 236.401 183.047C237.146 183.208 237.729 183.404 238.151 183.633C238.578 183.857 238.893 184.128 239.097 184.445C239.305 184.763 239.409 185.148 239.409 185.602C239.409 186.362 239.094 186.979 238.464 187.453C237.834 187.922 237.008 188.156 235.987 188.156C235.294 188.156 234.677 188.031 234.136 187.781C233.594 187.531 233.172 187.188 232.87 186.75C232.568 186.312 232.417 185.841 232.417 185.336H234.261C234.287 185.784 234.456 186.13 234.768 186.375C235.081 186.615 235.495 186.734 236.011 186.734C236.511 186.734 236.891 186.641 237.151 186.453C237.412 186.26 237.542 186.01 237.542 185.703ZM242.154 183.695C242.154 182.867 242.318 182.122 242.646 181.461C242.974 180.794 243.435 180.284 244.029 179.93C244.622 179.57 245.305 179.391 246.076 179.391C247.216 179.391 248.141 179.758 248.849 180.492C249.563 181.227 249.948 182.201 250.005 183.414L250.013 183.859C250.013 184.693 249.852 185.438 249.529 186.094C249.211 186.75 248.753 187.258 248.154 187.617C247.56 187.977 246.872 188.156 246.091 188.156C244.899 188.156 243.943 187.76 243.224 186.969C242.511 186.172 242.154 185.112 242.154 183.789V183.695ZM244.052 183.859C244.052 184.729 244.232 185.411 244.591 185.906C244.951 186.396 245.451 186.641 246.091 186.641C246.732 186.641 247.229 186.391 247.583 185.891C247.943 185.391 248.122 184.659 248.122 183.695C248.122 182.841 247.938 182.164 247.568 181.664C247.203 181.164 246.706 180.914 246.076 180.914C245.456 180.914 244.964 181.161 244.599 181.656C244.234 182.146 244.052 182.88 244.052 183.859ZM254.82 179.547L254.875 180.523C255.5 179.768 256.32 179.391 257.336 179.391C259.096 179.391 259.992 180.398 260.023 182.414V188H258.125V182.523C258.125 181.987 258.008 181.591 257.773 181.336C257.544 181.076 257.167 180.945 256.641 180.945C255.875 180.945 255.305 181.292 254.93 181.984V188H253.031V179.547H254.82ZM49.1394 215C49.056 214.839 48.9831 214.576 48.9206 214.211C48.3165 214.841 47.5769 215.156 46.7019 215.156C45.8529 215.156 45.1602 214.914 44.6237 214.43C44.0873 213.945 43.8191 213.346 43.8191 212.633C43.8191 211.732 44.1524 211.042 44.8191 210.562C45.4909 210.078 46.4493 209.836 47.6941 209.836H48.8581V209.281C48.8581 208.844 48.7357 208.495 48.4909 208.234C48.2461 207.969 47.8737 207.836 47.3737 207.836C46.9415 207.836 46.5873 207.945 46.3112 208.164C46.0352 208.378 45.8972 208.651 45.8972 208.984H43.9987C43.9987 208.521 44.1524 208.089 44.4597 207.688C44.767 207.281 45.1836 206.964 45.7097 206.734C46.2409 206.505 46.8321 206.391 47.4831 206.391C48.4727 206.391 49.2618 206.641 49.8503 207.141C50.4389 207.635 50.7409 208.333 50.7566 209.234V213.047C50.7566 213.807 50.8633 214.414 51.0769 214.867V215H49.1394ZM47.0534 213.633C47.4284 213.633 47.78 213.542 48.1081 213.359C48.4415 213.177 48.6915 212.932 48.8581 212.625V211.031H47.8347C47.1316 211.031 46.6029 211.154 46.2487 211.398C45.8946 211.643 45.7175 211.99 45.7175 212.438C45.7175 212.802 45.8373 213.094 46.0769 213.312C46.3217 213.526 46.6472 213.633 47.0534 213.633ZM55.9466 206.547L56.0012 207.523C56.6262 206.768 57.4466 206.391 58.4622 206.391C60.2226 206.391 61.1184 207.398 61.1497 209.414V215H59.2512V209.523C59.2512 208.987 59.1341 208.591 58.8997 208.336C58.6705 208.076 58.2929 207.945 57.7669 207.945C57.0012 207.945 56.4309 208.292 56.0559 208.984V215H54.1575V206.547H55.9466ZM64.1756 210.711C64.1756 209.409 64.4777 208.365 65.0819 207.578C65.686 206.786 66.4959 206.391 67.5116 206.391C68.4074 206.391 69.1314 206.703 69.6834 207.328V203H71.5819V215H69.8631L69.7694 214.125C69.2017 214.812 68.4439 215.156 67.4959 215.156C66.5064 215.156 65.7043 214.758 65.0897 213.961C64.4803 213.164 64.1756 212.081 64.1756 210.711ZM66.0741 210.875C66.0741 211.734 66.2381 212.406 66.5662 212.891C66.8996 213.37 67.3709 213.609 67.9803 213.609C68.7564 213.609 69.3241 213.263 69.6834 212.57V208.961C69.3345 208.284 68.772 207.945 67.9959 207.945C67.3814 207.945 66.9074 208.19 66.5741 208.68C66.2407 209.164 66.0741 209.896 66.0741 210.875ZM80.0713 210.711C80.0713 209.409 80.3733 208.365 80.9775 207.578C81.5817 206.786 82.3916 206.391 83.4072 206.391C84.303 206.391 85.027 206.703 85.5791 207.328V203H87.4775V215H85.7588L85.665 214.125C85.0973 214.812 84.3395 215.156 83.3916 215.156C82.402 215.156 81.5999 214.758 80.9853 213.961C80.3759 213.164 80.0713 212.081 80.0713 210.711ZM81.9697 210.875C81.9697 211.734 82.1338 212.406 82.4619 212.891C82.7952 213.37 83.2666 213.609 83.8759 213.609C84.652 213.609 85.2197 213.263 85.5791 212.57V208.961C85.2301 208.284 84.6676 207.945 83.8916 207.945C83.277 207.945 82.803 208.19 82.4697 208.68C82.1364 209.164 81.9697 209.896 81.9697 210.875ZM94.6206 215.156C93.4175 215.156 92.4409 214.779 91.6909 214.023C90.9461 213.263 90.5737 212.253 90.5737 210.992V210.758C90.5737 209.914 90.7352 209.161 91.0581 208.5C91.3862 207.833 91.8446 207.315 92.4331 206.945C93.0217 206.576 93.6779 206.391 94.4019 206.391C95.5529 206.391 96.4409 206.758 97.0659 207.492C97.6961 208.227 98.0112 209.266 98.0112 210.609V211.375H92.4878C92.5451 212.073 92.7769 212.625 93.1831 213.031C93.5946 213.438 94.1102 213.641 94.73 213.641C95.5998 213.641 96.3081 213.289 96.855 212.586L97.8784 213.562C97.5399 214.068 97.0868 214.461 96.5191 214.742C95.9566 215.018 95.3237 215.156 94.6206 215.156ZM94.3941 207.914C93.8732 207.914 93.4514 208.096 93.1284 208.461C92.8107 208.826 92.6076 209.333 92.5191 209.984H96.1362V209.844C96.0946 209.208 95.9253 208.729 95.6284 208.406C95.3316 208.078 94.9201 207.914 94.3941 207.914ZM105.67 212.703C105.67 212.365 105.529 212.107 105.248 211.93C104.972 211.753 104.511 211.596 103.865 211.461C103.219 211.326 102.68 211.154 102.248 210.945C101.3 210.487 100.826 209.823 100.826 208.953C100.826 208.224 101.134 207.615 101.748 207.125C102.363 206.635 103.144 206.391 104.092 206.391C105.102 206.391 105.917 206.641 106.537 207.141C107.162 207.641 107.475 208.289 107.475 209.086H105.576C105.576 208.721 105.441 208.419 105.17 208.18C104.899 207.935 104.54 207.812 104.092 207.812C103.675 207.812 103.334 207.909 103.068 208.102C102.808 208.294 102.678 208.552 102.678 208.875C102.678 209.167 102.8 209.393 103.045 209.555C103.29 209.716 103.785 209.88 104.529 210.047C105.274 210.208 105.857 210.404 106.279 210.633C106.706 210.857 107.022 211.128 107.225 211.445C107.433 211.763 107.537 212.148 107.537 212.602C107.537 213.362 107.222 213.979 106.592 214.453C105.962 214.922 105.136 215.156 104.115 215.156C103.423 215.156 102.805 215.031 102.264 214.781C101.722 214.531 101.3 214.188 100.998 213.75C100.696 213.312 100.545 212.841 100.545 212.336H102.389C102.415 212.784 102.584 213.13 102.897 213.375C103.209 213.615 103.623 213.734 104.139 213.734C104.639 213.734 105.019 213.641 105.279 213.453C105.54 213.26 105.67 213.01 105.67 212.703ZM112.657 215H110.758V206.547H112.657V215ZM110.641 204.352C110.641 204.06 110.732 203.818 110.915 203.625C111.102 203.432 111.368 203.336 111.712 203.336C112.055 203.336 112.321 203.432 112.508 203.625C112.696 203.818 112.79 204.06 112.79 204.352C112.79 204.638 112.696 204.878 112.508 205.07C112.321 205.258 112.055 205.352 111.712 205.352C111.368 205.352 111.102 205.258 110.915 205.07C110.732 204.878 110.641 204.638 110.641 204.352ZM115.839 210.711C115.839 209.398 116.146 208.352 116.761 207.57C117.381 206.784 118.201 206.391 119.222 206.391C120.185 206.391 120.943 206.727 121.495 207.398L121.581 206.547H123.292V214.742C123.292 215.852 122.946 216.727 122.253 217.367C121.566 218.008 120.636 218.328 119.464 218.328C118.844 218.328 118.238 218.198 117.644 217.938C117.055 217.682 116.607 217.346 116.3 216.93L117.198 215.789C117.782 216.482 118.501 216.828 119.355 216.828C119.985 216.828 120.482 216.656 120.847 216.312C121.211 215.974 121.394 215.474 121.394 214.812V214.242C120.847 214.852 120.118 215.156 119.206 215.156C118.217 215.156 117.407 214.763 116.777 213.977C116.152 213.19 115.839 212.102 115.839 210.711ZM117.73 210.875C117.73 211.724 117.902 212.393 118.245 212.883C118.594 213.367 119.076 213.609 119.691 213.609C120.456 213.609 121.024 213.281 121.394 212.625V208.906C121.034 208.266 120.472 207.945 119.706 207.945C119.081 207.945 118.594 208.193 118.245 208.688C117.902 209.182 117.73 209.911 117.73 210.875ZM128.451 206.547L128.506 207.523C129.131 206.768 129.951 206.391 130.967 206.391C132.727 206.391 133.623 207.398 133.654 209.414V215H131.756V209.523C131.756 208.987 131.638 208.591 131.404 208.336C131.175 208.076 130.797 207.945 130.271 207.945C129.506 207.945 128.935 208.292 128.56 208.984V215H126.662V206.547H128.451ZM140.758 215.156C139.555 215.156 138.578 214.779 137.828 214.023C137.084 213.263 136.711 212.253 136.711 210.992V210.758C136.711 209.914 136.873 209.161 137.196 208.5C137.524 207.833 137.982 207.315 138.571 206.945C139.159 206.576 139.815 206.391 140.539 206.391C141.69 206.391 142.578 206.758 143.203 207.492C143.834 208.227 144.149 209.266 144.149 210.609V211.375H138.625C138.683 212.073 138.914 212.625 139.321 213.031C139.732 213.438 140.248 213.641 140.868 213.641C141.737 213.641 142.446 213.289 142.993 212.586L144.016 213.562C143.677 214.068 143.224 214.461 142.657 214.742C142.094 215.018 141.461 215.156 140.758 215.156ZM140.532 207.914C140.011 207.914 139.589 208.096 139.266 208.461C138.948 208.826 138.745 209.333 138.657 209.984H142.274V209.844C142.232 209.208 142.063 208.729 141.766 208.406C141.469 208.078 141.058 207.914 140.532 207.914ZM151.495 208.281C151.245 208.24 150.987 208.219 150.722 208.219C149.852 208.219 149.266 208.552 148.964 209.219V215H147.065V206.547H148.878L148.925 207.492C149.383 206.758 150.018 206.391 150.831 206.391C151.102 206.391 151.326 206.427 151.503 206.5L151.495 208.281ZM161.578 215H159.68V206.547H161.578V215ZM159.562 204.352C159.562 204.06 159.654 203.818 159.836 203.625C160.023 203.432 160.289 203.336 160.633 203.336C160.977 203.336 161.242 203.432 161.43 203.625C161.617 203.818 161.711 204.06 161.711 204.352C161.711 204.638 161.617 204.878 161.43 205.07C161.242 205.258 160.977 205.352 160.633 205.352C160.289 205.352 160.023 205.258 159.836 205.07C159.654 204.878 159.562 204.638 159.562 204.352ZM175.255 212.703C175.255 212.365 175.114 212.107 174.833 211.93C174.557 211.753 174.096 211.596 173.45 211.461C172.804 211.326 172.265 211.154 171.833 210.945C170.885 210.487 170.411 209.823 170.411 208.953C170.411 208.224 170.719 207.615 171.333 207.125C171.948 206.635 172.729 206.391 173.677 206.391C174.687 206.391 175.502 206.641 176.122 207.141C176.747 207.641 177.06 208.289 177.06 209.086H175.161C175.161 208.721 175.026 208.419 174.755 208.18C174.484 207.935 174.125 207.812 173.677 207.812C173.26 207.812 172.919 207.909 172.653 208.102C172.393 208.294 172.263 208.552 172.263 208.875C172.263 209.167 172.385 209.393 172.63 209.555C172.875 209.716 173.37 209.88 174.114 210.047C174.859 210.208 175.442 210.404 175.864 210.633C176.291 210.857 176.607 211.128 176.81 211.445C177.018 211.763 177.122 212.148 177.122 212.602C177.122 213.362 176.807 213.979 176.177 214.453C175.547 214.922 174.721 215.156 173.7 215.156C173.008 215.156 172.39 215.031 171.849 214.781C171.307 214.531 170.885 214.188 170.583 213.75C170.281 213.312 170.13 212.841 170.13 212.336H171.974C172 212.784 172.169 213.13 172.482 213.375C172.794 213.615 173.208 213.734 173.724 213.734C174.224 213.734 174.604 213.641 174.864 213.453C175.125 213.26 175.255 213.01 175.255 212.703ZM182.601 204.492V206.547H184.093V207.953H182.601V212.672C182.601 212.995 182.664 213.229 182.789 213.375C182.919 213.516 183.148 213.586 183.476 213.586C183.695 213.586 183.916 213.56 184.14 213.508V214.977C183.708 215.096 183.291 215.156 182.89 215.156C181.432 215.156 180.703 214.352 180.703 212.742V207.953H179.312V206.547H180.703V204.492H182.601ZM191.416 208.281C191.166 208.24 190.908 208.219 190.643 208.219C189.773 208.219 189.187 208.552 188.885 209.219V215H186.987V206.547H188.799L188.846 207.492C189.304 206.758 189.94 206.391 190.752 206.391C191.023 206.391 191.247 206.427 191.424 206.5L191.416 208.281ZM196.075 215H194.177V206.547H196.075V215ZM194.059 204.352C194.059 204.06 194.151 203.818 194.333 203.625C194.52 203.432 194.786 203.336 195.13 203.336C195.473 203.336 195.739 203.432 195.927 203.625C196.114 203.818 196.208 204.06 196.208 204.352C196.208 204.638 196.114 204.878 195.927 205.07C195.739 205.258 195.473 205.352 195.13 205.352C194.786 205.352 194.52 205.258 194.333 205.07C194.151 204.878 194.059 204.638 194.059 204.352ZM202.57 212.594L204.359 206.547H206.32L203.39 215H201.742L198.788 206.547H200.757L202.57 212.594ZM212.564 215.156C211.361 215.156 210.385 214.779 209.635 214.023C208.89 213.263 208.518 212.253 208.518 210.992V210.758C208.518 209.914 208.679 209.161 209.002 208.5C209.33 207.833 209.788 207.315 210.377 206.945C210.965 206.576 211.622 206.391 212.346 206.391C213.497 206.391 214.385 206.758 215.01 207.492C215.64 208.227 215.955 209.266 215.955 210.609V211.375H210.432C210.489 212.073 210.721 212.625 211.127 213.031C211.538 213.438 212.054 213.641 212.674 213.641C213.544 213.641 214.252 213.289 214.799 212.586L215.822 213.562C215.484 214.068 215.031 214.461 214.463 214.742C213.9 215.018 213.268 215.156 212.564 215.156ZM212.338 207.914C211.817 207.914 211.395 208.096 211.072 208.461C210.754 208.826 210.551 209.333 210.463 209.984H214.08V209.844C214.038 209.208 213.869 208.729 213.572 208.406C213.275 208.078 212.864 207.914 212.338 207.914ZM226.679 204.492V206.547H228.171V207.953H226.679V212.672C226.679 212.995 226.741 213.229 226.866 213.375C226.996 213.516 227.226 213.586 227.554 213.586C227.773 213.586 227.994 213.56 228.218 213.508V214.977C227.786 215.096 227.369 215.156 226.968 215.156C225.509 215.156 224.78 214.352 224.78 212.742V207.953H223.39V206.547H224.78V204.492H226.679ZM230.478 210.695C230.478 209.867 230.642 209.122 230.97 208.461C231.298 207.794 231.759 207.284 232.353 206.93C232.947 206.57 233.629 206.391 234.4 206.391C235.541 206.391 236.465 206.758 237.173 207.492C237.887 208.227 238.272 209.201 238.33 210.414L238.337 210.859C238.337 211.693 238.176 212.438 237.853 213.094C237.535 213.75 237.077 214.258 236.478 214.617C235.884 214.977 235.197 215.156 234.416 215.156C233.223 215.156 232.267 214.76 231.548 213.969C230.835 213.172 230.478 212.112 230.478 210.789V210.695ZM232.377 210.859C232.377 211.729 232.556 212.411 232.916 212.906C233.275 213.396 233.775 213.641 234.416 213.641C235.056 213.641 235.554 213.391 235.908 212.891C236.267 212.391 236.447 211.659 236.447 210.695C236.447 209.841 236.262 209.164 235.892 208.664C235.528 208.164 235.03 207.914 234.4 207.914C233.78 207.914 233.288 208.161 232.923 208.656C232.559 209.146 232.377 209.88 232.377 210.859ZM254.225 210.859C254.225 212.172 253.931 213.216 253.342 213.992C252.759 214.768 251.954 215.156 250.928 215.156C249.939 215.156 249.168 214.799 248.616 214.086L248.522 215H246.803V203H248.702V207.359C249.249 206.714 249.986 206.391 250.913 206.391C251.944 206.391 252.754 206.773 253.342 207.539C253.931 208.305 254.225 209.375 254.225 210.75V210.859ZM252.327 210.695C252.327 209.779 252.165 209.091 251.842 208.633C251.52 208.174 251.051 207.945 250.436 207.945C249.613 207.945 249.035 208.305 248.702 209.023V212.508C249.04 213.242 249.624 213.609 250.452 213.609C251.046 213.609 251.504 213.388 251.827 212.945C252.15 212.503 252.316 211.833 252.327 210.938V210.695ZM260.986 215.156C259.783 215.156 258.806 214.779 258.056 214.023C257.311 213.263 256.939 212.253 256.939 210.992V210.758C256.939 209.914 257.1 209.161 257.423 208.5C257.751 207.833 258.21 207.315 258.798 206.945C259.387 206.576 260.043 206.391 260.767 206.391C261.918 206.391 262.806 206.758 263.431 207.492C264.061 208.227 264.376 209.266 264.376 210.609V211.375H258.853C258.91 212.073 259.142 212.625 259.548 213.031C259.96 213.438 260.475 213.641 261.095 213.641C261.965 213.641 262.673 213.289 263.22 212.586L264.243 213.562C263.905 214.068 263.452 214.461 262.884 214.742C262.322 215.018 261.689 215.156 260.986 215.156ZM260.759 207.914C260.238 207.914 259.816 208.096 259.493 208.461C259.176 208.826 258.973 209.333 258.884 209.984H262.501V209.844C262.46 209.208 262.29 208.729 261.993 208.406C261.697 208.078 261.285 207.914 260.759 207.914Z" fill="white"/>
<defs>
<filter id="filter0_d" x="0" y="0" width="308" height="282" filterUnits="userSpaceOnUse" color-interpolation-filters="sRGB">
<feFlood flood-opacity="0" result="BackgroundImageFix"/>
<feColorMatrix in="SourceAlpha" type="matrix" values="0 0 0 0 0 0 0 0 0 0 0 0 0 0 0 0 0 0 127 0"/>
<feOffset dy="4"/>
<feGaussianBlur stdDeviation="2"/>
<feColorMatrix type="matrix" values="0 0 0 0 0 0 0 0 0 0 0 0 0 0 0 0 0 0 0.25 0"/>
<feBlend mode="normal" in2="BackgroundImageFix" result="effect1_dropShadow"/>
<feBlend mode="normal" in="SourceGraphic" in2="effect1_dropShadow" result="shape"/>
</filter>
</defs>
</svg>
