<svg width="308" height="282" viewBox="0 0 308 282" fill="none" xmlns="http://www.w3.org/2000/svg">
<g filter="url(#filter0_d)">
<rect x="4" width="300" height="274" rx="10" fill="#333333"/>
</g>
<path d="M113.985 145.12C113.345 145.12 112.825 144.92 112.425 144.52C112.038 144.12 111.845 143.52 111.845 142.72C111.845 142.387 111.898 141.953 112.005 141.42L113.365 135H116.245L114.805 141.8C114.765 141.96 114.745 142.127 114.745 142.3C114.745 142.887 114.945 143.18 115.345 143.18C115.718 143.18 116.038 143.027 116.305 142.72C116.571 142.4 116.785 141.967 116.945 141.42L118.305 135H121.185L119.745 141.8C119.678 142.133 119.645 142.373 119.645 142.52C119.645 142.96 119.871 143.18 120.325 143.18C120.938 143.18 121.505 142.793 122.025 142.02C122.558 141.247 122.985 140.327 123.305 139.26C123.625 138.193 123.785 137.273 123.785 136.5C123.758 136.567 123.671 136.62 123.525 136.66C123.378 136.687 123.251 136.7 123.145 136.7C122.918 136.7 122.738 136.593 122.605 136.38C122.485 136.167 122.425 135.933 122.425 135.68C122.425 135.36 122.525 135.1 122.725 134.9C122.938 134.7 123.251 134.6 123.665 134.6C124.105 134.6 124.425 134.767 124.625 135.1C124.825 135.42 124.925 135.833 124.925 136.34C124.925 137.54 124.718 138.827 124.305 140.2C123.891 141.56 123.258 142.72 122.405 143.68C121.551 144.64 120.491 145.12 119.225 145.12C118.571 145.12 118.038 144.98 117.625 144.7C117.211 144.42 116.945 144 116.825 143.44C116.078 144.56 115.131 145.12 113.985 145.12ZM134.247 145.12C133.434 145.12 132.834 144.907 132.447 144.48C132.074 144.04 131.887 143.5 131.887 142.86C131.887 142.58 131.921 142.267 131.987 141.92C132.054 141.56 132.121 141.213 132.187 140.88C132.267 140.547 132.321 140.333 132.347 140.24C132.454 139.773 132.554 139.313 132.647 138.86C132.741 138.407 132.787 138.04 132.787 137.76C132.787 137.08 132.547 136.74 132.067 136.74C131.721 136.74 131.414 136.913 131.147 137.26C130.881 137.593 130.667 138.033 130.507 138.58L129.147 145H126.267L129.167 131.4L132.127 131L131.047 136.04C131.714 135.293 132.494 134.92 133.387 134.92C134.067 134.92 134.607 135.107 135.007 135.48C135.407 135.853 135.607 136.42 135.607 137.18C135.607 137.567 135.561 138 135.467 138.48C135.374 138.947 135.241 139.52 135.067 140.2C134.961 140.613 134.861 141.02 134.767 141.42C134.687 141.807 134.647 142.113 134.647 142.34C134.647 142.607 134.707 142.813 134.827 142.96C134.947 143.107 135.154 143.18 135.447 143.18C135.847 143.18 136.167 143.04 136.407 142.76C136.647 142.467 136.887 142.02 137.127 141.42H137.967C137.474 142.887 136.901 143.873 136.247 144.38C135.607 144.873 134.941 145.12 134.247 145.12ZM142.045 150C141.418 150 140.865 149.793 140.385 149.38C139.918 148.98 139.685 148.467 139.685 147.84C139.685 147.253 139.832 146.773 140.125 146.4C140.418 146.027 140.798 145.733 141.265 145.52C141.732 145.307 142.358 145.08 143.145 144.84L143.345 143.96C142.665 144.733 141.852 145.12 140.905 145.12C140.265 145.12 139.745 144.92 139.345 144.52C138.958 144.12 138.765 143.52 138.765 142.72C138.765 142.387 138.818 141.953 138.925 141.42L140.285 135H143.165L141.725 141.8C141.685 141.96 141.665 142.127 141.665 142.3C141.665 142.887 141.865 143.18 142.265 143.18C142.638 143.18 142.958 143.027 143.225 142.72C143.492 142.4 143.705 141.967 143.865 141.42L145.225 135H148.125L145.685 146.6C145.418 147.88 144.945 148.767 144.265 149.26C143.598 149.753 142.858 150 142.045 150ZM141.585 148.22C141.825 148.22 142.052 148.093 142.265 147.84C142.478 147.6 142.645 147.207 142.765 146.66L143.005 145.48C142.298 145.72 141.752 146 141.365 146.32C140.978 146.64 140.785 147.053 140.785 147.56C140.785 147.72 140.865 147.867 141.025 148C141.185 148.147 141.372 148.22 141.585 148.22ZM157.42 135H160.3L160.04 136.24C160.493 135.84 160.9 135.533 161.26 135.32C161.633 135.107 162.033 135 162.46 135C162.887 135 163.22 135.147 163.46 135.44C163.713 135.733 163.84 136.087 163.84 136.5C163.84 136.887 163.713 137.227 163.46 137.52C163.207 137.813 162.853 137.96 162.4 137.96C162.107 137.96 161.907 137.893 161.8 137.76C161.707 137.613 161.633 137.407 161.58 137.14C161.54 136.967 161.5 136.84 161.46 136.76C161.42 136.68 161.347 136.64 161.24 136.64C160.96 136.64 160.72 136.7 160.52 136.82C160.333 136.927 160.087 137.12 159.78 137.4L158.18 145H155.3L157.42 135ZM168.24 145.12C167.253 145.12 166.486 144.867 165.94 144.36C165.393 143.84 165.12 143.033 165.12 141.94C165.12 141.02 165.3 140.007 165.66 138.9C166.02 137.793 166.606 136.84 167.42 136.04C168.233 135.227 169.266 134.82 170.52 134.82C171.986 134.82 172.72 135.46 172.72 136.74C172.72 137.487 172.506 138.173 172.08 138.8C171.653 139.427 171.086 139.933 170.38 140.32C169.673 140.693 168.92 140.907 168.12 140.96C168.093 141.36 168.08 141.627 168.08 141.76C168.08 142.413 168.193 142.86 168.42 143.1C168.646 143.327 169.013 143.44 169.52 143.44C170.24 143.44 170.853 143.273 171.36 142.94C171.88 142.607 172.446 142.1 173.06 141.42H173.74C172.26 143.887 170.426 145.12 168.24 145.12ZM168.28 140C168.773 139.973 169.24 139.8 169.68 139.48C170.133 139.16 170.493 138.753 170.76 138.26C171.04 137.767 171.18 137.247 171.18 136.7C171.18 136.153 171.013 135.88 170.68 135.88C170.2 135.88 169.726 136.3 169.26 137.14C168.806 137.98 168.48 138.933 168.28 140ZM177.255 145.12C176.495 145.12 175.862 144.86 175.355 144.34C174.849 143.82 174.595 143.007 174.595 141.9C174.595 140.913 174.789 139.88 175.175 138.8C175.575 137.707 176.162 136.787 176.935 136.04C177.722 135.28 178.655 134.9 179.735 134.9C180.282 134.9 180.689 134.993 180.955 135.18C181.222 135.367 181.355 135.613 181.355 135.92V136L182.335 131.4L185.295 131L182.995 141.8C182.942 142 182.915 142.193 182.915 142.38C182.915 142.913 183.189 143.18 183.735 143.18C183.975 143.18 184.189 143.14 184.375 143.06C184.322 143.727 184.082 144.24 183.655 144.6C183.242 144.947 182.749 145.12 182.175 145.12C181.642 145.12 181.189 144.987 180.815 144.72C180.455 144.44 180.215 144.02 180.095 143.46C179.295 144.567 178.349 145.12 177.255 145.12ZM178.555 143.18C178.849 143.18 179.142 143.053 179.435 142.8C179.742 142.547 179.969 142.193 180.115 141.74L180.195 141.42L181.175 136.84C181.055 136.373 180.782 136.14 180.355 136.14C179.822 136.14 179.342 136.453 178.915 137.08C178.489 137.693 178.155 138.44 177.915 139.32C177.675 140.187 177.555 140.953 177.555 141.62C177.555 142.287 177.649 142.713 177.835 142.9C178.035 143.087 178.275 143.18 178.555 143.18ZM188.267 140.36C188.267 139.72 188.361 139.147 188.547 138.64C188.747 138.12 188.981 137.673 189.247 137.3C189.527 136.927 189.887 136.493 190.327 136C190.901 135.36 191.327 134.8 191.607 134.32C191.901 133.827 192.047 133.253 192.047 132.6C192.047 132.027 191.934 131.58 191.707 131.26C191.481 130.94 191.154 130.78 190.727 130.78C190.287 130.78 189.914 130.94 189.607 131.26C189.314 131.567 189.167 131.953 189.167 132.42C189.167 132.767 189.254 133.087 189.427 133.38C189.601 133.66 189.834 133.867 190.127 134V134.08C189.887 134.293 189.634 134.46 189.367 134.58C189.114 134.7 188.867 134.76 188.627 134.76C188.201 134.76 187.847 134.607 187.567 134.3C187.301 133.98 187.167 133.573 187.167 133.08C187.167 132.453 187.347 131.887 187.707 131.38C188.081 130.873 188.581 130.473 189.207 130.18C189.834 129.887 190.534 129.74 191.307 129.74C192.387 129.74 193.241 129.987 193.867 130.48C194.494 130.973 194.807 131.647 194.807 132.5C194.807 133.02 194.694 133.5 194.467 133.94C194.241 134.367 193.954 134.747 193.607 135.08C193.274 135.413 192.827 135.807 192.267 136.26C191.667 136.767 191.194 137.193 190.847 137.54C190.501 137.887 190.201 138.3 189.947 138.78C189.707 139.247 189.587 139.773 189.587 140.36H188.267ZM188.687 145C188.261 145 187.887 144.847 187.567 144.54C187.247 144.22 187.087 143.84 187.087 143.4C187.087 142.96 187.241 142.587 187.547 142.28C187.867 141.973 188.247 141.82 188.687 141.82C189.127 141.82 189.501 141.973 189.807 142.28C190.127 142.587 190.287 142.96 190.287 143.4C190.287 143.84 190.127 144.22 189.807 144.54C189.501 144.847 189.127 145 188.687 145Z" fill="white"/>
<defs>
<filter id="filter0_d" x="0" y="0" width="308" height="282" filterUnits="userSpaceOnUse" color-interpolation-filters="sRGB">
<feFlood flood-opacity="0" result="BackgroundImageFix"/>
<feColorMatrix in="SourceAlpha" type="matrix" values="0 0 0 0 0 0 0 0 0 0 0 0 0 0 0 0 0 0 127 0"/>
<feOffset dy="4"/>
<feGaussianBlur stdDeviation="2"/>
<feColorMatrix type="matrix" values="0 0 0 0 0 0 0 0 0 0 0 0 0 0 0 0 0 0 0.25 0"/>
<feBlend mode="normal" in2="BackgroundImageFix" result="effect1_dropShadow"/>
<feBlend mode="normal" in="SourceGraphic" in2="effect1_dropShadow" result="shape"/>
</filter>
</defs>
</svg>
