<svg width="992" height="288" viewBox="0 0 992 288" fill="none" xmlns="http://www.w3.org/2000/svg">
<g filter="url(#filter0_d)">
<path d="M82.9883 219H52.8125V136.383L53.1055 122.809L53.5938 107.965C48.5807 112.978 45.0977 116.266 43.1445 117.828L26.7383 131.012L12.1875 112.848L58.1836 76.2266H82.9883V219Z" fill="#FFB5B5"/>
</g>
<path d="M59.9629 159V144.723H61.623V157.496H67.9219V159H59.9629ZM76.6914 159L76.3691 157.477H76.291C75.7572 158.147 75.2233 158.603 74.6895 158.844C74.1621 159.078 73.5013 159.195 72.707 159.195C71.6458 159.195 70.8125 158.922 70.207 158.375C69.6081 157.828 69.3086 157.05 69.3086 156.041C69.3086 153.88 71.0371 152.747 74.4941 152.643L76.3105 152.584V151.92C76.3105 151.08 76.1283 150.462 75.7637 150.064C75.4056 149.661 74.8294 149.459 74.0352 149.459C73.1432 149.459 72.1341 149.732 71.0078 150.279L70.5098 149.039C71.0371 148.753 71.6133 148.528 72.2383 148.365C72.8698 148.202 73.5013 148.121 74.1328 148.121C75.4089 148.121 76.3529 148.404 76.9648 148.971C77.5833 149.537 77.8926 150.445 77.8926 151.695V159H76.6914ZM73.0293 157.857C74.0384 157.857 74.8294 157.581 75.4023 157.027C75.9818 156.474 76.2715 155.699 76.2715 154.703V153.736L74.6504 153.805C73.3613 153.85 72.4303 154.052 71.8574 154.41C71.291 154.762 71.0078 155.312 71.0078 156.061C71.0078 156.646 71.1836 157.092 71.5352 157.398C71.8932 157.704 72.3913 157.857 73.0293 157.857ZM85.5195 159.195C83.9701 159.195 82.7689 158.72 81.916 157.77C81.0697 156.812 80.6465 155.462 80.6465 153.717C80.6465 151.926 81.0762 150.543 81.9355 149.566C82.8014 148.59 84.0319 148.102 85.627 148.102C86.1413 148.102 86.6556 148.157 87.1699 148.268C87.6842 148.378 88.0879 148.508 88.3809 148.658L87.8828 150.035C87.5247 149.892 87.1341 149.775 86.7109 149.684C86.2878 149.586 85.9134 149.537 85.5879 149.537C83.4134 149.537 82.3262 150.924 82.3262 153.697C82.3262 155.012 82.5898 156.021 83.1172 156.725C83.651 157.428 84.4388 157.779 85.4805 157.779C86.3724 157.779 87.2871 157.587 88.2246 157.203V158.639C87.5085 159.01 86.6068 159.195 85.5195 159.195ZM92.375 153.521C92.6549 153.124 93.0814 152.604 93.6543 151.959L97.1113 148.297H99.0352L94.6992 152.857L99.3379 159H97.375L93.5957 153.941L92.375 154.996V159H90.7734V143.805H92.375V151.861C92.375 152.219 92.349 152.773 92.2969 153.521H92.375ZM115.715 153.639C115.715 155.383 115.275 156.747 114.396 157.73C113.518 158.707 112.303 159.195 110.754 159.195C109.797 159.195 108.947 158.971 108.205 158.521C107.463 158.072 106.89 157.428 106.486 156.588C106.083 155.748 105.881 154.765 105.881 153.639C105.881 151.894 106.317 150.536 107.189 149.566C108.062 148.59 109.273 148.102 110.822 148.102C112.32 148.102 113.508 148.6 114.387 149.596C115.272 150.592 115.715 151.939 115.715 153.639ZM107.561 153.639C107.561 155.006 107.834 156.048 108.381 156.764C108.928 157.48 109.732 157.838 110.793 157.838C111.854 157.838 112.658 157.483 113.205 156.773C113.758 156.057 114.035 155.012 114.035 153.639C114.035 152.278 113.758 151.246 113.205 150.543C112.658 149.833 111.848 149.479 110.773 149.479C109.712 149.479 108.911 149.827 108.371 150.523C107.831 151.22 107.561 152.258 107.561 153.639ZM123.391 149.557H120.666V159H119.045V149.557H117.131V148.824L119.045 148.238V147.643C119.045 145.012 120.194 143.697 122.492 143.697C123.059 143.697 123.723 143.811 124.484 144.039L124.064 145.338C123.439 145.136 122.906 145.035 122.463 145.035C121.851 145.035 121.398 145.24 121.105 145.65C120.812 146.054 120.666 146.705 120.666 147.604V148.297H123.391V149.557ZM63.9961 186.195C62.4466 186.195 61.2454 185.72 60.3926 184.77C59.5462 183.812 59.123 182.462 59.123 180.717C59.123 178.926 59.5527 177.543 60.4121 176.566C61.278 175.59 62.5085 175.102 64.1035 175.102C64.6178 175.102 65.1322 175.157 65.6465 175.268C66.1608 175.378 66.5645 175.508 66.8574 175.658L66.3594 177.035C66.0013 176.892 65.6107 176.775 65.1875 176.684C64.7643 176.586 64.39 176.537 64.0645 176.537C61.89 176.537 60.8027 177.924 60.8027 180.697C60.8027 182.012 61.0664 183.021 61.5938 183.725C62.1276 184.428 62.9154 184.779 63.957 184.779C64.849 184.779 65.7637 184.587 66.7012 184.203V185.639C65.985 186.01 65.0833 186.195 63.9961 186.195ZM78.4883 180.639C78.4883 182.383 78.0488 183.747 77.1699 184.73C76.291 185.707 75.0768 186.195 73.5273 186.195C72.5703 186.195 71.7207 185.971 70.9785 185.521C70.2363 185.072 69.6634 184.428 69.2598 183.588C68.8561 182.748 68.6543 181.765 68.6543 180.639C68.6543 178.894 69.0905 177.536 69.9629 176.566C70.8353 175.59 72.0462 175.102 73.5957 175.102C75.0931 175.102 76.2812 175.6 77.1602 176.596C78.0456 177.592 78.4883 178.939 78.4883 180.639ZM70.334 180.639C70.334 182.006 70.6074 183.048 71.1543 183.764C71.7012 184.48 72.5052 184.838 73.5664 184.838C74.6276 184.838 75.4316 184.483 75.9785 183.773C76.5319 183.057 76.8086 182.012 76.8086 180.639C76.8086 179.278 76.5319 178.246 75.9785 177.543C75.4316 176.833 74.6211 176.479 73.5469 176.479C72.4857 176.479 71.6849 176.827 71.1445 177.523C70.6042 178.22 70.334 179.258 70.334 180.639ZM86.2227 175.102C86.6979 175.102 87.1243 175.141 87.502 175.219L87.2773 176.723C86.8346 176.625 86.444 176.576 86.1055 176.576C85.2396 176.576 84.4974 176.928 83.8789 177.631C83.2669 178.334 82.9609 179.21 82.9609 180.258V186H81.3398V175.297H82.6777L82.8633 177.279H82.9414C83.3385 176.583 83.8171 176.046 84.377 175.668C84.9368 175.29 85.5521 175.102 86.2227 175.102ZM94.3867 175.102C94.862 175.102 95.2884 175.141 95.666 175.219L95.4414 176.723C94.9987 176.625 94.6081 176.576 94.2695 176.576C93.4036 176.576 92.6615 176.928 92.043 177.631C91.431 178.334 91.125 179.21 91.125 180.258V186H89.5039V175.297H90.8418L91.0273 177.279H91.1055C91.5026 176.583 91.9811 176.046 92.541 175.668C93.1009 175.29 93.7161 175.102 94.3867 175.102ZM102.189 186.195C100.607 186.195 99.3574 185.714 98.4395 184.75C97.528 183.786 97.0723 182.449 97.0723 180.736C97.0723 179.011 97.4954 177.641 98.3418 176.625C99.1947 175.609 100.337 175.102 101.77 175.102C103.111 175.102 104.172 175.544 104.953 176.43C105.734 177.309 106.125 178.471 106.125 179.916V180.941H98.752C98.7845 182.198 99.1003 183.152 99.6992 183.803C100.305 184.454 101.154 184.779 102.248 184.779C103.4 184.779 104.54 184.538 105.666 184.057V185.502C105.093 185.749 104.549 185.925 104.035 186.029C103.527 186.14 102.912 186.195 102.189 186.195ZM101.75 176.459C100.891 176.459 100.204 176.739 99.6895 177.299C99.1816 177.859 98.8822 178.633 98.791 179.623H104.387C104.387 178.601 104.159 177.82 103.703 177.279C103.247 176.732 102.596 176.459 101.75 176.459ZM113.176 186.195C111.626 186.195 110.425 185.72 109.572 184.77C108.726 183.812 108.303 182.462 108.303 180.717C108.303 178.926 108.732 177.543 109.592 176.566C110.458 175.59 111.688 175.102 113.283 175.102C113.798 175.102 114.312 175.157 114.826 175.268C115.34 175.378 115.744 175.508 116.037 175.658L115.539 177.035C115.181 176.892 114.79 176.775 114.367 176.684C113.944 176.586 113.57 176.537 113.244 176.537C111.07 176.537 109.982 177.924 109.982 180.697C109.982 182.012 110.246 183.021 110.773 183.725C111.307 184.428 112.095 184.779 113.137 184.779C114.029 184.779 114.943 184.587 115.881 184.203V185.639C115.165 186.01 114.263 186.195 113.176 186.195ZM121.887 184.857C122.173 184.857 122.45 184.838 122.717 184.799C122.984 184.753 123.195 184.708 123.352 184.662V185.902C123.176 185.987 122.915 186.055 122.57 186.107C122.232 186.166 121.926 186.195 121.652 186.195C119.582 186.195 118.547 185.105 118.547 182.924V176.557H117.014V175.775L118.547 175.102L119.23 172.816H120.168V175.297H123.273V176.557H120.168V182.855C120.168 183.5 120.321 183.995 120.627 184.34C120.933 184.685 121.353 184.857 121.887 184.857ZM61.3398 213H59.7188V202.297H61.3398V213ZM59.582 199.396C59.582 199.025 59.6732 198.755 59.8555 198.586C60.0378 198.41 60.2656 198.322 60.5391 198.322C60.7995 198.322 61.0241 198.41 61.2129 198.586C61.4017 198.762 61.4961 199.032 61.4961 199.396C61.4961 199.761 61.4017 200.035 61.2129 200.217C61.0241 200.393 60.7995 200.48 60.5391 200.48C60.2656 200.48 60.0378 200.393 59.8555 200.217C59.6732 200.035 59.582 199.761 59.582 199.396ZM72.1016 213V206.076C72.1016 205.204 71.903 204.553 71.5059 204.123C71.1087 203.693 70.487 203.479 69.6406 203.479C68.5208 203.479 67.7005 203.781 67.1797 204.387C66.6589 204.992 66.3984 205.992 66.3984 207.385V213H64.7773V202.297H66.0957L66.3594 203.762H66.4375C66.7695 203.234 67.235 202.827 67.834 202.541C68.4329 202.248 69.1003 202.102 69.8359 202.102C71.125 202.102 72.0951 202.414 72.7461 203.039C73.3971 203.658 73.7227 204.65 73.7227 206.018V213H72.1016ZM81.8867 203.557H79.1621V213H77.541V203.557H75.627V202.824L77.541 202.238V201.643C77.541 199.012 78.6901 197.697 80.9883 197.697C81.5547 197.697 82.2188 197.811 82.9805 198.039L82.5605 199.338C81.9355 199.136 81.4017 199.035 80.959 199.035C80.347 199.035 79.8945 199.24 79.6016 199.65C79.3086 200.054 79.1621 200.705 79.1621 201.604V202.297H81.8867V203.557ZM93.0781 207.639C93.0781 209.383 92.6387 210.747 91.7598 211.73C90.8809 212.707 89.6667 213.195 88.1172 213.195C87.1602 213.195 86.3105 212.971 85.5684 212.521C84.8262 212.072 84.2533 211.428 83.8496 210.588C83.446 209.748 83.2441 208.765 83.2441 207.639C83.2441 205.894 83.6803 204.536 84.5527 203.566C85.4251 202.59 86.6361 202.102 88.1855 202.102C89.6829 202.102 90.8711 202.6 91.75 203.596C92.6354 204.592 93.0781 205.939 93.0781 207.639ZM84.9238 207.639C84.9238 209.006 85.1973 210.048 85.7441 210.764C86.291 211.48 87.0951 211.838 88.1562 211.838C89.2174 211.838 90.0215 211.483 90.5684 210.773C91.1217 210.057 91.3984 209.012 91.3984 207.639C91.3984 206.278 91.1217 205.246 90.5684 204.543C90.0215 203.833 89.2109 203.479 88.1367 203.479C87.0755 203.479 86.2747 203.827 85.7344 204.523C85.194 205.22 84.9238 206.258 84.9238 207.639ZM100.812 202.102C101.288 202.102 101.714 202.141 102.092 202.219L101.867 203.723C101.424 203.625 101.034 203.576 100.695 203.576C99.8294 203.576 99.0872 203.928 98.4688 204.631C97.8568 205.334 97.5508 206.21 97.5508 207.258V213H95.9297V202.297H97.2676L97.4531 204.279H97.5312C97.9284 203.583 98.4069 203.046 98.9668 202.668C99.5267 202.29 100.142 202.102 100.812 202.102ZM117.736 213V206.037C117.736 205.184 117.554 204.546 117.189 204.123C116.825 203.693 116.258 203.479 115.49 203.479C114.481 203.479 113.736 203.768 113.254 204.348C112.772 204.927 112.531 205.819 112.531 207.023V213H110.91V206.037C110.91 205.184 110.728 204.546 110.363 204.123C109.999 203.693 109.429 203.479 108.654 203.479C107.639 203.479 106.893 203.785 106.418 204.396C105.949 205.002 105.715 205.998 105.715 207.385V213H104.094V202.297H105.412L105.676 203.762H105.754C106.06 203.241 106.49 202.834 107.043 202.541C107.603 202.248 108.228 202.102 108.918 202.102C110.591 202.102 111.685 202.707 112.199 203.918H112.277C112.596 203.358 113.059 202.915 113.664 202.59C114.27 202.264 114.96 202.102 115.734 202.102C116.945 202.102 117.85 202.414 118.449 203.039C119.055 203.658 119.357 204.65 119.357 206.018V213H117.736ZM129.289 213L128.967 211.477H128.889C128.355 212.147 127.821 212.603 127.287 212.844C126.76 213.078 126.099 213.195 125.305 213.195C124.243 213.195 123.41 212.922 122.805 212.375C122.206 211.828 121.906 211.05 121.906 210.041C121.906 207.88 123.635 206.747 127.092 206.643L128.908 206.584V205.92C128.908 205.08 128.726 204.462 128.361 204.064C128.003 203.661 127.427 203.459 126.633 203.459C125.741 203.459 124.732 203.732 123.605 204.279L123.107 203.039C123.635 202.753 124.211 202.528 124.836 202.365C125.467 202.202 126.099 202.121 126.73 202.121C128.007 202.121 128.951 202.404 129.562 202.971C130.181 203.537 130.49 204.445 130.49 205.695V213H129.289ZM125.627 211.857C126.636 211.857 127.427 211.581 128 211.027C128.579 210.474 128.869 209.699 128.869 208.703V207.736L127.248 207.805C125.959 207.85 125.028 208.052 124.455 208.41C123.889 208.762 123.605 209.312 123.605 210.061C123.605 210.646 123.781 211.092 124.133 211.398C124.491 211.704 124.989 211.857 125.627 211.857ZM137.297 211.857C137.583 211.857 137.86 211.838 138.127 211.799C138.394 211.753 138.605 211.708 138.762 211.662V212.902C138.586 212.987 138.326 213.055 137.98 213.107C137.642 213.166 137.336 213.195 137.062 213.195C134.992 213.195 133.957 212.105 133.957 209.924V203.557H132.424V202.775L133.957 202.102L134.641 199.816H135.578V202.297H138.684V203.557H135.578V209.855C135.578 210.5 135.731 210.995 136.037 211.34C136.343 211.685 136.763 211.857 137.297 211.857ZM142.531 213H140.91V202.297H142.531V213ZM140.773 199.396C140.773 199.025 140.865 198.755 141.047 198.586C141.229 198.41 141.457 198.322 141.73 198.322C141.991 198.322 142.215 198.41 142.404 198.586C142.593 198.762 142.688 199.032 142.688 199.396C142.688 199.761 142.593 200.035 142.404 200.217C142.215 200.393 141.991 200.48 141.73 200.48C141.457 200.48 141.229 200.393 141.047 200.217C140.865 200.035 140.773 199.761 140.773 199.396ZM155.207 207.639C155.207 209.383 154.768 210.747 153.889 211.73C153.01 212.707 151.796 213.195 150.246 213.195C149.289 213.195 148.439 212.971 147.697 212.521C146.955 212.072 146.382 211.428 145.979 210.588C145.575 209.748 145.373 208.765 145.373 207.639C145.373 205.894 145.809 204.536 146.682 203.566C147.554 202.59 148.765 202.102 150.314 202.102C151.812 202.102 153 202.6 153.879 203.596C154.764 204.592 155.207 205.939 155.207 207.639ZM147.053 207.639C147.053 209.006 147.326 210.048 147.873 210.764C148.42 211.48 149.224 211.838 150.285 211.838C151.346 211.838 152.15 211.483 152.697 210.773C153.251 210.057 153.527 209.012 153.527 207.639C153.527 206.278 153.251 205.246 152.697 204.543C152.15 203.833 151.34 203.479 150.266 203.479C149.204 203.479 148.404 203.827 147.863 204.523C147.323 205.22 147.053 206.258 147.053 207.639ZM165.383 213V206.076C165.383 205.204 165.184 204.553 164.787 204.123C164.39 203.693 163.768 203.479 162.922 203.479C161.802 203.479 160.982 203.781 160.461 204.387C159.94 204.992 159.68 205.992 159.68 207.385V213H158.059V202.297H159.377L159.641 203.762H159.719C160.051 203.234 160.516 202.827 161.115 202.541C161.714 202.248 162.382 202.102 163.117 202.102C164.406 202.102 165.376 202.414 166.027 203.039C166.678 203.658 167.004 204.65 167.004 206.018V213H165.383Z" fill="black"/>
<g filter="url(#filter1_d)">
<path d="M437.184 219H337.379V198.004L373.219 161.773C383.831 150.901 390.764 143.382 394.02 139.215C397.275 134.983 399.618 131.077 401.051 127.496C402.483 123.915 403.199 120.204 403.199 116.363C403.199 110.634 401.604 106.37 398.414 103.57C395.289 100.771 391.09 99.3711 385.816 99.3711C380.283 99.3711 374.911 100.641 369.703 103.18C364.495 105.719 359.059 109.332 353.395 114.02L336.988 94.5859C344.02 88.5964 349.846 84.3646 354.469 81.8906C359.091 79.4167 364.137 77.5286 369.605 76.2266C375.074 74.8594 381.194 74.1758 387.965 74.1758C396.884 74.1758 404.762 75.8034 411.598 79.0586C418.434 82.3138 423.74 86.8711 427.516 92.7305C431.292 98.5898 433.18 105.296 433.18 112.848C433.18 119.423 432.008 125.608 429.664 131.402C427.385 137.132 423.805 143.023 418.922 149.078C414.104 155.133 405.576 163.759 393.336 174.957L374.977 192.242V193.609H437.184V219Z" fill="#FFB5B5"/>
</g>
<path d="M393.076 146.002C391.507 146.002 390.267 146.526 389.355 147.574C388.451 148.616 387.998 150.045 387.998 151.861C387.998 153.73 388.434 155.175 389.307 156.197C390.186 157.213 391.436 157.721 393.057 157.721C394.053 157.721 395.189 157.542 396.465 157.184V158.639C395.475 159.01 394.255 159.195 392.803 159.195C390.7 159.195 389.076 158.557 387.93 157.281C386.79 156.005 386.221 154.192 386.221 151.842C386.221 150.37 386.494 149.081 387.041 147.975C387.594 146.868 388.389 146.015 389.424 145.416C390.465 144.817 391.689 144.518 393.096 144.518C394.593 144.518 395.902 144.791 397.021 145.338L396.318 146.764C395.238 146.256 394.157 146.002 393.076 146.002ZM408.574 153.639C408.574 155.383 408.135 156.747 407.256 157.73C406.377 158.707 405.163 159.195 403.613 159.195C402.656 159.195 401.807 158.971 401.064 158.521C400.322 158.072 399.749 157.428 399.346 156.588C398.942 155.748 398.74 154.765 398.74 153.639C398.74 151.894 399.176 150.536 400.049 149.566C400.921 148.59 402.132 148.102 403.682 148.102C405.179 148.102 406.367 148.6 407.246 149.596C408.132 150.592 408.574 151.939 408.574 153.639ZM400.42 153.639C400.42 155.006 400.693 156.048 401.24 156.764C401.787 157.48 402.591 157.838 403.652 157.838C404.714 157.838 405.518 157.483 406.064 156.773C406.618 156.057 406.895 155.012 406.895 153.639C406.895 152.278 406.618 151.246 406.064 150.543C405.518 149.833 404.707 149.479 403.633 149.479C402.572 149.479 401.771 149.827 401.23 150.523C400.69 151.22 400.42 152.258 400.42 153.639ZM418.75 159V152.076C418.75 151.204 418.551 150.553 418.154 150.123C417.757 149.693 417.135 149.479 416.289 149.479C415.169 149.479 414.349 149.781 413.828 150.387C413.307 150.992 413.047 151.992 413.047 153.385V159H411.426V148.297H412.744L413.008 149.762H413.086C413.418 149.234 413.883 148.827 414.482 148.541C415.081 148.248 415.749 148.102 416.484 148.102C417.773 148.102 418.743 148.414 419.395 149.039C420.046 149.658 420.371 150.65 420.371 152.018V159H418.75ZM428.535 149.557H425.811V159H424.189V149.557H422.275V148.824L424.189 148.238V147.643C424.189 145.012 425.339 143.697 427.637 143.697C428.203 143.697 428.867 143.811 429.629 144.039L429.209 145.338C428.584 145.136 428.05 145.035 427.607 145.035C426.995 145.035 426.543 145.24 426.25 145.65C425.957 146.054 425.811 146.705 425.811 147.604V148.297H428.535V149.557ZM432.012 148.297V155.24C432.012 156.113 432.21 156.764 432.607 157.193C433.005 157.623 433.626 157.838 434.473 157.838C435.592 157.838 436.41 157.532 436.924 156.92C437.445 156.308 437.705 155.309 437.705 153.922V148.297H439.326V159H437.988L437.754 157.564H437.666C437.334 158.092 436.872 158.495 436.279 158.775C435.693 159.055 435.023 159.195 434.268 159.195C432.965 159.195 431.989 158.886 431.338 158.268C430.693 157.649 430.371 156.66 430.371 155.299V148.297H432.012ZM449.678 156.08C449.678 157.076 449.307 157.844 448.564 158.385C447.822 158.925 446.781 159.195 445.439 159.195C444.02 159.195 442.913 158.971 442.119 158.521V157.018C442.633 157.278 443.184 157.483 443.77 157.633C444.362 157.783 444.932 157.857 445.479 157.857C446.325 157.857 446.976 157.724 447.432 157.457C447.887 157.184 448.115 156.77 448.115 156.217C448.115 155.8 447.933 155.445 447.568 155.152C447.21 154.853 446.507 154.501 445.459 154.098C444.463 153.727 443.753 153.404 443.33 153.131C442.913 152.851 442.601 152.535 442.393 152.184C442.191 151.832 442.09 151.412 442.09 150.924C442.09 150.051 442.445 149.365 443.154 148.863C443.864 148.355 444.837 148.102 446.074 148.102C447.227 148.102 448.353 148.336 449.453 148.805L448.877 150.123C447.803 149.68 446.829 149.459 445.957 149.459C445.189 149.459 444.609 149.579 444.219 149.82C443.828 150.061 443.633 150.393 443.633 150.816C443.633 151.103 443.704 151.347 443.848 151.549C443.997 151.751 444.235 151.943 444.561 152.125C444.886 152.307 445.511 152.571 446.436 152.916C447.705 153.378 448.561 153.844 449.004 154.312C449.453 154.781 449.678 155.37 449.678 156.08ZM453.945 159H452.324V148.297H453.945V159ZM452.188 145.396C452.188 145.025 452.279 144.755 452.461 144.586C452.643 144.41 452.871 144.322 453.145 144.322C453.405 144.322 453.63 144.41 453.818 144.586C454.007 144.762 454.102 145.032 454.102 145.396C454.102 145.761 454.007 146.035 453.818 146.217C453.63 146.393 453.405 146.48 453.145 146.48C452.871 146.48 452.643 146.393 452.461 146.217C452.279 146.035 452.188 145.761 452.188 145.396ZM464.707 159V152.076C464.707 151.204 464.508 150.553 464.111 150.123C463.714 149.693 463.092 149.479 462.246 149.479C461.126 149.479 460.306 149.781 459.785 150.387C459.264 150.992 459.004 151.992 459.004 153.385V159H457.383V148.297H458.701L458.965 149.762H459.043C459.375 149.234 459.84 148.827 460.439 148.541C461.038 148.248 461.706 148.102 462.441 148.102C463.73 148.102 464.701 148.414 465.352 149.039C466.003 149.658 466.328 150.65 466.328 152.018V159H464.707ZM478.428 148.297V149.322L476.445 149.557C476.628 149.785 476.79 150.084 476.934 150.455C477.077 150.82 477.148 151.233 477.148 151.695C477.148 152.743 476.79 153.58 476.074 154.205C475.358 154.83 474.375 155.143 473.125 155.143C472.806 155.143 472.507 155.117 472.227 155.064C471.536 155.429 471.191 155.888 471.191 156.441C471.191 156.734 471.312 156.952 471.553 157.096C471.794 157.232 472.207 157.301 472.793 157.301H474.688C475.846 157.301 476.735 157.545 477.354 158.033C477.979 158.521 478.291 159.231 478.291 160.162C478.291 161.347 477.816 162.249 476.865 162.867C475.915 163.492 474.528 163.805 472.705 163.805C471.305 163.805 470.225 163.544 469.463 163.023C468.708 162.503 468.33 161.767 468.33 160.816C468.33 160.165 468.538 159.602 468.955 159.127C469.372 158.652 469.958 158.329 470.713 158.16C470.439 158.036 470.208 157.844 470.02 157.584C469.837 157.324 469.746 157.021 469.746 156.676C469.746 156.285 469.85 155.943 470.059 155.65C470.267 155.357 470.596 155.074 471.045 154.801C470.492 154.573 470.039 154.186 469.688 153.639C469.342 153.092 469.17 152.467 469.17 151.764C469.17 150.592 469.521 149.69 470.225 149.059C470.928 148.421 471.924 148.102 473.213 148.102C473.773 148.102 474.277 148.167 474.727 148.297H478.428ZM469.893 160.797C469.893 161.376 470.137 161.816 470.625 162.115C471.113 162.415 471.813 162.564 472.725 162.564C474.085 162.564 475.091 162.359 475.742 161.949C476.4 161.546 476.729 160.995 476.729 160.299C476.729 159.719 476.549 159.316 476.191 159.088C475.833 158.867 475.16 158.756 474.17 158.756H472.227C471.491 158.756 470.918 158.932 470.508 159.283C470.098 159.635 469.893 160.139 469.893 160.797ZM470.771 151.725C470.771 152.473 470.983 153.04 471.406 153.424C471.829 153.808 472.419 154 473.174 154C474.756 154 475.547 153.232 475.547 151.695C475.547 150.087 474.746 149.283 473.145 149.283C472.383 149.283 471.797 149.488 471.387 149.898C470.977 150.309 470.771 150.917 470.771 151.725ZM388.34 186H386.719V175.297H388.34V186ZM386.582 172.396C386.582 172.025 386.673 171.755 386.855 171.586C387.038 171.41 387.266 171.322 387.539 171.322C387.799 171.322 388.024 171.41 388.213 171.586C388.402 171.762 388.496 172.032 388.496 172.396C388.496 172.761 388.402 173.035 388.213 173.217C388.024 173.393 387.799 173.48 387.539 173.48C387.266 173.48 387.038 173.393 386.855 173.217C386.673 173.035 386.582 172.761 386.582 172.396ZM399.102 186V179.076C399.102 178.204 398.903 177.553 398.506 177.123C398.109 176.693 397.487 176.479 396.641 176.479C395.521 176.479 394.701 176.781 394.18 177.387C393.659 177.992 393.398 178.992 393.398 180.385V186H391.777V175.297H393.096L393.359 176.762H393.438C393.77 176.234 394.235 175.827 394.834 175.541C395.433 175.248 396.1 175.102 396.836 175.102C398.125 175.102 399.095 175.414 399.746 176.039C400.397 176.658 400.723 177.65 400.723 179.018V186H399.102ZM408.887 176.557H406.162V186H404.541V176.557H402.627V175.824L404.541 175.238V174.643C404.541 172.012 405.69 170.697 407.988 170.697C408.555 170.697 409.219 170.811 409.98 171.039L409.561 172.338C408.936 172.136 408.402 172.035 407.959 172.035C407.347 172.035 406.895 172.24 406.602 172.65C406.309 173.054 406.162 173.705 406.162 174.604V175.297H408.887V176.557ZM420.078 180.639C420.078 182.383 419.639 183.747 418.76 184.73C417.881 185.707 416.667 186.195 415.117 186.195C414.16 186.195 413.311 185.971 412.568 185.521C411.826 185.072 411.253 184.428 410.85 183.588C410.446 182.748 410.244 181.765 410.244 180.639C410.244 178.894 410.68 177.536 411.553 176.566C412.425 175.59 413.636 175.102 415.186 175.102C416.683 175.102 417.871 175.6 418.75 176.596C419.635 177.592 420.078 178.939 420.078 180.639ZM411.924 180.639C411.924 182.006 412.197 183.048 412.744 183.764C413.291 184.48 414.095 184.838 415.156 184.838C416.217 184.838 417.021 184.483 417.568 183.773C418.122 183.057 418.398 182.012 418.398 180.639C418.398 179.278 418.122 178.246 417.568 177.543C417.021 176.833 416.211 176.479 415.137 176.479C414.076 176.479 413.275 176.827 412.734 177.523C412.194 178.22 411.924 179.258 411.924 180.639ZM431.689 175.297V176.322L429.707 176.557C429.889 176.785 430.052 177.084 430.195 177.455C430.339 177.82 430.41 178.233 430.41 178.695C430.41 179.743 430.052 180.58 429.336 181.205C428.62 181.83 427.637 182.143 426.387 182.143C426.068 182.143 425.768 182.117 425.488 182.064C424.798 182.429 424.453 182.888 424.453 183.441C424.453 183.734 424.574 183.952 424.814 184.096C425.055 184.232 425.469 184.301 426.055 184.301H427.949C429.108 184.301 429.997 184.545 430.615 185.033C431.24 185.521 431.553 186.231 431.553 187.162C431.553 188.347 431.077 189.249 430.127 189.867C429.176 190.492 427.79 190.805 425.967 190.805C424.567 190.805 423.486 190.544 422.725 190.023C421.969 189.503 421.592 188.767 421.592 187.816C421.592 187.165 421.8 186.602 422.217 186.127C422.633 185.652 423.219 185.329 423.975 185.16C423.701 185.036 423.47 184.844 423.281 184.584C423.099 184.324 423.008 184.021 423.008 183.676C423.008 183.285 423.112 182.943 423.32 182.65C423.529 182.357 423.857 182.074 424.307 181.801C423.753 181.573 423.301 181.186 422.949 180.639C422.604 180.092 422.432 179.467 422.432 178.764C422.432 177.592 422.783 176.69 423.486 176.059C424.189 175.421 425.186 175.102 426.475 175.102C427.035 175.102 427.539 175.167 427.988 175.297H431.689ZM423.154 187.797C423.154 188.376 423.398 188.816 423.887 189.115C424.375 189.415 425.075 189.564 425.986 189.564C427.347 189.564 428.353 189.359 429.004 188.949C429.661 188.546 429.99 187.995 429.99 187.299C429.99 186.719 429.811 186.316 429.453 186.088C429.095 185.867 428.421 185.756 427.432 185.756H425.488C424.753 185.756 424.18 185.932 423.77 186.283C423.359 186.635 423.154 187.139 423.154 187.797ZM424.033 178.725C424.033 179.473 424.245 180.04 424.668 180.424C425.091 180.808 425.68 181 426.436 181C428.018 181 428.809 180.232 428.809 178.695C428.809 177.087 428.008 176.283 426.406 176.283C425.645 176.283 425.059 176.488 424.648 176.898C424.238 177.309 424.033 177.917 424.033 178.725ZM438.77 175.102C439.245 175.102 439.671 175.141 440.049 175.219L439.824 176.723C439.382 176.625 438.991 176.576 438.652 176.576C437.786 176.576 437.044 176.928 436.426 177.631C435.814 178.334 435.508 179.21 435.508 180.258V186H433.887V175.297H435.225L435.41 177.279H435.488C435.885 176.583 436.364 176.046 436.924 175.668C437.484 175.29 438.099 175.102 438.77 175.102ZM448.633 186L448.311 184.477H448.232C447.699 185.147 447.165 185.603 446.631 185.844C446.104 186.078 445.443 186.195 444.648 186.195C443.587 186.195 442.754 185.922 442.148 185.375C441.549 184.828 441.25 184.05 441.25 183.041C441.25 180.88 442.979 179.747 446.436 179.643L448.252 179.584V178.92C448.252 178.08 448.07 177.462 447.705 177.064C447.347 176.661 446.771 176.459 445.977 176.459C445.085 176.459 444.076 176.732 442.949 177.279L442.451 176.039C442.979 175.753 443.555 175.528 444.18 175.365C444.811 175.202 445.443 175.121 446.074 175.121C447.35 175.121 448.294 175.404 448.906 175.971C449.525 176.537 449.834 177.445 449.834 178.695V186H448.633ZM444.971 184.857C445.98 184.857 446.771 184.581 447.344 184.027C447.923 183.474 448.213 182.699 448.213 181.703V180.736L446.592 180.805C445.303 180.85 444.372 181.052 443.799 181.41C443.232 181.762 442.949 182.312 442.949 183.061C442.949 183.646 443.125 184.092 443.477 184.398C443.835 184.704 444.333 184.857 444.971 184.857ZM458.164 186.195C457.467 186.195 456.829 186.068 456.25 185.814C455.677 185.554 455.195 185.157 454.805 184.623H454.688C454.766 185.248 454.805 185.84 454.805 186.4V190.805H453.184V175.297H454.502L454.727 176.762H454.805C455.221 176.176 455.706 175.753 456.26 175.492C456.813 175.232 457.448 175.102 458.164 175.102C459.583 175.102 460.677 175.587 461.445 176.557C462.22 177.527 462.607 178.887 462.607 180.639C462.607 182.396 462.214 183.764 461.426 184.74C460.645 185.71 459.557 186.195 458.164 186.195ZM457.93 176.479C456.836 176.479 456.045 176.781 455.557 177.387C455.068 177.992 454.818 178.956 454.805 180.277V180.639C454.805 182.143 455.055 183.22 455.557 183.871C456.058 184.516 456.862 184.838 457.969 184.838C458.893 184.838 459.616 184.464 460.137 183.715C460.664 182.966 460.928 181.934 460.928 180.619C460.928 179.285 460.664 178.262 460.137 177.553C459.616 176.837 458.88 176.479 457.93 176.479ZM472.773 186V179.076C472.773 178.204 472.575 177.553 472.178 177.123C471.781 176.693 471.159 176.479 470.312 176.479C469.186 176.479 468.363 176.785 467.842 177.396C467.327 178.008 467.07 179.011 467.07 180.404V186H465.449V170.805H467.07V175.404C467.07 175.958 467.044 176.417 466.992 176.781H467.09C467.409 176.267 467.861 175.863 468.447 175.57C469.04 175.271 469.714 175.121 470.469 175.121C471.777 175.121 472.757 175.434 473.408 176.059C474.066 176.677 474.395 177.663 474.395 179.018V186H472.773ZM479.355 186H477.734V175.297H479.355V186ZM477.598 172.396C477.598 172.025 477.689 171.755 477.871 171.586C478.053 171.41 478.281 171.322 478.555 171.322C478.815 171.322 479.04 171.41 479.229 171.586C479.417 171.762 479.512 172.032 479.512 172.396C479.512 172.761 479.417 173.035 479.229 173.217C479.04 173.393 478.815 173.48 478.555 173.48C478.281 173.48 478.053 173.393 477.871 173.217C477.689 173.035 477.598 172.761 477.598 172.396ZM487.07 186.195C485.521 186.195 484.32 185.72 483.467 184.77C482.62 183.812 482.197 182.462 482.197 180.717C482.197 178.926 482.627 177.543 483.486 176.566C484.352 175.59 485.583 175.102 487.178 175.102C487.692 175.102 488.206 175.157 488.721 175.268C489.235 175.378 489.639 175.508 489.932 175.658L489.434 177.035C489.076 176.892 488.685 176.775 488.262 176.684C487.839 176.586 487.464 176.537 487.139 176.537C484.964 176.537 483.877 177.924 483.877 180.697C483.877 182.012 484.141 183.021 484.668 183.725C485.202 184.428 485.99 184.779 487.031 184.779C487.923 184.779 488.838 184.587 489.775 184.203V185.639C489.059 186.01 488.158 186.195 487.07 186.195ZM499.229 183.08C499.229 184.076 498.857 184.844 498.115 185.385C497.373 185.925 496.331 186.195 494.99 186.195C493.571 186.195 492.464 185.971 491.67 185.521V184.018C492.184 184.278 492.734 184.483 493.32 184.633C493.913 184.783 494.482 184.857 495.029 184.857C495.876 184.857 496.527 184.724 496.982 184.457C497.438 184.184 497.666 183.77 497.666 183.217C497.666 182.8 497.484 182.445 497.119 182.152C496.761 181.853 496.058 181.501 495.01 181.098C494.014 180.727 493.304 180.404 492.881 180.131C492.464 179.851 492.152 179.535 491.943 179.184C491.742 178.832 491.641 178.412 491.641 177.924C491.641 177.051 491.995 176.365 492.705 175.863C493.415 175.355 494.388 175.102 495.625 175.102C496.777 175.102 497.904 175.336 499.004 175.805L498.428 177.123C497.354 176.68 496.38 176.459 495.508 176.459C494.74 176.459 494.16 176.579 493.77 176.82C493.379 177.061 493.184 177.393 493.184 177.816C493.184 178.103 493.255 178.347 493.398 178.549C493.548 178.751 493.786 178.943 494.111 179.125C494.437 179.307 495.062 179.571 495.986 179.916C497.256 180.378 498.112 180.844 498.555 181.312C499.004 181.781 499.229 182.37 499.229 183.08ZM393.301 213L392.979 211.477H392.9C392.367 212.147 391.833 212.603 391.299 212.844C390.771 213.078 390.111 213.195 389.316 213.195C388.255 213.195 387.422 212.922 386.816 212.375C386.217 211.828 385.918 211.05 385.918 210.041C385.918 207.88 387.646 206.747 391.104 206.643L392.92 206.584V205.92C392.92 205.08 392.738 204.462 392.373 204.064C392.015 203.661 391.439 203.459 390.645 203.459C389.753 203.459 388.743 203.732 387.617 204.279L387.119 203.039C387.646 202.753 388.223 202.528 388.848 202.365C389.479 202.202 390.111 202.121 390.742 202.121C392.018 202.121 392.962 202.404 393.574 202.971C394.193 203.537 394.502 204.445 394.502 205.695V213H393.301ZM389.639 211.857C390.648 211.857 391.439 211.581 392.012 211.027C392.591 210.474 392.881 209.699 392.881 208.703V207.736L391.26 207.805C389.971 207.85 389.04 208.052 388.467 208.41C387.9 208.762 387.617 209.312 387.617 210.061C387.617 210.646 387.793 211.092 388.145 211.398C388.503 211.704 389.001 211.857 389.639 211.857ZM405.176 213V206.076C405.176 205.204 404.977 204.553 404.58 204.123C404.183 203.693 403.561 203.479 402.715 203.479C401.595 203.479 400.775 203.781 400.254 204.387C399.733 204.992 399.473 205.992 399.473 207.385V213H397.852V202.297H399.17L399.434 203.762H399.512C399.844 203.234 400.309 202.827 400.908 202.541C401.507 202.248 402.174 202.102 402.91 202.102C404.199 202.102 405.169 202.414 405.82 203.039C406.471 203.658 406.797 204.65 406.797 206.018V213H405.176ZM417.422 211.564H417.334C416.585 212.652 415.465 213.195 413.975 213.195C412.575 213.195 411.484 212.717 410.703 211.76C409.928 210.803 409.541 209.442 409.541 207.678C409.541 205.913 409.932 204.543 410.713 203.566C411.494 202.59 412.581 202.102 413.975 202.102C415.426 202.102 416.54 202.629 417.314 203.684H417.441L417.373 202.912L417.334 202.16V197.805H418.955V213H417.637L417.422 211.564ZM414.18 211.838C415.286 211.838 416.087 211.538 416.582 210.939C417.083 210.334 417.334 209.361 417.334 208.02V207.678C417.334 206.161 417.08 205.08 416.572 204.436C416.071 203.785 415.267 203.459 414.16 203.459C413.21 203.459 412.48 203.83 411.973 204.572C411.471 205.308 411.221 206.35 411.221 207.697C411.221 209.064 411.471 210.096 411.973 210.793C412.474 211.49 413.21 211.838 414.18 211.838ZM432.578 213.195C431.882 213.195 431.243 213.068 430.664 212.814C430.091 212.554 429.609 212.157 429.219 211.623H429.102C429.18 212.248 429.219 212.84 429.219 213.4V217.805H427.598V202.297H428.916L429.141 203.762H429.219C429.635 203.176 430.12 202.753 430.674 202.492C431.227 202.232 431.862 202.102 432.578 202.102C433.997 202.102 435.091 202.587 435.859 203.557C436.634 204.527 437.021 205.887 437.021 207.639C437.021 209.396 436.628 210.764 435.84 211.74C435.059 212.71 433.971 213.195 432.578 213.195ZM432.344 203.479C431.25 203.479 430.459 203.781 429.971 204.387C429.482 204.992 429.232 205.956 429.219 207.277V207.639C429.219 209.143 429.469 210.22 429.971 210.871C430.472 211.516 431.276 211.838 432.383 211.838C433.307 211.838 434.03 211.464 434.551 210.715C435.078 209.966 435.342 208.934 435.342 207.619C435.342 206.285 435.078 205.262 434.551 204.553C434.03 203.837 433.294 203.479 432.344 203.479ZM449.102 207.639C449.102 209.383 448.662 210.747 447.783 211.73C446.904 212.707 445.69 213.195 444.141 213.195C443.184 213.195 442.334 212.971 441.592 212.521C440.85 212.072 440.277 211.428 439.873 210.588C439.469 209.748 439.268 208.765 439.268 207.639C439.268 205.894 439.704 204.536 440.576 203.566C441.449 202.59 442.66 202.102 444.209 202.102C445.706 202.102 446.895 202.6 447.773 203.596C448.659 204.592 449.102 205.939 449.102 207.639ZM440.947 207.639C440.947 209.006 441.221 210.048 441.768 210.764C442.314 211.48 443.118 211.838 444.18 211.838C445.241 211.838 446.045 211.483 446.592 210.773C447.145 210.057 447.422 209.012 447.422 207.639C447.422 206.278 447.145 205.246 446.592 204.543C446.045 203.833 445.234 203.479 444.16 203.479C443.099 203.479 442.298 203.827 441.758 204.523C441.217 205.22 440.947 206.258 440.947 207.639ZM458.857 210.08C458.857 211.076 458.486 211.844 457.744 212.385C457.002 212.925 455.96 213.195 454.619 213.195C453.2 213.195 452.093 212.971 451.299 212.521V211.018C451.813 211.278 452.363 211.483 452.949 211.633C453.542 211.783 454.111 211.857 454.658 211.857C455.505 211.857 456.156 211.724 456.611 211.457C457.067 211.184 457.295 210.77 457.295 210.217C457.295 209.8 457.113 209.445 456.748 209.152C456.39 208.853 455.687 208.501 454.639 208.098C453.643 207.727 452.933 207.404 452.51 207.131C452.093 206.851 451.781 206.535 451.572 206.184C451.37 205.832 451.27 205.412 451.27 204.924C451.27 204.051 451.624 203.365 452.334 202.863C453.044 202.355 454.017 202.102 455.254 202.102C456.406 202.102 457.533 202.336 458.633 202.805L458.057 204.123C456.982 203.68 456.009 203.459 455.137 203.459C454.368 203.459 453.789 203.579 453.398 203.82C453.008 204.061 452.812 204.393 452.812 204.816C452.812 205.103 452.884 205.347 453.027 205.549C453.177 205.751 453.415 205.943 453.74 206.125C454.066 206.307 454.691 206.571 455.615 206.916C456.885 207.378 457.741 207.844 458.184 208.312C458.633 208.781 458.857 209.37 458.857 210.08ZM464.961 211.857C465.247 211.857 465.524 211.838 465.791 211.799C466.058 211.753 466.27 211.708 466.426 211.662V212.902C466.25 212.987 465.99 213.055 465.645 213.107C465.306 213.166 465 213.195 464.727 213.195C462.656 213.195 461.621 212.105 461.621 209.924V203.557H460.088V202.775L461.621 202.102L462.305 199.816H463.242V202.297H466.348V203.557H463.242V209.855C463.242 210.5 463.395 210.995 463.701 211.34C464.007 211.685 464.427 211.857 464.961 211.857ZM473.096 213.195C471.514 213.195 470.264 212.714 469.346 211.75C468.434 210.786 467.979 209.449 467.979 207.736C467.979 206.011 468.402 204.641 469.248 203.625C470.101 202.609 471.243 202.102 472.676 202.102C474.017 202.102 475.078 202.544 475.859 203.43C476.641 204.309 477.031 205.471 477.031 206.916V207.941H469.658C469.691 209.198 470.007 210.152 470.605 210.803C471.211 211.454 472.061 211.779 473.154 211.779C474.307 211.779 475.446 211.538 476.572 211.057V212.502C475.999 212.749 475.456 212.925 474.941 213.029C474.434 213.14 473.818 213.195 473.096 213.195ZM472.656 203.459C471.797 203.459 471.11 203.739 470.596 204.299C470.088 204.859 469.788 205.633 469.697 206.623H475.293C475.293 205.601 475.065 204.82 474.609 204.279C474.154 203.732 473.503 203.459 472.656 203.459ZM484.688 202.102C485.163 202.102 485.589 202.141 485.967 202.219L485.742 203.723C485.299 203.625 484.909 203.576 484.57 203.576C483.704 203.576 482.962 203.928 482.344 204.631C481.732 205.334 481.426 206.21 481.426 207.258V213H479.805V202.297H481.143L481.328 204.279H481.406C481.803 203.583 482.282 203.046 482.842 202.668C483.402 202.29 484.017 202.102 484.688 202.102ZM494.873 210.08C494.873 211.076 494.502 211.844 493.76 212.385C493.018 212.925 491.976 213.195 490.635 213.195C489.215 213.195 488.109 212.971 487.314 212.521V211.018C487.829 211.278 488.379 211.483 488.965 211.633C489.557 211.783 490.127 211.857 490.674 211.857C491.52 211.857 492.171 211.724 492.627 211.457C493.083 211.184 493.311 210.77 493.311 210.217C493.311 209.8 493.128 209.445 492.764 209.152C492.406 208.853 491.702 208.501 490.654 208.098C489.658 207.727 488.949 207.404 488.525 207.131C488.109 206.851 487.796 206.535 487.588 206.184C487.386 205.832 487.285 205.412 487.285 204.924C487.285 204.051 487.64 203.365 488.35 202.863C489.059 202.355 490.033 202.102 491.27 202.102C492.422 202.102 493.548 202.336 494.648 202.805L494.072 204.123C492.998 203.68 492.025 203.459 491.152 203.459C490.384 203.459 489.805 203.579 489.414 203.82C489.023 204.061 488.828 204.393 488.828 204.816C488.828 205.103 488.9 205.347 489.043 205.549C489.193 205.751 489.43 205.943 489.756 206.125C490.081 206.307 490.706 206.571 491.631 206.916C492.9 207.378 493.757 207.844 494.199 208.312C494.648 208.781 494.873 209.37 494.873 210.08Z" fill="black"/>
<g filter="url(#filter2_d)">
<path d="M760.617 108.16C760.617 117.079 757.915 124.664 752.512 130.914C747.108 137.164 739.523 141.461 729.758 143.805V144.391C741.281 145.823 750.005 149.339 755.93 154.938C761.854 160.471 764.816 167.958 764.816 177.398C764.816 191.135 759.836 201.845 749.875 209.527C739.914 217.145 725.689 220.953 707.199 220.953C691.704 220.953 677.967 218.382 665.988 213.238V187.555C671.522 190.354 677.609 192.633 684.25 194.391C690.891 196.148 697.466 197.027 703.977 197.027C713.938 197.027 721.294 195.335 726.047 191.949C730.799 188.564 733.176 183.128 733.176 175.641C733.176 168.935 730.441 164.182 724.973 161.383C719.504 158.583 710.78 157.184 698.801 157.184H687.961V134.039H698.996C710.064 134.039 718.137 132.607 723.215 129.742C728.358 126.812 730.93 121.832 730.93 114.801C730.93 103.993 724.159 98.5898 710.617 98.5898C705.93 98.5898 701.145 99.3711 696.262 100.934C691.444 102.496 686.073 105.198 680.148 109.039L666.184 88.2383C679.204 78.8633 694.732 74.1758 712.766 74.1758C727.544 74.1758 739.198 77.1706 747.727 83.1602C756.32 89.1497 760.617 97.4831 760.617 108.16Z" fill="#FFB5B5"/>
</g>
<path d="M717.963 159V144.723H719.623V157.496H725.922V159H717.963ZM734.691 159L734.369 157.477H734.291C733.757 158.147 733.223 158.603 732.689 158.844C732.162 159.078 731.501 159.195 730.707 159.195C729.646 159.195 728.812 158.922 728.207 158.375C727.608 157.828 727.309 157.05 727.309 156.041C727.309 153.88 729.037 152.747 732.494 152.643L734.311 152.584V151.92C734.311 151.08 734.128 150.462 733.764 150.064C733.406 149.661 732.829 149.459 732.035 149.459C731.143 149.459 730.134 149.732 729.008 150.279L728.51 149.039C729.037 148.753 729.613 148.528 730.238 148.365C730.87 148.202 731.501 148.121 732.133 148.121C733.409 148.121 734.353 148.404 734.965 148.971C735.583 149.537 735.893 150.445 735.893 151.695V159H734.691ZM731.029 157.857C732.038 157.857 732.829 157.581 733.402 157.027C733.982 156.474 734.271 155.699 734.271 154.703V153.736L732.65 153.805C731.361 153.85 730.43 154.052 729.857 154.41C729.291 154.762 729.008 155.312 729.008 156.061C729.008 156.646 729.184 157.092 729.535 157.398C729.893 157.704 730.391 157.857 731.029 157.857ZM743.52 159.195C741.97 159.195 740.769 158.72 739.916 157.77C739.07 156.812 738.646 155.462 738.646 153.717C738.646 151.926 739.076 150.543 739.936 149.566C740.801 148.59 742.032 148.102 743.627 148.102C744.141 148.102 744.656 148.157 745.17 148.268C745.684 148.378 746.088 148.508 746.381 148.658L745.883 150.035C745.525 149.892 745.134 149.775 744.711 149.684C744.288 149.586 743.913 149.537 743.588 149.537C741.413 149.537 740.326 150.924 740.326 153.697C740.326 155.012 740.59 156.021 741.117 156.725C741.651 157.428 742.439 157.779 743.48 157.779C744.372 157.779 745.287 157.587 746.225 157.203V158.639C745.508 159.01 744.607 159.195 743.52 159.195ZM750.375 153.521C750.655 153.124 751.081 152.604 751.654 151.959L755.111 148.297H757.035L752.699 152.857L757.338 159H755.375L751.596 153.941L750.375 154.996V159H748.773V143.805H750.375V151.861C750.375 152.219 750.349 152.773 750.297 153.521H750.375ZM773.715 153.639C773.715 155.383 773.275 156.747 772.396 157.73C771.518 158.707 770.303 159.195 768.754 159.195C767.797 159.195 766.947 158.971 766.205 158.521C765.463 158.072 764.89 157.428 764.486 156.588C764.083 155.748 763.881 154.765 763.881 153.639C763.881 151.894 764.317 150.536 765.189 149.566C766.062 148.59 767.273 148.102 768.822 148.102C770.32 148.102 771.508 148.6 772.387 149.596C773.272 150.592 773.715 151.939 773.715 153.639ZM765.561 153.639C765.561 155.006 765.834 156.048 766.381 156.764C766.928 157.48 767.732 157.838 768.793 157.838C769.854 157.838 770.658 157.483 771.205 156.773C771.758 156.057 772.035 155.012 772.035 153.639C772.035 152.278 771.758 151.246 771.205 150.543C770.658 149.833 769.848 149.479 768.773 149.479C767.712 149.479 766.911 149.827 766.371 150.523C765.831 151.22 765.561 152.258 765.561 153.639ZM781.391 149.557H778.666V159H777.045V149.557H775.131V148.824L777.045 148.238V147.643C777.045 145.012 778.194 143.697 780.492 143.697C781.059 143.697 781.723 143.811 782.484 144.039L782.064 145.338C781.439 145.136 780.906 145.035 780.463 145.035C779.851 145.035 779.398 145.24 779.105 145.65C778.812 146.054 778.666 146.705 778.666 147.604V148.297H781.391V149.557ZM719.34 186H717.719V175.297H719.34V186ZM717.582 172.396C717.582 172.025 717.673 171.755 717.855 171.586C718.038 171.41 718.266 171.322 718.539 171.322C718.799 171.322 719.024 171.41 719.213 171.586C719.402 171.762 719.496 172.032 719.496 172.396C719.496 172.761 719.402 173.035 719.213 173.217C719.024 173.393 718.799 173.48 718.539 173.48C718.266 173.48 718.038 173.393 717.855 173.217C717.673 173.035 717.582 172.761 717.582 172.396ZM736.42 186V179.037C736.42 178.184 736.238 177.546 735.873 177.123C735.508 176.693 734.942 176.479 734.174 176.479C733.165 176.479 732.419 176.768 731.938 177.348C731.456 177.927 731.215 178.819 731.215 180.023V186H729.594V179.037C729.594 178.184 729.411 177.546 729.047 177.123C728.682 176.693 728.113 176.479 727.338 176.479C726.322 176.479 725.577 176.785 725.102 177.396C724.633 178.002 724.398 178.998 724.398 180.385V186H722.777V175.297H724.096L724.359 176.762H724.438C724.743 176.241 725.173 175.834 725.727 175.541C726.286 175.248 726.911 175.102 727.602 175.102C729.275 175.102 730.368 175.707 730.883 176.918H730.961C731.28 176.358 731.742 175.915 732.348 175.59C732.953 175.264 733.643 175.102 734.418 175.102C735.629 175.102 736.534 175.414 737.133 176.039C737.738 176.658 738.041 177.65 738.041 179.018V186H736.42ZM755.033 186V179.037C755.033 178.184 754.851 177.546 754.486 177.123C754.122 176.693 753.555 176.479 752.787 176.479C751.778 176.479 751.033 176.768 750.551 177.348C750.069 177.927 749.828 178.819 749.828 180.023V186H748.207V179.037C748.207 178.184 748.025 177.546 747.66 177.123C747.296 176.693 746.726 176.479 745.951 176.479C744.936 176.479 744.19 176.785 743.715 177.396C743.246 178.002 743.012 178.998 743.012 180.385V186H741.391V175.297H742.709L742.973 176.762H743.051C743.357 176.241 743.786 175.834 744.34 175.541C744.9 175.248 745.525 175.102 746.215 175.102C747.888 175.102 748.982 175.707 749.496 176.918H749.574C749.893 176.358 750.355 175.915 750.961 175.59C751.566 175.264 752.257 175.102 753.031 175.102C754.242 175.102 755.147 175.414 755.746 176.039C756.352 176.658 756.654 177.65 756.654 179.018V186H755.033ZM764.525 186.195C762.943 186.195 761.693 185.714 760.775 184.75C759.864 183.786 759.408 182.449 759.408 180.736C759.408 179.011 759.831 177.641 760.678 176.625C761.531 175.609 762.673 175.102 764.105 175.102C765.447 175.102 766.508 175.544 767.289 176.43C768.07 177.309 768.461 178.471 768.461 179.916V180.941H761.088C761.12 182.198 761.436 183.152 762.035 183.803C762.641 184.454 763.49 184.779 764.584 184.779C765.736 184.779 766.876 184.538 768.002 184.057V185.502C767.429 185.749 766.885 185.925 766.371 186.029C765.863 186.14 765.248 186.195 764.525 186.195ZM764.086 176.459C763.227 176.459 762.54 176.739 762.025 177.299C761.518 177.859 761.218 178.633 761.127 179.623H766.723C766.723 178.601 766.495 177.82 766.039 177.279C765.583 176.732 764.932 176.459 764.086 176.459ZM778.52 184.564H778.432C777.683 185.652 776.563 186.195 775.072 186.195C773.673 186.195 772.582 185.717 771.801 184.76C771.026 183.803 770.639 182.442 770.639 180.678C770.639 178.913 771.029 177.543 771.811 176.566C772.592 175.59 773.679 175.102 775.072 175.102C776.524 175.102 777.637 175.629 778.412 176.684H778.539L778.471 175.912L778.432 175.16V170.805H780.053V186H778.734L778.52 184.564ZM775.277 184.838C776.384 184.838 777.185 184.538 777.68 183.939C778.181 183.334 778.432 182.361 778.432 181.02V180.678C778.432 179.161 778.178 178.08 777.67 177.436C777.169 176.785 776.365 176.459 775.258 176.459C774.307 176.459 773.578 176.83 773.07 177.572C772.569 178.308 772.318 179.35 772.318 180.697C772.318 182.064 772.569 183.096 773.07 183.793C773.572 184.49 774.307 184.838 775.277 184.838ZM785.121 186H783.5V175.297H785.121V186ZM783.363 172.396C783.363 172.025 783.454 171.755 783.637 171.586C783.819 171.41 784.047 171.322 784.32 171.322C784.581 171.322 784.805 171.41 784.994 171.586C785.183 171.762 785.277 172.032 785.277 172.396C785.277 172.761 785.183 173.035 784.994 173.217C784.805 173.393 784.581 173.48 784.32 173.48C784.047 173.48 783.819 173.393 783.637 173.217C783.454 173.035 783.363 172.761 783.363 172.396ZM795.141 186L794.818 184.477H794.74C794.206 185.147 793.673 185.603 793.139 185.844C792.611 186.078 791.951 186.195 791.156 186.195C790.095 186.195 789.262 185.922 788.656 185.375C788.057 184.828 787.758 184.05 787.758 183.041C787.758 180.88 789.486 179.747 792.943 179.643L794.76 179.584V178.92C794.76 178.08 794.577 177.462 794.213 177.064C793.855 176.661 793.279 176.459 792.484 176.459C791.592 176.459 790.583 176.732 789.457 177.279L788.959 176.039C789.486 175.753 790.062 175.528 790.688 175.365C791.319 175.202 791.951 175.121 792.582 175.121C793.858 175.121 794.802 175.404 795.414 175.971C796.033 176.537 796.342 177.445 796.342 178.695V186H795.141ZM791.479 184.857C792.488 184.857 793.279 184.581 793.852 184.027C794.431 183.474 794.721 182.699 794.721 181.703V180.736L793.1 180.805C791.811 180.85 790.88 181.052 790.307 181.41C789.74 181.762 789.457 182.312 789.457 183.061C789.457 183.646 789.633 184.092 789.984 184.398C790.342 184.704 790.84 184.857 791.479 184.857ZM803.148 184.857C803.435 184.857 803.712 184.838 803.979 184.799C804.245 184.753 804.457 184.708 804.613 184.662V185.902C804.438 185.987 804.177 186.055 803.832 186.107C803.493 186.166 803.188 186.195 802.914 186.195C800.844 186.195 799.809 185.105 799.809 182.924V176.557H798.275V175.775L799.809 175.102L800.492 172.816H801.43V175.297H804.535V176.557H801.43V182.855C801.43 183.5 801.583 183.995 801.889 184.34C802.195 184.685 802.615 184.857 803.148 184.857ZM811.283 186.195C809.701 186.195 808.451 185.714 807.533 184.75C806.622 183.786 806.166 182.449 806.166 180.736C806.166 179.011 806.589 177.641 807.436 176.625C808.288 175.609 809.431 175.102 810.863 175.102C812.204 175.102 813.266 175.544 814.047 176.43C814.828 177.309 815.219 178.471 815.219 179.916V180.941H807.846C807.878 182.198 808.194 183.152 808.793 183.803C809.398 184.454 810.248 184.779 811.342 184.779C812.494 184.779 813.633 184.538 814.76 184.057V185.502C814.187 185.749 813.643 185.925 813.129 186.029C812.621 186.14 812.006 186.195 811.283 186.195ZM810.844 176.459C809.984 176.459 809.298 176.739 808.783 177.299C808.275 177.859 807.976 178.633 807.885 179.623H813.48C813.48 178.601 813.253 177.82 812.797 177.279C812.341 176.732 811.69 176.459 810.844 176.459ZM720.062 213L716 202.297H717.738L720.043 208.645C720.564 210.129 720.87 211.092 720.961 211.535H721.039C721.111 211.19 721.335 210.477 721.713 209.396C722.097 208.309 722.953 205.943 724.281 202.297H726.02L721.957 213H720.062ZM729.359 213H727.738V202.297H729.359V213ZM727.602 199.396C727.602 199.025 727.693 198.755 727.875 198.586C728.057 198.41 728.285 198.322 728.559 198.322C728.819 198.322 729.044 198.41 729.232 198.586C729.421 198.762 729.516 199.032 729.516 199.396C729.516 199.761 729.421 200.035 729.232 200.217C729.044 200.393 728.819 200.48 728.559 200.48C728.285 200.48 728.057 200.393 727.875 200.217C727.693 200.035 727.602 199.761 727.602 199.396ZM739.701 210.08C739.701 211.076 739.33 211.844 738.588 212.385C737.846 212.925 736.804 213.195 735.463 213.195C734.044 213.195 732.937 212.971 732.143 212.521V211.018C732.657 211.278 733.207 211.483 733.793 211.633C734.385 211.783 734.955 211.857 735.502 211.857C736.348 211.857 736.999 211.724 737.455 211.457C737.911 211.184 738.139 210.77 738.139 210.217C738.139 209.8 737.956 209.445 737.592 209.152C737.234 208.853 736.531 208.501 735.482 208.098C734.486 207.727 733.777 207.404 733.354 207.131C732.937 206.851 732.624 206.535 732.416 206.184C732.214 205.832 732.113 205.412 732.113 204.924C732.113 204.051 732.468 203.365 733.178 202.863C733.887 202.355 734.861 202.102 736.098 202.102C737.25 202.102 738.376 202.336 739.477 202.805L738.9 204.123C737.826 203.68 736.853 203.459 735.98 203.459C735.212 203.459 734.633 203.579 734.242 203.82C733.852 204.061 733.656 204.393 733.656 204.816C733.656 205.103 733.728 205.347 733.871 205.549C734.021 205.751 734.258 205.943 734.584 206.125C734.91 206.307 735.535 206.571 736.459 206.916C737.729 207.378 738.585 207.844 739.027 208.312C739.477 208.781 739.701 209.37 739.701 210.08ZM743.871 202.297V209.24C743.871 210.113 744.07 210.764 744.467 211.193C744.864 211.623 745.486 211.838 746.332 211.838C747.452 211.838 748.269 211.532 748.783 210.92C749.304 210.308 749.564 209.309 749.564 207.922V202.297H751.186V213H749.848L749.613 211.564H749.525C749.193 212.092 748.731 212.495 748.139 212.775C747.553 213.055 746.882 213.195 746.127 213.195C744.825 213.195 743.848 212.886 743.197 212.268C742.553 211.649 742.23 210.66 742.23 209.299V202.297H743.871ZM761.215 213L760.893 211.477H760.814C760.281 212.147 759.747 212.603 759.213 212.844C758.686 213.078 758.025 213.195 757.23 213.195C756.169 213.195 755.336 212.922 754.73 212.375C754.132 211.828 753.832 211.05 753.832 210.041C753.832 207.88 755.561 206.747 759.018 206.643L760.834 206.584V205.92C760.834 205.08 760.652 204.462 760.287 204.064C759.929 203.661 759.353 203.459 758.559 203.459C757.667 203.459 756.658 203.732 755.531 204.279L755.033 203.039C755.561 202.753 756.137 202.528 756.762 202.365C757.393 202.202 758.025 202.121 758.656 202.121C759.932 202.121 760.876 202.404 761.488 202.971C762.107 203.537 762.416 204.445 762.416 205.695V213H761.215ZM757.553 211.857C758.562 211.857 759.353 211.581 759.926 211.027C760.505 210.474 760.795 209.699 760.795 208.703V207.736L759.174 207.805C757.885 207.85 756.954 208.052 756.381 208.41C755.814 208.762 755.531 209.312 755.531 210.061C755.531 210.646 755.707 211.092 756.059 211.398C756.417 211.704 756.915 211.857 757.553 211.857ZM767.387 213H765.766V197.805H767.387V213ZM781 202.121C782.406 202.121 783.497 202.603 784.271 203.566C785.053 204.523 785.443 205.881 785.443 207.639C785.443 209.396 785.049 210.764 784.262 211.74C783.48 212.71 782.393 213.195 781 213.195C780.303 213.195 779.665 213.068 779.086 212.814C778.513 212.554 778.031 212.157 777.641 211.623H777.523L777.182 213H776.02V197.805H777.641V201.496C777.641 202.323 777.615 203.065 777.562 203.723H777.641C778.396 202.655 779.516 202.121 781 202.121ZM780.766 203.479C779.659 203.479 778.861 203.798 778.373 204.436C777.885 205.067 777.641 206.135 777.641 207.639C777.641 209.143 777.891 210.22 778.393 210.871C778.894 211.516 779.698 211.838 780.805 211.838C781.801 211.838 782.543 211.477 783.031 210.754C783.52 210.025 783.764 208.98 783.764 207.619C783.764 206.226 783.52 205.188 783.031 204.504C782.543 203.82 781.788 203.479 780.766 203.479ZM792.807 213.195C791.225 213.195 789.975 212.714 789.057 211.75C788.145 210.786 787.689 209.449 787.689 207.736C787.689 206.011 788.113 204.641 788.959 203.625C789.812 202.609 790.954 202.102 792.387 202.102C793.728 202.102 794.789 202.544 795.57 203.43C796.352 204.309 796.742 205.471 796.742 206.916V207.941H789.369C789.402 209.198 789.717 210.152 790.316 210.803C790.922 211.454 791.771 211.779 792.865 211.779C794.018 211.779 795.157 211.538 796.283 211.057V212.502C795.71 212.749 795.167 212.925 794.652 213.029C794.145 213.14 793.529 213.195 792.807 213.195ZM792.367 203.459C791.508 203.459 790.821 203.739 790.307 204.299C789.799 204.859 789.499 205.633 789.408 206.623H795.004C795.004 205.601 794.776 204.82 794.32 204.279C793.865 203.732 793.214 203.459 792.367 203.459ZM806.84 213V206.076C806.84 205.204 806.641 204.553 806.244 204.123C805.847 203.693 805.225 203.479 804.379 203.479C803.259 203.479 802.439 203.781 801.918 204.387C801.397 204.992 801.137 205.992 801.137 207.385V213H799.516V202.297H800.834L801.098 203.762H801.176C801.508 203.234 801.973 202.827 802.572 202.541C803.171 202.248 803.839 202.102 804.574 202.102C805.863 202.102 806.833 202.414 807.484 203.039C808.135 203.658 808.461 204.65 808.461 206.018V213H806.84ZM816.322 213.195C814.74 213.195 813.49 212.714 812.572 211.75C811.661 210.786 811.205 209.449 811.205 207.736C811.205 206.011 811.628 204.641 812.475 203.625C813.327 202.609 814.47 202.102 815.902 202.102C817.243 202.102 818.305 202.544 819.086 203.43C819.867 204.309 820.258 205.471 820.258 206.916V207.941H812.885C812.917 209.198 813.233 210.152 813.832 210.803C814.438 211.454 815.287 211.779 816.381 211.779C817.533 211.779 818.673 211.538 819.799 211.057V212.502C819.226 212.749 818.682 212.925 818.168 213.029C817.66 213.14 817.045 213.195 816.322 213.195ZM815.883 203.459C815.023 203.459 814.337 203.739 813.822 204.299C813.314 204.859 813.015 205.633 812.924 206.623H818.52C818.52 205.601 818.292 204.82 817.836 204.279C817.38 203.732 816.729 203.459 815.883 203.459ZM827.855 203.557H825.131V213H823.51V203.557H821.596V202.824L823.51 202.238V201.643C823.51 199.012 824.659 197.697 826.957 197.697C827.523 197.697 828.188 197.811 828.949 198.039L828.529 199.338C827.904 199.136 827.37 199.035 826.928 199.035C826.316 199.035 825.863 199.24 825.57 199.65C825.277 200.054 825.131 200.705 825.131 201.604V202.297H827.855V203.557ZM831.43 213H829.809V202.297H831.43V213ZM829.672 199.396C829.672 199.025 829.763 198.755 829.945 198.586C830.128 198.41 830.355 198.322 830.629 198.322C830.889 198.322 831.114 198.41 831.303 198.586C831.492 198.762 831.586 199.032 831.586 199.396C831.586 199.761 831.492 200.035 831.303 200.217C831.114 200.393 830.889 200.48 830.629 200.48C830.355 200.48 830.128 200.393 829.945 200.217C829.763 200.035 829.672 199.761 829.672 199.396ZM838.324 211.857C838.611 211.857 838.887 211.838 839.154 211.799C839.421 211.753 839.633 211.708 839.789 211.662V212.902C839.613 212.987 839.353 213.055 839.008 213.107C838.669 213.166 838.363 213.195 838.09 213.195C836.02 213.195 834.984 212.105 834.984 209.924V203.557H833.451V202.775L834.984 202.102L835.668 199.816H836.605V202.297H839.711V203.557H836.605V209.855C836.605 210.5 836.758 210.995 837.064 211.34C837.37 211.685 837.79 211.857 838.324 211.857ZM848.842 210.08C848.842 211.076 848.471 211.844 847.729 212.385C846.986 212.925 845.945 213.195 844.604 213.195C843.184 213.195 842.077 212.971 841.283 212.521V211.018C841.798 211.278 842.348 211.483 842.934 211.633C843.526 211.783 844.096 211.857 844.643 211.857C845.489 211.857 846.14 211.724 846.596 211.457C847.051 211.184 847.279 210.77 847.279 210.217C847.279 209.8 847.097 209.445 846.732 209.152C846.374 208.853 845.671 208.501 844.623 208.098C843.627 207.727 842.917 207.404 842.494 207.131C842.077 206.851 841.765 206.535 841.557 206.184C841.355 205.832 841.254 205.412 841.254 204.924C841.254 204.051 841.609 203.365 842.318 202.863C843.028 202.355 844.001 202.102 845.238 202.102C846.391 202.102 847.517 202.336 848.617 202.805L848.041 204.123C846.967 203.68 845.993 203.459 845.121 203.459C844.353 203.459 843.773 203.579 843.383 203.82C842.992 204.061 842.797 204.393 842.797 204.816C842.797 205.103 842.868 205.347 843.012 205.549C843.161 205.751 843.399 205.943 843.725 206.125C844.05 206.307 844.675 206.571 845.6 206.916C846.869 207.378 847.725 207.844 848.168 208.312C848.617 208.781 848.842 209.37 848.842 210.08Z" fill="black"/>
<defs>
<filter id="filter0_d" x="8.1875" y="76.2266" width="78.8008" height="150.773" filterUnits="userSpaceOnUse" color-interpolation-filters="sRGB">
<feFlood flood-opacity="0" result="BackgroundImageFix"/>
<feColorMatrix in="SourceAlpha" type="matrix" values="0 0 0 0 0 0 0 0 0 0 0 0 0 0 0 0 0 0 127 0"/>
<feOffset dy="4"/>
<feGaussianBlur stdDeviation="2"/>
<feColorMatrix type="matrix" values="0 0 0 0 0 0 0 0 0 0 0 0 0 0 0 0 0 0 0.25 0"/>
<feBlend mode="normal" in2="BackgroundImageFix" result="effect1_dropShadow"/>
<feBlend mode="normal" in="SourceGraphic" in2="effect1_dropShadow" result="shape"/>
</filter>
<filter id="filter1_d" x="332.988" y="74.1758" width="108.195" height="152.824" filterUnits="userSpaceOnUse" color-interpolation-filters="sRGB">
<feFlood flood-opacity="0" result="BackgroundImageFix"/>
<feColorMatrix in="SourceAlpha" type="matrix" values="0 0 0 0 0 0 0 0 0 0 0 0 0 0 0 0 0 0 127 0"/>
<feOffset dy="4"/>
<feGaussianBlur stdDeviation="2"/>
<feColorMatrix type="matrix" values="0 0 0 0 0 0 0 0 0 0 0 0 0 0 0 0 0 0 0.25 0"/>
<feBlend mode="normal" in2="BackgroundImageFix" result="effect1_dropShadow"/>
<feBlend mode="normal" in="SourceGraphic" in2="effect1_dropShadow" result="shape"/>
</filter>
<filter id="filter2_d" x="661.988" y="74.1758" width="106.828" height="154.777" filterUnits="userSpaceOnUse" color-interpolation-filters="sRGB">
<feFlood flood-opacity="0" result="BackgroundImageFix"/>
<feColorMatrix in="SourceAlpha" type="matrix" values="0 0 0 0 0 0 0 0 0 0 0 0 0 0 0 0 0 0 127 0"/>
<feOffset dy="4"/>
<feGaussianBlur stdDeviation="2"/>
<feColorMatrix type="matrix" values="0 0 0 0 0 0 0 0 0 0 0 0 0 0 0 0 0 0 0.25 0"/>
<feBlend mode="normal" in2="BackgroundImageFix" result="effect1_dropShadow"/>
<feBlend mode="normal" in="SourceGraphic" in2="effect1_dropShadow" result="shape"/>
</filter>
</defs>
</svg>
