<svg width="34" height="34" viewBox="0 0 34 34" fill="none" xmlns="http://www.w3.org/2000/svg">
<g clip-path="url(#clip0)">
<path d="M13.6699 17.849C13.6699 18.6662 13.0043 19.3318 12.1871 19.3318C11.3696 19.3318 10.7036 18.666 10.7036 17.849V11.622C10.7036 10.805 11.3696 10.1392 12.1871 10.1392C13.0043 10.1392 13.6699 10.8047 13.6699 11.622V17.849Z" stroke="white" stroke-width="1.03228"/>
<path d="M8.57562 18.6971C8.57562 19.359 8.03731 19.8975 7.37596 19.8975C6.71516 19.8975 6.1763 19.3589 6.1763 18.6971V13.6025C6.1763 12.9416 6.71503 12.4029 7.37596 12.4029C8.03744 12.4029 8.57562 12.9415 8.57562 13.6025V18.6971Z" stroke="white" stroke-width="1.03228"/>
<path d="M15.0456 1.61524L15.0456 1.61525L15.0474 1.6216L18.3174 13.206C17.2468 13.1987 16.6052 13.1754 16.1938 13.1604C16.1595 13.1591 16.1268 13.1579 16.0956 13.1568L16.0667 13.1558C15.9683 13.1522 15.8804 13.1491 15.7998 13.1475V11.622C15.7998 10.204 14.979 8.97567 13.7893 8.38513L12.1807 2.3832C12.1806 2.38314 12.1806 2.38309 12.1806 2.38303C11.9678 1.58648 12.4404 0.778124 13.2295 0.567214L13.2301 0.567038C14.0182 0.35529 14.8336 0.825511 15.0456 1.61524Z" stroke="white" stroke-width="1.03228"/>
<path d="M24.8959 2.69L24.9014 2.67392L24.9058 2.65751C25.2484 1.38134 26.9658 1.16355 27.6229 2.29851C27.8213 2.64296 27.8737 3.04084 27.7709 3.42434L27.7686 3.43287L27.7666 3.44147L25.1784 14.602L25.1134 14.552C24.5564 14.0131 23.7065 13.7633 22.9098 13.635C22.3455 13.5442 21.7557 13.507 21.218 13.4925L24.8959 2.69Z" stroke="white" stroke-width="1.03228"/>
<path d="M23.6341 16.0827L23.6344 16.083C24.4154 16.8634 24.5595 17.0074 24.7036 17.1515C24.7777 17.2256 24.8519 17.2998 25.0128 17.4607C26.0519 18.4997 26.6906 19.9431 26.6906 21.5117V25.2079C26.6906 29.7708 22.9779 33.484 18.4152 33.484H14.4523C9.88956 33.484 6.1763 29.7707 6.1763 25.2079V21.8047C7.53334 22.3313 9.10902 21.904 10.0102 20.7335C11.9057 22.1871 14.6796 21.3565 15.5392 19.2098C16.4024 19.9085 17.5019 20.3285 18.6976 20.3285H20.1992C18.5883 20.7091 17.1754 21.2217 16.1053 22.0619C14.7347 23.138 13.9839 24.7022 13.9839 27V27.0034C13.9839 27.1587 13.9838 27.6861 14.051 28.1828C14.0841 28.4277 14.1384 28.7047 14.2366 28.9337C14.3166 29.1199 14.5334 29.5161 15 29.5161C15.4666 29.5161 15.6834 29.1199 15.7634 28.9337C15.8616 28.7047 15.9159 28.4277 15.949 28.1828C16.0162 27.6861 16.0161 27.1587 16.0161 27.0034V27C16.0161 25.1606 16.6383 24.1104 17.6505 23.4274C18.7165 22.708 20.2726 22.3542 22.2351 22.0926L22.2352 22.0926C22.7637 22.022 23.1588 21.571 23.1588 21.0374C23.1588 20.4058 23.0001 19.8196 22.8 19.3642C22.6996 19.1358 22.5852 18.9322 22.4676 18.7661C22.3582 18.6115 22.218 18.4491 22.0533 18.3479L22.0464 18.3436L22.0394 18.3396C22.0366 18.338 22.0332 18.336 22.0292 18.3336C21.9909 18.3108 21.8978 18.2554 21.7559 18.2279C21.6453 18.2064 21.5062 18.2011 21.329 18.1984C21.1159 18.1951 20.783 18.1959 20.2534 18.1972C19.8563 18.1982 19.3485 18.1995 18.6976 18.1995C17.1003 18.1995 15.8 16.8991 15.8 15.3018C15.8 15.2637 15.8287 15.2339 15.8672 15.2339H21.5856C22.3605 15.2339 23.0867 15.5347 23.6341 16.0827Z" stroke="white" stroke-width="1.03228"/>
</g>
<defs>
<clipPath id="clip0">
<rect width="34" height="34" fill="white"/>
</clipPath>
</defs>
</svg>
