<svg width="308" height="282" viewBox="0 0 308 282" fill="none" xmlns="http://www.w3.org/2000/svg">
<g filter="url(#filter0_d)">
<rect x="4" width="300" height="274" rx="10" fill="white"/>
</g>
<path d="M122.415 158V147.336H126.07C127.276 147.336 128.194 147.578 128.824 148.061C129.454 148.544 129.769 149.265 129.769 150.222C129.769 150.71 129.637 151.149 129.373 151.54C129.11 151.931 128.724 152.233 128.216 152.448C128.792 152.604 129.237 152.9 129.549 153.334C129.867 153.764 130.025 154.282 130.025 154.887C130.025 155.888 129.703 156.657 129.058 157.194C128.419 157.731 127.501 158 126.305 158H122.415ZM124.268 153.188V156.521H126.327C126.908 156.521 127.362 156.376 127.689 156.088C128.016 155.8 128.18 155.4 128.18 154.887C128.18 153.779 127.613 153.212 126.48 153.188H124.268ZM124.268 151.826H126.085C126.661 151.826 127.11 151.696 127.433 151.438C127.76 151.174 127.923 150.803 127.923 150.324C127.923 149.797 127.772 149.416 127.469 149.182C127.171 148.947 126.705 148.83 126.07 148.83H124.268V151.826ZM149.989 152.946C149.989 153.991 149.808 154.909 149.447 155.7C149.086 156.486 148.568 157.092 147.894 157.517C147.225 157.937 146.454 158.146 145.58 158.146C144.716 158.146 143.944 157.937 143.265 157.517C142.592 157.092 142.069 156.489 141.698 155.708C141.332 154.926 141.146 154.025 141.141 153.005V152.404C141.141 151.364 141.325 150.446 141.691 149.65C142.062 148.854 142.582 148.247 143.251 147.827C143.925 147.402 144.696 147.189 145.565 147.189C146.434 147.189 147.203 147.399 147.872 147.819C148.546 148.234 149.066 148.835 149.432 149.621C149.799 150.402 149.984 151.313 149.989 152.353V152.946ZM148.136 152.39C148.136 151.208 147.911 150.302 147.462 149.672C147.018 149.042 146.386 148.728 145.565 148.728C144.764 148.728 144.137 149.042 143.683 149.672C143.234 150.297 143.004 151.184 142.994 152.331V152.946C142.994 154.118 143.221 155.024 143.676 155.664C144.135 156.303 144.769 156.623 145.58 156.623C146.4 156.623 147.03 156.311 147.47 155.686C147.914 155.061 148.136 154.147 148.136 152.946V152.39ZM163.288 156.521H168.129V158H161.435V147.336H163.288V156.521ZM185.346 148.83H182.021V158H180.183V148.83H176.887V147.336H185.346V148.83ZM104.371 180V169.336H107.52C108.462 169.336 109.297 169.546 110.025 169.966C110.757 170.386 111.324 170.981 111.724 171.753C112.125 172.524 112.325 173.408 112.325 174.404V174.939C112.325 175.95 112.122 176.838 111.717 177.605C111.316 178.372 110.743 178.962 109.996 179.377C109.253 179.792 108.401 180 107.439 180H104.371ZM106.224 170.83V178.521H107.432C108.404 178.521 109.148 178.218 109.666 177.612C110.188 177.002 110.455 176.128 110.464 174.99V174.397C110.464 173.24 110.213 172.356 109.71 171.746C109.207 171.135 108.477 170.83 107.52 170.83H106.224ZM130.003 175.239H125.623V178.521H130.743V180H123.77V169.336H130.692V170.83H125.623V173.774H130.003V175.239ZM147.426 177.253C147.426 176.785 147.26 176.423 146.928 176.169C146.6 175.916 146.007 175.659 145.148 175.4C144.288 175.142 143.605 174.854 143.097 174.536C142.125 173.926 141.639 173.13 141.639 172.148C141.639 171.289 141.989 170.581 142.687 170.024C143.39 169.468 144.301 169.189 145.419 169.189C146.161 169.189 146.823 169.326 147.404 169.6C147.985 169.873 148.441 170.264 148.773 170.771C149.105 171.274 149.271 171.833 149.271 172.449H147.426C147.426 171.892 147.25 171.458 146.898 171.145C146.552 170.828 146.054 170.669 145.404 170.669C144.799 170.669 144.327 170.798 143.991 171.057C143.658 171.316 143.492 171.677 143.492 172.141C143.492 172.532 143.673 172.859 144.034 173.123C144.396 173.381 144.992 173.635 145.822 173.884C146.652 174.128 147.318 174.409 147.821 174.727C148.324 175.039 148.693 175.4 148.927 175.811C149.161 176.216 149.279 176.692 149.279 177.239C149.279 178.127 148.937 178.835 148.253 179.363C147.575 179.885 146.652 180.146 145.485 180.146C144.713 180.146 144.003 180.005 143.353 179.722C142.709 179.434 142.206 179.038 141.845 178.535C141.488 178.032 141.31 177.446 141.31 176.777H143.163C143.163 177.383 143.363 177.852 143.763 178.184C144.164 178.516 144.738 178.682 145.485 178.682C146.129 178.682 146.613 178.552 146.935 178.293C147.262 178.03 147.426 177.683 147.426 177.253ZM162.46 180H160.614V169.336H162.46V180ZM182.512 178.616C182.126 179.119 181.591 179.5 180.908 179.758C180.224 180.017 179.448 180.146 178.579 180.146C177.685 180.146 176.894 179.944 176.206 179.539C175.517 179.133 174.985 178.555 174.609 177.803C174.238 177.046 174.045 176.165 174.03 175.159V174.324C174.03 172.712 174.416 171.455 175.188 170.552C175.959 169.644 177.036 169.189 178.418 169.189C179.604 169.189 180.546 169.482 181.245 170.068C181.943 170.654 182.363 171.499 182.504 172.603H180.688C180.483 171.318 179.738 170.676 178.454 170.676C177.624 170.676 176.992 170.977 176.557 171.577C176.128 172.173 175.905 173.049 175.891 174.207V175.027C175.891 176.179 176.132 177.075 176.616 177.715C177.104 178.35 177.78 178.667 178.645 178.667C179.592 178.667 180.266 178.452 180.666 178.022V175.935H178.469V174.529H182.512V178.616ZM202.607 180H200.754L196.001 172.434V180H194.148V169.336H196.001L200.769 176.931V169.336H202.607V180ZM107.227 199.253C107.227 198.785 107.061 198.423 106.729 198.169C106.402 197.916 105.809 197.659 104.949 197.4C104.09 197.142 103.406 196.854 102.898 196.536C101.927 195.926 101.441 195.13 101.441 194.148C101.441 193.289 101.79 192.581 102.488 192.024C103.191 191.468 104.102 191.189 105.22 191.189C105.962 191.189 106.624 191.326 107.205 191.6C107.786 191.873 108.243 192.264 108.575 192.771C108.907 193.274 109.073 193.833 109.073 194.449H107.227C107.227 193.892 107.051 193.458 106.7 193.145C106.353 192.828 105.855 192.669 105.206 192.669C104.6 192.669 104.129 192.798 103.792 193.057C103.46 193.316 103.294 193.677 103.294 194.141C103.294 194.532 103.475 194.859 103.836 195.123C104.197 195.381 104.793 195.635 105.623 195.884C106.453 196.128 107.12 196.409 107.623 196.727C108.125 197.039 108.494 197.4 108.729 197.811C108.963 198.216 109.08 198.692 109.08 199.239C109.08 200.127 108.738 200.835 108.055 201.363C107.376 201.885 106.453 202.146 105.286 202.146C104.515 202.146 103.804 202.005 103.155 201.722C102.51 201.434 102.007 201.038 101.646 200.535C101.29 200.032 101.111 199.446 101.111 198.777H102.964C102.964 199.383 103.165 199.852 103.565 200.184C103.965 200.516 104.539 200.682 105.286 200.682C105.931 200.682 106.414 200.552 106.736 200.293C107.063 200.03 107.227 199.683 107.227 199.253ZM123.785 196.39L126.239 191.336H128.289L124.715 198.074V202H122.855V198.074L119.273 191.336H121.331L123.785 196.39ZM144.503 199.253C144.503 198.785 144.337 198.423 144.005 198.169C143.678 197.916 143.085 197.659 142.225 197.4C141.366 197.142 140.682 196.854 140.175 196.536C139.203 195.926 138.717 195.13 138.717 194.148C138.717 193.289 139.066 192.581 139.764 192.024C140.468 191.468 141.378 191.189 142.496 191.189C143.239 191.189 143.9 191.326 144.481 191.6C145.062 191.873 145.519 192.264 145.851 192.771C146.183 193.274 146.349 193.833 146.349 194.449H144.503C144.503 193.892 144.327 193.458 143.976 193.145C143.629 192.828 143.131 192.669 142.482 192.669C141.876 192.669 141.405 192.798 141.068 193.057C140.736 193.316 140.57 193.677 140.57 194.141C140.57 194.532 140.751 194.859 141.112 195.123C141.473 195.381 142.069 195.635 142.899 195.884C143.729 196.128 144.396 196.409 144.899 196.727C145.402 197.039 145.77 197.4 146.005 197.811C146.239 198.216 146.356 198.692 146.356 199.239C146.356 200.127 146.014 200.835 145.331 201.363C144.652 201.885 143.729 202.146 142.562 202.146C141.791 202.146 141.08 202.005 140.431 201.722C139.786 201.434 139.283 201.038 138.922 200.535C138.566 200.032 138.388 199.446 138.388 198.777H140.241C140.241 199.383 140.441 199.852 140.841 200.184C141.242 200.516 141.815 200.682 142.562 200.682C143.207 200.682 143.69 200.552 144.013 200.293C144.34 200.03 144.503 199.683 144.503 199.253ZM165.287 192.83H161.962V202H160.124V192.83H156.828V191.336H165.287V192.83ZM182.526 197.239H178.147V200.521H183.266V202H176.294V191.336H183.215V192.83H178.147V195.774H182.526V197.239ZM196.777 191.336L199.854 199.51L202.922 191.336H205.317V202H203.472V198.484L203.655 193.782L200.505 202H199.18L196.038 193.79L196.221 198.484V202H194.375V191.336H196.777Z" fill="#494949"/>
<path d="M109.319 119.844C109.1 119.807 108.863 119.789 108.608 119.789C107.66 119.789 107.017 120.193 106.678 121V127H105.233V118.547H106.639L106.662 119.523C107.136 118.768 107.808 118.391 108.678 118.391C108.959 118.391 109.173 118.427 109.319 118.5V119.844ZM115.686 127.156C114.54 127.156 113.608 126.781 112.889 126.031C112.171 125.276 111.811 124.268 111.811 123.008V122.742C111.811 121.904 111.97 121.156 112.288 120.5C112.611 119.839 113.059 119.323 113.632 118.953C114.21 118.578 114.835 118.391 115.507 118.391C116.606 118.391 117.46 118.753 118.069 119.477C118.678 120.201 118.983 121.237 118.983 122.586V123.188H113.257C113.277 124.021 113.52 124.695 113.983 125.211C114.452 125.721 115.046 125.977 115.764 125.977C116.275 125.977 116.707 125.872 117.061 125.664C117.415 125.456 117.725 125.18 117.991 124.836L118.874 125.523C118.165 126.612 117.103 127.156 115.686 127.156ZM115.507 119.578C114.923 119.578 114.434 119.792 114.038 120.219C113.642 120.641 113.397 121.234 113.303 122H117.538V121.891C117.496 121.156 117.298 120.589 116.944 120.188C116.59 119.781 116.111 119.578 115.507 119.578ZM121.991 122.703C121.991 121.406 122.299 120.365 122.913 119.578C123.528 118.786 124.332 118.391 125.327 118.391C126.317 118.391 127.101 118.729 127.679 119.406V115H129.124V127H127.796L127.726 126.094C127.147 126.802 126.343 127.156 125.312 127.156C124.332 127.156 123.533 126.755 122.913 125.953C122.299 125.151 121.991 124.104 121.991 122.812V122.703ZM123.437 122.867C123.437 123.826 123.634 124.576 124.03 125.117C124.426 125.659 124.973 125.93 125.671 125.93C126.588 125.93 127.257 125.518 127.679 124.695V120.812C127.246 120.016 126.582 119.617 125.687 119.617C124.978 119.617 124.426 119.891 124.03 120.438C123.634 120.984 123.437 121.794 123.437 122.867ZM136.562 127.156C135.416 127.156 134.484 126.781 133.765 126.031C133.046 125.276 132.687 124.268 132.687 123.008V122.742C132.687 121.904 132.846 121.156 133.163 120.5C133.486 119.839 133.934 119.323 134.507 118.953C135.085 118.578 135.71 118.391 136.382 118.391C137.481 118.391 138.335 118.753 138.945 119.477C139.554 120.201 139.859 121.237 139.859 122.586V123.188H134.132C134.153 124.021 134.395 124.695 134.859 125.211C135.327 125.721 135.921 125.977 136.64 125.977C137.15 125.977 137.583 125.872 137.937 125.664C138.291 125.456 138.601 125.18 138.867 124.836L139.749 125.523C139.041 126.612 137.979 127.156 136.562 127.156ZM136.382 119.578C135.799 119.578 135.309 119.792 134.913 120.219C134.518 120.641 134.273 121.234 134.179 122H138.413V121.891C138.372 121.156 138.174 120.589 137.82 120.188C137.466 119.781 136.986 119.578 136.382 119.578ZM148.14 124.758C148.14 124.367 147.992 124.065 147.695 123.852C147.403 123.633 146.89 123.445 146.156 123.289C145.427 123.133 144.846 122.945 144.414 122.727C143.987 122.508 143.669 122.247 143.461 121.945C143.257 121.643 143.156 121.284 143.156 120.867C143.156 120.174 143.448 119.589 144.031 119.109C144.619 118.63 145.369 118.391 146.281 118.391C147.239 118.391 148.015 118.638 148.609 119.133C149.208 119.628 149.507 120.26 149.507 121.031H148.054C148.054 120.635 147.885 120.294 147.547 120.008C147.213 119.721 146.791 119.578 146.281 119.578C145.755 119.578 145.343 119.693 145.047 119.922C144.75 120.151 144.601 120.451 144.601 120.82C144.601 121.169 144.739 121.432 145.015 121.609C145.291 121.786 145.789 121.956 146.507 122.117C147.231 122.279 147.817 122.471 148.265 122.695C148.713 122.919 149.044 123.19 149.257 123.508C149.476 123.82 149.586 124.203 149.586 124.656C149.586 125.411 149.284 126.018 148.679 126.477C148.075 126.93 147.291 127.156 146.328 127.156C145.651 127.156 145.052 127.036 144.531 126.797C144.01 126.557 143.601 126.224 143.304 125.797C143.013 125.365 142.867 124.898 142.867 124.398H144.312C144.338 124.883 144.531 125.268 144.89 125.555C145.255 125.836 145.734 125.977 146.328 125.977C146.875 125.977 147.312 125.867 147.64 125.648C147.974 125.424 148.14 125.128 148.14 124.758ZM154.719 127H153.273V118.547H154.719V127ZM153.156 116.305C153.156 116.07 153.227 115.872 153.367 115.711C153.513 115.549 153.727 115.469 154.008 115.469C154.289 115.469 154.503 115.549 154.648 115.711C154.794 115.872 154.867 116.07 154.867 116.305C154.867 116.539 154.794 116.734 154.648 116.891C154.503 117.047 154.289 117.125 154.008 117.125C153.727 117.125 153.513 117.047 153.367 116.891C153.227 116.734 153.156 116.539 153.156 116.305ZM158.375 122.703C158.375 121.385 158.68 120.339 159.289 119.562C159.899 118.781 160.706 118.391 161.711 118.391C162.742 118.391 163.547 118.755 164.125 119.484L164.196 118.547H165.516V126.797C165.516 127.891 165.19 128.753 164.539 129.383C163.894 130.013 163.024 130.328 161.93 130.328C161.321 130.328 160.724 130.198 160.141 129.938C159.558 129.677 159.112 129.32 158.805 128.867L159.555 128C160.175 128.766 160.933 129.148 161.828 129.148C162.532 129.148 163.078 128.951 163.469 128.555C163.865 128.159 164.063 127.602 164.063 126.883V126.156C163.485 126.823 162.696 127.156 161.696 127.156C160.706 127.156 159.904 126.758 159.289 125.961C158.68 125.164 158.375 124.078 158.375 122.703ZM159.828 122.867C159.828 123.82 160.024 124.57 160.414 125.117C160.805 125.659 161.352 125.93 162.055 125.93C162.966 125.93 163.636 125.516 164.063 124.688V120.828C163.62 120.021 162.956 119.617 162.071 119.617C161.367 119.617 160.818 119.891 160.422 120.438C160.026 120.984 159.828 121.794 159.828 122.867ZM170.751 118.547L170.798 119.609C171.443 118.797 172.287 118.391 173.329 118.391C175.115 118.391 176.016 119.398 176.032 121.414V127H174.587V121.406C174.581 120.797 174.441 120.346 174.165 120.055C173.894 119.763 173.469 119.617 172.891 119.617C172.423 119.617 172.011 119.742 171.657 119.992C171.303 120.242 171.027 120.57 170.829 120.977V127H169.383V118.547H170.751ZM181.462 127H180.017V118.547H181.462V127ZM179.899 116.305C179.899 116.07 179.97 115.872 180.11 115.711C180.256 115.549 180.47 115.469 180.751 115.469C181.032 115.469 181.246 115.549 181.392 115.711C181.537 115.872 181.61 116.07 181.61 116.305C181.61 116.539 181.537 116.734 181.392 116.891C181.246 117.047 181.032 117.125 180.751 117.125C180.47 117.125 180.256 117.047 180.11 116.891C179.97 116.734 179.899 116.539 179.899 116.305ZM186.829 118.547L186.876 119.609C187.522 118.797 188.366 118.391 189.408 118.391C191.194 118.391 192.095 119.398 192.111 121.414V127H190.665V121.406C190.66 120.797 190.519 120.346 190.243 120.055C189.973 119.763 189.548 119.617 188.97 119.617C188.501 119.617 188.09 119.742 187.736 119.992C187.381 120.242 187.105 120.57 186.908 120.977V127H185.462V118.547H186.829ZM195.627 122.703C195.627 121.385 195.931 120.339 196.541 119.562C197.15 118.781 197.957 118.391 198.963 118.391C199.994 118.391 200.798 118.755 201.377 119.484L201.447 118.547H202.767V126.797C202.767 127.891 202.442 128.753 201.791 129.383C201.145 130.013 200.275 130.328 199.181 130.328C198.572 130.328 197.976 130.198 197.392 129.938C196.809 129.677 196.364 129.32 196.056 128.867L196.806 128C197.426 128.766 198.184 129.148 199.08 129.148C199.783 129.148 200.33 128.951 200.72 128.555C201.116 128.159 201.314 127.602 201.314 126.883V126.156C200.736 126.823 199.947 127.156 198.947 127.156C197.957 127.156 197.155 126.758 196.541 125.961C195.931 125.164 195.627 124.078 195.627 122.703ZM197.08 122.867C197.08 123.82 197.275 124.57 197.666 125.117C198.056 125.659 198.603 125.93 199.306 125.93C200.218 125.93 200.887 125.516 201.314 124.688V120.828C200.871 120.021 200.207 119.617 199.322 119.617C198.619 119.617 198.069 119.891 197.673 120.438C197.278 120.984 197.08 121.794 197.08 122.867Z" fill="#494949"/>
<path d="M153.501 78.6289C150.815 78.6289 148.629 80.8146 148.629 83.5012C148.629 86.1878 150.815 88.3734 153.501 88.3734C156.188 88.3734 158.373 86.1878 158.373 83.5012C158.373 80.8146 156.188 78.6289 153.501 78.6289V78.6289ZM153.501 86.3147C151.95 86.3147 150.688 85.0525 150.688 83.5012C150.688 81.9498 151.95 80.6876 153.501 80.6876C155.053 80.6876 156.315 81.9498 156.315 83.5012C156.315 85.0525 155.053 86.3147 153.501 86.3147V86.3147Z" fill="#7EAEDB"/>
<path d="M165.874 71.1272C160.059 65.3124 151.272 64.4901 144.614 68.4234C142.54 66.6492 139.295 68.1145 139.295 70.8741C139.295 71.5125 139.483 72.1077 139.804 72.6091C135.136 78.4738 134.698 86.7476 138.855 93.081C138.443 93.6227 138.197 94.2979 138.197 95.0295C138.197 97.6398 141.139 99.144 143.251 97.6843C150.073 102.614 159.672 102.076 165.874 95.8745C172.713 89.036 172.713 77.9666 165.874 71.1272V71.1272ZM142.521 69.7075C143.164 69.7075 143.687 70.2309 143.687 70.8741C143.687 71.5174 143.164 72.0407 142.521 72.0407C141.877 72.0407 141.354 71.5174 141.354 70.8741C141.354 70.2309 141.877 69.7075 142.521 69.7075ZM141.423 96.1961C140.779 96.1961 140.256 95.6728 140.256 95.0295C140.256 94.3862 140.779 93.8629 141.423 93.8629C142.066 93.8629 142.589 94.3862 142.589 95.0295C142.589 95.6728 142.066 96.1961 141.423 96.1961ZM153.5 98.941C150.217 98.941 147.118 97.9396 144.486 96.0378C145.295 93.5849 143.025 91.2345 140.557 91.9231C136.915 86.3448 137.303 79.0667 141.407 73.901C143.775 74.7752 146.214 72.6838 145.672 70.1892C155.821 64.2059 168.941 71.4861 168.941 83.5008C168.941 92.0146 162.014 98.941 153.5 98.941V98.941Z" fill="#7EAEDB"/>
<path d="M165.51 76.9134C165.51 74.5222 162.993 72.9725 160.868 74.0172C158.767 72.3838 156.18 71.4922 153.501 71.4922C146.879 71.4922 141.492 76.8795 141.492 83.5013C141.492 89.9136 146.544 95.1682 152.877 95.4942C153.428 96.485 154.485 97.1573 155.697 97.1573C157.376 97.1573 158.759 95.8677 158.908 94.2271C164.526 91.3944 166.927 84.7672 164.67 79.0823C165.192 78.509 165.51 77.7477 165.51 76.9134V76.9134ZM155.697 95.0986C155.054 95.0986 154.531 94.5753 154.531 93.932C154.531 93.2887 155.054 92.7654 155.697 92.7654C156.34 92.7654 156.864 93.2887 156.864 93.932C156.864 94.5753 156.34 95.0986 155.697 95.0986ZM158.395 92.1673C156.775 89.699 152.992 90.5312 152.516 93.4028C147.49 92.9065 143.551 88.6554 143.551 83.5012C143.551 75.3222 152.889 70.6963 159.395 75.4841C158.23 77.8289 160.232 80.5535 162.851 80.0879C164.501 84.596 162.68 89.7467 158.395 92.1673V92.1673ZM162.285 78.08C161.642 78.08 161.118 77.5567 161.118 76.9134C161.118 76.2701 161.642 75.7468 162.285 75.7468C162.928 75.7468 163.452 76.2701 163.452 76.9134C163.452 77.5567 162.928 78.08 162.285 78.08Z" fill="#7EAEDB"/>
<defs>
<filter id="filter0_d" x="0" y="0" width="308" height="282" filterUnits="userSpaceOnUse" color-interpolation-filters="sRGB">
<feFlood flood-opacity="0" result="BackgroundImageFix"/>
<feColorMatrix in="SourceAlpha" type="matrix" values="0 0 0 0 0 0 0 0 0 0 0 0 0 0 0 0 0 0 127 0"/>
<feOffset dy="4"/>
<feGaussianBlur stdDeviation="2"/>
<feColorMatrix type="matrix" values="0 0 0 0 0 0 0 0 0 0 0 0 0 0 0 0 0 0 0.25 0"/>
<feBlend mode="normal" in2="BackgroundImageFix" result="effect1_dropShadow"/>
<feBlend mode="normal" in="SourceGraphic" in2="effect1_dropShadow" result="shape"/>
</filter>
</defs>
</svg>
