<svg width="407" height="72" viewBox="0 0 407 72" fill="none" xmlns="http://www.w3.org/2000/svg">
<circle cx="26.5" cy="35.5" r="25.5" stroke="url(#paint0_linear)" stroke-width="2"/>
<circle cx="95.5" cy="35.5" r="25.5" stroke="url(#paint1_linear)" stroke-width="2"/>
<circle cx="233.5" cy="35.5" r="25.5" stroke="url(#paint2_linear)" stroke-width="2"/>
<circle cx="164.5" cy="35.5" r="25.5" stroke="url(#paint3_linear)" stroke-width="2"/>
<path d="M14.3477 34.0781C13.8008 34.0781 13.3763 33.8815 13.0742 33.4883H13.0195C13.056 33.8529 13.0742 34.0742 13.0742 34.1523V35.9219H12.1562V29.6797H12.8984C12.9193 29.7604 12.9622 29.9531 13.0273 30.2578H13.0742C13.3607 29.8203 13.7904 29.6016 14.3633 29.6016C14.9023 29.6016 15.3216 29.7969 15.6211 30.1875C15.9232 30.5781 16.0742 31.1263 16.0742 31.832C16.0742 32.5378 15.9206 33.0885 15.6133 33.4844C15.3086 33.8802 14.8867 34.0781 14.3477 34.0781ZM14.125 30.3516C13.7604 30.3516 13.4935 30.4583 13.3242 30.6719C13.1576 30.8854 13.0742 31.2266 13.0742 31.6953V31.832C13.0742 32.3581 13.1576 32.7396 13.3242 32.9766C13.4909 33.2109 13.763 33.3281 14.1406 33.3281C14.4583 33.3281 14.7031 33.1979 14.875 32.9375C15.0469 32.6771 15.1328 32.306 15.1328 31.8242C15.1328 31.3398 15.0469 30.974 14.875 30.7266C14.7057 30.4766 14.4557 30.3516 14.125 30.3516ZM19.332 29.6016C19.5169 29.6016 19.6693 29.6146 19.7891 29.6406L19.6992 30.4961C19.569 30.4648 19.4336 30.4492 19.293 30.4492C18.9258 30.4492 18.6276 30.569 18.3984 30.8086C18.1719 31.0482 18.0586 31.3594 18.0586 31.7422V34H17.1406V29.6797H17.8594L17.9805 30.4414H18.0273C18.1706 30.1836 18.3568 29.9792 18.5859 29.8281C18.8177 29.6771 19.0664 29.6016 19.332 29.6016ZM24.4258 31.832C24.4258 32.5378 24.2448 33.0885 23.8828 33.4844C23.5208 33.8802 23.0169 34.0781 22.3711 34.0781C21.9674 34.0781 21.6107 33.987 21.3008 33.8047C20.9909 33.6224 20.7526 33.3607 20.5859 33.0195C20.4193 32.6784 20.3359 32.2826 20.3359 31.832C20.3359 31.1315 20.5156 30.5846 20.875 30.1914C21.2344 29.7982 21.7409 29.6016 22.3945 29.6016C23.0195 29.6016 23.5143 29.8034 23.8789 30.207C24.2435 30.6081 24.4258 31.1497 24.4258 31.832ZM21.2812 31.832C21.2812 32.8294 21.6497 33.3281 22.3867 33.3281C23.1159 33.3281 23.4805 32.8294 23.4805 31.832C23.4805 30.8451 23.1133 30.3516 22.3789 30.3516C21.9935 30.3516 21.7135 30.4792 21.5391 30.7344C21.3672 30.9896 21.2812 31.3555 21.2812 31.832ZM29.3164 31.832C29.3164 32.5378 29.1354 33.0885 28.7734 33.4844C28.4115 33.8802 27.9076 34.0781 27.2617 34.0781C26.8581 34.0781 26.5013 33.987 26.1914 33.8047C25.8815 33.6224 25.6432 33.3607 25.4766 33.0195C25.3099 32.6784 25.2266 32.2826 25.2266 31.832C25.2266 31.1315 25.4062 30.5846 25.7656 30.1914C26.125 29.7982 26.6315 29.6016 27.2852 29.6016C27.9102 29.6016 28.4049 29.8034 28.7695 30.207C29.1341 30.6081 29.3164 31.1497 29.3164 31.832ZM26.1719 31.832C26.1719 32.8294 26.5404 33.3281 27.2773 33.3281C28.0065 33.3281 28.3711 32.8294 28.3711 31.832C28.3711 30.8451 28.0039 30.3516 27.2695 30.3516C26.8841 30.3516 26.6042 30.4792 26.4297 30.7344C26.2578 30.9896 26.1719 31.3555 26.1719 31.832ZM32.543 30.375H31.4883V34H30.5664V30.375H29.8555V29.9453L30.5664 29.6641V29.3828C30.5664 28.8724 30.6862 28.4948 30.9258 28.25C31.1654 28.0026 31.5312 27.8789 32.0234 27.8789C32.3464 27.8789 32.6641 27.9323 32.9766 28.0391L32.7344 28.7344C32.5078 28.6615 32.2917 28.625 32.0859 28.625C31.8776 28.625 31.7253 28.6901 31.6289 28.8203C31.5352 28.9479 31.4883 29.1406 31.4883 29.3984V29.6797H32.543V30.375ZM39.1914 31.832C39.1914 32.5378 39.0104 33.0885 38.6484 33.4844C38.2865 33.8802 37.7826 34.0781 37.1367 34.0781C36.7331 34.0781 36.3763 33.987 36.0664 33.8047C35.7565 33.6224 35.5182 33.3607 35.3516 33.0195C35.1849 32.6784 35.1016 32.2826 35.1016 31.832C35.1016 31.1315 35.2812 30.5846 35.6406 30.1914C36 29.7982 36.5065 29.6016 37.1602 29.6016C37.7852 29.6016 38.2799 29.8034 38.6445 30.207C39.0091 30.6081 39.1914 31.1497 39.1914 31.832ZM36.0469 31.832C36.0469 32.8294 36.4154 33.3281 37.1523 33.3281C37.8815 33.3281 38.2461 32.8294 38.2461 31.832C38.2461 30.8451 37.8789 30.3516 37.1445 30.3516C36.7591 30.3516 36.4792 30.4792 36.3047 30.7344C36.1328 30.9896 36.0469 31.3555 36.0469 31.832ZM42.418 30.375H41.3633V34H40.4414V30.375H39.7305V29.9453L40.4414 29.6641V29.3828C40.4414 28.8724 40.5612 28.4948 40.8008 28.25C41.0404 28.0026 41.4062 27.8789 41.8984 27.8789C42.2214 27.8789 42.5391 27.9323 42.8516 28.0391L42.6094 28.7344C42.3828 28.6615 42.1667 28.625 41.9609 28.625C41.7526 28.625 41.6003 28.6901 41.5039 28.8203C41.4102 28.9479 41.3633 29.1406 41.3633 29.3984V29.6797H42.418V30.375ZM14.082 45.0781C13.4284 45.0781 12.931 44.888 12.5898 44.5078C12.2513 44.125 12.082 43.5768 12.082 42.8633C12.082 42.1367 12.2591 41.5781 12.6133 41.1875C12.9701 40.7969 13.4844 40.6016 14.1562 40.6016C14.612 40.6016 15.0221 40.6862 15.3867 40.8555L15.1094 41.5938C14.7214 41.4427 14.401 41.3672 14.1484 41.3672C13.401 41.3672 13.0273 41.8633 13.0273 42.8555C13.0273 43.3398 13.1198 43.7044 13.3047 43.9492C13.4922 44.1914 13.7656 44.3125 14.125 44.3125C14.5339 44.3125 14.9206 44.2109 15.2852 44.0078V44.8086C15.1211 44.9049 14.9453 44.974 14.7578 45.0156C14.5729 45.0573 14.3477 45.0781 14.082 45.0781ZM20.1328 42.832C20.1328 43.5378 19.9518 44.0885 19.5898 44.4844C19.2279 44.8802 18.724 45.0781 18.0781 45.0781C17.6745 45.0781 17.3177 44.987 17.0078 44.8047C16.6979 44.6224 16.4596 44.3607 16.293 44.0195C16.1263 43.6784 16.043 43.2826 16.043 42.832C16.043 42.1315 16.2227 41.5846 16.582 41.1914C16.9414 40.7982 17.4479 40.6016 18.1016 40.6016C18.7266 40.6016 19.2214 40.8034 19.5859 41.207C19.9505 41.6081 20.1328 42.1497 20.1328 42.832ZM16.9883 42.832C16.9883 43.8294 17.3568 44.3281 18.0938 44.3281C18.8229 44.3281 19.1875 43.8294 19.1875 42.832C19.1875 41.8451 18.8203 41.3516 18.0859 41.3516C17.7005 41.3516 17.4206 41.4792 17.2461 41.7344C17.0742 41.9896 16.9883 42.3555 16.9883 42.832ZM24.9922 45H24.0703V42.3438C24.0703 42.0104 24.0026 41.7617 23.8672 41.5977C23.7344 41.4336 23.5221 41.3516 23.2305 41.3516C22.8424 41.3516 22.5586 41.4661 22.3789 41.6953C22.1992 41.9245 22.1094 42.3086 22.1094 42.8477V45H21.1914V40.6797H21.9102L22.0391 41.2461H22.0859C22.2161 41.0404 22.401 40.8815 22.6406 40.7695C22.8802 40.6576 23.1458 40.6016 23.4375 40.6016C24.474 40.6016 24.9922 41.1289 24.9922 42.1836V45ZM28.0117 45.0781C27.3581 45.0781 26.8607 44.888 26.5195 44.5078C26.181 44.125 26.0117 43.5768 26.0117 42.8633C26.0117 42.1367 26.1888 41.5781 26.543 41.1875C26.8997 40.7969 27.4141 40.6016 28.0859 40.6016C28.5417 40.6016 28.9518 40.6862 29.3164 40.8555L29.0391 41.5938C28.651 41.4427 28.3307 41.3672 28.0781 41.3672C27.3307 41.3672 26.957 41.8633 26.957 42.8555C26.957 43.3398 27.0495 43.7044 27.2344 43.9492C27.4219 44.1914 27.6953 44.3125 28.0547 44.3125C28.4635 44.3125 28.8503 44.2109 29.2148 44.0078V44.8086C29.0508 44.9049 28.875 44.974 28.6875 45.0156C28.5026 45.0573 28.2773 45.0781 28.0117 45.0781ZM32.1172 45.0781C31.4453 45.0781 30.9193 44.8828 30.5391 44.4922C30.1615 44.099 29.9727 43.5586 29.9727 42.8711C29.9727 42.1654 30.1484 41.6107 30.5 41.207C30.8516 40.8034 31.3346 40.6016 31.9492 40.6016C32.5195 40.6016 32.9701 40.7747 33.3008 41.1211C33.6315 41.4674 33.7969 41.944 33.7969 42.5508V43.0469H30.918C30.931 43.4661 31.0443 43.7891 31.2578 44.0156C31.4714 44.2396 31.7721 44.3516 32.1602 44.3516C32.4154 44.3516 32.6523 44.3281 32.8711 44.2812C33.0924 44.2318 33.3294 44.151 33.582 44.0391V44.7852C33.3581 44.8919 33.1315 44.9674 32.9023 45.0117C32.6732 45.056 32.4115 45.0781 32.1172 45.0781ZM31.9492 41.2969C31.6576 41.2969 31.4232 41.3893 31.2461 41.5742C31.0716 41.7591 30.9674 42.0286 30.9336 42.3828H32.8945C32.8893 42.026 32.8034 41.7565 32.6367 41.5742C32.4701 41.3893 32.2409 41.2969 31.9492 41.2969ZM37.0312 45.0781C36.4844 45.0781 36.0599 44.8815 35.7578 44.4883H35.7031C35.7396 44.8529 35.7578 45.0742 35.7578 45.1523V46.9219H34.8398V40.6797H35.582C35.6029 40.7604 35.6458 40.9531 35.7109 41.2578H35.7578C36.0443 40.8203 36.474 40.6016 37.0469 40.6016C37.5859 40.6016 38.0052 40.7969 38.3047 41.1875C38.6068 41.5781 38.7578 42.1263 38.7578 42.832C38.7578 43.5378 38.6042 44.0885 38.2969 44.4844C37.9922 44.8802 37.5703 45.0781 37.0312 45.0781ZM36.8086 41.3516C36.444 41.3516 36.1771 41.4583 36.0078 41.6719C35.8411 41.8854 35.7578 42.2266 35.7578 42.6953V42.832C35.7578 43.3581 35.8411 43.7396 36.0078 43.9766C36.1745 44.2109 36.4466 44.3281 36.8242 44.3281C37.1419 44.3281 37.3867 44.1979 37.5586 43.9375C37.7305 43.6771 37.8164 43.306 37.8164 42.8242C37.8164 42.3398 37.7305 41.974 37.5586 41.7266C37.3893 41.4766 37.1393 41.3516 36.8086 41.3516ZM41.4336 44.3359C41.6576 44.3359 41.8815 44.3008 42.1055 44.2305V44.9219C42.0039 44.9661 41.8724 45.0026 41.7109 45.0312C41.5521 45.0625 41.3867 45.0781 41.2148 45.0781C40.3451 45.0781 39.9102 44.6198 39.9102 43.7031V41.375H39.3203V40.9688L39.9531 40.6328L40.2656 39.7188H40.832V40.6797H42.0625V41.375H40.832V43.6875C40.832 43.9089 40.8867 44.0729 40.9961 44.1797C41.1081 44.2839 41.2539 44.3359 41.4336 44.3359Z" fill="#4A4A4A"/>
<path d="M80.2383 34.6016C80.4232 34.6016 80.5755 34.6146 80.6953 34.6406L80.6055 35.4961C80.4753 35.4648 80.3398 35.4492 80.1992 35.4492C79.832 35.4492 79.5339 35.569 79.3047 35.8086C79.0781 36.0482 78.9648 36.3594 78.9648 36.7422V39H78.0469V34.6797H78.7656L78.8867 35.4414H78.9336C79.0768 35.1836 79.263 34.9792 79.4922 34.8281C79.724 34.6771 79.9727 34.6016 80.2383 34.6016ZM83.3867 39.0781C82.7148 39.0781 82.1888 38.8828 81.8086 38.4922C81.431 38.099 81.2422 37.5586 81.2422 36.8711C81.2422 36.1654 81.418 35.6107 81.7695 35.207C82.1211 34.8034 82.6042 34.6016 83.2188 34.6016C83.7891 34.6016 84.2396 34.7747 84.5703 35.1211C84.901 35.4674 85.0664 35.944 85.0664 36.5508V37.0469H82.1875C82.2005 37.4661 82.3138 37.7891 82.5273 38.0156C82.7409 38.2396 83.0417 38.3516 83.4297 38.3516C83.6849 38.3516 83.9219 38.3281 84.1406 38.2812C84.362 38.2318 84.599 38.151 84.8516 38.0391V38.7852C84.6276 38.8919 84.401 38.9674 84.1719 39.0117C83.9427 39.056 83.681 39.0781 83.3867 39.0781ZM83.2188 35.2969C82.9271 35.2969 82.6927 35.3893 82.5156 35.5742C82.3411 35.7591 82.237 36.0286 82.2031 36.3828H84.1641C84.1589 36.026 84.0729 35.7565 83.9062 35.5742C83.7396 35.3893 83.5104 35.2969 83.2188 35.2969ZM87.5664 39.0781C87.0273 39.0781 86.6068 38.8828 86.3047 38.4922C86.0026 38.1016 85.8516 37.5534 85.8516 36.8477C85.8516 36.1393 86.0039 35.5885 86.3086 35.1953C86.6159 34.7995 87.0404 34.6016 87.582 34.6016C88.1497 34.6016 88.582 34.8112 88.8789 35.2305H88.9258C88.8815 34.9206 88.8594 34.6758 88.8594 34.4961V32.9219H89.7812V39H89.0625L88.9023 38.4336H88.8594C88.5651 38.8633 88.1341 39.0781 87.5664 39.0781ZM87.8125 38.3359C88.1901 38.3359 88.4648 38.2305 88.6367 38.0195C88.8086 37.806 88.8971 37.4609 88.9023 36.9844V36.8555C88.9023 36.3112 88.8138 35.9245 88.6367 35.6953C88.4596 35.4661 88.1823 35.3516 87.8047 35.3516C87.4818 35.3516 87.2331 35.4831 87.0586 35.7461C86.8841 36.0065 86.7969 36.3789 86.7969 36.8633C86.7969 37.3424 86.8815 37.7083 87.0508 37.9609C87.2201 38.2109 87.474 38.3359 87.8125 38.3359ZM92.9805 39.0781C92.3086 39.0781 91.7826 38.8828 91.4023 38.4922C91.0247 38.099 90.8359 37.5586 90.8359 36.8711C90.8359 36.1654 91.0117 35.6107 91.3633 35.207C91.7148 34.8034 92.1979 34.6016 92.8125 34.6016C93.3828 34.6016 93.8333 34.7747 94.1641 35.1211C94.4948 35.4674 94.6602 35.944 94.6602 36.5508V37.0469H91.7812C91.7943 37.4661 91.9076 37.7891 92.1211 38.0156C92.3346 38.2396 92.6354 38.3516 93.0234 38.3516C93.2786 38.3516 93.5156 38.3281 93.7344 38.2812C93.9557 38.2318 94.1927 38.151 94.4453 38.0391V38.7852C94.2214 38.8919 93.9948 38.9674 93.7656 39.0117C93.5365 39.056 93.2747 39.0781 92.9805 39.0781ZM92.8125 35.2969C92.5208 35.2969 92.2865 35.3893 92.1094 35.5742C91.9349 35.7591 91.8307 36.0286 91.7969 36.3828H93.7578C93.7526 36.026 93.6667 35.7565 93.5 35.5742C93.3333 35.3893 93.1042 35.2969 92.8125 35.2969ZM98.6055 37.7695C98.6055 38.1914 98.4518 38.5156 98.1445 38.7422C97.8372 38.9661 97.3971 39.0781 96.8242 39.0781C96.2487 39.0781 95.7865 38.9909 95.4375 38.8164V38.0234C95.9453 38.2578 96.418 38.375 96.8555 38.375C97.4206 38.375 97.7031 38.2044 97.7031 37.8633C97.7031 37.7539 97.6719 37.6628 97.6094 37.5898C97.5469 37.5169 97.444 37.4414 97.3008 37.3633C97.1576 37.2852 96.9583 37.1966 96.7031 37.0977C96.2057 36.9049 95.8685 36.7122 95.6914 36.5195C95.5169 36.3268 95.4297 36.0768 95.4297 35.7695C95.4297 35.3997 95.5781 35.1133 95.875 34.9102C96.1745 34.7044 96.5807 34.6016 97.0938 34.6016C97.6016 34.6016 98.082 34.7044 98.5352 34.9102L98.2383 35.6016C97.7721 35.4089 97.3802 35.3125 97.0625 35.3125C96.5781 35.3125 96.3359 35.4505 96.3359 35.7266C96.3359 35.862 96.3984 35.9766 96.5234 36.0703C96.651 36.1641 96.9271 36.293 97.3516 36.457C97.7083 36.5951 97.9674 36.7214 98.1289 36.8359C98.2904 36.9505 98.4102 37.0833 98.4883 37.2344C98.5664 37.3828 98.6055 37.5612 98.6055 37.7695ZM100.52 39H99.6016V34.6797H100.52V39ZM99.5469 33.5352C99.5469 33.3711 99.5911 33.2448 99.6797 33.1562C99.7708 33.0677 99.8997 33.0234 100.066 33.0234C100.228 33.0234 100.353 33.0677 100.441 33.1562C100.533 33.2448 100.578 33.3711 100.578 33.5352C100.578 33.6914 100.533 33.8151 100.441 33.9062C100.353 33.9948 100.228 34.0391 100.066 34.0391C99.8997 34.0391 99.7708 33.9948 99.6797 33.9062C99.5911 33.8151 99.5469 33.6914 99.5469 33.5352ZM105.484 34.6797V35.1836L104.746 35.3203C104.814 35.4115 104.87 35.5234 104.914 35.6562C104.958 35.7891 104.98 35.9297 104.98 36.0781C104.98 36.5234 104.827 36.8737 104.52 37.1289C104.212 37.3841 103.789 37.5117 103.25 37.5117C103.112 37.5117 102.987 37.5013 102.875 37.4805C102.677 37.6029 102.578 37.7461 102.578 37.9102C102.578 38.0091 102.624 38.0833 102.715 38.1328C102.809 38.1823 102.979 38.207 103.227 38.207H103.98C104.457 38.207 104.819 38.3086 105.066 38.5117C105.314 38.7148 105.438 39.0078 105.438 39.3906C105.438 39.8802 105.236 40.2578 104.832 40.5234C104.428 40.7891 103.845 40.9219 103.082 40.9219C102.493 40.9219 102.044 40.8177 101.734 40.6094C101.424 40.401 101.27 40.1042 101.27 39.7188C101.27 39.4531 101.353 39.2292 101.52 39.0469C101.689 38.8672 101.924 38.7422 102.227 38.6719C102.104 38.6198 102.003 38.5365 101.922 38.4219C101.844 38.3047 101.805 38.1823 101.805 38.0547C101.805 37.8932 101.85 37.7565 101.941 37.6445C102.033 37.5326 102.168 37.4219 102.348 37.3125C102.124 37.2161 101.941 37.0599 101.801 36.8438C101.663 36.625 101.594 36.3698 101.594 36.0781C101.594 35.6094 101.741 35.2461 102.035 34.9883C102.332 34.7305 102.754 34.6016 103.301 34.6016C103.423 34.6016 103.551 34.6107 103.684 34.6289C103.819 34.6445 103.921 34.6615 103.988 34.6797H105.484ZM102.09 39.6719C102.09 39.8698 102.178 40.0221 102.355 40.1289C102.535 40.2357 102.786 40.2891 103.109 40.2891C103.609 40.2891 103.982 40.2174 104.227 40.0742C104.471 39.931 104.594 39.7409 104.594 39.5039C104.594 39.3164 104.526 39.1823 104.391 39.1016C104.258 39.0234 104.009 38.9844 103.645 38.9844H102.949C102.686 38.9844 102.477 39.0456 102.32 39.168C102.167 39.293 102.09 39.4609 102.09 39.6719ZM102.484 36.0781C102.484 36.349 102.553 36.5573 102.691 36.7031C102.832 36.849 103.033 36.9219 103.293 36.9219C103.824 36.9219 104.09 36.638 104.09 36.0703C104.09 35.7891 104.023 35.5729 103.891 35.4219C103.76 35.2682 103.561 35.1914 103.293 35.1914C103.027 35.1914 102.826 35.2669 102.688 35.418C102.552 35.569 102.484 35.7891 102.484 36.0781ZM110.09 39H109.168V36.3438C109.168 36.0104 109.1 35.7617 108.965 35.5977C108.832 35.4336 108.62 35.3516 108.328 35.3516C107.94 35.3516 107.656 35.4661 107.477 35.6953C107.297 35.9245 107.207 36.3086 107.207 36.8477V39H106.289V34.6797H107.008L107.137 35.2461H107.184C107.314 35.0404 107.499 34.8815 107.738 34.7695C107.978 34.6576 108.243 34.6016 108.535 34.6016C109.572 34.6016 110.09 35.1289 110.09 36.1836V39ZM114.27 37.7695C114.27 38.1914 114.116 38.5156 113.809 38.7422C113.501 38.9661 113.061 39.0781 112.488 39.0781C111.913 39.0781 111.451 38.9909 111.102 38.8164V38.0234C111.609 38.2578 112.082 38.375 112.52 38.375C113.085 38.375 113.367 38.2044 113.367 37.8633C113.367 37.7539 113.336 37.6628 113.273 37.5898C113.211 37.5169 113.108 37.4414 112.965 37.3633C112.822 37.2852 112.622 37.1966 112.367 37.0977C111.87 36.9049 111.533 36.7122 111.355 36.5195C111.181 36.3268 111.094 36.0768 111.094 35.7695C111.094 35.3997 111.242 35.1133 111.539 34.9102C111.839 34.7044 112.245 34.6016 112.758 34.6016C113.266 34.6016 113.746 34.7044 114.199 34.9102L113.902 35.6016C113.436 35.4089 113.044 35.3125 112.727 35.3125C112.242 35.3125 112 35.4505 112 35.7266C112 35.862 112.062 35.9766 112.188 36.0703C112.315 36.1641 112.591 36.293 113.016 36.457C113.372 36.5951 113.632 36.7214 113.793 36.8359C113.954 36.9505 114.074 37.0833 114.152 37.2344C114.23 37.3828 114.27 37.5612 114.27 37.7695Z" fill="#4A4A4A"/>
<path d="M160.168 34.6016C160.353 34.6016 160.505 34.6146 160.625 34.6406L160.535 35.4961C160.405 35.4648 160.27 35.4492 160.129 35.4492C159.762 35.4492 159.464 35.569 159.234 35.8086C159.008 36.0482 158.895 36.3594 158.895 36.7422V39H157.977V34.6797H158.695L158.816 35.4414H158.863C159.007 35.1836 159.193 34.9792 159.422 34.8281C159.654 34.6771 159.902 34.6016 160.168 34.6016ZM162.535 34.5195C162.535 34.6836 162.578 34.8385 162.664 34.9844C162.753 35.1302 162.875 35.2852 163.031 35.4492C163.326 35.2826 163.531 35.1276 163.648 34.9844C163.768 34.8385 163.828 34.6758 163.828 34.4961C163.828 34.3268 163.771 34.1914 163.656 34.0898C163.544 33.9883 163.395 33.9375 163.207 33.9375C163.001 33.9375 162.837 33.9909 162.715 34.0977C162.595 34.2018 162.535 34.3424 162.535 34.5195ZM163.117 38.2891C163.594 38.2891 164.001 38.1497 164.34 37.8711L162.844 36.3984C162.568 36.5755 162.378 36.7422 162.273 36.8984C162.169 37.0521 162.117 37.2279 162.117 37.4258C162.117 37.681 162.207 37.8893 162.387 38.0508C162.569 38.2096 162.812 38.2891 163.117 38.2891ZM161.148 37.4883C161.148 37.1471 161.232 36.8503 161.398 36.5977C161.565 36.3424 161.866 36.0898 162.301 35.8398C162.053 35.5508 161.884 35.3073 161.793 35.1094C161.704 34.9089 161.66 34.7018 161.66 34.4883C161.66 34.0924 161.801 33.7799 162.082 33.5508C162.366 33.3216 162.746 33.207 163.223 33.207C163.684 33.207 164.046 33.319 164.309 33.543C164.572 33.7643 164.703 34.0638 164.703 34.4414C164.703 34.7383 164.615 35.0078 164.438 35.25C164.263 35.4922 163.97 35.7344 163.559 35.9766L164.91 37.2812C165.121 37.0026 165.297 36.5938 165.438 36.0547H166.383C166.201 36.7943 165.909 37.3971 165.508 37.8633L166.684 39H165.5L164.918 38.4336C164.652 38.6471 164.368 38.8086 164.066 38.918C163.767 39.0247 163.435 39.0781 163.07 39.0781C162.471 39.0781 162.001 38.9362 161.66 38.6523C161.319 38.3685 161.148 37.9805 161.148 37.4883ZM168.809 39.0781C168.27 39.0781 167.849 38.8828 167.547 38.4922C167.245 38.1016 167.094 37.5534 167.094 36.8477C167.094 36.1393 167.246 35.5885 167.551 35.1953C167.858 34.7995 168.283 34.6016 168.824 34.6016C169.392 34.6016 169.824 34.8112 170.121 35.2305H170.168C170.124 34.9206 170.102 34.6758 170.102 34.4961V32.9219H171.023V39H170.305L170.145 38.4336H170.102C169.807 38.8633 169.376 39.0781 168.809 39.0781ZM169.055 38.3359C169.432 38.3359 169.707 38.2305 169.879 38.0195C170.051 37.806 170.139 37.4609 170.145 36.9844V36.8555C170.145 36.3112 170.056 35.9245 169.879 35.6953C169.702 35.4661 169.424 35.3516 169.047 35.3516C168.724 35.3516 168.475 35.4831 168.301 35.7461C168.126 36.0065 168.039 36.3789 168.039 36.8633C168.039 37.3424 168.124 37.7083 168.293 37.9609C168.462 38.2109 168.716 38.3359 169.055 38.3359Z" fill="#4A4A4A"/>
<path d="M223.273 34H222.355V29.6797H223.273V34ZM222.301 28.5352C222.301 28.3711 222.345 28.2448 222.434 28.1562C222.525 28.0677 222.654 28.0234 222.82 28.0234C222.982 28.0234 223.107 28.0677 223.195 28.1562C223.286 28.2448 223.332 28.3711 223.332 28.5352C223.332 28.6914 223.286 28.8151 223.195 28.9062C223.107 28.9948 222.982 29.0391 222.82 29.0391C222.654 29.0391 222.525 28.9948 222.434 28.9062C222.345 28.8151 222.301 28.6914 222.301 28.5352ZM228.391 34H227.469V31.3438C227.469 31.0104 227.401 30.7617 227.266 30.5977C227.133 30.4336 226.921 30.3516 226.629 30.3516C226.241 30.3516 225.957 30.4661 225.777 30.6953C225.598 30.9245 225.508 31.3086 225.508 31.8477V34H224.59V29.6797H225.309L225.438 30.2461H225.484C225.615 30.0404 225.799 29.8815 226.039 29.7695C226.279 29.6576 226.544 29.6016 226.836 29.6016C227.872 29.6016 228.391 30.1289 228.391 31.1836V34ZM231.277 33.3359C231.501 33.3359 231.725 33.3008 231.949 33.2305V33.9219C231.848 33.9661 231.716 34.0026 231.555 34.0312C231.396 34.0625 231.23 34.0781 231.059 34.0781C230.189 34.0781 229.754 33.6198 229.754 32.7031V30.375H229.164V29.9688L229.797 29.6328L230.109 28.7188H230.676V29.6797H231.906V30.375H230.676V32.6875C230.676 32.9089 230.73 33.0729 230.84 33.1797C230.952 33.2839 231.098 33.3359 231.277 33.3359ZM234.703 34.0781C234.031 34.0781 233.505 33.8828 233.125 33.4922C232.747 33.099 232.559 32.5586 232.559 31.8711C232.559 31.1654 232.734 30.6107 233.086 30.207C233.438 29.8034 233.921 29.6016 234.535 29.6016C235.105 29.6016 235.556 29.7747 235.887 30.1211C236.217 30.4674 236.383 30.944 236.383 31.5508V32.0469H233.504C233.517 32.4661 233.63 32.7891 233.844 33.0156C234.057 33.2396 234.358 33.3516 234.746 33.3516C235.001 33.3516 235.238 33.3281 235.457 33.2812C235.678 33.2318 235.915 33.151 236.168 33.0391V33.7852C235.944 33.8919 235.717 33.9674 235.488 34.0117C235.259 34.056 234.997 34.0781 234.703 34.0781ZM234.535 30.2969C234.243 30.2969 234.009 30.3893 233.832 30.5742C233.658 30.7591 233.553 31.0286 233.52 31.3828H235.48C235.475 31.026 235.389 30.7565 235.223 30.5742C235.056 30.3893 234.827 30.2969 234.535 30.2969ZM239.617 29.6016C239.802 29.6016 239.954 29.6146 240.074 29.6406L239.984 30.4961C239.854 30.4648 239.719 30.4492 239.578 30.4492C239.211 30.4492 238.913 30.569 238.684 30.8086C238.457 31.0482 238.344 31.3594 238.344 31.7422V34H237.426V29.6797H238.145L238.266 30.4414H238.312C238.456 30.1836 238.642 29.9792 238.871 29.8281C239.103 29.6771 239.352 29.6016 239.617 29.6016ZM244.68 34H243.758V31.3438C243.758 31.0104 243.69 30.7617 243.555 30.5977C243.422 30.4336 243.21 30.3516 242.918 30.3516C242.53 30.3516 242.246 30.4661 242.066 30.6953C241.887 30.9245 241.797 31.3086 241.797 31.8477V34H240.879V29.6797H241.598L241.727 30.2461H241.773C241.904 30.0404 242.089 29.8815 242.328 29.7695C242.568 29.6576 242.833 29.6016 243.125 29.6016C244.161 29.6016 244.68 30.1289 244.68 31.1836V34ZM222.707 45.0781C222.16 45.0781 221.736 44.8815 221.434 44.4883H221.379C221.415 44.8529 221.434 45.0742 221.434 45.1523V46.9219H220.516V40.6797H221.258C221.279 40.7604 221.322 40.9531 221.387 41.2578H221.434C221.72 40.8203 222.15 40.6016 222.723 40.6016C223.262 40.6016 223.681 40.7969 223.98 41.1875C224.283 41.5781 224.434 42.1263 224.434 42.832C224.434 43.5378 224.28 44.0885 223.973 44.4844C223.668 44.8802 223.246 45.0781 222.707 45.0781ZM222.484 41.3516C222.12 41.3516 221.853 41.4583 221.684 41.6719C221.517 41.8854 221.434 42.2266 221.434 42.6953V42.832C221.434 43.3581 221.517 43.7396 221.684 43.9766C221.85 44.2109 222.122 44.3281 222.5 44.3281C222.818 44.3281 223.062 44.1979 223.234 43.9375C223.406 43.6771 223.492 43.306 223.492 42.8242C223.492 42.3398 223.406 41.974 223.234 41.7266C223.065 41.4766 222.815 41.3516 222.484 41.3516ZM227.691 40.6016C227.876 40.6016 228.029 40.6146 228.148 40.6406L228.059 41.4961C227.928 41.4648 227.793 41.4492 227.652 41.4492C227.285 41.4492 226.987 41.569 226.758 41.8086C226.531 42.0482 226.418 42.3594 226.418 42.7422V45H225.5V40.6797H226.219L226.34 41.4414H226.387C226.53 41.1836 226.716 40.9792 226.945 40.8281C227.177 40.6771 227.426 40.6016 227.691 40.6016ZM232.785 42.832C232.785 43.5378 232.604 44.0885 232.242 44.4844C231.88 44.8802 231.376 45.0781 230.73 45.0781C230.327 45.0781 229.97 44.987 229.66 44.8047C229.35 44.6224 229.112 44.3607 228.945 44.0195C228.779 43.6784 228.695 43.2826 228.695 42.832C228.695 42.1315 228.875 41.5846 229.234 41.1914C229.594 40.7982 230.1 40.6016 230.754 40.6016C231.379 40.6016 231.874 40.8034 232.238 41.207C232.603 41.6081 232.785 42.1497 232.785 42.832ZM229.641 42.832C229.641 43.8294 230.009 44.3281 230.746 44.3281C231.475 44.3281 231.84 43.8294 231.84 42.832C231.84 41.8451 231.473 41.3516 230.738 41.3516C230.353 41.3516 230.073 41.4792 229.898 41.7344C229.727 41.9896 229.641 42.3555 229.641 42.832ZM233.402 46.9219C233.126 46.9219 232.897 46.8893 232.715 46.8242V46.0977C232.892 46.1445 233.073 46.168 233.258 46.168C233.648 46.168 233.844 45.9466 233.844 45.5039V40.6797H234.762V45.5664C234.762 46.0117 234.645 46.349 234.41 46.5781C234.178 46.8073 233.842 46.9219 233.402 46.9219ZM233.789 39.5352C233.789 39.3711 233.833 39.2448 233.922 39.1562C234.013 39.0677 234.142 39.0234 234.309 39.0234C234.47 39.0234 234.595 39.0677 234.684 39.1562C234.775 39.2448 234.82 39.3711 234.82 39.5352C234.82 39.6914 234.775 39.8151 234.684 39.9062C234.595 39.9948 234.47 40.0391 234.309 40.0391C234.142 40.0391 234.013 39.9948 233.922 39.9062C233.833 39.8151 233.789 39.6914 233.789 39.5352ZM237.965 45.0781C237.293 45.0781 236.767 44.8828 236.387 44.4922C236.009 44.099 235.82 43.5586 235.82 42.8711C235.82 42.1654 235.996 41.6107 236.348 41.207C236.699 40.8034 237.182 40.6016 237.797 40.6016C238.367 40.6016 238.818 40.7747 239.148 41.1211C239.479 41.4674 239.645 41.944 239.645 42.5508V43.0469H236.766C236.779 43.4661 236.892 43.7891 237.105 44.0156C237.319 44.2396 237.62 44.3516 238.008 44.3516C238.263 44.3516 238.5 44.3281 238.719 44.2812C238.94 44.2318 239.177 44.151 239.43 44.0391V44.7852C239.206 44.8919 238.979 44.9674 238.75 45.0117C238.521 45.056 238.259 45.0781 237.965 45.0781ZM237.797 41.2969C237.505 41.2969 237.271 41.3893 237.094 41.5742C236.919 41.7591 236.815 42.0286 236.781 42.3828H238.742C238.737 42.026 238.651 41.7565 238.484 41.5742C238.318 41.3893 238.089 41.2969 237.797 41.2969ZM242.43 45.0781C241.776 45.0781 241.279 44.888 240.938 44.5078C240.599 44.125 240.43 43.5768 240.43 42.8633C240.43 42.1367 240.607 41.5781 240.961 41.1875C241.318 40.7969 241.832 40.6016 242.504 40.6016C242.96 40.6016 243.37 40.6862 243.734 40.8555L243.457 41.5938C243.069 41.4427 242.749 41.3672 242.496 41.3672C241.749 41.3672 241.375 41.8633 241.375 42.8555C241.375 43.3398 241.467 43.7044 241.652 43.9492C241.84 44.1914 242.113 44.3125 242.473 44.3125C242.882 44.3125 243.268 44.2109 243.633 44.0078V44.8086C243.469 44.9049 243.293 44.974 243.105 45.0156C242.921 45.0573 242.695 45.0781 242.43 45.0781ZM246.258 44.3359C246.482 44.3359 246.706 44.3008 246.93 44.2305V44.9219C246.828 44.9661 246.697 45.0026 246.535 45.0312C246.376 45.0625 246.211 45.0781 246.039 45.0781C245.169 45.0781 244.734 44.6198 244.734 43.7031V41.375H244.145V40.9688L244.777 40.6328L245.09 39.7188H245.656V40.6797H246.887V41.375H245.656V43.6875C245.656 43.9089 245.711 44.0729 245.82 44.1797C245.932 44.2839 246.078 44.3359 246.258 44.3359Z" fill="#4A4A4A"/>
<defs>
<linearGradient id="paint0_linear" x1="26.5" y1="9" x2="26.5" y2="62" gradientUnits="userSpaceOnUse">
<stop stop-color="#727FEB"/>
<stop offset="1" stop-color="#7DAFF9"/>
</linearGradient>
<linearGradient id="paint1_linear" x1="95.5" y1="9" x2="95.5" y2="62" gradientUnits="userSpaceOnUse">
<stop stop-color="#727FEB"/>
<stop offset="1" stop-color="#7DAFF9"/>
</linearGradient>
<linearGradient id="paint2_linear" x1="233.5" y1="9" x2="233.5" y2="62" gradientUnits="userSpaceOnUse">
<stop stop-color="#727FEB"/>
<stop offset="1" stop-color="#7DAFF9"/>
</linearGradient>
<linearGradient id="paint3_linear" x1="164.5" y1="9" x2="164.5" y2="62" gradientUnits="userSpaceOnUse">
<stop stop-color="#727FEB"/>
<stop offset="1" stop-color="#7DAFF9"/>
</linearGradient>
</defs>
</svg>
