<svg width="308" height="282" viewBox="0 0 308 282" fill="none" xmlns="http://www.w3.org/2000/svg">
<g filter="url(#filter0_d)">
<rect x="4" width="300" height="274" rx="10" fill="#D2E4FF"/>
</g>
<path d="M148.005 135.625V143.359C148 144.432 147.661 145.31 146.989 145.992C146.323 146.674 145.416 147.057 144.271 147.141L143.872 147.156C142.627 147.156 141.635 146.82 140.896 146.148C140.156 145.477 139.781 144.552 139.771 143.375V135.625H141.255V143.328C141.255 144.151 141.482 144.792 141.935 145.25C142.388 145.703 143.034 145.93 143.872 145.93C144.721 145.93 145.37 145.703 145.817 145.25C146.271 144.797 146.497 144.159 146.497 143.336V135.625H148.005ZM164.323 139.984L167.05 135.625H168.815L165.222 141.266L168.901 147H167.12L164.323 142.562L161.511 147H159.737L163.425 141.266L159.823 135.625H161.581L164.323 139.984ZM101.838 170V158.625H105.048C106.038 158.625 106.913 158.844 107.673 159.281C108.434 159.719 109.02 160.341 109.431 161.148C109.848 161.956 110.059 162.883 110.064 163.93V164.656C110.064 165.729 109.856 166.669 109.439 167.477C109.028 168.284 108.436 168.904 107.666 169.336C106.9 169.768 106.007 169.99 104.986 170H101.838ZM103.338 159.859V168.773H104.916C106.072 168.773 106.97 168.414 107.611 167.695C108.257 166.977 108.58 165.953 108.58 164.625V163.961C108.58 162.669 108.275 161.667 107.666 160.953C107.061 160.234 106.202 159.87 105.088 159.859H103.338ZM129.007 164.742H124.077V168.773H129.804V170H122.577V158.625H129.726V159.859H124.077V163.516H129.007V164.742ZM145.263 164.93C143.976 164.56 143.039 164.107 142.45 163.57C141.867 163.029 141.575 162.362 141.575 161.57C141.575 160.674 141.932 159.935 142.646 159.352C143.364 158.763 144.297 158.469 145.443 158.469C146.224 158.469 146.919 158.62 147.528 158.922C148.143 159.224 148.617 159.641 148.95 160.172C149.289 160.703 149.458 161.284 149.458 161.914H147.95C147.95 161.227 147.732 160.688 147.294 160.297C146.857 159.901 146.239 159.703 145.443 159.703C144.703 159.703 144.125 159.867 143.708 160.195C143.297 160.518 143.091 160.969 143.091 161.547C143.091 162.01 143.286 162.404 143.677 162.727C144.073 163.044 144.742 163.336 145.685 163.602C146.633 163.867 147.372 164.161 147.903 164.484C148.44 164.802 148.836 165.174 149.091 165.602C149.351 166.029 149.482 166.531 149.482 167.109C149.482 168.031 149.122 168.771 148.403 169.328C147.685 169.88 146.724 170.156 145.521 170.156C144.739 170.156 144.01 170.008 143.333 169.711C142.656 169.409 142.133 168.997 141.763 168.477C141.398 167.956 141.216 167.365 141.216 166.703H142.724C142.724 167.391 142.976 167.935 143.482 168.336C143.992 168.732 144.672 168.93 145.521 168.93C146.312 168.93 146.919 168.768 147.341 168.445C147.763 168.122 147.974 167.682 147.974 167.125C147.974 166.568 147.778 166.138 147.388 165.836C146.997 165.529 146.289 165.227 145.263 164.93ZM163.261 170H161.761V158.625H163.261V170ZM184.649 168.508C184.264 169.06 183.725 169.474 183.032 169.75C182.344 170.021 181.542 170.156 180.626 170.156C179.699 170.156 178.876 169.94 178.157 169.508C177.438 169.07 176.881 168.451 176.485 167.648C176.094 166.846 175.894 165.917 175.883 164.859V163.867C175.883 162.154 176.282 160.826 177.079 159.883C177.881 158.94 179.006 158.469 180.454 158.469C181.641 158.469 182.597 158.773 183.321 159.383C184.045 159.987 184.488 160.846 184.649 161.961H183.149C182.868 160.456 181.972 159.703 180.462 159.703C179.456 159.703 178.693 160.057 178.173 160.766C177.657 161.469 177.396 162.49 177.391 163.828V164.758C177.391 166.034 177.683 167.049 178.266 167.805C178.85 168.555 179.639 168.93 180.633 168.93C181.196 168.93 181.688 168.867 182.11 168.742C182.532 168.617 182.881 168.406 183.157 168.109V165.555H180.524V164.336H184.649V168.508ZM206.139 170H204.631L198.905 161.234V170H197.397V158.625H198.905L204.647 167.43V158.625H206.139V170ZM103.611 193H102.111V181.625H103.611V193ZM125.343 193H123.835L118.109 184.234V193H116.601V181.625H118.109L123.851 190.43V181.625H125.343V193ZM145.872 182.859H142.216V193H140.724V182.859H137.075V181.625H145.872V182.859ZM164.229 187.742H159.3V191.773H165.026V193H157.8V181.625H164.948V182.859H159.3V186.516H164.229V187.742ZM181.305 188.398H178.633V193H177.126V181.625H180.891C182.173 181.625 183.157 181.917 183.844 182.5C184.537 183.083 184.883 183.932 184.883 185.047C184.883 185.755 184.691 186.372 184.305 186.898C183.925 187.424 183.394 187.818 182.712 188.078L185.383 192.906V193H183.774L181.305 188.398ZM178.633 187.172H180.938C181.683 187.172 182.274 186.979 182.712 186.594C183.154 186.208 183.376 185.693 183.376 185.047C183.376 184.344 183.165 183.805 182.743 183.43C182.326 183.055 181.722 182.865 180.93 182.859H178.633V187.172ZM205.975 193H204.467L198.741 184.234V193H197.233V181.625H198.741L204.483 190.43V181.625H205.975V193Z" fill="#444444"/>
<path d="M100.555 109.992V114H98.2111V102.625H102.649C103.503 102.625 104.253 102.781 104.899 103.094C105.55 103.406 106.05 103.852 106.399 104.43C106.748 105.003 106.922 105.656 106.922 106.391C106.922 107.505 106.539 108.385 105.774 109.031C105.013 109.672 103.959 109.992 102.61 109.992H100.555ZM100.555 108.094H102.649C103.268 108.094 103.74 107.948 104.063 107.656C104.391 107.365 104.555 106.948 104.555 106.406C104.555 105.849 104.391 105.398 104.063 105.055C103.735 104.711 103.281 104.534 102.703 104.523H100.555V108.094ZM115.383 109.07H110.883V112.117H116.164V114H108.539V102.625H116.149V104.523H110.883V107.234H115.383V109.07ZM126.539 112.562C126.117 113.068 125.521 113.461 124.75 113.742C123.979 114.018 123.125 114.156 122.188 114.156C121.203 114.156 120.339 113.943 119.594 113.516C118.854 113.083 118.281 112.458 117.875 111.641C117.474 110.823 117.268 109.862 117.258 108.758V107.984C117.258 106.849 117.448 105.867 117.828 105.039C118.214 104.206 118.766 103.57 119.485 103.133C120.209 102.69 121.055 102.469 122.024 102.469C123.373 102.469 124.427 102.792 125.188 103.438C125.948 104.078 126.399 105.013 126.539 106.242H124.258C124.154 105.591 123.922 105.115 123.563 104.812C123.209 104.51 122.719 104.359 122.094 104.359C121.297 104.359 120.69 104.659 120.274 105.258C119.857 105.857 119.646 106.747 119.641 107.93V108.656C119.641 109.849 119.867 110.75 120.321 111.359C120.774 111.969 121.438 112.273 122.313 112.273C123.193 112.273 123.821 112.086 124.196 111.711V109.75H122.063V108.023H126.539V112.562ZM134.867 111.656H130.758L129.977 114H127.485L131.719 102.625H133.891L138.149 114H135.656L134.867 111.656ZM131.391 109.758H134.235L132.805 105.5L131.391 109.758ZM145.11 111.016C145.11 110.573 144.953 110.234 144.641 110C144.328 109.76 143.766 109.51 142.953 109.25C142.141 108.984 141.498 108.724 141.024 108.469C139.732 107.771 139.086 106.831 139.086 105.648C139.086 105.034 139.258 104.487 139.602 104.008C139.951 103.523 140.448 103.146 141.094 102.875C141.745 102.604 142.474 102.469 143.281 102.469C144.094 102.469 144.818 102.617 145.453 102.914C146.089 103.206 146.581 103.62 146.93 104.156C147.284 104.693 147.461 105.302 147.461 105.984H145.117C145.117 105.464 144.953 105.06 144.625 104.773C144.297 104.482 143.836 104.336 143.242 104.336C142.669 104.336 142.224 104.458 141.906 104.703C141.589 104.943 141.43 105.26 141.43 105.656C141.43 106.026 141.615 106.336 141.985 106.586C142.36 106.836 142.909 107.07 143.633 107.289C144.966 107.69 145.938 108.188 146.547 108.781C147.156 109.375 147.461 110.115 147.461 111C147.461 111.984 147.089 112.758 146.344 113.32C145.599 113.878 144.597 114.156 143.336 114.156C142.461 114.156 141.664 113.997 140.946 113.68C140.227 113.357 139.677 112.917 139.297 112.359C138.922 111.802 138.735 111.156 138.735 110.422H141.086C141.086 111.677 141.836 112.305 143.336 112.305C143.893 112.305 144.328 112.193 144.641 111.969C144.953 111.74 145.11 111.422 145.11 111.016ZM152.977 107.75L155.344 102.625H157.906L154.172 109.875V114H151.789V109.875L148.055 102.625H150.625L152.977 107.75ZM164.719 111.016C164.719 110.573 164.563 110.234 164.25 110C163.938 109.76 163.375 109.51 162.563 109.25C161.75 108.984 161.107 108.724 160.633 108.469C159.341 107.771 158.696 106.831 158.696 105.648C158.696 105.034 158.867 104.487 159.211 104.008C159.56 103.523 160.057 103.146 160.703 102.875C161.354 102.604 162.084 102.469 162.891 102.469C163.703 102.469 164.427 102.617 165.063 102.914C165.698 103.206 166.19 103.62 166.539 104.156C166.893 104.693 167.071 105.302 167.071 105.984H164.727C164.727 105.464 164.563 105.06 164.235 104.773C163.906 104.482 163.446 104.336 162.852 104.336C162.279 104.336 161.834 104.458 161.516 104.703C161.198 104.943 161.039 105.26 161.039 105.656C161.039 106.026 161.224 106.336 161.594 106.586C161.969 106.836 162.518 107.07 163.242 107.289C164.576 107.69 165.547 108.188 166.156 108.781C166.766 109.375 167.071 110.115 167.071 111C167.071 111.984 166.698 112.758 165.953 113.32C165.209 113.878 164.206 114.156 162.946 114.156C162.071 114.156 161.274 113.997 160.555 113.68C159.836 113.357 159.287 112.917 158.906 112.359C158.531 111.802 158.344 111.156 158.344 110.422H160.696C160.696 111.677 161.446 112.305 162.946 112.305C163.503 112.305 163.938 112.193 164.25 111.969C164.563 111.74 164.719 111.422 164.719 111.016ZM177.227 104.523H173.742V114H171.399V104.523H167.961V102.625H177.227V104.523ZM185.414 109.07H180.914V112.117H186.196V114H178.571V102.625H186.18V104.523H180.914V107.234H185.414V109.07ZM190.633 102.625L193.555 110.875L196.461 102.625H199.539V114H197.188V110.891L197.422 105.523L194.352 114H192.742L189.68 105.531L189.914 110.891V114H187.571V102.625H190.633ZM207.485 111.016C207.485 110.573 207.328 110.234 207.016 110C206.703 109.76 206.141 109.51 205.328 109.25C204.516 108.984 203.873 108.724 203.399 108.469C202.107 107.771 201.461 106.831 201.461 105.648C201.461 105.034 201.633 104.487 201.977 104.008C202.326 103.523 202.823 103.146 203.469 102.875C204.12 102.604 204.849 102.469 205.656 102.469C206.469 102.469 207.193 102.617 207.828 102.914C208.464 103.206 208.956 103.62 209.305 104.156C209.659 104.693 209.836 105.302 209.836 105.984H207.492C207.492 105.464 207.328 105.06 207 104.773C206.672 104.482 206.211 104.336 205.617 104.336C205.044 104.336 204.599 104.458 204.281 104.703C203.964 104.943 203.805 105.26 203.805 105.656C203.805 106.026 203.99 106.336 204.36 106.586C204.735 106.836 205.284 107.07 206.008 107.289C207.341 107.69 208.313 108.188 208.922 108.781C209.531 109.375 209.836 110.115 209.836 111C209.836 111.984 209.464 112.758 208.719 113.32C207.974 113.878 206.972 114.156 205.711 114.156C204.836 114.156 204.039 113.997 203.321 113.68C202.602 113.357 202.052 112.917 201.672 112.359C201.297 111.802 201.11 111.156 201.11 110.422H203.461C203.461 111.677 204.211 112.305 205.711 112.305C206.268 112.305 206.703 112.193 207.016 111.969C207.328 111.74 207.485 111.422 207.485 111.016Z" fill="#444444"/>
<defs>
<filter id="filter0_d" x="0" y="0" width="308" height="282" filterUnits="userSpaceOnUse" color-interpolation-filters="sRGB">
<feFlood flood-opacity="0" result="BackgroundImageFix"/>
<feColorMatrix in="SourceAlpha" type="matrix" values="0 0 0 0 0 0 0 0 0 0 0 0 0 0 0 0 0 0 127 0"/>
<feOffset dy="4"/>
<feGaussianBlur stdDeviation="2"/>
<feColorMatrix type="matrix" values="0 0 0 0 0 0 0 0 0 0 0 0 0 0 0 0 0 0 0.25 0"/>
<feBlend mode="normal" in2="BackgroundImageFix" result="effect1_dropShadow"/>
<feBlend mode="normal" in="SourceGraphic" in2="effect1_dropShadow" result="shape"/>
</filter>
</defs>
</svg>
