<svg width="264" height="343" viewBox="0 0 264 343" fill="none" xmlns="http://www.w3.org/2000/svg">
<rect y="43" width="264" height="280" rx="20" fill="#0A121C"/>
<path d="M80.8432 171.36C80.4752 171.36 80.1412 171.43 79.8412 171.57C79.5412 171.706 79.2832 171.892 79.0672 172.128C78.8552 172.364 78.6912 172.642 78.5752 172.962C78.4592 173.282 78.4012 173.624 78.4012 173.988C78.4012 174.344 78.4512 174.656 78.5512 174.924C78.6552 175.192 78.7892 175.416 78.9532 175.596C79.1212 175.776 79.3092 175.912 79.5172 176.004C79.7252 176.092 79.9352 176.136 80.1472 176.136C80.3352 176.136 80.5132 176.104 80.6812 176.04C80.8492 175.976 81.0052 175.896 81.1492 175.8C81.2932 175.704 81.4232 175.6 81.5392 175.488C81.6552 175.372 81.7532 175.264 81.8332 175.164V171.36H80.8432ZM81.8332 177V176.028L81.3172 176.706C81.1732 176.802 80.9812 176.892 80.7412 176.976C80.5012 177.06 80.2252 177.102 79.9132 177.102C79.5532 177.102 79.2132 177.038 78.8932 176.91C78.5732 176.778 78.2932 176.58 78.0532 176.316C77.8132 176.048 77.6232 175.71 77.4832 175.302C77.3432 174.89 77.2732 174.404 77.2732 173.844C77.2732 173.364 77.3652 172.916 77.5492 172.5C77.7372 172.08 77.9912 171.714 78.3112 171.402C78.6312 171.09 79.0072 170.846 79.4392 170.67C79.8752 170.49 80.3412 170.4 80.8372 170.4H81.8332V167.28L82.9132 167.4V175.92L83.0332 177H81.8332ZM90.3759 176.226C90.2519 176.354 90.1159 176.472 89.9679 176.58C89.8199 176.688 89.6559 176.782 89.4759 176.862C89.2959 176.938 89.0959 176.996 88.8759 177.036C88.6599 177.08 88.4179 177.102 88.1499 177.102C87.6179 177.102 87.1579 177.008 86.7699 176.82C86.3819 176.632 86.0619 176.38 85.8099 176.064C85.5579 175.748 85.3719 175.386 85.2519 174.978C85.1319 174.57 85.0719 174.144 85.0719 173.7C85.0719 173.416 85.0999 173.136 85.1559 172.86C85.2159 172.58 85.2999 172.314 85.4079 172.062C85.5199 171.81 85.6579 171.576 85.8219 171.36C85.9899 171.144 86.1819 170.958 86.3979 170.802C86.6179 170.646 86.8599 170.524 87.1239 170.436C87.3919 170.344 87.6839 170.298 87.9999 170.298C88.4319 170.298 88.8219 170.368 89.1699 170.508C89.5179 170.648 89.8139 170.844 90.0579 171.096C90.3019 171.348 90.4899 171.652 90.6219 172.008C90.7539 172.36 90.8199 172.748 90.8199 173.172C90.8199 173.296 90.8159 173.432 90.8079 173.58C90.7999 173.728 90.7879 173.868 90.7719 174H86.2119C86.2119 174.308 86.2599 174.594 86.3559 174.858C86.4519 175.118 86.5819 175.344 86.7459 175.536C86.9139 175.724 87.1099 175.872 87.3339 175.98C87.5619 176.088 87.8079 176.142 88.0719 176.142C88.3279 176.142 88.5459 176.124 88.7259 176.088C88.9099 176.048 89.0639 176 89.1879 175.944C89.3159 175.888 89.4219 175.828 89.5059 175.764C89.5899 175.7 89.6619 175.64 89.7219 175.584L90.3759 176.226ZM89.7639 173.1V172.836C89.7639 172.608 89.7179 172.398 89.6259 172.206C89.5379 172.014 89.4159 171.848 89.2599 171.708C89.1079 171.564 88.9299 171.452 88.7259 171.372C88.5259 171.292 88.3139 171.252 88.0899 171.252C87.8219 171.252 87.5859 171.296 87.3819 171.384C87.1819 171.468 87.0099 171.578 86.8659 171.714C86.7219 171.846 86.6059 171.992 86.5179 172.152C86.4299 172.312 86.3659 172.464 86.3259 172.608L85.9719 173.292L87.0819 173.1H89.7639ZM97.7486 171.606C97.6726 171.57 97.5806 171.53 97.4726 171.486C97.3686 171.438 97.2506 171.396 97.1186 171.36C96.9866 171.32 96.8406 171.288 96.6806 171.264C96.5246 171.236 96.3566 171.222 96.1766 171.222C95.9326 171.222 95.6946 171.234 95.4626 171.258C95.2306 171.282 95.0246 171.326 94.8446 171.39C94.6646 171.454 94.5186 171.54 94.4066 171.648C94.2986 171.756 94.2446 171.896 94.2446 172.068C94.2446 172.212 94.2986 172.336 94.4066 172.44C94.5146 172.54 94.6546 172.628 94.8266 172.704C95.0026 172.776 95.2006 172.84 95.4206 172.896C95.6406 172.948 95.8626 172.998 96.0866 173.046C96.3106 173.094 96.5266 173.142 96.7346 173.19C96.9426 173.234 97.1226 173.284 97.2746 173.34C97.4506 173.408 97.6146 173.494 97.7666 173.598C97.9226 173.702 98.0586 173.824 98.1746 173.964C98.2906 174.1 98.3806 174.252 98.4446 174.42C98.5126 174.584 98.5466 174.762 98.5466 174.954C98.5466 175.214 98.4966 175.448 98.3966 175.656C98.2966 175.86 98.1606 176.042 97.9886 176.202C97.8206 176.358 97.6246 176.494 97.4006 176.61C97.1766 176.722 96.9386 176.816 96.6866 176.892C96.4386 176.964 96.1846 177.016 95.9246 177.048C95.6686 177.084 95.4226 177.102 95.1866 177.102C95.0506 177.102 94.8806 177.088 94.6766 177.06C94.4766 177.036 94.2706 177.002 94.0586 176.958C93.8506 176.91 93.6526 176.854 93.4646 176.79C93.2766 176.726 93.1306 176.658 93.0266 176.586L93.4226 175.734C93.5186 175.782 93.6446 175.83 93.8006 175.878C93.9566 175.926 94.1206 175.97 94.2926 176.01C94.4646 176.05 94.6306 176.082 94.7906 176.106C94.9546 176.13 95.0906 176.142 95.1986 176.142C95.3226 176.142 95.4606 176.136 95.6126 176.124C95.7686 176.108 95.9266 176.084 96.0866 176.052C96.2506 176.016 96.4086 175.97 96.5606 175.914C96.7166 175.854 96.8546 175.78 96.9746 175.692C97.0946 175.604 97.1906 175.5 97.2626 175.38C97.3386 175.26 97.3766 175.12 97.3766 174.96C97.3766 174.804 97.3246 174.672 97.2206 174.564C97.1166 174.456 96.9786 174.364 96.8066 174.288C96.6346 174.212 96.4406 174.148 96.2246 174.096C96.0126 174.04 95.7946 173.988 95.5706 173.94C95.3466 173.892 95.1306 173.844 94.9226 173.796C94.7146 173.744 94.5326 173.68 94.3766 173.604C94.1486 173.496 93.9586 173.38 93.8066 173.256C93.6586 173.128 93.5386 172.994 93.4466 172.854C93.3586 172.714 93.2966 172.568 93.2606 172.416C93.2246 172.264 93.2066 172.108 93.2066 171.948C93.2066 171.664 93.2866 171.418 93.4466 171.21C93.6106 171.002 93.8286 170.832 94.1006 170.7C94.3726 170.564 94.6846 170.464 95.0366 170.4C95.3886 170.332 95.7566 170.298 96.1406 170.298C96.3486 170.298 96.5506 170.31 96.7466 170.334C96.9466 170.358 97.1326 170.39 97.3046 170.43C97.4806 170.47 97.6366 170.516 97.7726 170.568C97.9086 170.616 98.0166 170.666 98.0966 170.718L97.7486 171.606ZM104.047 174.642C104.047 174.85 104.059 175.042 104.083 175.218C104.111 175.394 104.155 175.546 104.215 175.674C104.275 175.802 104.355 175.902 104.455 175.974C104.555 176.046 104.679 176.082 104.827 176.082C105.023 176.082 105.213 176.066 105.397 176.034C105.585 176.002 105.753 175.966 105.901 175.926C106.049 175.882 106.171 175.842 106.267 175.806C106.367 175.77 106.429 175.748 106.453 175.74L106.687 176.664C106.663 176.676 106.599 176.706 106.495 176.754C106.391 176.802 106.255 176.852 106.087 176.904C105.919 176.952 105.723 176.996 105.499 177.036C105.275 177.08 105.031 177.102 104.767 177.102C104.375 177.102 104.057 177.038 103.813 176.91C103.573 176.782 103.385 176.606 103.249 176.382C103.113 176.154 103.021 175.886 102.973 175.578C102.929 175.27 102.907 174.938 102.907 174.582V171.48L103.147 171.12L102.307 171.36H101.101L100.981 170.4H104.047V174.642ZM102.871 168H104.083V169.2H102.871V168ZM113.046 176.19L112.524 176.85C112.488 176.874 112.436 176.9 112.368 176.928C112.304 176.956 112.224 176.982 112.128 177.006C112.032 177.034 111.92 177.056 111.792 177.072C111.664 177.092 111.522 177.102 111.366 177.102C111.122 177.102 110.882 177.062 110.646 176.982C110.41 176.902 110.184 176.788 109.968 176.64C109.756 176.492 109.56 176.316 109.38 176.112C109.2 175.904 109.042 175.676 108.906 175.428C108.774 175.176 108.67 174.908 108.594 174.624C108.522 174.336 108.486 174.038 108.486 173.73C108.486 173.262 108.562 172.82 108.714 172.404C108.866 171.988 109.08 171.624 109.356 171.312C109.632 171 109.964 170.754 110.352 170.574C110.74 170.39 111.17 170.298 111.642 170.298C111.79 170.298 111.934 170.304 112.074 170.316C112.218 170.328 112.352 170.356 112.476 170.4L113.046 171.252V170.28L114.126 170.4V177.276C114.126 177.668 114.062 178.036 113.934 178.38C113.806 178.724 113.62 179.022 113.376 179.274C113.132 179.53 112.832 179.732 112.476 179.88C112.12 180.028 111.714 180.102 111.258 180.102C110.942 180.102 110.664 180.062 110.424 179.982C110.188 179.902 109.986 179.814 109.818 179.718C109.722 179.662 109.632 179.602 109.548 179.538C109.464 179.474 109.388 179.404 109.32 179.328L109.908 178.668C109.964 178.712 110.024 178.754 110.088 178.794C110.156 178.834 110.226 178.872 110.298 178.908C110.422 178.968 110.566 179.022 110.73 179.07C110.894 179.118 111.072 179.142 111.264 179.142C111.512 179.142 111.744 179.09 111.96 178.986C112.176 178.886 112.364 178.748 112.524 178.572C112.688 178.396 112.816 178.188 112.908 177.948C113 177.712 113.046 177.458 113.046 177.186V176.19ZM113.046 171.996C112.942 171.864 112.816 171.742 112.668 171.63C112.544 171.538 112.394 171.454 112.218 171.378C112.042 171.298 111.84 171.258 111.612 171.258C111.372 171.258 111.156 171.296 110.964 171.372C110.772 171.448 110.602 171.55 110.454 171.678C110.31 171.806 110.184 171.956 110.076 172.128C109.972 172.296 109.886 172.476 109.818 172.668C109.754 172.856 109.706 173.048 109.674 173.244C109.642 173.436 109.626 173.622 109.626 173.802C109.626 174.142 109.678 174.456 109.782 174.744C109.89 175.028 110.03 175.274 110.202 175.482C110.374 175.686 110.57 175.846 110.79 175.962C111.01 176.078 111.234 176.136 111.462 176.136C111.666 176.136 111.848 176.114 112.008 176.07C112.168 176.026 112.312 175.968 112.44 175.896C112.568 175.82 112.68 175.736 112.776 175.644C112.876 175.548 112.966 175.45 113.046 175.35V171.996ZM117.737 177H116.657V170.4L117.737 170.28V171.438L118.103 170.736C118.175 170.688 118.259 170.638 118.355 170.586C118.455 170.534 118.575 170.488 118.715 170.448C118.855 170.404 119.021 170.368 119.213 170.34C119.405 170.312 119.631 170.298 119.891 170.298C120.207 170.298 120.491 170.35 120.743 170.454C120.999 170.554 121.213 170.7 121.385 170.892C121.561 171.084 121.695 171.316 121.787 171.588C121.883 171.86 121.931 172.164 121.931 172.5V177H120.851V172.5C120.851 172.284 120.815 172.098 120.743 171.942C120.675 171.786 120.579 171.658 120.455 171.558C120.331 171.454 120.187 171.378 120.023 171.33C119.859 171.282 119.685 171.258 119.501 171.258C119.309 171.258 119.123 171.282 118.943 171.33C118.767 171.378 118.603 171.44 118.451 171.516C118.299 171.588 118.161 171.668 118.037 171.756C117.917 171.84 117.817 171.92 117.737 171.996V177ZM136.772 171.606C136.696 171.57 136.604 171.53 136.496 171.486C136.392 171.438 136.274 171.396 136.142 171.36C136.01 171.32 135.864 171.288 135.704 171.264C135.548 171.236 135.38 171.222 135.2 171.222C134.956 171.222 134.718 171.234 134.486 171.258C134.254 171.282 134.048 171.326 133.868 171.39C133.688 171.454 133.542 171.54 133.43 171.648C133.322 171.756 133.268 171.896 133.268 172.068C133.268 172.212 133.322 172.336 133.43 172.44C133.538 172.54 133.678 172.628 133.85 172.704C134.026 172.776 134.224 172.84 134.444 172.896C134.664 172.948 134.886 172.998 135.11 173.046C135.334 173.094 135.55 173.142 135.758 173.19C135.966 173.234 136.146 173.284 136.298 173.34C136.474 173.408 136.638 173.494 136.79 173.598C136.946 173.702 137.082 173.824 137.198 173.964C137.314 174.1 137.404 174.252 137.468 174.42C137.536 174.584 137.57 174.762 137.57 174.954C137.57 175.214 137.52 175.448 137.42 175.656C137.32 175.86 137.184 176.042 137.012 176.202C136.844 176.358 136.648 176.494 136.424 176.61C136.2 176.722 135.962 176.816 135.71 176.892C135.462 176.964 135.208 177.016 134.948 177.048C134.692 177.084 134.446 177.102 134.21 177.102C134.074 177.102 133.904 177.088 133.7 177.06C133.5 177.036 133.294 177.002 133.082 176.958C132.874 176.91 132.676 176.854 132.488 176.79C132.3 176.726 132.154 176.658 132.05 176.586L132.446 175.734C132.542 175.782 132.668 175.83 132.824 175.878C132.98 175.926 133.144 175.97 133.316 176.01C133.488 176.05 133.654 176.082 133.814 176.106C133.978 176.13 134.114 176.142 134.222 176.142C134.346 176.142 134.484 176.136 134.636 176.124C134.792 176.108 134.95 176.084 135.11 176.052C135.274 176.016 135.432 175.97 135.584 175.914C135.74 175.854 135.878 175.78 135.998 175.692C136.118 175.604 136.214 175.5 136.286 175.38C136.362 175.26 136.4 175.12 136.4 174.96C136.4 174.804 136.348 174.672 136.244 174.564C136.14 174.456 136.002 174.364 135.83 174.288C135.658 174.212 135.464 174.148 135.248 174.096C135.036 174.04 134.818 173.988 134.594 173.94C134.37 173.892 134.154 173.844 133.946 173.796C133.738 173.744 133.556 173.68 133.4 173.604C133.172 173.496 132.982 173.38 132.83 173.256C132.682 173.128 132.562 172.994 132.47 172.854C132.382 172.714 132.32 172.568 132.284 172.416C132.248 172.264 132.23 172.108 132.23 171.948C132.23 171.664 132.31 171.418 132.47 171.21C132.634 171.002 132.852 170.832 133.124 170.7C133.396 170.564 133.708 170.464 134.06 170.4C134.412 170.332 134.78 170.298 135.164 170.298C135.372 170.298 135.574 170.31 135.77 170.334C135.97 170.358 136.156 170.39 136.328 170.43C136.504 170.47 136.66 170.516 136.796 170.568C136.932 170.616 137.04 170.666 137.12 170.718L136.772 171.606ZM143.077 174.816L144.691 170.4L145.771 170.28L143.347 177.102C143.227 177.438 143.097 177.772 142.957 178.104C142.821 178.436 142.665 178.734 142.489 178.998C142.317 179.262 142.121 179.474 141.901 179.634C141.685 179.798 141.437 179.88 141.157 179.88C140.933 179.88 140.727 179.836 140.539 179.748C140.351 179.66 140.173 179.544 140.005 179.4L140.443 178.698C140.467 178.722 140.497 178.75 140.533 178.782C140.573 178.814 140.615 178.844 140.659 178.872C140.707 178.904 140.757 178.93 140.809 178.95C140.865 178.97 140.921 178.98 140.977 178.98C141.121 178.98 141.251 178.928 141.367 178.824C141.487 178.724 141.597 178.592 141.697 178.428C141.801 178.264 141.895 178.082 141.979 177.882C142.067 177.682 142.151 177.482 142.231 177.282L139.789 170.4L140.929 170.28L142.513 174.816L142.825 176.208L143.077 174.816ZM152.381 171.606C152.305 171.57 152.213 171.53 152.105 171.486C152.001 171.438 151.883 171.396 151.751 171.36C151.619 171.32 151.473 171.288 151.313 171.264C151.157 171.236 150.989 171.222 150.809 171.222C150.565 171.222 150.327 171.234 150.095 171.258C149.863 171.282 149.657 171.326 149.477 171.39C149.297 171.454 149.151 171.54 149.039 171.648C148.931 171.756 148.877 171.896 148.877 172.068C148.877 172.212 148.931 172.336 149.039 172.44C149.147 172.54 149.287 172.628 149.459 172.704C149.635 172.776 149.833 172.84 150.053 172.896C150.273 172.948 150.495 172.998 150.719 173.046C150.943 173.094 151.159 173.142 151.367 173.19C151.575 173.234 151.755 173.284 151.907 173.34C152.083 173.408 152.247 173.494 152.399 173.598C152.555 173.702 152.691 173.824 152.807 173.964C152.923 174.1 153.013 174.252 153.077 174.42C153.145 174.584 153.179 174.762 153.179 174.954C153.179 175.214 153.129 175.448 153.029 175.656C152.929 175.86 152.793 176.042 152.621 176.202C152.453 176.358 152.257 176.494 152.033 176.61C151.809 176.722 151.571 176.816 151.319 176.892C151.071 176.964 150.817 177.016 150.557 177.048C150.301 177.084 150.055 177.102 149.819 177.102C149.683 177.102 149.513 177.088 149.309 177.06C149.109 177.036 148.903 177.002 148.691 176.958C148.483 176.91 148.285 176.854 148.097 176.79C147.909 176.726 147.763 176.658 147.659 176.586L148.055 175.734C148.151 175.782 148.277 175.83 148.433 175.878C148.589 175.926 148.753 175.97 148.925 176.01C149.097 176.05 149.263 176.082 149.423 176.106C149.587 176.13 149.723 176.142 149.831 176.142C149.955 176.142 150.093 176.136 150.245 176.124C150.401 176.108 150.559 176.084 150.719 176.052C150.883 176.016 151.041 175.97 151.193 175.914C151.349 175.854 151.487 175.78 151.607 175.692C151.727 175.604 151.823 175.5 151.895 175.38C151.971 175.26 152.009 175.12 152.009 174.96C152.009 174.804 151.957 174.672 151.853 174.564C151.749 174.456 151.611 174.364 151.439 174.288C151.267 174.212 151.073 174.148 150.857 174.096C150.645 174.04 150.427 173.988 150.203 173.94C149.979 173.892 149.763 173.844 149.555 173.796C149.347 173.744 149.165 173.68 149.009 173.604C148.781 173.496 148.591 173.38 148.439 173.256C148.291 173.128 148.171 172.994 148.079 172.854C147.991 172.714 147.929 172.568 147.893 172.416C147.857 172.264 147.839 172.108 147.839 171.948C147.839 171.664 147.919 171.418 148.079 171.21C148.243 171.002 148.461 170.832 148.733 170.7C149.005 170.564 149.317 170.464 149.669 170.4C150.021 170.332 150.389 170.298 150.773 170.298C150.981 170.298 151.183 170.31 151.379 170.334C151.579 170.358 151.765 170.39 151.937 170.43C152.113 170.47 152.269 170.516 152.405 170.568C152.541 170.616 152.649 170.666 152.729 170.718L152.381 171.606ZM157.84 174.744C157.84 175.008 157.854 175.23 157.882 175.41C157.914 175.586 157.958 175.73 158.014 175.842C158.074 175.95 158.146 176.028 158.23 176.076C158.318 176.12 158.418 176.142 158.53 176.142C158.718 176.142 158.904 176.12 159.088 176.076C159.272 176.032 159.444 175.982 159.604 175.926C159.764 175.866 159.906 175.808 160.03 175.752C160.154 175.692 160.25 175.648 160.318 175.62L160.732 176.346C160.696 176.378 160.608 176.436 160.468 176.52C160.332 176.6 160.158 176.684 159.946 176.772C159.738 176.86 159.502 176.936 159.238 177C158.974 177.068 158.698 177.102 158.41 177.102C158.05 177.102 157.76 177.036 157.54 176.904C157.324 176.772 157.158 176.592 157.042 176.364C156.926 176.136 156.85 175.872 156.814 175.572C156.778 175.268 156.76 174.944 156.76 174.6V171.36H155.014V170.4H156.76V169.146L157.81 168.48V170.4H160.714L160.594 171.36H157.84V174.744ZM168.423 176.226C168.299 176.354 168.163 176.472 168.015 176.58C167.867 176.688 167.703 176.782 167.523 176.862C167.343 176.938 167.143 176.996 166.923 177.036C166.707 177.08 166.465 177.102 166.197 177.102C165.665 177.102 165.205 177.008 164.817 176.82C164.429 176.632 164.109 176.38 163.857 176.064C163.605 175.748 163.419 175.386 163.299 174.978C163.179 174.57 163.119 174.144 163.119 173.7C163.119 173.416 163.147 173.136 163.203 172.86C163.263 172.58 163.347 172.314 163.455 172.062C163.567 171.81 163.705 171.576 163.869 171.36C164.037 171.144 164.229 170.958 164.445 170.802C164.665 170.646 164.907 170.524 165.171 170.436C165.439 170.344 165.731 170.298 166.047 170.298C166.479 170.298 166.869 170.368 167.217 170.508C167.565 170.648 167.861 170.844 168.105 171.096C168.349 171.348 168.537 171.652 168.669 172.008C168.801 172.36 168.867 172.748 168.867 173.172C168.867 173.296 168.863 173.432 168.855 173.58C168.847 173.728 168.835 173.868 168.819 174H164.259C164.259 174.308 164.307 174.594 164.403 174.858C164.499 175.118 164.629 175.344 164.793 175.536C164.961 175.724 165.157 175.872 165.381 175.98C165.609 176.088 165.855 176.142 166.119 176.142C166.375 176.142 166.593 176.124 166.773 176.088C166.957 176.048 167.111 176 167.235 175.944C167.363 175.888 167.469 175.828 167.553 175.764C167.637 175.7 167.709 175.64 167.769 175.584L168.423 176.226ZM167.811 173.1V172.836C167.811 172.608 167.765 172.398 167.673 172.206C167.585 172.014 167.463 171.848 167.307 171.708C167.155 171.564 166.977 171.452 166.773 171.372C166.573 171.292 166.361 171.252 166.137 171.252C165.869 171.252 165.633 171.296 165.429 171.384C165.229 171.468 165.057 171.578 164.913 171.714C164.769 171.846 164.653 171.992 164.565 172.152C164.477 172.312 164.413 172.464 164.373 172.608L164.019 173.292L165.129 173.1H167.811ZM171.607 177H170.539V170.4L171.607 170.28V171.378C171.691 171.218 171.755 171.094 171.799 171.006C171.847 170.914 171.881 170.848 171.901 170.808C171.925 170.764 171.939 170.738 171.943 170.73L171.955 170.712C171.991 170.676 172.041 170.634 172.105 170.586C172.173 170.538 172.255 170.494 172.351 170.454C172.447 170.41 172.557 170.374 172.681 170.346C172.805 170.314 172.945 170.298 173.101 170.298C173.325 170.298 173.509 170.328 173.653 170.388C173.797 170.444 173.915 170.524 174.007 170.628C174.099 170.728 174.171 170.85 174.223 170.994C174.275 171.138 174.323 171.294 174.367 171.462L174.745 170.742C174.785 170.706 174.849 170.662 174.937 170.61C175.029 170.558 175.133 170.51 175.249 170.466C175.369 170.418 175.495 170.378 175.627 170.346C175.759 170.314 175.889 170.298 176.017 170.298C176.321 170.298 176.561 170.35 176.737 170.454C176.917 170.554 177.051 170.7 177.139 170.892C177.231 171.084 177.289 171.316 177.313 171.588C177.341 171.86 177.355 172.164 177.355 172.5V177H176.287V172.56C176.287 172.344 176.283 172.156 176.275 171.996C176.271 171.832 176.247 171.696 176.203 171.588C176.163 171.476 176.097 171.394 176.005 171.342C175.917 171.286 175.791 171.258 175.627 171.258C175.547 171.258 175.449 171.284 175.333 171.336C175.217 171.384 175.101 171.448 174.985 171.528C174.873 171.604 174.767 171.692 174.667 171.792C174.571 171.888 174.503 171.986 174.463 172.086C174.463 172.11 174.463 172.15 174.463 172.206C174.467 172.258 174.469 172.314 174.469 172.374C174.473 172.43 174.475 172.484 174.475 172.536V177H173.401V172.68C173.401 172.464 173.397 172.268 173.389 172.092C173.381 171.916 173.355 171.768 173.311 171.648C173.271 171.524 173.203 171.428 173.107 171.36C173.015 171.292 172.883 171.258 172.711 171.258C172.647 171.258 172.565 171.276 172.465 171.312C172.365 171.348 172.261 171.402 172.153 171.474C172.049 171.542 171.947 171.626 171.847 171.726C171.751 171.822 171.671 171.932 171.607 172.056V177ZM183.6 171.606C183.524 171.57 183.432 171.53 183.324 171.486C183.22 171.438 183.102 171.396 182.97 171.36C182.838 171.32 182.692 171.288 182.532 171.264C182.376 171.236 182.208 171.222 182.028 171.222C181.784 171.222 181.546 171.234 181.314 171.258C181.082 171.282 180.876 171.326 180.696 171.39C180.516 171.454 180.37 171.54 180.258 171.648C180.15 171.756 180.096 171.896 180.096 172.068C180.096 172.212 180.15 172.336 180.258 172.44C180.366 172.54 180.506 172.628 180.678 172.704C180.854 172.776 181.052 172.84 181.272 172.896C181.492 172.948 181.714 172.998 181.938 173.046C182.162 173.094 182.378 173.142 182.586 173.19C182.794 173.234 182.974 173.284 183.126 173.34C183.302 173.408 183.466 173.494 183.618 173.598C183.774 173.702 183.91 173.824 184.026 173.964C184.142 174.1 184.232 174.252 184.296 174.42C184.364 174.584 184.398 174.762 184.398 174.954C184.398 175.214 184.348 175.448 184.248 175.656C184.148 175.86 184.012 176.042 183.84 176.202C183.672 176.358 183.476 176.494 183.252 176.61C183.028 176.722 182.79 176.816 182.538 176.892C182.29 176.964 182.036 177.016 181.776 177.048C181.52 177.084 181.274 177.102 181.038 177.102C180.902 177.102 180.732 177.088 180.528 177.06C180.328 177.036 180.122 177.002 179.91 176.958C179.702 176.91 179.504 176.854 179.316 176.79C179.128 176.726 178.982 176.658 178.878 176.586L179.274 175.734C179.37 175.782 179.496 175.83 179.652 175.878C179.808 175.926 179.972 175.97 180.144 176.01C180.316 176.05 180.482 176.082 180.642 176.106C180.806 176.13 180.942 176.142 181.05 176.142C181.174 176.142 181.312 176.136 181.464 176.124C181.62 176.108 181.778 176.084 181.938 176.052C182.102 176.016 182.26 175.97 182.412 175.914C182.568 175.854 182.706 175.78 182.826 175.692C182.946 175.604 183.042 175.5 183.114 175.38C183.19 175.26 183.228 175.12 183.228 174.96C183.228 174.804 183.176 174.672 183.072 174.564C182.968 174.456 182.83 174.364 182.658 174.288C182.486 174.212 182.292 174.148 182.076 174.096C181.864 174.04 181.646 173.988 181.422 173.94C181.198 173.892 180.982 173.844 180.774 173.796C180.566 173.744 180.384 173.68 180.228 173.604C180 173.496 179.81 173.38 179.658 173.256C179.51 173.128 179.39 172.994 179.298 172.854C179.21 172.714 179.148 172.568 179.112 172.416C179.076 172.264 179.058 172.108 179.058 171.948C179.058 171.664 179.138 171.418 179.298 171.21C179.462 171.002 179.68 170.832 179.952 170.7C180.224 170.564 180.536 170.464 180.888 170.4C181.24 170.332 181.608 170.298 181.992 170.298C182.2 170.298 182.402 170.31 182.598 170.334C182.798 170.358 182.984 170.39 183.156 170.43C183.332 170.47 183.488 170.516 183.624 170.568C183.76 170.616 183.868 170.666 183.948 170.718L183.6 171.606Z" fill="white"/>
<path d="M92.3402 203.642C92.3402 203.85 92.3522 204.042 92.3762 204.218C92.4042 204.394 92.4482 204.546 92.5082 204.674C92.5682 204.802 92.6482 204.902 92.7482 204.974C92.8482 205.046 92.9722 205.082 93.1202 205.082C93.3162 205.082 93.5062 205.066 93.6902 205.034C93.8782 205.002 94.0462 204.966 94.1942 204.926C94.3422 204.882 94.4642 204.842 94.5602 204.806C94.6602 204.77 94.7222 204.748 94.7462 204.74L94.9802 205.664C94.9562 205.676 94.8922 205.706 94.7882 205.754C94.6842 205.802 94.5482 205.852 94.3802 205.904C94.2122 205.952 94.0162 205.996 93.7922 206.036C93.5682 206.08 93.3242 206.102 93.0602 206.102C92.6682 206.102 92.3502 206.038 92.1062 205.91C91.8662 205.782 91.6782 205.606 91.5422 205.382C91.4062 205.154 91.3142 204.886 91.2662 204.578C91.2222 204.27 91.2002 203.938 91.2002 203.582V200.48L91.4402 200.12L90.6002 200.36H89.3942L89.2742 199.4H92.3402V203.642ZM91.1642 197H92.3762V198.2H91.1642V197ZM101.921 200.732C101.765 200.592 101.549 200.478 101.273 200.39C100.997 200.302 100.647 200.258 100.223 200.258C99.8869 200.258 99.5849 200.322 99.3169 200.45C99.0529 200.574 98.8269 200.744 98.6389 200.96C98.4549 201.176 98.3129 201.428 98.2129 201.716C98.1169 202 98.0689 202.3 98.0689 202.616C98.0689 202.944 98.1149 203.258 98.2069 203.558C98.3029 203.854 98.4429 204.116 98.6269 204.344C98.8149 204.572 99.0469 204.754 99.3229 204.89C99.5989 205.022 99.9209 205.088 100.289 205.088C100.497 205.088 100.697 205.064 100.889 205.016C101.081 204.968 101.255 204.912 101.411 204.848C101.567 204.78 101.699 204.714 101.807 204.65C101.919 204.582 101.999 204.528 102.047 204.488L102.479 205.334C102.419 205.386 102.329 205.456 102.209 205.544C102.089 205.628 101.935 205.712 101.747 205.796C101.563 205.88 101.343 205.952 101.087 206.012C100.835 206.072 100.541 206.102 100.205 206.102C99.7049 206.102 99.2509 206.004 98.8429 205.808C98.4389 205.608 98.0929 205.344 97.8049 205.016C97.5169 204.684 97.2929 204.304 97.1329 203.876C96.9769 203.448 96.8989 203.002 96.8989 202.538C96.8989 202.122 96.9749 201.72 97.1269 201.332C97.2829 200.94 97.5049 200.594 97.7929 200.294C98.0809 199.994 98.4309 199.754 98.8429 199.574C99.2549 199.39 99.7189 199.298 100.235 199.298C100.723 199.298 101.161 199.356 101.549 199.472C101.941 199.584 102.263 199.778 102.515 200.054L101.921 200.732ZM107.578 206.102C107.134 206.102 106.726 206.016 106.354 205.844C105.986 205.668 105.668 205.428 105.4 205.124C105.132 204.816 104.922 204.454 104.77 204.038C104.622 203.622 104.548 203.17 104.548 202.682C104.548 202.198 104.62 201.75 104.764 201.338C104.908 200.922 105.112 200.564 105.376 200.264C105.64 199.96 105.958 199.724 106.33 199.556C106.706 199.384 107.122 199.298 107.578 199.298C108.022 199.298 108.426 199.384 108.79 199.556C109.154 199.724 109.466 199.96 109.726 200.264C109.99 200.564 110.194 200.922 110.338 201.338C110.482 201.75 110.554 202.198 110.554 202.682C110.554 203.17 110.484 203.622 110.344 204.038C110.208 204.454 110.01 204.816 109.75 205.124C109.494 205.428 109.182 205.668 108.814 205.844C108.446 206.016 108.034 206.102 107.578 206.102ZM109.414 202.844C109.414 202.52 109.38 202.202 109.312 201.89C109.244 201.578 109.136 201.3 108.988 201.056C108.84 200.808 108.648 200.608 108.412 200.456C108.176 200.304 107.89 200.228 107.554 200.228C107.234 200.228 106.956 200.294 106.72 200.426C106.484 200.558 106.29 200.734 106.138 200.954C105.986 201.174 105.872 201.424 105.796 201.704C105.724 201.984 105.688 202.272 105.688 202.568C105.688 202.892 105.724 203.21 105.796 203.522C105.872 203.834 105.986 204.112 106.138 204.356C106.294 204.6 106.492 204.798 106.732 204.95C106.976 205.098 107.266 205.172 107.602 205.172C107.918 205.172 108.19 205.106 108.418 204.974C108.65 204.842 108.838 204.668 108.982 204.452C109.13 204.232 109.238 203.984 109.306 203.708C109.378 203.428 109.414 203.14 109.414 202.844ZM113.834 206H112.754V199.4L113.834 199.28V200.438L114.2 199.736C114.272 199.688 114.356 199.638 114.452 199.586C114.552 199.534 114.672 199.488 114.812 199.448C114.952 199.404 115.118 199.368 115.31 199.34C115.502 199.312 115.728 199.298 115.988 199.298C116.304 199.298 116.588 199.35 116.84 199.454C117.096 199.554 117.31 199.7 117.482 199.892C117.658 200.084 117.792 200.316 117.884 200.588C117.98 200.86 118.028 201.164 118.028 201.5V206H116.948V201.5C116.948 201.284 116.912 201.098 116.84 200.942C116.772 200.786 116.676 200.658 116.552 200.558C116.428 200.454 116.284 200.378 116.12 200.33C115.956 200.282 115.782 200.258 115.598 200.258C115.406 200.258 115.22 200.282 115.04 200.33C114.864 200.378 114.7 200.44 114.548 200.516C114.396 200.588 114.258 200.668 114.134 200.756C114.014 200.84 113.914 200.92 113.834 200.996V206ZM123.187 206.102C122.743 206.102 122.335 206.016 121.963 205.844C121.595 205.668 121.277 205.428 121.009 205.124C120.741 204.816 120.531 204.454 120.379 204.038C120.231 203.622 120.157 203.17 120.157 202.682C120.157 202.198 120.229 201.75 120.373 201.338C120.517 200.922 120.721 200.564 120.985 200.264C121.249 199.96 121.567 199.724 121.939 199.556C122.315 199.384 122.731 199.298 123.187 199.298C123.631 199.298 124.035 199.384 124.399 199.556C124.763 199.724 125.075 199.96 125.335 200.264C125.599 200.564 125.803 200.922 125.947 201.338C126.091 201.75 126.163 202.198 126.163 202.682C126.163 203.17 126.093 203.622 125.953 204.038C125.817 204.454 125.619 204.816 125.359 205.124C125.103 205.428 124.791 205.668 124.423 205.844C124.055 206.016 123.643 206.102 123.187 206.102ZM125.023 202.844C125.023 202.52 124.989 202.202 124.921 201.89C124.853 201.578 124.745 201.3 124.597 201.056C124.449 200.808 124.257 200.608 124.021 200.456C123.785 200.304 123.499 200.228 123.163 200.228C122.843 200.228 122.565 200.294 122.329 200.426C122.093 200.558 121.899 200.734 121.747 200.954C121.595 201.174 121.481 201.424 121.405 201.704C121.333 201.984 121.297 202.272 121.297 202.568C121.297 202.892 121.333 203.21 121.405 203.522C121.481 203.834 121.595 204.112 121.747 204.356C121.903 204.6 122.101 204.798 122.341 204.95C122.585 205.098 122.875 205.172 123.211 205.172C123.527 205.172 123.799 205.106 124.027 204.974C124.259 204.842 124.447 204.668 124.591 204.452C124.739 204.232 124.847 203.984 124.915 203.708C124.987 203.428 125.023 203.14 125.023 202.844ZM132.558 205.19L132.036 205.85C132 205.874 131.948 205.9 131.88 205.928C131.816 205.956 131.736 205.982 131.64 206.006C131.544 206.034 131.432 206.056 131.304 206.072C131.176 206.092 131.034 206.102 130.878 206.102C130.634 206.102 130.394 206.062 130.158 205.982C129.922 205.902 129.696 205.788 129.48 205.64C129.268 205.492 129.072 205.316 128.892 205.112C128.712 204.904 128.554 204.676 128.418 204.428C128.286 204.176 128.182 203.908 128.106 203.624C128.034 203.336 127.998 203.038 127.998 202.73C127.998 202.262 128.074 201.82 128.226 201.404C128.378 200.988 128.592 200.624 128.868 200.312C129.144 200 129.476 199.754 129.864 199.574C130.252 199.39 130.682 199.298 131.154 199.298C131.302 199.298 131.446 199.304 131.586 199.316C131.73 199.328 131.864 199.356 131.988 199.4L132.558 200.252V199.28L133.638 199.4V206.276C133.638 206.668 133.574 207.036 133.446 207.38C133.318 207.724 133.132 208.022 132.888 208.274C132.644 208.53 132.344 208.732 131.988 208.88C131.632 209.028 131.226 209.102 130.77 209.102C130.454 209.102 130.176 209.062 129.936 208.982C129.7 208.902 129.498 208.814 129.33 208.718C129.234 208.662 129.144 208.602 129.06 208.538C128.976 208.474 128.9 208.404 128.832 208.328L129.42 207.668C129.476 207.712 129.536 207.754 129.6 207.794C129.668 207.834 129.738 207.872 129.81 207.908C129.934 207.968 130.078 208.022 130.242 208.07C130.406 208.118 130.584 208.142 130.776 208.142C131.024 208.142 131.256 208.09 131.472 207.986C131.688 207.886 131.876 207.748 132.036 207.572C132.2 207.396 132.328 207.188 132.42 206.948C132.512 206.712 132.558 206.458 132.558 206.186V205.19ZM132.558 200.996C132.454 200.864 132.328 200.742 132.18 200.63C132.056 200.538 131.906 200.454 131.73 200.378C131.554 200.298 131.352 200.258 131.124 200.258C130.884 200.258 130.668 200.296 130.476 200.372C130.284 200.448 130.114 200.55 129.966 200.678C129.822 200.806 129.696 200.956 129.588 201.128C129.484 201.296 129.398 201.476 129.33 201.668C129.266 201.856 129.218 202.048 129.186 202.244C129.154 202.436 129.138 202.622 129.138 202.802C129.138 203.142 129.19 203.456 129.294 203.744C129.402 204.028 129.542 204.274 129.714 204.482C129.886 204.686 130.082 204.846 130.302 204.962C130.522 205.078 130.746 205.136 130.974 205.136C131.178 205.136 131.36 205.114 131.52 205.07C131.68 205.026 131.824 204.968 131.952 204.896C132.08 204.82 132.192 204.736 132.288 204.644C132.388 204.548 132.478 204.45 132.558 204.35V200.996ZM137.248 200.63L137.794 199.682C137.906 199.598 138.034 199.53 138.178 199.478C138.322 199.426 138.47 199.388 138.622 199.364C138.774 199.336 138.926 199.318 139.078 199.31C139.234 199.302 139.382 199.298 139.522 199.298C139.822 199.298 140.078 199.312 140.29 199.34C140.502 199.364 140.68 199.396 140.824 199.436C140.972 199.476 141.09 199.518 141.178 199.562C141.266 199.602 141.334 199.638 141.382 199.67L141.682 201.38L140.782 201.5L140.482 200.432C140.45 200.42 140.4 200.408 140.332 200.396C140.264 200.384 140.186 200.372 140.098 200.36C140.01 200.348 139.916 200.338 139.816 200.33C139.72 200.322 139.628 200.318 139.54 200.318C139.268 200.318 139.016 200.35 138.784 200.414C138.552 200.474 138.34 200.558 138.148 200.666C137.956 200.774 137.784 200.9 137.632 201.044C137.484 201.188 137.356 201.34 137.248 201.5V206H136.168V199.4L137.248 199.28V200.63ZM149.367 206H148.167V205.028L147.603 205.7C147.535 205.752 147.447 205.802 147.339 205.85C147.235 205.898 147.123 205.942 147.003 205.982C146.883 206.018 146.761 206.046 146.637 206.066C146.513 206.09 146.395 206.102 146.283 206.102C145.983 206.102 145.681 206.056 145.377 205.964C145.073 205.868 144.799 205.73 144.555 205.55C144.311 205.366 144.111 205.14 143.955 204.872C143.803 204.6 143.727 204.288 143.727 203.936C143.727 203.564 143.805 203.244 143.961 202.976C144.121 202.704 144.329 202.48 144.585 202.304C144.841 202.128 145.133 201.998 145.461 201.914C145.789 201.83 146.121 201.788 146.457 201.788C146.837 201.788 147.167 201.81 147.447 201.854C147.727 201.894 147.967 201.952 148.167 202.028V201.77C148.167 201.534 148.137 201.322 148.077 201.134C148.021 200.946 147.931 200.788 147.807 200.66C147.683 200.528 147.523 200.428 147.327 200.36C147.135 200.292 146.905 200.258 146.637 200.258C146.385 200.258 146.167 200.274 145.983 200.306C145.803 200.334 145.635 200.366 145.479 200.402C145.387 200.422 145.299 200.444 145.215 200.468C145.131 200.492 145.049 200.516 144.969 200.54L144.537 199.736C144.705 199.66 144.905 199.588 145.137 199.52C145.329 199.464 145.547 199.414 145.791 199.37C146.039 199.322 146.341 199.298 146.697 199.298C147.157 199.298 147.549 199.36 147.873 199.484C148.197 199.608 148.461 199.782 148.665 200.006C148.869 200.23 149.017 200.5 149.109 200.816C149.201 201.128 149.247 201.476 149.247 201.86V204.92L149.367 206ZM148.167 202.85L147.807 202.802C147.751 202.798 147.677 202.792 147.585 202.784C147.493 202.776 147.393 202.77 147.285 202.766L146.967 202.754C146.863 202.75 146.773 202.748 146.697 202.748C146.473 202.748 146.253 202.768 146.037 202.808C145.821 202.848 145.627 202.914 145.455 203.006C145.287 203.098 145.149 203.22 145.041 203.372C144.937 203.52 144.885 203.706 144.885 203.93C144.885 204.11 144.925 204.274 145.005 204.422C145.085 204.57 145.191 204.698 145.323 204.806C145.459 204.914 145.613 204.998 145.785 205.058C145.961 205.114 146.143 205.142 146.331 205.142C146.703 205.142 147.037 205.072 147.333 204.932C147.629 204.788 147.907 204.596 148.167 204.356V202.85ZM152.852 205.04H153.836C154.204 205.04 154.538 204.98 154.838 204.86C155.138 204.736 155.394 204.564 155.606 204.344C155.818 204.124 155.982 203.86 156.098 203.552C156.214 203.244 156.272 202.904 156.272 202.532C156.272 202.14 156.218 201.802 156.11 201.518C156.002 201.23 155.864 200.994 155.696 200.81C155.528 200.622 155.34 200.484 155.132 200.396C154.928 200.304 154.728 200.258 154.532 200.258C154.336 200.258 154.152 200.284 153.98 200.336C153.812 200.384 153.656 200.446 153.512 200.522C153.372 200.598 153.246 200.682 153.134 200.774C153.022 200.866 152.928 200.954 152.852 201.038V205.04ZM151.772 209V199.4L152.852 199.28V200.336L153.422 199.574C153.538 199.506 153.702 199.444 153.914 199.388C154.13 199.328 154.394 199.298 154.706 199.298C155.038 199.298 155.366 199.376 155.69 199.532C156.014 199.688 156.302 199.91 156.554 200.198C156.81 200.486 157.016 200.834 157.172 201.242C157.332 201.65 157.412 202.106 157.412 202.61C157.412 203.102 157.316 203.556 157.124 203.972C156.936 204.384 156.674 204.742 156.338 205.046C156.006 205.346 155.616 205.58 155.168 205.748C154.72 205.916 154.238 206 153.722 206H152.852V209H151.772ZM160.662 206H159.582V197.6L159.462 196.4L160.662 196.28V200.3L161.196 199.61C161.352 199.522 161.576 199.448 161.868 199.388C162.16 199.328 162.536 199.298 162.996 199.298C163.6 199.298 164.06 199.498 164.376 199.898C164.696 200.294 164.856 200.868 164.856 201.62V206H163.716V201.746C163.716 201.478 163.692 201.25 163.644 201.062C163.6 200.874 163.536 200.72 163.452 200.6C163.368 200.48 163.264 200.394 163.14 200.342C163.016 200.286 162.876 200.258 162.72 200.258C162.48 200.258 162.25 200.282 162.03 200.33C161.814 200.378 161.616 200.44 161.436 200.516C161.256 200.588 161.098 200.668 160.962 200.756C160.83 200.844 160.73 200.926 160.662 201.002V206ZM170.393 203.816L172.007 199.4L173.087 199.28L170.663 206.102C170.543 206.438 170.413 206.772 170.273 207.104C170.137 207.436 169.981 207.734 169.805 207.998C169.633 208.262 169.437 208.474 169.217 208.634C169.001 208.798 168.753 208.88 168.473 208.88C168.249 208.88 168.043 208.836 167.855 208.748C167.667 208.66 167.489 208.544 167.321 208.4L167.759 207.698C167.783 207.722 167.813 207.75 167.849 207.782C167.889 207.814 167.931 207.844 167.975 207.872C168.023 207.904 168.073 207.93 168.125 207.95C168.181 207.97 168.237 207.98 168.293 207.98C168.437 207.98 168.567 207.928 168.683 207.824C168.803 207.724 168.913 207.592 169.013 207.428C169.117 207.264 169.211 207.082 169.295 206.882C169.383 206.682 169.467 206.482 169.547 206.282L167.105 199.4L168.245 199.28L169.829 203.816L170.141 205.208L170.393 203.816Z" fill="white"/>
<path d="M122.639 258.63L123.185 257.682C123.297 257.598 123.425 257.53 123.569 257.478C123.713 257.426 123.861 257.388 124.013 257.364C124.165 257.336 124.317 257.318 124.469 257.31C124.625 257.302 124.773 257.298 124.913 257.298C125.213 257.298 125.469 257.312 125.681 257.34C125.893 257.364 126.071 257.396 126.215 257.436C126.363 257.476 126.481 257.518 126.569 257.562C126.657 257.602 126.725 257.638 126.773 257.67L127.073 259.38L126.173 259.5L125.873 258.432C125.841 258.42 125.791 258.408 125.723 258.396C125.655 258.384 125.577 258.372 125.489 258.36C125.401 258.348 125.307 258.338 125.207 258.33C125.111 258.322 125.019 258.318 124.931 258.318C124.659 258.318 124.407 258.35 124.175 258.414C123.943 258.474 123.731 258.558 123.539 258.666C123.347 258.774 123.175 258.9 123.023 259.044C122.875 259.188 122.747 259.34 122.639 259.5V264H121.559V257.4L122.639 257.28V258.63ZM135.154 259.674C135.154 259.99 135.138 260.308 135.106 260.628C135.078 260.944 135.02 261.252 134.932 261.552C134.848 261.852 134.73 262.138 134.578 262.41C134.43 262.682 134.236 262.93 133.996 263.154H134.548L135.268 264.12H133.936L133.48 263.538C133.18 263.738 132.852 263.882 132.496 263.97C132.144 264.058 131.776 264.102 131.392 264.102C130.98 264.102 130.608 264.028 130.276 263.88C129.944 263.728 129.66 263.524 129.424 263.268C129.192 263.012 129.012 262.716 128.884 262.38C128.76 262.044 128.698 261.69 128.698 261.318C128.698 260.938 128.748 260.602 128.848 260.31C128.952 260.014 129.084 259.76 129.244 259.548C129.404 259.332 129.578 259.156 129.766 259.02C129.954 258.884 130.136 258.782 130.312 258.714C130.236 258.602 130.158 258.474 130.078 258.33C130.002 258.182 129.932 258.03 129.868 257.874C129.808 257.718 129.758 257.56 129.718 257.4C129.678 257.24 129.658 257.088 129.658 256.944C129.658 256.656 129.696 256.388 129.772 256.14C129.852 255.892 129.978 255.676 130.15 255.492C130.322 255.308 130.544 255.164 130.816 255.06C131.088 254.952 131.416 254.898 131.8 254.898C132.064 254.898 132.3 254.934 132.508 255.006C132.72 255.074 132.908 255.162 133.072 255.27C133.24 255.374 133.386 255.49 133.51 255.618C133.638 255.742 133.748 255.86 133.84 255.972L133.36 256.8C133.3 256.696 133.224 256.588 133.132 256.476C133.04 256.364 132.928 256.262 132.796 256.17C132.668 256.074 132.516 255.996 132.34 255.936C132.168 255.876 131.972 255.846 131.752 255.846C131.56 255.846 131.398 255.884 131.266 255.96C131.138 256.036 131.034 256.13 130.954 256.242C130.874 256.354 130.816 256.474 130.78 256.602C130.748 256.73 130.732 256.846 130.732 256.95C130.732 257.066 130.752 257.192 130.792 257.328C130.808 257.388 130.838 257.464 130.882 257.556C130.93 257.648 130.996 257.77 131.08 257.922C131.168 258.07 131.28 258.256 131.416 258.48C131.552 258.7 131.718 258.97 131.914 259.29C132.114 259.606 132.346 259.978 132.61 260.406C132.878 260.834 133.186 261.328 133.534 261.888C133.63 261.752 133.706 261.61 133.762 261.462C133.822 261.314 133.868 261.156 133.9 260.988C133.936 260.82 133.96 260.64 133.972 260.448C133.984 260.252 133.99 260.036 133.99 259.8L135.154 259.674ZM130.648 259.8C130.396 259.916 130.196 260.092 130.048 260.328C129.904 260.564 129.832 260.874 129.832 261.258C129.832 261.546 129.884 261.798 129.988 262.014C130.092 262.23 130.224 262.41 130.384 262.554C130.548 262.698 130.73 262.806 130.93 262.878C131.134 262.946 131.336 262.98 131.536 262.98C131.708 262.98 131.86 262.97 131.992 262.95C132.124 262.93 132.24 262.904 132.34 262.872C132.44 262.836 132.528 262.796 132.604 262.752C132.684 262.704 132.756 262.652 132.82 262.596L130.648 259.2V259.8ZM140.378 258.36C140.01 258.36 139.676 258.43 139.376 258.57C139.076 258.706 138.818 258.892 138.602 259.128C138.39 259.364 138.226 259.642 138.11 259.962C137.994 260.282 137.936 260.624 137.936 260.988C137.936 261.344 137.986 261.656 138.086 261.924C138.19 262.192 138.324 262.416 138.488 262.596C138.656 262.776 138.844 262.912 139.052 263.004C139.26 263.092 139.47 263.136 139.682 263.136C139.87 263.136 140.048 263.104 140.216 263.04C140.384 262.976 140.54 262.896 140.684 262.8C140.828 262.704 140.958 262.6 141.074 262.488C141.19 262.372 141.288 262.264 141.368 262.164V258.36H140.378ZM141.368 264V263.028L140.852 263.706C140.708 263.802 140.516 263.892 140.276 263.976C140.036 264.06 139.76 264.102 139.448 264.102C139.088 264.102 138.748 264.038 138.428 263.91C138.108 263.778 137.828 263.58 137.588 263.316C137.348 263.048 137.158 262.71 137.018 262.302C136.878 261.89 136.808 261.404 136.808 260.844C136.808 260.364 136.9 259.916 137.084 259.5C137.272 259.08 137.526 258.714 137.846 258.402C138.166 258.09 138.542 257.846 138.974 257.67C139.41 257.49 139.876 257.4 140.372 257.4H141.368V254.28L142.448 254.4V262.92L142.568 264H141.368Z" fill="white"/>
<path d="M65.5238 232.642C65.5238 232.85 65.5358 233.042 65.5598 233.218C65.5878 233.394 65.6318 233.546 65.6918 233.674C65.7518 233.802 65.8318 233.902 65.9318 233.974C66.0318 234.046 66.1558 234.082 66.3038 234.082C66.4998 234.082 66.6898 234.066 66.8738 234.034C67.0618 234.002 67.2298 233.966 67.3778 233.926C67.5258 233.882 67.6478 233.842 67.7438 233.806C67.8438 233.77 67.9058 233.748 67.9298 233.74L68.1638 234.664C68.1398 234.676 68.0758 234.706 67.9718 234.754C67.8678 234.802 67.7318 234.852 67.5638 234.904C67.3958 234.952 67.1998 234.996 66.9758 235.036C66.7518 235.08 66.5078 235.102 66.2438 235.102C65.8518 235.102 65.5338 235.038 65.2898 234.91C65.0498 234.782 64.8618 234.606 64.7258 234.382C64.5898 234.154 64.4978 233.886 64.4498 233.578C64.4058 233.27 64.3838 232.938 64.3838 232.582V229.48L64.6238 229.12L63.7838 229.36H62.5778L62.4578 228.4H65.5238V232.642ZM64.3478 226H65.5598V227.2H64.3478V226ZM71.4085 235H70.3285V228.4L71.4085 228.28V229.438L71.7745 228.736C71.8465 228.688 71.9305 228.638 72.0265 228.586C72.1265 228.534 72.2465 228.488 72.3865 228.448C72.5265 228.404 72.6925 228.368 72.8845 228.34C73.0765 228.312 73.3025 228.298 73.5625 228.298C73.8785 228.298 74.1625 228.35 74.4145 228.454C74.6705 228.554 74.8845 228.7 75.0565 228.892C75.2325 229.084 75.3665 229.316 75.4585 229.588C75.5545 229.86 75.6025 230.164 75.6025 230.5V235H74.5225V230.5C74.5225 230.284 74.4865 230.098 74.4145 229.942C74.3465 229.786 74.2505 229.658 74.1265 229.558C74.0025 229.454 73.8585 229.378 73.6945 229.33C73.5305 229.282 73.3565 229.258 73.1725 229.258C72.9805 229.258 72.7945 229.282 72.6145 229.33C72.4385 229.378 72.2745 229.44 72.1225 229.516C71.9705 229.588 71.8325 229.668 71.7085 229.756C71.5885 229.84 71.4885 229.92 71.4085 229.996V235ZM80.2932 232.744C80.2932 233.008 80.3072 233.23 80.3352 233.41C80.3672 233.586 80.4112 233.73 80.4672 233.842C80.5272 233.95 80.5992 234.028 80.6832 234.076C80.7712 234.12 80.8712 234.142 80.9832 234.142C81.1712 234.142 81.3572 234.12 81.5412 234.076C81.7252 234.032 81.8972 233.982 82.0572 233.926C82.2172 233.866 82.3592 233.808 82.4832 233.752C82.6072 233.692 82.7032 233.648 82.7712 233.62L83.1852 234.346C83.1492 234.378 83.0612 234.436 82.9212 234.52C82.7852 234.6 82.6112 234.684 82.3992 234.772C82.1912 234.86 81.9552 234.936 81.6912 235C81.4272 235.068 81.1512 235.102 80.8632 235.102C80.5032 235.102 80.2132 235.036 79.9932 234.904C79.7772 234.772 79.6112 234.592 79.4952 234.364C79.3792 234.136 79.3032 233.872 79.2672 233.572C79.2312 233.268 79.2132 232.944 79.2132 232.6V229.36H77.4672V228.4H79.2132V227.146L80.2632 226.48V228.4H83.1672L83.0472 229.36H80.2932V232.744ZM90.8759 234.226C90.7519 234.354 90.6159 234.472 90.4679 234.58C90.3199 234.688 90.1559 234.782 89.9759 234.862C89.7959 234.938 89.5959 234.996 89.3759 235.036C89.1599 235.08 88.9179 235.102 88.6499 235.102C88.1179 235.102 87.6579 235.008 87.2699 234.82C86.8819 234.632 86.5619 234.38 86.3099 234.064C86.0579 233.748 85.8719 233.386 85.7519 232.978C85.6319 232.57 85.5719 232.144 85.5719 231.7C85.5719 231.416 85.5999 231.136 85.6559 230.86C85.7159 230.58 85.7999 230.314 85.9079 230.062C86.0199 229.81 86.1579 229.576 86.3219 229.36C86.4899 229.144 86.6819 228.958 86.8979 228.802C87.1179 228.646 87.3599 228.524 87.6239 228.436C87.8919 228.344 88.1839 228.298 88.4999 228.298C88.9319 228.298 89.3219 228.368 89.6699 228.508C90.0179 228.648 90.3139 228.844 90.5579 229.096C90.8019 229.348 90.9899 229.652 91.1219 230.008C91.2539 230.36 91.3199 230.748 91.3199 231.172C91.3199 231.296 91.3159 231.432 91.3079 231.58C91.2999 231.728 91.2879 231.868 91.2719 232H86.7119C86.7119 232.308 86.7599 232.594 86.8559 232.858C86.9519 233.118 87.0819 233.344 87.2459 233.536C87.4139 233.724 87.6099 233.872 87.8339 233.98C88.0619 234.088 88.3079 234.142 88.5719 234.142C88.8279 234.142 89.0459 234.124 89.2259 234.088C89.4099 234.048 89.5639 234 89.6879 233.944C89.8159 233.888 89.9219 233.828 90.0059 233.764C90.0899 233.7 90.1619 233.64 90.2219 233.584L90.8759 234.226ZM90.2639 231.1V230.836C90.2639 230.608 90.2179 230.398 90.1259 230.206C90.0379 230.014 89.9159 229.848 89.7599 229.708C89.6079 229.564 89.4299 229.452 89.2259 229.372C89.0259 229.292 88.8139 229.252 88.5899 229.252C88.3219 229.252 88.0859 229.296 87.8819 229.384C87.6819 229.468 87.5099 229.578 87.3659 229.714C87.2219 229.846 87.1059 229.992 87.0179 230.152C86.9299 230.312 86.8659 230.464 86.8259 230.608L86.4719 231.292L87.5819 231.1H90.2639ZM94.8226 229.63L95.3686 228.682C95.4806 228.598 95.6086 228.53 95.7526 228.478C95.8966 228.426 96.0446 228.388 96.1966 228.364C96.3486 228.336 96.5006 228.318 96.6526 228.31C96.8086 228.302 96.9566 228.298 97.0966 228.298C97.3966 228.298 97.6526 228.312 97.8646 228.34C98.0766 228.364 98.2546 228.396 98.3986 228.436C98.5466 228.476 98.6646 228.518 98.7526 228.562C98.8406 228.602 98.9086 228.638 98.9566 228.67L99.2566 230.38L98.3566 230.5L98.0566 229.432C98.0246 229.42 97.9746 229.408 97.9066 229.396C97.8386 229.384 97.7606 229.372 97.6726 229.36C97.5846 229.348 97.4906 229.338 97.3906 229.33C97.2946 229.322 97.2026 229.318 97.1146 229.318C96.8426 229.318 96.5906 229.35 96.3586 229.414C96.1266 229.474 95.9146 229.558 95.7226 229.666C95.5306 229.774 95.3586 229.9 95.2066 230.044C95.0586 230.188 94.9306 230.34 94.8226 230.5V235H93.7426V228.4L94.8226 228.28V229.63ZM102.627 235H101.547V228.4L102.627 228.28V229.438L102.993 228.736C103.065 228.688 103.149 228.638 103.245 228.586C103.345 228.534 103.465 228.488 103.605 228.448C103.745 228.404 103.911 228.368 104.103 228.34C104.295 228.312 104.521 228.298 104.781 228.298C105.097 228.298 105.381 228.35 105.633 228.454C105.889 228.554 106.103 228.7 106.275 228.892C106.451 229.084 106.585 229.316 106.677 229.588C106.773 229.86 106.821 230.164 106.821 230.5V235H105.741V230.5C105.741 230.284 105.705 230.098 105.633 229.942C105.565 229.786 105.469 229.658 105.345 229.558C105.221 229.454 105.077 229.378 104.913 229.33C104.749 229.282 104.575 229.258 104.391 229.258C104.199 229.258 104.013 229.282 103.833 229.33C103.657 229.378 103.493 229.44 103.341 229.516C103.189 229.588 103.051 229.668 102.927 229.756C102.807 229.84 102.707 229.92 102.627 229.996V235ZM121.933 229.732C121.777 229.592 121.561 229.478 121.285 229.39C121.009 229.302 120.659 229.258 120.235 229.258C119.899 229.258 119.597 229.322 119.329 229.45C119.065 229.574 118.839 229.744 118.651 229.96C118.467 230.176 118.325 230.428 118.225 230.716C118.129 231 118.081 231.3 118.081 231.616C118.081 231.944 118.127 232.258 118.219 232.558C118.315 232.854 118.455 233.116 118.639 233.344C118.827 233.572 119.059 233.754 119.335 233.89C119.611 234.022 119.933 234.088 120.301 234.088C120.509 234.088 120.709 234.064 120.901 234.016C121.093 233.968 121.267 233.912 121.423 233.848C121.579 233.78 121.711 233.714 121.819 233.65C121.931 233.582 122.011 233.528 122.059 233.488L122.491 234.334C122.431 234.386 122.341 234.456 122.221 234.544C122.101 234.628 121.947 234.712 121.759 234.796C121.575 234.88 121.355 234.952 121.099 235.012C120.847 235.072 120.553 235.102 120.217 235.102C119.717 235.102 119.263 235.004 118.855 234.808C118.451 234.608 118.105 234.344 117.817 234.016C117.529 233.684 117.305 233.304 117.145 232.876C116.989 232.448 116.911 232.002 116.911 231.538C116.911 231.122 116.987 230.72 117.139 230.332C117.295 229.94 117.517 229.594 117.805 229.294C118.093 228.994 118.443 228.754 118.855 228.574C119.267 228.39 119.731 228.298 120.247 228.298C120.735 228.298 121.173 228.356 121.561 228.472C121.953 228.584 122.275 228.778 122.527 229.054L121.933 229.732ZM127.589 235.102C127.145 235.102 126.737 235.016 126.365 234.844C125.997 234.668 125.679 234.428 125.411 234.124C125.143 233.816 124.933 233.454 124.781 233.038C124.633 232.622 124.559 232.17 124.559 231.682C124.559 231.198 124.631 230.75 124.775 230.338C124.919 229.922 125.123 229.564 125.387 229.264C125.651 228.96 125.969 228.724 126.341 228.556C126.717 228.384 127.133 228.298 127.589 228.298C128.033 228.298 128.437 228.384 128.801 228.556C129.165 228.724 129.477 228.96 129.737 229.264C130.001 229.564 130.205 229.922 130.349 230.338C130.493 230.75 130.565 231.198 130.565 231.682C130.565 232.17 130.495 232.622 130.355 233.038C130.219 233.454 130.021 233.816 129.761 234.124C129.505 234.428 129.193 234.668 128.825 234.844C128.457 235.016 128.045 235.102 127.589 235.102ZM129.425 231.844C129.425 231.52 129.391 231.202 129.323 230.89C129.255 230.578 129.147 230.3 128.999 230.056C128.851 229.808 128.659 229.608 128.423 229.456C128.187 229.304 127.901 229.228 127.565 229.228C127.245 229.228 126.967 229.294 126.731 229.426C126.495 229.558 126.301 229.734 126.149 229.954C125.997 230.174 125.883 230.424 125.807 230.704C125.735 230.984 125.699 231.272 125.699 231.568C125.699 231.892 125.735 232.21 125.807 232.522C125.883 232.834 125.997 233.112 126.149 233.356C126.305 233.6 126.503 233.798 126.743 233.95C126.987 234.098 127.277 234.172 127.613 234.172C127.929 234.172 128.201 234.106 128.429 233.974C128.661 233.842 128.849 233.668 128.993 233.452C129.141 233.232 129.249 232.984 129.317 232.708C129.389 232.428 129.425 232.14 129.425 231.844ZM133.084 235H132.016V228.4L133.084 228.28V229.378C133.168 229.218 133.232 229.094 133.276 229.006C133.324 228.914 133.358 228.848 133.378 228.808C133.402 228.764 133.416 228.738 133.42 228.73L133.432 228.712C133.468 228.676 133.518 228.634 133.582 228.586C133.65 228.538 133.732 228.494 133.828 228.454C133.924 228.41 134.034 228.374 134.158 228.346C134.282 228.314 134.422 228.298 134.578 228.298C134.802 228.298 134.986 228.328 135.13 228.388C135.274 228.444 135.392 228.524 135.484 228.628C135.576 228.728 135.648 228.85 135.7 228.994C135.752 229.138 135.8 229.294 135.844 229.462L136.222 228.742C136.262 228.706 136.326 228.662 136.414 228.61C136.506 228.558 136.61 228.51 136.726 228.466C136.846 228.418 136.972 228.378 137.104 228.346C137.236 228.314 137.366 228.298 137.494 228.298C137.798 228.298 138.038 228.35 138.214 228.454C138.394 228.554 138.528 228.7 138.616 228.892C138.708 229.084 138.766 229.316 138.79 229.588C138.818 229.86 138.832 230.164 138.832 230.5V235H137.764V230.56C137.764 230.344 137.76 230.156 137.752 229.996C137.748 229.832 137.724 229.696 137.68 229.588C137.64 229.476 137.574 229.394 137.482 229.342C137.394 229.286 137.268 229.258 137.104 229.258C137.024 229.258 136.926 229.284 136.81 229.336C136.694 229.384 136.578 229.448 136.462 229.528C136.35 229.604 136.244 229.692 136.144 229.792C136.048 229.888 135.98 229.986 135.94 230.086C135.94 230.11 135.94 230.15 135.94 230.206C135.944 230.258 135.946 230.314 135.946 230.374C135.95 230.43 135.952 230.484 135.952 230.536V235H134.878V230.68C134.878 230.464 134.874 230.268 134.866 230.092C134.858 229.916 134.832 229.768 134.788 229.648C134.748 229.524 134.68 229.428 134.584 229.36C134.492 229.292 134.36 229.258 134.188 229.258C134.124 229.258 134.042 229.276 133.942 229.312C133.842 229.348 133.738 229.402 133.63 229.474C133.526 229.542 133.424 229.626 133.324 229.726C133.228 229.822 133.148 229.932 133.084 230.056V235ZM141.645 234.04H142.629C142.997 234.04 143.331 233.98 143.631 233.86C143.931 233.736 144.187 233.564 144.399 233.344C144.611 233.124 144.775 232.86 144.891 232.552C145.007 232.244 145.065 231.904 145.065 231.532C145.065 231.14 145.011 230.802 144.903 230.518C144.795 230.23 144.657 229.994 144.489 229.81C144.321 229.622 144.133 229.484 143.925 229.396C143.721 229.304 143.521 229.258 143.325 229.258C143.129 229.258 142.945 229.284 142.773 229.336C142.605 229.384 142.449 229.446 142.305 229.522C142.165 229.598 142.039 229.682 141.927 229.774C141.815 229.866 141.721 229.954 141.645 230.038V234.04ZM140.565 238V228.4L141.645 228.28V229.336L142.215 228.574C142.331 228.506 142.495 228.444 142.707 228.388C142.923 228.328 143.187 228.298 143.499 228.298C143.831 228.298 144.159 228.376 144.483 228.532C144.807 228.688 145.095 228.91 145.347 229.198C145.603 229.486 145.809 229.834 145.965 230.242C146.125 230.65 146.205 231.106 146.205 231.61C146.205 232.102 146.109 232.556 145.917 232.972C145.729 233.384 145.467 233.742 145.131 234.046C144.799 234.346 144.409 234.58 143.961 234.748C143.513 234.916 143.031 235 142.515 235H141.645V238H140.565ZM153.313 234.226C153.189 234.354 153.053 234.472 152.905 234.58C152.757 234.688 152.593 234.782 152.413 234.862C152.233 234.938 152.033 234.996 151.813 235.036C151.597 235.08 151.355 235.102 151.087 235.102C150.555 235.102 150.095 235.008 149.707 234.82C149.319 234.632 148.999 234.38 148.747 234.064C148.495 233.748 148.309 233.386 148.189 232.978C148.069 232.57 148.009 232.144 148.009 231.7C148.009 231.416 148.037 231.136 148.093 230.86C148.153 230.58 148.237 230.314 148.345 230.062C148.457 229.81 148.595 229.576 148.759 229.36C148.927 229.144 149.119 228.958 149.335 228.802C149.555 228.646 149.797 228.524 150.061 228.436C150.329 228.344 150.621 228.298 150.937 228.298C151.369 228.298 151.759 228.368 152.107 228.508C152.455 228.648 152.751 228.844 152.995 229.096C153.239 229.348 153.427 229.652 153.559 230.008C153.691 230.36 153.757 230.748 153.757 231.172C153.757 231.296 153.753 231.432 153.745 231.58C153.737 231.728 153.725 231.868 153.709 232H149.149C149.149 232.308 149.197 232.594 149.293 232.858C149.389 233.118 149.519 233.344 149.683 233.536C149.851 233.724 150.047 233.872 150.271 233.98C150.499 234.088 150.745 234.142 151.009 234.142C151.265 234.142 151.483 234.124 151.663 234.088C151.847 234.048 152.001 234 152.125 233.944C152.253 233.888 152.359 233.828 152.443 233.764C152.527 233.7 152.599 233.64 152.659 233.584L153.313 234.226ZM152.701 231.1V230.836C152.701 230.608 152.655 230.398 152.563 230.206C152.475 230.014 152.353 229.848 152.197 229.708C152.045 229.564 151.867 229.452 151.663 229.372C151.463 229.292 151.251 229.252 151.027 229.252C150.759 229.252 150.523 229.296 150.319 229.384C150.119 229.468 149.947 229.578 149.803 229.714C149.659 229.846 149.543 229.992 149.455 230.152C149.367 230.312 149.303 230.464 149.263 230.608L148.909 231.292L150.019 231.1H152.701ZM158.34 232.744C158.34 233.008 158.354 233.23 158.382 233.41C158.414 233.586 158.458 233.73 158.514 233.842C158.574 233.95 158.646 234.028 158.73 234.076C158.818 234.12 158.918 234.142 159.03 234.142C159.218 234.142 159.404 234.12 159.588 234.076C159.772 234.032 159.944 233.982 160.104 233.926C160.264 233.866 160.406 233.808 160.53 233.752C160.654 233.692 160.75 233.648 160.818 233.62L161.232 234.346C161.196 234.378 161.108 234.436 160.968 234.52C160.832 234.6 160.658 234.684 160.446 234.772C160.238 234.86 160.002 234.936 159.738 235C159.474 235.068 159.198 235.102 158.91 235.102C158.55 235.102 158.26 235.036 158.04 234.904C157.824 234.772 157.658 234.592 157.542 234.364C157.426 234.136 157.35 233.872 157.314 233.572C157.278 233.268 157.26 232.944 157.26 232.6V229.36H155.514V228.4H157.26V227.146L158.31 226.48V228.4H161.214L161.094 229.36H158.34V232.744ZM166.985 232.642C166.985 232.85 166.997 233.042 167.021 233.218C167.049 233.394 167.093 233.546 167.153 233.674C167.213 233.802 167.293 233.902 167.393 233.974C167.493 234.046 167.617 234.082 167.765 234.082C167.961 234.082 168.151 234.066 168.335 234.034C168.523 234.002 168.691 233.966 168.839 233.926C168.987 233.882 169.109 233.842 169.205 233.806C169.305 233.77 169.367 233.748 169.391 233.74L169.625 234.664C169.601 234.676 169.537 234.706 169.433 234.754C169.329 234.802 169.193 234.852 169.025 234.904C168.857 234.952 168.661 234.996 168.437 235.036C168.213 235.08 167.969 235.102 167.705 235.102C167.313 235.102 166.995 235.038 166.751 234.91C166.511 234.782 166.323 234.606 166.187 234.382C166.051 234.154 165.959 233.886 165.911 233.578C165.867 233.27 165.845 232.938 165.845 232.582V229.48L166.085 229.12L165.245 229.36H164.039L163.919 228.4H166.985V232.642ZM165.809 226H167.021V227.2H165.809V226ZM173.949 232.744C173.949 233.008 173.963 233.23 173.991 233.41C174.023 233.586 174.067 233.73 174.123 233.842C174.183 233.95 174.255 234.028 174.339 234.076C174.427 234.12 174.527 234.142 174.639 234.142C174.827 234.142 175.013 234.12 175.197 234.076C175.381 234.032 175.553 233.982 175.713 233.926C175.873 233.866 176.015 233.808 176.139 233.752C176.263 233.692 176.359 233.648 176.427 233.62L176.841 234.346C176.805 234.378 176.717 234.436 176.577 234.52C176.441 234.6 176.267 234.684 176.055 234.772C175.847 234.86 175.611 234.936 175.347 235C175.083 235.068 174.807 235.102 174.519 235.102C174.159 235.102 173.869 235.036 173.649 234.904C173.433 234.772 173.267 234.592 173.151 234.364C173.035 234.136 172.959 233.872 172.923 233.572C172.887 233.268 172.869 232.944 172.869 232.6V229.36H171.123V228.4H172.869V227.146L173.919 226.48V228.4H176.823L176.703 229.36H173.949V232.744ZM182.594 232.642C182.594 232.85 182.606 233.042 182.63 233.218C182.658 233.394 182.702 233.546 182.762 233.674C182.822 233.802 182.902 233.902 183.002 233.974C183.102 234.046 183.226 234.082 183.374 234.082C183.57 234.082 183.76 234.066 183.944 234.034C184.132 234.002 184.3 233.966 184.448 233.926C184.596 233.882 184.718 233.842 184.814 233.806C184.914 233.77 184.976 233.748 185 233.74L185.234 234.664C185.21 234.676 185.146 234.706 185.042 234.754C184.938 234.802 184.802 234.852 184.634 234.904C184.466 234.952 184.27 234.996 184.046 235.036C183.822 235.08 183.578 235.102 183.314 235.102C182.922 235.102 182.604 235.038 182.36 234.91C182.12 234.782 181.932 234.606 181.796 234.382C181.66 234.154 181.568 233.886 181.52 233.578C181.476 233.27 181.454 232.938 181.454 232.582V229.48L181.694 229.12L180.854 229.36H179.648L179.528 228.4H182.594V232.642ZM181.418 226H182.63V227.2H181.418V226ZM190.027 235.102C189.583 235.102 189.175 235.016 188.803 234.844C188.435 234.668 188.117 234.428 187.849 234.124C187.581 233.816 187.371 233.454 187.219 233.038C187.071 232.622 186.997 232.17 186.997 231.682C186.997 231.198 187.069 230.75 187.213 230.338C187.357 229.922 187.561 229.564 187.825 229.264C188.089 228.96 188.407 228.724 188.779 228.556C189.155 228.384 189.571 228.298 190.027 228.298C190.471 228.298 190.875 228.384 191.239 228.556C191.603 228.724 191.915 228.96 192.175 229.264C192.439 229.564 192.643 229.922 192.787 230.338C192.931 230.75 193.003 231.198 193.003 231.682C193.003 232.17 192.933 232.622 192.793 233.038C192.657 233.454 192.459 233.816 192.199 234.124C191.943 234.428 191.631 234.668 191.263 234.844C190.895 235.016 190.483 235.102 190.027 235.102ZM191.863 231.844C191.863 231.52 191.829 231.202 191.761 230.89C191.693 230.578 191.585 230.3 191.437 230.056C191.289 229.808 191.097 229.608 190.861 229.456C190.625 229.304 190.339 229.228 190.003 229.228C189.683 229.228 189.405 229.294 189.169 229.426C188.933 229.558 188.739 229.734 188.587 229.954C188.435 230.174 188.321 230.424 188.245 230.704C188.173 230.984 188.137 231.272 188.137 231.568C188.137 231.892 188.173 232.21 188.245 232.522C188.321 232.834 188.435 233.112 188.587 233.356C188.743 233.6 188.941 233.798 189.181 233.95C189.425 234.098 189.715 234.172 190.051 234.172C190.367 234.172 190.639 234.106 190.867 233.974C191.099 233.842 191.287 233.668 191.431 233.452C191.579 233.232 191.687 232.984 191.755 232.708C191.827 232.428 191.863 232.14 191.863 231.844ZM196.284 235H195.204V228.4L196.284 228.28V229.438L196.65 228.736C196.722 228.688 196.806 228.638 196.902 228.586C197.002 228.534 197.122 228.488 197.262 228.448C197.402 228.404 197.568 228.368 197.76 228.34C197.952 228.312 198.178 228.298 198.438 228.298C198.754 228.298 199.038 228.35 199.29 228.454C199.546 228.554 199.76 228.7 199.932 228.892C200.108 229.084 200.242 229.316 200.334 229.588C200.43 229.86 200.478 230.164 200.478 230.5V235H199.398V230.5C199.398 230.284 199.362 230.098 199.29 229.942C199.222 229.786 199.126 229.658 199.002 229.558C198.878 229.454 198.734 229.378 198.57 229.33C198.406 229.282 198.232 229.258 198.048 229.258C197.856 229.258 197.67 229.282 197.49 229.33C197.314 229.378 197.15 229.44 196.998 229.516C196.846 229.588 196.708 229.668 196.584 229.756C196.464 229.84 196.364 229.92 196.284 229.996V235Z" fill="white"/>
<rect x="0.5" y="0.5" width="263" height="342" stroke="black"/>
<path d="M159.969 87C155.058 90.9293 141.306 89.947 135.413 93.8758C129.519 97.8051 128.537 106.646 128.537 106.646C128.537 106.646 126.572 97.8051 120.679 95.8405C116.023 94.2883 113.213 95.1824 112.231 95.634C112.024 95.737 111.773 95.6796 111.632 95.4967C110.905 94.6182 109.86 94.0636 108.724 93.9545C108.557 93.9275 108.388 93.9893 108.278 94.1175C108.168 94.2457 108.132 94.4222 108.184 94.583C108.433 95.5406 108.385 96.5511 108.047 97.4809C107.962 97.6791 107.822 97.8494 107.644 97.972C106.367 98.9248 106.671 101.371 106.848 102.323C106.892 102.574 106.836 102.831 106.691 103.041C105.925 104.16 103.715 107.804 106.927 108.61C109.618 109.278 110.001 107.657 109.982 106.557C109.983 106.064 110.348 105.649 110.836 105.585C111.641 105.464 112.398 105.128 113.027 104.612C113.251 104.417 113.552 104.335 113.845 104.388C114.137 104.441 114.389 104.625 114.53 104.887C115.247 106.282 116.072 108.639 114.785 110.574C112.821 113.521 113.803 118.433 113.803 118.433L107.998 119.091C106.494 119.278 105.232 120.314 104.756 121.752L103.292 126.143C102.849 127.494 102.912 128.961 103.469 130.269L104.874 133.549C105.01 133.874 105.31 134.1 105.659 134.142C106.008 134.185 106.353 134.038 106.564 133.756L108.076 131.742C108.202 131.571 108.271 131.365 108.273 131.153C108.27 130.957 108.212 130.766 108.106 130.603C107.106 129.11 106.855 127.237 107.428 125.534L108.184 123.256C108.351 122.749 108.893 122.47 109.402 122.627L114.215 123.982C115.208 124.203 116.248 124.007 117.093 123.442C118.101 122.779 119.365 122.64 120.492 123.069C130.806 126.968 133.448 124.326 133.448 124.326C133.576 124.984 133.743 125.633 133.92 126.281C134.129 127.101 134.485 127.876 134.971 128.57C135.552 129.236 136.201 129.842 136.906 130.377C137.509 130.927 138.028 131.563 138.448 132.263C139.271 133.439 139.493 134.935 139.047 136.3C138.689 137.052 138.105 137.673 137.377 138.078C133.124 140.632 131.818 140.239 130.904 142.645C130.791 142.948 130.834 143.286 131.018 143.55C131.202 143.815 131.505 143.973 131.827 143.971H136.827C137.167 143.972 137.482 143.797 137.662 143.51C138.673 141.889 139.715 140.072 141.404 139.05C142.141 138.652 142.83 138.171 143.457 137.616C144.402 136.778 144.875 135.53 144.724 134.276C144.472 133.519 144.119 132.798 143.673 132.135C142.914 130.91 142.721 129.417 143.143 128.039C143.558 127.184 144.32 126.548 145.235 126.291C147.789 125.436 148.87 120.898 148.467 118.423C148.42 118.086 148.324 117.758 148.182 117.45C148.019 116.268 147.393 115.197 146.443 114.474C146.068 114.123 145.664 113.805 145.235 113.521C142.288 111.557 141.306 109.592 143.271 107.627C143.774 107.148 144.36 106.762 144.999 106.488C147.072 105.545 149.872 105.192 152.111 103.699C153.47 102.932 154.079 101.298 153.555 99.8284C156.384 98.5614 156.914 96.5672 156.993 95.4575V95.4475C159.085 94.2492 159.164 91.2335 159.075 89.7801C159.779 89.0364 160.107 88.0141 159.969 87V87Z" fill="#D1D4D1"/>
<path d="M156.991 95.4478V95.4577C156.694 95.632 156.373 95.7611 156.038 95.8407C152.109 96.823 139.34 98.7876 137.375 101.734L137.375 101.733C136.75 100.812 136.566 99.6622 136.871 98.5921C137.176 97.5219 137.94 96.6422 138.957 96.1897C142.488 94.6884 147.545 94.2803 153.091 92.8937C156.431 92.0592 158.17 90.8704 159.073 89.7803C159.162 91.2338 159.083 94.2494 156.991 95.4478Z" fill="#BDC3C7"/>
<path d="M156.995 95.457C156.916 96.5667 156.386 98.5609 153.557 99.8279C152.471 100.297 151.323 100.608 150.149 100.751C146.292 101.211 142.594 102.556 139.344 104.68L137.379 101.733C139.344 98.7869 152.113 96.8223 156.042 95.84C156.377 95.7604 156.698 95.6313 156.995 95.457V95.457Z" fill="#95A5A5"/>
<path d="M152.114 103.698C149.875 105.191 147.075 105.545 145.003 106.488C143.19 107.024 141.571 108.073 140.34 109.508C140.073 109.858 139.605 109.986 139.197 109.821C138.789 109.657 138.542 109.24 138.592 108.803C138.748 107.413 138.999 106.035 139.345 104.681C142.596 102.556 146.294 101.211 150.15 100.751C151.324 100.608 152.472 100.298 153.558 99.8281C154.083 101.298 153.473 102.932 152.114 103.698V103.698Z" fill="#7F8C8D"/>
<path d="M146.434 114.474H146.444C148.968 114.513 154.753 115.318 157.023 121.379C159.371 127.642 157.976 135.078 158.308 138.893C158.348 139.313 158.115 139.712 157.73 139.884C157.345 140.056 156.893 139.963 156.607 139.652C155.205 138.138 153.609 134.954 153.093 128.254C152.651 122.469 150.589 119.709 148.467 118.422" fill="#BDC3C7"/>
<path d="M110.855 100.752C110.855 101.294 110.415 101.734 109.873 101.734C109.33 101.734 108.891 101.294 108.891 100.752C108.891 100.209 109.33 99.7695 109.873 99.7695C110.415 99.7695 110.855 100.209 110.855 100.752Z" fill="#2C3E50"/>
<path d="M115.339 104.68C114.924 104.681 114.553 104.42 114.413 104.029C114.273 103.638 114.394 103.202 114.715 102.938C115.532 102.22 116.293 101.441 116.992 100.608C117.222 100.343 117.575 100.22 117.92 100.286C118.265 100.352 118.548 100.597 118.663 100.929C118.778 101.26 118.707 101.628 118.478 101.894C117.707 102.813 116.864 103.671 115.959 104.459C115.784 104.602 115.565 104.68 115.339 104.68Z" fill="#7F8C8D"/>
</svg>
