<svg width="308" height="282" viewBox="0 0 308 282" fill="none" xmlns="http://www.w3.org/2000/svg">
<g filter="url(#filter0_d)">
<rect x="4" width="300" height="274" rx="10" fill="#E6F0FF"/>
</g>
<path d="M64.3281 141.625V149.359C64.3229 150.432 63.9844 151.31 63.3125 151.992C62.6458 152.674 61.7396 153.057 60.5938 153.141L60.1953 153.156C58.9505 153.156 57.9583 152.82 57.2188 152.148C56.4792 151.477 56.1042 150.552 56.0938 149.375V141.625H57.5781V149.328C57.5781 150.151 57.8047 150.792 58.2578 151.25C58.7109 151.703 59.3568 151.93 60.1953 151.93C61.0443 151.93 61.6927 151.703 62.1406 151.25C62.5938 150.797 62.8203 150.159 62.8203 149.336V141.625H64.3281ZM80.2869 147.93C79.0004 147.56 78.0629 147.107 77.4744 146.57C76.891 146.029 76.5994 145.362 76.5994 144.57C76.5994 143.674 76.9561 142.935 77.6697 142.352C78.3884 141.763 79.3207 141.469 80.4666 141.469C81.2478 141.469 81.9431 141.62 82.5525 141.922C83.1671 142.224 83.641 142.641 83.9744 143.172C84.3129 143.703 84.4822 144.284 84.4822 144.914H82.9744C82.9744 144.227 82.7556 143.688 82.3181 143.297C81.8806 142.901 81.2634 142.703 80.4666 142.703C79.727 142.703 79.1489 142.867 78.7322 143.195C78.3207 143.518 78.115 143.969 78.115 144.547C78.115 145.01 78.3103 145.404 78.7009 145.727C79.0968 146.044 79.766 146.336 80.7087 146.602C81.6567 146.867 82.3962 147.161 82.9275 147.484C83.464 147.802 83.8598 148.174 84.115 148.602C84.3754 149.029 84.5056 149.531 84.5056 150.109C84.5056 151.031 84.1462 151.771 83.4275 152.328C82.7087 152.88 81.7478 153.156 80.5447 153.156C79.7634 153.156 79.0343 153.008 78.3572 152.711C77.6801 152.409 77.1567 151.997 76.7869 151.477C76.4223 150.956 76.24 150.365 76.24 149.703H77.7478C77.7478 150.391 78.0004 150.935 78.5056 151.336C79.016 151.732 79.6957 151.93 80.5447 151.93C81.3364 151.93 81.9431 151.768 82.365 151.445C82.7869 151.122 82.9978 150.682 82.9978 150.125C82.9978 149.568 82.8025 149.138 82.4119 148.836C82.0212 148.529 81.3129 148.227 80.2869 147.93ZM103.105 147.742H98.1753V151.773H103.902V153H96.6753V141.625H103.824V142.859H98.1753V146.516H103.105V147.742ZM120.181 148.398H117.509V153H116.001V141.625H119.767C121.048 141.625 122.033 141.917 122.72 142.5C123.413 143.083 123.759 143.932 123.759 145.047C123.759 145.755 123.566 146.372 123.181 146.898C122.801 147.424 122.269 147.818 121.587 148.078L124.259 152.906V153H122.65L120.181 148.398ZM117.509 147.172H119.814C120.559 147.172 121.15 146.979 121.587 146.594C122.03 146.208 122.251 145.693 122.251 145.047C122.251 144.344 122.04 143.805 121.618 143.43C121.202 143.055 120.598 142.865 119.806 142.859H117.509V147.172ZM60.4922 170.398H57.8203V175H56.3125V163.625H60.0781C61.3594 163.625 62.3438 163.917 63.0312 164.5C63.724 165.083 64.0703 165.932 64.0703 167.047C64.0703 167.755 63.8776 168.372 63.4922 168.898C63.112 169.424 62.5807 169.818 61.8984 170.078L64.5703 174.906V175H62.9609L60.4922 170.398ZM57.8203 169.172H60.125C60.8698 169.172 61.4609 168.979 61.8984 168.594C62.3411 168.208 62.5625 167.693 62.5625 167.047C62.5625 166.344 62.3516 165.805 61.9297 165.43C61.513 165.055 60.9089 164.865 60.1172 164.859H57.8203V169.172ZM82.8494 169.742H77.9197V173.773H83.6462V175H76.4197V163.625H83.5681V164.859H77.9197V168.516H82.8494V169.742ZM99.105 169.93C97.8185 169.56 96.881 169.107 96.2925 168.57C95.7092 168.029 95.4175 167.362 95.4175 166.57C95.4175 165.674 95.7743 164.935 96.4878 164.352C97.2066 163.763 98.1389 163.469 99.2847 163.469C100.066 163.469 100.761 163.62 101.371 163.922C101.985 164.224 102.459 164.641 102.792 165.172C103.131 165.703 103.3 166.284 103.3 166.914H101.792C101.792 166.227 101.574 165.688 101.136 165.297C100.699 164.901 100.082 164.703 99.2847 164.703C98.5451 164.703 97.967 164.867 97.5503 165.195C97.1389 165.518 96.9331 165.969 96.9331 166.547C96.9331 167.01 97.1284 167.404 97.5191 167.727C97.9149 168.044 98.5842 168.336 99.5269 168.602C100.475 168.867 101.214 169.161 101.746 169.484C102.282 169.802 102.678 170.174 102.933 170.602C103.194 171.029 103.324 171.531 103.324 172.109C103.324 173.031 102.964 173.771 102.246 174.328C101.527 174.88 100.566 175.156 99.3628 175.156C98.5816 175.156 97.8524 175.008 97.1753 174.711C96.4982 174.409 95.9748 173.997 95.605 173.477C95.2404 172.956 95.0581 172.365 95.0581 171.703H96.5659C96.5659 172.391 96.8185 172.935 97.3237 173.336C97.8342 173.732 98.5139 173.93 99.3628 173.93C100.154 173.93 100.761 173.768 101.183 173.445C101.605 173.122 101.816 172.682 101.816 172.125C101.816 171.568 101.621 171.138 101.23 170.836C100.839 170.529 100.131 170.227 99.105 169.93ZM121.923 169.742H116.993V173.773H122.72V175H115.493V163.625H122.642V164.859H116.993V168.516H121.923V169.742ZM141.108 172.031H136.343L135.272 175H133.726L138.069 163.625H139.382L143.733 175H142.194L141.108 172.031ZM136.796 170.797H140.663L138.726 165.477L136.796 170.797ZM159.677 170.398H157.005V175H155.497V163.625H159.262C160.544 163.625 161.528 163.917 162.216 164.5C162.908 165.083 163.255 165.932 163.255 167.047C163.255 167.755 163.062 168.372 162.677 168.898C162.296 169.424 161.765 169.818 161.083 170.078L163.755 174.906V175H162.145L159.677 170.398ZM157.005 169.172H159.309C160.054 169.172 160.645 168.979 161.083 168.594C161.526 168.208 161.747 167.693 161.747 167.047C161.747 166.344 161.536 165.805 161.114 165.43C160.697 165.055 160.093 164.865 159.302 164.859H157.005V169.172ZM183.971 171.391C183.831 172.594 183.385 173.523 182.635 174.18C181.891 174.831 180.898 175.156 179.659 175.156C178.315 175.156 177.237 174.674 176.424 173.711C175.617 172.747 175.213 171.458 175.213 169.844V168.75C175.213 167.693 175.401 166.763 175.776 165.961C176.156 165.159 176.693 164.544 177.385 164.117C178.078 163.685 178.88 163.469 179.792 163.469C181 163.469 181.969 163.807 182.698 164.484C183.427 165.156 183.851 166.089 183.971 167.281H182.463C182.333 166.375 182.049 165.719 181.612 165.312C181.18 164.906 180.573 164.703 179.792 164.703C178.833 164.703 178.081 165.057 177.534 165.766C176.992 166.474 176.721 167.482 176.721 168.789V169.891C176.721 171.125 176.979 172.107 177.495 172.836C178.01 173.565 178.732 173.93 179.659 173.93C180.492 173.93 181.13 173.742 181.573 173.367C182.021 172.987 182.318 172.328 182.463 171.391H183.971ZM205.008 175H203.5V169.742H197.766V175H196.266V163.625H197.766V168.516H203.5V163.625H205.008V175Z" fill="#444444"/>
<path d="M58.3594 115.992V120H56.0156V108.625H60.4531C61.3073 108.625 62.0573 108.781 62.7031 109.094C63.3542 109.406 63.8542 109.852 64.2031 110.43C64.5521 111.003 64.7266 111.656 64.7266 112.391C64.7266 113.505 64.3438 114.385 63.5781 115.031C62.8177 115.672 61.763 115.992 60.4141 115.992H58.3594ZM58.3594 114.094H60.4531C61.0729 114.094 61.5443 113.948 61.8672 113.656C62.1953 113.365 62.3594 112.948 62.3594 112.406C62.3594 111.849 62.1953 111.398 61.8672 111.055C61.5391 110.711 61.0859 110.534 60.5078 110.523H58.3594V114.094ZM74.9531 108.625V116.117C74.9531 117.362 74.5625 118.346 73.7812 119.07C73.0052 119.794 71.9427 120.156 70.5938 120.156C69.2656 120.156 68.2109 119.805 67.4297 119.102C66.6484 118.398 66.25 117.432 66.2344 116.203V108.625H68.5781V116.133C68.5781 116.878 68.7552 117.422 69.1094 117.766C69.4688 118.104 69.9635 118.273 70.5938 118.273C71.9115 118.273 72.5807 117.581 72.6016 116.195V108.625H74.9531ZM76.875 120V108.625H80.8594C82.2396 108.625 83.2865 108.891 84 109.422C84.7135 109.948 85.0703 110.721 85.0703 111.742C85.0703 112.299 84.9271 112.792 84.6406 113.219C84.3542 113.641 83.9557 113.951 83.4453 114.148C84.0286 114.294 84.487 114.589 84.8203 115.031C85.1589 115.474 85.3281 116.016 85.3281 116.656C85.3281 117.75 84.9792 118.578 84.2812 119.141C83.5833 119.703 82.5885 119.99 81.2969 120H76.875ZM79.2188 115.047V118.117H81.2266C81.7786 118.117 82.2083 117.987 82.5156 117.727C82.8281 117.461 82.9844 117.096 82.9844 116.633C82.9844 115.591 82.4453 115.062 81.3672 115.047H79.2188ZM79.2188 113.391H80.9531C82.1354 113.37 82.7266 112.898 82.7266 111.977C82.7266 111.461 82.5755 111.091 82.2734 110.867C81.9766 110.638 81.5052 110.523 80.8594 110.523H79.2188V113.391ZM89.4375 118.117H94.4141V120H87.0938V108.625H89.4375V118.117ZM98.2578 120H95.9141V108.625H98.2578V120ZM109.367 116.211C109.279 117.435 108.826 118.398 108.008 119.102C107.195 119.805 106.122 120.156 104.789 120.156C103.331 120.156 102.182 119.667 101.344 118.688C100.51 117.703 100.094 116.354 100.094 114.641V113.945C100.094 112.852 100.286 111.888 100.672 111.055C101.057 110.221 101.607 109.583 102.32 109.141C103.039 108.693 103.872 108.469 104.82 108.469C106.133 108.469 107.19 108.82 107.992 109.523C108.794 110.227 109.258 111.214 109.383 112.484H107.039C106.982 111.75 106.776 111.219 106.422 110.891C106.073 110.557 105.539 110.391 104.82 110.391C104.039 110.391 103.453 110.672 103.062 111.234C102.677 111.792 102.479 112.659 102.469 113.836V114.695C102.469 115.924 102.654 116.823 103.023 117.391C103.398 117.958 103.987 118.242 104.789 118.242C105.513 118.242 106.052 118.078 106.406 117.75C106.766 117.417 106.971 116.904 107.023 116.211H109.367ZM121.312 117.656H117.203L116.422 120H113.93L118.164 108.625H120.336L124.594 120H122.102L121.312 117.656ZM117.836 115.758H120.68L119.25 111.5L117.836 115.758ZM129.867 115.836H128V120H125.656V108.625H129.883C131.227 108.625 132.263 108.924 132.992 109.523C133.721 110.122 134.086 110.969 134.086 112.062C134.086 112.839 133.917 113.487 133.578 114.008C133.245 114.523 132.737 114.935 132.055 115.242L134.516 119.891V120H132L129.867 115.836ZM128 113.938H129.891C130.479 113.938 130.935 113.789 131.258 113.492C131.581 113.19 131.742 112.776 131.742 112.25C131.742 111.714 131.589 111.292 131.281 110.984C130.979 110.677 130.513 110.523 129.883 110.523H128V113.938ZM144.047 110.523H140.562V120H138.219V110.523H134.781V108.625H144.047V110.523Z" fill="#444444"/>
<path d="M59.3125 75.5078H58.2031V87.9062H59.3125V89.6484H55.9375V73.7656H59.3125V75.5078ZM63.8359 85.3359C64.2526 85.3359 64.5911 85.2214 64.8516 84.9922C65.112 84.763 65.2474 84.4583 65.2578 84.0781H67.375C67.3698 84.651 67.2135 85.1771 66.9062 85.6562C66.599 86.1302 66.1771 86.5 65.6406 86.7656C65.1094 87.026 64.5208 87.1562 63.875 87.1562C62.6667 87.1562 61.7135 86.7734 61.0156 86.0078C60.3177 85.237 59.9688 84.1745 59.9688 82.8203V82.6719C59.9688 81.3698 60.3151 80.3307 61.0078 79.5547C61.7005 78.7786 62.651 78.3906 63.8594 78.3906C64.9167 78.3906 65.763 78.6927 66.3984 79.2969C67.0391 79.8958 67.3646 80.6953 67.375 81.6953H65.2578C65.2474 81.2578 65.112 80.9036 64.8516 80.6328C64.5911 80.3568 64.2474 80.2188 63.8203 80.2188C63.2943 80.2188 62.8958 80.4115 62.625 80.7969C62.3594 81.1771 62.2266 81.7969 62.2266 82.6562V82.8906C62.2266 83.7604 62.3594 84.3854 62.625 84.7656C62.8906 85.1458 63.2943 85.3359 63.8359 85.3359ZM68.3125 82.6953C68.3125 81.8568 68.474 81.1094 68.7969 80.4531C69.1198 79.7969 69.5833 79.2891 70.1875 78.9297C70.7969 78.5703 71.5026 78.3906 72.3047 78.3906C73.4453 78.3906 74.375 78.7396 75.0938 79.4375C75.8177 80.1354 76.2214 81.0833 76.3047 82.2812L76.3203 82.8594C76.3203 84.1562 75.9583 85.1979 75.2344 85.9844C74.5104 86.7656 73.5391 87.1562 72.3203 87.1562C71.1016 87.1562 70.1276 86.7656 69.3984 85.9844C68.6745 85.2031 68.3125 84.1406 68.3125 82.7969V82.6953ZM70.5703 82.8594C70.5703 83.6615 70.7214 84.276 71.0234 84.7031C71.3255 85.125 71.7578 85.3359 72.3203 85.3359C72.8672 85.3359 73.2943 85.1276 73.6016 84.7109C73.9089 84.2891 74.0625 83.6172 74.0625 82.6953C74.0625 81.9089 73.9089 81.2995 73.6016 80.8672C73.2943 80.4349 72.862 80.2188 72.3047 80.2188C71.7526 80.2188 71.3255 80.4349 71.0234 80.8672C70.7214 81.2943 70.5703 81.9583 70.5703 82.8594ZM79.8281 78.5469L79.8984 79.4922C80.4974 78.7578 81.3073 78.3906 82.3281 78.3906C83.4167 78.3906 84.1641 78.8203 84.5703 79.6797C85.1641 78.8203 86.0104 78.3906 87.1094 78.3906C88.026 78.3906 88.7083 78.6589 89.1562 79.1953C89.6042 79.7266 89.8281 80.5286 89.8281 81.6016V87H87.5625V81.6094C87.5625 81.1302 87.4688 80.7812 87.2812 80.5625C87.0938 80.3385 86.763 80.2266 86.2891 80.2266C85.612 80.2266 85.1432 80.5495 84.8828 81.1953L84.8906 87H82.6328V81.6172C82.6328 81.1276 82.5365 80.7734 82.3438 80.5547C82.151 80.3359 81.8229 80.2266 81.3594 80.2266C80.7188 80.2266 80.2552 80.4922 79.9688 81.0234V87H77.7109V78.5469H79.8281ZM93.9531 87H91.6875V78.5469H93.9531V87ZM91.5547 76.3594C91.5547 76.0208 91.6667 75.7422 91.8906 75.5234C92.1198 75.3047 92.4297 75.1953 92.8203 75.1953C93.2057 75.1953 93.513 75.3047 93.7422 75.5234C93.9714 75.7422 94.0859 76.0208 94.0859 76.3594C94.0859 76.7031 93.9688 76.9844 93.7344 77.2031C93.5052 77.4219 93.2005 77.5312 92.8203 77.5312C92.4401 77.5312 92.1328 77.4219 91.8984 77.2031C91.6693 76.9844 91.5547 76.7031 91.5547 76.3594ZM97.8984 78.5469L97.9688 79.5234C98.5729 78.7682 99.3828 78.3906 100.398 78.3906C101.294 78.3906 101.961 78.6536 102.398 79.1797C102.836 79.7057 103.06 80.4922 103.07 81.5391V87H100.812V81.5938C100.812 81.1146 100.708 80.7682 100.5 80.5547C100.292 80.3359 99.9453 80.2266 99.4609 80.2266C98.8255 80.2266 98.349 80.4974 98.0312 81.0391V87H95.7734V78.5469H97.8984ZM104.461 82.7109C104.461 81.4141 104.768 80.3698 105.383 79.5781C106.003 78.7865 106.836 78.3906 107.883 78.3906C108.81 78.3906 109.531 78.7083 110.047 79.3438L110.141 78.5469H112.188V86.7188C112.188 87.4583 112.018 88.1016 111.68 88.6484C111.346 89.1953 110.875 89.612 110.266 89.8984C109.656 90.1849 108.943 90.3281 108.125 90.3281C107.505 90.3281 106.901 90.2031 106.312 89.9531C105.724 89.7083 105.279 89.3906 104.977 89L105.977 87.625C106.539 88.2552 107.221 88.5703 108.023 88.5703C108.622 88.5703 109.089 88.4089 109.422 88.0859C109.755 87.7682 109.922 87.3151 109.922 86.7266V86.2734C109.401 86.862 108.716 87.1562 107.867 87.1562C106.852 87.1562 106.029 86.7604 105.398 85.9688C104.773 85.1719 104.461 84.1172 104.461 82.8047V82.7109ZM106.719 82.875C106.719 83.6406 106.872 84.2422 107.18 84.6797C107.487 85.112 107.909 85.3281 108.445 85.3281C109.133 85.3281 109.625 85.0703 109.922 84.5547V81C109.62 80.4844 109.133 80.2266 108.461 80.2266C107.919 80.2266 107.492 80.4479 107.18 80.8906C106.872 81.3333 106.719 81.9948 106.719 82.875ZM122.492 84.6641C122.492 84.388 122.354 84.1719 122.078 84.0156C121.807 83.8542 121.37 83.7109 120.766 83.5859C118.755 83.1641 117.75 82.3099 117.75 81.0234C117.75 80.2734 118.06 79.6484 118.68 79.1484C119.305 78.6432 120.12 78.3906 121.125 78.3906C122.198 78.3906 123.055 78.6432 123.695 79.1484C124.341 79.6536 124.664 80.3099 124.664 81.1172H122.406C122.406 80.7943 122.302 80.5286 122.094 80.3203C121.885 80.1068 121.56 80 121.117 80C120.737 80 120.443 80.0859 120.234 80.2578C120.026 80.4297 119.922 80.6484 119.922 80.9141C119.922 81.1641 120.039 81.3672 120.273 81.5234C120.513 81.6745 120.914 81.8073 121.477 81.9219C122.039 82.0312 122.513 82.1562 122.898 82.2969C124.091 82.7344 124.688 83.4922 124.688 84.5703C124.688 85.3411 124.357 85.9661 123.695 86.4453C123.034 86.9193 122.18 87.1562 121.133 87.1562C120.424 87.1562 119.794 87.0312 119.242 86.7812C118.695 86.526 118.266 86.1797 117.953 85.7422C117.641 85.2995 117.484 84.8229 117.484 84.3125H119.625C119.646 84.7135 119.794 85.0208 120.07 85.2344C120.346 85.4479 120.716 85.5547 121.18 85.5547C121.612 85.5547 121.938 85.474 122.156 85.3125C122.38 85.1458 122.492 84.9297 122.492 84.6641ZM125.797 82.6953C125.797 81.8568 125.958 81.1094 126.281 80.4531C126.604 79.7969 127.068 79.2891 127.672 78.9297C128.281 78.5703 128.987 78.3906 129.789 78.3906C130.93 78.3906 131.859 78.7396 132.578 79.4375C133.302 80.1354 133.706 81.0833 133.789 82.2812L133.805 82.8594C133.805 84.1562 133.443 85.1979 132.719 85.9844C131.995 86.7656 131.023 87.1562 129.805 87.1562C128.586 87.1562 127.612 86.7656 126.883 85.9844C126.159 85.2031 125.797 84.1406 125.797 82.7969V82.6953ZM128.055 82.8594C128.055 83.6615 128.206 84.276 128.508 84.7031C128.81 85.125 129.242 85.3359 129.805 85.3359C130.352 85.3359 130.779 85.1276 131.086 84.7109C131.393 84.2891 131.547 83.6172 131.547 82.6953C131.547 81.9089 131.393 81.2995 131.086 80.8672C130.779 80.4349 130.346 80.2188 129.789 80.2188C129.237 80.2188 128.81 80.4349 128.508 80.8672C128.206 81.2943 128.055 81.9583 128.055 82.8594ZM134.844 82.6953C134.844 81.8568 135.005 81.1094 135.328 80.4531C135.651 79.7969 136.115 79.2891 136.719 78.9297C137.328 78.5703 138.034 78.3906 138.836 78.3906C139.977 78.3906 140.906 78.7396 141.625 79.4375C142.349 80.1354 142.753 81.0833 142.836 82.2812L142.852 82.8594C142.852 84.1562 142.49 85.1979 141.766 85.9844C141.042 86.7656 140.07 87.1562 138.852 87.1562C137.633 87.1562 136.659 86.7656 135.93 85.9844C135.206 85.2031 134.844 84.1406 134.844 82.7969V82.6953ZM137.102 82.8594C137.102 83.6615 137.253 84.276 137.555 84.7031C137.857 85.125 138.289 85.3359 138.852 85.3359C139.398 85.3359 139.826 85.1276 140.133 84.7109C140.44 84.2891 140.594 83.6172 140.594 82.6953C140.594 81.9089 140.44 81.2995 140.133 80.8672C139.826 80.4349 139.393 80.2188 138.836 80.2188C138.284 80.2188 137.857 80.4349 137.555 80.8672C137.253 81.2943 137.102 81.9583 137.102 82.8594ZM146.32 78.5469L146.391 79.5234C146.995 78.7682 147.805 78.3906 148.82 78.3906C149.716 78.3906 150.383 78.6536 150.82 79.1797C151.258 79.7057 151.482 80.4922 151.492 81.5391V87H149.234V81.5938C149.234 81.1146 149.13 80.7682 148.922 80.5547C148.714 80.3359 148.367 80.2266 147.883 80.2266C147.247 80.2266 146.771 80.4974 146.453 81.0391V87H144.195V78.5469H146.32ZM152.445 73.7656H155.82V89.6484H152.445V87.9062H153.562V75.5078H152.445V73.7656Z" fill="#444444"/>
<defs>
<filter id="filter0_d" x="0" y="0" width="308" height="282" filterUnits="userSpaceOnUse" color-interpolation-filters="sRGB">
<feFlood flood-opacity="0" result="BackgroundImageFix"/>
<feColorMatrix in="SourceAlpha" type="matrix" values="0 0 0 0 0 0 0 0 0 0 0 0 0 0 0 0 0 0 127 0"/>
<feOffset dy="4"/>
<feGaussianBlur stdDeviation="2"/>
<feColorMatrix type="matrix" values="0 0 0 0 0 0 0 0 0 0 0 0 0 0 0 0 0 0 0.25 0"/>
<feBlend mode="normal" in2="BackgroundImageFix" result="effect1_dropShadow"/>
<feBlend mode="normal" in="SourceGraphic" in2="effect1_dropShadow" result="shape"/>
</filter>
</defs>
</svg>
