<svg width="308" height="282" viewBox="0 0 308 282" fill="none" xmlns="http://www.w3.org/2000/svg">
<g filter="url(#filter0_d)">
<rect x="4" width="300" height="274" rx="10" fill="#1F1F1F"/>
</g>
<path d="M64.4766 141.625V149.227C64.4766 150.435 64.0885 151.393 63.3125 152.102C62.5417 152.805 61.513 153.156 60.2266 153.156C58.9245 153.156 57.8906 152.81 57.125 152.117C56.3594 151.419 55.9766 150.453 55.9766 149.219V141.625H57.9453V149.234C57.9453 149.995 58.138 150.576 58.5234 150.977C58.9089 151.378 59.4766 151.578 60.2266 151.578C61.7474 151.578 62.5078 150.776 62.5078 149.172V141.625H64.4766ZM82.7791 150.07C82.7791 149.57 82.602 149.185 82.2478 148.914C81.8989 148.643 81.266 148.37 80.3494 148.094C79.4327 147.818 78.7035 147.51 78.1619 147.172C77.1254 146.521 76.6072 145.672 76.6072 144.625C76.6072 143.708 76.9796 142.953 77.7244 142.359C78.4744 141.766 79.4457 141.469 80.6384 141.469C81.4301 141.469 82.1358 141.615 82.7556 141.906C83.3754 142.198 83.8624 142.615 84.2166 143.156C84.5707 143.693 84.7478 144.289 84.7478 144.945H82.7791C82.7791 144.352 82.5916 143.888 82.2166 143.555C81.8468 143.216 81.3155 143.047 80.6228 143.047C79.977 143.047 79.4744 143.185 79.115 143.461C78.7608 143.737 78.5837 144.122 78.5837 144.617C78.5837 145.034 78.7765 145.383 79.1619 145.664C79.5473 145.94 80.1827 146.211 81.0681 146.477C81.9535 146.737 82.6645 147.036 83.2009 147.375C83.7374 147.708 84.1306 148.094 84.3806 148.531C84.6306 148.964 84.7556 149.471 84.7556 150.055C84.7556 151.003 84.391 151.758 83.6619 152.32C82.9379 152.878 81.9535 153.156 80.7087 153.156C79.8858 153.156 79.128 153.005 78.4353 152.703C77.7478 152.396 77.2114 151.974 76.8259 151.438C76.4457 150.901 76.2556 150.276 76.2556 149.562H78.2322C78.2322 150.208 78.4457 150.708 78.8728 151.062C79.2999 151.417 79.9119 151.594 80.7087 151.594C81.3962 151.594 81.9119 151.456 82.2556 151.18C82.6046 150.898 82.7791 150.529 82.7791 150.07ZM103.378 147.922H98.7066V151.422H104.167V153H96.73V141.625H104.113V143.219H98.7066V146.359H103.378V147.922ZM120.197 148.617H117.993V153H116.017V141.625H120.017C121.329 141.625 122.342 141.919 123.056 142.508C123.769 143.096 124.126 143.948 124.126 145.062C124.126 145.823 123.941 146.461 123.572 146.977C123.207 147.487 122.697 147.88 122.04 148.156L124.595 152.898V153H122.478L120.197 148.617ZM117.993 147.031H120.025C120.691 147.031 121.212 146.865 121.587 146.531C121.962 146.193 122.15 145.732 122.15 145.148C122.15 144.539 121.975 144.068 121.626 143.734C121.283 143.401 120.767 143.229 120.079 143.219H117.993V147.031ZM60.3359 170.617H58.1328V175H56.1562V163.625H60.1562C61.4688 163.625 62.4818 163.919 63.1953 164.508C63.9089 165.096 64.2656 165.948 64.2656 167.062C64.2656 167.823 64.0807 168.461 63.7109 168.977C63.3464 169.487 62.8359 169.88 62.1797 170.156L64.7344 174.898V175H62.6172L60.3359 170.617ZM58.1328 169.031H60.1641C60.8307 169.031 61.3516 168.865 61.7266 168.531C62.1016 168.193 62.2891 167.732 62.2891 167.148C62.2891 166.539 62.1146 166.068 61.7656 165.734C61.4219 165.401 60.9062 165.229 60.2188 165.219H58.1328V169.031ZM83.0291 169.922H78.3572V173.422H83.8181V175H76.3806V163.625H83.7634V165.219H78.3572V168.359H83.0291V169.922ZM101.613 172.07C101.613 171.57 101.436 171.185 101.082 170.914C100.733 170.643 100.1 170.37 99.1831 170.094C98.2665 169.818 97.5373 169.51 96.9956 169.172C95.9592 168.521 95.4409 167.672 95.4409 166.625C95.4409 165.708 95.8133 164.953 96.5581 164.359C97.3081 163.766 98.2795 163.469 99.4722 163.469C100.264 163.469 100.97 163.615 101.589 163.906C102.209 164.198 102.696 164.615 103.05 165.156C103.404 165.693 103.582 166.289 103.582 166.945H101.613C101.613 166.352 101.425 165.888 101.05 165.555C100.681 165.216 100.149 165.047 99.4566 165.047C98.8107 165.047 98.3081 165.185 97.9487 165.461C97.5946 165.737 97.4175 166.122 97.4175 166.617C97.4175 167.034 97.6102 167.383 97.9956 167.664C98.381 167.94 99.0165 168.211 99.9019 168.477C100.787 168.737 101.498 169.036 102.035 169.375C102.571 169.708 102.964 170.094 103.214 170.531C103.464 170.964 103.589 171.471 103.589 172.055C103.589 173.003 103.225 173.758 102.496 174.32C101.772 174.878 100.787 175.156 99.5425 175.156C98.7196 175.156 97.9618 175.005 97.2691 174.703C96.5816 174.396 96.0451 173.974 95.6597 173.438C95.2795 172.901 95.0894 172.276 95.0894 171.562H97.0659C97.0659 172.208 97.2795 172.708 97.7066 173.062C98.1336 173.417 98.7456 173.594 99.5425 173.594C100.23 173.594 100.746 173.456 101.089 173.18C101.438 172.898 101.613 172.529 101.613 172.07ZM122.212 169.922H117.54V173.422H123.001V175H115.564V163.625H122.947V165.219H117.54V168.359H122.212V169.922ZM141.218 172.352H136.812L135.89 175H133.835L138.132 163.625H139.905L144.21 175H142.147L141.218 172.352ZM137.366 170.758H140.663L139.015 166.039L137.366 170.758ZM159.927 170.617H157.723V175H155.747V163.625H159.747C161.059 163.625 162.072 163.919 162.786 164.508C163.499 165.096 163.856 165.948 163.856 167.062C163.856 167.823 163.671 168.461 163.302 168.977C162.937 169.487 162.427 169.88 161.77 170.156L164.325 174.898V175H162.208L159.927 170.617ZM157.723 169.031H159.755C160.421 169.031 160.942 168.865 161.317 168.531C161.692 168.193 161.88 167.732 161.88 167.148C161.88 166.539 161.705 166.068 161.356 165.734C161.012 165.401 160.497 165.229 159.809 165.219H157.723V169.031ZM184.651 171.297C184.536 172.51 184.088 173.458 183.307 174.141C182.526 174.818 181.487 175.156 180.19 175.156C179.284 175.156 178.484 174.943 177.792 174.516C177.104 174.083 176.573 173.471 176.198 172.68C175.823 171.888 175.628 170.969 175.612 169.922V168.859C175.612 167.786 175.802 166.841 176.182 166.023C176.562 165.206 177.107 164.576 177.815 164.133C178.529 163.69 179.351 163.469 180.284 163.469C181.539 163.469 182.549 163.81 183.315 164.492C184.081 165.174 184.526 166.138 184.651 167.383H182.682C182.588 166.565 182.349 165.977 181.963 165.617C181.583 165.253 181.023 165.07 180.284 165.07C179.424 165.07 178.763 165.385 178.299 166.016C177.841 166.641 177.607 167.56 177.596 168.773V169.781C177.596 171.01 177.815 171.948 178.253 172.594C178.695 173.24 179.341 173.562 180.19 173.562C180.966 173.562 181.549 173.388 181.94 173.039C182.331 172.69 182.578 172.109 182.682 171.297H184.651ZM205.696 175H203.727V169.945H198.641V175H196.664V163.625H198.641V168.359H203.727V163.625H205.696V175Z" fill="white"/>
<path d="M58.6016 116.141V120H55.8594V108.625H60.3984C61.2682 108.625 62.0365 108.786 62.7031 109.109C63.375 109.427 63.8932 109.883 64.2578 110.477C64.6276 111.065 64.8125 111.734 64.8125 112.484C64.8125 113.594 64.4141 114.482 63.6172 115.148C62.8255 115.81 61.737 116.141 60.3516 116.141H58.6016ZM58.6016 114.023H60.3984C60.9297 114.023 61.3333 113.891 61.6094 113.625C61.8906 113.359 62.0312 112.984 62.0312 112.5C62.0312 111.969 61.888 111.544 61.6016 111.227C61.3151 110.909 60.9245 110.747 60.4297 110.742H58.6016V114.023ZM75.2031 108.625V116.07C75.2031 116.914 75.0234 117.646 74.6641 118.266C74.3047 118.88 73.7891 119.349 73.1172 119.672C72.4453 119.995 71.651 120.156 70.7344 120.156C69.349 120.156 68.2578 119.797 67.4609 119.078C66.6641 118.359 66.2578 117.375 66.2422 116.125V108.625H69V116.18C69.0312 117.424 69.6094 118.047 70.7344 118.047C71.3021 118.047 71.7318 117.891 72.0234 117.578C72.3151 117.266 72.4609 116.758 72.4609 116.055V108.625H75.2031ZM76.9219 120V108.625H81.0078C82.4714 108.625 83.5833 108.893 84.3438 109.43C85.1094 109.966 85.4922 110.745 85.4922 111.766C85.4922 112.354 85.3568 112.857 85.0859 113.273C84.8151 113.69 84.4167 113.997 83.8906 114.195C84.4844 114.352 84.9401 114.643 85.2578 115.07C85.5755 115.497 85.7344 116.018 85.7344 116.633C85.7344 117.747 85.3802 118.586 84.6719 119.148C83.9688 119.706 82.9245 119.99 81.5391 120H76.9219ZM79.6641 115.164V117.891H81.4609C81.9557 117.891 82.3359 117.779 82.6016 117.555C82.8672 117.326 83 117.005 83 116.594C83 115.646 82.5286 115.169 81.5859 115.164H79.6641ZM79.6641 113.367H81.0938C81.6927 113.362 82.1198 113.253 82.375 113.039C82.6302 112.826 82.7578 112.51 82.7578 112.094C82.7578 111.615 82.6198 111.271 82.3438 111.062C82.0677 110.849 81.6224 110.742 81.0078 110.742H79.6641V113.367ZM89.9922 117.891H94.7656V120H87.25V108.625H89.9922V117.891ZM98.8438 120H96.1094V108.625H98.8438V120ZM109.953 116.148C109.917 116.94 109.703 117.641 109.312 118.25C108.922 118.854 108.372 119.323 107.664 119.656C106.961 119.99 106.156 120.156 105.25 120.156C103.755 120.156 102.578 119.669 101.719 118.695C100.859 117.721 100.43 116.346 100.43 114.57V114.008C100.43 112.893 100.622 111.919 101.008 111.086C101.398 110.247 101.958 109.602 102.688 109.148C103.417 108.69 104.26 108.461 105.219 108.461C106.599 108.461 107.708 108.826 108.547 109.555C109.385 110.279 109.862 111.279 109.977 112.555H107.242C107.221 111.862 107.047 111.365 106.719 111.062C106.391 110.76 105.891 110.609 105.219 110.609C104.536 110.609 104.036 110.865 103.719 111.375C103.401 111.885 103.234 112.701 103.219 113.82V114.625C103.219 115.839 103.37 116.706 103.672 117.227C103.979 117.747 104.505 118.008 105.25 118.008C105.88 118.008 106.362 117.859 106.695 117.562C107.029 117.266 107.206 116.794 107.227 116.148H109.953ZM121.695 117.875H117.938L117.281 120H114.352L118.523 108.625H121.102L125.305 120H122.359L121.695 117.875ZM118.594 115.758H121.039L119.812 111.812L118.594 115.758ZM130.367 115.984H128.883V120H126.141V108.625H130.617C131.966 108.625 133.021 108.924 133.781 109.523C134.542 110.122 134.922 110.969 134.922 112.062C134.922 112.854 134.76 113.51 134.438 114.031C134.12 114.552 133.62 114.974 132.938 115.297L135.312 119.883V120H132.375L130.367 115.984ZM128.883 113.867H130.617C131.138 113.867 131.529 113.732 131.789 113.461C132.055 113.185 132.188 112.802 132.188 112.312C132.188 111.823 132.055 111.44 131.789 111.164C131.523 110.883 131.133 110.742 130.617 110.742H128.883V113.867ZM145.117 110.742H141.703V120H138.961V110.742H135.609V108.625H145.117V110.742Z" fill="white"/>
<path d="M59.4062 75.5938H58.4844V87.8125H59.4062V89.7266H55.8438V73.6719H59.4062V75.5938ZM63.8281 85.125C64.1979 85.125 64.4844 85.026 64.6875 84.8281C64.8906 84.625 64.9896 84.3438 64.9844 83.9844H67.4531C67.4531 84.9115 67.1198 85.6719 66.4531 86.2656C65.7917 86.8594 64.9375 87.1562 63.8906 87.1562C62.6615 87.1562 61.6927 86.7708 60.9844 86C60.276 85.2292 59.9219 84.1615 59.9219 82.7969V82.6875C59.9219 81.8333 60.0781 81.0807 60.3906 80.4297C60.7083 79.7734 61.1641 79.2708 61.7578 78.9219C62.3516 78.5677 63.0547 78.3906 63.8672 78.3906C64.9661 78.3906 65.8385 78.6953 66.4844 79.3047C67.1302 79.9141 67.4531 80.7396 67.4531 81.7812H64.9844C64.9844 81.3438 64.8776 81.0078 64.6641 80.7734C64.4505 80.5391 64.1641 80.4219 63.8047 80.4219C63.1224 80.4219 62.724 80.8568 62.6094 81.7266C62.5729 82.0026 62.5547 82.3828 62.5547 82.8672C62.5547 83.7161 62.6562 84.3047 62.8594 84.6328C63.0625 84.9609 63.3854 85.125 63.8281 85.125ZM68.2344 82.6953C68.2344 81.8516 68.3984 81.1016 68.7266 80.4453C69.0547 79.7839 69.526 79.276 70.1406 78.9219C70.7552 78.5677 71.4766 78.3906 72.3047 78.3906C73.5703 78.3906 74.5677 78.7839 75.2969 79.5703C76.026 80.3516 76.3906 81.4167 76.3906 82.7656V82.8594C76.3906 84.1771 76.0234 85.224 75.2891 86C74.5599 86.7708 73.5703 87.1562 72.3203 87.1562C71.1172 87.1562 70.151 86.7969 69.4219 86.0781C68.6927 85.3542 68.2995 84.375 68.2422 83.1406L68.2344 82.6953ZM70.8672 82.8594C70.8672 83.6406 70.9896 84.2135 71.2344 84.5781C71.4792 84.9427 71.8411 85.125 72.3203 85.125C73.2578 85.125 73.737 84.4036 73.7578 82.9609V82.6953C73.7578 81.1797 73.2734 80.4219 72.3047 80.4219C71.4245 80.4219 70.9479 81.0755 70.875 82.3828L70.8672 82.8594ZM80.0391 78.5469L80.125 79.5391C80.724 78.7734 81.5286 78.3906 82.5391 78.3906C83.6068 78.3906 84.3281 78.8151 84.7031 79.6641C85.276 78.8151 86.1042 78.3906 87.1875 78.3906C88.901 78.3906 89.7812 79.4271 89.8281 81.5V87H87.1875V81.6641C87.1875 81.2318 87.1146 80.9167 86.9688 80.7188C86.8229 80.5208 86.5573 80.4219 86.1719 80.4219C85.651 80.4219 85.263 80.6536 85.0078 81.1172L85.0156 81.2266V87H82.375V81.6797C82.375 81.237 82.3047 80.9167 82.1641 80.7188C82.0234 80.5208 81.7552 80.4219 81.3594 80.4219C80.8542 80.4219 80.4688 80.6536 80.2031 81.1172V87H77.5703V78.5469H80.0391ZM94.1094 87H91.4688V78.5469H94.1094V87ZM91.3125 76.3672C91.3125 75.9922 91.4479 75.6849 91.7188 75.4453C91.9896 75.2057 92.3411 75.0859 92.7734 75.0859C93.2057 75.0859 93.5573 75.2057 93.8281 75.4453C94.099 75.6849 94.2344 75.9922 94.2344 76.3672C94.2344 76.7422 94.099 77.0495 93.8281 77.2891C93.5573 77.5286 93.2057 77.6484 92.7734 77.6484C92.3411 77.6484 91.9896 77.5286 91.7188 77.2891C91.4479 77.0495 91.3125 76.7422 91.3125 76.3672ZM98.1562 78.5469L98.2422 79.5391C98.8255 78.7734 99.6302 78.3906 100.656 78.3906C101.536 78.3906 102.193 78.6536 102.625 79.1797C103.062 79.7057 103.289 80.4974 103.305 81.5547V87H100.664V81.6641C100.664 81.237 100.578 80.9245 100.406 80.7266C100.234 80.5234 99.9219 80.4219 99.4688 80.4219C98.9531 80.4219 98.5703 80.625 98.3203 81.0312V87H95.6875V78.5469H98.1562ZM104.461 82.7109C104.461 81.8568 104.602 81.1016 104.883 80.4453C105.164 79.7891 105.568 79.2839 106.094 78.9297C106.62 78.5703 107.232 78.3906 107.93 78.3906C108.81 78.3906 109.497 78.6875 109.992 79.2812L110.086 78.5469H112.477V86.6797C112.477 87.4245 112.302 88.0703 111.953 88.6172C111.609 89.1693 111.109 89.5911 110.453 89.8828C109.797 90.1797 109.036 90.3281 108.172 90.3281C107.552 90.3281 106.951 90.2109 106.367 89.9766C105.789 89.7422 105.346 89.4375 105.039 89.0625L106.141 87.5156C106.63 88.0938 107.276 88.3828 108.078 88.3828C109.245 88.3828 109.828 87.7839 109.828 86.5859V86.3203C109.323 86.8776 108.685 87.1562 107.914 87.1562C106.883 87.1562 106.049 86.763 105.414 85.9766C104.779 85.1849 104.461 84.1276 104.461 82.8047V82.7109ZM107.102 82.875C107.102 83.5677 107.232 84.1172 107.492 84.5234C107.753 84.9245 108.117 85.125 108.586 85.125C109.154 85.125 109.568 84.9349 109.828 84.5547V81C109.573 80.6146 109.164 80.4219 108.602 80.4219C108.133 80.4219 107.766 80.6328 107.5 81.0547C107.234 81.4714 107.102 82.0781 107.102 82.875ZM122.383 84.625C122.383 84.401 122.266 84.2214 122.031 84.0859C121.797 83.9505 121.352 83.8099 120.695 83.6641C120.039 83.5182 119.497 83.3281 119.07 83.0938C118.643 82.8542 118.318 82.5651 118.094 82.2266C117.87 81.888 117.758 81.5 117.758 81.0625C117.758 80.2865 118.078 79.6484 118.719 79.1484C119.359 78.6432 120.198 78.3906 121.234 78.3906C122.349 78.3906 123.245 78.6432 123.922 79.1484C124.599 79.6536 124.938 80.3177 124.938 81.1406H122.297C122.297 80.4635 121.94 80.125 121.227 80.125C120.951 80.125 120.719 80.2031 120.531 80.3594C120.344 80.5104 120.25 80.7005 120.25 80.9297C120.25 81.1641 120.365 81.3542 120.594 81.5C120.823 81.6458 121.188 81.7656 121.688 81.8594C122.193 81.9531 122.635 82.0651 123.016 82.1953C124.286 82.6328 124.922 83.4167 124.922 84.5469C124.922 85.3177 124.578 85.9453 123.891 86.4297C123.208 86.9141 122.323 87.1562 121.234 87.1562C120.51 87.1562 119.865 87.026 119.297 86.7656C118.729 86.5052 118.286 86.151 117.969 85.7031C117.651 85.2552 117.492 84.7839 117.492 84.2891H119.953C119.964 84.6797 120.094 84.9661 120.344 85.1484C120.594 85.3255 120.914 85.4141 121.305 85.4141C121.664 85.4141 121.932 85.3411 122.109 85.1953C122.292 85.0495 122.383 84.8594 122.383 84.625ZM125.828 82.6953C125.828 81.8516 125.992 81.1016 126.32 80.4453C126.648 79.7839 127.12 79.276 127.734 78.9219C128.349 78.5677 129.07 78.3906 129.898 78.3906C131.164 78.3906 132.161 78.7839 132.891 79.5703C133.62 80.3516 133.984 81.4167 133.984 82.7656V82.8594C133.984 84.1771 133.617 85.224 132.883 86C132.154 86.7708 131.164 87.1562 129.914 87.1562C128.711 87.1562 127.745 86.7969 127.016 86.0781C126.286 85.3542 125.893 84.375 125.836 83.1406L125.828 82.6953ZM128.461 82.8594C128.461 83.6406 128.583 84.2135 128.828 84.5781C129.073 84.9427 129.435 85.125 129.914 85.125C130.852 85.125 131.331 84.4036 131.352 82.9609V82.6953C131.352 81.1797 130.867 80.4219 129.898 80.4219C129.018 80.4219 128.542 81.0755 128.469 82.3828L128.461 82.8594ZM134.812 82.6953C134.812 81.8516 134.977 81.1016 135.305 80.4453C135.633 79.7839 136.104 79.276 136.719 78.9219C137.333 78.5677 138.055 78.3906 138.883 78.3906C140.148 78.3906 141.146 78.7839 141.875 79.5703C142.604 80.3516 142.969 81.4167 142.969 82.7656V82.8594C142.969 84.1771 142.602 85.224 141.867 86C141.138 86.7708 140.148 87.1562 138.898 87.1562C137.695 87.1562 136.729 86.7969 136 86.0781C135.271 85.3542 134.878 84.375 134.82 83.1406L134.812 82.6953ZM137.445 82.8594C137.445 83.6406 137.568 84.2135 137.812 84.5781C138.057 84.9427 138.419 85.125 138.898 85.125C139.836 85.125 140.315 84.4036 140.336 82.9609V82.6953C140.336 81.1797 139.852 80.4219 138.883 80.4219C138.003 80.4219 137.526 81.0755 137.453 82.3828L137.445 82.8594ZM146.547 78.5469L146.633 79.5391C147.216 78.7734 148.021 78.3906 149.047 78.3906C149.927 78.3906 150.583 78.6536 151.016 79.1797C151.453 79.7057 151.68 80.4974 151.695 81.5547V87H149.055V81.6641C149.055 81.237 148.969 80.9245 148.797 80.7266C148.625 80.5234 148.312 80.4219 147.859 80.4219C147.344 80.4219 146.961 80.625 146.711 81.0312V87H144.078V78.5469H146.547ZM152.531 73.6719H156.094V89.7266H152.531V87.8125H153.461V75.5938H152.531V73.6719Z" fill="white"/>
<defs>
<filter id="filter0_d" x="0" y="0" width="308" height="282" filterUnits="userSpaceOnUse" color-interpolation-filters="sRGB">
<feFlood flood-opacity="0" result="BackgroundImageFix"/>
<feColorMatrix in="SourceAlpha" type="matrix" values="0 0 0 0 0 0 0 0 0 0 0 0 0 0 0 0 0 0 127 0"/>
<feOffset dy="4"/>
<feGaussianBlur stdDeviation="2"/>
<feColorMatrix type="matrix" values="0 0 0 0 0 0 0 0 0 0 0 0 0 0 0 0 0 0 0.25 0"/>
<feBlend mode="normal" in2="BackgroundImageFix" result="effect1_dropShadow"/>
<feBlend mode="normal" in="SourceGraphic" in2="effect1_dropShadow" result="shape"/>
</filter>
</defs>
</svg>
