<svg width="1154" height="282" viewBox="0 0 1154 282" fill="none" xmlns="http://www.w3.org/2000/svg">
<path opacity="0.4" d="M219.988 214H189.812V131.383L190.105 117.809L190.594 102.965C185.581 107.978 182.098 111.266 180.145 112.828L163.738 126.012L149.188 107.848L195.184 71.2266H219.988V214Z" fill="#7EC9FF"/>
<path d="M204.502 153.289H198.545L197.207 157H195.273L200.703 142.781H202.344L207.783 157H205.859L204.502 153.289ZM199.111 151.746H203.945L201.523 145.096L199.111 151.746ZM208.975 151.629C208.975 150.008 209.359 148.706 210.127 147.723C210.895 146.733 211.901 146.238 213.145 146.238C214.382 146.238 215.361 146.661 216.084 147.508V142H217.891V157H216.23L216.143 155.867C215.42 156.753 214.414 157.195 213.125 157.195C211.901 157.195 210.902 156.694 210.127 155.691C209.359 154.689 208.975 153.38 208.975 151.766V151.629ZM210.781 151.834C210.781 153.032 211.029 153.969 211.523 154.646C212.018 155.324 212.702 155.662 213.574 155.662C214.72 155.662 215.557 155.148 216.084 154.119V149.266C215.544 148.27 214.714 147.771 213.594 147.771C212.708 147.771 212.018 148.113 211.523 148.797C211.029 149.48 210.781 150.493 210.781 151.834ZM222.568 146.434V158.221C222.568 160.252 221.647 161.268 219.805 161.268C219.408 161.268 219.04 161.209 218.701 161.092V159.646C218.91 159.699 219.183 159.725 219.521 159.725C219.925 159.725 220.231 159.614 220.439 159.393C220.654 159.178 220.762 158.8 220.762 158.26V146.434H222.568ZM220.576 143.631C220.576 143.344 220.664 143.1 220.84 142.898C221.022 142.69 221.286 142.586 221.631 142.586C221.982 142.586 222.249 142.687 222.432 142.889C222.614 143.09 222.705 143.338 222.705 143.631C222.705 143.924 222.614 144.168 222.432 144.363C222.249 144.559 221.982 144.656 221.631 144.656C221.279 144.656 221.016 144.559 220.84 144.363C220.664 144.168 220.576 143.924 220.576 143.631ZM232.012 155.955C231.309 156.782 230.277 157.195 228.916 157.195C227.79 157.195 226.93 156.87 226.338 156.219C225.752 155.561 225.456 154.591 225.449 153.309V146.434H227.256V153.26C227.256 154.861 227.907 155.662 229.209 155.662C230.589 155.662 231.507 155.148 231.963 154.119V146.434H233.77V157H232.051L232.012 155.955ZM242.676 154.197C242.676 153.709 242.49 153.331 242.119 153.064C241.755 152.791 241.113 152.557 240.195 152.361C239.284 152.166 238.558 151.932 238.018 151.658C237.484 151.385 237.087 151.059 236.826 150.682C236.572 150.304 236.445 149.855 236.445 149.334C236.445 148.468 236.81 147.736 237.539 147.137C238.275 146.538 239.212 146.238 240.352 146.238C241.549 146.238 242.52 146.548 243.262 147.166C244.01 147.785 244.385 148.576 244.385 149.539H242.568C242.568 149.044 242.357 148.618 241.934 148.26C241.517 147.902 240.99 147.723 240.352 147.723C239.694 147.723 239.18 147.866 238.809 148.152C238.438 148.439 238.252 148.813 238.252 149.275C238.252 149.712 238.424 150.04 238.77 150.262C239.115 150.483 239.736 150.695 240.635 150.896C241.54 151.098 242.272 151.339 242.832 151.619C243.392 151.899 243.805 152.238 244.072 152.635C244.346 153.025 244.482 153.504 244.482 154.07C244.482 155.014 244.105 155.773 243.35 156.346C242.594 156.912 241.615 157.195 240.41 157.195C239.564 157.195 238.815 157.046 238.164 156.746C237.513 156.447 237.002 156.03 236.631 155.496C236.266 154.956 236.084 154.373 236.084 153.748H237.891C237.923 154.354 238.164 154.835 238.613 155.193C239.069 155.545 239.668 155.721 240.41 155.721C241.094 155.721 241.641 155.584 242.051 155.311C242.467 155.031 242.676 154.66 242.676 154.197ZM249.287 143.875V146.434H251.26V147.83H249.287V154.383C249.287 154.806 249.375 155.125 249.551 155.34C249.727 155.548 250.026 155.652 250.449 155.652C250.658 155.652 250.944 155.613 251.309 155.535V157C250.833 157.13 250.371 157.195 249.922 157.195C249.115 157.195 248.506 156.951 248.096 156.463C247.686 155.975 247.48 155.281 247.48 154.383V147.83H245.557V146.434H247.48V143.875H249.287ZM259.531 154.197C259.531 153.709 259.346 153.331 258.975 153.064C258.61 152.791 257.969 152.557 257.051 152.361C256.139 152.166 255.413 151.932 254.873 151.658C254.339 151.385 253.942 151.059 253.682 150.682C253.428 150.304 253.301 149.855 253.301 149.334C253.301 148.468 253.665 147.736 254.395 147.137C255.13 146.538 256.068 146.238 257.207 146.238C258.405 146.238 259.375 146.548 260.117 147.166C260.866 147.785 261.24 148.576 261.24 149.539H259.424C259.424 149.044 259.212 148.618 258.789 148.26C258.372 147.902 257.845 147.723 257.207 147.723C256.549 147.723 256.035 147.866 255.664 148.152C255.293 148.439 255.107 148.813 255.107 149.275C255.107 149.712 255.28 150.04 255.625 150.262C255.97 150.483 256.592 150.695 257.49 150.896C258.395 151.098 259.128 151.339 259.688 151.619C260.247 151.899 260.661 152.238 260.928 152.635C261.201 153.025 261.338 153.504 261.338 154.07C261.338 155.014 260.96 155.773 260.205 156.346C259.45 156.912 258.47 157.195 257.266 157.195C256.419 157.195 255.671 157.046 255.02 156.746C254.368 156.447 253.857 156.03 253.486 155.496C253.122 154.956 252.939 154.373 252.939 153.748H254.746C254.779 154.354 255.02 154.835 255.469 155.193C255.924 155.545 256.523 155.721 257.266 155.721C257.949 155.721 258.496 155.584 258.906 155.311C259.323 155.031 259.531 154.66 259.531 154.197ZM269.541 157V147.83H267.871V146.434H269.541V145.35C269.541 144.217 269.844 143.341 270.449 142.723C271.055 142.104 271.911 141.795 273.018 141.795C273.434 141.795 273.848 141.85 274.258 141.961L274.16 143.426C273.854 143.367 273.529 143.338 273.184 143.338C272.598 143.338 272.145 143.51 271.826 143.855C271.507 144.194 271.348 144.682 271.348 145.32V146.434H273.604V147.83H271.348V157H269.541ZM275.127 151.619C275.127 150.584 275.329 149.653 275.732 148.826C276.143 147.999 276.709 147.361 277.432 146.912C278.161 146.463 278.991 146.238 279.922 146.238C281.361 146.238 282.523 146.736 283.408 147.732C284.3 148.729 284.746 150.053 284.746 151.707V151.834C284.746 152.863 284.548 153.787 284.15 154.607C283.76 155.421 283.197 156.056 282.461 156.512C281.732 156.967 280.892 157.195 279.941 157.195C278.509 157.195 277.347 156.697 276.455 155.701C275.57 154.705 275.127 153.387 275.127 151.746V151.619ZM276.943 151.834C276.943 153.006 277.214 153.947 277.754 154.656C278.301 155.366 279.03 155.721 279.941 155.721C280.859 155.721 281.589 155.363 282.129 154.646C282.669 153.924 282.939 152.915 282.939 151.619C282.939 150.46 282.663 149.523 282.109 148.807C281.562 148.084 280.833 147.723 279.922 147.723C279.03 147.723 278.311 148.077 277.764 148.787C277.217 149.497 276.943 150.512 276.943 151.834ZM292.119 148.055C291.846 148.009 291.549 147.986 291.23 147.986C290.046 147.986 289.242 148.491 288.818 149.5V157H287.012V146.434H288.77L288.799 147.654C289.391 146.71 290.231 146.238 291.318 146.238C291.67 146.238 291.937 146.284 292.119 146.375V148.055ZM202.891 178.955C202.188 179.782 201.156 180.195 199.795 180.195C198.669 180.195 197.809 179.87 197.217 179.219C196.631 178.561 196.335 177.591 196.328 176.309V169.434H198.135V176.26C198.135 177.861 198.786 178.662 200.088 178.662C201.468 178.662 202.386 178.148 202.842 177.119V169.434H204.648V180H202.93L202.891 178.955ZM213.555 177.197C213.555 176.709 213.369 176.331 212.998 176.064C212.633 175.791 211.992 175.557 211.074 175.361C210.163 175.166 209.437 174.932 208.896 174.658C208.363 174.385 207.965 174.059 207.705 173.682C207.451 173.304 207.324 172.855 207.324 172.334C207.324 171.468 207.689 170.736 208.418 170.137C209.154 169.538 210.091 169.238 211.23 169.238C212.428 169.238 213.398 169.548 214.141 170.166C214.889 170.785 215.264 171.576 215.264 172.539H213.447C213.447 172.044 213.236 171.618 212.812 171.26C212.396 170.902 211.868 170.723 211.23 170.723C210.573 170.723 210.059 170.866 209.688 171.152C209.316 171.439 209.131 171.813 209.131 172.275C209.131 172.712 209.303 173.04 209.648 173.262C209.993 173.483 210.615 173.695 211.514 173.896C212.419 174.098 213.151 174.339 213.711 174.619C214.271 174.899 214.684 175.238 214.951 175.635C215.225 176.025 215.361 176.504 215.361 177.07C215.361 178.014 214.984 178.773 214.229 179.346C213.473 179.912 212.493 180.195 211.289 180.195C210.443 180.195 209.694 180.046 209.043 179.746C208.392 179.447 207.881 179.03 207.51 178.496C207.145 177.956 206.963 177.373 206.963 176.748H208.77C208.802 177.354 209.043 177.835 209.492 178.193C209.948 178.545 210.547 178.721 211.289 178.721C211.973 178.721 212.52 178.584 212.93 178.311C213.346 178.031 213.555 177.66 213.555 177.197ZM222.1 180.195C220.667 180.195 219.502 179.727 218.604 178.789C217.705 177.845 217.256 176.585 217.256 175.01V174.678C217.256 173.63 217.454 172.695 217.852 171.875C218.255 171.048 218.815 170.404 219.531 169.941C220.254 169.473 221.035 169.238 221.875 169.238C223.249 169.238 224.316 169.691 225.078 170.596C225.84 171.501 226.221 172.796 226.221 174.482V175.234H219.062C219.089 176.276 219.391 177.119 219.971 177.764C220.557 178.402 221.299 178.721 222.197 178.721C222.835 178.721 223.376 178.59 223.818 178.33C224.261 178.07 224.648 177.725 224.98 177.295L226.084 178.154C225.199 179.515 223.87 180.195 222.1 180.195ZM221.875 170.723C221.146 170.723 220.534 170.99 220.039 171.523C219.544 172.051 219.238 172.793 219.121 173.75H224.414V173.613C224.362 172.695 224.115 171.986 223.672 171.484C223.229 170.977 222.63 170.723 221.875 170.723ZM233.428 171.055C233.154 171.009 232.858 170.986 232.539 170.986C231.354 170.986 230.55 171.491 230.127 172.5V180H228.32V169.434H230.078L230.107 170.654C230.7 169.71 231.54 169.238 232.627 169.238C232.979 169.238 233.245 169.284 233.428 169.375V171.055ZM248.984 174.834C248.984 176.442 248.617 177.738 247.881 178.721C247.145 179.704 246.149 180.195 244.893 180.195C243.61 180.195 242.601 179.788 241.865 178.975V184.062H240.059V169.434H241.709L241.797 170.605C242.533 169.694 243.555 169.238 244.863 169.238C246.133 169.238 247.135 169.717 247.871 170.674C248.613 171.631 248.984 172.962 248.984 174.668V174.834ZM247.178 174.629C247.178 173.438 246.924 172.497 246.416 171.807C245.908 171.117 245.212 170.771 244.326 170.771C243.232 170.771 242.412 171.257 241.865 172.227V177.275C242.406 178.239 243.232 178.721 244.346 178.721C245.212 178.721 245.898 178.379 246.406 177.695C246.921 177.005 247.178 175.983 247.178 174.629ZM255.674 180.195C254.242 180.195 253.076 179.727 252.178 178.789C251.279 177.845 250.83 176.585 250.83 175.01V174.678C250.83 173.63 251.029 172.695 251.426 171.875C251.829 171.048 252.389 170.404 253.105 169.941C253.828 169.473 254.609 169.238 255.449 169.238C256.823 169.238 257.891 169.691 258.652 170.596C259.414 171.501 259.795 172.796 259.795 174.482V175.234H252.637C252.663 176.276 252.965 177.119 253.545 177.764C254.131 178.402 254.873 178.721 255.771 178.721C256.41 178.721 256.95 178.59 257.393 178.33C257.835 178.07 258.223 177.725 258.555 177.295L259.658 178.154C258.773 179.515 257.445 180.195 255.674 180.195ZM255.449 170.723C254.72 170.723 254.108 170.99 253.613 171.523C253.118 172.051 252.812 172.793 252.695 173.75H257.988V173.613C257.936 172.695 257.689 171.986 257.246 171.484C256.803 170.977 256.204 170.723 255.449 170.723ZM267.002 171.055C266.729 171.009 266.432 170.986 266.113 170.986C264.928 170.986 264.124 171.491 263.701 172.5V180H261.895V169.434H263.652L263.682 170.654C264.274 169.71 265.114 169.238 266.201 169.238C266.553 169.238 266.82 169.284 267.002 169.375V171.055ZM274.824 177.197C274.824 176.709 274.639 176.331 274.268 176.064C273.903 175.791 273.262 175.557 272.344 175.361C271.432 175.166 270.706 174.932 270.166 174.658C269.632 174.385 269.235 174.059 268.975 173.682C268.721 173.304 268.594 172.855 268.594 172.334C268.594 171.468 268.958 170.736 269.688 170.137C270.423 169.538 271.361 169.238 272.5 169.238C273.698 169.238 274.668 169.548 275.41 170.166C276.159 170.785 276.533 171.576 276.533 172.539H274.717C274.717 172.044 274.505 171.618 274.082 171.26C273.665 170.902 273.138 170.723 272.5 170.723C271.842 170.723 271.328 170.866 270.957 171.152C270.586 171.439 270.4 171.813 270.4 172.275C270.4 172.712 270.573 173.04 270.918 173.262C271.263 173.483 271.885 173.695 272.783 173.896C273.688 174.098 274.421 174.339 274.98 174.619C275.54 174.899 275.954 175.238 276.221 175.635C276.494 176.025 276.631 176.504 276.631 177.07C276.631 178.014 276.253 178.773 275.498 179.346C274.743 179.912 273.763 180.195 272.559 180.195C271.712 180.195 270.964 180.046 270.312 179.746C269.661 179.447 269.15 179.03 268.779 178.496C268.415 177.956 268.232 177.373 268.232 176.748H270.039C270.072 177.354 270.312 177.835 270.762 178.193C271.217 178.545 271.816 178.721 272.559 178.721C273.242 178.721 273.789 178.584 274.199 178.311C274.616 178.031 274.824 177.66 274.824 177.197ZM278.506 174.619C278.506 173.584 278.708 172.653 279.111 171.826C279.521 170.999 280.088 170.361 280.811 169.912C281.54 169.463 282.37 169.238 283.301 169.238C284.74 169.238 285.902 169.736 286.787 170.732C287.679 171.729 288.125 173.053 288.125 174.707V174.834C288.125 175.863 287.926 176.787 287.529 177.607C287.139 178.421 286.576 179.056 285.84 179.512C285.111 179.967 284.271 180.195 283.32 180.195C281.888 180.195 280.726 179.697 279.834 178.701C278.949 177.705 278.506 176.387 278.506 174.746V174.619ZM280.322 174.834C280.322 176.006 280.592 176.947 281.133 177.656C281.68 178.366 282.409 178.721 283.32 178.721C284.238 178.721 284.967 178.363 285.508 177.646C286.048 176.924 286.318 175.915 286.318 174.619C286.318 173.46 286.042 172.523 285.488 171.807C284.941 171.084 284.212 170.723 283.301 170.723C282.409 170.723 281.689 171.077 281.143 171.787C280.596 172.497 280.322 173.512 280.322 174.834ZM292.1 169.434L292.158 170.762C292.965 169.746 294.02 169.238 295.322 169.238C297.555 169.238 298.682 170.498 298.701 173.018V180H296.895V173.008C296.888 172.246 296.712 171.683 296.367 171.318C296.029 170.954 295.498 170.771 294.775 170.771C294.189 170.771 293.675 170.928 293.232 171.24C292.79 171.553 292.445 171.963 292.197 172.471V180H290.391V169.434H292.1ZM307.949 180C307.845 179.792 307.76 179.421 307.695 178.887C306.855 179.759 305.853 180.195 304.688 180.195C303.646 180.195 302.79 179.902 302.119 179.316C301.455 178.724 301.123 177.975 301.123 177.07C301.123 175.97 301.54 175.117 302.373 174.512C303.213 173.9 304.391 173.594 305.908 173.594H307.666V172.764C307.666 172.132 307.477 171.631 307.1 171.26C306.722 170.882 306.165 170.693 305.43 170.693C304.785 170.693 304.245 170.856 303.809 171.182C303.372 171.507 303.154 171.901 303.154 172.363H301.338C301.338 171.836 301.523 171.328 301.895 170.84C302.272 170.345 302.78 169.954 303.418 169.668C304.062 169.382 304.769 169.238 305.537 169.238C306.755 169.238 307.708 169.544 308.398 170.156C309.089 170.762 309.447 171.598 309.473 172.666V177.529C309.473 178.499 309.596 179.271 309.844 179.844V180H307.949ZM304.951 178.623C305.518 178.623 306.055 178.477 306.562 178.184C307.07 177.891 307.438 177.51 307.666 177.041V174.873H306.25C304.036 174.873 302.93 175.521 302.93 176.816C302.93 177.383 303.118 177.826 303.496 178.145C303.874 178.464 304.359 178.623 304.951 178.623ZM314.268 180H312.461V165H314.268V180ZM319.131 180H317.324V169.434H319.131V180ZM317.178 166.631C317.178 166.338 317.266 166.09 317.441 165.889C317.624 165.687 317.891 165.586 318.242 165.586C318.594 165.586 318.861 165.687 319.043 165.889C319.225 166.09 319.316 166.338 319.316 166.631C319.316 166.924 319.225 167.168 319.043 167.363C318.861 167.559 318.594 167.656 318.242 167.656C317.891 167.656 317.624 167.559 317.441 167.363C317.266 167.168 317.178 166.924 317.178 166.631ZM324.482 166.875V169.434H326.455V170.83H324.482V177.383C324.482 177.806 324.57 178.125 324.746 178.34C324.922 178.548 325.221 178.652 325.645 178.652C325.853 178.652 326.139 178.613 326.504 178.535V180C326.029 180.13 325.566 180.195 325.117 180.195C324.31 180.195 323.701 179.951 323.291 179.463C322.881 178.975 322.676 178.281 322.676 177.383V170.83H320.752V169.434H322.676V166.875H324.482ZM332.031 177.354L334.492 169.434H336.426L332.178 181.631C331.52 183.389 330.475 184.268 329.043 184.268L328.701 184.238L328.027 184.111V182.646L328.516 182.686C329.128 182.686 329.603 182.562 329.941 182.314C330.286 182.067 330.57 181.615 330.791 180.957L331.191 179.883L327.422 169.434H329.395L332.031 177.354ZM202.891 203C202.786 202.792 202.702 202.421 202.637 201.887C201.797 202.759 200.794 203.195 199.629 203.195C198.587 203.195 197.731 202.902 197.061 202.316C196.396 201.724 196.064 200.975 196.064 200.07C196.064 198.97 196.481 198.117 197.314 197.512C198.154 196.9 199.333 196.594 200.85 196.594H202.607V195.764C202.607 195.132 202.419 194.631 202.041 194.26C201.663 193.882 201.107 193.693 200.371 193.693C199.727 193.693 199.186 193.856 198.75 194.182C198.314 194.507 198.096 194.901 198.096 195.363H196.279C196.279 194.836 196.465 194.328 196.836 193.84C197.214 193.345 197.721 192.954 198.359 192.668C199.004 192.382 199.71 192.238 200.479 192.238C201.696 192.238 202.65 192.544 203.34 193.156C204.03 193.762 204.388 194.598 204.414 195.666V200.529C204.414 201.499 204.538 202.271 204.785 202.844V203H202.891ZM199.893 201.623C200.459 201.623 200.996 201.477 201.504 201.184C202.012 200.891 202.38 200.51 202.607 200.041V197.873H201.191C198.978 197.873 197.871 198.521 197.871 199.816C197.871 200.383 198.06 200.826 198.438 201.145C198.815 201.464 199.3 201.623 199.893 201.623ZM208.955 192.434L209.014 193.762C209.821 192.746 210.876 192.238 212.178 192.238C214.411 192.238 215.537 193.498 215.557 196.018V203H213.75V196.008C213.743 195.246 213.568 194.683 213.223 194.318C212.884 193.954 212.354 193.771 211.631 193.771C211.045 193.771 210.531 193.928 210.088 194.24C209.645 194.553 209.3 194.963 209.053 195.471V203H207.246V192.434H208.955ZM217.842 197.629C217.842 196.008 218.226 194.706 218.994 193.723C219.762 192.733 220.768 192.238 222.012 192.238C223.249 192.238 224.229 192.661 224.951 193.508V188H226.758V203H225.098L225.01 201.867C224.287 202.753 223.281 203.195 221.992 203.195C220.768 203.195 219.769 202.694 218.994 201.691C218.226 200.689 217.842 199.38 217.842 197.766V197.629ZM219.648 197.834C219.648 199.032 219.896 199.969 220.391 200.646C220.885 201.324 221.569 201.662 222.441 201.662C223.587 201.662 224.424 201.148 224.951 200.119V195.266C224.411 194.27 223.581 193.771 222.461 193.771C221.576 193.771 220.885 194.113 220.391 194.797C219.896 195.48 219.648 196.493 219.648 197.834ZM236.23 192.434L236.279 193.605C237.054 192.694 238.099 192.238 239.414 192.238C240.892 192.238 241.898 192.805 242.432 193.938C242.783 193.43 243.239 193.02 243.799 192.707C244.365 192.395 245.033 192.238 245.801 192.238C248.118 192.238 249.297 193.465 249.336 195.92V203H247.529V196.027C247.529 195.272 247.357 194.709 247.012 194.338C246.667 193.96 246.087 193.771 245.273 193.771C244.603 193.771 244.046 193.973 243.604 194.377C243.161 194.774 242.904 195.311 242.832 195.988V203H241.016V196.076C241.016 194.54 240.264 193.771 238.76 193.771C237.575 193.771 236.764 194.276 236.328 195.285V203H234.521V192.434H236.23ZM251.592 197.619C251.592 196.584 251.794 195.653 252.197 194.826C252.607 193.999 253.174 193.361 253.896 192.912C254.626 192.463 255.456 192.238 256.387 192.238C257.826 192.238 258.988 192.736 259.873 193.732C260.765 194.729 261.211 196.053 261.211 197.707V197.834C261.211 198.863 261.012 199.787 260.615 200.607C260.225 201.421 259.661 202.056 258.926 202.512C258.197 202.967 257.357 203.195 256.406 203.195C254.974 203.195 253.812 202.697 252.92 201.701C252.035 200.705 251.592 199.387 251.592 197.746V197.619ZM253.408 197.834C253.408 199.006 253.678 199.947 254.219 200.656C254.766 201.366 255.495 201.721 256.406 201.721C257.324 201.721 258.053 201.363 258.594 200.646C259.134 199.924 259.404 198.915 259.404 197.619C259.404 196.46 259.128 195.523 258.574 194.807C258.027 194.084 257.298 193.723 256.387 193.723C255.495 193.723 254.775 194.077 254.229 194.787C253.682 195.497 253.408 196.512 253.408 197.834ZM262.998 197.619C262.998 196.584 263.2 195.653 263.604 194.826C264.014 193.999 264.58 193.361 265.303 192.912C266.032 192.463 266.862 192.238 267.793 192.238C269.232 192.238 270.394 192.736 271.279 193.732C272.171 194.729 272.617 196.053 272.617 197.707V197.834C272.617 198.863 272.419 199.787 272.021 200.607C271.631 201.421 271.068 202.056 270.332 202.512C269.603 202.967 268.763 203.195 267.812 203.195C266.38 203.195 265.218 202.697 264.326 201.701C263.441 200.705 262.998 199.387 262.998 197.746V197.619ZM264.814 197.834C264.814 199.006 265.085 199.947 265.625 200.656C266.172 201.366 266.901 201.721 267.812 201.721C268.73 201.721 269.46 201.363 270 200.646C270.54 199.924 270.811 198.915 270.811 197.619C270.811 196.46 270.534 195.523 269.98 194.807C269.434 194.084 268.704 193.723 267.793 193.723C266.901 193.723 266.182 194.077 265.635 194.787C265.088 195.497 264.814 196.512 264.814 197.834ZM274.443 197.629C274.443 196.008 274.827 194.706 275.596 193.723C276.364 192.733 277.37 192.238 278.613 192.238C279.85 192.238 280.83 192.661 281.553 193.508V188H283.359V203H281.699L281.611 201.867C280.889 202.753 279.883 203.195 278.594 203.195C277.37 203.195 276.37 202.694 275.596 201.691C274.827 200.689 274.443 199.38 274.443 197.766V197.629ZM276.25 197.834C276.25 199.032 276.497 199.969 276.992 200.646C277.487 201.324 278.171 201.662 279.043 201.662C280.189 201.662 281.025 201.148 281.553 200.119V195.266C281.012 194.27 280.182 193.771 279.062 193.771C278.177 193.771 277.487 194.113 276.992 194.797C276.497 195.48 276.25 196.493 276.25 197.834Z" fill="black"/>
<path opacity="0.4" d="M574.184 214H474.379V193.004L510.219 156.773C520.831 145.901 527.764 138.382 531.02 134.215C534.275 129.983 536.618 126.077 538.051 122.496C539.483 118.915 540.199 115.204 540.199 111.363C540.199 105.634 538.604 101.37 535.414 98.5703C532.289 95.7708 528.09 94.3711 522.816 94.3711C517.283 94.3711 511.911 95.6406 506.703 98.1797C501.495 100.719 496.059 104.332 490.395 109.02L473.988 89.5859C481.02 83.5964 486.846 79.3646 491.469 76.8906C496.091 74.4167 501.137 72.5286 506.605 71.2266C512.074 69.8594 518.194 69.1758 524.965 69.1758C533.884 69.1758 541.762 70.8034 548.598 74.0586C555.434 77.3138 560.74 81.8711 564.516 87.7305C568.292 93.5898 570.18 100.296 570.18 107.848C570.18 114.423 569.008 120.608 566.664 126.402C564.385 132.132 560.805 138.023 555.922 144.078C551.104 150.133 542.576 158.759 530.336 169.957L511.977 187.242V188.609H574.184V214Z" fill="#7EC9FF"/>
<path d="M534.02 150.201C534.02 151.458 533.564 152.438 532.652 153.141C531.741 153.844 530.504 154.195 528.941 154.195C527.249 154.195 525.947 153.977 525.035 153.541V151.939C525.621 152.187 526.259 152.382 526.949 152.525C527.639 152.669 528.323 152.74 529 152.74C530.107 152.74 530.94 152.532 531.5 152.115C532.06 151.692 532.34 151.106 532.34 150.357C532.34 149.863 532.239 149.459 532.037 149.146C531.842 148.827 531.51 148.535 531.041 148.268C530.579 148.001 529.872 147.698 528.922 147.359C527.594 146.884 526.643 146.321 526.07 145.67C525.504 145.019 525.221 144.169 525.221 143.121C525.221 142.021 525.634 141.145 526.461 140.494C527.288 139.843 528.382 139.518 529.742 139.518C531.161 139.518 532.467 139.778 533.658 140.299L533.141 141.744C531.962 141.249 530.816 141.002 529.703 141.002C528.824 141.002 528.137 141.191 527.643 141.568C527.148 141.946 526.9 142.47 526.9 143.141C526.9 143.635 526.992 144.042 527.174 144.361C527.356 144.674 527.662 144.964 528.092 145.23C528.528 145.491 529.192 145.781 530.084 146.1C531.581 146.633 532.61 147.206 533.17 147.818C533.736 148.43 534.02 149.225 534.02 150.201ZM538.316 154H536.695V143.297H538.316V154ZM536.559 140.396C536.559 140.025 536.65 139.755 536.832 139.586C537.014 139.41 537.242 139.322 537.516 139.322C537.776 139.322 538.001 139.41 538.189 139.586C538.378 139.762 538.473 140.032 538.473 140.396C538.473 140.761 538.378 141.035 538.189 141.217C538.001 141.393 537.776 141.48 537.516 141.48C537.242 141.48 537.014 141.393 536.832 141.217C536.65 141.035 536.559 140.761 536.559 140.396ZM555.396 154V147.037C555.396 146.184 555.214 145.546 554.85 145.123C554.485 144.693 553.919 144.479 553.15 144.479C552.141 144.479 551.396 144.768 550.914 145.348C550.432 145.927 550.191 146.819 550.191 148.023V154H548.57V147.037C548.57 146.184 548.388 145.546 548.023 145.123C547.659 144.693 547.089 144.479 546.314 144.479C545.299 144.479 544.553 144.785 544.078 145.396C543.609 146.002 543.375 146.998 543.375 148.385V154H541.754V143.297H543.072L543.336 144.762H543.414C543.72 144.241 544.15 143.834 544.703 143.541C545.263 143.248 545.888 143.102 546.578 143.102C548.251 143.102 549.345 143.707 549.859 144.918H549.938C550.257 144.358 550.719 143.915 551.324 143.59C551.93 143.264 552.62 143.102 553.395 143.102C554.605 143.102 555.51 143.414 556.109 144.039C556.715 144.658 557.018 145.65 557.018 147.018V154H555.396ZM565.348 154.195C564.651 154.195 564.013 154.068 563.434 153.814C562.861 153.554 562.379 153.157 561.988 152.623H561.871C561.949 153.248 561.988 153.84 561.988 154.4V158.805H560.367V143.297H561.686L561.91 144.762H561.988C562.405 144.176 562.89 143.753 563.443 143.492C563.997 143.232 564.632 143.102 565.348 143.102C566.767 143.102 567.861 143.587 568.629 144.557C569.404 145.527 569.791 146.887 569.791 148.639C569.791 150.396 569.397 151.764 568.609 152.74C567.828 153.71 566.741 154.195 565.348 154.195ZM565.113 144.479C564.02 144.479 563.229 144.781 562.74 145.387C562.252 145.992 562.001 146.956 561.988 148.277V148.639C561.988 150.143 562.239 151.22 562.74 151.871C563.242 152.516 564.046 152.838 565.152 152.838C566.077 152.838 566.799 152.464 567.32 151.715C567.848 150.966 568.111 149.934 568.111 148.619C568.111 147.285 567.848 146.262 567.32 145.553C566.799 144.837 566.064 144.479 565.113 144.479ZM574.254 154H572.633V138.805H574.254V154ZM579.312 154H577.691V143.297H579.312V154ZM577.555 140.396C577.555 140.025 577.646 139.755 577.828 139.586C578.01 139.41 578.238 139.322 578.512 139.322C578.772 139.322 578.997 139.41 579.186 139.586C579.374 139.762 579.469 140.032 579.469 140.396C579.469 140.761 579.374 141.035 579.186 141.217C578.997 141.393 578.772 141.48 578.512 141.48C578.238 141.48 578.01 141.393 577.828 141.217C577.646 141.035 577.555 140.761 577.555 140.396ZM587.574 144.557H584.85V154H583.229V144.557H581.314V143.824L583.229 143.238V142.643C583.229 140.012 584.378 138.697 586.676 138.697C587.242 138.697 587.906 138.811 588.668 139.039L588.248 140.338C587.623 140.136 587.089 140.035 586.646 140.035C586.035 140.035 585.582 140.24 585.289 140.65C584.996 141.054 584.85 141.705 584.85 142.604V143.297H587.574V144.557ZM591.148 154H589.527V143.297H591.148V154ZM589.391 140.396C589.391 140.025 589.482 139.755 589.664 139.586C589.846 139.41 590.074 139.322 590.348 139.322C590.608 139.322 590.833 139.41 591.021 139.586C591.21 139.762 591.305 140.032 591.305 140.396C591.305 140.761 591.21 141.035 591.021 141.217C590.833 141.393 590.608 141.48 590.348 141.48C590.074 141.48 589.846 141.393 589.664 141.217C589.482 141.035 589.391 140.761 589.391 140.396ZM599.107 154.195C597.525 154.195 596.275 153.714 595.357 152.75C594.446 151.786 593.99 150.449 593.99 148.736C593.99 147.011 594.413 145.641 595.26 144.625C596.113 143.609 597.255 143.102 598.688 143.102C600.029 143.102 601.09 143.544 601.871 144.43C602.652 145.309 603.043 146.471 603.043 147.916V148.941H595.67C595.702 150.198 596.018 151.152 596.617 151.803C597.223 152.454 598.072 152.779 599.166 152.779C600.318 152.779 601.458 152.538 602.584 152.057V153.502C602.011 153.749 601.467 153.925 600.953 154.029C600.445 154.14 599.83 154.195 599.107 154.195ZM598.668 144.459C597.809 144.459 597.122 144.739 596.607 145.299C596.1 145.859 595.8 146.633 595.709 147.623H601.305C601.305 146.601 601.077 145.82 600.621 145.279C600.165 144.732 599.514 144.459 598.668 144.459ZM612.721 151.08C612.721 152.076 612.35 152.844 611.607 153.385C610.865 153.925 609.824 154.195 608.482 154.195C607.063 154.195 605.956 153.971 605.162 153.521V152.018C605.676 152.278 606.227 152.483 606.812 152.633C607.405 152.783 607.975 152.857 608.521 152.857C609.368 152.857 610.019 152.724 610.475 152.457C610.93 152.184 611.158 151.77 611.158 151.217C611.158 150.8 610.976 150.445 610.611 150.152C610.253 149.853 609.55 149.501 608.502 149.098C607.506 148.727 606.796 148.404 606.373 148.131C605.956 147.851 605.644 147.535 605.436 147.184C605.234 146.832 605.133 146.412 605.133 145.924C605.133 145.051 605.488 144.365 606.197 143.863C606.907 143.355 607.88 143.102 609.117 143.102C610.27 143.102 611.396 143.336 612.496 143.805L611.92 145.123C610.846 144.68 609.872 144.459 609 144.459C608.232 144.459 607.652 144.579 607.262 144.82C606.871 145.061 606.676 145.393 606.676 145.816C606.676 146.103 606.747 146.347 606.891 146.549C607.04 146.751 607.278 146.943 607.604 147.125C607.929 147.307 608.554 147.571 609.479 147.916C610.748 148.378 611.604 148.844 612.047 149.312C612.496 149.781 612.721 150.37 612.721 151.08ZM624.02 152.857C624.306 152.857 624.583 152.838 624.85 152.799C625.117 152.753 625.328 152.708 625.484 152.662V153.902C625.309 153.987 625.048 154.055 624.703 154.107C624.365 154.166 624.059 154.195 623.785 154.195C621.715 154.195 620.68 153.105 620.68 150.924V144.557H619.146V143.775L620.68 143.102L621.363 140.816H622.301V143.297H625.406V144.557H622.301V150.855C622.301 151.5 622.454 151.995 622.76 152.34C623.066 152.685 623.486 152.857 624.02 152.857ZM634.957 154V147.076C634.957 146.204 634.758 145.553 634.361 145.123C633.964 144.693 633.342 144.479 632.496 144.479C631.37 144.479 630.546 144.785 630.025 145.396C629.511 146.008 629.254 147.011 629.254 148.404V154H627.633V138.805H629.254V143.404C629.254 143.958 629.228 144.417 629.176 144.781H629.273C629.592 144.267 630.045 143.863 630.631 143.57C631.223 143.271 631.897 143.121 632.652 143.121C633.961 143.121 634.941 143.434 635.592 144.059C636.249 144.677 636.578 145.663 636.578 147.018V154H634.957ZM644.439 154.195C642.857 154.195 641.607 153.714 640.689 152.75C639.778 151.786 639.322 150.449 639.322 148.736C639.322 147.011 639.745 145.641 640.592 144.625C641.445 143.609 642.587 143.102 644.02 143.102C645.361 143.102 646.422 143.544 647.203 144.43C647.984 145.309 648.375 146.471 648.375 147.916V148.941H641.002C641.035 150.198 641.35 151.152 641.949 151.803C642.555 152.454 643.404 152.779 644.498 152.779C645.65 152.779 646.79 152.538 647.916 152.057V153.502C647.343 153.749 646.799 153.925 646.285 154.029C645.777 154.14 645.162 154.195 644.439 154.195ZM644 144.459C643.141 144.459 642.454 144.739 641.939 145.299C641.432 145.859 641.132 146.633 641.041 147.623H646.637C646.637 146.601 646.409 145.82 645.953 145.279C645.497 144.732 644.846 144.459 644 144.459ZM534.957 175.639C534.957 177.383 534.518 178.747 533.639 179.73C532.76 180.707 531.546 181.195 529.996 181.195C529.039 181.195 528.189 180.971 527.447 180.521C526.705 180.072 526.132 179.428 525.729 178.588C525.325 177.748 525.123 176.765 525.123 175.639C525.123 173.894 525.559 172.536 526.432 171.566C527.304 170.59 528.515 170.102 530.064 170.102C531.562 170.102 532.75 170.6 533.629 171.596C534.514 172.592 534.957 173.939 534.957 175.639ZM526.803 175.639C526.803 177.006 527.076 178.048 527.623 178.764C528.17 179.48 528.974 179.838 530.035 179.838C531.096 179.838 531.9 179.483 532.447 178.773C533.001 178.057 533.277 177.012 533.277 175.639C533.277 174.278 533.001 173.246 532.447 172.543C531.9 171.833 531.09 171.479 530.016 171.479C528.954 171.479 528.154 171.827 527.613 172.523C527.073 173.22 526.803 174.258 526.803 175.639ZM540.152 181L536.09 170.297H537.828L540.133 176.645C540.654 178.129 540.96 179.092 541.051 179.535H541.129C541.201 179.19 541.425 178.477 541.803 177.396C542.187 176.309 543.043 173.943 544.371 170.297H546.109L542.047 181H540.152ZM552.35 181.195C550.768 181.195 549.518 180.714 548.6 179.75C547.688 178.786 547.232 177.449 547.232 175.736C547.232 174.011 547.656 172.641 548.502 171.625C549.355 170.609 550.497 170.102 551.93 170.102C553.271 170.102 554.332 170.544 555.113 171.43C555.895 172.309 556.285 173.471 556.285 174.916V175.941H548.912C548.945 177.198 549.26 178.152 549.859 178.803C550.465 179.454 551.314 179.779 552.408 179.779C553.561 179.779 554.7 179.538 555.826 179.057V180.502C555.253 180.749 554.71 180.925 554.195 181.029C553.688 181.14 553.072 181.195 552.35 181.195ZM551.91 171.459C551.051 171.459 550.364 171.739 549.85 172.299C549.342 172.859 549.042 173.633 548.951 174.623H554.547C554.547 173.601 554.319 172.82 553.863 172.279C553.408 171.732 552.757 171.459 551.91 171.459ZM563.941 170.102C564.417 170.102 564.843 170.141 565.221 170.219L564.996 171.723C564.553 171.625 564.163 171.576 563.824 171.576C562.958 171.576 562.216 171.928 561.598 172.631C560.986 173.334 560.68 174.21 560.68 175.258V181H559.059V170.297H560.396L560.582 172.279H560.66C561.057 171.583 561.536 171.046 562.096 170.668C562.656 170.29 563.271 170.102 563.941 170.102ZM568.844 181H567.223V165.805H568.844V181ZM581.52 175.639C581.52 177.383 581.08 178.747 580.201 179.73C579.322 180.707 578.108 181.195 576.559 181.195C575.602 181.195 574.752 180.971 574.01 180.521C573.268 180.072 572.695 179.428 572.291 178.588C571.887 177.748 571.686 176.765 571.686 175.639C571.686 173.894 572.122 172.536 572.994 171.566C573.867 170.59 575.077 170.102 576.627 170.102C578.124 170.102 579.312 170.6 580.191 171.596C581.077 172.592 581.52 173.939 581.52 175.639ZM573.365 175.639C573.365 177.006 573.639 178.048 574.186 178.764C574.732 179.48 575.536 179.838 576.598 179.838C577.659 179.838 578.463 179.483 579.01 178.773C579.563 178.057 579.84 177.012 579.84 175.639C579.84 174.278 579.563 173.246 579.01 172.543C578.463 171.833 577.652 171.479 576.578 171.479C575.517 171.479 574.716 171.827 574.176 172.523C573.635 173.22 573.365 174.258 573.365 175.639ZM590.953 181L590.631 179.477H590.553C590.019 180.147 589.485 180.603 588.951 180.844C588.424 181.078 587.763 181.195 586.969 181.195C585.908 181.195 585.074 180.922 584.469 180.375C583.87 179.828 583.57 179.05 583.57 178.041C583.57 175.88 585.299 174.747 588.756 174.643L590.572 174.584V173.92C590.572 173.08 590.39 172.462 590.025 172.064C589.667 171.661 589.091 171.459 588.297 171.459C587.405 171.459 586.396 171.732 585.27 172.279L584.771 171.039C585.299 170.753 585.875 170.528 586.5 170.365C587.132 170.202 587.763 170.121 588.395 170.121C589.671 170.121 590.615 170.404 591.227 170.971C591.845 171.537 592.154 172.445 592.154 173.695V181H590.953ZM587.291 179.857C588.3 179.857 589.091 179.581 589.664 179.027C590.243 178.474 590.533 177.699 590.533 176.703V175.736L588.912 175.805C587.623 175.85 586.692 176.052 586.119 176.41C585.553 176.762 585.27 177.312 585.27 178.061C585.27 178.646 585.445 179.092 585.797 179.398C586.155 179.704 586.653 179.857 587.291 179.857ZM602.789 179.564H602.701C601.952 180.652 600.833 181.195 599.342 181.195C597.942 181.195 596.852 180.717 596.07 179.76C595.296 178.803 594.908 177.442 594.908 175.678C594.908 173.913 595.299 172.543 596.08 171.566C596.861 170.59 597.949 170.102 599.342 170.102C600.794 170.102 601.907 170.629 602.682 171.684H602.809L602.74 170.912L602.701 170.16V165.805H604.322V181H603.004L602.789 179.564ZM599.547 179.838C600.654 179.838 601.454 179.538 601.949 178.939C602.451 178.334 602.701 177.361 602.701 176.02V175.678C602.701 174.161 602.447 173.08 601.939 172.436C601.438 171.785 600.634 171.459 599.527 171.459C598.577 171.459 597.848 171.83 597.34 172.572C596.839 173.308 596.588 174.35 596.588 175.697C596.588 177.064 596.839 178.096 597.34 178.793C597.841 179.49 598.577 179.838 599.547 179.838ZM622.203 175.639C622.203 177.383 621.764 178.747 620.885 179.73C620.006 180.707 618.792 181.195 617.242 181.195C616.285 181.195 615.436 180.971 614.693 180.521C613.951 180.072 613.378 179.428 612.975 178.588C612.571 177.748 612.369 176.765 612.369 175.639C612.369 173.894 612.805 172.536 613.678 171.566C614.55 170.59 615.761 170.102 617.311 170.102C618.808 170.102 619.996 170.6 620.875 171.596C621.76 172.592 622.203 173.939 622.203 175.639ZM614.049 175.639C614.049 177.006 614.322 178.048 614.869 178.764C615.416 179.48 616.22 179.838 617.281 179.838C618.342 179.838 619.146 179.483 619.693 178.773C620.247 178.057 620.523 177.012 620.523 175.639C620.523 174.278 620.247 173.246 619.693 172.543C619.146 171.833 618.336 171.479 617.262 171.479C616.201 171.479 615.4 171.827 614.859 172.523C614.319 173.22 614.049 174.258 614.049 175.639ZM629.879 171.557H627.154V181H625.533V171.557H623.619V170.824L625.533 170.238V169.643C625.533 167.012 626.682 165.697 628.98 165.697C629.547 165.697 630.211 165.811 630.973 166.039L630.553 167.338C629.928 167.136 629.394 167.035 628.951 167.035C628.339 167.035 627.887 167.24 627.594 167.65C627.301 168.054 627.154 168.705 627.154 169.604V170.297H629.879V171.557ZM527.34 208H525.719V197.297H527.34V208ZM525.582 194.396C525.582 194.025 525.673 193.755 525.855 193.586C526.038 193.41 526.266 193.322 526.539 193.322C526.799 193.322 527.024 193.41 527.213 193.586C527.402 193.762 527.496 194.032 527.496 194.396C527.496 194.761 527.402 195.035 527.213 195.217C527.024 195.393 526.799 195.48 526.539 195.48C526.266 195.48 526.038 195.393 525.855 195.217C525.673 195.035 525.582 194.761 525.582 194.396ZM538.102 208V201.076C538.102 200.204 537.903 199.553 537.506 199.123C537.109 198.693 536.487 198.479 535.641 198.479C534.521 198.479 533.701 198.781 533.18 199.387C532.659 199.992 532.398 200.992 532.398 202.385V208H530.777V197.297H532.096L532.359 198.762H532.438C532.77 198.234 533.235 197.827 533.834 197.541C534.433 197.248 535.1 197.102 535.836 197.102C537.125 197.102 538.095 197.414 538.746 198.039C539.397 198.658 539.723 199.65 539.723 201.018V208H538.102ZM547.887 198.557H545.162V208H543.541V198.557H541.627V197.824L543.541 197.238V196.643C543.541 194.012 544.69 192.697 546.988 192.697C547.555 192.697 548.219 192.811 548.98 193.039L548.561 194.338C547.936 194.136 547.402 194.035 546.959 194.035C546.347 194.035 545.895 194.24 545.602 194.65C545.309 195.054 545.162 195.705 545.162 196.604V197.297H547.887V198.557ZM559.078 202.639C559.078 204.383 558.639 205.747 557.76 206.73C556.881 207.707 555.667 208.195 554.117 208.195C553.16 208.195 552.311 207.971 551.568 207.521C550.826 207.072 550.253 206.428 549.85 205.588C549.446 204.748 549.244 203.765 549.244 202.639C549.244 200.894 549.68 199.536 550.553 198.566C551.425 197.59 552.636 197.102 554.186 197.102C555.683 197.102 556.871 197.6 557.75 198.596C558.635 199.592 559.078 200.939 559.078 202.639ZM550.924 202.639C550.924 204.006 551.197 205.048 551.744 205.764C552.291 206.48 553.095 206.838 554.156 206.838C555.217 206.838 556.021 206.483 556.568 205.773C557.122 205.057 557.398 204.012 557.398 202.639C557.398 201.278 557.122 200.246 556.568 199.543C556.021 198.833 555.211 198.479 554.137 198.479C553.076 198.479 552.275 198.827 551.734 199.523C551.194 200.22 550.924 201.258 550.924 202.639ZM566.812 197.102C567.288 197.102 567.714 197.141 568.092 197.219L567.867 198.723C567.424 198.625 567.034 198.576 566.695 198.576C565.829 198.576 565.087 198.928 564.469 199.631C563.857 200.334 563.551 201.21 563.551 202.258V208H561.93V197.297H563.268L563.453 199.279H563.531C563.928 198.583 564.407 198.046 564.967 197.668C565.527 197.29 566.142 197.102 566.812 197.102ZM583.736 208V201.037C583.736 200.184 583.554 199.546 583.189 199.123C582.825 198.693 582.258 198.479 581.49 198.479C580.481 198.479 579.736 198.768 579.254 199.348C578.772 199.927 578.531 200.819 578.531 202.023V208H576.91V201.037C576.91 200.184 576.728 199.546 576.363 199.123C575.999 198.693 575.429 198.479 574.654 198.479C573.639 198.479 572.893 198.785 572.418 199.396C571.949 200.002 571.715 200.998 571.715 202.385V208H570.094V197.297H571.412L571.676 198.762H571.754C572.06 198.241 572.49 197.834 573.043 197.541C573.603 197.248 574.228 197.102 574.918 197.102C576.591 197.102 577.685 197.707 578.199 198.918H578.277C578.596 198.358 579.059 197.915 579.664 197.59C580.27 197.264 580.96 197.102 581.734 197.102C582.945 197.102 583.85 197.414 584.449 198.039C585.055 198.658 585.357 199.65 585.357 201.018V208H583.736ZM595.289 208L594.967 206.477H594.889C594.355 207.147 593.821 207.603 593.287 207.844C592.76 208.078 592.099 208.195 591.305 208.195C590.243 208.195 589.41 207.922 588.805 207.375C588.206 206.828 587.906 206.05 587.906 205.041C587.906 202.88 589.635 201.747 593.092 201.643L594.908 201.584V200.92C594.908 200.08 594.726 199.462 594.361 199.064C594.003 198.661 593.427 198.459 592.633 198.459C591.741 198.459 590.732 198.732 589.605 199.279L589.107 198.039C589.635 197.753 590.211 197.528 590.836 197.365C591.467 197.202 592.099 197.121 592.73 197.121C594.007 197.121 594.951 197.404 595.562 197.971C596.181 198.537 596.49 199.445 596.49 200.695V208H595.289ZM591.627 206.857C592.636 206.857 593.427 206.581 594 206.027C594.579 205.474 594.869 204.699 594.869 203.703V202.736L593.248 202.805C591.959 202.85 591.028 203.052 590.455 203.41C589.889 203.762 589.605 204.312 589.605 205.061C589.605 205.646 589.781 206.092 590.133 206.398C590.491 206.704 590.989 206.857 591.627 206.857ZM603.297 206.857C603.583 206.857 603.86 206.838 604.127 206.799C604.394 206.753 604.605 206.708 604.762 206.662V207.902C604.586 207.987 604.326 208.055 603.98 208.107C603.642 208.166 603.336 208.195 603.062 208.195C600.992 208.195 599.957 207.105 599.957 204.924V198.557H598.424V197.775L599.957 197.102L600.641 194.816H601.578V197.297H604.684V198.557H601.578V204.855C601.578 205.5 601.731 205.995 602.037 206.34C602.343 206.685 602.763 206.857 603.297 206.857ZM608.531 208H606.91V197.297H608.531V208ZM606.773 194.396C606.773 194.025 606.865 193.755 607.047 193.586C607.229 193.41 607.457 193.322 607.73 193.322C607.991 193.322 608.215 193.41 608.404 193.586C608.593 193.762 608.688 194.032 608.688 194.396C608.688 194.761 608.593 195.035 608.404 195.217C608.215 195.393 607.991 195.48 607.73 195.48C607.457 195.48 607.229 195.393 607.047 195.217C606.865 195.035 606.773 194.761 606.773 194.396ZM621.207 202.639C621.207 204.383 620.768 205.747 619.889 206.73C619.01 207.707 617.796 208.195 616.246 208.195C615.289 208.195 614.439 207.971 613.697 207.521C612.955 207.072 612.382 206.428 611.979 205.588C611.575 204.748 611.373 203.765 611.373 202.639C611.373 200.894 611.809 199.536 612.682 198.566C613.554 197.59 614.765 197.102 616.314 197.102C617.812 197.102 619 197.6 619.879 198.596C620.764 199.592 621.207 200.939 621.207 202.639ZM613.053 202.639C613.053 204.006 613.326 205.048 613.873 205.764C614.42 206.48 615.224 206.838 616.285 206.838C617.346 206.838 618.15 206.483 618.697 205.773C619.251 205.057 619.527 204.012 619.527 202.639C619.527 201.278 619.251 200.246 618.697 199.543C618.15 198.833 617.34 198.479 616.266 198.479C615.204 198.479 614.404 198.827 613.863 199.523C613.323 200.22 613.053 201.258 613.053 202.639ZM631.383 208V201.076C631.383 200.204 631.184 199.553 630.787 199.123C630.39 198.693 629.768 198.479 628.922 198.479C627.802 198.479 626.982 198.781 626.461 199.387C625.94 199.992 625.68 200.992 625.68 202.385V208H624.059V197.297H625.377L625.641 198.762H625.719C626.051 198.234 626.516 197.827 627.115 197.541C627.714 197.248 628.382 197.102 629.117 197.102C630.406 197.102 631.376 197.414 632.027 198.039C632.678 198.658 633.004 199.65 633.004 201.018V208H631.383ZM650.777 202.639C650.777 204.383 650.338 205.747 649.459 206.73C648.58 207.707 647.366 208.195 645.816 208.195C644.859 208.195 644.01 207.971 643.268 207.521C642.525 207.072 641.952 206.428 641.549 205.588C641.145 204.748 640.943 203.765 640.943 202.639C640.943 200.894 641.38 199.536 642.252 198.566C643.124 197.59 644.335 197.102 645.885 197.102C647.382 197.102 648.57 197.6 649.449 198.596C650.335 199.592 650.777 200.939 650.777 202.639ZM642.623 202.639C642.623 204.006 642.896 205.048 643.443 205.764C643.99 206.48 644.794 206.838 645.855 206.838C646.917 206.838 647.721 206.483 648.268 205.773C648.821 205.057 649.098 204.012 649.098 202.639C649.098 201.278 648.821 200.246 648.268 199.543C647.721 198.833 646.91 198.479 645.836 198.479C644.775 198.479 643.974 198.827 643.434 199.523C642.893 200.22 642.623 201.258 642.623 202.639ZM660.953 208V201.076C660.953 200.204 660.755 199.553 660.357 199.123C659.96 198.693 659.339 198.479 658.492 198.479C657.372 198.479 656.552 198.781 656.031 199.387C655.51 199.992 655.25 200.992 655.25 202.385V208H653.629V197.297H654.947L655.211 198.762H655.289C655.621 198.234 656.087 197.827 656.686 197.541C657.285 197.248 657.952 197.102 658.688 197.102C659.977 197.102 660.947 197.414 661.598 198.039C662.249 198.658 662.574 199.65 662.574 201.018V208H660.953ZM667.535 208H665.914V192.805H667.535V208ZM672.594 208H670.973V197.297H672.594V208ZM670.836 194.396C670.836 194.025 670.927 193.755 671.109 193.586C671.292 193.41 671.52 193.322 671.793 193.322C672.053 193.322 672.278 193.41 672.467 193.586C672.656 193.762 672.75 194.032 672.75 194.396C672.75 194.761 672.656 195.035 672.467 195.217C672.278 195.393 672.053 195.48 671.793 195.48C671.52 195.48 671.292 195.393 671.109 195.217C670.927 195.035 670.836 194.761 670.836 194.396ZM683.355 208V201.076C683.355 200.204 683.157 199.553 682.76 199.123C682.363 198.693 681.741 198.479 680.895 198.479C679.775 198.479 678.954 198.781 678.434 199.387C677.913 199.992 677.652 200.992 677.652 202.385V208H676.031V197.297H677.35L677.613 198.762H677.691C678.023 198.234 678.489 197.827 679.088 197.541C679.687 197.248 680.354 197.102 681.09 197.102C682.379 197.102 683.349 197.414 684 198.039C684.651 198.658 684.977 199.65 684.977 201.018V208H683.355ZM692.838 208.195C691.256 208.195 690.006 207.714 689.088 206.75C688.176 205.786 687.721 204.449 687.721 202.736C687.721 201.011 688.144 199.641 688.99 198.625C689.843 197.609 690.986 197.102 692.418 197.102C693.759 197.102 694.82 197.544 695.602 198.43C696.383 199.309 696.773 200.471 696.773 201.916V202.941H689.4C689.433 204.198 689.749 205.152 690.348 205.803C690.953 206.454 691.803 206.779 692.896 206.779C694.049 206.779 695.188 206.538 696.314 206.057V207.502C695.742 207.749 695.198 207.925 694.684 208.029C694.176 208.14 693.561 208.195 692.838 208.195ZM692.398 198.459C691.539 198.459 690.852 198.739 690.338 199.299C689.83 199.859 689.531 200.633 689.439 201.623H695.035C695.035 200.601 694.807 199.82 694.352 199.279C693.896 198.732 693.245 198.459 692.398 198.459Z" fill="black"/>
<path opacity="0.4" d="M897.617 103.16C897.617 112.079 894.915 119.664 889.512 125.914C884.108 132.164 876.523 136.461 866.758 138.805V139.391C878.281 140.823 887.005 144.339 892.93 149.938C898.854 155.471 901.816 162.958 901.816 172.398C901.816 186.135 896.836 196.845 886.875 204.527C876.914 212.145 862.689 215.953 844.199 215.953C828.704 215.953 814.967 213.382 802.988 208.238V182.555C808.522 185.354 814.609 187.633 821.25 189.391C827.891 191.148 834.466 192.027 840.977 192.027C850.938 192.027 858.294 190.335 863.047 186.949C867.799 183.564 870.176 178.128 870.176 170.641C870.176 163.935 867.441 159.182 861.973 156.383C856.504 153.583 847.78 152.184 835.801 152.184H824.961V129.039H835.996C847.064 129.039 855.137 127.607 860.215 124.742C865.358 121.812 867.93 116.832 867.93 109.801C867.93 98.9935 861.159 93.5898 847.617 93.5898C842.93 93.5898 838.145 94.3711 833.262 95.9336C828.444 97.4961 823.073 100.198 817.148 104.039L803.184 83.2383C816.204 73.8633 831.732 69.1758 849.766 69.1758C864.544 69.1758 876.198 72.1706 884.727 78.1602C893.32 84.1497 897.617 92.4831 897.617 103.16Z" fill="#7EC9FF"/>
<path d="M861.076 141.002C859.507 141.002 858.267 141.526 857.355 142.574C856.451 143.616 855.998 145.045 855.998 146.861C855.998 148.73 856.434 150.175 857.307 151.197C858.186 152.213 859.436 152.721 861.057 152.721C862.053 152.721 863.189 152.542 864.465 152.184V153.639C863.475 154.01 862.255 154.195 860.803 154.195C858.7 154.195 857.076 153.557 855.93 152.281C854.79 151.005 854.221 149.192 854.221 146.842C854.221 145.37 854.494 144.081 855.041 142.975C855.594 141.868 856.389 141.015 857.424 140.416C858.465 139.817 859.689 139.518 861.096 139.518C862.593 139.518 863.902 139.791 865.021 140.338L864.318 141.764C863.238 141.256 862.157 141.002 861.076 141.002ZM876.574 148.639C876.574 150.383 876.135 151.747 875.256 152.73C874.377 153.707 873.163 154.195 871.613 154.195C870.656 154.195 869.807 153.971 869.064 153.521C868.322 153.072 867.749 152.428 867.346 151.588C866.942 150.748 866.74 149.765 866.74 148.639C866.74 146.894 867.176 145.536 868.049 144.566C868.921 143.59 870.132 143.102 871.682 143.102C873.179 143.102 874.367 143.6 875.246 144.596C876.132 145.592 876.574 146.939 876.574 148.639ZM868.42 148.639C868.42 150.006 868.693 151.048 869.24 151.764C869.787 152.48 870.591 152.838 871.652 152.838C872.714 152.838 873.518 152.483 874.064 151.773C874.618 151.057 874.895 150.012 874.895 148.639C874.895 147.278 874.618 146.246 874.064 145.543C873.518 144.833 872.707 144.479 871.633 144.479C870.572 144.479 869.771 144.827 869.23 145.523C868.69 146.22 868.42 147.258 868.42 148.639ZM886.75 154V147.076C886.75 146.204 886.551 145.553 886.154 145.123C885.757 144.693 885.135 144.479 884.289 144.479C883.169 144.479 882.349 144.781 881.828 145.387C881.307 145.992 881.047 146.992 881.047 148.385V154H879.426V143.297H880.744L881.008 144.762H881.086C881.418 144.234 881.883 143.827 882.482 143.541C883.081 143.248 883.749 143.102 884.484 143.102C885.773 143.102 886.743 143.414 887.395 144.039C888.046 144.658 888.371 145.65 888.371 147.018V154H886.75ZM895.168 152.857C895.454 152.857 895.731 152.838 895.998 152.799C896.265 152.753 896.477 152.708 896.633 152.662V153.902C896.457 153.987 896.197 154.055 895.852 154.107C895.513 154.166 895.207 154.195 894.934 154.195C892.863 154.195 891.828 153.105 891.828 150.924V144.557H890.295V143.775L891.828 143.102L892.512 140.816H893.449V143.297H896.555V144.557H893.449V150.855C893.449 151.5 893.602 151.995 893.908 152.34C894.214 152.685 894.634 152.857 895.168 152.857ZM900.402 154H898.781V143.297H900.402V154ZM898.645 140.396C898.645 140.025 898.736 139.755 898.918 139.586C899.1 139.41 899.328 139.322 899.602 139.322C899.862 139.322 900.087 139.41 900.275 139.586C900.464 139.762 900.559 140.032 900.559 140.396C900.559 140.761 900.464 141.035 900.275 141.217C900.087 141.393 899.862 141.48 899.602 141.48C899.328 141.48 899.1 141.393 898.918 141.217C898.736 141.035 898.645 140.761 898.645 140.396ZM911.164 154V147.076C911.164 146.204 910.965 145.553 910.568 145.123C910.171 144.693 909.549 144.479 908.703 144.479C907.583 144.479 906.763 144.781 906.242 145.387C905.721 145.992 905.461 146.992 905.461 148.385V154H903.84V143.297H905.158L905.422 144.762H905.5C905.832 144.234 906.298 143.827 906.896 143.541C907.495 143.248 908.163 143.102 908.898 143.102C910.188 143.102 911.158 143.414 911.809 144.039C912.46 144.658 912.785 145.65 912.785 147.018V154H911.164ZM917.648 143.297V150.24C917.648 151.113 917.847 151.764 918.244 152.193C918.641 152.623 919.263 152.838 920.109 152.838C921.229 152.838 922.046 152.532 922.561 151.92C923.081 151.308 923.342 150.309 923.342 148.922V143.297H924.963V154H923.625L923.391 152.564H923.303C922.971 153.092 922.508 153.495 921.916 153.775C921.33 154.055 920.66 154.195 919.904 154.195C918.602 154.195 917.626 153.886 916.975 153.268C916.33 152.649 916.008 151.66 916.008 150.299V143.297H917.648ZM932.932 154.195C931.35 154.195 930.1 153.714 929.182 152.75C928.27 151.786 927.814 150.449 927.814 148.736C927.814 147.011 928.238 145.641 929.084 144.625C929.937 143.609 931.079 143.102 932.512 143.102C933.853 143.102 934.914 143.544 935.695 144.43C936.477 145.309 936.867 146.471 936.867 147.916V148.941H929.494C929.527 150.198 929.842 151.152 930.441 151.803C931.047 152.454 931.896 152.779 932.99 152.779C934.143 152.779 935.282 152.538 936.408 152.057V153.502C935.835 153.749 935.292 153.925 934.777 154.029C934.27 154.14 933.654 154.195 932.932 154.195ZM932.492 144.459C931.633 144.459 930.946 144.739 930.432 145.299C929.924 145.859 929.624 146.633 929.533 147.623H935.129C935.129 146.601 934.901 145.82 934.445 145.279C933.99 144.732 933.339 144.459 932.492 144.459ZM946.545 151.08C946.545 152.076 946.174 152.844 945.432 153.385C944.689 153.925 943.648 154.195 942.307 154.195C940.887 154.195 939.781 153.971 938.986 153.521V152.018C939.501 152.278 940.051 152.483 940.637 152.633C941.229 152.783 941.799 152.857 942.346 152.857C943.192 152.857 943.843 152.724 944.299 152.457C944.755 152.184 944.982 151.77 944.982 151.217C944.982 150.8 944.8 150.445 944.436 150.152C944.077 149.853 943.374 149.501 942.326 149.098C941.33 148.727 940.62 148.404 940.197 148.131C939.781 147.851 939.468 147.535 939.26 147.184C939.058 146.832 938.957 146.412 938.957 145.924C938.957 145.051 939.312 144.365 940.021 143.863C940.731 143.355 941.704 143.102 942.941 143.102C944.094 143.102 945.22 143.336 946.32 143.805L945.744 145.123C944.67 144.68 943.697 144.459 942.824 144.459C942.056 144.459 941.477 144.579 941.086 144.82C940.695 145.061 940.5 145.393 940.5 145.816C940.5 146.103 940.572 146.347 940.715 146.549C940.865 146.751 941.102 146.943 941.428 147.125C941.753 147.307 942.378 147.571 943.303 147.916C944.572 148.378 945.428 148.844 945.871 149.312C946.32 149.781 946.545 150.37 946.545 151.08ZM957.844 152.857C958.13 152.857 958.407 152.838 958.674 152.799C958.941 152.753 959.152 152.708 959.309 152.662V153.902C959.133 153.987 958.872 154.055 958.527 154.107C958.189 154.166 957.883 154.195 957.609 154.195C955.539 154.195 954.504 153.105 954.504 150.924V144.557H952.971V143.775L954.504 143.102L955.188 140.816H956.125V143.297H959.23V144.557H956.125V150.855C956.125 151.5 956.278 151.995 956.584 152.34C956.89 152.685 957.31 152.857 957.844 152.857ZM970.695 148.639C970.695 150.383 970.256 151.747 969.377 152.73C968.498 153.707 967.284 154.195 965.734 154.195C964.777 154.195 963.928 153.971 963.186 153.521C962.443 153.072 961.87 152.428 961.467 151.588C961.063 150.748 960.861 149.765 960.861 148.639C960.861 146.894 961.298 145.536 962.17 144.566C963.042 143.59 964.253 143.102 965.803 143.102C967.3 143.102 968.488 143.6 969.367 144.596C970.253 145.592 970.695 146.939 970.695 148.639ZM962.541 148.639C962.541 150.006 962.814 151.048 963.361 151.764C963.908 152.48 964.712 152.838 965.773 152.838C966.835 152.838 967.639 152.483 968.186 151.773C968.739 151.057 969.016 150.012 969.016 148.639C969.016 147.278 968.739 146.246 968.186 145.543C967.639 144.833 966.828 144.479 965.754 144.479C964.693 144.479 963.892 144.827 963.352 145.523C962.811 146.22 962.541 147.258 962.541 148.639ZM856.34 181H854.719V165.805H856.34V181ZM864.299 181.195C862.717 181.195 861.467 180.714 860.549 179.75C859.637 178.786 859.182 177.449 859.182 175.736C859.182 174.011 859.605 172.641 860.451 171.625C861.304 170.609 862.447 170.102 863.879 170.102C865.22 170.102 866.281 170.544 867.062 171.43C867.844 172.309 868.234 173.471 868.234 174.916V175.941H860.861C860.894 177.198 861.21 178.152 861.809 178.803C862.414 179.454 863.264 179.779 864.357 179.779C865.51 179.779 866.649 179.538 867.775 179.057V180.502C867.202 180.749 866.659 180.925 866.145 181.029C865.637 181.14 865.021 181.195 864.299 181.195ZM863.859 171.459C863 171.459 862.313 171.739 861.799 172.299C861.291 172.859 860.992 173.633 860.9 174.623H866.496C866.496 173.601 866.268 172.82 865.812 172.279C865.357 171.732 864.706 171.459 863.859 171.459ZM877.59 181L877.268 179.477H877.189C876.656 180.147 876.122 180.603 875.588 180.844C875.061 181.078 874.4 181.195 873.605 181.195C872.544 181.195 871.711 180.922 871.105 180.375C870.507 179.828 870.207 179.05 870.207 178.041C870.207 175.88 871.936 174.747 875.393 174.643L877.209 174.584V173.92C877.209 173.08 877.027 172.462 876.662 172.064C876.304 171.661 875.728 171.459 874.934 171.459C874.042 171.459 873.033 171.732 871.906 172.279L871.408 171.039C871.936 170.753 872.512 170.528 873.137 170.365C873.768 170.202 874.4 170.121 875.031 170.121C876.307 170.121 877.251 170.404 877.863 170.971C878.482 171.537 878.791 172.445 878.791 173.695V181H877.59ZM873.928 179.857C874.937 179.857 875.728 179.581 876.301 179.027C876.88 178.474 877.17 177.699 877.17 176.703V175.736L875.549 175.805C874.26 175.85 873.329 176.052 872.756 176.41C872.189 176.762 871.906 177.312 871.906 178.061C871.906 178.646 872.082 179.092 872.434 179.398C872.792 179.704 873.29 179.857 873.928 179.857ZM887.023 170.102C887.499 170.102 887.925 170.141 888.303 170.219L888.078 171.723C887.635 171.625 887.245 171.576 886.906 171.576C886.04 171.576 885.298 171.928 884.68 172.631C884.068 173.334 883.762 174.21 883.762 175.258V181H882.141V170.297H883.479L883.664 172.279H883.742C884.139 171.583 884.618 171.046 885.178 170.668C885.738 170.29 886.353 170.102 887.023 170.102ZM897.629 181V174.076C897.629 173.204 897.43 172.553 897.033 172.123C896.636 171.693 896.014 171.479 895.168 171.479C894.048 171.479 893.228 171.781 892.707 172.387C892.186 172.992 891.926 173.992 891.926 175.385V181H890.305V170.297H891.623L891.887 171.762H891.965C892.297 171.234 892.762 170.827 893.361 170.541C893.96 170.248 894.628 170.102 895.363 170.102C896.652 170.102 897.622 170.414 898.273 171.039C898.924 171.658 899.25 172.65 899.25 174.018V181H897.629ZM912.766 181.195C912.069 181.195 911.431 181.068 910.852 180.814C910.279 180.554 909.797 180.157 909.406 179.623H909.289C909.367 180.248 909.406 180.84 909.406 181.4V185.805H907.785V170.297H909.104L909.328 171.762H909.406C909.823 171.176 910.308 170.753 910.861 170.492C911.415 170.232 912.049 170.102 912.766 170.102C914.185 170.102 915.279 170.587 916.047 171.557C916.822 172.527 917.209 173.887 917.209 175.639C917.209 177.396 916.815 178.764 916.027 179.74C915.246 180.71 914.159 181.195 912.766 181.195ZM912.531 171.479C911.438 171.479 910.646 171.781 910.158 172.387C909.67 172.992 909.419 173.956 909.406 175.277V175.639C909.406 177.143 909.657 178.22 910.158 178.871C910.66 179.516 911.464 179.838 912.57 179.838C913.495 179.838 914.217 179.464 914.738 178.715C915.266 177.966 915.529 176.934 915.529 175.619C915.529 174.285 915.266 173.262 914.738 172.553C914.217 171.837 913.482 171.479 912.531 171.479ZM924.934 170.102C925.409 170.102 925.835 170.141 926.213 170.219L925.988 171.723C925.546 171.625 925.155 171.576 924.816 171.576C923.951 171.576 923.208 171.928 922.59 172.631C921.978 173.334 921.672 174.21 921.672 175.258V181H920.051V170.297H921.389L921.574 172.279H921.652C922.049 171.583 922.528 171.046 923.088 170.668C923.648 170.29 924.263 170.102 924.934 170.102ZM932.736 181.195C931.154 181.195 929.904 180.714 928.986 179.75C928.075 178.786 927.619 177.449 927.619 175.736C927.619 174.011 928.042 172.641 928.889 171.625C929.742 170.609 930.884 170.102 932.316 170.102C933.658 170.102 934.719 170.544 935.5 171.43C936.281 172.309 936.672 173.471 936.672 174.916V175.941H929.299C929.331 177.198 929.647 178.152 930.246 178.803C930.852 179.454 931.701 179.779 932.795 179.779C933.947 179.779 935.087 179.538 936.213 179.057V180.502C935.64 180.749 935.096 180.925 934.582 181.029C934.074 181.14 933.459 181.195 932.736 181.195ZM932.297 171.459C931.438 171.459 930.751 171.739 930.236 172.299C929.729 172.859 929.429 173.633 929.338 174.623H934.934C934.934 173.601 934.706 172.82 934.25 172.279C933.794 171.732 933.143 171.459 932.297 171.459ZM944.27 171.557H941.545V181H939.924V171.557H938.01V170.824L939.924 170.238V169.643C939.924 167.012 941.073 165.697 943.371 165.697C943.938 165.697 944.602 165.811 945.363 166.039L944.943 167.338C944.318 167.136 943.785 167.035 943.342 167.035C942.73 167.035 942.277 167.24 941.984 167.65C941.691 168.054 941.545 168.705 941.545 169.604V170.297H944.27V171.557ZM950.744 181.195C949.162 181.195 947.912 180.714 946.994 179.75C946.083 178.786 945.627 177.449 945.627 175.736C945.627 174.011 946.05 172.641 946.896 171.625C947.749 170.609 948.892 170.102 950.324 170.102C951.665 170.102 952.727 170.544 953.508 171.43C954.289 172.309 954.68 173.471 954.68 174.916V175.941H947.307C947.339 177.198 947.655 178.152 948.254 178.803C948.859 179.454 949.709 179.779 950.803 179.779C951.955 179.779 953.094 179.538 954.221 179.057V180.502C953.648 180.749 953.104 180.925 952.59 181.029C952.082 181.14 951.467 181.195 950.744 181.195ZM950.305 171.459C949.445 171.459 948.758 171.739 948.244 172.299C947.736 172.859 947.437 173.633 947.346 174.623H952.941C952.941 173.601 952.714 172.82 952.258 172.279C951.802 171.732 951.151 171.459 950.305 171.459ZM962.336 170.102C962.811 170.102 963.238 170.141 963.615 170.219L963.391 171.723C962.948 171.625 962.557 171.576 962.219 171.576C961.353 171.576 960.611 171.928 959.992 172.631C959.38 173.334 959.074 174.21 959.074 175.258V181H957.453V170.297H958.791L958.977 172.279H959.055C959.452 171.583 959.93 171.046 960.49 170.668C961.05 170.29 961.665 170.102 962.336 170.102ZM970.139 181.195C968.557 181.195 967.307 180.714 966.389 179.75C965.477 178.786 965.021 177.449 965.021 175.736C965.021 174.011 965.445 172.641 966.291 171.625C967.144 170.609 968.286 170.102 969.719 170.102C971.06 170.102 972.121 170.544 972.902 171.43C973.684 172.309 974.074 173.471 974.074 174.916V175.941H966.701C966.734 177.198 967.049 178.152 967.648 178.803C968.254 179.454 969.104 179.779 970.197 179.779C971.35 179.779 972.489 179.538 973.615 179.057V180.502C973.042 180.749 972.499 180.925 971.984 181.029C971.477 181.14 970.861 181.195 970.139 181.195ZM969.699 171.459C968.84 171.459 968.153 171.739 967.639 172.299C967.131 172.859 966.831 173.633 966.74 174.623H972.336C972.336 173.601 972.108 172.82 971.652 172.279C971.197 171.732 970.546 171.459 969.699 171.459ZM984.172 181V174.076C984.172 173.204 983.973 172.553 983.576 172.123C983.179 171.693 982.557 171.479 981.711 171.479C980.591 171.479 979.771 171.781 979.25 172.387C978.729 172.992 978.469 173.992 978.469 175.385V181H976.848V170.297H978.166L978.43 171.762H978.508C978.84 171.234 979.305 170.827 979.904 170.541C980.503 170.248 981.171 170.102 981.906 170.102C983.195 170.102 984.165 170.414 984.816 171.039C985.467 171.658 985.793 172.65 985.793 174.018V181H984.172ZM993.41 181.195C991.861 181.195 990.66 180.72 989.807 179.77C988.96 178.812 988.537 177.462 988.537 175.717C988.537 173.926 988.967 172.543 989.826 171.566C990.692 170.59 991.923 170.102 993.518 170.102C994.032 170.102 994.546 170.157 995.061 170.268C995.575 170.378 995.979 170.508 996.271 170.658L995.773 172.035C995.415 171.892 995.025 171.775 994.602 171.684C994.178 171.586 993.804 171.537 993.479 171.537C991.304 171.537 990.217 172.924 990.217 175.697C990.217 177.012 990.48 178.021 991.008 178.725C991.542 179.428 992.329 179.779 993.371 179.779C994.263 179.779 995.178 179.587 996.115 179.203V180.639C995.399 181.01 994.497 181.195 993.41 181.195ZM1003.19 181.195C1001.6 181.195 1000.35 180.714 999.436 179.75C998.524 178.786 998.068 177.449 998.068 175.736C998.068 174.011 998.492 172.641 999.338 171.625C1000.19 170.609 1001.33 170.102 1002.77 170.102C1004.11 170.102 1005.17 170.544 1005.95 171.43C1006.73 172.309 1007.12 173.471 1007.12 174.916V175.941H999.748C999.781 177.198 1000.1 178.152 1000.7 178.803C1001.3 179.454 1002.15 179.779 1003.24 179.779C1004.4 179.779 1005.54 179.538 1006.66 179.057V180.502C1006.09 180.749 1005.55 180.925 1005.03 181.029C1004.52 181.14 1003.91 181.195 1003.19 181.195ZM1002.75 171.459C1001.89 171.459 1001.2 171.739 1000.69 172.299C1000.18 172.859 999.878 173.633 999.787 174.623H1005.38C1005.38 173.601 1005.15 172.82 1004.7 172.279C1004.24 171.732 1003.59 171.459 1002.75 171.459ZM1016.8 178.08C1016.8 179.076 1016.43 179.844 1015.69 180.385C1014.94 180.925 1013.9 181.195 1012.56 181.195C1011.14 181.195 1010.03 180.971 1009.24 180.521V179.018C1009.75 179.278 1010.3 179.483 1010.89 179.633C1011.48 179.783 1012.05 179.857 1012.6 179.857C1013.45 179.857 1014.1 179.724 1014.55 179.457C1015.01 179.184 1015.24 178.77 1015.24 178.217C1015.24 177.8 1015.05 177.445 1014.69 177.152C1014.33 176.853 1013.63 176.501 1012.58 176.098C1011.58 175.727 1010.87 175.404 1010.45 175.131C1010.03 174.851 1009.72 174.535 1009.51 174.184C1009.31 173.832 1009.21 173.412 1009.21 172.924C1009.21 172.051 1009.57 171.365 1010.28 170.863C1010.99 170.355 1011.96 170.102 1013.2 170.102C1014.35 170.102 1015.47 170.336 1016.57 170.805L1016 172.123C1014.92 171.68 1013.95 171.459 1013.08 171.459C1012.31 171.459 1011.73 171.579 1011.34 171.82C1010.95 172.061 1010.75 172.393 1010.75 172.816C1010.75 173.103 1010.83 173.347 1010.97 173.549C1011.12 173.751 1011.36 173.943 1011.68 174.125C1012.01 174.307 1012.63 174.571 1013.56 174.916C1014.83 175.378 1015.68 175.844 1016.12 176.312C1016.57 176.781 1016.8 177.37 1016.8 178.08ZM863.957 202.639C863.957 204.383 863.518 205.747 862.639 206.73C861.76 207.707 860.546 208.195 858.996 208.195C858.039 208.195 857.189 207.971 856.447 207.521C855.705 207.072 855.132 206.428 854.729 205.588C854.325 204.748 854.123 203.765 854.123 202.639C854.123 200.894 854.559 199.536 855.432 198.566C856.304 197.59 857.515 197.102 859.064 197.102C860.562 197.102 861.75 197.6 862.629 198.596C863.514 199.592 863.957 200.939 863.957 202.639ZM855.803 202.639C855.803 204.006 856.076 205.048 856.623 205.764C857.17 206.48 857.974 206.838 859.035 206.838C860.096 206.838 860.9 206.483 861.447 205.773C862.001 205.057 862.277 204.012 862.277 202.639C862.277 201.278 862.001 200.246 861.447 199.543C860.9 198.833 860.09 198.479 859.016 198.479C857.954 198.479 857.154 198.827 856.613 199.523C856.073 200.22 855.803 201.258 855.803 202.639ZM871.633 198.557H868.908V208H867.287V198.557H865.373V197.824L867.287 197.238V196.643C867.287 194.012 868.436 192.697 870.734 192.697C871.301 192.697 871.965 192.811 872.727 193.039L872.307 194.338C871.682 194.136 871.148 194.035 870.705 194.035C870.093 194.035 869.641 194.24 869.348 194.65C869.055 195.054 868.908 195.705 868.908 196.604V197.297H871.633V198.557ZM882.238 206.857C882.525 206.857 882.801 206.838 883.068 206.799C883.335 206.753 883.547 206.708 883.703 206.662V207.902C883.527 207.987 883.267 208.055 882.922 208.107C882.583 208.166 882.277 208.195 882.004 208.195C879.934 208.195 878.898 207.105 878.898 204.924V198.557H877.365V197.775L878.898 197.102L879.582 194.816H880.52V197.297H883.625V198.557H880.52V204.855C880.52 205.5 880.673 205.995 880.979 206.34C881.285 206.685 881.704 206.857 882.238 206.857ZM893.176 208V201.076C893.176 200.204 892.977 199.553 892.58 199.123C892.183 198.693 891.561 198.479 890.715 198.479C889.589 198.479 888.765 198.785 888.244 199.396C887.73 200.008 887.473 201.011 887.473 202.404V208H885.852V192.805H887.473V197.404C887.473 197.958 887.447 198.417 887.395 198.781H887.492C887.811 198.267 888.264 197.863 888.85 197.57C889.442 197.271 890.116 197.121 890.871 197.121C892.18 197.121 893.16 197.434 893.811 198.059C894.468 198.677 894.797 199.663 894.797 201.018V208H893.176ZM902.658 208.195C901.076 208.195 899.826 207.714 898.908 206.75C897.997 205.786 897.541 204.449 897.541 202.736C897.541 201.011 897.964 199.641 898.811 198.625C899.663 197.609 900.806 197.102 902.238 197.102C903.579 197.102 904.641 197.544 905.422 198.43C906.203 199.309 906.594 200.471 906.594 201.916V202.941H899.221C899.253 204.198 899.569 205.152 900.168 205.803C900.773 206.454 901.623 206.779 902.717 206.779C903.869 206.779 905.008 206.538 906.135 206.057V207.502C905.562 207.749 905.018 207.925 904.504 208.029C903.996 208.14 903.381 208.195 902.658 208.195ZM902.219 198.459C901.359 198.459 900.673 198.739 900.158 199.299C899.65 199.859 899.351 200.633 899.26 201.623H904.855C904.855 200.601 904.628 199.82 904.172 199.279C903.716 198.732 903.065 198.459 902.219 198.459ZM916.086 197.297V204.24C916.086 205.113 916.285 205.764 916.682 206.193C917.079 206.623 917.701 206.838 918.547 206.838C919.667 206.838 920.484 206.532 920.998 205.92C921.519 205.308 921.779 204.309 921.779 202.922V197.297H923.4V208H922.062L921.828 206.564H921.74C921.408 207.092 920.946 207.495 920.354 207.775C919.768 208.055 919.097 208.195 918.342 208.195C917.04 208.195 916.063 207.886 915.412 207.268C914.768 206.649 914.445 205.66 914.445 204.299V197.297H916.086ZM933.752 205.08C933.752 206.076 933.381 206.844 932.639 207.385C931.896 207.925 930.855 208.195 929.514 208.195C928.094 208.195 926.988 207.971 926.193 207.521V206.018C926.708 206.278 927.258 206.483 927.844 206.633C928.436 206.783 929.006 206.857 929.553 206.857C930.399 206.857 931.05 206.724 931.506 206.457C931.962 206.184 932.189 205.77 932.189 205.217C932.189 204.8 932.007 204.445 931.643 204.152C931.285 203.853 930.581 203.501 929.533 203.098C928.537 202.727 927.827 202.404 927.404 202.131C926.988 201.851 926.675 201.535 926.467 201.184C926.265 200.832 926.164 200.412 926.164 199.924C926.164 199.051 926.519 198.365 927.229 197.863C927.938 197.355 928.911 197.102 930.148 197.102C931.301 197.102 932.427 197.336 933.527 197.805L932.951 199.123C931.877 198.68 930.904 198.459 930.031 198.459C929.263 198.459 928.684 198.579 928.293 198.82C927.902 199.061 927.707 199.393 927.707 199.816C927.707 200.103 927.779 200.347 927.922 200.549C928.072 200.751 928.309 200.943 928.635 201.125C928.96 201.307 929.585 201.571 930.51 201.916C931.779 202.378 932.635 202.844 933.078 203.312C933.527 203.781 933.752 204.37 933.752 205.08ZM940.92 208.195C939.338 208.195 938.088 207.714 937.17 206.75C936.258 205.786 935.803 204.449 935.803 202.736C935.803 201.011 936.226 199.641 937.072 198.625C937.925 197.609 939.068 197.102 940.5 197.102C941.841 197.102 942.902 197.544 943.684 198.43C944.465 199.309 944.855 200.471 944.855 201.916V202.941H937.482C937.515 204.198 937.831 205.152 938.43 205.803C939.035 206.454 939.885 206.779 940.979 206.779C942.131 206.779 943.27 206.538 944.396 206.057V207.502C943.824 207.749 943.28 207.925 942.766 208.029C942.258 208.14 941.643 208.195 940.92 208.195ZM940.48 198.459C939.621 198.459 938.934 198.739 938.42 199.299C937.912 199.859 937.613 200.633 937.521 201.623H943.117C943.117 200.601 942.889 199.82 942.434 199.279C941.978 198.732 941.327 198.459 940.48 198.459ZM952.512 197.102C952.987 197.102 953.413 197.141 953.791 197.219L953.566 198.723C953.124 198.625 952.733 198.576 952.395 198.576C951.529 198.576 950.786 198.928 950.168 199.631C949.556 200.334 949.25 201.21 949.25 202.258V208H947.629V197.297H948.967L949.152 199.279H949.23C949.628 198.583 950.106 198.046 950.666 197.668C951.226 197.29 951.841 197.102 952.512 197.102Z" fill="black"/>
</svg>
