<svg width="308" height="282" viewBox="0 0 308 282" fill="none" xmlns="http://www.w3.org/2000/svg">
<g filter="url(#filter0_d)">
<rect x="4" width="300" height="274" rx="10" fill="#D2E4FF"/>
</g>
<path d="M103.158 135.625L106.877 144.906L110.595 135.625H112.541V147H111.041V142.57L111.181 137.789L107.447 147H106.298L102.572 137.812L102.72 142.57V147H101.22V135.625H103.158ZM134.179 141.68C134.179 142.794 133.992 143.768 133.617 144.602C133.242 145.43 132.71 146.062 132.023 146.5C131.335 146.938 130.533 147.156 129.617 147.156C128.721 147.156 127.926 146.938 127.234 146.5C126.541 146.057 126.002 145.43 125.617 144.617C125.236 143.799 125.041 142.854 125.031 141.781V140.961C125.031 139.867 125.221 138.901 125.601 138.062C125.981 137.224 126.518 136.583 127.21 136.141C127.908 135.693 128.705 135.469 129.601 135.469C130.512 135.469 131.314 135.69 132.007 136.133C132.705 136.57 133.242 137.208 133.617 138.047C133.992 138.88 134.179 139.852 134.179 140.961V141.68ZM132.687 140.945C132.687 139.596 132.416 138.562 131.874 137.844C131.333 137.12 130.575 136.758 129.601 136.758C128.653 136.758 127.906 137.12 127.359 137.844C126.817 138.562 126.538 139.562 126.523 140.844V141.68C126.523 142.987 126.796 144.016 127.343 144.766C127.895 145.51 128.653 145.883 129.617 145.883C130.585 145.883 131.335 145.531 131.867 144.828C132.398 144.12 132.671 143.107 132.687 141.789V140.945ZM146.669 147V135.625H150.388C151.622 135.625 152.549 135.88 153.169 136.391C153.794 136.901 154.107 137.656 154.107 138.656C154.107 139.188 153.956 139.659 153.653 140.07C153.351 140.477 152.94 140.792 152.419 141.016C153.034 141.188 153.518 141.516 153.872 142C154.232 142.479 154.411 143.052 154.411 143.719C154.411 144.74 154.081 145.542 153.419 146.125C152.758 146.708 151.823 147 150.614 147H146.669ZM148.169 141.68V145.773H150.646C151.344 145.773 151.893 145.594 152.294 145.234C152.7 144.87 152.903 144.37 152.903 143.734C152.903 142.365 152.159 141.68 150.669 141.68H148.169ZM148.169 140.477H150.435C151.091 140.477 151.614 140.312 152.005 139.984C152.401 139.656 152.599 139.211 152.599 138.648C152.599 138.023 152.416 137.57 152.052 137.289C151.687 137.003 151.133 136.859 150.388 136.859H148.169V140.477ZM168.487 147H166.987V135.625H168.487V147ZM182.985 145.773H188.376V147H181.477V135.625H182.985V145.773ZM206.756 141.742H201.827V145.773H207.553V147H200.327V135.625H207.475V136.859H201.827V140.516H206.756V141.742ZM101.838 170V158.625H105.048C106.038 158.625 106.913 158.844 107.673 159.281C108.434 159.719 109.02 160.341 109.431 161.148C109.848 161.956 110.059 162.883 110.064 163.93V164.656C110.064 165.729 109.856 166.669 109.439 167.477C109.028 168.284 108.436 168.904 107.666 169.336C106.9 169.768 106.007 169.99 104.986 170H101.838ZM103.338 159.859V168.773H104.916C106.072 168.773 106.97 168.414 107.611 167.695C108.257 166.977 108.58 165.953 108.58 164.625V163.961C108.58 162.669 108.275 161.667 107.666 160.953C107.061 160.234 106.202 159.87 105.088 159.859H103.338ZM129.007 164.742H124.077V168.773H129.804V170H122.577V158.625H129.726V159.859H124.077V163.516H129.007V164.742ZM145.263 164.93C143.976 164.56 143.039 164.107 142.45 163.57C141.867 163.029 141.575 162.362 141.575 161.57C141.575 160.674 141.932 159.935 142.646 159.352C143.364 158.763 144.297 158.469 145.443 158.469C146.224 158.469 146.919 158.62 147.528 158.922C148.143 159.224 148.617 159.641 148.95 160.172C149.289 160.703 149.458 161.284 149.458 161.914H147.95C147.95 161.227 147.732 160.688 147.294 160.297C146.857 159.901 146.239 159.703 145.443 159.703C144.703 159.703 144.125 159.867 143.708 160.195C143.297 160.518 143.091 160.969 143.091 161.547C143.091 162.01 143.286 162.404 143.677 162.727C144.073 163.044 144.742 163.336 145.685 163.602C146.633 163.867 147.372 164.161 147.903 164.484C148.44 164.802 148.836 165.174 149.091 165.602C149.351 166.029 149.482 166.531 149.482 167.109C149.482 168.031 149.122 168.771 148.403 169.328C147.685 169.88 146.724 170.156 145.521 170.156C144.739 170.156 144.01 170.008 143.333 169.711C142.656 169.409 142.133 168.997 141.763 168.477C141.398 167.956 141.216 167.365 141.216 166.703H142.724C142.724 167.391 142.976 167.935 143.482 168.336C143.992 168.732 144.672 168.93 145.521 168.93C146.312 168.93 146.919 168.768 147.341 168.445C147.763 168.122 147.974 167.682 147.974 167.125C147.974 166.568 147.778 166.138 147.388 165.836C146.997 165.529 146.289 165.227 145.263 164.93ZM163.261 170H161.761V158.625H163.261V170ZM184.649 168.508C184.264 169.06 183.725 169.474 183.032 169.75C182.344 170.021 181.542 170.156 180.626 170.156C179.699 170.156 178.876 169.94 178.157 169.508C177.438 169.07 176.881 168.451 176.485 167.648C176.094 166.846 175.894 165.917 175.883 164.859V163.867C175.883 162.154 176.282 160.826 177.079 159.883C177.881 158.94 179.006 158.469 180.454 158.469C181.641 158.469 182.597 158.773 183.321 159.383C184.045 159.987 184.488 160.846 184.649 161.961H183.149C182.868 160.456 181.972 159.703 180.462 159.703C179.456 159.703 178.693 160.057 178.173 160.766C177.657 161.469 177.396 162.49 177.391 163.828V164.758C177.391 166.034 177.683 167.049 178.266 167.805C178.85 168.555 179.639 168.93 180.633 168.93C181.196 168.93 181.688 168.867 182.11 168.742C182.532 168.617 182.881 168.406 183.157 168.109V165.555H180.524V164.336H184.649V168.508ZM206.139 170H204.631L198.905 161.234V170H197.397V158.625H198.905L204.647 167.43V158.625H206.139V170Z" fill="#444444"/>
<path d="M118.196 104.523H114.711V114H112.367V104.523H108.93V102.625H118.196V104.523ZM123.75 109.836H121.883V114H119.539V102.625H123.766C125.11 102.625 126.146 102.924 126.875 103.523C127.604 104.122 127.969 104.969 127.969 106.062C127.969 106.839 127.8 107.487 127.461 108.008C127.128 108.523 126.62 108.935 125.938 109.242L128.399 113.891V114H125.883L123.75 109.836ZM121.883 107.938H123.774C124.362 107.938 124.818 107.789 125.141 107.492C125.464 107.19 125.625 106.776 125.625 106.25C125.625 105.714 125.472 105.292 125.164 104.984C124.862 104.677 124.396 104.523 123.766 104.523H121.883V107.938ZM136.18 111.656H132.071L131.289 114H128.797L133.031 102.625H135.203L139.461 114H136.969L136.18 111.656ZM132.703 109.758H135.547L134.117 105.5L132.703 109.758ZM146.422 111.016C146.422 110.573 146.266 110.234 145.953 110C145.641 109.76 145.078 109.51 144.266 109.25C143.453 108.984 142.81 108.724 142.336 108.469C141.044 107.771 140.399 106.831 140.399 105.648C140.399 105.034 140.571 104.487 140.914 104.008C141.263 103.523 141.761 103.146 142.406 102.875C143.057 102.604 143.787 102.469 144.594 102.469C145.406 102.469 146.13 102.617 146.766 102.914C147.401 103.206 147.893 103.62 148.242 104.156C148.597 104.693 148.774 105.302 148.774 105.984H146.43C146.43 105.464 146.266 105.06 145.938 104.773C145.61 104.482 145.149 104.336 144.555 104.336C143.982 104.336 143.537 104.458 143.219 104.703C142.901 104.943 142.742 105.26 142.742 105.656C142.742 106.026 142.927 106.336 143.297 106.586C143.672 106.836 144.222 107.07 144.946 107.289C146.279 107.69 147.25 108.188 147.86 108.781C148.469 109.375 148.774 110.115 148.774 111C148.774 111.984 148.401 112.758 147.656 113.32C146.912 113.878 145.909 114.156 144.649 114.156C143.774 114.156 142.977 113.997 142.258 113.68C141.539 113.357 140.99 112.917 140.61 112.359C140.235 111.802 140.047 111.156 140.047 110.422H142.399C142.399 111.677 143.149 112.305 144.649 112.305C145.206 112.305 145.641 112.193 145.953 111.969C146.266 111.74 146.422 111.422 146.422 111.016ZM159.625 114H157.281V109.125H152.711V114H150.367V102.625H152.711V107.234H157.281V102.625H159.625V114ZM170.008 104.523H166.524V114H164.18V104.523H160.742V102.625H170.008V104.523ZM176.836 111.656H172.727L171.946 114H169.453L173.688 102.625H175.86L180.117 114H177.625L176.836 111.656ZM173.36 109.758H176.203L174.774 105.5L173.36 109.758ZM183.524 112.117H188.5V114H181.18V102.625H183.524V112.117ZM193.414 109.438L192.196 110.75V114H189.852V102.625H192.196V107.781L193.227 106.367L196.125 102.625H199.008L194.969 107.68L199.125 114H196.336L193.414 109.438Z" fill="#444444"/>
<defs>
<filter id="filter0_d" x="0" y="0" width="308" height="282" filterUnits="userSpaceOnUse" color-interpolation-filters="sRGB">
<feFlood flood-opacity="0" result="BackgroundImageFix"/>
<feColorMatrix in="SourceAlpha" type="matrix" values="0 0 0 0 0 0 0 0 0 0 0 0 0 0 0 0 0 0 127 0"/>
<feOffset dy="4"/>
<feGaussianBlur stdDeviation="2"/>
<feColorMatrix type="matrix" values="0 0 0 0 0 0 0 0 0 0 0 0 0 0 0 0 0 0 0.25 0"/>
<feBlend mode="normal" in2="BackgroundImageFix" result="effect1_dropShadow"/>
<feBlend mode="normal" in="SourceGraphic" in2="effect1_dropShadow" result="shape"/>
</filter>
</defs>
</svg>
