<svg width="308" height="282" viewBox="0 0 308 282" fill="none" xmlns="http://www.w3.org/2000/svg">
<g filter="url(#filter0_d)">
<rect x="4" width="300" height="274" rx="10" fill="#333333"/>
</g>
<path d="M113.854 147H112.917V138.547H113.854V147ZM112.752 136.102C112.752 135.924 112.81 135.776 112.924 135.656C113.039 135.531 113.195 135.469 113.393 135.469C113.591 135.469 113.747 135.531 113.862 135.656C113.982 135.776 114.042 135.924 114.042 136.102C114.042 136.279 113.982 136.427 113.862 136.547C113.747 136.667 113.591 136.727 113.393 136.727C113.195 136.727 113.039 136.667 112.924 136.547C112.81 136.427 112.752 136.279 112.752 136.102ZM118.932 138.547L118.964 139.922C119.276 139.411 119.667 139.029 120.136 138.773C120.604 138.518 121.125 138.391 121.698 138.391C123.031 138.391 123.878 138.938 124.237 140.031C124.539 139.505 124.943 139.102 125.448 138.82C125.953 138.534 126.511 138.391 127.12 138.391C128.932 138.391 129.857 139.38 129.893 141.359V147H128.956V141.43C128.951 140.674 128.787 140.115 128.464 139.75C128.146 139.385 127.625 139.203 126.901 139.203C126.229 139.214 125.662 139.432 125.198 139.859C124.735 140.281 124.477 140.797 124.425 141.406V147H123.487V141.359C123.482 140.635 123.31 140.096 122.972 139.742C122.638 139.383 122.123 139.203 121.425 139.203C120.836 139.203 120.331 139.372 119.909 139.711C119.487 140.044 119.175 140.542 118.972 141.203V147H118.034V138.547H118.932ZM140.745 142.859C140.745 144.177 140.454 145.224 139.87 146C139.287 146.771 138.506 147.156 137.527 147.156C136.37 147.156 135.485 146.75 134.87 145.938V150.25H133.941V138.547H134.808L134.855 139.742C135.464 138.841 136.347 138.391 137.503 138.391C138.514 138.391 139.305 138.773 139.878 139.539C140.456 140.305 140.745 141.367 140.745 142.727V142.859ZM139.808 142.695C139.808 141.617 139.586 140.766 139.144 140.141C138.701 139.516 138.084 139.203 137.292 139.203C136.719 139.203 136.227 139.341 135.816 139.617C135.404 139.893 135.089 140.294 134.87 140.82V144.875C135.094 145.359 135.415 145.729 135.831 145.984C136.248 146.24 136.74 146.367 137.308 146.367C138.094 146.367 138.706 146.055 139.144 145.43C139.586 144.799 139.808 143.888 139.808 142.695ZM148.41 139.344C148.212 139.307 148.001 139.289 147.777 139.289C147.194 139.289 146.699 139.453 146.292 139.781C145.891 140.104 145.605 140.576 145.433 141.195V147H144.503V138.547H145.417L145.433 139.891C145.928 138.891 146.722 138.391 147.816 138.391C148.076 138.391 148.282 138.424 148.433 138.492L148.41 139.344ZM150.902 142.648C150.902 141.836 151.058 141.104 151.371 140.453C151.689 139.802 152.134 139.297 152.707 138.938C153.285 138.573 153.939 138.391 154.668 138.391C155.793 138.391 156.704 138.786 157.402 139.578C158.1 140.365 158.449 141.409 158.449 142.711V142.906C158.449 143.724 158.29 144.461 157.972 145.117C157.66 145.768 157.217 146.271 156.644 146.625C156.071 146.979 155.418 147.156 154.683 147.156C153.564 147.156 152.652 146.763 151.949 145.977C151.251 145.185 150.902 144.138 150.902 142.836V142.648ZM151.84 142.906C151.84 143.917 152.1 144.747 152.621 145.398C153.147 146.044 153.834 146.367 154.683 146.367C155.527 146.367 156.209 146.044 156.73 145.398C157.256 144.747 157.519 143.891 157.519 142.828V142.648C157.519 142.003 157.4 141.411 157.16 140.875C156.92 140.339 156.584 139.924 156.152 139.633C155.72 139.336 155.225 139.188 154.668 139.188C153.834 139.188 153.155 139.516 152.629 140.172C152.103 140.823 151.84 141.677 151.84 142.734V142.906ZM164.574 145.711L167.145 138.547H168.106L164.949 147H164.192L161.02 138.547H161.981L164.574 145.711ZM172.372 147H171.434V138.547H172.372V147ZM171.27 136.102C171.27 135.924 171.327 135.776 171.442 135.656C171.556 135.531 171.713 135.469 171.911 135.469C172.109 135.469 172.265 135.531 172.379 135.656C172.499 135.776 172.559 135.924 172.559 136.102C172.559 136.279 172.499 136.427 172.379 136.547C172.265 136.667 172.109 136.727 171.911 136.727C171.713 136.727 171.556 136.667 171.442 136.547C171.327 136.427 171.27 136.279 171.27 136.102ZM177.489 138.547L177.52 139.992C177.838 139.471 178.234 139.076 178.708 138.805C179.182 138.529 179.705 138.391 180.278 138.391C181.184 138.391 181.859 138.646 182.302 139.156C182.744 139.667 182.968 140.432 182.973 141.453V147H182.044V141.445C182.039 140.69 181.877 140.128 181.559 139.758C181.247 139.388 180.744 139.203 180.052 139.203C179.473 139.203 178.96 139.385 178.512 139.75C178.07 140.109 177.742 140.596 177.528 141.211V147H176.598V138.547H177.489ZM186.7 142.695C186.7 141.372 186.992 140.326 187.575 139.555C188.164 138.779 188.961 138.391 189.966 138.391C191.117 138.391 191.992 138.849 192.591 139.766L192.638 138.547H193.513V146.828C193.513 147.917 193.208 148.779 192.599 149.414C191.989 150.049 191.164 150.367 190.122 150.367C189.534 150.367 188.971 150.234 188.435 149.969C187.903 149.708 187.484 149.359 187.177 148.922L187.7 148.359C188.362 149.172 189.148 149.578 190.06 149.578C190.841 149.578 191.45 149.346 191.888 148.883C192.325 148.424 192.552 147.786 192.568 146.969V145.906C191.969 146.74 191.096 147.156 189.95 147.156C188.971 147.156 188.185 146.766 187.591 145.984C186.997 145.203 186.7 144.148 186.7 142.82V142.695ZM187.646 142.859C187.646 143.938 187.862 144.789 188.294 145.414C188.726 146.034 189.336 146.344 190.122 146.344C191.273 146.344 192.088 145.828 192.568 144.797V140.867C192.349 140.326 192.034 139.914 191.622 139.633C191.211 139.346 190.716 139.203 190.138 139.203C189.351 139.203 188.739 139.513 188.302 140.133C187.864 140.747 187.646 141.656 187.646 142.859Z" fill="white"/>
<path d="M162.682 59.6426C162.649 59.4084 162.458 59.2178 162.224 59.1848C160.735 58.9752 159.116 59.4805 157.91 60.6858C156.705 61.8912 156.2 63.5106 156.409 64.9993C156.442 65.2335 156.633 65.424 156.867 65.457C158.356 65.6666 159.975 65.1613 161.181 63.956C162.386 62.7507 162.891 61.1313 162.682 59.6426Z" fill="#B4E66E"/>
<path d="M162.681 59.6422C162.665 59.5251 162.609 59.419 162.528 59.3379L156.562 65.3032C156.644 65.3842 156.75 65.4402 156.867 65.4566C158.356 65.6662 159.975 65.1609 161.18 63.9556C162.385 62.7504 162.891 61.1309 162.681 59.6422Z" fill="#A0D755"/>
<path d="M147.998 53.0164C147.715 53.0433 147.493 53.2653 147.466 53.5486C147.361 54.646 147.755 55.8168 148.637 56.6988C149.519 57.5807 150.69 57.9745 151.787 57.8703C152.071 57.8433 152.293 57.6214 152.32 57.3381C152.424 56.2406 152.03 55.0699 151.148 54.1879C150.266 53.3059 149.095 52.9121 147.998 53.0164Z" fill="#B4E66E"/>
<path d="M148.637 56.6989C149.519 57.5809 150.69 57.9747 151.787 57.8705C151.929 57.8571 152.055 57.7949 152.15 57.7006L147.636 53.1865C147.541 53.2808 147.479 53.4071 147.466 53.5488C147.361 54.6462 147.755 55.817 148.637 56.6989Z" fill="#A0D755"/>
<path d="M142.6 62.1962C142.37 62.2353 142.184 62.4214 142.144 62.6521C141.763 64.9002 142.5 67.3771 144.33 69.2071C146.16 71.0371 148.637 71.7735 150.885 71.3925C151.116 71.3534 151.302 71.1673 151.341 70.9367C151.722 68.6886 150.985 66.2116 149.155 64.3817C147.325 62.5517 144.848 61.8152 142.6 62.1962Z" fill="#B4E66E"/>
<path d="M144.33 69.2073C146.16 71.0373 148.637 71.7737 150.885 71.3928C151 71.3733 151.104 71.3169 151.185 71.2367L142.301 62.3525C142.22 62.4328 142.164 62.537 142.144 62.6523C141.763 64.9003 142.5 67.3773 144.33 69.2073Z" fill="#A0D755"/>
<path d="M164.978 88.2588C164.1 86.2512 162.099 84.8467 159.768 84.8467C159.618 84.8467 159.471 84.8542 159.325 84.8672C159.033 84.8932 158.749 84.7998 158.515 84.6237C157.279 83.6943 155.746 83.1406 154.081 83.1406C152.416 83.1406 150.882 83.6943 149.647 84.6237C149.413 84.7999 149.129 84.8933 148.837 84.8672C148.691 84.8542 148.543 84.8467 148.394 84.8467C146.063 84.8467 144.061 86.2511 143.184 88.2588H164.978Z" fill="#9B735A"/>
<path d="M159.03 62.8336C158.807 62.6115 158.448 62.6115 158.225 62.8336L155.007 66.0536C154.878 66.1819 154.759 66.3165 154.647 66.4555V62.0983C154.647 60.4278 153.996 58.8567 152.814 57.6749L150.255 55.1158C150.033 54.8937 149.673 54.8937 149.451 55.1158C149.229 55.338 149.229 55.6978 149.451 55.92L152.01 58.4791C152.977 59.4459 153.509 60.7316 153.509 62.0983V73.0249C153.217 72.5621 152.878 72.1253 152.481 71.7288L147.611 66.8589C147.389 66.6367 147.029 66.6367 146.807 66.8589C146.585 67.0811 146.585 67.4409 146.807 67.663L151.677 72.533C152.858 73.7148 153.509 75.2859 153.509 76.9564V83.7084H154.647V69.6718C154.647 68.6093 155.06 67.6097 155.811 66.8578L159.03 63.6378C159.252 63.4156 159.252 63.0557 159.03 62.8336Z" fill="#87BE4B"/>
<path d="M155.309 83.243C154.909 83.1759 154.5 83.1406 154.081 83.1406C152.416 83.1406 150.882 83.6943 149.647 84.6236C149.413 84.7998 149.129 84.8932 148.837 84.8671C148.691 84.8541 148.543 84.8466 148.394 84.8466C146.063 84.8466 144.061 86.251 143.184 88.2588H150.596C151.396 85.9988 153.113 84.1722 155.309 83.243Z" fill="#8C5F50"/>
<path d="M166.591 88.8268H141.569C141.254 88.8268 141 88.5725 141 88.2581C141 87.9438 141.254 87.6895 141.569 87.6895H166.591C166.905 87.6895 167.16 87.9438 167.16 88.2581C167.16 88.5725 166.905 88.8268 166.591 88.8268Z" fill="#AE8B70"/>
<path d="M115.94 170.862L116.132 172.175L116.412 170.992L118.381 164.047H119.488L121.409 170.992L121.683 172.195L121.894 170.855L123.439 164.047H124.759L122.346 174H121.149L119.099 166.747L118.941 165.988L118.784 166.747L116.658 174H115.462L113.056 164.047H114.368L115.94 170.862ZM140.377 171.402H136.207L135.27 174H133.917L137.718 164.047H138.866L142.674 174H141.327L140.377 171.402ZM136.603 170.322H139.987L138.292 165.667L136.603 170.322ZM155.906 169.563C154.781 169.24 153.96 168.843 153.445 168.374C152.935 167.9 152.68 167.317 152.68 166.624C152.68 165.84 152.992 165.193 153.616 164.683C154.245 164.168 155.061 163.91 156.063 163.91C156.747 163.91 157.355 164.042 157.889 164.307C158.426 164.571 158.841 164.936 159.133 165.4C159.429 165.865 159.577 166.373 159.577 166.925H158.258C158.258 166.323 158.066 165.852 157.684 165.51C157.301 165.163 156.761 164.99 156.063 164.99C155.416 164.99 154.91 165.134 154.546 165.421C154.186 165.703 154.006 166.098 154.006 166.604C154.006 167.009 154.177 167.353 154.519 167.636C154.865 167.914 155.451 168.169 156.275 168.401C157.105 168.634 157.752 168.891 158.217 169.174C158.686 169.452 159.033 169.778 159.256 170.151C159.484 170.525 159.598 170.965 159.598 171.471C159.598 172.277 159.283 172.924 158.654 173.412C158.025 173.895 157.185 174.137 156.132 174.137C155.448 174.137 154.81 174.007 154.218 173.747C153.625 173.483 153.167 173.123 152.844 172.667C152.525 172.211 152.365 171.694 152.365 171.115H153.685C153.685 171.717 153.906 172.193 154.348 172.544C154.794 172.89 155.389 173.063 156.132 173.063C156.825 173.063 157.355 172.922 157.725 172.64C158.094 172.357 158.278 171.972 158.278 171.484C158.278 170.997 158.107 170.621 157.766 170.356C157.424 170.088 156.804 169.823 155.906 169.563ZM177.123 165.127H173.924V174H172.618V165.127H169.426V164.047H177.123V165.127ZM193.186 169.399H188.872V172.927H193.883V174H187.56V164.047H193.815V165.127H188.872V168.326H193.186V169.399ZM104.884 184.047L108.138 192.168L111.392 184.047H113.094V194H111.782V190.124L111.905 185.94L108.637 194H107.632L104.371 185.961L104.501 190.124V194H103.189V184.047H104.884ZM129.991 191.402H125.821L124.884 194H123.531L127.331 184.047H128.48L132.288 194H130.941L129.991 191.402ZM126.217 190.322H129.601L127.906 185.667L126.217 190.322ZM150.237 194H148.917L143.907 186.33V194H142.587V184.047H143.907L148.931 191.751V184.047H150.237V194ZM167.147 191.402H162.977L162.041 194H160.687L164.488 184.047H165.636L169.444 194H168.097L167.147 191.402ZM163.374 190.322H166.757L165.062 185.667L163.374 190.322ZM187.01 192.694C186.673 193.177 186.201 193.54 185.595 193.781C184.994 194.018 184.292 194.137 183.49 194.137C182.679 194.137 181.959 193.948 181.33 193.569C180.701 193.187 180.213 192.644 179.867 191.942C179.525 191.241 179.35 190.427 179.34 189.502V188.634C179.34 187.134 179.689 185.972 180.386 185.147C181.088 184.323 182.072 183.91 183.339 183.91C184.378 183.91 185.215 184.177 185.848 184.71C186.482 185.239 186.869 185.991 187.01 186.966H185.698C185.452 185.649 184.668 184.99 183.346 184.99C182.467 184.99 181.799 185.3 181.343 185.92C180.892 186.535 180.664 187.428 180.66 188.6V189.413C180.66 190.53 180.915 191.418 181.425 192.079C181.936 192.735 182.626 193.063 183.497 193.063C183.989 193.063 184.419 193.009 184.789 192.899C185.158 192.79 185.463 192.605 185.705 192.346V190.11H183.401V189.044H187.01V192.694ZM203.791 189.399H199.477V192.927H204.488V194H198.165V184.047H204.42V185.127H199.477V188.326H203.791V189.399ZM123.756 204.047L127.01 212.168L130.264 204.047H131.966V214H130.654V210.124L130.777 205.94L127.509 214H126.504L123.244 205.961L123.373 210.124V214H122.061V204.047H123.756ZM148.87 209.399H144.556V212.927H149.567V214H143.244V204.047H149.499V205.127H144.556V208.326H148.87V209.399ZM167.81 214H166.491L161.48 206.33V214H160.161V204.047H161.48L166.504 211.751V204.047H167.81V214ZM185.773 205.127H182.574V214H181.268V205.127H178.076V204.047H185.773V205.127Z" fill="white"/>
<path d="M108.948 109.547L109.002 110.43C109.596 109.737 110.409 109.391 111.44 109.391C112.57 109.391 113.344 109.823 113.76 110.688C114.375 109.823 115.239 109.391 116.354 109.391C117.286 109.391 117.979 109.648 118.432 110.164C118.891 110.68 119.125 111.44 119.135 112.445V118H117.237V112.5C117.237 111.964 117.12 111.57 116.885 111.32C116.651 111.07 116.263 110.945 115.721 110.945C115.289 110.945 114.935 111.062 114.659 111.297C114.388 111.526 114.198 111.828 114.088 112.203L114.096 118H112.198V112.438C112.172 111.443 111.664 110.945 110.674 110.945C109.914 110.945 109.375 111.255 109.057 111.875V118H107.159V109.547H108.948ZM122.409 113.695C122.409 112.867 122.573 112.122 122.901 111.461C123.229 110.794 123.69 110.284 124.284 109.93C124.878 109.57 125.56 109.391 126.331 109.391C127.472 109.391 128.396 109.758 129.104 110.492C129.818 111.227 130.203 112.201 130.261 113.414L130.268 113.859C130.268 114.693 130.107 115.438 129.784 116.094C129.466 116.75 129.008 117.258 128.409 117.617C127.815 117.977 127.128 118.156 126.347 118.156C125.154 118.156 124.198 117.76 123.479 116.969C122.766 116.172 122.409 115.112 122.409 113.789V113.695ZM124.307 113.859C124.307 114.729 124.487 115.411 124.847 115.906C125.206 116.396 125.706 116.641 126.347 116.641C126.987 116.641 127.485 116.391 127.839 115.891C128.198 115.391 128.378 114.659 128.378 113.695C128.378 112.841 128.193 112.164 127.823 111.664C127.459 111.164 126.961 110.914 126.331 110.914C125.711 110.914 125.219 111.161 124.854 111.656C124.49 112.146 124.307 112.88 124.307 113.859ZM140.972 113.859C140.972 115.172 140.678 116.216 140.089 116.992C139.506 117.768 138.701 118.156 137.675 118.156C136.685 118.156 135.915 117.799 135.362 117.086L135.269 118H133.55V106H135.448V110.359C135.995 109.714 136.732 109.391 137.659 109.391C138.691 109.391 139.501 109.773 140.089 110.539C140.678 111.305 140.972 112.375 140.972 113.75V113.859ZM139.073 113.695C139.073 112.779 138.912 112.091 138.589 111.633C138.266 111.174 137.797 110.945 137.183 110.945C136.36 110.945 135.782 111.305 135.448 112.023V115.508C135.787 116.242 136.37 116.609 137.198 116.609C137.792 116.609 138.251 116.388 138.573 115.945C138.896 115.503 139.063 114.833 139.073 113.938V113.695ZM146.269 118H144.371V109.547H146.269V118ZM144.253 107.352C144.253 107.06 144.345 106.818 144.527 106.625C144.714 106.432 144.98 106.336 145.324 106.336C145.667 106.336 145.933 106.432 146.121 106.625C146.308 106.818 146.402 107.06 146.402 107.352C146.402 107.638 146.308 107.878 146.121 108.07C145.933 108.258 145.667 108.352 145.324 108.352C144.98 108.352 144.714 108.258 144.527 108.07C144.345 107.878 144.253 107.638 144.253 107.352ZM152.043 118H150.144V106H152.043V118ZM159.52 118.156C158.317 118.156 157.34 117.779 156.59 117.023C155.845 116.263 155.473 115.253 155.473 113.992V113.758C155.473 112.914 155.634 112.161 155.957 111.5C156.285 110.833 156.744 110.315 157.332 109.945C157.921 109.576 158.577 109.391 159.301 109.391C160.452 109.391 161.34 109.758 161.965 110.492C162.595 111.227 162.91 112.266 162.91 113.609V114.375H157.387C157.444 115.073 157.676 115.625 158.082 116.031C158.494 116.438 159.009 116.641 159.629 116.641C160.499 116.641 161.207 116.289 161.754 115.586L162.778 116.562C162.439 117.068 161.986 117.461 161.418 117.742C160.856 118.018 160.223 118.156 159.52 118.156ZM159.293 110.914C158.772 110.914 158.35 111.096 158.028 111.461C157.71 111.826 157.507 112.333 157.418 112.984H161.035V112.844C160.994 112.208 160.824 111.729 160.528 111.406C160.231 111.078 159.819 110.914 159.293 110.914ZM176.786 118C176.703 117.839 176.63 117.576 176.567 117.211C175.963 117.841 175.223 118.156 174.348 118.156C173.499 118.156 172.807 117.914 172.27 117.43C171.734 116.945 171.466 116.346 171.466 115.633C171.466 114.732 171.799 114.042 172.466 113.562C173.137 113.078 174.096 112.836 175.341 112.836H176.505V112.281C176.505 111.844 176.382 111.495 176.137 111.234C175.893 110.969 175.52 110.836 175.02 110.836C174.588 110.836 174.234 110.945 173.958 111.164C173.682 111.378 173.544 111.651 173.544 111.984H171.645C171.645 111.521 171.799 111.089 172.106 110.688C172.414 110.281 172.83 109.964 173.356 109.734C173.887 109.505 174.479 109.391 175.13 109.391C176.119 109.391 176.908 109.641 177.497 110.141C178.085 110.635 178.387 111.333 178.403 112.234V116.047C178.403 116.807 178.51 117.414 178.723 117.867V118H176.786ZM174.7 116.633C175.075 116.633 175.427 116.542 175.755 116.359C176.088 116.177 176.338 115.932 176.505 115.625V114.031H175.481C174.778 114.031 174.249 114.154 173.895 114.398C173.541 114.643 173.364 114.99 173.364 115.438C173.364 115.802 173.484 116.094 173.723 116.312C173.968 116.526 174.294 116.633 174.7 116.633ZM189.474 113.859C189.474 115.167 189.177 116.211 188.583 116.992C187.989 117.768 187.193 118.156 186.193 118.156C185.265 118.156 184.523 117.852 183.966 117.242V121.25H182.068V109.547H183.818L183.896 110.406C184.453 109.729 185.211 109.391 186.169 109.391C187.2 109.391 188.008 109.776 188.591 110.547C189.179 111.312 189.474 112.378 189.474 113.742V113.859ZM187.583 113.695C187.583 112.852 187.414 112.182 187.075 111.688C186.742 111.193 186.263 110.945 185.638 110.945C184.862 110.945 184.304 111.266 183.966 111.906V115.656C184.31 116.312 184.872 116.641 185.653 116.641C186.258 116.641 186.729 116.398 187.068 115.914C187.411 115.424 187.583 114.685 187.583 113.695ZM200.169 113.859C200.169 115.167 199.872 116.211 199.279 116.992C198.685 117.768 197.888 118.156 196.888 118.156C195.961 118.156 195.219 117.852 194.662 117.242V121.25H192.763V109.547H194.513L194.591 110.406C195.149 109.729 195.906 109.391 196.865 109.391C197.896 109.391 198.703 109.776 199.287 110.547C199.875 111.312 200.169 112.378 200.169 113.742V113.859ZM198.279 113.695C198.279 112.852 198.109 112.182 197.771 111.688C197.438 111.193 196.958 110.945 196.333 110.945C195.557 110.945 195 111.266 194.662 111.906V115.656C195.005 116.312 195.568 116.641 196.349 116.641C196.953 116.641 197.425 116.398 197.763 115.914C198.107 115.424 198.279 114.685 198.279 113.695Z" fill="white"/>
<defs>
<filter id="filter0_d" x="0" y="0" width="308" height="282" filterUnits="userSpaceOnUse" color-interpolation-filters="sRGB">
<feFlood flood-opacity="0" result="BackgroundImageFix"/>
<feColorMatrix in="SourceAlpha" type="matrix" values="0 0 0 0 0 0 0 0 0 0 0 0 0 0 0 0 0 0 127 0"/>
<feOffset dy="4"/>
<feGaussianBlur stdDeviation="2"/>
<feColorMatrix type="matrix" values="0 0 0 0 0 0 0 0 0 0 0 0 0 0 0 0 0 0 0.25 0"/>
<feBlend mode="normal" in2="BackgroundImageFix" result="effect1_dropShadow"/>
<feBlend mode="normal" in="SourceGraphic" in2="effect1_dropShadow" result="shape"/>
</filter>
</defs>
</svg>
