<svg width="308" height="282" viewBox="0 0 308 282" fill="none" xmlns="http://www.w3.org/2000/svg">
<g filter="url(#filter0_d)">
<rect x="4" width="300" height="274" rx="10" fill="#333333"/>
</g>
<path d="M110.018 174.104V178H108.705V168.047H112.376C113.466 168.047 114.318 168.325 114.933 168.881C115.553 169.437 115.863 170.173 115.863 171.089C115.863 172.055 115.56 172.8 114.954 173.324C114.352 173.844 113.488 174.104 112.363 174.104H110.018ZM110.018 173.03H112.376C113.078 173.03 113.616 172.866 113.99 172.538C114.363 172.205 114.55 171.727 114.55 171.103C114.55 170.51 114.363 170.036 113.99 169.681C113.616 169.325 113.103 169.141 112.452 169.127H110.018V173.03ZM133.504 168.047V174.814C133.5 175.753 133.204 176.521 132.616 177.118C132.032 177.715 131.239 178.05 130.237 178.123L129.888 178.137C128.799 178.137 127.931 177.843 127.284 177.255C126.636 176.667 126.308 175.858 126.299 174.828V168.047H127.598V174.787C127.598 175.507 127.796 176.068 128.193 176.469C128.589 176.865 129.154 177.063 129.888 177.063C130.631 177.063 131.198 176.865 131.59 176.469C131.987 176.072 132.185 175.514 132.185 174.794V168.047H133.504ZM144.536 178V168.047H147.79C148.87 168.047 149.681 168.27 150.223 168.717C150.77 169.163 151.043 169.824 151.043 170.699C151.043 171.164 150.911 171.576 150.647 171.937C150.383 172.292 150.023 172.568 149.567 172.764C150.105 172.914 150.528 173.201 150.838 173.625C151.153 174.044 151.31 174.546 151.31 175.129C151.31 176.022 151.021 176.724 150.442 177.234C149.863 177.745 149.045 178 147.988 178H144.536ZM145.848 173.345V176.927H148.015C148.626 176.927 149.107 176.77 149.457 176.455C149.813 176.136 149.991 175.699 149.991 175.143C149.991 173.944 149.339 173.345 148.036 173.345H145.848ZM145.848 172.292H147.831C148.405 172.292 148.863 172.148 149.205 171.861C149.551 171.574 149.724 171.185 149.724 170.692C149.724 170.146 149.565 169.749 149.246 169.503C148.927 169.252 148.441 169.127 147.79 169.127H145.848V172.292ZM163.538 176.927H168.254V178H162.218V168.047H163.538V176.927ZM180.12 178H178.807V168.047H180.12V178ZM198.807 174.842C198.684 175.895 198.295 176.708 197.638 177.282C196.987 177.852 196.118 178.137 195.034 178.137C193.858 178.137 192.915 177.715 192.204 176.872C191.497 176.029 191.144 174.901 191.144 173.488V172.531C191.144 171.606 191.308 170.793 191.636 170.091C191.969 169.389 192.438 168.851 193.045 168.478C193.651 168.099 194.352 167.91 195.15 167.91C196.207 167.91 197.055 168.206 197.693 168.799C198.331 169.387 198.702 170.202 198.807 171.246H197.488C197.374 170.453 197.126 169.879 196.743 169.523C196.365 169.168 195.834 168.99 195.15 168.99C194.311 168.99 193.653 169.3 193.174 169.92C192.7 170.54 192.463 171.422 192.463 172.565V173.529C192.463 174.609 192.689 175.468 193.14 176.106C193.591 176.744 194.223 177.063 195.034 177.063C195.763 177.063 196.321 176.899 196.709 176.571C197.101 176.239 197.36 175.662 197.488 174.842H198.807ZM106.146 195.402H101.976L101.04 198H99.6864L103.487 188.047H104.636L108.443 198H107.097L106.146 195.402ZM102.373 194.322H105.757L104.061 189.667L102.373 194.322ZM122.393 193.974H120.056V198H118.736V188.047H122.031C123.152 188.047 124.014 188.302 124.615 188.812C125.221 189.323 125.524 190.066 125.524 191.041C125.524 191.661 125.356 192.201 125.018 192.661C124.686 193.121 124.221 193.465 123.624 193.693L125.962 197.918V198H124.554L122.393 193.974ZM120.056 192.9H122.072C122.724 192.9 123.241 192.732 123.624 192.395C124.011 192.057 124.205 191.606 124.205 191.041C124.205 190.426 124.02 189.954 123.651 189.626C123.287 189.298 122.758 189.132 122.065 189.127H120.056V192.9ZM142.66 189.127H139.461V198H138.155V189.127H134.963V188.047H142.66V189.127ZM154.505 198H153.192V188.047H154.505V198ZM168.804 193.563C167.678 193.24 166.858 192.843 166.343 192.374C165.832 191.9 165.577 191.317 165.577 190.624C165.577 189.84 165.889 189.193 166.514 188.683C167.143 188.168 167.958 187.91 168.961 187.91C169.645 187.91 170.253 188.042 170.786 188.307C171.324 188.571 171.739 188.936 172.03 189.4C172.327 189.865 172.475 190.373 172.475 190.925H171.155C171.155 190.323 170.964 189.852 170.581 189.51C170.198 189.163 169.658 188.99 168.961 188.99C168.314 188.99 167.808 189.134 167.443 189.421C167.083 189.703 166.903 190.098 166.903 190.604C166.903 191.009 167.074 191.353 167.416 191.636C167.762 191.914 168.348 192.169 169.173 192.401C170.002 192.634 170.649 192.891 171.114 193.174C171.584 193.452 171.93 193.778 172.153 194.151C172.381 194.525 172.495 194.965 172.495 195.471C172.495 196.277 172.181 196.924 171.552 197.412C170.923 197.895 170.082 198.137 169.029 198.137C168.346 198.137 167.708 198.007 167.115 197.747C166.523 197.483 166.065 197.123 165.741 196.667C165.422 196.211 165.263 195.694 165.263 195.115H166.582C166.582 195.717 166.803 196.193 167.245 196.544C167.692 196.89 168.286 197.063 169.029 197.063C169.722 197.063 170.253 196.922 170.622 196.64C170.991 196.357 171.176 195.972 171.176 195.484C171.176 194.997 171.005 194.621 170.663 194.356C170.321 194.088 169.702 193.823 168.804 193.563ZM190.021 189.127H186.821V198H185.516V189.127H182.323V188.047H190.021V189.127ZM203.28 193.563C202.155 193.24 201.334 192.843 200.819 192.374C200.309 191.9 200.054 191.317 200.054 190.624C200.054 189.84 200.366 189.193 200.99 188.683C201.619 188.168 202.435 187.91 203.438 187.91C204.121 187.91 204.73 188.042 205.263 188.307C205.801 188.571 206.215 188.936 206.507 189.4C206.803 189.865 206.951 190.373 206.951 190.925H205.632C205.632 190.323 205.441 189.852 205.058 189.51C204.675 189.163 204.135 188.99 203.438 188.99C202.79 188.99 202.285 189.134 201.92 189.421C201.56 189.703 201.38 190.098 201.38 190.604C201.38 191.009 201.551 191.353 201.893 191.636C202.239 191.914 202.825 192.169 203.65 192.401C204.479 192.634 205.126 192.891 205.591 193.174C206.06 193.452 206.407 193.778 206.63 194.151C206.858 194.525 206.972 194.965 206.972 195.471C206.972 196.277 206.657 196.924 206.028 197.412C205.4 197.895 204.559 198.137 203.506 198.137C202.822 198.137 202.184 198.007 201.592 197.747C200.999 197.483 200.541 197.123 200.218 196.667C199.899 196.211 199.739 195.694 199.739 195.115H201.059C201.059 195.717 201.28 196.193 201.722 196.544C202.168 196.89 202.763 197.063 203.506 197.063C204.199 197.063 204.73 196.922 205.099 196.64C205.468 196.357 205.652 195.972 205.652 195.484C205.652 194.997 205.482 194.621 205.14 194.356C204.798 194.088 204.178 193.823 203.28 193.563Z" fill="white"/>
<path d="M99.6153 151.93C99.0528 152.747 98.1544 153.156 96.92 153.156C96.019 153.156 95.3341 152.896 94.8653 152.375C94.3966 151.849 94.157 151.073 94.1466 150.047V144.547H95.0763V149.93C95.0763 151.539 95.7273 152.344 97.0294 152.344C98.3835 152.344 99.2403 151.784 99.5997 150.664V144.547H100.537V153H99.6309L99.6153 151.93ZM105.545 144.547L105.577 145.992C105.894 145.471 106.29 145.076 106.764 144.805C107.238 144.529 107.761 144.391 108.334 144.391C109.241 144.391 109.915 144.646 110.358 145.156C110.801 145.667 111.024 146.432 111.03 147.453V153H110.1V147.445C110.095 146.69 109.933 146.128 109.616 145.758C109.303 145.388 108.801 145.203 108.108 145.203C107.53 145.203 107.017 145.385 106.569 145.75C106.126 146.109 105.798 146.596 105.584 147.211V153H104.655V144.547H105.545ZM114.757 148.695C114.757 147.383 115.048 146.339 115.632 145.562C116.22 144.781 117.017 144.391 118.022 144.391C119.163 144.391 120.033 144.841 120.632 145.742V141H121.561V153H120.686L120.647 151.875C120.048 152.729 119.168 153.156 118.007 153.156C117.033 153.156 116.246 152.766 115.647 151.984C115.053 151.198 114.757 150.138 114.757 148.805V148.695ZM115.702 148.859C115.702 149.938 115.918 150.789 116.35 151.414C116.783 152.034 117.392 152.344 118.178 152.344C119.329 152.344 120.147 151.836 120.632 150.82V146.852C120.147 145.753 119.335 145.203 118.194 145.203C117.408 145.203 116.796 145.513 116.358 146.133C115.921 146.747 115.702 147.656 115.702 148.859ZM128.976 153.156C128.257 153.156 127.606 152.979 127.022 152.625C126.444 152.271 125.994 151.779 125.671 151.148C125.348 150.513 125.187 149.802 125.187 149.016V148.68C125.187 147.867 125.343 147.135 125.655 146.484C125.973 145.833 126.413 145.323 126.976 144.953C127.538 144.578 128.147 144.391 128.804 144.391C129.83 144.391 130.642 144.742 131.241 145.445C131.845 146.143 132.147 147.099 132.147 148.312V148.836H126.116V149.016C126.116 149.974 126.39 150.773 126.937 151.414C127.489 152.049 128.181 152.367 129.015 152.367C129.515 152.367 129.955 152.276 130.335 152.094C130.72 151.911 131.069 151.62 131.382 151.219L131.968 151.664C131.28 152.659 130.283 153.156 128.976 153.156ZM128.804 145.188C128.101 145.188 127.507 145.445 127.022 145.961C126.543 146.477 126.252 147.169 126.147 148.039H131.218V147.938C131.192 147.125 130.96 146.464 130.522 145.953C130.085 145.443 129.512 145.188 128.804 145.188ZM139.554 145.344C139.356 145.307 139.145 145.289 138.921 145.289C138.338 145.289 137.843 145.453 137.437 145.781C137.036 146.104 136.749 146.576 136.578 147.195V153H135.648V144.547H136.562L136.578 145.891C137.072 144.891 137.867 144.391 138.96 144.391C139.221 144.391 139.426 144.424 139.578 144.492L139.554 145.344ZM147.781 150.852C147.781 150.388 147.593 150.016 147.218 149.734C146.849 149.453 146.289 149.234 145.539 149.078C144.789 148.917 144.205 148.734 143.789 148.531C143.377 148.323 143.07 148.07 142.867 147.773C142.669 147.477 142.57 147.117 142.57 146.695C142.57 146.029 142.849 145.479 143.406 145.047C143.963 144.609 144.677 144.391 145.547 144.391C146.489 144.391 147.244 144.625 147.812 145.094C148.385 145.557 148.672 146.164 148.672 146.914H147.734C147.734 146.419 147.526 146.008 147.109 145.68C146.698 145.352 146.177 145.188 145.547 145.188C144.932 145.188 144.437 145.326 144.062 145.602C143.692 145.872 143.508 146.227 143.508 146.664C143.508 147.086 143.661 147.414 143.968 147.648C144.281 147.878 144.846 148.089 145.664 148.281C146.487 148.474 147.101 148.68 147.508 148.898C147.919 149.117 148.224 149.38 148.422 149.688C148.619 149.995 148.718 150.367 148.718 150.805C148.718 151.518 148.429 152.089 147.851 152.516C147.278 152.943 146.528 153.156 145.601 153.156C144.617 153.156 143.817 152.919 143.203 152.445C142.593 151.966 142.289 151.362 142.289 150.633H143.226C143.263 151.18 143.492 151.607 143.914 151.914C144.341 152.216 144.903 152.367 145.601 152.367C146.252 152.367 146.778 152.224 147.179 151.938C147.58 151.651 147.781 151.289 147.781 150.852ZM153.961 142.383V144.547H155.711V145.312H153.961V150.945C153.961 151.414 154.044 151.763 154.211 151.992C154.383 152.221 154.667 152.336 155.062 152.336C155.219 152.336 155.471 152.31 155.82 152.258L155.859 153.023C155.615 153.112 155.281 153.156 154.859 153.156C154.219 153.156 153.753 152.971 153.461 152.602C153.169 152.227 153.023 151.677 153.023 150.953V145.312H151.469V144.547H153.023V142.383H153.961ZM164.664 153C164.571 152.734 164.511 152.341 164.485 151.82C164.157 152.247 163.737 152.578 163.227 152.812C162.722 153.042 162.185 153.156 161.618 153.156C160.805 153.156 160.146 152.93 159.641 152.477C159.141 152.023 158.891 151.451 158.891 150.758C158.891 149.935 159.232 149.284 159.914 148.805C160.602 148.326 161.558 148.086 162.782 148.086H164.477V147.125C164.477 146.521 164.289 146.047 163.914 145.703C163.545 145.354 163.003 145.18 162.289 145.18C161.638 145.18 161.099 145.346 160.672 145.68C160.245 146.013 160.032 146.414 160.032 146.883L159.094 146.875C159.094 146.203 159.407 145.622 160.032 145.133C160.657 144.638 161.425 144.391 162.336 144.391C163.279 144.391 164.021 144.628 164.563 145.102C165.11 145.57 165.391 146.227 165.407 147.07V151.07C165.407 151.888 165.493 152.5 165.664 152.906V153H164.664ZM161.727 152.328C162.352 152.328 162.909 152.177 163.399 151.875C163.894 151.573 164.253 151.169 164.477 150.664V148.805H162.805C161.873 148.815 161.144 148.987 160.618 149.32C160.091 149.648 159.828 150.102 159.828 150.68C159.828 151.154 160.003 151.547 160.352 151.859C160.706 152.172 161.164 152.328 161.727 152.328ZM170.477 144.547L170.508 145.992C170.826 145.471 171.222 145.076 171.696 144.805C172.17 144.529 172.693 144.391 173.266 144.391C174.173 144.391 174.847 144.646 175.29 145.156C175.732 145.667 175.956 146.432 175.962 147.453V153H175.032V147.445C175.027 146.69 174.865 146.128 174.548 145.758C174.235 145.388 173.732 145.203 173.04 145.203C172.462 145.203 171.949 145.385 171.501 145.75C171.058 146.109 170.73 146.596 170.516 147.211V153H169.587V144.547H170.477ZM179.688 148.695C179.688 147.383 179.98 146.339 180.563 145.562C181.152 144.781 181.949 144.391 182.954 144.391C184.095 144.391 184.964 144.841 185.563 145.742V141H186.493V153H185.618L185.579 151.875C184.98 152.729 184.1 153.156 182.938 153.156C181.964 153.156 181.178 152.766 180.579 151.984C179.985 151.198 179.688 150.138 179.688 148.805V148.695ZM180.634 148.859C180.634 149.938 180.85 150.789 181.282 151.414C181.714 152.034 182.324 152.344 183.11 152.344C184.261 152.344 185.079 151.836 185.563 150.82V146.852C185.079 145.753 184.267 145.203 183.126 145.203C182.339 145.203 181.728 145.513 181.29 146.133C180.853 146.747 180.634 147.656 180.634 148.859ZM191.681 153H190.743V144.547H191.681V153ZM190.579 142.102C190.579 141.924 190.637 141.776 190.751 141.656C190.866 141.531 191.022 141.469 191.22 141.469C191.418 141.469 191.574 141.531 191.689 141.656C191.809 141.776 191.868 141.924 191.868 142.102C191.868 142.279 191.809 142.427 191.689 142.547C191.574 142.667 191.418 142.727 191.22 142.727C191.022 142.727 190.866 142.667 190.751 142.547C190.637 142.427 190.579 142.279 190.579 142.102ZM196.798 144.547L196.83 145.992C197.147 145.471 197.543 145.076 198.017 144.805C198.491 144.529 199.015 144.391 199.587 144.391C200.494 144.391 201.168 144.646 201.611 145.156C202.054 145.667 202.278 146.432 202.283 147.453V153H201.353V147.445C201.348 146.69 201.186 146.128 200.869 145.758C200.556 145.388 200.054 145.203 199.361 145.203C198.783 145.203 198.27 145.385 197.822 145.75C197.379 146.109 197.051 146.596 196.837 147.211V153H195.908V144.547H196.798ZM206.01 148.695C206.01 147.372 206.301 146.326 206.885 145.555C207.473 144.779 208.27 144.391 209.275 144.391C210.426 144.391 211.301 144.849 211.9 145.766L211.947 144.547H212.822V152.828C212.822 153.917 212.518 154.779 211.908 155.414C211.299 156.049 210.473 156.367 209.432 156.367C208.843 156.367 208.281 156.234 207.744 155.969C207.213 155.708 206.794 155.359 206.486 154.922L207.01 154.359C207.671 155.172 208.458 155.578 209.369 155.578C210.15 155.578 210.76 155.346 211.197 154.883C211.635 154.424 211.861 153.786 211.877 152.969V151.906C211.278 152.74 210.406 153.156 209.26 153.156C208.281 153.156 207.494 152.766 206.9 151.984C206.307 151.203 206.01 150.148 206.01 148.82V148.695ZM206.955 148.859C206.955 149.938 207.171 150.789 207.603 151.414C208.036 152.034 208.645 152.344 209.432 152.344C210.583 152.344 211.398 151.828 211.877 150.797V146.867C211.658 146.326 211.343 145.914 210.932 145.633C210.52 145.346 210.025 145.203 209.447 145.203C208.661 145.203 208.049 145.513 207.611 146.133C207.174 146.747 206.955 147.656 206.955 148.859Z" fill="white"/>
<path d="M100.678 123.172C100.121 123.828 99.3289 124.156 98.3028 124.156C97.3861 124.156 96.6908 123.888 96.2169 123.352C95.7481 122.815 95.5138 122.039 95.5138 121.023V115.547H97.4122V121C97.4122 122.073 97.8575 122.609 98.7481 122.609C99.67 122.609 100.292 122.279 100.615 121.617V115.547H102.514V124H100.725L100.678 123.172ZM110.866 121.703C110.866 121.365 110.725 121.107 110.444 120.93C110.168 120.753 109.707 120.596 109.061 120.461C108.415 120.326 107.876 120.154 107.444 119.945C106.496 119.487 106.022 118.823 106.022 117.953C106.022 117.224 106.329 116.615 106.944 116.125C107.558 115.635 108.34 115.391 109.288 115.391C110.298 115.391 111.113 115.641 111.733 116.141C112.358 116.641 112.67 117.289 112.67 118.086H110.772C110.772 117.721 110.636 117.419 110.366 117.18C110.095 116.935 109.735 116.812 109.288 116.812C108.871 116.812 108.53 116.909 108.264 117.102C108.004 117.294 107.873 117.552 107.873 117.875C107.873 118.167 107.996 118.393 108.241 118.555C108.485 118.716 108.98 118.88 109.725 119.047C110.47 119.208 111.053 119.404 111.475 119.633C111.902 119.857 112.217 120.128 112.42 120.445C112.629 120.763 112.733 121.148 112.733 121.602C112.733 122.362 112.418 122.979 111.788 123.453C111.157 123.922 110.332 124.156 109.311 124.156C108.618 124.156 108.001 124.031 107.459 123.781C106.918 123.531 106.496 123.188 106.194 122.75C105.892 122.312 105.741 121.841 105.741 121.336H107.584C107.61 121.784 107.78 122.13 108.092 122.375C108.405 122.615 108.819 122.734 109.334 122.734C109.834 122.734 110.215 122.641 110.475 122.453C110.735 122.26 110.866 122.01 110.866 121.703ZM119.796 124.156C118.593 124.156 117.616 123.779 116.866 123.023C116.121 122.263 115.749 121.253 115.749 119.992V119.758C115.749 118.914 115.91 118.161 116.233 117.5C116.561 116.833 117.02 116.315 117.608 115.945C118.197 115.576 118.853 115.391 119.577 115.391C120.728 115.391 121.616 115.758 122.241 116.492C122.871 117.227 123.186 118.266 123.186 119.609V120.375H117.663C117.72 121.073 117.952 121.625 118.358 122.031C118.77 122.438 119.285 122.641 119.905 122.641C120.775 122.641 121.483 122.289 122.03 121.586L123.053 122.562C122.715 123.068 122.262 123.461 121.694 123.742C121.132 124.018 120.499 124.156 119.796 124.156ZM119.569 116.914C119.048 116.914 118.626 117.096 118.303 117.461C117.986 117.826 117.783 118.333 117.694 118.984H121.311V118.844C121.27 118.208 121.1 117.729 120.803 117.406C120.507 117.078 120.095 116.914 119.569 116.914ZM130.772 117.281C130.522 117.24 130.265 117.219 129.999 117.219C129.129 117.219 128.543 117.552 128.241 118.219V124H126.343V115.547H128.155L128.202 116.492C128.661 115.758 129.296 115.391 130.108 115.391C130.379 115.391 130.603 115.427 130.78 115.5L130.772 117.281ZM143.742 117.281C143.492 117.24 143.234 117.219 142.968 117.219C142.099 117.219 141.513 117.552 141.211 118.219V124H139.312V115.547H141.125L141.172 116.492C141.63 115.758 142.265 115.391 143.078 115.391C143.349 115.391 143.573 115.427 143.75 115.5L143.742 117.281ZM150.188 124.156C148.984 124.156 148.008 123.779 147.258 123.023C146.513 122.263 146.141 121.253 146.141 119.992V119.758C146.141 118.914 146.302 118.161 146.625 117.5C146.953 116.833 147.411 116.315 148 115.945C148.589 115.576 149.245 115.391 149.969 115.391C151.12 115.391 152.008 115.758 152.633 116.492C153.263 117.227 153.578 118.266 153.578 119.609V120.375H148.055C148.112 121.073 148.344 121.625 148.75 122.031C149.161 122.438 149.677 122.641 150.297 122.641C151.167 122.641 151.875 122.289 152.422 121.586L153.445 122.562C153.107 123.068 152.654 123.461 152.086 123.742C151.523 124.018 150.891 124.156 150.188 124.156ZM149.961 116.914C149.44 116.914 149.018 117.096 148.695 117.461C148.378 117.826 148.174 118.333 148.086 118.984H151.703V118.844C151.661 118.208 151.492 117.729 151.195 117.406C150.898 117.078 150.487 116.914 149.961 116.914ZM161.477 121.703C161.477 121.365 161.336 121.107 161.055 120.93C160.779 120.753 160.318 120.596 159.672 120.461C159.026 120.326 158.487 120.154 158.055 119.945C157.107 119.487 156.633 118.823 156.633 117.953C156.633 117.224 156.94 116.615 157.555 116.125C158.17 115.635 158.951 115.391 159.899 115.391C160.909 115.391 161.724 115.641 162.344 116.141C162.969 116.641 163.282 117.289 163.282 118.086H161.383C161.383 117.721 161.248 117.419 160.977 117.18C160.706 116.935 160.347 116.812 159.899 116.812C159.482 116.812 159.141 116.909 158.875 117.102C158.615 117.294 158.485 117.552 158.485 117.875C158.485 118.167 158.607 118.393 158.852 118.555C159.097 118.716 159.591 118.88 160.336 119.047C161.081 119.208 161.664 119.404 162.086 119.633C162.513 119.857 162.828 120.128 163.032 120.445C163.24 120.763 163.344 121.148 163.344 121.602C163.344 122.362 163.029 122.979 162.399 123.453C161.769 123.922 160.943 124.156 159.922 124.156C159.229 124.156 158.612 124.031 158.071 123.781C157.529 123.531 157.107 123.188 156.805 122.75C156.503 122.312 156.352 121.841 156.352 121.336H158.196C158.222 121.784 158.391 122.13 158.703 122.375C159.016 122.615 159.43 122.734 159.946 122.734C160.446 122.734 160.826 122.641 161.086 122.453C161.347 122.26 161.477 122.01 161.477 121.703ZM170.407 124.156C169.204 124.156 168.227 123.779 167.477 123.023C166.732 122.263 166.36 121.253 166.36 119.992V119.758C166.36 118.914 166.521 118.161 166.844 117.5C167.173 116.833 167.631 116.315 168.219 115.945C168.808 115.576 169.464 115.391 170.188 115.391C171.339 115.391 172.227 115.758 172.852 116.492C173.482 117.227 173.798 118.266 173.798 119.609V120.375H168.274C168.331 121.073 168.563 121.625 168.969 122.031C169.381 122.438 169.896 122.641 170.516 122.641C171.386 122.641 172.094 122.289 172.641 121.586L173.665 122.562C173.326 123.068 172.873 123.461 172.305 123.742C171.743 124.018 171.11 124.156 170.407 124.156ZM170.18 116.914C169.659 116.914 169.238 117.096 168.915 117.461C168.597 117.826 168.394 118.333 168.305 118.984H171.923V118.844C171.881 118.208 171.712 117.729 171.415 117.406C171.118 117.078 170.706 116.914 170.18 116.914ZM182.009 124C181.925 123.839 181.853 123.576 181.79 123.211C181.186 123.841 180.446 124.156 179.571 124.156C178.722 124.156 178.03 123.914 177.493 123.43C176.957 122.945 176.688 122.346 176.688 121.633C176.688 120.732 177.022 120.042 177.688 119.562C178.36 119.078 179.319 118.836 180.563 118.836H181.728V118.281C181.728 117.844 181.605 117.495 181.36 117.234C181.116 116.969 180.743 116.836 180.243 116.836C179.811 116.836 179.457 116.945 179.181 117.164C178.905 117.378 178.767 117.651 178.767 117.984H176.868C176.868 117.521 177.022 117.089 177.329 116.688C177.636 116.281 178.053 115.964 178.579 115.734C179.11 115.505 179.701 115.391 180.353 115.391C181.342 115.391 182.131 115.641 182.72 116.141C183.308 116.635 183.61 117.333 183.626 118.234V122.047C183.626 122.807 183.733 123.414 183.946 123.867V124H182.009ZM179.923 122.633C180.298 122.633 180.649 122.542 180.978 122.359C181.311 122.177 181.561 121.932 181.728 121.625V120.031H180.704C180.001 120.031 179.472 120.154 179.118 120.398C178.764 120.643 178.587 120.99 178.587 121.438C178.587 121.802 178.707 122.094 178.946 122.312C179.191 122.526 179.517 122.633 179.923 122.633ZM191.72 117.281C191.47 117.24 191.212 117.219 190.947 117.219C190.077 117.219 189.491 117.552 189.189 118.219V124H187.29V115.547H189.103L189.15 116.492C189.608 115.758 190.243 115.391 191.056 115.391C191.327 115.391 191.551 115.427 191.728 115.5L191.72 117.281ZM197.916 122.641C198.39 122.641 198.783 122.503 199.095 122.227C199.408 121.951 199.574 121.609 199.595 121.203H201.384C201.364 121.729 201.199 122.221 200.892 122.68C200.585 123.133 200.168 123.492 199.642 123.758C199.116 124.023 198.548 124.156 197.939 124.156C196.757 124.156 195.819 123.773 195.127 123.008C194.434 122.242 194.087 121.185 194.087 119.836V119.641C194.087 118.354 194.431 117.326 195.119 116.555C195.806 115.779 196.744 115.391 197.931 115.391C198.936 115.391 199.754 115.685 200.384 116.273C201.02 116.857 201.353 117.625 201.384 118.578H199.595C199.574 118.094 199.408 117.695 199.095 117.383C198.788 117.07 198.395 116.914 197.916 116.914C197.301 116.914 196.827 117.138 196.494 117.586C196.16 118.029 195.991 118.703 195.986 119.609V119.914C195.986 120.831 196.15 121.516 196.478 121.969C196.811 122.417 197.291 122.641 197.916 122.641ZM206.369 116.469C206.989 115.75 207.773 115.391 208.721 115.391C210.523 115.391 211.437 116.419 211.463 118.477V124H209.564V118.547C209.564 117.964 209.437 117.552 209.182 117.312C208.932 117.068 208.562 116.945 208.072 116.945C207.312 116.945 206.744 117.284 206.369 117.961V124H204.471V112H206.369V116.469Z" fill="white"/>
<path d="M162.083 78.9762V74.1441C162.096 71.9577 161.222 69.8553 159.663 68.3223C158.156 66.8215 156.183 66 154.094 66C154.061 66 154.023 66 153.99 66C149.533 66.0065 145.911 69.6548 145.911 74.1441V78.9762C144.229 79.1767 143 80.5869 143 82.2946V93.1491C143 94.9927 144.475 96.5128 146.318 96.5128H161.682C163.525 96.5128 165 94.9927 165 93.1491V82.2946C164.994 80.5934 163.764 79.1767 162.083 78.9762ZM147.198 74.1441H147.205C147.205 70.3664 150.251 67.2743 153.997 67.2743H154.003C155.782 67.2679 157.49 67.9729 158.751 69.2279C160.064 70.5281 160.795 72.3005 160.782 74.1441V78.9827H159.359V74.1441C159.372 72.6757 158.79 71.2655 157.749 70.2305C156.765 69.2473 155.433 68.691 154.042 68.691H154.003C151.028 68.691 148.621 71.1361 148.621 74.1376V78.9827H147.198V74.1441ZM158.072 74.1441V78.9827H149.921V74.1441C149.921 71.8542 151.746 69.9912 154.01 69.9912H154.049C155.096 69.9912 156.106 70.4116 156.849 71.1555C157.639 71.9447 158.085 73.025 158.072 74.1441ZM163.764 93.1685C163.764 94.3005 162.846 95.2191 161.714 95.2191H146.344C145.212 95.2191 144.294 94.3005 144.294 93.1685V82.327C144.294 81.1949 145.212 80.2764 146.344 80.2764H161.714C162.846 80.2764 163.764 81.1949 163.764 82.327V93.1685Z" fill="white"/>
<path d="M156.237 87.3465C155.953 86.3439 155.041 85.6582 153.999 85.6582C152.712 85.6582 151.664 86.6997 151.664 87.9934C151.664 89.0349 152.35 89.9469 153.352 90.2316V92.0428C153.352 92.3986 153.643 92.6897 153.999 92.6897C154.355 92.6897 154.646 92.3986 154.646 92.0428V90.2316C155.882 89.8758 156.6 88.582 156.237 87.3465ZM153.999 89.0284C153.424 89.0284 152.958 88.5626 152.958 87.9869C152.958 87.4112 153.424 86.9455 153.999 86.9455C154.575 86.9455 155.041 87.4112 155.041 87.9869C155.041 88.5626 154.575 89.0284 153.999 89.0284Z" fill="white"/>
<defs>
<filter id="filter0_d" x="0" y="0" width="308" height="282" filterUnits="userSpaceOnUse" color-interpolation-filters="sRGB">
<feFlood flood-opacity="0" result="BackgroundImageFix"/>
<feColorMatrix in="SourceAlpha" type="matrix" values="0 0 0 0 0 0 0 0 0 0 0 0 0 0 0 0 0 0 127 0"/>
<feOffset dy="4"/>
<feGaussianBlur stdDeviation="2"/>
<feColorMatrix type="matrix" values="0 0 0 0 0 0 0 0 0 0 0 0 0 0 0 0 0 0 0.25 0"/>
<feBlend mode="normal" in2="BackgroundImageFix" result="effect1_dropShadow"/>
<feBlend mode="normal" in="SourceGraphic" in2="effect1_dropShadow" result="shape"/>
</filter>
</defs>
</svg>
