<svg width="308" height="282" viewBox="0 0 308 282" fill="none" xmlns="http://www.w3.org/2000/svg">
<g filter="url(#filter0_d)">
<rect x="4" width="300" height="274" rx="10" fill="#333333"/>
</g>
<path d="M115.466 173.345C115.466 174.32 115.302 175.172 114.974 175.901C114.646 176.626 114.181 177.18 113.579 177.562C112.978 177.945 112.276 178.137 111.474 178.137C110.69 178.137 109.995 177.945 109.389 177.562C108.783 177.175 108.311 176.626 107.974 175.915C107.641 175.2 107.47 174.372 107.461 173.434V172.716C107.461 171.759 107.628 170.913 107.96 170.18C108.293 169.446 108.762 168.885 109.369 168.498C109.979 168.106 110.676 167.91 111.46 167.91C112.258 167.91 112.96 168.104 113.566 168.491C114.176 168.874 114.646 169.432 114.974 170.166C115.302 170.895 115.466 171.745 115.466 172.716V173.345ZM114.161 172.702C114.161 171.522 113.924 170.617 113.45 169.988C112.976 169.355 112.313 169.038 111.46 169.038C110.631 169.038 109.977 169.355 109.498 169.988C109.024 170.617 108.781 171.492 108.767 172.613V173.345C108.767 174.489 109.006 175.389 109.485 176.045C109.968 176.697 110.631 177.022 111.474 177.022C112.322 177.022 112.978 176.715 113.443 176.1C113.908 175.48 114.147 174.593 114.161 173.44V172.702ZM134.044 178H132.725L127.714 170.33V178H126.395V168.047H127.714L132.739 175.751V168.047H134.044V178ZM146.655 176.927H151.372V178H145.335V168.047H146.655V176.927ZM163.237 178H161.924V168.047H163.237V178ZM182.252 178H180.933L175.922 170.33V178H174.603V168.047H175.922L180.947 175.751V168.047H182.252V178ZM199.17 173.399H194.856V176.927H199.867V178H193.544V168.047H199.798V169.127H194.856V172.326H199.17V173.399ZM91.7679 193.563C90.6423 193.24 89.822 192.843 89.307 192.374C88.7966 191.9 88.5414 191.317 88.5414 190.624C88.5414 189.84 88.8535 189.193 89.4779 188.683C90.1068 188.168 90.9226 187.91 91.9252 187.91C92.6087 187.91 93.2171 188.042 93.7504 188.307C94.2881 188.571 94.7028 188.936 94.9945 189.4C95.2907 189.865 95.4388 190.373 95.4388 190.925H94.1195C94.1195 190.323 93.9281 189.852 93.5453 189.51C93.1625 189.163 92.6224 188.99 91.9252 188.99C91.278 188.99 90.7722 189.134 90.4076 189.421C90.0476 189.703 89.8675 190.098 89.8675 190.604C89.8675 191.009 90.0384 191.353 90.3802 191.636C90.7266 191.914 91.3122 192.169 92.1371 192.401C92.9665 192.634 93.6136 192.891 94.0785 193.174C94.5479 193.452 94.8942 193.778 95.1175 194.151C95.3454 194.525 95.4593 194.965 95.4593 195.471C95.4593 196.277 95.1449 196.924 94.516 197.412C93.8871 197.895 93.0462 198.137 91.9935 198.137C91.3099 198.137 90.6719 198.007 90.0795 197.747C89.487 197.483 89.029 197.123 88.7054 196.667C88.3864 196.211 88.2269 195.694 88.2269 195.115H89.5462C89.5462 195.717 89.7673 196.193 90.2093 196.544C90.6559 196.89 91.2507 197.063 91.9935 197.063C92.6862 197.063 93.2171 196.922 93.5863 196.64C93.9554 196.357 94.14 195.972 94.14 195.484C94.14 194.997 93.9691 194.621 93.6273 194.356C93.2855 194.088 92.6657 193.823 91.7679 193.563ZM113.757 198H112.438V193.399H107.42V198H106.108V188.047H107.42V192.326H112.438V188.047H113.757V198ZM132.705 193.345C132.705 194.32 132.54 195.172 132.212 195.901C131.884 196.626 131.419 197.18 130.818 197.562C130.216 197.945 129.514 198.137 128.712 198.137C127.928 198.137 127.234 197.945 126.627 197.562C126.021 197.175 125.55 196.626 125.212 195.915C124.88 195.2 124.709 194.372 124.7 193.434V192.716C124.7 191.759 124.866 190.913 125.199 190.18C125.531 189.446 126.001 188.885 126.607 188.498C127.218 188.106 127.915 187.91 128.699 187.91C129.496 187.91 130.198 188.104 130.804 188.491C131.415 188.874 131.884 189.432 132.212 190.166C132.54 190.895 132.705 191.745 132.705 192.716V193.345ZM131.399 192.702C131.399 191.522 131.162 190.617 130.688 189.988C130.214 189.355 129.551 189.038 128.699 189.038C127.869 189.038 127.215 189.355 126.737 189.988C126.263 190.617 126.019 191.492 126.005 192.613V193.345C126.005 194.489 126.245 195.389 126.723 196.045C127.206 196.697 127.869 197.022 128.712 197.022C129.56 197.022 130.216 196.715 130.681 196.1C131.146 195.48 131.385 194.593 131.399 193.44V192.702ZM144.946 194.104V198H143.633V188.047H147.304C148.393 188.047 149.246 188.325 149.861 188.881C150.481 189.437 150.791 190.173 150.791 191.089C150.791 192.055 150.487 192.8 149.881 193.324C149.28 193.844 148.416 194.104 147.291 194.104H144.946ZM144.946 193.03H147.304C148.006 193.03 148.544 192.866 148.917 192.538C149.291 192.205 149.478 191.727 149.478 191.103C149.478 190.51 149.291 190.036 148.917 189.681C148.544 189.325 148.031 189.141 147.379 189.127H144.946V193.03ZM162.738 194.104V198H161.425V188.047H165.096C166.185 188.047 167.038 188.325 167.653 188.881C168.273 189.437 168.583 190.173 168.583 191.089C168.583 192.055 168.279 192.8 167.673 193.324C167.072 193.844 166.208 194.104 165.083 194.104H162.738ZM162.738 193.03H165.096C165.798 193.03 166.336 192.866 166.709 192.538C167.083 192.205 167.27 191.727 167.27 191.103C167.27 190.51 167.083 190.036 166.709 189.681C166.336 189.325 165.823 189.141 165.171 189.127H162.738V193.03ZM180.626 198H179.313V188.047H180.626V198ZM199.641 198H198.322L193.311 190.33V198H191.992V188.047H193.311L198.336 195.751V188.047H199.641V198ZM218.281 196.694C217.944 197.177 217.472 197.54 216.866 197.781C216.264 198.018 215.562 198.137 214.76 198.137C213.949 198.137 213.229 197.948 212.6 197.569C211.971 197.187 211.484 196.644 211.137 195.942C210.796 195.241 210.62 194.427 210.611 193.502V192.634C210.611 191.134 210.96 189.972 211.657 189.147C212.359 188.323 213.343 187.91 214.61 187.91C215.649 187.91 216.485 188.177 217.119 188.71C217.752 189.239 218.14 189.991 218.281 190.966H216.968C216.722 189.649 215.938 188.99 214.617 188.99C213.737 188.99 213.07 189.3 212.614 189.92C212.163 190.535 211.935 191.428 211.93 192.6V193.413C211.93 194.53 212.186 195.418 212.696 196.079C213.206 196.735 213.897 197.063 214.767 197.063C215.259 197.063 215.69 197.009 216.059 196.899C216.428 196.79 216.734 196.605 216.975 196.346V194.11H214.672V193.044H218.281V196.694Z" fill="white"/>
<path d="M117.749 144.344C117.551 144.307 117.34 144.289 117.116 144.289C116.533 144.289 116.038 144.453 115.632 144.781C115.231 145.104 114.944 145.576 114.772 146.195V152H113.842V143.547H114.757L114.772 144.891C115.267 143.891 116.061 143.391 117.155 143.391C117.415 143.391 117.621 143.424 117.772 143.492L117.749 144.344ZM124.03 152.156C123.312 152.156 122.661 151.979 122.077 151.625C121.499 151.271 121.049 150.779 120.726 150.148C120.403 149.513 120.241 148.802 120.241 148.016V147.68C120.241 146.867 120.397 146.135 120.71 145.484C121.028 144.833 121.468 144.323 122.03 143.953C122.593 143.578 123.202 143.391 123.858 143.391C124.884 143.391 125.697 143.742 126.296 144.445C126.9 145.143 127.202 146.099 127.202 147.312V147.836H121.171V148.016C121.171 148.974 121.444 149.773 121.991 150.414C122.543 151.049 123.236 151.367 124.069 151.367C124.569 151.367 125.009 151.276 125.39 151.094C125.775 150.911 126.124 150.62 126.437 150.219L127.022 150.664C126.335 151.659 125.338 152.156 124.03 152.156ZM123.858 144.188C123.155 144.188 122.562 144.445 122.077 144.961C121.598 145.477 121.306 146.169 121.202 147.039H126.272V146.938C126.246 146.125 126.015 145.464 125.577 144.953C125.14 144.443 124.567 144.188 123.858 144.188ZM130.327 147.695C130.327 146.383 130.619 145.339 131.202 144.562C131.791 143.781 132.588 143.391 133.593 143.391C134.734 143.391 135.604 143.841 136.202 144.742V140H137.132V152H136.257L136.218 150.875C135.619 151.729 134.739 152.156 133.577 152.156C132.604 152.156 131.817 151.766 131.218 150.984C130.624 150.198 130.327 149.138 130.327 147.805V147.695ZM131.273 147.859C131.273 148.938 131.489 149.789 131.921 150.414C132.354 151.034 132.963 151.344 133.749 151.344C134.9 151.344 135.718 150.836 136.202 149.82V145.852C135.718 144.753 134.906 144.203 133.765 144.203C132.979 144.203 132.367 144.513 131.929 145.133C131.492 145.747 131.273 146.656 131.273 147.859ZM144.547 152.156C143.828 152.156 143.177 151.979 142.593 151.625C142.015 151.271 141.565 150.779 141.242 150.148C140.919 149.513 140.757 148.802 140.757 148.016V147.68C140.757 146.867 140.914 146.135 141.226 145.484C141.544 144.833 141.984 144.323 142.547 143.953C143.109 143.578 143.718 143.391 144.375 143.391C145.401 143.391 146.213 143.742 146.812 144.445C147.416 145.143 147.718 146.099 147.718 147.312V147.836H141.687V148.016C141.687 148.974 141.961 149.773 142.507 150.414C143.06 151.049 143.752 151.367 144.586 151.367C145.086 151.367 145.526 151.276 145.906 151.094C146.291 150.911 146.64 150.62 146.953 150.219L147.539 150.664C146.851 151.659 145.854 152.156 144.547 152.156ZM144.375 144.188C143.672 144.188 143.078 144.445 142.593 144.961C142.114 145.477 141.823 146.169 141.718 147.039H146.789V146.938C146.763 146.125 146.531 145.464 146.093 144.953C145.656 144.443 145.083 144.188 144.375 144.188ZM151.781 152V144.312H150.375V143.547H151.781V142.68C151.781 141.779 152.026 141.081 152.516 140.586C153.005 140.086 153.695 139.836 154.586 139.836C155.284 139.836 156.003 139.99 156.742 140.297L156.586 141.102C155.951 140.826 155.305 140.688 154.648 140.688C153.362 140.688 152.719 141.357 152.719 142.695V143.547H154.695V144.312H152.719V152H151.781ZM157.25 152H156.312V143.547H157.25V152ZM162.383 143.547L162.414 144.992C162.732 144.471 163.128 144.076 163.602 143.805C164.076 143.529 164.599 143.391 165.172 143.391C166.078 143.391 166.753 143.646 167.196 144.156C167.638 144.667 167.862 145.432 167.868 146.453V152H166.938V146.445C166.933 145.69 166.771 145.128 166.453 144.758C166.141 144.388 165.638 144.203 164.946 144.203C164.368 144.203 163.854 144.385 163.407 144.75C162.964 145.109 162.636 145.596 162.422 146.211V152H161.493V143.547H162.383ZM173.016 152H172.079V143.547H173.016V152ZM171.915 141.102C171.915 140.924 171.972 140.776 172.087 140.656C172.201 140.531 172.357 140.469 172.555 140.469C172.753 140.469 172.909 140.531 173.024 140.656C173.144 140.776 173.204 140.924 173.204 141.102C173.204 141.279 173.144 141.427 173.024 141.547C172.909 141.667 172.753 141.727 172.555 141.727C172.357 141.727 172.201 141.667 172.087 141.547C171.972 141.427 171.915 141.279 171.915 141.102ZM178.134 143.547L178.165 144.992C178.483 144.471 178.879 144.076 179.352 143.805C179.826 143.529 180.35 143.391 180.923 143.391C181.829 143.391 182.504 143.646 182.946 144.156C183.389 144.667 183.613 145.432 183.618 146.453V152H182.688V146.445C182.683 145.69 182.522 145.128 182.204 144.758C181.892 144.388 181.389 144.203 180.696 144.203C180.118 144.203 179.605 144.385 179.157 144.75C178.714 145.109 178.386 145.596 178.173 146.211V152H177.243V143.547H178.134ZM187.345 147.695C187.345 146.372 187.637 145.326 188.22 144.555C188.809 143.779 189.605 143.391 190.611 143.391C191.762 143.391 192.637 143.849 193.236 144.766L193.283 143.547H194.158V151.828C194.158 152.917 193.853 153.779 193.243 154.414C192.634 155.049 191.809 155.367 190.767 155.367C190.178 155.367 189.616 155.234 189.079 154.969C188.548 154.708 188.129 154.359 187.822 153.922L188.345 153.359C189.006 154.172 189.793 154.578 190.704 154.578C191.486 154.578 192.095 154.346 192.533 153.883C192.97 153.424 193.197 152.786 193.212 151.969V150.906C192.613 151.74 191.741 152.156 190.595 152.156C189.616 152.156 188.829 151.766 188.236 150.984C187.642 150.203 187.345 149.148 187.345 147.82V147.695ZM188.29 147.859C188.29 148.938 188.506 149.789 188.939 150.414C189.371 151.034 189.98 151.344 190.767 151.344C191.918 151.344 192.733 150.828 193.212 149.797V145.867C192.993 145.326 192.678 144.914 192.267 144.633C191.855 144.346 191.361 144.203 190.783 144.203C189.996 144.203 189.384 144.513 188.947 145.133C188.509 145.747 188.29 146.656 188.29 147.859Z" fill="white"/>
<path d="M104.432 123C104.349 122.839 104.276 122.576 104.213 122.211C103.609 122.841 102.869 123.156 101.994 123.156C101.145 123.156 100.453 122.914 99.9163 122.43C99.3798 121.945 99.1116 121.346 99.1116 120.633C99.1116 119.732 99.4449 119.042 100.112 118.562C100.783 118.078 101.742 117.836 102.987 117.836H104.151V117.281C104.151 116.844 104.028 116.495 103.783 116.234C103.539 115.969 103.166 115.836 102.666 115.836C102.234 115.836 101.88 115.945 101.604 116.164C101.328 116.378 101.19 116.651 101.19 116.984H99.2913C99.2913 116.521 99.4449 116.089 99.7522 115.688C100.059 115.281 100.476 114.964 101.002 114.734C101.533 114.505 102.125 114.391 102.776 114.391C103.765 114.391 104.554 114.641 105.143 115.141C105.731 115.635 106.033 116.333 106.049 117.234V121.047C106.049 121.807 106.156 122.414 106.369 122.867V123H104.432ZM102.346 121.633C102.721 121.633 103.073 121.542 103.401 121.359C103.734 121.177 103.984 120.932 104.151 120.625V119.031H103.127C102.424 119.031 101.895 119.154 101.541 119.398C101.187 119.643 101.01 119.99 101.01 120.438C101.01 120.802 101.13 121.094 101.369 121.312C101.614 121.526 101.94 121.633 102.346 121.633ZM117.12 118.859C117.12 120.167 116.823 121.211 116.229 121.992C115.635 122.768 114.838 123.156 113.838 123.156C112.911 123.156 112.169 122.852 111.612 122.242V126.25H109.713V114.547H111.463L111.542 115.406C112.099 114.729 112.857 114.391 113.815 114.391C114.846 114.391 115.654 114.776 116.237 115.547C116.825 116.312 117.12 117.378 117.12 118.742V118.859ZM115.229 118.695C115.229 117.852 115.06 117.182 114.721 116.688C114.388 116.193 113.909 115.945 113.284 115.945C112.508 115.945 111.95 116.266 111.612 116.906V120.656C111.956 121.312 112.518 121.641 113.299 121.641C113.904 121.641 114.375 121.398 114.713 120.914C115.057 120.424 115.229 119.685 115.229 118.695ZM127.815 118.859C127.815 120.167 127.518 121.211 126.925 121.992C126.331 122.768 125.534 123.156 124.534 123.156C123.607 123.156 122.865 122.852 122.308 122.242V126.25H120.409V114.547H122.159L122.237 115.406C122.794 114.729 123.552 114.391 124.511 114.391C125.542 114.391 126.349 114.776 126.933 115.547C127.521 116.312 127.815 117.378 127.815 118.742V118.859ZM125.925 118.695C125.925 117.852 125.755 117.182 125.417 116.688C125.084 116.193 124.604 115.945 123.979 115.945C123.203 115.945 122.646 116.266 122.308 116.906V120.656C122.651 121.312 123.214 121.641 123.995 121.641C124.599 121.641 125.071 121.398 125.409 120.914C125.753 120.424 125.925 119.685 125.925 118.695ZM141.199 116.281C140.949 116.24 140.691 116.219 140.425 116.219C139.556 116.219 138.97 116.552 138.668 117.219V123H136.769V114.547H138.582L138.628 115.492C139.087 114.758 139.722 114.391 140.535 114.391C140.806 114.391 141.029 114.427 141.207 114.5L141.199 116.281ZM147.644 123.156C146.441 123.156 145.465 122.779 144.715 122.023C143.97 121.263 143.598 120.253 143.598 118.992V118.758C143.598 117.914 143.759 117.161 144.082 116.5C144.41 115.833 144.868 115.315 145.457 114.945C146.045 114.576 146.702 114.391 147.426 114.391C148.577 114.391 149.465 114.758 150.09 115.492C150.72 116.227 151.035 117.266 151.035 118.609V119.375H145.512C145.569 120.073 145.801 120.625 146.207 121.031C146.618 121.438 147.134 121.641 147.754 121.641C148.624 121.641 149.332 121.289 149.879 120.586L150.902 121.562C150.564 122.068 150.111 122.461 149.543 122.742C148.98 123.018 148.348 123.156 147.644 123.156ZM147.418 115.914C146.897 115.914 146.475 116.096 146.152 116.461C145.834 116.826 145.631 117.333 145.543 117.984H149.16V117.844C149.118 117.208 148.949 116.729 148.652 116.406C148.355 116.078 147.944 115.914 147.418 115.914ZM153.84 118.711C153.84 117.409 154.142 116.365 154.746 115.578C155.35 114.786 156.16 114.391 157.176 114.391C158.072 114.391 158.796 114.703 159.348 115.328V111H161.246V123H159.527L159.434 122.125C158.866 122.812 158.108 123.156 157.16 123.156C156.171 123.156 155.369 122.758 154.754 121.961C154.145 121.164 153.84 120.081 153.84 118.711ZM155.738 118.875C155.738 119.734 155.902 120.406 156.231 120.891C156.564 121.37 157.035 121.609 157.645 121.609C158.421 121.609 158.988 121.263 159.348 120.57V116.961C158.999 116.284 158.436 115.945 157.66 115.945C157.046 115.945 156.572 116.19 156.238 116.68C155.905 117.164 155.738 117.896 155.738 118.875ZM168.629 123.156C167.426 123.156 166.45 122.779 165.7 122.023C164.955 121.263 164.583 120.253 164.583 118.992V118.758C164.583 117.914 164.744 117.161 165.067 116.5C165.395 115.833 165.853 115.315 166.442 114.945C167.03 114.576 167.687 114.391 168.411 114.391C169.562 114.391 170.45 114.758 171.075 115.492C171.705 116.227 172.02 117.266 172.02 118.609V119.375H166.497C166.554 120.073 166.786 120.625 167.192 121.031C167.603 121.438 168.119 121.641 168.739 121.641C169.609 121.641 170.317 121.289 170.864 120.586L171.887 121.562C171.549 122.068 171.096 122.461 170.528 122.742C169.965 123.018 169.333 123.156 168.629 123.156ZM168.403 115.914C167.882 115.914 167.46 116.096 167.137 116.461C166.819 116.826 166.616 117.333 166.528 117.984H170.145V117.844C170.103 117.208 169.934 116.729 169.637 116.406C169.34 116.078 168.929 115.914 168.403 115.914ZM179.919 120.703C179.919 120.365 179.778 120.107 179.497 119.93C179.221 119.753 178.76 119.596 178.114 119.461C177.468 119.326 176.929 119.154 176.497 118.945C175.549 118.487 175.075 117.823 175.075 116.953C175.075 116.224 175.382 115.615 175.997 115.125C176.611 114.635 177.393 114.391 178.341 114.391C179.351 114.391 180.166 114.641 180.786 115.141C181.411 115.641 181.723 116.289 181.723 117.086H179.825C179.825 116.721 179.69 116.419 179.419 116.18C179.148 115.935 178.789 115.812 178.341 115.812C177.924 115.812 177.583 115.909 177.317 116.102C177.057 116.294 176.927 116.552 176.927 116.875C176.927 117.167 177.049 117.393 177.294 117.555C177.539 117.716 178.033 117.88 178.778 118.047C179.523 118.208 180.106 118.404 180.528 118.633C180.955 118.857 181.27 119.128 181.473 119.445C181.682 119.763 181.786 120.148 181.786 120.602C181.786 121.362 181.471 121.979 180.841 122.453C180.21 122.922 179.385 123.156 178.364 123.156C177.671 123.156 177.054 123.031 176.513 122.781C175.971 122.531 175.549 122.188 175.247 121.75C174.945 121.312 174.794 120.841 174.794 120.336H176.638C176.664 120.784 176.833 121.13 177.145 121.375C177.458 121.615 177.872 121.734 178.388 121.734C178.888 121.734 179.268 121.641 179.528 121.453C179.789 121.26 179.919 121.01 179.919 120.703ZM187.146 123H185.247V114.547H187.146V123ZM185.13 112.352C185.13 112.06 185.221 111.818 185.403 111.625C185.591 111.432 185.857 111.336 186.2 111.336C186.544 111.336 186.81 111.432 186.997 111.625C187.185 111.818 187.278 112.06 187.278 112.352C187.278 112.638 187.185 112.878 186.997 113.07C186.81 113.258 186.544 113.352 186.2 113.352C185.857 113.352 185.591 113.258 185.403 113.07C185.221 112.878 185.13 112.638 185.13 112.352ZM190.568 118.711C190.568 117.398 190.875 116.352 191.49 115.57C192.109 114.784 192.93 114.391 193.951 114.391C194.914 114.391 195.672 114.727 196.224 115.398L196.31 114.547H198.021V122.742C198.021 123.852 197.675 124.727 196.982 125.367C196.294 126.008 195.365 126.328 194.193 126.328C193.573 126.328 192.966 126.198 192.373 125.938C191.784 125.682 191.336 125.346 191.029 124.93L191.927 123.789C192.511 124.482 193.229 124.828 194.083 124.828C194.714 124.828 195.211 124.656 195.576 124.312C195.94 123.974 196.123 123.474 196.123 122.812V122.242C195.576 122.852 194.846 123.156 193.935 123.156C192.945 123.156 192.136 122.763 191.505 121.977C190.88 121.19 190.568 120.102 190.568 118.711ZM192.458 118.875C192.458 119.724 192.63 120.393 192.974 120.883C193.323 121.367 193.805 121.609 194.419 121.609C195.185 121.609 195.753 121.281 196.123 120.625V116.906C195.763 116.266 195.201 115.945 194.435 115.945C193.81 115.945 193.323 116.193 192.974 116.688C192.63 117.182 192.458 117.911 192.458 118.875ZM203.42 114.547L203.474 115.523C204.099 114.768 204.92 114.391 205.935 114.391C207.696 114.391 208.592 115.398 208.623 117.414V123H206.724V117.523C206.724 116.987 206.607 116.591 206.373 116.336C206.144 116.076 205.766 115.945 205.24 115.945C204.474 115.945 203.904 116.292 203.529 116.984V123H201.631V114.547H203.42Z" fill="white"/>
<path d="M162.083 77.9762V73.1441C162.096 70.9577 161.222 68.8553 159.663 67.3223C158.156 65.8215 156.183 65 154.094 65C154.061 65 154.023 65 153.99 65C149.533 65.0065 145.911 68.6548 145.911 73.1441V77.9762C144.229 78.1767 143 79.5869 143 81.2946V92.1491C143 93.9927 144.475 95.5128 146.318 95.5128H161.682C163.525 95.5128 165 93.9927 165 92.1491V81.2946C164.994 79.5934 163.764 78.1767 162.083 77.9762ZM147.198 73.1441H147.205C147.205 69.3664 150.251 66.2743 153.997 66.2743H154.003C155.782 66.2679 157.49 66.9729 158.751 68.2279C160.064 69.5281 160.795 71.3005 160.782 73.1441V77.9827H159.359V73.1441C159.372 71.6757 158.79 70.2655 157.749 69.2305C156.765 68.2473 155.433 67.691 154.042 67.691H154.003C151.028 67.691 148.621 70.1361 148.621 73.1376V77.9827H147.198V73.1441ZM158.072 73.1441V77.9827H149.921V73.1441C149.921 70.8542 151.746 68.9912 154.01 68.9912H154.049C155.096 68.9912 156.106 69.4116 156.849 70.1555C157.639 70.9447 158.085 72.025 158.072 73.1441ZM163.764 92.1685C163.764 93.3005 162.846 94.2191 161.714 94.2191H146.344C145.212 94.2191 144.294 93.3005 144.294 92.1685V81.327C144.294 80.1949 145.212 79.2764 146.344 79.2764H161.714C162.846 79.2764 163.764 80.1949 163.764 81.327V92.1685Z" fill="white"/>
<path d="M156.237 86.3465C155.953 85.3439 155.041 84.6582 153.999 84.6582C152.712 84.6582 151.664 85.6997 151.664 86.9934C151.664 88.0349 152.35 88.9469 153.352 89.2316V91.0428C153.352 91.3986 153.643 91.6897 153.999 91.6897C154.355 91.6897 154.646 91.3986 154.646 91.0428V89.2316C155.882 88.8758 156.6 87.582 156.237 86.3465ZM153.999 88.0284C153.424 88.0284 152.958 87.5626 152.958 86.9869C152.958 86.4112 153.424 85.9455 153.999 85.9455C154.575 85.9455 155.041 86.4112 155.041 86.9869C155.041 87.5626 154.575 88.0284 153.999 88.0284Z" fill="white"/>
<defs>
<filter id="filter0_d" x="0" y="0" width="308" height="282" filterUnits="userSpaceOnUse" color-interpolation-filters="sRGB">
<feFlood flood-opacity="0" result="BackgroundImageFix"/>
<feColorMatrix in="SourceAlpha" type="matrix" values="0 0 0 0 0 0 0 0 0 0 0 0 0 0 0 0 0 0 127 0"/>
<feOffset dy="4"/>
<feGaussianBlur stdDeviation="2"/>
<feColorMatrix type="matrix" values="0 0 0 0 0 0 0 0 0 0 0 0 0 0 0 0 0 0 0.25 0"/>
<feBlend mode="normal" in2="BackgroundImageFix" result="effect1_dropShadow"/>
<feBlend mode="normal" in="SourceGraphic" in2="effect1_dropShadow" result="shape"/>
</filter>
</defs>
</svg>
