<svg width="308" height="282" viewBox="0 0 308 282" fill="none" xmlns="http://www.w3.org/2000/svg">
<g filter="url(#filter0_d)">
<rect x="4" width="300" height="274" rx="10" fill="#E6F0FF"/>
</g>
<path d="M62.6016 150.031H57.8359L56.7656 153H55.2188L59.5625 141.625H60.875L65.2266 153H63.6875L62.6016 150.031ZM58.2891 148.797H62.1562L60.2188 143.477L58.2891 148.797ZM78.4978 148.547V153H76.9978V141.625H81.1931C82.4379 141.625 83.4119 141.943 84.115 142.578C84.8233 143.214 85.1775 144.055 85.1775 145.102C85.1775 146.206 84.8311 147.057 84.1384 147.656C83.4509 148.25 82.464 148.547 81.1775 148.547H78.4978ZM78.4978 147.32H81.1931C81.9952 147.32 82.6098 147.133 83.0369 146.758C83.464 146.378 83.6775 145.831 83.6775 145.117C83.6775 144.44 83.464 143.898 83.0369 143.492C82.6098 143.086 82.0239 142.875 81.2791 142.859H78.4978V147.32ZM98.8316 148.547V153H97.3316V141.625H101.527C102.772 141.625 103.746 141.943 104.449 142.578C105.157 143.214 105.511 144.055 105.511 145.102C105.511 146.206 105.165 147.057 104.472 147.656C103.785 148.25 102.798 148.547 101.511 148.547H98.8316ZM98.8316 147.32H101.527C102.329 147.32 102.944 147.133 103.371 146.758C103.798 146.378 104.011 145.831 104.011 145.117C104.011 144.44 103.798 143.898 103.371 143.492C102.944 143.086 102.358 142.875 101.613 142.859H98.8316V147.32ZM60.4922 170.398H57.8203V175H56.3125V163.625H60.0781C61.3594 163.625 62.3438 163.917 63.0312 164.5C63.724 165.083 64.0703 165.932 64.0703 167.047C64.0703 167.755 63.8776 168.372 63.4922 168.898C63.112 169.424 62.5807 169.818 61.8984 170.078L64.5703 174.906V175H62.9609L60.4922 170.398ZM57.8203 169.172H60.125C60.8698 169.172 61.4609 168.979 61.8984 168.594C62.3411 168.208 62.5625 167.693 62.5625 167.047C62.5625 166.344 62.3516 165.805 61.9297 165.43C61.513 165.055 60.9089 164.865 60.1172 164.859H57.8203V169.172ZM82.8494 169.742H77.9197V173.773H83.6462V175H76.4197V163.625H83.5681V164.859H77.9197V168.516H82.8494V169.742ZM95.7534 175V163.625H98.9644C99.954 163.625 100.829 163.844 101.589 164.281C102.35 164.719 102.936 165.341 103.347 166.148C103.764 166.956 103.975 167.883 103.98 168.93V169.656C103.98 170.729 103.772 171.669 103.355 172.477C102.944 173.284 102.352 173.904 101.582 174.336C100.816 174.768 99.9227 174.99 98.9019 175H95.7534ZM97.2534 164.859V173.773H98.8316C99.9878 173.773 100.886 173.414 101.527 172.695C102.173 171.977 102.496 170.953 102.496 169.625V168.961C102.496 167.669 102.191 166.667 101.582 165.953C100.977 165.234 100.118 164.87 99.0034 164.859H97.2534ZM122.923 169.742H117.993V173.773H123.72V175H116.493V163.625H123.642V164.859H117.993V168.516H122.923V169.742ZM139.179 169.93C137.892 169.56 136.955 169.107 136.366 168.57C135.783 168.029 135.491 167.362 135.491 166.57C135.491 165.674 135.848 164.935 136.562 164.352C137.28 163.763 138.213 163.469 139.358 163.469C140.14 163.469 140.835 163.62 141.444 163.922C142.059 164.224 142.533 164.641 142.866 165.172C143.205 165.703 143.374 166.284 143.374 166.914H141.866C141.866 166.227 141.647 165.688 141.21 165.297C140.772 164.901 140.155 164.703 139.358 164.703C138.619 164.703 138.041 164.867 137.624 165.195C137.213 165.518 137.007 165.969 137.007 166.547C137.007 167.01 137.202 167.404 137.593 167.727C137.989 168.044 138.658 168.336 139.601 168.602C140.549 168.867 141.288 169.161 141.819 169.484C142.356 169.802 142.752 170.174 143.007 170.602C143.267 171.029 143.397 171.531 143.397 172.109C143.397 173.031 143.038 173.771 142.319 174.328C141.601 174.88 140.64 175.156 139.437 175.156C138.655 175.156 137.926 175.008 137.249 174.711C136.572 174.409 136.049 173.997 135.679 173.477C135.314 172.956 135.132 172.365 135.132 171.703H136.64C136.64 172.391 136.892 172.935 137.397 173.336C137.908 173.732 138.588 173.93 139.437 173.93C140.228 173.93 140.835 173.768 141.257 173.445C141.679 173.122 141.89 172.682 141.89 172.125C141.89 171.568 141.694 171.138 141.304 170.836C140.913 170.529 140.205 170.227 139.179 169.93ZM157.177 175H155.677V163.625H157.177V175ZM178.565 173.508C178.18 174.06 177.641 174.474 176.948 174.75C176.26 175.021 175.458 175.156 174.542 175.156C173.614 175.156 172.792 174.94 172.073 174.508C171.354 174.07 170.797 173.451 170.401 172.648C170.01 171.846 169.81 170.917 169.799 169.859V168.867C169.799 167.154 170.198 165.826 170.995 164.883C171.797 163.94 172.922 163.469 174.37 163.469C175.557 163.469 176.513 163.773 177.237 164.383C177.961 164.987 178.404 165.846 178.565 166.961H177.065C176.784 165.456 175.888 164.703 174.378 164.703C173.372 164.703 172.609 165.057 172.088 165.766C171.573 166.469 171.312 167.49 171.307 168.828V169.758C171.307 171.034 171.599 172.049 172.182 172.805C172.766 173.555 173.555 173.93 174.549 173.93C175.112 173.93 175.604 173.867 176.026 173.742C176.448 173.617 176.797 173.406 177.073 173.109V170.555H174.44V169.336H178.565V173.508ZM200.055 175H198.547L192.821 166.234V175H191.313V163.625H192.821L198.563 172.43V163.625H200.055V175Z" fill="#444444"/>
<path d="M64.625 108.625V116.117C64.625 117.362 64.2344 118.346 63.4531 119.07C62.6771 119.794 61.6146 120.156 60.2656 120.156C58.9375 120.156 57.8828 119.805 57.1016 119.102C56.3203 118.398 55.9219 117.432 55.9062 116.203V108.625H58.25V116.133C58.25 116.878 58.4271 117.422 58.7812 117.766C59.1406 118.104 59.6354 118.273 60.2656 118.273C61.5833 118.273 62.2526 117.581 62.2734 116.195V108.625H64.625ZM75.7969 120H73.4531L68.8906 112.516V120H66.5469V108.625H68.8906L73.4609 116.125V108.625H75.7969V120ZM80.3359 120H77.9922V108.625H80.3359V120ZM91.8438 114.57C91.8438 115.633 91.6719 116.557 91.3281 117.344C90.9844 118.125 90.5078 118.753 89.8984 119.227L91.7891 120.711L90.2969 122.031L87.875 120.086C87.599 120.133 87.3125 120.156 87.0156 120.156C86.0729 120.156 85.2318 119.93 84.4922 119.477C83.7526 119.023 83.1797 118.378 82.7734 117.539C82.3672 116.695 82.1615 115.727 82.1562 114.633V114.07C82.1562 112.951 82.3568 111.966 82.7578 111.117C83.1641 110.263 83.7344 109.609 84.4688 109.156C85.2083 108.698 86.0521 108.469 87 108.469C87.9479 108.469 88.7891 108.698 89.5234 109.156C90.263 109.609 90.8333 110.263 91.2344 111.117C91.6406 111.966 91.8438 112.948 91.8438 114.062V114.57ZM89.4688 114.055C89.4688 112.862 89.2552 111.956 88.8281 111.336C88.401 110.716 87.7917 110.406 87 110.406C86.2135 110.406 85.6068 110.714 85.1797 111.328C84.7526 111.938 84.5365 112.833 84.5312 114.016V114.57C84.5312 115.732 84.7448 116.633 85.1719 117.273C85.599 117.914 86.2135 118.234 87.0156 118.234C87.8021 118.234 88.4062 117.927 88.8281 117.312C89.25 116.693 89.4635 115.792 89.4688 114.609V114.055ZM95.9062 118.117H100.883V120H93.5625V108.625H95.9062V118.117ZM111.078 114.57C111.078 115.69 110.88 116.672 110.484 117.516C110.089 118.359 109.521 119.01 108.781 119.469C108.047 119.927 107.203 120.156 106.25 120.156C105.307 120.156 104.466 119.93 103.727 119.477C102.987 119.023 102.414 118.378 102.008 117.539C101.602 116.695 101.396 115.727 101.391 114.633V114.07C101.391 112.951 101.591 111.966 101.992 111.117C102.398 110.263 102.969 109.609 103.703 109.156C104.443 108.698 105.286 108.469 106.234 108.469C107.182 108.469 108.023 108.698 108.758 109.156C109.497 109.609 110.068 110.263 110.469 111.117C110.875 111.966 111.078 112.948 111.078 114.062V114.57ZM108.703 114.055C108.703 112.862 108.49 111.956 108.062 111.336C107.635 110.716 107.026 110.406 106.234 110.406C105.448 110.406 104.841 110.714 104.414 111.328C103.987 111.938 103.771 112.833 103.766 114.016V114.57C103.766 115.732 103.979 116.633 104.406 117.273C104.833 117.914 105.448 118.234 106.25 118.234C107.036 118.234 107.641 117.927 108.062 117.312C108.484 116.693 108.698 115.792 108.703 114.609V114.055Z" fill="#444444"/>
<path d="M59.3125 75.5078H58.2031V87.9062H59.3125V89.6484H55.9375V73.7656H59.3125V75.5078ZM63.8359 85.3359C64.2526 85.3359 64.5911 85.2214 64.8516 84.9922C65.112 84.763 65.2474 84.4583 65.2578 84.0781H67.375C67.3698 84.651 67.2135 85.1771 66.9062 85.6562C66.599 86.1302 66.1771 86.5 65.6406 86.7656C65.1094 87.026 64.5208 87.1562 63.875 87.1562C62.6667 87.1562 61.7135 86.7734 61.0156 86.0078C60.3177 85.237 59.9688 84.1745 59.9688 82.8203V82.6719C59.9688 81.3698 60.3151 80.3307 61.0078 79.5547C61.7005 78.7786 62.651 78.3906 63.8594 78.3906C64.9167 78.3906 65.763 78.6927 66.3984 79.2969C67.0391 79.8958 67.3646 80.6953 67.375 81.6953H65.2578C65.2474 81.2578 65.112 80.9036 64.8516 80.6328C64.5911 80.3568 64.2474 80.2188 63.8203 80.2188C63.2943 80.2188 62.8958 80.4115 62.625 80.7969C62.3594 81.1771 62.2266 81.7969 62.2266 82.6562V82.8906C62.2266 83.7604 62.3594 84.3854 62.625 84.7656C62.8906 85.1458 63.2943 85.3359 63.8359 85.3359ZM68.3125 82.6953C68.3125 81.8568 68.474 81.1094 68.7969 80.4531C69.1198 79.7969 69.5833 79.2891 70.1875 78.9297C70.7969 78.5703 71.5026 78.3906 72.3047 78.3906C73.4453 78.3906 74.375 78.7396 75.0938 79.4375C75.8177 80.1354 76.2214 81.0833 76.3047 82.2812L76.3203 82.8594C76.3203 84.1562 75.9583 85.1979 75.2344 85.9844C74.5104 86.7656 73.5391 87.1562 72.3203 87.1562C71.1016 87.1562 70.1276 86.7656 69.3984 85.9844C68.6745 85.2031 68.3125 84.1406 68.3125 82.7969V82.6953ZM70.5703 82.8594C70.5703 83.6615 70.7214 84.276 71.0234 84.7031C71.3255 85.125 71.7578 85.3359 72.3203 85.3359C72.8672 85.3359 73.2943 85.1276 73.6016 84.7109C73.9089 84.2891 74.0625 83.6172 74.0625 82.6953C74.0625 81.9089 73.9089 81.2995 73.6016 80.8672C73.2943 80.4349 72.862 80.2188 72.3047 80.2188C71.7526 80.2188 71.3255 80.4349 71.0234 80.8672C70.7214 81.2943 70.5703 81.9583 70.5703 82.8594ZM79.8281 78.5469L79.8984 79.4922C80.4974 78.7578 81.3073 78.3906 82.3281 78.3906C83.4167 78.3906 84.1641 78.8203 84.5703 79.6797C85.1641 78.8203 86.0104 78.3906 87.1094 78.3906C88.026 78.3906 88.7083 78.6589 89.1562 79.1953C89.6042 79.7266 89.8281 80.5286 89.8281 81.6016V87H87.5625V81.6094C87.5625 81.1302 87.4688 80.7812 87.2812 80.5625C87.0938 80.3385 86.763 80.2266 86.2891 80.2266C85.612 80.2266 85.1432 80.5495 84.8828 81.1953L84.8906 87H82.6328V81.6172C82.6328 81.1276 82.5365 80.7734 82.3438 80.5547C82.151 80.3359 81.8229 80.2266 81.3594 80.2266C80.7188 80.2266 80.2552 80.4922 79.9688 81.0234V87H77.7109V78.5469H79.8281ZM93.9531 87H91.6875V78.5469H93.9531V87ZM91.5547 76.3594C91.5547 76.0208 91.6667 75.7422 91.8906 75.5234C92.1198 75.3047 92.4297 75.1953 92.8203 75.1953C93.2057 75.1953 93.513 75.3047 93.7422 75.5234C93.9714 75.7422 94.0859 76.0208 94.0859 76.3594C94.0859 76.7031 93.9688 76.9844 93.7344 77.2031C93.5052 77.4219 93.2005 77.5312 92.8203 77.5312C92.4401 77.5312 92.1328 77.4219 91.8984 77.2031C91.6693 76.9844 91.5547 76.7031 91.5547 76.3594ZM97.8984 78.5469L97.9688 79.5234C98.5729 78.7682 99.3828 78.3906 100.398 78.3906C101.294 78.3906 101.961 78.6536 102.398 79.1797C102.836 79.7057 103.06 80.4922 103.07 81.5391V87H100.812V81.5938C100.812 81.1146 100.708 80.7682 100.5 80.5547C100.292 80.3359 99.9453 80.2266 99.4609 80.2266C98.8255 80.2266 98.349 80.4974 98.0312 81.0391V87H95.7734V78.5469H97.8984ZM104.461 82.7109C104.461 81.4141 104.768 80.3698 105.383 79.5781C106.003 78.7865 106.836 78.3906 107.883 78.3906C108.81 78.3906 109.531 78.7083 110.047 79.3438L110.141 78.5469H112.188V86.7188C112.188 87.4583 112.018 88.1016 111.68 88.6484C111.346 89.1953 110.875 89.612 110.266 89.8984C109.656 90.1849 108.943 90.3281 108.125 90.3281C107.505 90.3281 106.901 90.2031 106.312 89.9531C105.724 89.7083 105.279 89.3906 104.977 89L105.977 87.625C106.539 88.2552 107.221 88.5703 108.023 88.5703C108.622 88.5703 109.089 88.4089 109.422 88.0859C109.755 87.7682 109.922 87.3151 109.922 86.7266V86.2734C109.401 86.862 108.716 87.1562 107.867 87.1562C106.852 87.1562 106.029 86.7604 105.398 85.9688C104.773 85.1719 104.461 84.1172 104.461 82.8047V82.7109ZM106.719 82.875C106.719 83.6406 106.872 84.2422 107.18 84.6797C107.487 85.112 107.909 85.3281 108.445 85.3281C109.133 85.3281 109.625 85.0703 109.922 84.5547V81C109.62 80.4844 109.133 80.2266 108.461 80.2266C107.919 80.2266 107.492 80.4479 107.18 80.8906C106.872 81.3333 106.719 81.9948 106.719 82.875ZM122.492 84.6641C122.492 84.388 122.354 84.1719 122.078 84.0156C121.807 83.8542 121.37 83.7109 120.766 83.5859C118.755 83.1641 117.75 82.3099 117.75 81.0234C117.75 80.2734 118.06 79.6484 118.68 79.1484C119.305 78.6432 120.12 78.3906 121.125 78.3906C122.198 78.3906 123.055 78.6432 123.695 79.1484C124.341 79.6536 124.664 80.3099 124.664 81.1172H122.406C122.406 80.7943 122.302 80.5286 122.094 80.3203C121.885 80.1068 121.56 80 121.117 80C120.737 80 120.443 80.0859 120.234 80.2578C120.026 80.4297 119.922 80.6484 119.922 80.9141C119.922 81.1641 120.039 81.3672 120.273 81.5234C120.513 81.6745 120.914 81.8073 121.477 81.9219C122.039 82.0312 122.513 82.1562 122.898 82.2969C124.091 82.7344 124.688 83.4922 124.688 84.5703C124.688 85.3411 124.357 85.9661 123.695 86.4453C123.034 86.9193 122.18 87.1562 121.133 87.1562C120.424 87.1562 119.794 87.0312 119.242 86.7812C118.695 86.526 118.266 86.1797 117.953 85.7422C117.641 85.2995 117.484 84.8229 117.484 84.3125H119.625C119.646 84.7135 119.794 85.0208 120.07 85.2344C120.346 85.4479 120.716 85.5547 121.18 85.5547C121.612 85.5547 121.938 85.474 122.156 85.3125C122.38 85.1458 122.492 84.9297 122.492 84.6641ZM125.797 82.6953C125.797 81.8568 125.958 81.1094 126.281 80.4531C126.604 79.7969 127.068 79.2891 127.672 78.9297C128.281 78.5703 128.987 78.3906 129.789 78.3906C130.93 78.3906 131.859 78.7396 132.578 79.4375C133.302 80.1354 133.706 81.0833 133.789 82.2812L133.805 82.8594C133.805 84.1562 133.443 85.1979 132.719 85.9844C131.995 86.7656 131.023 87.1562 129.805 87.1562C128.586 87.1562 127.612 86.7656 126.883 85.9844C126.159 85.2031 125.797 84.1406 125.797 82.7969V82.6953ZM128.055 82.8594C128.055 83.6615 128.206 84.276 128.508 84.7031C128.81 85.125 129.242 85.3359 129.805 85.3359C130.352 85.3359 130.779 85.1276 131.086 84.7109C131.393 84.2891 131.547 83.6172 131.547 82.6953C131.547 81.9089 131.393 81.2995 131.086 80.8672C130.779 80.4349 130.346 80.2188 129.789 80.2188C129.237 80.2188 128.81 80.4349 128.508 80.8672C128.206 81.2943 128.055 81.9583 128.055 82.8594ZM134.844 82.6953C134.844 81.8568 135.005 81.1094 135.328 80.4531C135.651 79.7969 136.115 79.2891 136.719 78.9297C137.328 78.5703 138.034 78.3906 138.836 78.3906C139.977 78.3906 140.906 78.7396 141.625 79.4375C142.349 80.1354 142.753 81.0833 142.836 82.2812L142.852 82.8594C142.852 84.1562 142.49 85.1979 141.766 85.9844C141.042 86.7656 140.07 87.1562 138.852 87.1562C137.633 87.1562 136.659 86.7656 135.93 85.9844C135.206 85.2031 134.844 84.1406 134.844 82.7969V82.6953ZM137.102 82.8594C137.102 83.6615 137.253 84.276 137.555 84.7031C137.857 85.125 138.289 85.3359 138.852 85.3359C139.398 85.3359 139.826 85.1276 140.133 84.7109C140.44 84.2891 140.594 83.6172 140.594 82.6953C140.594 81.9089 140.44 81.2995 140.133 80.8672C139.826 80.4349 139.393 80.2188 138.836 80.2188C138.284 80.2188 137.857 80.4349 137.555 80.8672C137.253 81.2943 137.102 81.9583 137.102 82.8594ZM146.32 78.5469L146.391 79.5234C146.995 78.7682 147.805 78.3906 148.82 78.3906C149.716 78.3906 150.383 78.6536 150.82 79.1797C151.258 79.7057 151.482 80.4922 151.492 81.5391V87H149.234V81.5938C149.234 81.1146 149.13 80.7682 148.922 80.5547C148.714 80.3359 148.367 80.2266 147.883 80.2266C147.247 80.2266 146.771 80.4974 146.453 81.0391V87H144.195V78.5469H146.32ZM152.445 73.7656H155.82V89.6484H152.445V87.9062H153.562V75.5078H152.445V73.7656Z" fill="#444444"/>
<defs>
<filter id="filter0_d" x="0" y="0" width="308" height="282" filterUnits="userSpaceOnUse" color-interpolation-filters="sRGB">
<feFlood flood-opacity="0" result="BackgroundImageFix"/>
<feColorMatrix in="SourceAlpha" type="matrix" values="0 0 0 0 0 0 0 0 0 0 0 0 0 0 0 0 0 0 127 0"/>
<feOffset dy="4"/>
<feGaussianBlur stdDeviation="2"/>
<feColorMatrix type="matrix" values="0 0 0 0 0 0 0 0 0 0 0 0 0 0 0 0 0 0 0.25 0"/>
<feBlend mode="normal" in2="BackgroundImageFix" result="effect1_dropShadow"/>
<feBlend mode="normal" in="SourceGraphic" in2="effect1_dropShadow" result="shape"/>
</filter>
</defs>
</svg>
