<svg width="308" height="282" viewBox="0 0 308 282" fill="none" xmlns="http://www.w3.org/2000/svg">
<g filter="url(#filter0_d)">
<rect x="4" width="300" height="274" rx="10" fill="#1F1F1F"/>
</g>
<path d="M62.5234 150.352H58.1172L57.1953 153H55.1406L59.4375 141.625H61.2109L65.5156 153H63.4531L62.5234 150.352ZM58.6719 148.758H61.9688L60.3203 144.039L58.6719 148.758ZM79.0291 148.773V153H77.0525V141.625H81.4041C82.6749 141.625 83.6827 141.956 84.4275 142.617C85.1775 143.279 85.5525 144.154 85.5525 145.242C85.5525 146.357 85.1853 147.224 84.4509 147.844C83.7218 148.464 82.6983 148.773 81.3806 148.773H79.0291ZM79.0291 147.188H81.4041C82.1072 147.188 82.6436 147.023 83.0134 146.695C83.3832 146.362 83.5681 145.883 83.5681 145.258C83.5681 144.643 83.3806 144.154 83.0056 143.789C82.6306 143.419 82.115 143.229 81.4587 143.219H79.0291V147.188ZM99.5034 148.773V153H97.5269V141.625H101.878C103.149 141.625 104.157 141.956 104.902 142.617C105.652 143.279 106.027 144.154 106.027 145.242C106.027 146.357 105.66 147.224 104.925 147.844C104.196 148.464 103.173 148.773 101.855 148.773H99.5034ZM99.5034 147.188H101.878C102.582 147.188 103.118 147.023 103.488 146.695C103.858 146.362 104.042 145.883 104.042 145.258C104.042 144.643 103.855 144.154 103.48 143.789C103.105 143.419 102.589 143.229 101.933 143.219H99.5034V147.188ZM60.3359 170.617H58.1328V175H56.1562V163.625H60.1562C61.4688 163.625 62.4818 163.919 63.1953 164.508C63.9089 165.096 64.2656 165.948 64.2656 167.062C64.2656 167.823 64.0807 168.461 63.7109 168.977C63.3464 169.487 62.8359 169.88 62.1797 170.156L64.7344 174.898V175H62.6172L60.3359 170.617ZM58.1328 169.031H60.1641C60.8307 169.031 61.3516 168.865 61.7266 168.531C62.1016 168.193 62.2891 167.732 62.2891 167.148C62.2891 166.539 62.1146 166.068 61.7656 165.734C61.4219 165.401 60.9062 165.229 60.2188 165.219H58.1328V169.031ZM83.0291 169.922H78.3572V173.422H83.8181V175H76.3806V163.625H83.7634V165.219H78.3572V168.359H83.0291V169.922ZM95.6675 175V163.625H99.0269C100.032 163.625 100.923 163.849 101.699 164.297C102.48 164.745 103.084 165.38 103.511 166.203C103.938 167.026 104.152 167.969 104.152 169.031V169.602C104.152 170.68 103.936 171.628 103.503 172.445C103.076 173.263 102.464 173.893 101.667 174.336C100.876 174.779 99.967 175 98.9409 175H95.6675ZM97.6441 165.219V173.422H98.9331C99.9696 173.422 100.764 173.099 101.316 172.453C101.873 171.802 102.157 170.87 102.167 169.656V169.023C102.167 167.789 101.899 166.846 101.363 166.195C100.826 165.544 100.048 165.219 99.0269 165.219H97.6441ZM123.009 169.922H118.337V173.422H123.798V175H116.361V163.625H123.743V165.219H118.337V168.359H123.009V169.922ZM141.593 172.07C141.593 171.57 141.416 171.185 141.062 170.914C140.713 170.643 140.08 170.37 139.163 170.094C138.246 169.818 137.517 169.51 136.976 169.172C135.939 168.521 135.421 167.672 135.421 166.625C135.421 165.708 135.793 164.953 136.538 164.359C137.288 163.766 138.259 163.469 139.452 163.469C140.244 163.469 140.95 163.615 141.569 163.906C142.189 164.198 142.676 164.615 143.03 165.156C143.384 165.693 143.562 166.289 143.562 166.945H141.593C141.593 166.352 141.405 165.888 141.03 165.555C140.661 165.216 140.129 165.047 139.437 165.047C138.791 165.047 138.288 165.185 137.929 165.461C137.575 165.737 137.397 166.122 137.397 166.617C137.397 167.034 137.59 167.383 137.976 167.664C138.361 167.94 138.996 168.211 139.882 168.477C140.767 168.737 141.478 169.036 142.015 169.375C142.551 169.708 142.944 170.094 143.194 170.531C143.444 170.964 143.569 171.471 143.569 172.055C143.569 173.003 143.205 173.758 142.476 174.32C141.752 174.878 140.767 175.156 139.522 175.156C138.7 175.156 137.942 175.005 137.249 174.703C136.562 174.396 136.025 173.974 135.64 173.438C135.259 172.901 135.069 172.276 135.069 171.562H137.046C137.046 172.208 137.259 172.708 137.687 173.062C138.114 173.417 138.726 173.594 139.522 173.594C140.21 173.594 140.726 173.456 141.069 173.18C141.418 172.898 141.593 172.529 141.593 172.07ZM157.63 175H155.661V163.625H157.63V175ZM179.018 173.523C178.607 174.06 178.036 174.466 177.307 174.742C176.578 175.018 175.75 175.156 174.823 175.156C173.87 175.156 173.026 174.94 172.292 174.508C171.557 174.076 170.989 173.458 170.588 172.656C170.193 171.849 169.987 170.909 169.971 169.836V168.945C169.971 167.227 170.383 165.885 171.206 164.922C172.029 163.953 173.177 163.469 174.651 163.469C175.917 163.469 176.922 163.781 177.667 164.406C178.411 165.031 178.859 165.932 179.01 167.109H177.073C176.854 165.74 176.06 165.055 174.69 165.055C173.805 165.055 173.13 165.375 172.667 166.016C172.208 166.651 171.971 167.586 171.956 168.82V169.695C171.956 170.924 172.213 171.88 172.729 172.562C173.25 173.24 173.971 173.578 174.893 173.578C175.904 173.578 176.622 173.349 177.049 172.891V170.664H174.706V169.164H179.018V173.523ZM200.453 175H198.477L193.407 166.93V175H191.43V163.625H193.407L198.492 171.727V163.625H200.453V175Z" fill="white"/>
<path d="M64.7812 108.625V116.07C64.7812 116.914 64.6016 117.646 64.2422 118.266C63.8828 118.88 63.3672 119.349 62.6953 119.672C62.0234 119.995 61.2292 120.156 60.3125 120.156C58.9271 120.156 57.8359 119.797 57.0391 119.078C56.2422 118.359 55.8359 117.375 55.8203 116.125V108.625H58.5781V116.18C58.6094 117.424 59.1875 118.047 60.3125 118.047C60.8802 118.047 61.3099 117.891 61.6016 117.578C61.8932 117.266 62.0391 116.758 62.0391 116.055V108.625H64.7812ZM76 120H73.2734L69.2422 112.922V120H66.5V108.625H69.2422L73.2656 115.703V108.625H76V120ZM80.6562 120H77.9219V108.625H80.6562V120ZM92.2109 114.547C92.2109 115.599 92.0365 116.518 91.6875 117.305C91.3385 118.086 90.8568 118.714 90.2422 119.188L92.0781 120.641L90.3828 122.078L87.9375 120.109C87.7083 120.141 87.4792 120.156 87.25 120.156C86.2812 120.156 85.4219 119.932 84.6719 119.484C83.9219 119.036 83.3359 118.396 82.9141 117.562C82.4974 116.729 82.2812 115.771 82.2656 114.688V114.086C82.2656 112.966 82.4688 111.982 82.875 111.133C83.2865 110.284 83.8698 109.628 84.625 109.164C85.3854 108.701 86.2552 108.469 87.2344 108.469C88.1979 108.469 89.0573 108.698 89.8125 109.156C90.5677 109.615 91.1536 110.268 91.5703 111.117C91.9922 111.961 92.2057 112.93 92.2109 114.023V114.547ZM89.4219 114.07C89.4219 112.94 89.2318 112.083 88.8516 111.5C88.4766 110.911 87.9375 110.617 87.2344 110.617C86.5104 110.617 85.9661 110.906 85.6016 111.484C85.237 112.062 85.0521 112.909 85.0469 114.023V114.547C85.0469 115.667 85.2318 116.526 85.6016 117.125C85.9714 117.719 86.5208 118.016 87.25 118.016C87.9479 118.016 88.4818 117.721 88.8516 117.133C89.2266 116.544 89.4167 115.698 89.4219 114.594V114.07ZM96.3516 117.891H101.125V120H93.6094V108.625H96.3516V117.891ZM111.414 114.547C111.414 115.656 111.208 116.638 110.797 117.492C110.385 118.346 109.799 119.005 109.039 119.469C108.284 119.927 107.422 120.156 106.453 120.156C105.484 120.156 104.625 119.935 103.875 119.492C103.125 119.044 102.539 118.406 102.117 117.578C101.701 116.75 101.482 115.799 101.461 114.727V114.086C101.461 112.971 101.664 111.99 102.07 111.141C102.482 110.286 103.068 109.628 103.828 109.164C104.594 108.701 105.464 108.469 106.438 108.469C107.401 108.469 108.26 108.698 109.016 109.156C109.771 109.615 110.357 110.268 110.773 111.117C111.195 111.961 111.409 112.93 111.414 114.023V114.547ZM108.625 114.07C108.625 112.94 108.435 112.083 108.055 111.5C107.68 110.911 107.141 110.617 106.438 110.617C105.062 110.617 104.336 111.648 104.258 113.711L104.25 114.547C104.25 115.661 104.435 116.518 104.805 117.117C105.174 117.716 105.724 118.016 106.453 118.016C107.146 118.016 107.68 117.721 108.055 117.133C108.43 116.544 108.62 115.698 108.625 114.594V114.07Z" fill="white"/>
<path d="M59.4062 75.5938H58.4844V87.8125H59.4062V89.7266H55.8438V73.6719H59.4062V75.5938ZM63.8281 85.125C64.1979 85.125 64.4844 85.026 64.6875 84.8281C64.8906 84.625 64.9896 84.3438 64.9844 83.9844H67.4531C67.4531 84.9115 67.1198 85.6719 66.4531 86.2656C65.7917 86.8594 64.9375 87.1562 63.8906 87.1562C62.6615 87.1562 61.6927 86.7708 60.9844 86C60.276 85.2292 59.9219 84.1615 59.9219 82.7969V82.6875C59.9219 81.8333 60.0781 81.0807 60.3906 80.4297C60.7083 79.7734 61.1641 79.2708 61.7578 78.9219C62.3516 78.5677 63.0547 78.3906 63.8672 78.3906C64.9661 78.3906 65.8385 78.6953 66.4844 79.3047C67.1302 79.9141 67.4531 80.7396 67.4531 81.7812H64.9844C64.9844 81.3438 64.8776 81.0078 64.6641 80.7734C64.4505 80.5391 64.1641 80.4219 63.8047 80.4219C63.1224 80.4219 62.724 80.8568 62.6094 81.7266C62.5729 82.0026 62.5547 82.3828 62.5547 82.8672C62.5547 83.7161 62.6562 84.3047 62.8594 84.6328C63.0625 84.9609 63.3854 85.125 63.8281 85.125ZM68.2344 82.6953C68.2344 81.8516 68.3984 81.1016 68.7266 80.4453C69.0547 79.7839 69.526 79.276 70.1406 78.9219C70.7552 78.5677 71.4766 78.3906 72.3047 78.3906C73.5703 78.3906 74.5677 78.7839 75.2969 79.5703C76.026 80.3516 76.3906 81.4167 76.3906 82.7656V82.8594C76.3906 84.1771 76.0234 85.224 75.2891 86C74.5599 86.7708 73.5703 87.1562 72.3203 87.1562C71.1172 87.1562 70.151 86.7969 69.4219 86.0781C68.6927 85.3542 68.2995 84.375 68.2422 83.1406L68.2344 82.6953ZM70.8672 82.8594C70.8672 83.6406 70.9896 84.2135 71.2344 84.5781C71.4792 84.9427 71.8411 85.125 72.3203 85.125C73.2578 85.125 73.737 84.4036 73.7578 82.9609V82.6953C73.7578 81.1797 73.2734 80.4219 72.3047 80.4219C71.4245 80.4219 70.9479 81.0755 70.875 82.3828L70.8672 82.8594ZM80.0391 78.5469L80.125 79.5391C80.724 78.7734 81.5286 78.3906 82.5391 78.3906C83.6068 78.3906 84.3281 78.8151 84.7031 79.6641C85.276 78.8151 86.1042 78.3906 87.1875 78.3906C88.901 78.3906 89.7812 79.4271 89.8281 81.5V87H87.1875V81.6641C87.1875 81.2318 87.1146 80.9167 86.9688 80.7188C86.8229 80.5208 86.5573 80.4219 86.1719 80.4219C85.651 80.4219 85.263 80.6536 85.0078 81.1172L85.0156 81.2266V87H82.375V81.6797C82.375 81.237 82.3047 80.9167 82.1641 80.7188C82.0234 80.5208 81.7552 80.4219 81.3594 80.4219C80.8542 80.4219 80.4688 80.6536 80.2031 81.1172V87H77.5703V78.5469H80.0391ZM94.1094 87H91.4688V78.5469H94.1094V87ZM91.3125 76.3672C91.3125 75.9922 91.4479 75.6849 91.7188 75.4453C91.9896 75.2057 92.3411 75.0859 92.7734 75.0859C93.2057 75.0859 93.5573 75.2057 93.8281 75.4453C94.099 75.6849 94.2344 75.9922 94.2344 76.3672C94.2344 76.7422 94.099 77.0495 93.8281 77.2891C93.5573 77.5286 93.2057 77.6484 92.7734 77.6484C92.3411 77.6484 91.9896 77.5286 91.7188 77.2891C91.4479 77.0495 91.3125 76.7422 91.3125 76.3672ZM98.1562 78.5469L98.2422 79.5391C98.8255 78.7734 99.6302 78.3906 100.656 78.3906C101.536 78.3906 102.193 78.6536 102.625 79.1797C103.062 79.7057 103.289 80.4974 103.305 81.5547V87H100.664V81.6641C100.664 81.237 100.578 80.9245 100.406 80.7266C100.234 80.5234 99.9219 80.4219 99.4688 80.4219C98.9531 80.4219 98.5703 80.625 98.3203 81.0312V87H95.6875V78.5469H98.1562ZM104.461 82.7109C104.461 81.8568 104.602 81.1016 104.883 80.4453C105.164 79.7891 105.568 79.2839 106.094 78.9297C106.62 78.5703 107.232 78.3906 107.93 78.3906C108.81 78.3906 109.497 78.6875 109.992 79.2812L110.086 78.5469H112.477V86.6797C112.477 87.4245 112.302 88.0703 111.953 88.6172C111.609 89.1693 111.109 89.5911 110.453 89.8828C109.797 90.1797 109.036 90.3281 108.172 90.3281C107.552 90.3281 106.951 90.2109 106.367 89.9766C105.789 89.7422 105.346 89.4375 105.039 89.0625L106.141 87.5156C106.63 88.0938 107.276 88.3828 108.078 88.3828C109.245 88.3828 109.828 87.7839 109.828 86.5859V86.3203C109.323 86.8776 108.685 87.1562 107.914 87.1562C106.883 87.1562 106.049 86.763 105.414 85.9766C104.779 85.1849 104.461 84.1276 104.461 82.8047V82.7109ZM107.102 82.875C107.102 83.5677 107.232 84.1172 107.492 84.5234C107.753 84.9245 108.117 85.125 108.586 85.125C109.154 85.125 109.568 84.9349 109.828 84.5547V81C109.573 80.6146 109.164 80.4219 108.602 80.4219C108.133 80.4219 107.766 80.6328 107.5 81.0547C107.234 81.4714 107.102 82.0781 107.102 82.875ZM122.383 84.625C122.383 84.401 122.266 84.2214 122.031 84.0859C121.797 83.9505 121.352 83.8099 120.695 83.6641C120.039 83.5182 119.497 83.3281 119.07 83.0938C118.643 82.8542 118.318 82.5651 118.094 82.2266C117.87 81.888 117.758 81.5 117.758 81.0625C117.758 80.2865 118.078 79.6484 118.719 79.1484C119.359 78.6432 120.198 78.3906 121.234 78.3906C122.349 78.3906 123.245 78.6432 123.922 79.1484C124.599 79.6536 124.938 80.3177 124.938 81.1406H122.297C122.297 80.4635 121.94 80.125 121.227 80.125C120.951 80.125 120.719 80.2031 120.531 80.3594C120.344 80.5104 120.25 80.7005 120.25 80.9297C120.25 81.1641 120.365 81.3542 120.594 81.5C120.823 81.6458 121.188 81.7656 121.688 81.8594C122.193 81.9531 122.635 82.0651 123.016 82.1953C124.286 82.6328 124.922 83.4167 124.922 84.5469C124.922 85.3177 124.578 85.9453 123.891 86.4297C123.208 86.9141 122.323 87.1562 121.234 87.1562C120.51 87.1562 119.865 87.026 119.297 86.7656C118.729 86.5052 118.286 86.151 117.969 85.7031C117.651 85.2552 117.492 84.7839 117.492 84.2891H119.953C119.964 84.6797 120.094 84.9661 120.344 85.1484C120.594 85.3255 120.914 85.4141 121.305 85.4141C121.664 85.4141 121.932 85.3411 122.109 85.1953C122.292 85.0495 122.383 84.8594 122.383 84.625ZM125.828 82.6953C125.828 81.8516 125.992 81.1016 126.32 80.4453C126.648 79.7839 127.12 79.276 127.734 78.9219C128.349 78.5677 129.07 78.3906 129.898 78.3906C131.164 78.3906 132.161 78.7839 132.891 79.5703C133.62 80.3516 133.984 81.4167 133.984 82.7656V82.8594C133.984 84.1771 133.617 85.224 132.883 86C132.154 86.7708 131.164 87.1562 129.914 87.1562C128.711 87.1562 127.745 86.7969 127.016 86.0781C126.286 85.3542 125.893 84.375 125.836 83.1406L125.828 82.6953ZM128.461 82.8594C128.461 83.6406 128.583 84.2135 128.828 84.5781C129.073 84.9427 129.435 85.125 129.914 85.125C130.852 85.125 131.331 84.4036 131.352 82.9609V82.6953C131.352 81.1797 130.867 80.4219 129.898 80.4219C129.018 80.4219 128.542 81.0755 128.469 82.3828L128.461 82.8594ZM134.812 82.6953C134.812 81.8516 134.977 81.1016 135.305 80.4453C135.633 79.7839 136.104 79.276 136.719 78.9219C137.333 78.5677 138.055 78.3906 138.883 78.3906C140.148 78.3906 141.146 78.7839 141.875 79.5703C142.604 80.3516 142.969 81.4167 142.969 82.7656V82.8594C142.969 84.1771 142.602 85.224 141.867 86C141.138 86.7708 140.148 87.1562 138.898 87.1562C137.695 87.1562 136.729 86.7969 136 86.0781C135.271 85.3542 134.878 84.375 134.82 83.1406L134.812 82.6953ZM137.445 82.8594C137.445 83.6406 137.568 84.2135 137.812 84.5781C138.057 84.9427 138.419 85.125 138.898 85.125C139.836 85.125 140.315 84.4036 140.336 82.9609V82.6953C140.336 81.1797 139.852 80.4219 138.883 80.4219C138.003 80.4219 137.526 81.0755 137.453 82.3828L137.445 82.8594ZM146.547 78.5469L146.633 79.5391C147.216 78.7734 148.021 78.3906 149.047 78.3906C149.927 78.3906 150.583 78.6536 151.016 79.1797C151.453 79.7057 151.68 80.4974 151.695 81.5547V87H149.055V81.6641C149.055 81.237 148.969 80.9245 148.797 80.7266C148.625 80.5234 148.312 80.4219 147.859 80.4219C147.344 80.4219 146.961 80.625 146.711 81.0312V87H144.078V78.5469H146.547ZM152.531 73.6719H156.094V89.7266H152.531V87.8125H153.461V75.5938H152.531V73.6719Z" fill="white"/>
<defs>
<filter id="filter0_d" x="0" y="0" width="308" height="282" filterUnits="userSpaceOnUse" color-interpolation-filters="sRGB">
<feFlood flood-opacity="0" result="BackgroundImageFix"/>
<feColorMatrix in="SourceAlpha" type="matrix" values="0 0 0 0 0 0 0 0 0 0 0 0 0 0 0 0 0 0 127 0"/>
<feOffset dy="4"/>
<feGaussianBlur stdDeviation="2"/>
<feColorMatrix type="matrix" values="0 0 0 0 0 0 0 0 0 0 0 0 0 0 0 0 0 0 0.25 0"/>
<feBlend mode="normal" in2="BackgroundImageFix" result="effect1_dropShadow"/>
<feBlend mode="normal" in="SourceGraphic" in2="effect1_dropShadow" result="shape"/>
</filter>
</defs>
</svg>
