<svg width="2584" height="1458" viewBox="0 0 2584 1458" fill="none" xmlns="http://www.w3.org/2000/svg">
<path d="M36.3555 154H13.4062V45.9922H36.3555V154ZM12.0391 17.3789C12.0391 13.2773 13.1458 10.1198 15.3594 7.90625C17.638 5.69271 20.8607 4.58594 25.0273 4.58594C29.0638 4.58594 32.1888 5.69271 34.4023 7.90625C36.681 10.1198 37.8203 13.2773 37.8203 17.3789C37.8203 21.2852 36.681 24.3776 34.4023 26.6562C32.1888 28.8698 29.0638 29.9766 25.0273 29.9766C20.8607 29.9766 17.638 28.8698 15.3594 26.6562C13.1458 24.3776 12.0391 21.2852 12.0391 17.3789ZM203.152 154L198.562 138.961H197.781C192.573 145.536 187.332 150.029 182.059 152.438C176.785 154.781 170.014 155.953 161.746 155.953C151.134 155.953 142.833 153.089 136.844 147.359C130.919 141.63 127.957 133.525 127.957 123.043C127.957 111.91 132.091 103.512 140.359 97.8477C148.628 92.1836 161.225 89.0911 178.152 88.5703L196.805 87.9844V82.2227C196.805 75.3216 195.177 70.1784 191.922 66.793C188.732 63.3424 183.751 61.6172 176.98 61.6172C171.447 61.6172 166.141 62.431 161.062 64.0586C155.984 65.6862 151.102 67.6068 146.414 69.8203L138.992 53.4141C144.852 50.3542 151.264 48.043 158.23 46.4805C165.197 44.8529 171.772 44.0391 177.957 44.0391C191.694 44.0391 202.046 47.0339 209.012 53.0234C216.043 59.013 219.559 68.4206 219.559 81.2461V154H203.152ZM168.973 138.375C177.306 138.375 183.979 136.064 188.992 131.441C194.07 126.754 196.609 120.211 196.609 111.812V102.438L182.742 103.023C171.935 103.414 164.057 105.237 159.109 108.492C154.227 111.682 151.785 116.598 151.785 123.238C151.785 128.056 153.217 131.799 156.082 134.469C158.947 137.073 163.243 138.375 168.973 138.375ZM270.539 154H247.59V2.04688H270.539V154ZM372.008 123.238C372.008 133.785 368.167 141.891 360.484 147.555C352.802 153.154 341.799 155.953 327.477 155.953C313.089 155.953 301.533 153.772 292.809 149.41V129.586C305.504 135.445 317.32 138.375 328.258 138.375C342.385 138.375 349.449 134.111 349.449 125.582C349.449 122.848 348.668 120.569 347.105 118.746C345.543 116.923 342.971 115.035 339.391 113.082C335.81 111.129 330.829 108.915 324.449 106.441C312.014 101.624 303.583 96.806 299.156 91.9883C294.794 87.1706 292.613 80.9206 292.613 73.2383C292.613 63.9935 296.324 56.832 303.746 51.7539C311.233 46.6107 321.389 44.0391 334.215 44.0391C346.91 44.0391 358.922 46.6107 370.25 51.7539L362.828 69.0391C351.174 64.2214 341.376 61.8125 333.434 61.8125C321.324 61.8125 315.27 65.263 315.27 72.1641C315.27 75.5495 316.832 78.4141 319.957 80.7578C323.147 83.1016 330.048 86.3242 340.66 90.4258C349.579 93.8763 356.057 97.0339 360.094 99.8984C364.13 102.763 367.125 106.083 369.078 109.859C371.031 113.57 372.008 118.03 372.008 123.238ZM488.711 99.8008C488.711 117.444 484.186 131.214 475.137 141.109C466.087 151.005 453.49 155.953 437.344 155.953C427.253 155.953 418.333 153.674 410.586 149.117C402.839 144.56 396.882 138.017 392.715 129.488C388.548 120.96 386.465 111.064 386.465 99.8008C386.465 82.2878 390.957 68.6159 399.941 58.7852C408.926 48.9544 421.589 44.0391 437.93 44.0391C453.555 44.0391 465.924 49.0846 475.039 59.1758C484.154 69.2018 488.711 82.7435 488.711 99.8008ZM410.098 99.8008C410.098 124.736 419.31 137.203 437.734 137.203C455.964 137.203 465.078 124.736 465.078 99.8008C465.078 75.1263 455.898 62.7891 437.539 62.7891C427.904 62.7891 420.905 65.9792 416.543 72.3594C412.246 78.7396 410.098 87.8867 410.098 99.8008ZM628.652 155.953C611.855 155.953 598.704 151.07 589.199 141.305C579.759 131.474 575.039 117.965 575.039 100.777C575.039 83.1341 579.434 69.2669 588.223 59.1758C597.012 49.0846 609.089 44.0391 624.453 44.0391C638.711 44.0391 649.974 48.3685 658.242 57.0273C666.51 65.6862 670.645 77.6003 670.645 92.7695V105.172H598.672C598.997 115.654 601.829 123.727 607.168 129.391C612.507 134.99 620.026 137.789 629.727 137.789C636.107 137.789 642.031 137.203 647.5 136.031C653.034 134.794 658.958 132.776 665.273 129.977V148.629C659.674 151.298 654.01 153.186 648.281 154.293C642.552 155.4 636.009 155.953 628.652 155.953ZM624.453 61.4219C617.161 61.4219 611.302 63.7331 606.875 68.3555C602.513 72.9779 599.909 79.7161 599.062 88.5703H648.086C647.956 79.651 645.807 72.9128 641.641 68.3555C637.474 63.7331 631.745 61.4219 624.453 61.4219ZM787.738 154H764.691V87.5938C764.691 79.2604 762.999 73.043 759.613 68.9414C756.293 64.8398 750.987 62.7891 743.695 62.7891C733.995 62.7891 726.898 65.6536 722.406 71.3828C717.914 77.112 715.668 86.7148 715.668 100.191V154H692.719V45.9922H710.688L713.91 60.1523H715.082C718.337 55.0091 722.96 51.0378 728.949 48.2383C734.939 45.4388 741.579 44.0391 748.871 44.0391C774.783 44.0391 787.738 57.2227 787.738 83.5898V154ZM804.637 202.047C797.736 202.047 792.007 201.233 787.449 199.605V181.441C791.876 182.613 796.401 183.199 801.023 183.199C810.789 183.199 815.672 177.665 815.672 166.598V45.9922H838.621V168.16C838.621 179.293 835.691 187.724 829.832 193.453C824.038 199.182 815.639 202.047 804.637 202.047ZM814.305 17.3789C814.305 13.2773 815.411 10.1198 817.625 7.90625C819.904 5.69271 823.126 4.58594 827.293 4.58594C831.329 4.58594 834.454 5.69271 836.668 7.90625C838.947 10.1198 840.086 13.2773 840.086 17.3789C840.086 21.2852 838.947 24.3776 836.668 26.6562C834.454 28.8698 831.329 29.9766 827.293 29.9766C823.126 29.9766 819.904 28.8698 817.625 26.6562C815.411 24.3776 814.305 21.2852 814.305 17.3789ZM963.332 99.8008C963.332 117.444 958.807 131.214 949.758 141.109C940.708 151.005 928.111 155.953 911.965 155.953C901.874 155.953 892.954 153.674 885.207 149.117C877.46 144.56 871.503 138.017 867.336 129.488C863.169 120.96 861.086 111.064 861.086 99.8008C861.086 82.2878 865.578 68.6159 874.562 58.7852C883.547 48.9544 896.21 44.0391 912.551 44.0391C928.176 44.0391 940.546 49.0846 949.66 59.1758C958.775 69.2018 963.332 82.7435 963.332 99.8008ZM884.719 99.8008C884.719 124.736 893.931 137.203 912.355 137.203C930.585 137.203 939.699 124.736 939.699 99.8008C939.699 75.1263 930.52 62.7891 912.16 62.7891C902.525 62.7891 895.526 65.9792 891.164 72.3594C886.867 78.7396 884.719 87.8867 884.719 99.8008ZM969.391 45.9922H994.391L1016.36 107.223C1019.68 115.947 1021.9 124.15 1023 131.832H1023.79C1024.37 128.251 1025.45 123.922 1027.01 118.844C1028.57 113.701 1036.84 89.4167 1051.81 45.9922H1076.62L1030.43 168.355C1022.03 190.816 1008.03 202.047 988.434 202.047C983.355 202.047 978.408 201.493 973.59 200.387V182.223C977.04 183.004 980.979 183.395 985.406 183.395C996.474 183.395 1004.25 176.982 1008.75 164.156L1012.75 154L969.391 45.9922ZM1214.12 155.953C1200.45 155.953 1189.83 151.038 1182.28 141.207H1180.91C1181.83 150.322 1182.28 155.855 1182.28 157.809V202.047H1159.33V45.9922H1177.89C1178.41 48.0104 1179.48 52.8281 1181.11 60.4453H1182.28C1189.44 49.5078 1200.18 44.0391 1214.51 44.0391C1227.98 44.0391 1238.47 48.9219 1245.95 58.6875C1253.51 68.4531 1257.28 82.1576 1257.28 99.8008C1257.28 117.444 1253.44 131.214 1245.76 141.109C1238.14 151.005 1227.59 155.953 1214.12 155.953ZM1208.55 62.7891C1199.44 62.7891 1192.76 65.4583 1188.53 70.7969C1184.36 76.1354 1182.28 84.6641 1182.28 96.3828V99.8008C1182.28 112.952 1184.36 122.49 1188.53 128.414C1192.7 134.273 1199.5 137.203 1208.94 137.203C1216.88 137.203 1223 133.948 1227.3 127.438C1231.6 120.927 1233.75 111.65 1233.75 99.6055C1233.75 87.4961 1231.6 78.349 1227.3 72.1641C1223.07 65.9141 1216.82 62.7891 1208.55 62.7891ZM1356.11 154L1352.89 139.84H1351.72C1348.53 144.853 1343.97 148.792 1338.05 151.656C1332.19 154.521 1325.48 155.953 1317.93 155.953C1304.84 155.953 1295.08 152.698 1288.63 146.188C1282.19 139.677 1278.96 129.814 1278.96 116.598V45.9922H1302.11V112.594C1302.11 120.862 1303.8 127.079 1307.19 131.246C1310.57 135.348 1315.88 137.398 1323.11 137.398C1332.74 137.398 1339.8 134.534 1344.3 128.805C1348.85 123.01 1351.13 113.342 1351.13 99.8008V45.9922H1374.18V154H1356.11ZM1475.45 123.238C1475.45 133.785 1471.61 141.891 1463.93 147.555C1456.25 153.154 1445.24 155.953 1430.92 155.953C1416.53 155.953 1404.98 153.772 1396.25 149.41V129.586C1408.95 135.445 1420.77 138.375 1431.7 138.375C1445.83 138.375 1452.89 134.111 1452.89 125.582C1452.89 122.848 1452.11 120.569 1450.55 118.746C1448.99 116.923 1446.42 115.035 1442.84 113.082C1439.26 111.129 1434.27 108.915 1427.89 106.441C1415.46 101.624 1407.03 96.806 1402.6 91.9883C1398.24 87.1706 1396.06 80.9206 1396.06 73.2383C1396.06 63.9935 1399.77 56.832 1407.19 51.7539C1414.68 46.6107 1424.83 44.0391 1437.66 44.0391C1450.36 44.0391 1462.37 46.6107 1473.7 51.7539L1466.27 69.0391C1454.62 64.2214 1444.82 61.8125 1436.88 61.8125C1424.77 61.8125 1418.71 65.263 1418.71 72.1641C1418.71 75.5495 1420.28 78.4141 1423.4 80.7578C1426.59 83.1016 1433.49 86.3242 1444.11 90.4258C1453.02 93.8763 1459.5 97.0339 1463.54 99.8984C1467.58 102.763 1470.57 106.083 1472.52 109.859C1474.48 113.57 1475.45 118.03 1475.45 123.238ZM1591.38 154H1568.33V87.5938C1568.33 79.2604 1566.64 73.043 1563.25 68.9414C1559.93 64.8398 1554.62 62.7891 1547.33 62.7891C1537.7 62.7891 1530.6 65.6862 1526.04 71.4805C1521.55 77.2096 1519.3 86.8451 1519.3 100.387V154H1496.36V2.04688H1519.3V40.6211C1519.3 46.806 1518.91 53.4141 1518.13 60.4453H1519.6C1522.72 55.237 1527.05 51.2005 1532.59 48.3359C1538.18 45.4714 1544.7 44.0391 1552.12 44.0391C1578.29 44.0391 1591.38 57.2227 1591.38 83.5898V154ZM1642.26 154H1619.31V45.9922H1642.26V154ZM1617.94 17.3789C1617.94 13.2773 1619.05 10.1198 1621.26 7.90625C1623.54 5.69271 1626.76 4.58594 1630.93 4.58594C1634.97 4.58594 1638.09 5.69271 1640.3 7.90625C1642.58 10.1198 1643.72 13.2773 1643.72 17.3789C1643.72 21.2852 1642.58 24.3776 1640.3 26.6562C1638.09 28.8698 1634.97 29.9766 1630.93 29.9766C1626.76 29.9766 1623.54 28.8698 1621.26 26.6562C1619.05 24.3776 1617.94 21.2852 1617.94 17.3789ZM1766.19 154H1743.14V87.5938C1743.14 79.2604 1741.45 73.043 1738.06 68.9414C1734.74 64.8398 1729.44 62.7891 1722.14 62.7891C1712.44 62.7891 1705.35 65.6536 1700.86 71.3828C1696.36 77.112 1694.12 86.7148 1694.12 100.191V154H1671.17V45.9922H1689.14L1692.36 60.1523H1693.53C1696.79 55.0091 1701.41 51.0378 1707.4 48.2383C1713.39 45.4388 1720.03 44.0391 1727.32 44.0391C1753.23 44.0391 1766.19 57.2227 1766.19 83.5898V154ZM1885.33 45.9922V58.5898L1866.88 62.0078C1868.57 64.2865 1869.97 67.0859 1871.07 70.4062C1872.18 73.7266 1872.73 77.2422 1872.73 80.9531C1872.73 92.0859 1868.89 100.842 1861.21 107.223C1853.53 113.603 1842.95 116.793 1829.47 116.793C1826.02 116.793 1822.9 116.533 1820.1 116.012C1815.15 119.072 1812.68 122.652 1812.68 126.754C1812.68 129.228 1813.82 131.083 1816.09 132.32C1818.44 133.557 1822.7 134.176 1828.89 134.176H1847.73C1859.65 134.176 1868.7 136.715 1874.88 141.793C1881.07 146.871 1884.16 154.195 1884.16 163.766C1884.16 176.005 1879.11 185.445 1869.02 192.086C1858.93 198.727 1844.35 202.047 1825.27 202.047C1810.56 202.047 1799.33 199.443 1791.58 194.234C1783.83 189.026 1779.96 181.604 1779.96 171.969C1779.96 165.328 1782.04 159.729 1786.21 155.172C1790.44 150.68 1796.33 147.555 1803.89 145.797C1800.83 144.495 1798.29 142.411 1796.27 139.547C1794.32 136.617 1793.34 133.557 1793.34 130.367C1793.34 126.331 1794.48 122.913 1796.76 120.113C1799.04 117.314 1802.42 114.547 1806.91 111.812C1801.32 109.404 1796.76 105.497 1793.24 100.094C1789.79 94.625 1788.07 88.2448 1788.07 80.9531C1788.07 69.2344 1791.74 60.1523 1799.1 53.707C1806.52 47.2617 1817.07 44.0391 1830.74 44.0391C1833.8 44.0391 1836.99 44.2669 1840.31 44.7227C1843.7 45.1133 1846.24 45.5365 1847.93 45.9922H1885.33ZM1800.47 170.797C1800.47 175.745 1802.68 179.553 1807.11 182.223C1811.6 184.892 1817.88 186.227 1825.96 186.227C1838.46 186.227 1847.77 184.436 1853.89 180.855C1860.01 177.275 1863.07 172.522 1863.07 166.598C1863.07 161.91 1861.37 158.557 1857.99 156.539C1854.67 154.586 1848.45 153.609 1839.34 153.609H1821.95C1815.38 153.609 1810.14 155.139 1806.23 158.199C1802.39 161.324 1800.47 165.523 1800.47 170.797ZM1810.33 80.9531C1810.33 87.724 1812.06 92.9323 1815.51 96.5781C1819.02 100.224 1824.04 102.047 1830.55 102.047C1843.83 102.047 1850.47 94.9505 1850.47 80.7578C1850.47 73.7266 1848.81 68.3229 1845.49 64.5469C1842.23 60.7057 1837.25 58.7852 1830.55 58.7852C1823.91 58.7852 1818.86 60.6732 1815.41 64.4492C1812.02 68.2253 1810.33 73.7266 1810.33 80.9531ZM2062.77 154H2039.73V87.3984C2039.73 79.1302 2038.16 72.9779 2035.04 68.9414C2031.91 64.8398 2027.03 62.7891 2020.39 62.7891C2011.54 62.7891 2005.03 65.6862 2000.86 71.4805C1996.76 77.2096 1994.71 86.7799 1994.71 100.191V154H1971.76V45.9922H1989.73L1992.95 60.1523H1994.12C1997.12 55.0091 2001.45 51.0378 2007.11 48.2383C2012.84 45.4388 2019.12 44.0391 2025.96 44.0391C2042.56 44.0391 2053.56 49.7031 2058.96 61.0312H2060.53C2063.72 55.6927 2068.21 51.526 2074 48.5312C2079.8 45.5365 2086.44 44.0391 2093.93 44.0391C2106.82 44.0391 2116.19 47.2943 2122.05 53.8047C2127.98 60.3151 2130.94 70.2435 2130.94 83.5898V154H2107.99V87.3984C2107.99 79.1302 2106.39 72.9779 2103.2 68.9414C2100.08 64.8398 2095.2 62.7891 2088.55 62.7891C2079.64 62.7891 2073.09 65.5885 2068.93 71.1875C2064.82 76.7214 2062.77 85.25 2062.77 96.7734V154ZM2142.56 45.9922H2167.56L2189.54 107.223C2192.86 115.947 2195.07 124.15 2196.18 131.832H2196.96C2197.54 128.251 2198.62 123.922 2200.18 118.844C2201.74 113.701 2210.01 89.4167 2224.98 45.9922H2249.79L2203.6 168.355C2195.2 190.816 2181.2 202.047 2161.61 202.047C2156.53 202.047 2151.58 201.493 2146.76 200.387V182.223C2150.21 183.004 2154.15 183.395 2158.58 183.395C2169.65 183.395 2177.43 176.982 2181.92 164.156L2185.92 154L2142.56 45.9922ZM2334.75 123.238C2334.75 133.785 2330.91 141.891 2323.23 147.555C2315.55 153.154 2304.55 155.953 2290.22 155.953C2275.83 155.953 2264.28 153.772 2255.55 149.41V129.586C2268.25 135.445 2280.07 138.375 2291 138.375C2305.13 138.375 2312.2 134.111 2312.2 125.582C2312.2 122.848 2311.41 120.569 2309.85 118.746C2308.29 116.923 2305.72 115.035 2302.14 113.082C2298.56 111.129 2293.58 108.915 2287.2 106.441C2274.76 101.624 2266.33 96.806 2261.9 91.9883C2257.54 87.1706 2255.36 80.9206 2255.36 73.2383C2255.36 63.9935 2259.07 56.832 2266.49 51.7539C2273.98 46.6107 2284.14 44.0391 2296.96 44.0391C2309.66 44.0391 2321.67 46.6107 2333 51.7539L2325.57 69.0391C2313.92 64.2214 2304.12 61.8125 2296.18 61.8125C2284.07 61.8125 2278.02 65.263 2278.02 72.1641C2278.02 75.5495 2279.58 78.4141 2282.7 80.7578C2285.89 83.1016 2292.79 86.3242 2303.41 90.4258C2312.33 93.8763 2318.8 97.0339 2322.84 99.8984C2326.88 102.763 2329.87 106.083 2331.82 109.859C2333.78 113.57 2334.75 118.03 2334.75 123.238ZM2402.82 155.953C2386.03 155.953 2372.88 151.07 2363.37 141.305C2353.93 131.474 2349.21 117.965 2349.21 100.777C2349.21 83.1341 2353.61 69.2669 2362.39 59.1758C2371.18 49.0846 2383.26 44.0391 2398.62 44.0391C2412.88 44.0391 2424.15 48.3685 2432.41 57.0273C2440.68 65.6862 2444.82 77.6003 2444.82 92.7695V105.172H2372.84C2373.17 115.654 2376 123.727 2381.34 129.391C2386.68 134.99 2394.2 137.789 2403.9 137.789C2410.28 137.789 2416.2 137.203 2421.67 136.031C2427.21 134.794 2433.13 132.776 2439.45 129.977V148.629C2433.85 151.298 2428.18 153.186 2422.45 154.293C2416.72 155.4 2410.18 155.953 2402.82 155.953ZM2398.62 61.4219C2391.33 61.4219 2385.47 63.7331 2381.05 68.3555C2376.68 72.9779 2374.08 79.7161 2373.23 88.5703H2422.26C2422.13 79.651 2419.98 72.9128 2415.81 68.3555C2411.65 63.7331 2405.92 61.4219 2398.62 61.4219ZM2489.84 154H2466.89V2.04688H2489.84V154ZM2572.95 63.375H2546.58V154H2523.54V63.375H2505.76V52.6328L2523.54 45.6016V38.5703C2523.54 25.8099 2526.53 16.3698 2532.52 10.25C2538.51 4.0651 2547.66 0.972656 2559.96 0.972656C2568.03 0.972656 2575.98 2.30729 2583.79 4.97656L2577.73 22.3594C2572.07 20.5365 2566.67 19.625 2561.52 19.625C2556.32 19.625 2552.51 21.2526 2550.1 24.5078C2547.75 27.6979 2546.58 32.5156 2546.58 38.9609V45.9922H2572.95V63.375ZM53.6406 388.398C59.2396 388.398 64.8385 387.52 70.4375 385.762V403.047C67.8984 404.154 64.6107 405.065 60.5742 405.781C56.6029 406.562 52.4688 406.953 48.1719 406.953C26.4271 406.953 15.5547 395.495 15.5547 372.578V314.375H0.808594V304.219L16.6289 295.82L24.4414 272.969H38.6016V296.992H69.3633V314.375H38.6016V372.188C38.6016 377.721 39.9688 381.823 42.7031 384.492C45.5026 387.096 49.1484 388.398 53.6406 388.398ZM183.918 350.801C183.918 368.444 179.393 382.214 170.344 392.109C161.294 402.005 148.697 406.953 132.551 406.953C122.46 406.953 113.54 404.674 105.793 400.117C98.0456 395.56 92.0885 389.017 87.9219 380.488C83.7552 371.96 81.6719 362.064 81.6719 350.801C81.6719 333.288 86.1641 319.616 95.1484 309.785C104.133 299.954 116.796 295.039 133.137 295.039C148.762 295.039 161.132 300.085 170.246 310.176C179.361 320.202 183.918 333.743 183.918 350.801ZM105.305 350.801C105.305 375.736 114.517 388.203 132.941 388.203C151.171 388.203 160.285 375.736 160.285 350.801C160.285 326.126 151.105 313.789 132.746 313.789C123.111 313.789 116.112 316.979 111.75 323.359C107.453 329.74 105.305 338.887 105.305 350.801ZM333.134 406.953C316.337 406.953 303.186 402.07 293.681 392.305C284.241 382.474 279.521 368.965 279.521 351.777C279.521 334.134 283.915 320.267 292.704 310.176C301.493 300.085 313.57 295.039 328.935 295.039C343.193 295.039 354.456 299.368 362.724 308.027C370.992 316.686 375.126 328.6 375.126 343.77V356.172H303.154C303.479 366.654 306.311 374.727 311.65 380.391C316.988 385.99 324.508 388.789 334.208 388.789C340.589 388.789 346.513 388.203 351.982 387.031C357.516 385.794 363.44 383.776 369.755 380.977V399.629C364.156 402.298 358.492 404.186 352.763 405.293C347.034 406.4 340.491 406.953 333.134 406.953ZM328.935 312.422C321.643 312.422 315.784 314.733 311.357 319.355C306.995 323.978 304.391 330.716 303.544 339.57H352.568C352.438 330.651 350.289 323.913 346.122 319.355C341.956 314.733 336.227 312.422 328.935 312.422ZM421.224 349.824L384.993 296.992H411.165L435.775 334.785L460.579 296.992H486.556L450.228 349.824L488.411 405H462.435L435.775 364.57L409.212 405H383.236L421.224 349.824ZM558.142 406.953C544.47 406.953 533.858 402.038 526.306 392.207H524.939C525.85 401.322 526.306 406.855 526.306 408.809V453.047H503.357V296.992H521.911C522.432 299.01 523.507 303.828 525.134 311.445H526.306C533.467 300.508 544.21 295.039 558.533 295.039C572.009 295.039 582.491 299.922 589.978 309.688C597.53 319.453 601.306 333.158 601.306 350.801C601.306 368.444 597.465 382.214 589.783 392.109C582.165 402.005 571.618 406.953 558.142 406.953ZM552.576 313.789C543.461 313.789 536.788 316.458 532.556 321.797C528.389 327.135 526.306 335.664 526.306 347.383V350.801C526.306 363.952 528.389 373.49 532.556 379.414C536.723 385.273 543.526 388.203 552.966 388.203C560.909 388.203 567.029 384.948 571.326 378.438C575.622 371.927 577.771 362.65 577.771 350.605C577.771 338.496 575.622 329.349 571.326 323.164C567.094 316.914 560.844 313.789 552.576 313.789ZM646.915 405H623.966V253.047H646.915V405ZM771.626 350.801C771.626 368.444 767.102 382.214 758.052 392.109C749.003 402.005 736.405 406.953 720.259 406.953C710.168 406.953 701.249 404.674 693.501 400.117C685.754 395.56 679.797 389.017 675.63 380.488C671.464 371.96 669.38 362.064 669.38 350.801C669.38 333.288 673.872 319.616 682.857 309.785C691.841 299.954 704.504 295.039 720.845 295.039C736.47 295.039 748.84 300.085 757.954 310.176C767.069 320.202 771.626 333.743 771.626 350.801ZM693.013 350.801C693.013 375.736 702.225 388.203 720.65 388.203C738.879 388.203 747.993 375.736 747.993 350.801C747.993 326.126 738.814 313.789 720.454 313.789C710.819 313.789 703.82 316.979 699.458 323.359C695.161 329.74 693.013 338.887 693.013 350.801ZM848.876 295.039C853.499 295.039 857.307 295.365 860.302 296.016L858.056 317.402C854.801 316.621 851.415 316.23 847.9 316.23C838.72 316.23 831.266 319.225 825.536 325.215C819.872 331.204 817.04 338.984 817.04 348.555V405H794.091V296.992H812.06L815.087 316.035H816.259C819.84 309.59 824.495 304.479 830.224 300.703C836.018 296.927 842.236 295.039 848.876 295.039ZM923.587 406.953C906.79 406.953 893.639 402.07 884.134 392.305C874.694 382.474 869.974 368.965 869.974 351.777C869.974 334.134 874.368 320.267 883.158 310.176C891.947 300.085 904.023 295.039 919.388 295.039C933.646 295.039 944.909 299.368 953.177 308.027C961.445 316.686 965.579 328.6 965.579 343.77V356.172H893.607C893.932 366.654 896.764 374.727 902.103 380.391C907.441 385.99 914.961 388.789 924.661 388.789C931.042 388.789 936.966 388.203 942.435 387.031C947.969 385.794 953.893 383.776 960.208 380.977V399.629C954.609 402.298 948.945 404.186 943.216 405.293C937.487 406.4 930.944 406.953 923.587 406.953ZM919.388 312.422C912.096 312.422 906.237 314.733 901.81 319.355C897.448 323.978 894.844 330.716 893.997 339.57H943.021C942.891 330.651 940.742 323.913 936.576 319.355C932.409 314.733 926.68 312.422 919.388 312.422ZM1103.66 406.953C1090.19 406.953 1079.67 402.07 1072.12 392.305C1064.57 382.539 1060.79 368.835 1060.79 351.191C1060.79 333.483 1064.6 319.714 1072.22 309.883C1079.9 299.987 1090.51 295.039 1104.05 295.039C1118.25 295.039 1129.05 300.28 1136.48 310.762H1137.65C1136.54 303.014 1135.99 296.895 1135.99 292.402V253.047H1159.03V405H1141.07L1137.06 390.84H1135.99C1128.63 401.582 1117.86 406.953 1103.66 406.953ZM1109.82 388.398C1119.26 388.398 1126.12 385.762 1130.42 380.488C1134.72 375.15 1136.93 366.523 1137.06 354.609V351.387C1137.06 337.78 1134.85 328.112 1130.42 322.383C1125.99 316.654 1119.06 313.789 1109.62 313.789C1101.55 313.789 1095.33 317.077 1090.97 323.652C1086.61 330.163 1084.42 339.473 1084.42 351.582C1084.42 363.561 1086.54 372.708 1090.77 379.023C1095 385.273 1101.35 388.398 1109.82 388.398ZM1210.8 405H1187.85V296.992H1210.8V405ZM1186.48 268.379C1186.48 264.277 1187.59 261.12 1189.8 258.906C1192.08 256.693 1195.3 255.586 1199.47 255.586C1203.5 255.586 1206.63 256.693 1208.84 258.906C1211.12 261.12 1212.26 264.277 1212.26 268.379C1212.26 272.285 1211.12 275.378 1208.84 277.656C1206.63 279.87 1203.5 280.977 1199.47 280.977C1195.3 280.977 1192.08 279.87 1189.8 277.656C1187.59 275.378 1186.48 272.285 1186.48 268.379ZM1293.9 314.375H1267.54V405H1244.49V314.375H1226.72V303.633L1244.49 296.602V289.57C1244.49 276.81 1247.49 267.37 1253.48 261.25C1259.46 255.065 1268.61 251.973 1280.92 251.973C1288.99 251.973 1296.93 253.307 1304.74 255.977L1298.69 273.359C1293.03 271.536 1287.62 270.625 1282.48 270.625C1277.27 270.625 1273.46 272.253 1271.05 275.508C1268.71 278.698 1267.54 283.516 1267.54 289.961V296.992H1293.9V314.375ZM1366.46 314.375H1340.1V405H1317.05V314.375H1299.28V303.633L1317.05 296.602V289.57C1317.05 276.81 1320.04 267.37 1326.03 261.25C1332.02 255.065 1341.17 251.973 1353.48 251.973C1361.55 251.973 1369.49 253.307 1377.3 255.977L1371.25 273.359C1365.58 271.536 1360.18 270.625 1355.04 270.625C1349.83 270.625 1346.02 272.253 1343.61 275.508C1341.27 278.698 1340.1 283.516 1340.1 289.961V296.992H1366.46V314.375ZM1428.19 406.953C1411.39 406.953 1398.24 402.07 1388.73 392.305C1379.29 382.474 1374.57 368.965 1374.57 351.777C1374.57 334.134 1378.97 320.267 1387.76 310.176C1396.55 300.085 1408.62 295.039 1423.99 295.039C1438.24 295.039 1449.51 299.368 1457.78 308.027C1466.04 316.686 1470.18 328.6 1470.18 343.77V356.172H1398.21C1398.53 366.654 1401.36 374.727 1406.7 380.391C1412.04 385.99 1419.56 388.789 1429.26 388.789C1435.64 388.789 1441.57 388.203 1447.03 387.031C1452.57 385.794 1458.49 383.776 1464.81 380.977V399.629C1459.21 402.298 1453.54 404.186 1447.82 405.293C1442.09 406.4 1435.54 406.953 1428.19 406.953ZM1423.99 312.422C1416.7 312.422 1410.84 314.733 1406.41 319.355C1402.05 323.978 1399.44 330.716 1398.6 339.57H1447.62C1447.49 330.651 1445.34 323.913 1441.17 319.355C1437.01 314.733 1431.28 312.422 1423.99 312.422ZM1547.04 295.039C1551.66 295.039 1555.47 295.365 1558.46 296.016L1556.22 317.402C1552.96 316.621 1549.58 316.23 1546.06 316.23C1536.88 316.23 1529.43 319.225 1523.7 325.215C1518.03 331.204 1515.2 338.984 1515.2 348.555V405H1492.25V296.992H1510.22L1513.25 316.035H1514.42C1518 309.59 1522.66 304.479 1528.39 300.703C1534.18 296.927 1540.4 295.039 1547.04 295.039ZM1621.75 406.953C1604.95 406.953 1591.8 402.07 1582.3 392.305C1572.86 382.474 1568.14 368.965 1568.14 351.777C1568.14 334.134 1572.53 320.267 1581.32 310.176C1590.11 300.085 1602.18 295.039 1617.55 295.039C1631.81 295.039 1643.07 299.368 1651.34 308.027C1659.61 316.686 1663.74 328.6 1663.74 343.77V356.172H1591.77C1592.09 366.654 1594.93 374.727 1600.26 380.391C1605.6 385.99 1613.12 388.789 1622.82 388.789C1629.2 388.789 1635.13 388.203 1640.6 387.031C1646.13 385.794 1652.05 383.776 1658.37 380.977V399.629C1652.77 402.298 1647.11 404.186 1641.38 405.293C1635.65 406.4 1629.11 406.953 1621.75 406.953ZM1617.55 312.422C1610.26 312.422 1604.4 314.733 1599.97 319.355C1595.61 323.978 1593.01 330.716 1592.16 339.57H1641.18C1641.05 330.651 1638.9 323.913 1634.74 319.355C1630.57 314.733 1624.84 312.422 1617.55 312.422ZM1780.83 405H1757.79V338.594C1757.79 330.26 1756.1 324.043 1752.71 319.941C1749.39 315.84 1744.08 313.789 1736.79 313.789C1727.09 313.789 1719.99 316.654 1715.5 322.383C1711.01 328.112 1708.76 337.715 1708.76 351.191V405H1685.82V296.992H1703.78L1707.01 311.152H1708.18C1711.43 306.009 1716.06 302.038 1722.05 299.238C1728.04 296.439 1734.68 295.039 1741.97 295.039C1767.88 295.039 1780.83 308.223 1780.83 334.59V405ZM1849 388.398C1854.6 388.398 1860.2 387.52 1865.8 385.762V403.047C1863.26 404.154 1859.97 405.065 1855.94 405.781C1851.96 406.562 1847.83 406.953 1843.53 406.953C1821.79 406.953 1810.92 395.495 1810.92 372.578V314.375H1796.17V304.219L1811.99 295.82L1819.8 272.969H1833.96V296.992H1864.73V314.375H1833.96V372.188C1833.96 377.721 1835.33 381.823 1838.07 384.492C1840.86 387.096 1844.51 388.398 1849 388.398ZM2003.3 388.398C2008.9 388.398 2014.49 387.52 2020.09 385.762V403.047C2017.55 404.154 2014.27 405.065 2010.23 405.781C2006.26 406.562 2002.12 406.953 1997.83 406.953C1976.08 406.953 1965.21 395.495 1965.21 372.578V314.375H1950.46V304.219L1966.29 295.82L1974.1 272.969H1988.26V296.992H2019.02V314.375H1988.26V372.188C1988.26 377.721 1989.62 381.823 1992.36 384.492C1995.16 387.096 1998.8 388.398 2003.3 388.398ZM2132.79 405H2109.75V338.594C2109.75 330.26 2108.05 324.043 2104.67 319.941C2101.35 315.84 2096.04 313.789 2088.75 313.789C2079.11 313.789 2072.02 316.686 2067.46 322.48C2062.97 328.21 2060.72 337.845 2060.72 351.387V405H2037.77V253.047H2060.72V291.621C2060.72 297.806 2060.33 304.414 2059.55 311.445H2061.02C2064.14 306.237 2068.47 302.201 2074 299.336C2079.6 296.471 2086.11 295.039 2093.54 295.039C2119.71 295.039 2132.79 308.223 2132.79 334.59V405ZM2183.68 405H2160.73V296.992H2183.68V405ZM2159.36 268.379C2159.36 264.277 2160.47 261.12 2162.68 258.906C2164.96 256.693 2168.18 255.586 2172.35 255.586C2176.38 255.586 2179.51 256.693 2181.72 258.906C2184 261.12 2185.14 264.277 2185.14 268.379C2185.14 272.285 2184 275.378 2181.72 277.656C2179.51 279.87 2176.38 280.977 2172.35 280.977C2168.18 280.977 2164.96 279.87 2162.68 277.656C2160.47 275.378 2159.36 272.285 2159.36 268.379ZM2307.61 405H2284.56V338.594C2284.56 330.26 2282.87 324.043 2279.48 319.941C2276.16 315.84 2270.85 313.789 2263.56 313.789C2253.86 313.789 2246.77 316.654 2242.27 322.383C2237.78 328.112 2235.54 337.715 2235.54 351.191V405H2212.59V296.992H2230.55L2233.78 311.152H2234.95C2238.2 306.009 2242.83 302.038 2248.82 299.238C2254.81 296.439 2261.45 295.039 2268.74 295.039C2294.65 295.039 2307.61 308.223 2307.61 334.59V405ZM2426.75 296.992V309.59L2408.29 313.008C2409.99 315.286 2411.39 318.086 2412.49 321.406C2413.6 324.727 2414.15 328.242 2414.15 331.953C2414.15 343.086 2410.31 351.842 2402.63 358.223C2394.95 364.603 2384.37 367.793 2370.89 367.793C2367.44 367.793 2364.32 367.533 2361.52 367.012C2356.57 370.072 2354.09 373.652 2354.09 377.754C2354.09 380.228 2355.23 382.083 2357.51 383.32C2359.86 384.557 2364.12 385.176 2370.3 385.176H2389.15C2401.07 385.176 2410.12 387.715 2416.3 392.793C2422.49 397.871 2425.58 405.195 2425.58 414.766C2425.58 427.005 2420.53 436.445 2410.44 443.086C2400.35 449.727 2385.77 453.047 2366.69 453.047C2351.98 453.047 2340.75 450.443 2333 445.234C2325.25 440.026 2321.38 432.604 2321.38 422.969C2321.38 416.328 2323.46 410.729 2327.63 406.172C2331.86 401.68 2337.75 398.555 2345.3 396.797C2342.24 395.495 2339.71 393.411 2337.69 390.547C2335.73 387.617 2334.76 384.557 2334.76 381.367C2334.76 377.331 2335.9 373.913 2338.18 371.113C2340.45 368.314 2343.84 365.547 2348.33 362.812C2342.73 360.404 2338.18 356.497 2334.66 351.094C2331.21 345.625 2329.48 339.245 2329.48 331.953C2329.48 320.234 2333.16 311.152 2340.52 304.707C2347.94 298.262 2358.49 295.039 2372.16 295.039C2375.22 295.039 2378.41 295.267 2381.73 295.723C2385.12 296.113 2387.65 296.536 2389.35 296.992H2426.75ZM2341.89 421.797C2341.89 426.745 2344.1 430.553 2348.53 433.223C2353.02 435.892 2359.3 437.227 2367.38 437.227C2379.88 437.227 2389.18 435.436 2395.3 431.855C2401.42 428.275 2404.48 423.522 2404.48 417.598C2404.48 412.91 2402.79 409.557 2399.41 407.539C2396.09 405.586 2389.87 404.609 2380.75 404.609H2363.37C2356.8 404.609 2351.55 406.139 2347.65 409.199C2343.81 412.324 2341.89 416.523 2341.89 421.797ZM2351.75 331.953C2351.75 338.724 2353.48 343.932 2356.93 347.578C2360.44 351.224 2365.45 353.047 2371.96 353.047C2385.25 353.047 2391.89 345.951 2391.89 331.758C2391.89 324.727 2390.23 319.323 2386.91 315.547C2383.65 311.706 2378.67 309.785 2371.96 309.785C2365.32 309.785 2360.28 311.673 2356.83 315.449C2353.44 319.225 2351.75 324.727 2351.75 331.953ZM2515.43 374.238C2515.43 384.785 2511.58 392.891 2503.9 398.555C2496.22 404.154 2485.22 406.953 2470.89 406.953C2456.51 406.953 2444.95 404.772 2436.23 400.41V380.586C2448.92 386.445 2460.74 389.375 2471.68 389.375C2485.8 389.375 2492.87 385.111 2492.87 376.582C2492.87 373.848 2492.09 371.569 2490.52 369.746C2488.96 367.923 2486.39 366.035 2482.81 364.082C2479.23 362.129 2474.25 359.915 2467.87 357.441C2455.43 352.624 2447 347.806 2442.57 342.988C2438.21 338.171 2436.03 331.921 2436.03 324.238C2436.03 314.993 2439.74 307.832 2447.16 302.754C2454.65 297.611 2464.81 295.039 2477.63 295.039C2490.33 295.039 2502.34 297.611 2513.67 302.754L2506.25 320.039C2494.59 315.221 2484.79 312.812 2476.85 312.812C2464.74 312.812 2458.69 316.263 2458.69 323.164C2458.69 326.549 2460.25 329.414 2463.38 331.758C2466.57 334.102 2473.47 337.324 2484.08 341.426C2493 344.876 2499.48 348.034 2503.51 350.898C2507.55 353.763 2510.54 357.083 2512.5 360.859C2514.45 364.57 2515.43 369.03 2515.43 374.238ZM2532.91 392.793C2532.91 388.04 2534.15 384.395 2536.62 381.855C2539.1 379.316 2542.68 378.047 2547.36 378.047C2552.12 378.047 2555.73 379.382 2558.2 382.051C2560.68 384.655 2561.91 388.236 2561.91 392.793C2561.91 397.415 2560.64 401.094 2558.11 403.828C2555.63 406.497 2552.05 407.832 2547.36 407.832C2542.68 407.832 2539.1 406.497 2536.62 403.828C2534.15 401.159 2532.91 397.48 2532.91 392.793ZM85.9648 625.238C85.9648 635.785 82.1237 643.891 74.4414 649.555C66.7591 655.154 55.7565 657.953 41.4336 657.953C27.0456 657.953 15.4896 655.772 6.76562 651.41V631.586C19.4609 637.445 31.2773 640.375 42.2148 640.375C56.3424 640.375 63.4062 636.111 63.4062 627.582C63.4062 624.848 62.625 622.569 61.0625 620.746C59.5 618.923 56.9284 617.035 53.3477 615.082C49.7669 613.129 44.7865 610.915 38.4062 608.441C25.9714 603.624 17.5404 598.806 13.1133 593.988C8.7513 589.171 6.57031 582.921 6.57031 575.238C6.57031 565.993 10.2812 558.832 17.7031 553.754C25.1901 548.611 35.3464 546.039 48.1719 546.039C60.8672 546.039 72.8789 548.611 84.207 553.754L76.7852 571.039C65.1315 566.221 55.3333 563.812 47.3906 563.812C35.2812 563.812 29.2266 567.263 29.2266 574.164C29.2266 577.549 30.7891 580.414 33.9141 582.758C37.1042 585.102 44.0052 588.324 54.6172 592.426C63.5365 595.876 70.0143 599.034 74.0508 601.898C78.0872 604.763 81.082 608.083 83.0352 611.859C84.9883 615.57 85.9648 620.03 85.9648 625.238ZM183.039 656L179.816 641.84H178.645C175.454 646.853 170.897 650.792 164.973 653.656C159.113 656.521 152.408 657.953 144.855 657.953C131.77 657.953 122.004 654.698 115.559 648.188C109.113 641.677 105.891 631.814 105.891 618.598V547.992H129.035V614.594C129.035 622.862 130.728 629.079 134.113 633.246C137.499 637.348 142.805 639.398 150.031 639.398C159.667 639.398 166.73 636.534 171.223 630.805C175.78 625.01 178.059 615.342 178.059 601.801V547.992H201.105V656H183.039ZM273.375 657.953C257.034 657.953 244.599 653.201 236.07 643.695C227.607 634.125 223.375 620.421 223.375 602.582C223.375 584.418 227.802 570.453 236.656 560.688C245.576 550.922 258.434 546.039 275.23 546.039C286.624 546.039 296.878 548.155 305.992 552.387L299.059 570.844C289.358 567.068 281.35 565.18 275.035 565.18C256.35 565.18 247.008 577.582 247.008 602.387C247.008 614.496 249.319 623.611 253.941 629.73C258.629 635.785 265.465 638.812 274.449 638.812C284.671 638.812 294.339 636.273 303.453 631.195V651.215C299.352 653.624 294.957 655.349 290.27 656.391C285.647 657.432 280.016 657.953 273.375 657.953ZM419.863 656H396.816V589.594C396.816 581.26 395.124 575.043 391.738 570.941C388.418 566.84 383.112 564.789 375.82 564.789C366.185 564.789 359.089 567.686 354.531 573.48C350.039 579.21 347.793 588.845 347.793 602.387V656H324.844V504.047H347.793V542.621C347.793 548.806 347.402 555.414 346.621 562.445H348.086C351.211 557.237 355.54 553.201 361.074 550.336C366.673 547.471 373.184 546.039 380.605 546.039C406.777 546.039 419.863 559.223 419.863 585.59V656ZM690.57 656L685.98 640.961H685.199C679.991 647.536 674.75 652.029 669.477 654.438C664.203 656.781 657.432 657.953 649.164 657.953C638.552 657.953 630.251 655.089 624.262 649.359C618.337 643.63 615.375 635.525 615.375 625.043C615.375 613.91 619.509 605.512 627.777 599.848C636.046 594.184 648.643 591.091 665.57 590.57L684.223 589.984V584.223C684.223 577.322 682.595 572.178 679.34 568.793C676.15 565.342 671.169 563.617 664.398 563.617C658.865 563.617 653.559 564.431 648.48 566.059C643.402 567.686 638.52 569.607 633.832 571.82L626.41 555.414C632.27 552.354 638.682 550.043 645.648 548.48C652.615 546.853 659.19 546.039 665.375 546.039C679.112 546.039 689.464 549.034 696.43 555.023C703.461 561.013 706.977 570.421 706.977 583.246V656H690.57ZM656.391 640.375C664.724 640.375 671.397 638.064 676.41 633.441C681.488 628.754 684.027 622.211 684.027 613.812V604.438L670.16 605.023C659.353 605.414 651.475 607.237 646.527 610.492C641.645 613.682 639.203 618.598 639.203 625.238C639.203 630.056 640.635 633.799 643.5 636.469C646.365 639.073 650.661 640.375 656.391 640.375ZM807.566 625.238C807.566 635.785 803.725 643.891 796.043 649.555C788.361 655.154 777.358 657.953 763.035 657.953C748.647 657.953 737.091 655.772 728.367 651.41V631.586C741.062 637.445 752.879 640.375 763.816 640.375C777.944 640.375 785.008 636.111 785.008 627.582C785.008 624.848 784.227 622.569 782.664 620.746C781.102 618.923 778.53 617.035 774.949 615.082C771.368 613.129 766.388 610.915 760.008 608.441C747.573 603.624 739.142 598.806 734.715 593.988C730.353 589.171 728.172 582.921 728.172 575.238C728.172 565.993 731.883 558.832 739.305 553.754C746.792 548.611 756.948 546.039 769.773 546.039C782.469 546.039 794.48 548.611 805.809 553.754L798.387 571.039C786.733 566.221 776.935 563.812 768.992 563.812C756.883 563.812 750.828 567.263 750.828 574.164C750.828 577.549 752.391 580.414 755.516 582.758C758.706 585.102 765.607 588.324 776.219 592.426C785.138 595.876 791.616 599.034 795.652 601.898C799.689 604.763 802.684 608.083 804.637 611.859C806.59 615.57 807.566 620.03 807.566 625.238ZM1043.9 639.398C1049.5 639.398 1055.1 638.52 1060.7 636.762V654.047C1058.16 655.154 1054.87 656.065 1050.83 656.781C1046.86 657.562 1042.73 657.953 1038.43 657.953C1016.68 657.953 1005.81 646.495 1005.81 623.578V565.375H991.066V555.219L1006.89 546.82L1014.7 523.969H1028.86V547.992H1059.62V565.375H1028.86V623.188C1028.86 628.721 1030.23 632.823 1032.96 635.492C1035.76 638.096 1039.41 639.398 1043.9 639.398ZM1173.39 656H1150.35V589.594C1150.35 581.26 1148.65 575.043 1145.27 570.941C1141.95 566.84 1136.64 564.789 1129.35 564.789C1119.72 564.789 1112.62 567.686 1108.06 573.48C1103.57 579.21 1101.32 588.845 1101.32 602.387V656H1078.38V504.047H1101.32V542.621C1101.32 548.806 1100.93 555.414 1100.15 562.445H1101.62C1104.74 557.237 1109.07 553.201 1114.61 550.336C1120.2 547.471 1126.71 546.039 1134.14 546.039C1160.31 546.039 1173.39 559.223 1173.39 585.59V656ZM1224.28 656H1201.33V547.992H1224.28V656ZM1199.96 519.379C1199.96 515.277 1201.07 512.12 1203.28 509.906C1205.56 507.693 1208.78 506.586 1212.95 506.586C1216.99 506.586 1220.11 507.693 1222.32 509.906C1224.6 512.12 1225.74 515.277 1225.74 519.379C1225.74 523.285 1224.6 526.378 1222.32 528.656C1220.11 530.87 1216.99 531.977 1212.95 531.977C1208.78 531.977 1205.56 530.87 1203.28 528.656C1201.07 526.378 1199.96 523.285 1199.96 519.379ZM1325.75 625.238C1325.75 635.785 1321.9 643.891 1314.22 649.555C1306.54 655.154 1295.54 657.953 1281.21 657.953C1266.83 657.953 1255.27 655.772 1246.55 651.41V631.586C1259.24 637.445 1271.06 640.375 1282 640.375C1296.12 640.375 1303.19 636.111 1303.19 627.582C1303.19 624.848 1302.41 622.569 1300.84 620.746C1299.28 618.923 1296.71 617.035 1293.13 615.082C1289.55 613.129 1284.57 610.915 1278.19 608.441C1265.75 603.624 1257.32 598.806 1252.89 593.988C1248.53 589.171 1246.35 582.921 1246.35 575.238C1246.35 565.993 1250.06 558.832 1257.48 553.754C1264.97 548.611 1275.13 546.039 1287.95 546.039C1300.65 546.039 1312.66 548.611 1323.99 553.754L1316.57 571.039C1304.91 566.221 1295.11 563.812 1287.17 563.812C1275.06 563.812 1269.01 567.263 1269.01 574.164C1269.01 577.549 1270.57 580.414 1273.7 582.758C1276.89 585.102 1283.79 588.324 1294.4 592.426C1303.32 595.876 1309.8 599.034 1313.83 601.898C1317.87 604.763 1320.86 608.083 1322.82 611.859C1324.77 615.57 1325.75 620.03 1325.75 625.238ZM1576.63 657.953C1562.96 657.953 1552.35 653.038 1544.79 643.207H1543.43C1544.34 652.322 1544.79 657.855 1544.79 659.809V704.047H1521.84V547.992H1540.4C1540.92 550.01 1541.99 554.828 1543.62 562.445H1544.79C1551.95 551.508 1562.7 546.039 1577.02 546.039C1590.5 546.039 1600.98 550.922 1608.46 560.688C1616.02 570.453 1619.79 584.158 1619.79 601.801C1619.79 619.444 1615.95 633.214 1608.27 643.109C1600.65 653.005 1590.11 657.953 1576.63 657.953ZM1571.06 564.789C1561.95 564.789 1555.27 567.458 1551.04 572.797C1546.88 578.135 1544.79 586.664 1544.79 598.383V601.801C1544.79 614.952 1546.88 624.49 1551.04 630.414C1555.21 636.273 1562.01 639.203 1571.45 639.203C1579.4 639.203 1585.52 635.948 1589.81 629.438C1594.11 622.927 1596.26 613.65 1596.26 601.605C1596.26 589.496 1594.11 580.349 1589.81 574.164C1585.58 567.914 1579.33 564.789 1571.06 564.789ZM1710.03 656L1705.44 640.961H1704.66C1699.45 647.536 1694.21 652.029 1688.94 654.438C1683.66 656.781 1676.89 657.953 1668.62 657.953C1658.01 657.953 1649.71 655.089 1643.72 649.359C1637.8 643.63 1634.84 635.525 1634.84 625.043C1634.84 613.91 1638.97 605.512 1647.24 599.848C1655.51 594.184 1668.1 591.091 1685.03 590.57L1703.68 589.984V584.223C1703.68 577.322 1702.06 572.178 1698.8 568.793C1695.61 565.342 1690.63 563.617 1683.86 563.617C1678.33 563.617 1673.02 564.431 1667.94 566.059C1662.86 567.686 1657.98 569.607 1653.29 571.82L1645.87 555.414C1651.73 552.354 1658.14 550.043 1665.11 548.48C1672.08 546.853 1678.65 546.039 1684.84 546.039C1698.57 546.039 1708.92 549.034 1715.89 555.023C1722.92 561.013 1726.44 570.421 1726.44 583.246V656H1710.03ZM1675.85 640.375C1684.18 640.375 1690.86 638.064 1695.87 633.441C1700.95 628.754 1703.49 622.211 1703.49 613.812V604.438L1689.62 605.023C1678.81 605.414 1670.94 607.237 1665.99 610.492C1661.11 613.682 1658.66 618.598 1658.66 625.238C1658.66 630.056 1660.1 633.799 1662.96 636.469C1665.83 639.073 1670.12 640.375 1675.85 640.375ZM1845.68 547.992V560.59L1827.22 564.008C1828.92 566.286 1830.32 569.086 1831.42 572.406C1832.53 575.727 1833.08 579.242 1833.08 582.953C1833.08 594.086 1829.24 602.842 1821.56 609.223C1813.88 615.603 1803.3 618.793 1789.82 618.793C1786.37 618.793 1783.24 618.533 1780.45 618.012C1775.5 621.072 1773.02 624.652 1773.02 628.754C1773.02 631.228 1774.16 633.083 1776.44 634.32C1778.79 635.557 1783.05 636.176 1789.23 636.176H1808.08C1820 636.176 1829.05 638.715 1835.23 643.793C1841.42 648.871 1844.51 656.195 1844.51 665.766C1844.51 678.005 1839.46 687.445 1829.37 694.086C1819.28 700.727 1804.7 704.047 1785.62 704.047C1770.91 704.047 1759.68 701.443 1751.93 696.234C1744.18 691.026 1740.31 683.604 1740.31 673.969C1740.31 667.328 1742.39 661.729 1746.56 657.172C1750.79 652.68 1756.68 649.555 1764.23 647.797C1761.17 646.495 1758.64 644.411 1756.62 641.547C1754.66 638.617 1753.69 635.557 1753.69 632.367C1753.69 628.331 1754.83 624.913 1757.11 622.113C1759.38 619.314 1762.77 616.547 1767.26 613.812C1761.66 611.404 1757.11 607.497 1753.59 602.094C1750.14 596.625 1748.41 590.245 1748.41 582.953C1748.41 571.234 1752.09 562.152 1759.45 555.707C1766.87 549.262 1777.42 546.039 1791.09 546.039C1794.15 546.039 1797.34 546.267 1800.66 546.723C1804.05 547.113 1806.58 547.536 1808.28 547.992H1845.68ZM1760.82 672.797C1760.82 677.745 1763.03 681.553 1767.46 684.223C1771.95 686.892 1778.23 688.227 1786.3 688.227C1798.8 688.227 1808.11 686.436 1814.23 682.855C1820.35 679.275 1823.41 674.522 1823.41 668.598C1823.41 663.91 1821.72 660.557 1818.34 658.539C1815.02 656.586 1808.8 655.609 1799.68 655.609H1782.3C1775.73 655.609 1770.48 657.139 1766.58 660.199C1762.74 663.324 1760.82 667.523 1760.82 672.797ZM1770.68 582.953C1770.68 589.724 1772.4 594.932 1775.86 598.578C1779.37 602.224 1784.38 604.047 1790.89 604.047C1804.18 604.047 1810.82 596.951 1810.82 582.758C1810.82 575.727 1809.16 570.323 1805.84 566.547C1802.58 562.706 1797.6 560.785 1790.89 560.785C1784.25 560.785 1779.21 562.673 1775.76 566.449C1772.37 570.225 1770.68 575.727 1770.68 582.953ZM1908.96 657.953C1892.17 657.953 1879.02 653.07 1869.51 643.305C1860.07 633.474 1855.35 619.965 1855.35 602.777C1855.35 585.134 1859.75 571.267 1868.54 561.176C1877.32 551.085 1889.4 546.039 1904.77 546.039C1919.02 546.039 1930.29 550.368 1938.55 559.027C1946.82 567.686 1950.96 579.6 1950.96 594.77V607.172H1878.98C1879.31 617.654 1882.14 625.727 1887.48 631.391C1892.82 636.99 1900.34 639.789 1910.04 639.789C1916.42 639.789 1922.34 639.203 1927.81 638.031C1933.35 636.794 1939.27 634.776 1945.59 631.977V650.629C1939.99 653.298 1934.32 655.186 1928.59 656.293C1922.86 657.4 1916.32 657.953 1908.96 657.953ZM1904.77 563.422C1897.47 563.422 1891.61 565.733 1887.19 570.355C1882.83 574.978 1880.22 581.716 1879.38 590.57H1928.4C1928.27 581.651 1926.12 574.913 1921.95 570.355C1917.79 565.733 1912.06 563.422 1904.77 563.422ZM2203.01 546.039C2207.63 546.039 2211.44 546.365 2214.44 547.016L2212.19 568.402C2208.94 567.621 2205.55 567.23 2202.04 567.23C2192.86 567.23 2185.4 570.225 2179.67 576.215C2174.01 582.204 2171.18 589.984 2171.18 599.555V656H2148.23V547.992H2166.2L2169.22 567.035H2170.39C2173.98 560.59 2178.63 555.479 2184.36 551.703C2190.15 547.927 2196.37 546.039 2203.01 546.039ZM2253.5 656H2230.55V547.992H2253.5V656ZM2229.19 519.379C2229.19 515.277 2230.29 512.12 2232.51 509.906C2234.79 507.693 2238.01 506.586 2242.18 506.586C2246.21 506.586 2249.34 507.693 2251.55 509.906C2253.83 512.12 2254.97 515.277 2254.97 519.379C2254.97 523.285 2253.83 526.378 2251.55 528.656C2249.34 530.87 2246.21 531.977 2242.18 531.977C2238.01 531.977 2234.79 530.87 2232.51 528.656C2230.29 526.378 2229.19 523.285 2229.19 519.379ZM2373.62 547.992V560.59L2355.17 564.008C2356.86 566.286 2358.26 569.086 2359.37 572.406C2360.47 575.727 2361.03 579.242 2361.03 582.953C2361.03 594.086 2357.19 602.842 2349.5 609.223C2341.82 615.603 2331.24 618.793 2317.77 618.793C2314.32 618.793 2311.19 618.533 2308.39 618.012C2303.44 621.072 2300.97 624.652 2300.97 628.754C2300.97 631.228 2302.11 633.083 2304.39 634.32C2306.73 635.557 2310.99 636.176 2317.18 636.176H2336.03C2347.94 636.176 2356.99 638.715 2363.18 643.793C2369.36 648.871 2372.45 656.195 2372.45 665.766C2372.45 678.005 2367.41 687.445 2357.32 694.086C2347.23 700.727 2332.64 704.047 2313.57 704.047C2298.85 704.047 2287.62 701.443 2279.88 696.234C2272.13 691.026 2268.25 683.604 2268.25 673.969C2268.25 667.328 2270.34 661.729 2274.5 657.172C2278.74 652.68 2284.63 649.555 2292.18 647.797C2289.12 646.495 2286.58 644.411 2284.56 641.547C2282.61 638.617 2281.63 635.557 2281.63 632.367C2281.63 628.331 2282.77 624.913 2285.05 622.113C2287.33 619.314 2290.71 616.547 2295.21 613.812C2289.61 611.404 2285.05 607.497 2281.54 602.094C2278.08 596.625 2276.36 590.245 2276.36 582.953C2276.36 571.234 2280.04 562.152 2287.39 555.707C2294.82 549.262 2305.36 546.039 2319.04 546.039C2322.1 546.039 2325.29 546.267 2328.61 546.723C2331.99 547.113 2334.53 547.536 2336.22 547.992H2373.62ZM2288.76 672.797C2288.76 677.745 2290.98 681.553 2295.4 684.223C2299.89 686.892 2306.18 688.227 2314.25 688.227C2326.75 688.227 2336.06 686.436 2342.18 682.855C2348.3 679.275 2351.36 674.522 2351.36 668.598C2351.36 663.91 2349.67 660.557 2346.28 658.539C2342.96 656.586 2336.74 655.609 2327.63 655.609H2310.25C2303.67 655.609 2298.43 657.139 2294.52 660.199C2290.68 663.324 2288.76 667.523 2288.76 672.797ZM2298.62 582.953C2298.62 589.724 2300.35 594.932 2303.8 598.578C2307.32 602.224 2312.33 604.047 2318.84 604.047C2332.12 604.047 2338.76 596.951 2338.76 582.758C2338.76 575.727 2337.1 570.323 2333.78 566.547C2330.53 562.706 2325.55 560.785 2318.84 560.785C2312.2 560.785 2307.15 562.673 2303.7 566.449C2300.32 570.225 2298.62 575.727 2298.62 582.953ZM2484.76 656H2461.71V589.594C2461.71 581.26 2460.02 575.043 2456.64 570.941C2453.32 566.84 2448.01 564.789 2440.72 564.789C2431.08 564.789 2423.99 567.686 2419.43 573.48C2414.94 579.21 2412.69 588.845 2412.69 602.387V656H2389.74V504.047H2412.69V542.621C2412.69 548.806 2412.3 555.414 2411.52 562.445H2412.98C2416.11 557.237 2420.44 553.201 2425.97 550.336C2431.57 547.471 2438.08 546.039 2445.5 546.039C2471.68 546.039 2484.76 559.223 2484.76 585.59V656ZM2552.93 639.398C2558.53 639.398 2564.13 638.52 2569.73 636.762V654.047C2567.19 655.154 2563.9 656.065 2559.86 656.781C2555.89 657.562 2551.76 657.953 2547.46 657.953C2525.72 657.953 2514.84 646.495 2514.84 623.578V565.375H2500.1V555.219L2515.92 546.82L2523.73 523.969H2537.89V547.992H2568.65V565.375H2537.89V623.188C2537.89 628.721 2539.26 632.823 2541.99 635.492C2544.79 638.096 2548.44 639.398 2552.93 639.398ZM108.426 907H85.3789V840.594C85.3789 832.26 83.6862 826.043 80.3008 821.941C76.9805 817.84 71.6745 815.789 64.3828 815.789C54.7474 815.789 47.651 818.686 43.0938 824.48C38.6016 830.21 36.3555 839.845 36.3555 853.387V907H13.4062V755.047H36.3555V793.621C36.3555 799.806 35.9648 806.414 35.1836 813.445H36.6484C39.7734 808.237 44.1029 804.201 49.6367 801.336C55.2357 798.471 61.7461 797.039 69.168 797.039C95.3398 797.039 108.426 810.223 108.426 836.59V907ZM183.527 908.953C166.73 908.953 153.579 904.07 144.074 894.305C134.634 884.474 129.914 870.965 129.914 853.777C129.914 836.134 134.309 822.267 143.098 812.176C151.887 802.085 163.964 797.039 179.328 797.039C193.586 797.039 204.849 801.368 213.117 810.027C221.385 818.686 225.52 830.6 225.52 845.77V858.172H153.547C153.872 868.654 156.704 876.727 162.043 882.391C167.382 887.99 174.901 890.789 184.602 890.789C190.982 890.789 196.906 890.203 202.375 889.031C207.909 887.794 213.833 885.776 220.148 882.977V901.629C214.549 904.298 208.885 906.186 203.156 907.293C197.427 908.4 190.884 908.953 183.527 908.953ZM179.328 814.422C172.036 814.422 166.177 816.733 161.75 821.355C157.388 825.978 154.784 832.716 153.938 841.57H202.961C202.831 832.651 200.682 825.913 196.516 821.355C192.349 816.733 186.62 814.422 179.328 814.422ZM302.379 797.039C307.001 797.039 310.81 797.365 313.805 798.016L311.559 819.402C308.303 818.621 304.918 818.23 301.402 818.23C292.223 818.23 284.768 821.225 279.039 827.215C273.375 833.204 270.543 840.984 270.543 850.555V907H247.594V798.992H265.562L268.59 818.035H269.762C273.342 811.59 277.997 806.479 283.727 802.703C289.521 798.927 295.738 797.039 302.379 797.039ZM377.09 908.953C360.293 908.953 347.142 904.07 337.637 894.305C328.197 884.474 323.477 870.965 323.477 853.777C323.477 836.134 327.871 822.267 336.66 812.176C345.449 802.085 357.526 797.039 372.891 797.039C387.148 797.039 398.411 801.368 406.68 810.027C414.948 818.686 419.082 830.6 419.082 845.77V858.172H347.109C347.435 868.654 350.267 876.727 355.605 882.391C360.944 887.99 368.464 890.789 378.164 890.789C384.544 890.789 390.469 890.203 395.938 889.031C401.471 887.794 407.396 885.776 413.711 882.977V901.629C408.112 904.298 402.448 906.186 396.719 907.293C390.99 908.4 384.447 908.953 377.09 908.953ZM372.891 814.422C365.599 814.422 359.74 816.733 355.312 821.355C350.951 825.978 348.346 832.716 347.5 841.57H396.523C396.393 832.651 394.245 825.913 390.078 821.355C385.911 816.733 380.182 814.422 372.891 814.422ZM437.738 894.793C437.738 890.04 438.975 886.395 441.449 883.855C443.923 881.316 447.504 880.047 452.191 880.047C456.944 880.047 460.557 881.382 463.031 884.051C465.505 886.655 466.742 890.236 466.742 894.793C466.742 899.415 465.473 903.094 462.934 905.828C460.46 908.497 456.879 909.832 452.191 909.832C447.504 909.832 443.923 908.497 441.449 905.828C438.975 903.159 437.738 899.48 437.738 894.793ZM659.967 907H636.92V840.398C636.92 832.13 635.358 825.978 632.233 821.941C629.108 817.84 624.225 815.789 617.584 815.789C608.73 815.789 602.22 818.686 598.053 824.48C593.952 830.21 591.901 839.78 591.901 853.191V907H568.952V798.992H586.92L590.143 813.152H591.315C594.31 808.009 598.639 804.038 604.303 801.238C610.032 798.439 616.315 797.039 623.151 797.039C639.752 797.039 650.755 802.703 656.159 814.031H657.721C660.911 808.693 665.403 804.526 671.198 801.531C676.992 798.536 683.633 797.039 691.12 797.039C704.01 797.039 713.385 800.294 719.245 806.805C725.169 813.315 728.131 823.243 728.131 836.59V907H705.182V840.398C705.182 832.13 703.587 825.978 700.397 821.941C697.272 817.84 692.389 815.789 685.748 815.789C676.829 815.789 670.286 818.589 666.12 824.188C662.018 829.721 659.967 838.25 659.967 849.773V907ZM779.112 907H756.162V798.992H779.112V907ZM754.795 770.379C754.795 766.277 755.902 763.12 758.116 760.906C760.394 758.693 763.617 757.586 767.784 757.586C771.82 757.586 774.945 758.693 777.159 760.906C779.437 763.12 780.577 766.277 780.577 770.379C780.577 774.285 779.437 777.378 777.159 779.656C774.945 781.87 771.82 782.977 767.784 782.977C763.617 782.977 760.394 781.87 758.116 779.656C755.902 777.378 754.795 774.285 754.795 770.379ZM899.233 798.992V811.59L880.776 815.008C882.468 817.286 883.868 820.086 884.975 823.406C886.082 826.727 886.635 830.242 886.635 833.953C886.635 845.086 882.794 853.842 875.112 860.223C867.429 866.603 856.85 869.793 843.373 869.793C839.923 869.793 836.798 869.533 833.998 869.012C829.05 872.072 826.577 875.652 826.577 879.754C826.577 882.228 827.716 884.083 829.995 885.32C832.338 886.557 836.603 887.176 842.787 887.176H861.635C873.549 887.176 882.599 889.715 888.784 894.793C894.968 899.871 898.061 907.195 898.061 916.766C898.061 929.005 893.015 938.445 882.924 945.086C872.833 951.727 858.25 955.047 839.174 955.047C824.461 955.047 813.23 952.443 805.483 947.234C797.735 942.026 793.862 934.604 793.862 924.969C793.862 918.328 795.945 912.729 800.112 908.172C804.343 903.68 810.235 900.555 817.787 898.797C814.728 897.495 812.189 895.411 810.17 892.547C808.217 889.617 807.241 886.557 807.241 883.367C807.241 879.331 808.38 875.913 810.659 873.113C812.937 870.314 816.323 867.547 820.815 864.812C815.216 862.404 810.659 858.497 807.143 853.094C803.692 847.625 801.967 841.245 801.967 833.953C801.967 822.234 805.646 813.152 813.002 806.707C820.424 800.262 830.971 797.039 844.643 797.039C847.703 797.039 850.893 797.267 854.213 797.723C857.599 798.113 860.138 798.536 861.83 798.992H899.233ZM814.37 923.797C814.37 928.745 816.583 932.553 821.01 935.223C825.502 937.892 831.785 939.227 839.858 939.227C852.358 939.227 861.668 937.436 867.787 933.855C873.907 930.275 876.967 925.522 876.967 919.598C876.967 914.91 875.274 911.557 871.889 909.539C868.569 907.586 862.351 906.609 853.237 906.609H835.854C829.278 906.609 824.037 908.139 820.131 911.199C816.29 914.324 814.37 918.523 814.37 923.797ZM824.233 833.953C824.233 840.724 825.958 845.932 829.409 849.578C832.924 853.224 837.937 855.047 844.448 855.047C857.729 855.047 864.37 847.951 864.37 833.758C864.37 826.727 862.709 821.323 859.389 817.547C856.134 813.706 851.153 811.785 844.448 811.785C837.807 811.785 832.761 813.673 829.311 817.449C825.925 821.225 824.233 826.727 824.233 833.953ZM1010.37 907H987.323V840.594C987.323 832.26 985.63 826.043 982.245 821.941C978.924 817.84 973.618 815.789 966.327 815.789C956.691 815.789 949.595 818.686 945.037 824.48C940.545 830.21 938.299 839.845 938.299 853.387V907H915.35V755.047H938.299V793.621C938.299 799.806 937.909 806.414 937.127 813.445H938.592C941.717 808.237 946.047 804.201 951.58 801.336C957.179 798.471 963.69 797.039 971.112 797.039C997.284 797.039 1010.37 810.223 1010.37 836.59V907ZM1078.54 890.398C1084.14 890.398 1089.74 889.52 1095.33 887.762V905.047C1092.8 906.154 1089.51 907.065 1085.47 907.781C1081.5 908.562 1077.37 908.953 1073.07 908.953C1051.32 908.953 1040.45 897.495 1040.45 874.578V816.375H1025.71V806.219L1041.53 797.82L1049.34 774.969H1063.5V798.992H1094.26V816.375H1063.5V874.188C1063.5 879.721 1064.87 883.823 1067.6 886.492C1070.4 889.096 1074.05 890.398 1078.54 890.398ZM1284.75 907H1261.7V840.594C1261.7 832.26 1260.01 826.043 1256.63 821.941C1253.31 817.84 1248 815.789 1240.71 815.789C1231.01 815.789 1223.91 818.654 1219.42 824.383C1214.93 830.112 1212.68 839.715 1212.68 853.191V907H1189.73V798.992H1207.7L1210.92 813.152H1212.09C1215.35 808.009 1219.97 804.038 1225.96 801.238C1231.95 798.439 1238.59 797.039 1245.88 797.039C1271.8 797.039 1284.75 810.223 1284.75 836.59V907ZM1408.49 852.801C1408.49 870.444 1403.96 884.214 1394.91 894.109C1385.86 904.005 1373.26 908.953 1357.12 908.953C1347.03 908.953 1338.11 906.674 1330.36 902.117C1322.61 897.56 1316.66 891.017 1312.49 882.488C1308.32 873.96 1306.24 864.064 1306.24 852.801C1306.24 835.288 1310.73 821.616 1319.72 811.785C1328.7 801.954 1341.36 797.039 1357.7 797.039C1373.33 797.039 1385.7 802.085 1394.81 812.176C1403.93 822.202 1408.49 835.743 1408.49 852.801ZM1329.87 852.801C1329.87 877.736 1339.08 890.203 1357.51 890.203C1375.74 890.203 1384.85 877.736 1384.85 852.801C1384.85 828.126 1375.67 815.789 1357.31 815.789C1347.68 815.789 1340.68 818.979 1336.32 825.359C1332.02 831.74 1329.87 840.887 1329.87 852.801ZM1471.18 890.398C1476.78 890.398 1482.38 889.52 1487.98 887.762V905.047C1485.44 906.154 1482.15 907.065 1478.12 907.781C1474.15 908.562 1470.01 908.953 1465.72 908.953C1443.97 908.953 1433.1 897.495 1433.1 874.578V816.375H1418.35V806.219L1434.17 797.82L1441.99 774.969H1456.15V798.992H1486.91V816.375H1456.15V874.188C1456.15 879.721 1457.51 883.823 1460.25 886.492C1463.05 889.096 1466.69 890.398 1471.18 890.398ZM1637.55 797.039C1651.03 797.039 1661.51 801.922 1669 811.688C1676.55 821.453 1680.33 835.158 1680.33 852.801C1680.33 870.509 1676.52 884.311 1668.9 894.207C1661.28 904.038 1650.7 908.953 1637.16 908.953C1623.49 908.953 1612.88 904.038 1605.33 894.207H1603.76L1599.57 907H1582.38V755.047H1605.33V791.18C1605.33 793.849 1605.2 797.82 1604.94 803.094C1604.68 808.367 1604.48 811.72 1604.35 813.152H1605.33C1612.62 802.41 1623.36 797.039 1637.55 797.039ZM1631.6 815.789C1622.35 815.789 1615.68 818.523 1611.58 823.992C1607.54 829.396 1605.46 838.478 1605.33 851.238V852.801C1605.33 865.952 1607.41 875.49 1611.58 881.414C1615.74 887.273 1622.55 890.203 1631.99 890.203C1640.13 890.203 1646.28 886.98 1650.44 880.535C1654.68 874.09 1656.79 864.78 1656.79 852.605C1656.79 828.061 1648.39 815.789 1631.6 815.789ZM1750.16 908.953C1733.36 908.953 1720.21 904.07 1710.7 894.305C1701.26 884.474 1696.54 870.965 1696.54 853.777C1696.54 836.134 1700.94 822.267 1709.73 812.176C1718.51 802.085 1730.59 797.039 1745.96 797.039C1760.21 797.039 1771.48 801.368 1779.75 810.027C1788.01 818.686 1792.15 830.6 1792.15 845.77V858.172H1720.18C1720.5 868.654 1723.33 876.727 1728.67 882.391C1734.01 887.99 1741.53 890.789 1751.23 890.789C1757.61 890.789 1763.53 890.203 1769 889.031C1774.54 887.794 1780.46 885.776 1786.78 882.977V901.629C1781.18 904.298 1775.51 906.186 1769.78 907.293C1764.06 908.4 1757.51 908.953 1750.16 908.953ZM1745.96 814.422C1738.66 814.422 1732.81 816.733 1728.38 821.355C1724.02 825.978 1721.41 832.716 1720.57 841.57H1769.59C1769.46 832.651 1767.31 825.913 1763.14 821.355C1758.98 816.733 1753.25 814.422 1745.96 814.422ZM1931.17 890.398C1936.77 890.398 1942.37 889.52 1947.97 887.762V905.047C1945.43 906.154 1942.14 907.065 1938.11 907.781C1934.14 908.562 1930 908.953 1925.7 908.953C1903.96 908.953 1893.09 897.495 1893.09 874.578V816.375H1878.34V806.219L1894.16 797.82L1901.97 774.969H1916.13V798.992H1946.9V816.375H1916.13V874.188C1916.13 879.721 1917.5 883.823 1920.24 886.492C1923.04 889.096 1926.68 890.398 1931.17 890.398ZM2061.45 852.801C2061.45 870.444 2056.93 884.214 2047.88 894.109C2038.83 904.005 2026.23 908.953 2010.08 908.953C1999.99 908.953 1991.07 906.674 1983.33 902.117C1975.58 897.56 1969.62 891.017 1965.45 882.488C1961.29 873.96 1959.2 864.064 1959.2 852.801C1959.2 835.288 1963.7 821.616 1972.68 811.785C1981.67 801.954 1994.33 797.039 2010.67 797.039C2026.29 797.039 2038.66 802.085 2047.78 812.176C2056.89 822.202 2061.45 835.743 2061.45 852.801ZM1982.84 852.801C1982.84 877.736 1992.05 890.203 2010.47 890.203C2028.7 890.203 2037.82 877.736 2037.82 852.801C2037.82 828.126 2028.64 815.789 2010.28 815.789C2000.64 815.789 1993.64 818.979 1989.28 825.359C1984.99 831.74 1982.84 840.887 1982.84 852.801ZM2144.23 798.992H2169.23L2191.2 860.223C2194.52 868.947 2196.73 877.15 2197.84 884.832H2198.62C2199.21 881.251 2200.28 876.922 2201.84 871.844C2203.41 866.701 2211.67 842.417 2226.65 798.992H2251.45L2205.26 921.355C2196.86 943.816 2182.87 955.047 2163.27 955.047C2158.19 955.047 2153.24 954.493 2148.43 953.387V935.223C2151.88 936.004 2155.82 936.395 2160.24 936.395C2171.31 936.395 2179.09 929.982 2183.58 917.156L2187.59 907L2144.23 798.992ZM2359.66 852.801C2359.66 870.444 2355.14 884.214 2346.09 894.109C2337.04 904.005 2324.44 908.953 2308.29 908.953C2298.2 908.953 2289.28 906.674 2281.54 902.117C2273.79 897.56 2267.83 891.017 2263.66 882.488C2259.5 873.96 2257.41 864.064 2257.41 852.801C2257.41 835.288 2261.91 821.616 2270.89 811.785C2279.88 801.954 2292.54 797.039 2308.88 797.039C2324.5 797.039 2336.87 802.085 2345.99 812.176C2355.1 822.202 2359.66 835.743 2359.66 852.801ZM2281.05 852.801C2281.05 877.736 2290.26 890.203 2308.68 890.203C2326.91 890.203 2336.03 877.736 2336.03 852.801C2336.03 828.126 2326.85 815.789 2308.49 815.789C2298.85 815.789 2291.85 818.979 2287.49 825.359C2283.2 831.74 2281.05 840.887 2281.05 852.801ZM2458.3 907L2455.07 892.84H2453.9C2450.71 897.853 2446.15 901.792 2440.23 904.656C2434.37 907.521 2427.67 908.953 2420.11 908.953C2407.03 908.953 2397.26 905.698 2390.82 899.188C2384.37 892.677 2381.15 882.814 2381.15 869.598V798.992H2404.29V865.594C2404.29 873.862 2405.99 880.079 2409.37 884.246C2412.76 888.348 2418.06 890.398 2425.29 890.398C2434.92 890.398 2441.99 887.534 2446.48 881.805C2451.04 876.01 2453.32 866.342 2453.32 852.801V798.992H2476.36V907H2458.3ZM2559.86 797.039C2564.49 797.039 2568.29 797.365 2571.29 798.016L2569.04 819.402C2565.79 818.621 2562.4 818.23 2558.89 818.23C2549.71 818.23 2542.25 821.225 2536.52 827.215C2530.86 833.204 2528.03 840.984 2528.03 850.555V907H2505.08V798.992H2523.05L2526.07 818.035H2527.25C2530.83 811.59 2535.48 806.479 2541.21 802.703C2547.01 798.927 2553.22 797.039 2559.86 797.039ZM85.9648 1127.24C85.9648 1137.79 82.1237 1145.89 74.4414 1151.55C66.7591 1157.15 55.7565 1159.95 41.4336 1159.95C27.0456 1159.95 15.4896 1157.77 6.76562 1153.41V1133.59C19.4609 1139.45 31.2773 1142.38 42.2148 1142.38C56.3424 1142.38 63.4062 1138.11 63.4062 1129.58C63.4062 1126.85 62.625 1124.57 61.0625 1122.75C59.5 1120.92 56.9284 1119.04 53.3477 1117.08C49.7669 1115.13 44.7865 1112.92 38.4062 1110.44C25.9714 1105.62 17.5404 1100.81 13.1133 1095.99C8.7513 1091.17 6.57031 1084.92 6.57031 1077.24C6.57031 1067.99 10.2812 1060.83 17.7031 1055.75C25.1901 1050.61 35.3464 1048.04 48.1719 1048.04C60.8672 1048.04 72.8789 1050.61 84.207 1055.75L76.7852 1073.04C65.1315 1068.22 55.3333 1065.81 47.3906 1065.81C35.2812 1065.81 29.2266 1069.26 29.2266 1076.16C29.2266 1079.55 30.7891 1082.41 33.9141 1084.76C37.1042 1087.1 44.0052 1090.32 54.6172 1094.43C63.5365 1097.88 70.0143 1101.03 74.0508 1103.9C78.0872 1106.76 81.082 1110.08 83.0352 1113.86C84.9883 1117.57 85.9648 1122.03 85.9648 1127.24ZM183.039 1158L179.816 1143.84H178.645C175.454 1148.85 170.897 1152.79 164.973 1155.66C159.113 1158.52 152.408 1159.95 144.855 1159.95C131.77 1159.95 122.004 1156.7 115.559 1150.19C109.113 1143.68 105.891 1133.81 105.891 1120.6V1049.99H129.035V1116.59C129.035 1124.86 130.728 1131.08 134.113 1135.25C137.499 1139.35 142.805 1141.4 150.031 1141.4C159.667 1141.4 166.73 1138.53 171.223 1132.8C175.78 1127.01 178.059 1117.34 178.059 1103.8V1049.99H201.105V1158H183.039ZM252.77 1158H229.82V1049.99H252.77V1158ZM228.453 1021.38C228.453 1017.28 229.56 1014.12 231.773 1011.91C234.052 1009.69 237.275 1008.59 241.441 1008.59C245.478 1008.59 248.603 1009.69 250.816 1011.91C253.095 1014.12 254.234 1017.28 254.234 1021.38C254.234 1025.29 253.095 1028.38 250.816 1030.66C248.603 1032.87 245.478 1033.98 241.441 1033.98C237.275 1033.98 234.052 1032.87 231.773 1030.66C229.56 1028.38 228.453 1025.29 228.453 1021.38ZM321.914 1141.4C327.513 1141.4 333.112 1140.52 338.711 1138.76V1156.05C336.172 1157.15 332.884 1158.07 328.848 1158.78C324.876 1159.56 320.742 1159.95 316.445 1159.95C294.701 1159.95 283.828 1148.49 283.828 1125.58V1067.38H269.082V1057.22L284.902 1048.82L292.715 1025.97H306.875V1049.99H337.637V1067.38H306.875V1125.19C306.875 1130.72 308.242 1134.82 310.977 1137.49C313.776 1140.1 317.422 1141.4 321.914 1141.4ZM379.34 1158H356.391V1049.99H379.34V1158ZM355.023 1021.38C355.023 1017.28 356.13 1014.12 358.344 1011.91C360.622 1009.69 363.845 1008.59 368.012 1008.59C372.048 1008.59 375.173 1009.69 377.387 1011.91C379.665 1014.12 380.805 1017.28 380.805 1021.38C380.805 1025.29 379.665 1028.38 377.387 1030.66C375.173 1032.87 372.048 1033.98 368.012 1033.98C363.845 1033.98 360.622 1032.87 358.344 1030.66C356.13 1028.38 355.023 1025.29 355.023 1021.38ZM503.27 1158H480.223V1091.59C480.223 1083.26 478.53 1077.04 475.145 1072.94C471.824 1068.84 466.518 1066.79 459.227 1066.79C449.526 1066.79 442.43 1069.65 437.938 1075.38C433.445 1081.11 431.199 1090.71 431.199 1104.19V1158H408.25V1049.99H426.219L429.441 1064.15H430.613C433.868 1059.01 438.491 1055.04 444.48 1052.24C450.47 1049.44 457.111 1048.04 464.402 1048.04C490.314 1048.04 503.27 1061.22 503.27 1087.59V1158ZM622.414 1049.99V1062.59L603.957 1066.01C605.65 1068.29 607.049 1071.09 608.156 1074.41C609.263 1077.73 609.816 1081.24 609.816 1084.95C609.816 1096.09 605.975 1104.84 598.293 1111.22C590.611 1117.6 580.031 1120.79 566.555 1120.79C563.104 1120.79 559.979 1120.53 557.18 1120.01C552.232 1123.07 549.758 1126.65 549.758 1130.75C549.758 1133.23 550.897 1135.08 553.176 1136.32C555.52 1137.56 559.784 1138.18 565.969 1138.18H584.816C596.73 1138.18 605.78 1140.71 611.965 1145.79C618.15 1150.87 621.242 1158.2 621.242 1167.77C621.242 1180.01 616.197 1189.45 606.105 1196.09C596.014 1202.73 581.431 1206.05 562.355 1206.05C547.642 1206.05 536.411 1203.44 528.664 1198.23C520.917 1193.03 517.043 1185.6 517.043 1175.97C517.043 1169.33 519.126 1163.73 523.293 1159.17C527.525 1154.68 533.417 1151.55 540.969 1149.8C537.909 1148.49 535.37 1146.41 533.352 1143.55C531.398 1140.62 530.422 1137.56 530.422 1134.37C530.422 1130.33 531.561 1126.91 533.84 1124.11C536.118 1121.31 539.504 1118.55 543.996 1115.81C538.397 1113.4 533.84 1109.5 530.324 1104.09C526.874 1098.62 525.148 1092.24 525.148 1084.95C525.148 1073.23 528.827 1064.15 536.184 1057.71C543.605 1051.26 554.152 1048.04 567.824 1048.04C570.884 1048.04 574.074 1048.27 577.395 1048.72C580.78 1049.11 583.319 1049.54 585.012 1049.99H622.414ZM537.551 1174.8C537.551 1179.74 539.764 1183.55 544.191 1186.22C548.684 1188.89 554.966 1190.23 563.039 1190.23C575.539 1190.23 584.849 1188.44 590.969 1184.86C597.089 1181.27 600.148 1176.52 600.148 1170.6C600.148 1165.91 598.456 1162.56 595.07 1160.54C591.75 1158.59 585.533 1157.61 576.418 1157.61H559.035C552.46 1157.61 547.219 1159.14 543.312 1162.2C539.471 1165.32 537.551 1169.52 537.551 1174.8ZM547.414 1084.95C547.414 1091.72 549.139 1096.93 552.59 1100.58C556.105 1104.22 561.118 1106.05 567.629 1106.05C580.91 1106.05 587.551 1098.95 587.551 1084.76C587.551 1077.73 585.891 1072.32 582.57 1068.55C579.315 1064.71 574.335 1062.79 567.629 1062.79C560.988 1062.79 555.943 1064.67 552.492 1068.45C549.107 1072.23 547.414 1077.73 547.414 1084.95ZM778.607 1048.04C792.084 1048.04 802.565 1052.92 810.052 1062.69C817.604 1072.45 821.38 1086.16 821.38 1103.8C821.38 1121.51 817.572 1135.31 809.955 1145.21C802.338 1155.04 791.758 1159.95 778.216 1159.95C764.545 1159.95 753.933 1155.04 746.38 1145.21H744.818L740.619 1158H723.431V1006.05H746.38V1042.18C746.38 1044.85 746.25 1048.82 745.99 1054.09C745.729 1059.37 745.534 1062.72 745.404 1064.15H746.38C753.672 1053.41 764.414 1048.04 778.607 1048.04ZM772.65 1066.79C763.405 1066.79 756.732 1069.52 752.63 1074.99C748.594 1080.4 746.511 1089.48 746.38 1102.24V1103.8C746.38 1116.95 748.464 1126.49 752.63 1132.41C756.797 1138.27 763.601 1141.2 773.041 1141.2C781.179 1141.2 787.331 1137.98 791.498 1131.54C795.729 1125.09 797.845 1115.78 797.845 1103.61C797.845 1079.06 789.447 1066.79 772.65 1066.79ZM920.213 1158L916.99 1143.84H915.818C912.628 1148.85 908.071 1152.79 902.146 1155.66C896.287 1158.52 889.581 1159.95 882.029 1159.95C868.943 1159.95 859.177 1156.7 852.732 1150.19C846.287 1143.68 843.064 1133.81 843.064 1120.6V1049.99H866.209V1116.59C866.209 1124.86 867.901 1131.08 871.287 1135.25C874.672 1139.35 879.978 1141.4 887.205 1141.4C896.84 1141.4 903.904 1138.53 908.396 1132.8C912.953 1127.01 915.232 1117.34 915.232 1103.8V1049.99H938.279V1158H920.213ZM1007.23 1141.4C1012.83 1141.4 1018.43 1140.52 1024.03 1138.76V1156.05C1021.49 1157.15 1018.2 1158.07 1014.16 1158.78C1010.19 1159.56 1006.06 1159.95 1001.76 1159.95C980.015 1159.95 969.142 1148.49 969.142 1125.58V1067.38H954.396V1057.22L970.216 1048.82L978.029 1025.97H992.189V1049.99H1022.95V1067.38H992.189V1125.19C992.189 1130.72 993.556 1134.82 996.291 1137.49C999.09 1140.1 1002.74 1141.4 1007.23 1141.4ZM1149.55 1158H1126.6V1049.99H1149.55V1158ZM1125.24 1021.38C1125.24 1017.28 1126.34 1014.12 1128.56 1011.91C1130.84 1009.69 1134.06 1008.59 1138.23 1008.59C1142.26 1008.59 1145.39 1009.69 1147.6 1011.91C1149.88 1014.12 1151.02 1017.28 1151.02 1021.38C1151.02 1025.29 1149.88 1028.38 1147.6 1030.66C1145.39 1032.87 1142.26 1033.98 1138.23 1033.98C1134.06 1033.98 1130.84 1032.87 1128.56 1030.66C1126.34 1028.38 1125.24 1025.29 1125.24 1021.38ZM1351.94 1158L1337.97 1107.61C1336.28 1102.27 1333.22 1089.87 1328.79 1070.4H1327.91C1324.14 1087.98 1321.14 1100.45 1318.93 1107.8L1304.57 1158H1279.18L1248.91 1049.99H1272.35L1286.12 1103.21C1289.24 1116.37 1291.46 1127.63 1292.76 1137H1293.34C1294 1132.25 1294.97 1126.82 1296.27 1120.7C1297.64 1114.51 1298.81 1109.89 1299.79 1106.83L1316.2 1049.99H1341.39L1357.31 1106.83C1358.29 1110.02 1359.49 1114.9 1360.92 1121.48C1362.42 1128.05 1363.3 1133.16 1363.56 1136.81H1364.34C1365.32 1128.8 1367.6 1117.6 1371.18 1103.21L1385.14 1049.99H1408.19L1377.72 1158H1351.94ZM1490.42 1158L1485.83 1142.96H1485.05C1479.84 1149.54 1474.6 1154.03 1469.32 1156.44C1464.05 1158.78 1457.28 1159.95 1449.01 1159.95C1438.4 1159.95 1430.1 1157.09 1424.11 1151.36C1418.19 1145.63 1415.22 1137.52 1415.22 1127.04C1415.22 1115.91 1419.36 1107.51 1427.63 1101.85C1435.89 1096.18 1448.49 1093.09 1465.42 1092.57L1484.07 1091.98V1086.22C1484.07 1079.32 1482.44 1074.18 1479.19 1070.79C1476 1067.34 1471.02 1065.62 1464.25 1065.62C1458.71 1065.62 1453.41 1066.43 1448.33 1068.06C1443.25 1069.69 1438.37 1071.61 1433.68 1073.82L1426.26 1057.41C1432.12 1054.35 1438.53 1052.04 1445.5 1050.48C1452.46 1048.85 1459.04 1048.04 1465.22 1048.04C1478.96 1048.04 1489.31 1051.03 1496.28 1057.02C1503.31 1063.01 1506.82 1072.42 1506.82 1085.25V1158H1490.42ZM1456.24 1142.38C1464.57 1142.38 1471.25 1140.06 1476.26 1135.44C1481.34 1130.75 1483.88 1124.21 1483.88 1115.81V1106.44L1470.01 1107.02C1459.2 1107.41 1451.32 1109.24 1446.38 1112.49C1441.49 1115.68 1439.05 1120.6 1439.05 1127.24C1439.05 1132.06 1440.48 1135.8 1443.35 1138.47C1446.21 1141.07 1450.51 1142.38 1456.24 1142.38ZM1629.88 1158H1606.83V1091.59C1606.83 1083.26 1605.14 1077.04 1601.75 1072.94C1598.43 1068.84 1593.12 1066.79 1585.83 1066.79C1576.13 1066.79 1569.04 1069.65 1564.54 1075.38C1560.05 1081.11 1557.81 1090.71 1557.81 1104.19V1158H1534.86V1049.99H1552.82L1556.05 1064.15H1557.22C1560.47 1059.01 1565.1 1055.04 1571.09 1052.24C1577.08 1049.44 1583.72 1048.04 1591.01 1048.04C1616.92 1048.04 1629.88 1061.22 1629.88 1087.59V1158ZM1698.04 1141.4C1703.64 1141.4 1709.24 1140.52 1714.84 1138.76V1156.05C1712.3 1157.15 1709.01 1158.07 1704.98 1158.78C1701.01 1159.56 1696.87 1159.95 1692.57 1159.95C1670.83 1159.95 1659.96 1148.49 1659.96 1125.58V1067.38H1645.21V1057.22L1661.03 1048.82L1668.84 1025.97H1683V1049.99H1713.77V1067.38H1683V1125.19C1683 1130.72 1684.37 1134.82 1687.11 1137.49C1689.91 1140.1 1693.55 1141.4 1698.04 1141.4ZM1779.69 1159.95C1762.89 1159.95 1749.74 1155.07 1740.24 1145.3C1730.8 1135.47 1726.07 1121.96 1726.07 1104.78C1726.07 1087.13 1730.47 1073.27 1739.26 1063.18C1748.05 1053.08 1760.12 1048.04 1775.49 1048.04C1789.75 1048.04 1801.01 1052.37 1809.28 1061.03C1817.55 1069.69 1821.68 1081.6 1821.68 1096.77V1109.17H1749.71C1750.03 1119.65 1752.87 1127.73 1758.2 1133.39C1763.54 1138.99 1771.06 1141.79 1780.76 1141.79C1787.14 1141.79 1793.07 1141.2 1798.54 1140.03C1804.07 1138.79 1809.99 1136.78 1816.31 1133.98V1152.63C1810.71 1155.3 1805.05 1157.19 1799.32 1158.29C1793.59 1159.4 1787.05 1159.95 1779.69 1159.95ZM1775.49 1065.42C1768.2 1065.42 1762.34 1067.73 1757.91 1072.36C1753.55 1076.98 1750.94 1083.72 1750.1 1092.57H1799.12C1798.99 1083.65 1796.84 1076.91 1792.68 1072.36C1788.51 1067.73 1782.78 1065.42 1775.49 1065.42ZM1880.18 1159.95C1866.7 1159.95 1856.19 1155.07 1848.64 1145.3C1841.09 1135.54 1837.31 1121.83 1837.31 1104.19C1837.31 1086.48 1841.12 1072.71 1848.74 1062.88C1856.42 1052.99 1867.03 1048.04 1880.57 1048.04C1894.76 1048.04 1905.57 1053.28 1912.99 1063.76H1914.16C1913.06 1056.01 1912.5 1049.89 1912.5 1045.4V1006.05H1935.55V1158H1917.58L1913.58 1143.84H1912.5C1905.15 1154.58 1894.37 1159.95 1880.18 1159.95ZM1886.33 1141.4C1895.77 1141.4 1902.64 1138.76 1906.94 1133.49C1911.24 1128.15 1913.45 1119.52 1913.58 1107.61V1104.39C1913.58 1090.78 1911.37 1081.11 1906.94 1075.38C1902.51 1069.65 1895.58 1066.79 1886.14 1066.79C1878.06 1066.79 1871.85 1070.08 1867.49 1076.65C1863.12 1083.16 1860.94 1092.47 1860.94 1104.58C1860.94 1116.56 1863.06 1125.71 1867.29 1132.02C1871.52 1138.27 1877.87 1141.4 1886.33 1141.4ZM2089.5 1141.4C2095.1 1141.4 2100.7 1140.52 2106.3 1138.76V1156.05C2103.76 1157.15 2100.47 1158.07 2096.43 1158.78C2092.46 1159.56 2088.33 1159.95 2084.03 1159.95C2062.28 1159.95 2051.41 1148.49 2051.41 1125.58V1067.38H2036.67V1057.22L2052.49 1048.82L2060.3 1025.97H2074.46V1049.99H2105.22V1067.38H2074.46V1125.19C2074.46 1130.72 2075.83 1134.82 2078.56 1137.49C2081.36 1140.1 2085.01 1141.4 2089.5 1141.4ZM2219.78 1103.8C2219.78 1121.44 2215.25 1135.21 2206.2 1145.11C2197.15 1155.01 2184.55 1159.95 2168.41 1159.95C2158.32 1159.95 2149.4 1157.67 2141.65 1153.12C2133.9 1148.56 2127.95 1142.02 2123.78 1133.49C2119.61 1124.96 2117.53 1115.06 2117.53 1103.8C2117.53 1086.29 2122.02 1072.62 2131.01 1062.79C2139.99 1052.95 2152.65 1048.04 2168.99 1048.04C2184.62 1048.04 2196.99 1053.08 2206.1 1063.18C2215.22 1073.2 2219.78 1086.74 2219.78 1103.8ZM2141.16 1103.8C2141.16 1128.74 2150.37 1141.2 2168.8 1141.2C2187.03 1141.2 2196.14 1128.74 2196.14 1103.8C2196.14 1079.13 2186.96 1066.79 2168.6 1066.79C2158.97 1066.79 2151.97 1069.98 2147.61 1076.36C2143.31 1082.74 2141.16 1091.89 2141.16 1103.8ZM2367.38 1141.4C2372.97 1141.4 2378.57 1140.52 2384.17 1138.76V1156.05C2381.63 1157.15 2378.35 1158.07 2374.31 1158.78C2370.34 1159.56 2366.2 1159.95 2361.91 1159.95C2340.16 1159.95 2329.29 1148.49 2329.29 1125.58V1067.38H2314.54V1057.22L2330.36 1048.82L2338.18 1025.97H2352.34V1049.99H2383.1V1067.38H2352.34V1125.19C2352.34 1130.72 2353.7 1134.82 2356.44 1137.49C2359.24 1140.1 2362.88 1141.4 2367.38 1141.4ZM2456.64 1048.04C2461.26 1048.04 2465.07 1048.36 2468.06 1049.02L2465.82 1070.4C2462.56 1069.62 2459.18 1069.23 2455.66 1069.23C2446.48 1069.23 2439.03 1072.23 2433.3 1078.21C2427.63 1084.2 2424.8 1091.98 2424.8 1101.55V1158H2401.85V1049.99H2419.82L2422.85 1069.04H2424.02C2427.6 1062.59 2432.26 1057.48 2437.98 1053.7C2443.78 1049.93 2450 1048.04 2456.64 1048.04ZM2467.77 1049.99H2492.77L2514.75 1111.22C2518.07 1119.95 2520.28 1128.15 2521.39 1135.83H2522.17C2522.75 1132.25 2523.83 1127.92 2525.39 1122.84C2526.95 1117.7 2535.22 1093.42 2550.2 1049.99H2575L2528.81 1172.36C2520.41 1194.82 2506.41 1206.05 2486.82 1206.05C2481.74 1206.05 2476.79 1205.49 2471.97 1204.39V1186.22C2475.42 1187 2479.36 1187.39 2483.79 1187.39C2494.86 1187.39 2502.64 1180.98 2507.13 1168.16L2511.13 1158L2467.77 1049.99ZM85.9648 1378.24C85.9648 1388.79 82.1237 1396.89 74.4414 1402.55C66.7591 1408.15 55.7565 1410.95 41.4336 1410.95C27.0456 1410.95 15.4896 1408.77 6.76562 1404.41V1384.59C19.4609 1390.45 31.2773 1393.38 42.2148 1393.38C56.3424 1393.38 63.4062 1389.11 63.4062 1380.58C63.4062 1377.85 62.625 1375.57 61.0625 1373.75C59.5 1371.92 56.9284 1370.04 53.3477 1368.08C49.7669 1366.13 44.7865 1363.92 38.4062 1361.44C25.9714 1356.62 17.5404 1351.81 13.1133 1346.99C8.7513 1342.17 6.57031 1335.92 6.57031 1328.24C6.57031 1318.99 10.2812 1311.83 17.7031 1306.75C25.1901 1301.61 35.3464 1299.04 48.1719 1299.04C60.8672 1299.04 72.8789 1301.61 84.207 1306.75L76.7852 1324.04C65.1315 1319.22 55.3333 1316.81 47.3906 1316.81C35.2812 1316.81 29.2266 1320.26 29.2266 1327.16C29.2266 1330.55 30.7891 1333.41 33.9141 1335.76C37.1042 1338.1 44.0052 1341.32 54.6172 1345.43C63.5365 1348.88 70.0143 1352.03 74.0508 1354.9C78.0872 1357.76 81.082 1361.08 83.0352 1364.86C84.9883 1368.57 85.9648 1373.03 85.9648 1378.24ZM202.668 1354.8C202.668 1372.44 198.143 1386.21 189.094 1396.11C180.044 1406.01 167.447 1410.95 151.301 1410.95C141.21 1410.95 132.29 1408.67 124.543 1404.12C116.796 1399.56 110.839 1393.02 106.672 1384.49C102.505 1375.96 100.422 1366.06 100.422 1354.8C100.422 1337.29 104.914 1323.62 113.898 1313.79C122.883 1303.95 135.546 1299.04 151.887 1299.04C167.512 1299.04 179.882 1304.08 188.996 1314.18C198.111 1324.2 202.668 1337.74 202.668 1354.8ZM124.055 1354.8C124.055 1379.74 133.267 1392.2 151.691 1392.2C169.921 1392.2 179.035 1379.74 179.035 1354.8C179.035 1330.13 169.855 1317.79 151.496 1317.79C141.861 1317.79 134.862 1320.98 130.5 1327.36C126.203 1333.74 124.055 1342.89 124.055 1354.8ZM316.148 1409H293.102V1342.4C293.102 1334.13 291.539 1327.98 288.414 1323.94C285.289 1319.84 280.406 1317.79 273.766 1317.79C264.911 1317.79 258.401 1320.69 254.234 1326.48C250.133 1332.21 248.082 1341.78 248.082 1355.19V1409H225.133V1300.99H243.102L246.324 1315.15H247.496C250.491 1310.01 254.82 1306.04 260.484 1303.24C266.214 1300.44 272.496 1299.04 279.332 1299.04C295.934 1299.04 306.936 1304.7 312.34 1316.03H313.902C317.092 1310.69 321.585 1306.53 327.379 1303.53C333.173 1300.54 339.814 1299.04 347.301 1299.04C360.191 1299.04 369.566 1302.29 375.426 1308.8C381.35 1315.32 384.312 1325.24 384.312 1338.59V1409H361.363V1342.4C361.363 1334.13 359.768 1327.98 356.578 1323.94C353.453 1319.84 348.57 1317.79 341.93 1317.79C333.01 1317.79 326.467 1320.59 322.301 1326.19C318.199 1331.72 316.148 1340.25 316.148 1351.77V1409ZM459.512 1410.95C442.715 1410.95 429.564 1406.07 420.059 1396.3C410.618 1386.47 405.898 1372.96 405.898 1355.78C405.898 1338.13 410.293 1324.27 419.082 1314.18C427.871 1304.08 439.948 1299.04 455.312 1299.04C469.57 1299.04 480.833 1303.37 489.102 1312.03C497.37 1320.69 501.504 1332.6 501.504 1347.77V1360.17H429.531C429.857 1370.65 432.689 1378.73 438.027 1384.39C443.366 1389.99 450.885 1392.79 460.586 1392.79C466.966 1392.79 472.891 1392.2 478.359 1391.03C483.893 1389.79 489.818 1387.78 496.133 1384.98V1403.63C490.534 1406.3 484.87 1408.19 479.141 1409.29C473.411 1410.4 466.868 1410.95 459.512 1410.95ZM455.312 1316.42C448.021 1316.42 442.161 1318.73 437.734 1323.36C433.372 1327.98 430.768 1334.72 429.922 1343.57H478.945C478.815 1334.65 476.667 1327.91 472.5 1323.36C468.333 1318.73 462.604 1316.42 455.312 1316.42ZM563.812 1392.4C569.411 1392.4 575.01 1391.52 580.609 1389.76V1407.05C578.07 1408.15 574.783 1409.07 570.746 1409.78C566.775 1410.56 562.641 1410.95 558.344 1410.95C536.599 1410.95 525.727 1399.49 525.727 1376.58V1318.38H510.98V1308.22L526.801 1299.82L534.613 1276.97H548.773V1300.99H579.535V1318.38H548.773V1376.19C548.773 1381.72 550.141 1385.82 552.875 1388.49C555.674 1391.1 559.32 1392.4 563.812 1392.4ZM693.309 1409H670.262V1342.59C670.262 1334.26 668.569 1328.04 665.184 1323.94C661.863 1319.84 656.557 1317.79 649.266 1317.79C639.63 1317.79 632.534 1320.69 627.977 1326.48C623.484 1332.21 621.238 1341.85 621.238 1355.39V1409H598.289V1257.05H621.238V1295.62C621.238 1301.81 620.848 1308.41 620.066 1315.45H621.531C624.656 1310.24 628.986 1306.2 634.52 1303.34C640.118 1300.47 646.629 1299.04 654.051 1299.04C680.223 1299.04 693.309 1312.22 693.309 1338.59V1409ZM744.191 1409H721.242V1300.99H744.191V1409ZM719.875 1272.38C719.875 1268.28 720.982 1265.12 723.195 1262.91C725.474 1260.69 728.697 1259.59 732.863 1259.59C736.9 1259.59 740.025 1260.69 742.238 1262.91C744.517 1265.12 745.656 1268.28 745.656 1272.38C745.656 1276.29 744.517 1279.38 742.238 1281.66C740.025 1283.87 736.9 1284.98 732.863 1284.98C728.697 1284.98 725.474 1283.87 723.195 1281.66C720.982 1279.38 719.875 1276.29 719.875 1272.38ZM868.121 1409H845.074V1342.59C845.074 1334.26 843.382 1328.04 839.996 1323.94C836.676 1319.84 831.37 1317.79 824.078 1317.79C814.378 1317.79 807.281 1320.65 802.789 1326.38C798.297 1332.11 796.051 1341.71 796.051 1355.19V1409H773.102V1300.99H791.07L794.293 1315.15H795.465C798.72 1310.01 803.342 1306.04 809.332 1303.24C815.322 1300.44 821.962 1299.04 829.254 1299.04C855.165 1299.04 868.121 1312.22 868.121 1338.59V1409ZM987.266 1300.99V1313.59L968.809 1317.01C970.501 1319.29 971.901 1322.09 973.008 1325.41C974.115 1328.73 974.668 1332.24 974.668 1335.95C974.668 1347.09 970.827 1355.84 963.145 1362.22C955.462 1368.6 944.883 1371.79 931.406 1371.79C927.956 1371.79 924.831 1371.53 922.031 1371.01C917.083 1374.07 914.609 1377.65 914.609 1381.75C914.609 1384.23 915.749 1386.08 918.027 1387.32C920.371 1388.56 924.635 1389.18 930.82 1389.18H949.668C961.582 1389.18 970.632 1391.71 976.816 1396.79C983.001 1401.87 986.094 1409.2 986.094 1418.77C986.094 1431.01 981.048 1440.45 970.957 1447.09C960.866 1453.73 946.283 1457.05 927.207 1457.05C912.493 1457.05 901.263 1454.44 893.516 1449.23C885.768 1444.03 881.895 1436.6 881.895 1426.97C881.895 1420.33 883.978 1414.73 888.145 1410.17C892.376 1405.68 898.268 1402.55 905.82 1400.8C902.76 1399.49 900.221 1397.41 898.203 1394.55C896.25 1391.62 895.273 1388.56 895.273 1385.37C895.273 1381.33 896.413 1377.91 898.691 1375.11C900.97 1372.31 904.355 1369.55 908.848 1366.81C903.249 1364.4 898.691 1360.5 895.176 1355.09C891.725 1349.62 890 1343.24 890 1335.95C890 1324.23 893.678 1315.15 901.035 1308.71C908.457 1302.26 919.004 1299.04 932.676 1299.04C935.736 1299.04 938.926 1299.27 942.246 1299.72C945.632 1300.11 948.171 1300.54 949.863 1300.99H987.266ZM902.402 1425.8C902.402 1430.74 904.616 1434.55 909.043 1437.22C913.535 1439.89 919.818 1441.23 927.891 1441.23C940.391 1441.23 949.701 1439.44 955.82 1435.86C961.94 1432.27 965 1427.52 965 1421.6C965 1416.91 963.307 1413.56 959.922 1411.54C956.602 1409.59 950.384 1408.61 941.27 1408.61H923.887C917.311 1408.61 912.07 1410.14 908.164 1413.2C904.323 1416.32 902.402 1420.52 902.402 1425.8ZM912.266 1335.95C912.266 1342.72 913.991 1347.93 917.441 1351.58C920.957 1355.22 925.97 1357.05 932.48 1357.05C945.762 1357.05 952.402 1349.95 952.402 1335.76C952.402 1328.73 950.742 1323.32 947.422 1319.55C944.167 1315.71 939.186 1313.79 932.48 1313.79C925.84 1313.79 920.794 1315.67 917.344 1319.45C913.958 1323.23 912.266 1328.73 912.266 1335.95ZM1139.91 1409L1125.95 1358.61C1124.25 1353.27 1121.19 1340.87 1116.77 1321.4H1115.89C1112.11 1338.98 1109.12 1351.45 1106.9 1358.8L1092.55 1409H1067.16L1036.88 1300.99H1060.32L1074.09 1354.21C1077.21 1367.37 1079.43 1378.63 1080.73 1388H1081.32C1081.97 1383.25 1082.94 1377.82 1084.25 1371.7C1085.61 1365.51 1086.79 1360.89 1087.76 1357.83L1104.17 1300.99H1129.36L1145.28 1357.83C1146.26 1361.02 1147.46 1365.9 1148.89 1372.48C1150.39 1379.05 1151.27 1384.16 1151.53 1387.81H1152.31C1153.29 1379.8 1155.57 1368.6 1159.15 1354.21L1173.11 1300.99H1196.16L1165.69 1409H1139.91ZM1257.98 1410.95C1241.18 1410.95 1228.03 1406.07 1218.53 1396.3C1209.09 1386.47 1204.37 1372.96 1204.37 1355.78C1204.37 1338.13 1208.76 1324.27 1217.55 1314.18C1226.34 1304.08 1238.42 1299.04 1253.78 1299.04C1268.04 1299.04 1279.3 1303.37 1287.57 1312.03C1295.84 1320.69 1299.97 1332.6 1299.97 1347.77V1360.17H1228C1228.33 1370.65 1231.16 1378.73 1236.5 1384.39C1241.83 1389.99 1249.35 1392.79 1259.05 1392.79C1265.43 1392.79 1271.36 1392.2 1276.83 1391.03C1282.36 1389.79 1288.29 1387.78 1294.6 1384.98V1403.63C1289 1406.3 1283.34 1408.19 1277.61 1409.29C1271.88 1410.4 1265.34 1410.95 1257.98 1410.95ZM1253.78 1316.42C1246.49 1316.42 1240.63 1318.73 1236.2 1323.36C1231.84 1327.98 1229.24 1334.72 1228.39 1343.57H1277.41C1277.28 1334.65 1275.14 1327.91 1270.97 1323.36C1266.8 1318.73 1261.07 1316.42 1253.78 1316.42ZM1345 1409H1322.05V1300.99H1345V1409ZM1320.68 1272.38C1320.68 1268.28 1321.79 1265.12 1324 1262.91C1326.28 1260.69 1329.5 1259.59 1333.67 1259.59C1337.7 1259.59 1340.83 1260.69 1343.04 1262.91C1345.32 1265.12 1346.46 1268.28 1346.46 1272.38C1346.46 1276.29 1345.32 1279.38 1343.04 1281.66C1340.83 1283.87 1337.7 1284.98 1333.67 1284.98C1329.5 1284.98 1326.28 1283.87 1324 1281.66C1321.79 1279.38 1320.68 1276.29 1320.68 1272.38ZM1428.69 1299.04C1433.31 1299.04 1437.12 1299.36 1440.12 1300.02L1437.87 1321.4C1434.62 1320.62 1431.23 1320.23 1427.71 1320.23C1418.54 1320.23 1411.08 1323.23 1405.35 1329.21C1399.69 1335.2 1396.86 1342.98 1396.86 1352.55V1409H1373.91V1300.99H1391.88L1394.9 1320.04H1396.07C1399.65 1313.59 1404.31 1308.48 1410.04 1304.7C1415.83 1300.93 1422.05 1299.04 1428.69 1299.04ZM1492.66 1410.95C1479.18 1410.95 1468.67 1406.07 1461.12 1396.3C1453.57 1386.54 1449.79 1372.83 1449.79 1355.19C1449.79 1337.48 1453.6 1323.71 1461.21 1313.88C1468.9 1303.99 1479.51 1299.04 1493.05 1299.04C1507.24 1299.04 1518.05 1304.28 1525.47 1314.76H1526.64C1525.54 1307.01 1524.98 1300.89 1524.98 1296.4V1257.05H1548.03V1409H1530.06L1526.06 1394.84H1524.98C1517.63 1405.58 1506.85 1410.95 1492.66 1410.95ZM1498.81 1392.4C1508.25 1392.4 1515.12 1389.76 1519.42 1384.49C1523.71 1379.15 1525.93 1370.52 1526.06 1358.61V1355.39C1526.06 1341.78 1523.85 1332.11 1519.42 1326.38C1514.99 1320.65 1508.06 1317.79 1498.62 1317.79C1490.54 1317.79 1484.33 1321.08 1479.96 1327.65C1475.6 1334.16 1473.42 1343.47 1473.42 1355.58C1473.42 1367.56 1475.54 1376.71 1479.77 1383.02C1484 1389.27 1490.35 1392.4 1498.81 1392.4ZM1573.43 1396.79C1573.43 1392.04 1574.66 1388.39 1577.14 1385.86C1579.61 1383.32 1583.19 1382.05 1587.88 1382.05C1592.63 1382.05 1596.24 1383.38 1598.72 1386.05C1601.19 1388.65 1602.43 1392.24 1602.43 1396.79C1602.43 1401.42 1601.16 1405.09 1598.62 1407.83C1596.15 1410.5 1592.57 1411.83 1587.88 1411.83C1583.19 1411.83 1579.61 1410.5 1577.14 1407.83C1574.66 1405.16 1573.43 1401.48 1573.43 1396.79ZM1624.5 1396.79C1624.5 1392.04 1625.74 1388.39 1628.21 1385.86C1630.69 1383.32 1634.27 1382.05 1638.96 1382.05C1643.71 1382.05 1647.32 1383.38 1649.8 1386.05C1652.27 1388.65 1653.51 1392.24 1653.51 1396.79C1653.51 1401.42 1652.24 1405.09 1649.7 1407.83C1647.23 1410.5 1643.64 1411.83 1638.96 1411.83C1634.27 1411.83 1630.69 1410.5 1628.21 1407.83C1625.74 1405.16 1624.5 1401.48 1624.5 1396.79ZM1675.58 1396.79C1675.58 1392.04 1676.82 1388.39 1679.29 1385.86C1681.77 1383.32 1685.35 1382.05 1690.04 1382.05C1694.79 1382.05 1698.4 1383.38 1700.88 1386.05C1703.35 1388.65 1704.59 1392.24 1704.59 1396.79C1704.59 1401.42 1703.32 1405.09 1700.78 1407.83C1698.3 1410.5 1694.72 1411.83 1690.04 1411.83C1685.35 1411.83 1681.77 1410.5 1679.29 1407.83C1676.82 1405.16 1675.58 1401.48 1675.58 1396.79Z" fill="#404040"/>
</svg>
